G75*
%MOIN*%
%OFA0B0*%
%FSLAX25Y25*%
%IPPOS*%
%LPD*%
%AMOC8*
5,1,8,0,0,1.08239X$1,22.5*
%
%ADD10C,0.01250*%
%ADD11R,0.03543X0.03150*%
%ADD12R,0.07874X0.07874*%
%ADD13R,0.06500X0.06500*%
%ADD14C,0.06500*%
%ADD15C,0.03937*%
%ADD16R,0.01378X0.05315*%
%ADD17R,0.05315X0.01378*%
%ADD18R,0.02165X0.04724*%
%ADD19R,0.04724X0.02165*%
%ADD20C,0.05150*%
%ADD21C,0.03740*%
%ADD22R,0.05315X0.01575*%
%ADD23C,0.04000*%
%ADD24R,0.01969X0.08661*%
%ADD25C,0.01750*%
%ADD26C,0.08858*%
%ADD27R,0.03937X0.03937*%
%ADD28R,0.03937X0.03150*%
%ADD29C,0.00600*%
%ADD30C,0.02400*%
%ADD31C,0.01600*%
%ADD32C,0.02800*%
%ADD33C,0.01000*%
D10*
X0093043Y0038360D02*
X0094293Y0038360D01*
X0093043Y0038360D02*
X0093043Y0039610D01*
X0094293Y0039610D01*
X0094293Y0038360D01*
X0094293Y0039609D02*
X0093043Y0039609D01*
X0093043Y0041860D02*
X0094293Y0041860D01*
X0093043Y0041860D02*
X0093043Y0043110D01*
X0094293Y0043110D01*
X0094293Y0041860D01*
X0094293Y0043109D02*
X0093043Y0043109D01*
X0093043Y0056076D02*
X0093043Y0057326D01*
X0094293Y0057326D01*
X0094293Y0056076D01*
X0093043Y0056076D01*
X0093043Y0057325D02*
X0094293Y0057325D01*
X0093043Y0059576D02*
X0093043Y0060826D01*
X0094293Y0060826D01*
X0094293Y0059576D01*
X0093043Y0059576D01*
X0093043Y0060825D02*
X0094293Y0060825D01*
X0109634Y0080635D02*
X0109634Y0081885D01*
X0110884Y0081885D01*
X0110884Y0080635D01*
X0109634Y0080635D01*
X0109634Y0081884D02*
X0110884Y0081884D01*
X0109634Y0084135D02*
X0109634Y0085385D01*
X0110884Y0085385D01*
X0110884Y0084135D01*
X0109634Y0084135D01*
X0109634Y0085384D02*
X0110884Y0085384D01*
X0109599Y0092654D02*
X0109599Y0093904D01*
X0110849Y0093904D01*
X0110849Y0092654D01*
X0109599Y0092654D01*
X0109599Y0093903D02*
X0110849Y0093903D01*
X0109599Y0096154D02*
X0109599Y0097404D01*
X0110849Y0097404D01*
X0110849Y0096154D01*
X0109599Y0096154D01*
X0109599Y0097403D02*
X0110849Y0097403D01*
X0124364Y0111370D02*
X0125614Y0111370D01*
X0124364Y0111370D02*
X0124364Y0112620D01*
X0125614Y0112620D01*
X0125614Y0111370D01*
X0125614Y0112619D02*
X0124364Y0112619D01*
X0127864Y0111370D02*
X0129114Y0111370D01*
X0127864Y0111370D02*
X0127864Y0112620D01*
X0129114Y0112620D01*
X0129114Y0111370D01*
X0129114Y0112619D02*
X0127864Y0112619D01*
X0127864Y0116094D02*
X0129114Y0116094D01*
X0127864Y0116094D02*
X0127864Y0117344D01*
X0129114Y0117344D01*
X0129114Y0116094D01*
X0129114Y0117343D02*
X0127864Y0117343D01*
X0125614Y0116094D02*
X0124364Y0116094D01*
X0124364Y0117344D01*
X0125614Y0117344D01*
X0125614Y0116094D01*
X0125614Y0117343D02*
X0124364Y0117343D01*
X0124364Y0123181D02*
X0125614Y0123181D01*
X0124364Y0123181D02*
X0124364Y0124431D01*
X0125614Y0124431D01*
X0125614Y0123181D01*
X0125614Y0124430D02*
X0124364Y0124430D01*
X0127864Y0123181D02*
X0129114Y0123181D01*
X0127864Y0123181D02*
X0127864Y0124431D01*
X0129114Y0124431D01*
X0129114Y0123181D01*
X0129114Y0124430D02*
X0127864Y0124430D01*
X0112994Y0134122D02*
X0111744Y0134122D01*
X0112994Y0134122D02*
X0112994Y0132872D01*
X0111744Y0132872D01*
X0111744Y0134122D01*
X0111744Y0134121D02*
X0112994Y0134121D01*
X0112994Y0137622D02*
X0111744Y0137622D01*
X0112994Y0137622D02*
X0112994Y0136372D01*
X0111744Y0136372D01*
X0111744Y0137622D01*
X0111744Y0137621D02*
X0112994Y0137621D01*
X0107639Y0137787D02*
X0107639Y0136537D01*
X0106389Y0136537D01*
X0106389Y0137787D01*
X0107639Y0137787D01*
X0107639Y0137786D02*
X0106389Y0137786D01*
X0107639Y0134287D02*
X0107639Y0133037D01*
X0106389Y0133037D01*
X0106389Y0134287D01*
X0107639Y0134287D01*
X0107639Y0134286D02*
X0106389Y0134286D01*
X0102545Y0134122D02*
X0102545Y0132872D01*
X0101295Y0132872D01*
X0101295Y0134122D01*
X0102545Y0134122D01*
X0102545Y0134121D02*
X0101295Y0134121D01*
X0102545Y0136372D02*
X0102545Y0137622D01*
X0102545Y0136372D02*
X0101295Y0136372D01*
X0101295Y0137622D01*
X0102545Y0137622D01*
X0102545Y0137621D02*
X0101295Y0137621D01*
X0080161Y0136787D02*
X0080161Y0135537D01*
X0080161Y0136787D02*
X0081411Y0136787D01*
X0081411Y0135537D01*
X0080161Y0135537D01*
X0080161Y0136786D02*
X0081411Y0136786D01*
X0080161Y0133287D02*
X0080161Y0132037D01*
X0080161Y0133287D02*
X0081411Y0133287D01*
X0081411Y0132037D01*
X0080161Y0132037D01*
X0080161Y0133286D02*
X0081411Y0133286D01*
X0077025Y0133413D02*
X0077025Y0132163D01*
X0075775Y0132163D01*
X0075775Y0133413D01*
X0077025Y0133413D01*
X0077025Y0133412D02*
X0075775Y0133412D01*
X0077025Y0135663D02*
X0077025Y0136913D01*
X0077025Y0135663D02*
X0075775Y0135663D01*
X0075775Y0136913D01*
X0077025Y0136913D01*
X0077025Y0136912D02*
X0075775Y0136912D01*
X0070952Y0128647D02*
X0069702Y0128647D01*
X0070952Y0128647D02*
X0070952Y0127397D01*
X0069702Y0127397D01*
X0069702Y0128647D01*
X0069702Y0128646D02*
X0070952Y0128646D01*
X0067452Y0128647D02*
X0066202Y0128647D01*
X0067452Y0128647D02*
X0067452Y0127397D01*
X0066202Y0127397D01*
X0066202Y0128647D01*
X0066202Y0128646D02*
X0067452Y0128646D01*
X0067452Y0122528D02*
X0066202Y0122528D01*
X0067452Y0122528D02*
X0067452Y0121278D01*
X0066202Y0121278D01*
X0066202Y0122528D01*
X0066202Y0122527D02*
X0067452Y0122527D01*
X0069702Y0122528D02*
X0070952Y0122528D01*
X0070952Y0121278D01*
X0069702Y0121278D01*
X0069702Y0122528D01*
X0069702Y0122527D02*
X0070952Y0122527D01*
X0070952Y0116958D02*
X0069702Y0116958D01*
X0070952Y0116958D02*
X0070952Y0115708D01*
X0069702Y0115708D01*
X0069702Y0116958D01*
X0069702Y0116957D02*
X0070952Y0116957D01*
X0067452Y0116958D02*
X0066202Y0116958D01*
X0067452Y0116958D02*
X0067452Y0115708D01*
X0066202Y0115708D01*
X0066202Y0116958D01*
X0066202Y0116957D02*
X0067452Y0116957D01*
X0075939Y0096015D02*
X0077189Y0096015D01*
X0075939Y0096015D02*
X0075939Y0097265D01*
X0077189Y0097265D01*
X0077189Y0096015D01*
X0077189Y0097264D02*
X0075939Y0097264D01*
X0079439Y0096015D02*
X0080689Y0096015D01*
X0079439Y0096015D02*
X0079439Y0097265D01*
X0080689Y0097265D01*
X0080689Y0096015D01*
X0080689Y0097264D02*
X0079439Y0097264D01*
X0079045Y0091685D02*
X0080295Y0091685D01*
X0079045Y0091685D02*
X0079045Y0092935D01*
X0080295Y0092935D01*
X0080295Y0091685D01*
X0080295Y0092934D02*
X0079045Y0092934D01*
X0076795Y0091685D02*
X0075545Y0091685D01*
X0075545Y0092935D01*
X0076795Y0092935D01*
X0076795Y0091685D01*
X0076795Y0092934D02*
X0075545Y0092934D01*
X0124539Y0060826D02*
X0124539Y0059576D01*
X0124539Y0060826D02*
X0125789Y0060826D01*
X0125789Y0059576D01*
X0124539Y0059576D01*
X0124539Y0060825D02*
X0125789Y0060825D01*
X0124539Y0057326D02*
X0124539Y0056076D01*
X0124539Y0057326D02*
X0125789Y0057326D01*
X0125789Y0056076D01*
X0124539Y0056076D01*
X0124539Y0057325D02*
X0125789Y0057325D01*
X0125789Y0041860D02*
X0124539Y0041860D01*
X0124539Y0043110D01*
X0125789Y0043110D01*
X0125789Y0041860D01*
X0125789Y0043109D02*
X0124539Y0043109D01*
X0124539Y0038360D02*
X0125789Y0038360D01*
X0124539Y0038360D02*
X0124539Y0039610D01*
X0125789Y0039610D01*
X0125789Y0038360D01*
X0125789Y0039609D02*
X0124539Y0039609D01*
X0156035Y0038360D02*
X0157285Y0038360D01*
X0156035Y0038360D02*
X0156035Y0039610D01*
X0157285Y0039610D01*
X0157285Y0038360D01*
X0157285Y0039609D02*
X0156035Y0039609D01*
X0156035Y0041860D02*
X0157285Y0041860D01*
X0156035Y0041860D02*
X0156035Y0043110D01*
X0157285Y0043110D01*
X0157285Y0041860D01*
X0157285Y0043109D02*
X0156035Y0043109D01*
X0156035Y0056076D02*
X0156035Y0057326D01*
X0157285Y0057326D01*
X0157285Y0056076D01*
X0156035Y0056076D01*
X0156035Y0057325D02*
X0157285Y0057325D01*
X0156035Y0059576D02*
X0156035Y0060826D01*
X0157285Y0060826D01*
X0157285Y0059576D01*
X0156035Y0059576D01*
X0156035Y0060825D02*
X0157285Y0060825D01*
X0180921Y0077072D02*
X0180921Y0078322D01*
X0180921Y0077072D02*
X0179671Y0077072D01*
X0179671Y0078322D01*
X0180921Y0078322D01*
X0180921Y0078321D02*
X0179671Y0078321D01*
X0180921Y0080572D02*
X0180921Y0081822D01*
X0180921Y0080572D02*
X0179671Y0080572D01*
X0179671Y0081822D01*
X0180921Y0081822D01*
X0180921Y0081821D02*
X0179671Y0081821D01*
X0179667Y0094127D02*
X0178417Y0094127D01*
X0178417Y0095377D01*
X0179667Y0095377D01*
X0179667Y0094127D01*
X0179667Y0095376D02*
X0178417Y0095376D01*
X0176167Y0094127D02*
X0174917Y0094127D01*
X0174917Y0095377D01*
X0176167Y0095377D01*
X0176167Y0094127D01*
X0176167Y0095376D02*
X0174917Y0095376D01*
X0190161Y0095248D02*
X0191411Y0095248D01*
X0191411Y0093998D01*
X0190161Y0093998D01*
X0190161Y0095248D01*
X0190161Y0095247D02*
X0191411Y0095247D01*
X0193661Y0095248D02*
X0194911Y0095248D01*
X0194911Y0093998D01*
X0193661Y0093998D01*
X0193661Y0095248D01*
X0193661Y0095247D02*
X0194911Y0095247D01*
X0204529Y0095472D02*
X0204529Y0094222D01*
X0203279Y0094222D01*
X0203279Y0095472D01*
X0204529Y0095472D01*
X0204529Y0095471D02*
X0203279Y0095471D01*
X0204529Y0091972D02*
X0204529Y0090722D01*
X0203279Y0090722D01*
X0203279Y0091972D01*
X0204529Y0091972D01*
X0204529Y0091971D02*
X0203279Y0091971D01*
X0207610Y0091972D02*
X0207610Y0090722D01*
X0207610Y0091972D02*
X0208860Y0091972D01*
X0208860Y0090722D01*
X0207610Y0090722D01*
X0207610Y0091971D02*
X0208860Y0091971D01*
X0207610Y0094222D02*
X0207610Y0095472D01*
X0208860Y0095472D01*
X0208860Y0094222D01*
X0207610Y0094222D01*
X0207610Y0095471D02*
X0208860Y0095471D01*
X0213191Y0095472D02*
X0213191Y0094222D01*
X0211941Y0094222D01*
X0211941Y0095472D01*
X0213191Y0095472D01*
X0213191Y0095471D02*
X0211941Y0095471D01*
X0217521Y0095472D02*
X0217521Y0094222D01*
X0216271Y0094222D01*
X0216271Y0095472D01*
X0217521Y0095472D01*
X0217521Y0095471D02*
X0216271Y0095471D01*
X0221852Y0095472D02*
X0221852Y0094222D01*
X0220602Y0094222D01*
X0220602Y0095472D01*
X0221852Y0095472D01*
X0221852Y0095471D02*
X0220602Y0095471D01*
X0221852Y0091972D02*
X0221852Y0090722D01*
X0220602Y0090722D01*
X0220602Y0091972D01*
X0221852Y0091972D01*
X0221852Y0091971D02*
X0220602Y0091971D01*
X0217521Y0091972D02*
X0217521Y0090722D01*
X0216271Y0090722D01*
X0216271Y0091972D01*
X0217521Y0091972D01*
X0217521Y0091971D02*
X0216271Y0091971D01*
X0213191Y0091972D02*
X0213191Y0090722D01*
X0211941Y0090722D01*
X0211941Y0091972D01*
X0213191Y0091972D01*
X0213191Y0091971D02*
X0211941Y0091971D01*
X0192382Y0067974D02*
X0191132Y0067974D01*
X0191132Y0069224D01*
X0192382Y0069224D01*
X0192382Y0067974D01*
X0192382Y0069223D02*
X0191132Y0069223D01*
X0188882Y0067974D02*
X0187632Y0067974D01*
X0187632Y0069224D01*
X0188882Y0069224D01*
X0188882Y0067974D01*
X0188882Y0069223D02*
X0187632Y0069223D01*
X0187531Y0060826D02*
X0187531Y0059576D01*
X0187531Y0060826D02*
X0188781Y0060826D01*
X0188781Y0059576D01*
X0187531Y0059576D01*
X0187531Y0060825D02*
X0188781Y0060825D01*
X0187531Y0057326D02*
X0187531Y0056076D01*
X0187531Y0057326D02*
X0188781Y0057326D01*
X0188781Y0056076D01*
X0187531Y0056076D01*
X0187531Y0057325D02*
X0188781Y0057325D01*
X0188781Y0041860D02*
X0187531Y0041860D01*
X0187531Y0043110D01*
X0188781Y0043110D01*
X0188781Y0041860D01*
X0188781Y0043109D02*
X0187531Y0043109D01*
X0187531Y0038360D02*
X0188781Y0038360D01*
X0187531Y0038360D02*
X0187531Y0039610D01*
X0188781Y0039610D01*
X0188781Y0038360D01*
X0188781Y0039609D02*
X0187531Y0039609D01*
X0219027Y0038360D02*
X0220277Y0038360D01*
X0219027Y0038360D02*
X0219027Y0039610D01*
X0220277Y0039610D01*
X0220277Y0038360D01*
X0220277Y0039609D02*
X0219027Y0039609D01*
X0219027Y0041860D02*
X0220277Y0041860D01*
X0219027Y0041860D02*
X0219027Y0043110D01*
X0220277Y0043110D01*
X0220277Y0041860D01*
X0220277Y0043109D02*
X0219027Y0043109D01*
X0219027Y0056076D02*
X0219027Y0057326D01*
X0220277Y0057326D01*
X0220277Y0056076D01*
X0219027Y0056076D01*
X0219027Y0057325D02*
X0220277Y0057325D01*
X0219027Y0059576D02*
X0219027Y0060826D01*
X0220277Y0060826D01*
X0220277Y0059576D01*
X0219027Y0059576D01*
X0219027Y0060825D02*
X0220277Y0060825D01*
X0262334Y0060826D02*
X0262334Y0059576D01*
X0262334Y0060826D02*
X0263584Y0060826D01*
X0263584Y0059576D01*
X0262334Y0059576D01*
X0262334Y0060825D02*
X0263584Y0060825D01*
X0262334Y0057326D02*
X0262334Y0056076D01*
X0262334Y0057326D02*
X0263584Y0057326D01*
X0263584Y0056076D01*
X0262334Y0056076D01*
X0262334Y0057325D02*
X0263584Y0057325D01*
X0263584Y0041860D02*
X0262334Y0041860D01*
X0262334Y0043110D01*
X0263584Y0043110D01*
X0263584Y0041860D01*
X0263584Y0043109D02*
X0262334Y0043109D01*
X0262334Y0038360D02*
X0263584Y0038360D01*
X0262334Y0038360D02*
X0262334Y0039610D01*
X0263584Y0039610D01*
X0263584Y0038360D01*
X0263584Y0039609D02*
X0262334Y0039609D01*
X0282019Y0038360D02*
X0283269Y0038360D01*
X0282019Y0038360D02*
X0282019Y0039610D01*
X0283269Y0039610D01*
X0283269Y0038360D01*
X0283269Y0039609D02*
X0282019Y0039609D01*
X0282019Y0041860D02*
X0283269Y0041860D01*
X0282019Y0041860D02*
X0282019Y0043110D01*
X0283269Y0043110D01*
X0283269Y0041860D01*
X0283269Y0043109D02*
X0282019Y0043109D01*
X0282019Y0056076D02*
X0282019Y0057326D01*
X0283269Y0057326D01*
X0283269Y0056076D01*
X0282019Y0056076D01*
X0282019Y0057325D02*
X0283269Y0057325D01*
X0282019Y0059576D02*
X0282019Y0060826D01*
X0283269Y0060826D01*
X0283269Y0059576D01*
X0282019Y0059576D01*
X0282019Y0060825D02*
X0283269Y0060825D01*
X0271330Y0108899D02*
X0270080Y0108899D01*
X0270080Y0110149D01*
X0271330Y0110149D01*
X0271330Y0108899D01*
X0271330Y0110148D02*
X0270080Y0110148D01*
X0267830Y0108899D02*
X0266580Y0108899D01*
X0266580Y0110149D01*
X0267830Y0110149D01*
X0267830Y0108899D01*
X0267830Y0110148D02*
X0266580Y0110148D01*
X0238563Y0116163D02*
X0237313Y0116163D01*
X0238563Y0116163D02*
X0238563Y0114913D01*
X0237313Y0114913D01*
X0237313Y0116163D01*
X0237313Y0116162D02*
X0238563Y0116162D01*
X0235063Y0116163D02*
X0233813Y0116163D01*
X0235063Y0116163D02*
X0235063Y0114913D01*
X0233813Y0114913D01*
X0233813Y0116163D01*
X0233813Y0116162D02*
X0235063Y0116162D01*
X0235063Y0134273D02*
X0233813Y0134273D01*
X0235063Y0134273D02*
X0235063Y0133023D01*
X0233813Y0133023D01*
X0233813Y0134273D01*
X0233813Y0134272D02*
X0235063Y0134272D01*
X0237313Y0134273D02*
X0238563Y0134273D01*
X0238563Y0133023D01*
X0237313Y0133023D01*
X0237313Y0134273D01*
X0237313Y0134272D02*
X0238563Y0134272D01*
X0238563Y0142147D02*
X0237313Y0142147D01*
X0238563Y0142147D02*
X0238563Y0140897D01*
X0237313Y0140897D01*
X0237313Y0142147D01*
X0237313Y0142146D02*
X0238563Y0142146D01*
X0235063Y0142147D02*
X0233813Y0142147D01*
X0235063Y0142147D02*
X0235063Y0140897D01*
X0233813Y0140897D01*
X0233813Y0142147D01*
X0233813Y0142146D02*
X0235063Y0142146D01*
X0234669Y0161832D02*
X0233419Y0161832D01*
X0234669Y0161832D02*
X0234669Y0160582D01*
X0233419Y0160582D01*
X0233419Y0161832D01*
X0233419Y0161831D02*
X0234669Y0161831D01*
X0236919Y0161832D02*
X0238169Y0161832D01*
X0238169Y0160582D01*
X0236919Y0160582D01*
X0236919Y0161832D01*
X0236919Y0161831D02*
X0238169Y0161831D01*
X0236575Y0180137D02*
X0235325Y0180137D01*
X0235325Y0181387D01*
X0236575Y0181387D01*
X0236575Y0180137D01*
X0236575Y0181386D02*
X0235325Y0181386D01*
X0233075Y0180137D02*
X0231825Y0180137D01*
X0231825Y0181387D01*
X0233075Y0181387D01*
X0233075Y0180137D01*
X0233075Y0181386D02*
X0231825Y0181386D01*
X0231825Y0185717D02*
X0233075Y0185717D01*
X0233075Y0184467D01*
X0231825Y0184467D01*
X0231825Y0185717D01*
X0231825Y0185716D02*
X0233075Y0185716D01*
X0235325Y0185717D02*
X0236575Y0185717D01*
X0236575Y0184467D01*
X0235325Y0184467D01*
X0235325Y0185717D01*
X0235325Y0185716D02*
X0236575Y0185716D01*
X0193830Y0197809D02*
X0193830Y0199059D01*
X0195080Y0199059D01*
X0195080Y0197809D01*
X0193830Y0197809D01*
X0193830Y0199058D02*
X0195080Y0199058D01*
X0193830Y0201309D02*
X0193830Y0202559D01*
X0195080Y0202559D01*
X0195080Y0201309D01*
X0193830Y0201309D01*
X0193830Y0202558D02*
X0195080Y0202558D01*
X0172571Y0202559D02*
X0172571Y0201309D01*
X0172571Y0202559D02*
X0173821Y0202559D01*
X0173821Y0201309D01*
X0172571Y0201309D01*
X0172571Y0202558D02*
X0173821Y0202558D01*
X0172571Y0199059D02*
X0172571Y0197809D01*
X0172571Y0199059D02*
X0173821Y0199059D01*
X0173821Y0197809D01*
X0172571Y0197809D01*
X0172571Y0199058D02*
X0173821Y0199058D01*
X0152167Y0198665D02*
X0152167Y0197415D01*
X0150917Y0197415D01*
X0150917Y0198665D01*
X0152167Y0198665D01*
X0152167Y0198664D02*
X0150917Y0198664D01*
X0152167Y0200915D02*
X0152167Y0202165D01*
X0152167Y0200915D02*
X0150917Y0200915D01*
X0150917Y0202165D01*
X0152167Y0202165D01*
X0152167Y0202164D02*
X0150917Y0202164D01*
X0146586Y0202165D02*
X0146586Y0200915D01*
X0146586Y0202165D02*
X0147836Y0202165D01*
X0147836Y0200915D01*
X0146586Y0200915D01*
X0146586Y0202164D02*
X0147836Y0202164D01*
X0146586Y0198665D02*
X0146586Y0197415D01*
X0146586Y0198665D02*
X0147836Y0198665D01*
X0147836Y0197415D01*
X0146586Y0197415D01*
X0146586Y0198664D02*
X0147836Y0198664D01*
X0117849Y0199054D02*
X0117849Y0200304D01*
X0117849Y0199054D02*
X0116599Y0199054D01*
X0116599Y0200304D01*
X0117849Y0200304D01*
X0117849Y0200303D02*
X0116599Y0200303D01*
X0117849Y0202554D02*
X0117849Y0203804D01*
X0117849Y0202554D02*
X0116599Y0202554D01*
X0116599Y0203804D01*
X0117849Y0203804D01*
X0117849Y0203803D02*
X0116599Y0203803D01*
X0117849Y0193004D02*
X0117849Y0191754D01*
X0116599Y0191754D01*
X0116599Y0193004D01*
X0117849Y0193004D01*
X0117849Y0193003D02*
X0116599Y0193003D01*
X0117849Y0189504D02*
X0117849Y0188254D01*
X0116599Y0188254D01*
X0116599Y0189504D01*
X0117849Y0189504D01*
X0117849Y0189503D02*
X0116599Y0189503D01*
X0103374Y0176029D02*
X0102124Y0176029D01*
X0103374Y0176029D02*
X0103374Y0174779D01*
X0102124Y0174779D01*
X0102124Y0176029D01*
X0102124Y0176028D02*
X0103374Y0176028D01*
X0099874Y0176029D02*
X0098624Y0176029D01*
X0099874Y0176029D02*
X0099874Y0174779D01*
X0098624Y0174779D01*
X0098624Y0176029D01*
X0098624Y0176028D02*
X0099874Y0176028D01*
X0123970Y0156433D02*
X0125220Y0156433D01*
X0123970Y0156433D02*
X0123970Y0157683D01*
X0125220Y0157683D01*
X0125220Y0156433D01*
X0125220Y0157682D02*
X0123970Y0157682D01*
X0127470Y0156433D02*
X0128720Y0156433D01*
X0127470Y0156433D02*
X0127470Y0157683D01*
X0128720Y0157683D01*
X0128720Y0156433D01*
X0128720Y0157682D02*
X0127470Y0157682D01*
X0103232Y0153958D02*
X0101982Y0153958D01*
X0103232Y0153958D02*
X0103232Y0152708D01*
X0101982Y0152708D01*
X0101982Y0153958D01*
X0101982Y0153957D02*
X0103232Y0153957D01*
X0099732Y0153958D02*
X0098482Y0153958D01*
X0099732Y0153958D02*
X0099732Y0152708D01*
X0098482Y0152708D01*
X0098482Y0153958D01*
X0098482Y0153957D02*
X0099732Y0153957D01*
X0124364Y0137141D02*
X0125614Y0137141D01*
X0124364Y0137141D02*
X0124364Y0138391D01*
X0125614Y0138391D01*
X0125614Y0137141D01*
X0125614Y0138390D02*
X0124364Y0138390D01*
X0127864Y0137141D02*
X0129114Y0137141D01*
X0127864Y0137141D02*
X0127864Y0138391D01*
X0129114Y0138391D01*
X0129114Y0137141D01*
X0129114Y0138390D02*
X0127864Y0138390D01*
X0147430Y0089848D02*
X0147430Y0088598D01*
X0147430Y0089848D02*
X0148680Y0089848D01*
X0148680Y0088598D01*
X0147430Y0088598D01*
X0147430Y0089847D02*
X0148680Y0089847D01*
X0155354Y0089848D02*
X0155354Y0088598D01*
X0154104Y0088598D01*
X0154104Y0089848D01*
X0155354Y0089848D01*
X0155354Y0089847D02*
X0154104Y0089847D01*
X0155354Y0086348D02*
X0155354Y0085098D01*
X0154104Y0085098D01*
X0154104Y0086348D01*
X0155354Y0086348D01*
X0155354Y0086347D02*
X0154104Y0086347D01*
X0147430Y0086348D02*
X0147430Y0085098D01*
X0147430Y0086348D02*
X0148680Y0086348D01*
X0148680Y0085098D01*
X0147430Y0085098D01*
X0147430Y0086347D02*
X0148680Y0086347D01*
X0289399Y0130854D02*
X0289399Y0132104D01*
X0290649Y0132104D01*
X0290649Y0130854D01*
X0289399Y0130854D01*
X0289399Y0132103D02*
X0290649Y0132103D01*
X0289399Y0134354D02*
X0289399Y0135604D01*
X0290649Y0135604D01*
X0290649Y0134354D01*
X0289399Y0134354D01*
X0289399Y0135603D02*
X0290649Y0135603D01*
X0295399Y0134354D02*
X0296649Y0134354D01*
X0295399Y0134354D02*
X0295399Y0135604D01*
X0296649Y0135604D01*
X0296649Y0134354D01*
X0296649Y0135603D02*
X0295399Y0135603D01*
X0300799Y0135604D02*
X0300799Y0134354D01*
X0300799Y0135604D02*
X0302049Y0135604D01*
X0302049Y0134354D01*
X0300799Y0134354D01*
X0300799Y0135603D02*
X0302049Y0135603D01*
X0300799Y0132104D02*
X0300799Y0130854D01*
X0300799Y0132104D02*
X0302049Y0132104D01*
X0302049Y0130854D01*
X0300799Y0130854D01*
X0300799Y0132103D02*
X0302049Y0132103D01*
X0296649Y0130854D02*
X0295399Y0130854D01*
X0295399Y0132104D01*
X0296649Y0132104D01*
X0296649Y0130854D01*
X0296649Y0132103D02*
X0295399Y0132103D01*
X0307029Y0132167D02*
X0307029Y0130917D01*
X0307029Y0132167D02*
X0308279Y0132167D01*
X0308279Y0130917D01*
X0307029Y0130917D01*
X0307029Y0132166D02*
X0308279Y0132166D01*
X0307029Y0134417D02*
X0307029Y0135667D01*
X0308279Y0135667D01*
X0308279Y0134417D01*
X0307029Y0134417D01*
X0307029Y0135666D02*
X0308279Y0135666D01*
D11*
X0058518Y0124381D03*
X0053007Y0124381D03*
X0053007Y0120050D03*
X0058518Y0120050D03*
D12*
X0090558Y0118546D03*
X0090558Y0102798D03*
D13*
X0321227Y0094475D03*
X0321227Y0170499D03*
D14*
X0321227Y0180499D03*
X0321227Y0190499D03*
X0321227Y0144475D03*
X0321227Y0134475D03*
X0321227Y0124475D03*
X0321227Y0114475D03*
X0321227Y0104475D03*
D15*
X0309615Y0149475D02*
X0309615Y0149475D01*
X0305677Y0149475D01*
X0305677Y0149475D01*
X0309615Y0149475D01*
X0309615Y0161286D02*
X0309615Y0161286D01*
X0305677Y0161286D01*
X0305677Y0161286D01*
X0309615Y0161286D01*
X0309615Y0173097D02*
X0309615Y0173097D01*
X0305677Y0173097D01*
X0305677Y0173097D01*
X0309615Y0173097D01*
X0258434Y0155381D02*
X0258434Y0155381D01*
X0254496Y0155381D01*
X0254496Y0155381D01*
X0258434Y0155381D01*
X0258434Y0149475D02*
X0258434Y0149475D01*
X0254496Y0149475D01*
X0254496Y0149475D01*
X0258434Y0149475D01*
X0258434Y0214436D02*
X0258434Y0214436D01*
X0254496Y0214436D01*
X0254496Y0214436D01*
X0258434Y0214436D01*
X0258434Y0220341D02*
X0258434Y0220341D01*
X0254496Y0220341D01*
X0254496Y0220341D01*
X0258434Y0220341D01*
D16*
X0216259Y0188283D03*
X0214290Y0188283D03*
X0212322Y0188283D03*
X0210353Y0188283D03*
X0208385Y0188283D03*
X0206416Y0188283D03*
X0204448Y0188283D03*
X0202479Y0188283D03*
X0200511Y0188283D03*
X0198542Y0188283D03*
X0196574Y0188283D03*
X0194605Y0188283D03*
X0192637Y0188283D03*
X0190668Y0188283D03*
X0188700Y0188283D03*
X0186731Y0188283D03*
X0184763Y0188283D03*
X0182794Y0188283D03*
X0180826Y0188283D03*
X0178857Y0188283D03*
X0176889Y0188283D03*
X0174920Y0188283D03*
X0172952Y0188283D03*
X0170983Y0188283D03*
X0169015Y0188283D03*
X0167046Y0188283D03*
X0165078Y0188283D03*
X0163109Y0188283D03*
X0161141Y0188283D03*
X0159172Y0188283D03*
X0157204Y0188283D03*
X0155235Y0188283D03*
X0153267Y0188283D03*
X0151298Y0188283D03*
X0149330Y0188283D03*
X0147361Y0188283D03*
X0147361Y0104621D03*
X0149330Y0104621D03*
X0151298Y0104621D03*
X0153267Y0104621D03*
X0155235Y0104621D03*
X0157204Y0104621D03*
X0159172Y0104621D03*
X0161141Y0104621D03*
X0163109Y0104621D03*
X0165078Y0104621D03*
X0167046Y0104621D03*
X0169015Y0104621D03*
X0170983Y0104641D03*
X0172952Y0104621D03*
X0174920Y0104621D03*
X0176889Y0104621D03*
X0178857Y0104621D03*
X0180826Y0104621D03*
X0182794Y0104621D03*
X0184763Y0104621D03*
X0186731Y0104621D03*
X0188700Y0104621D03*
X0190668Y0104621D03*
X0192637Y0104641D03*
X0194605Y0104621D03*
X0196574Y0104621D03*
X0198542Y0104621D03*
X0200511Y0104621D03*
X0202479Y0104621D03*
X0204448Y0104621D03*
X0206416Y0104621D03*
X0208385Y0104621D03*
X0210353Y0104621D03*
X0212322Y0104621D03*
X0214290Y0104621D03*
X0216259Y0104621D03*
D17*
X0223641Y0112003D03*
X0223641Y0113972D03*
X0223641Y0115940D03*
X0223641Y0117909D03*
X0223641Y0119877D03*
X0223641Y0121846D03*
X0223641Y0123814D03*
X0223641Y0125783D03*
X0223641Y0127751D03*
X0223641Y0129720D03*
X0223641Y0131688D03*
X0223641Y0133657D03*
X0223641Y0135625D03*
X0223641Y0137594D03*
X0223641Y0139562D03*
X0223641Y0141531D03*
X0223641Y0143499D03*
X0223641Y0145468D03*
X0223641Y0147436D03*
X0223641Y0149405D03*
X0223641Y0151373D03*
X0223641Y0153342D03*
X0223641Y0155310D03*
X0223641Y0157279D03*
X0223641Y0159247D03*
X0223641Y0161216D03*
X0223641Y0163184D03*
X0223641Y0165153D03*
X0223641Y0167121D03*
X0223641Y0169090D03*
X0223641Y0171058D03*
X0223641Y0173027D03*
X0223641Y0174995D03*
X0223641Y0176964D03*
X0223641Y0178932D03*
X0223641Y0180901D03*
X0139979Y0180901D03*
X0139979Y0178932D03*
X0139979Y0176964D03*
X0139979Y0174995D03*
X0139979Y0173027D03*
X0139979Y0171058D03*
X0139979Y0169090D03*
X0139979Y0167121D03*
X0139979Y0165153D03*
X0139979Y0163184D03*
X0139979Y0161216D03*
X0139979Y0159247D03*
X0139979Y0157279D03*
X0139979Y0155310D03*
X0139979Y0153342D03*
X0139979Y0151373D03*
X0139979Y0149405D03*
X0139979Y0147436D03*
X0139979Y0145468D03*
X0139979Y0143499D03*
X0139979Y0141531D03*
X0139979Y0139562D03*
X0139979Y0137594D03*
X0139979Y0135625D03*
X0139979Y0133657D03*
X0139979Y0131688D03*
X0139979Y0129720D03*
X0139979Y0127751D03*
X0139979Y0125783D03*
X0139979Y0123814D03*
X0139979Y0121846D03*
X0139979Y0119877D03*
X0139979Y0117909D03*
X0139979Y0115940D03*
X0139979Y0113972D03*
X0139979Y0112003D03*
D18*
X0094692Y0129152D03*
X0087211Y0129152D03*
X0087211Y0139388D03*
X0090951Y0139388D03*
X0094692Y0139388D03*
D19*
X0096117Y0161207D03*
X0096117Y0164948D03*
X0096117Y0168688D03*
X0106353Y0168688D03*
X0106353Y0161207D03*
D20*
X0065833Y0103432D03*
X0065833Y0084337D03*
X0237369Y0047822D03*
X0243274Y0040735D03*
X0249180Y0047822D03*
X0296424Y0047822D03*
X0302329Y0040735D03*
X0308235Y0047822D03*
D21*
X0056955Y0087290D02*
X0053215Y0087290D01*
X0053215Y0091030D01*
X0056955Y0091030D01*
X0056955Y0087290D01*
X0056955Y0091029D02*
X0053215Y0091029D01*
X0053215Y0096739D02*
X0056955Y0096739D01*
X0053215Y0096739D02*
X0053215Y0100479D01*
X0056955Y0100479D01*
X0056955Y0096739D01*
X0056955Y0100478D02*
X0053215Y0100478D01*
D22*
X0066404Y0099003D03*
X0066404Y0096444D03*
X0066404Y0093885D03*
X0066404Y0091325D03*
X0066404Y0088766D03*
D23*
X0057085Y0079613D02*
X0053085Y0079613D01*
X0053085Y0108156D02*
X0057085Y0108156D01*
D24*
X0271097Y0100799D03*
X0276097Y0100799D03*
X0281097Y0100799D03*
X0286097Y0100799D03*
X0286058Y0077965D03*
X0281058Y0077965D03*
X0276058Y0077965D03*
X0271097Y0077965D03*
D25*
X0193443Y0076886D02*
X0193443Y0074136D01*
X0193443Y0076886D02*
X0195193Y0076886D01*
X0195193Y0074136D01*
X0193443Y0074136D01*
X0193443Y0075885D02*
X0195193Y0075885D01*
X0185443Y0076886D02*
X0185443Y0074136D01*
X0185443Y0076886D02*
X0187193Y0076886D01*
X0187193Y0074136D01*
X0185443Y0074136D01*
X0185443Y0075885D02*
X0187193Y0075885D01*
X0185443Y0084136D02*
X0185443Y0086886D01*
X0187193Y0086886D01*
X0187193Y0084136D01*
X0185443Y0084136D01*
X0185443Y0085885D02*
X0187193Y0085885D01*
X0193443Y0086886D02*
X0193443Y0084136D01*
X0193443Y0086886D02*
X0195193Y0086886D01*
X0195193Y0084136D01*
X0193443Y0084136D01*
X0193443Y0085885D02*
X0195193Y0085885D01*
D26*
X0079888Y0167113D03*
X0079888Y0185617D03*
X0079888Y0204121D03*
D27*
X0049392Y0152152D03*
X0049392Y0134042D03*
D28*
X0057070Y0135223D03*
X0057070Y0150971D03*
D29*
X0088424Y0040229D02*
X0089624Y0039029D01*
X0093623Y0039029D01*
X0093668Y0038985D01*
X0088424Y0040229D02*
X0088424Y0068429D01*
X0091424Y0071429D01*
X0173624Y0071429D01*
X0174824Y0072629D01*
X0174824Y0088229D01*
X0177224Y0090629D01*
X0185024Y0090629D01*
X0186224Y0091829D01*
X0186224Y0100229D01*
X0186731Y0100737D01*
X0186731Y0104621D01*
X0188700Y0104621D02*
X0188700Y0100305D01*
X0187424Y0099029D01*
X0187424Y0091229D01*
X0185624Y0089429D01*
X0177824Y0089429D01*
X0176024Y0087629D01*
X0176024Y0071429D01*
X0174824Y0070229D01*
X0125624Y0070229D01*
X0122624Y0067229D01*
X0122624Y0039629D01*
X0123224Y0039029D01*
X0125120Y0039029D01*
X0125164Y0038985D01*
X0125164Y0042485D02*
X0125164Y0056701D01*
X0125164Y0060201D02*
X0129196Y0060201D01*
X0129224Y0060229D01*
X0152624Y0060229D02*
X0152652Y0060201D01*
X0156660Y0060201D01*
X0156660Y0056701D02*
X0156660Y0042485D01*
X0160424Y0039029D02*
X0161624Y0040229D01*
X0161624Y0060629D01*
X0164624Y0063629D01*
X0196424Y0063629D01*
X0198542Y0065748D01*
X0198542Y0104621D01*
X0200511Y0104621D02*
X0200511Y0098316D01*
X0200024Y0097829D01*
X0200024Y0040229D01*
X0198824Y0039029D01*
X0188201Y0039029D01*
X0188156Y0038985D01*
X0188156Y0042485D02*
X0188156Y0056701D01*
X0188156Y0060201D02*
X0183952Y0060201D01*
X0183924Y0060229D01*
X0184754Y0068599D02*
X0184724Y0068629D01*
X0184754Y0068599D02*
X0188257Y0068599D01*
X0191757Y0068599D02*
X0194318Y0071161D01*
X0194318Y0075511D01*
X0191024Y0078806D01*
X0191024Y0087629D01*
X0194286Y0090891D01*
X0194286Y0094623D01*
X0192637Y0096272D01*
X0192637Y0104641D01*
X0194605Y0104621D02*
X0194605Y0099648D01*
X0195224Y0099029D01*
X0190786Y0094623D02*
X0190786Y0089979D01*
X0186318Y0085511D01*
X0184611Y0085511D01*
X0180296Y0081197D01*
X0180296Y0077697D02*
X0180296Y0074457D01*
X0180324Y0074429D01*
X0159324Y0089229D02*
X0154735Y0089229D01*
X0154729Y0089223D01*
X0148055Y0089223D01*
X0148049Y0089229D01*
X0140024Y0089229D01*
X0145624Y0093229D02*
X0110274Y0093229D01*
X0110224Y0093279D01*
X0110224Y0084795D01*
X0110259Y0084760D01*
X0110259Y0081260D02*
X0110259Y0077994D01*
X0110324Y0077929D01*
X0102224Y0092429D02*
X0079790Y0092429D01*
X0079670Y0092310D01*
X0076170Y0092310D02*
X0072944Y0092310D01*
X0071369Y0093885D01*
X0066404Y0093885D01*
X0066404Y0096444D02*
X0076367Y0096444D01*
X0076564Y0096640D01*
X0080064Y0096640D02*
X0080075Y0096629D01*
X0101024Y0096629D01*
X0102224Y0097829D01*
X0102224Y0104429D01*
X0103424Y0105629D01*
X0140024Y0105629D01*
X0149024Y0114629D01*
X0149024Y0179429D01*
X0147552Y0180901D01*
X0139979Y0180901D01*
X0149330Y0183924D02*
X0149424Y0183829D01*
X0149330Y0183924D02*
X0149330Y0188283D01*
X0151298Y0188283D02*
X0151298Y0197796D01*
X0151542Y0198040D01*
X0151542Y0201540D02*
X0147211Y0201540D01*
X0147211Y0198040D02*
X0147211Y0188433D01*
X0147361Y0188283D01*
X0144545Y0188283D01*
X0144455Y0188373D01*
X0153267Y0188283D02*
X0153267Y0115872D01*
X0141224Y0103829D01*
X0104624Y0103829D01*
X0104024Y0103229D01*
X0104024Y0094229D01*
X0102224Y0092429D01*
X0110224Y0096779D02*
X0110424Y0096979D01*
X0110424Y0100629D01*
X0111824Y0111029D02*
X0071624Y0111029D01*
X0070424Y0112229D01*
X0070424Y0116236D01*
X0070327Y0116333D01*
X0066827Y0116333D02*
X0059120Y0116333D01*
X0058424Y0117029D01*
X0058424Y0119955D01*
X0058518Y0120050D01*
X0053007Y0120050D02*
X0050603Y0120050D01*
X0050024Y0120629D01*
X0050024Y0129029D01*
X0051224Y0130229D01*
X0064619Y0130229D01*
X0066827Y0128022D01*
X0070327Y0128022D02*
X0070424Y0128119D01*
X0070424Y0145229D01*
X0072824Y0147629D01*
X0093224Y0147629D01*
X0095024Y0145829D01*
X0129824Y0145829D01*
X0132154Y0143499D01*
X0139979Y0143499D01*
X0139979Y0141531D02*
X0131122Y0141531D01*
X0129224Y0143429D01*
X0117224Y0143429D01*
X0115424Y0141629D01*
X0115424Y0116429D01*
X0111824Y0112829D01*
X0084224Y0112829D01*
X0082424Y0114629D01*
X0082424Y0120629D01*
X0081224Y0121829D01*
X0070401Y0121829D01*
X0070327Y0121903D01*
X0066827Y0121903D02*
X0066827Y0123627D01*
X0066224Y0124229D01*
X0058670Y0124229D01*
X0058518Y0124381D01*
X0053007Y0124381D02*
X0053007Y0127812D01*
X0053024Y0127829D01*
X0057070Y0135223D02*
X0062430Y0135223D01*
X0062624Y0135029D01*
X0080786Y0136162D02*
X0083674Y0136162D01*
X0084219Y0135617D01*
X0110424Y0118829D02*
X0110424Y0116129D01*
X0111824Y0111029D02*
X0116624Y0115829D01*
X0116624Y0130229D01*
X0118424Y0132029D01*
X0128024Y0132029D01*
X0131620Y0135625D01*
X0139979Y0135625D01*
X0139979Y0137594D02*
X0139807Y0137766D01*
X0128489Y0137766D01*
X0128489Y0140764D01*
X0128424Y0140829D01*
X0124989Y0137766D02*
X0124989Y0134611D01*
X0125164Y0134436D01*
X0124989Y0123806D02*
X0121448Y0123806D01*
X0121424Y0123829D01*
X0128489Y0123806D02*
X0128497Y0123814D01*
X0139979Y0123814D01*
X0139979Y0113972D02*
X0134281Y0113972D01*
X0131424Y0116829D01*
X0128599Y0116829D01*
X0128489Y0116719D01*
X0124989Y0116719D02*
X0122014Y0116719D01*
X0121621Y0116325D01*
X0124989Y0111995D02*
X0124989Y0108627D01*
X0125164Y0108451D01*
X0128489Y0111995D02*
X0139971Y0111995D01*
X0139979Y0112003D01*
X0139979Y0109384D01*
X0140125Y0109239D01*
X0147361Y0104621D02*
X0147361Y0094967D01*
X0145624Y0093229D01*
X0148055Y0085723D02*
X0148055Y0081961D01*
X0148024Y0081929D01*
X0154724Y0081929D02*
X0154729Y0081935D01*
X0154729Y0085723D01*
X0172408Y0094672D02*
X0172488Y0094752D01*
X0175542Y0094752D01*
X0178707Y0095086D02*
X0179042Y0094752D01*
X0178707Y0095086D02*
X0178707Y0099396D01*
X0178857Y0099546D01*
X0178857Y0104621D01*
X0179101Y0104378D01*
X0180826Y0104621D02*
X0180826Y0109228D01*
X0180224Y0109829D01*
X0182794Y0109400D02*
X0183224Y0109829D01*
X0182794Y0109400D02*
X0182794Y0104621D01*
X0176889Y0104621D02*
X0176889Y0109876D01*
X0176739Y0110026D01*
X0190668Y0104621D02*
X0190668Y0094741D01*
X0190786Y0094623D01*
X0201224Y0096629D02*
X0201224Y0089429D01*
X0202424Y0088229D01*
X0202424Y0040229D01*
X0203624Y0039029D01*
X0219608Y0039029D01*
X0219652Y0038985D01*
X0219652Y0042485D02*
X0219652Y0056701D01*
X0219652Y0060201D02*
X0215752Y0060201D01*
X0215724Y0060229D01*
X0230024Y0058829D02*
X0231224Y0057629D01*
X0233024Y0057629D01*
X0230024Y0058829D02*
X0230024Y0096629D01*
X0228224Y0098429D01*
X0215024Y0098429D01*
X0214290Y0099163D01*
X0214290Y0104621D01*
X0212322Y0104621D02*
X0212322Y0098731D01*
X0213824Y0097229D01*
X0227624Y0097229D01*
X0228824Y0096029D01*
X0228824Y0049229D01*
X0230232Y0047822D01*
X0237369Y0047822D01*
X0259324Y0060229D02*
X0259352Y0060201D01*
X0262959Y0060201D01*
X0262959Y0056701D02*
X0262959Y0042485D01*
X0266624Y0039029D02*
X0267224Y0039629D01*
X0267224Y0062429D01*
X0268424Y0063629D01*
X0293024Y0063629D01*
X0294224Y0064829D01*
X0294224Y0124829D01*
X0293024Y0126029D01*
X0231224Y0126029D01*
X0230977Y0125783D01*
X0223641Y0125783D01*
X0223641Y0127751D02*
X0293702Y0127751D01*
X0295424Y0126029D01*
X0295424Y0063629D01*
X0294224Y0062429D01*
X0287624Y0062429D01*
X0286424Y0061229D01*
X0286424Y0039629D01*
X0285824Y0039029D01*
X0282689Y0039029D01*
X0282644Y0038985D01*
X0282644Y0042485D02*
X0282644Y0056701D01*
X0282644Y0060201D02*
X0279352Y0060201D01*
X0279324Y0060229D01*
X0276058Y0077965D02*
X0276058Y0083596D01*
X0275024Y0084629D01*
X0249824Y0084629D01*
X0248624Y0085829D01*
X0248624Y0094229D01*
X0246224Y0096629D01*
X0246224Y0118829D01*
X0241424Y0123629D01*
X0232424Y0123629D01*
X0230640Y0121846D01*
X0223641Y0121846D01*
X0223641Y0123814D02*
X0230809Y0123814D01*
X0231824Y0124829D01*
X0242024Y0124829D01*
X0247424Y0119429D01*
X0247424Y0097229D01*
X0249824Y0094829D01*
X0249824Y0092429D01*
X0251024Y0091229D01*
X0285224Y0091229D01*
X0286097Y0092103D01*
X0286097Y0100799D01*
X0281097Y0100799D02*
X0281024Y0099536D01*
X0281097Y0100799D02*
X0281097Y0093703D01*
X0281024Y0093629D01*
X0276097Y0100799D02*
X0271097Y0100799D01*
X0270705Y0101192D01*
X0270705Y0109524D01*
X0267205Y0109524D02*
X0261988Y0109524D01*
X0261947Y0109483D01*
X0266624Y0100829D02*
X0266654Y0100799D01*
X0271097Y0100799D01*
X0270705Y0100001D01*
X0246224Y0093629D02*
X0245624Y0093629D01*
X0245024Y0094229D01*
X0245024Y0118229D01*
X0240824Y0122429D01*
X0233024Y0122429D01*
X0230472Y0119877D01*
X0223641Y0119877D01*
X0223641Y0117909D02*
X0230303Y0117909D01*
X0233624Y0121229D01*
X0240224Y0121229D01*
X0243824Y0117629D01*
X0243824Y0079829D01*
X0245624Y0078029D01*
X0271023Y0078029D01*
X0271097Y0077965D01*
X0276058Y0077965D02*
X0276224Y0078082D01*
X0228524Y0112029D02*
X0228498Y0112003D01*
X0223641Y0112003D01*
X0223641Y0113972D02*
X0218873Y0113972D01*
X0218865Y0113963D01*
X0223641Y0115940D02*
X0234035Y0115940D01*
X0234424Y0116329D01*
X0234424Y0118829D01*
X0234035Y0115940D02*
X0234438Y0115538D01*
X0237938Y0115538D02*
X0241306Y0115538D01*
X0223641Y0129720D02*
X0218833Y0129720D01*
X0218824Y0129729D01*
X0223641Y0133657D02*
X0234429Y0133657D01*
X0234438Y0133648D01*
X0237938Y0133648D02*
X0241306Y0133648D01*
X0241306Y0141522D02*
X0237938Y0141522D01*
X0234438Y0141522D02*
X0234424Y0141536D01*
X0234424Y0145829D01*
X0234429Y0141531D02*
X0223641Y0141531D01*
X0223641Y0139562D02*
X0218873Y0139562D01*
X0218865Y0139554D01*
X0234429Y0141531D02*
X0234438Y0141522D01*
X0223641Y0159247D02*
X0218480Y0159247D01*
X0218471Y0159239D01*
X0223641Y0161216D02*
X0234035Y0161216D01*
X0234044Y0161207D01*
X0234044Y0164575D01*
X0234219Y0164751D01*
X0237544Y0161207D02*
X0240912Y0161207D01*
X0242990Y0174995D02*
X0223641Y0174995D01*
X0223641Y0176964D02*
X0241358Y0176964D01*
X0243824Y0179429D01*
X0243824Y0217829D01*
X0246336Y0220341D01*
X0256465Y0220341D01*
X0256465Y0214436D02*
X0249430Y0214436D01*
X0247424Y0212429D01*
X0247424Y0179429D01*
X0242990Y0174995D01*
X0239318Y0180762D02*
X0235950Y0180762D01*
X0235950Y0185092D01*
X0232450Y0185092D02*
X0232450Y0188460D01*
X0232625Y0188636D01*
X0232442Y0185101D02*
X0232450Y0185092D01*
X0230287Y0185092D01*
X0229424Y0184229D01*
X0229424Y0181829D01*
X0228495Y0180901D01*
X0223641Y0180901D01*
X0223641Y0178932D02*
X0230621Y0178932D01*
X0232450Y0180762D01*
X0196574Y0182979D02*
X0196424Y0182829D01*
X0196574Y0182979D02*
X0196574Y0188283D01*
X0194605Y0188283D02*
X0194455Y0188433D01*
X0194455Y0198434D01*
X0191087Y0198434D01*
X0190912Y0198609D01*
X0194455Y0201934D02*
X0198217Y0201934D01*
X0198392Y0201759D01*
X0176739Y0198609D02*
X0176564Y0198434D01*
X0173196Y0198434D01*
X0173196Y0188527D01*
X0172952Y0188283D01*
X0174920Y0188283D02*
X0174920Y0183105D01*
X0175164Y0182861D01*
X0161624Y0183029D02*
X0161141Y0183513D01*
X0161141Y0188283D01*
X0159172Y0188283D02*
X0159172Y0183578D01*
X0158624Y0183029D01*
X0151542Y0201540D02*
X0151542Y0205711D01*
X0151424Y0205829D01*
X0173196Y0204908D02*
X0173196Y0201934D01*
X0173196Y0204908D02*
X0173589Y0205302D01*
X0170024Y0219029D02*
X0105824Y0219029D01*
X0105824Y0243629D01*
X0169424Y0243029D01*
X0170024Y0219029D01*
X0170020Y0219171D02*
X0105824Y0219171D01*
X0105824Y0219769D02*
X0170005Y0219769D01*
X0169990Y0220368D02*
X0105824Y0220368D01*
X0105824Y0220966D02*
X0169975Y0220966D01*
X0169960Y0221565D02*
X0105824Y0221565D01*
X0105824Y0222163D02*
X0169946Y0222163D01*
X0169931Y0222762D02*
X0105824Y0222762D01*
X0105824Y0223360D02*
X0169916Y0223360D01*
X0169901Y0223959D02*
X0105824Y0223959D01*
X0105824Y0224557D02*
X0169886Y0224557D01*
X0169871Y0225156D02*
X0105824Y0225156D01*
X0105824Y0225755D02*
X0169856Y0225755D01*
X0169841Y0226353D02*
X0105824Y0226353D01*
X0105824Y0226952D02*
X0169826Y0226952D01*
X0169811Y0227550D02*
X0105824Y0227550D01*
X0105824Y0228149D02*
X0169796Y0228149D01*
X0169781Y0228747D02*
X0105824Y0228747D01*
X0105824Y0229346D02*
X0169766Y0229346D01*
X0169751Y0229944D02*
X0105824Y0229944D01*
X0105824Y0230543D02*
X0169736Y0230543D01*
X0169721Y0231141D02*
X0105824Y0231141D01*
X0105824Y0231740D02*
X0169706Y0231740D01*
X0169691Y0232338D02*
X0105824Y0232338D01*
X0105824Y0232937D02*
X0169676Y0232937D01*
X0169661Y0233535D02*
X0105824Y0233535D01*
X0105824Y0234134D02*
X0169646Y0234134D01*
X0169631Y0234732D02*
X0105824Y0234732D01*
X0105824Y0235331D02*
X0169616Y0235331D01*
X0169601Y0235929D02*
X0105824Y0235929D01*
X0105824Y0236528D02*
X0169586Y0236528D01*
X0169571Y0237126D02*
X0105824Y0237126D01*
X0105824Y0237725D02*
X0169556Y0237725D01*
X0169542Y0238323D02*
X0105824Y0238323D01*
X0105824Y0238922D02*
X0169527Y0238922D01*
X0169512Y0239520D02*
X0105824Y0239520D01*
X0105824Y0240119D02*
X0169497Y0240119D01*
X0169482Y0240717D02*
X0105824Y0240717D01*
X0105824Y0241316D02*
X0169467Y0241316D01*
X0169452Y0241914D02*
X0105824Y0241914D01*
X0105824Y0242513D02*
X0169437Y0242513D01*
X0160738Y0243111D02*
X0105824Y0243111D01*
X0117224Y0207029D02*
X0117224Y0203179D01*
X0117224Y0199679D02*
X0117224Y0192379D01*
X0117274Y0192429D01*
X0132024Y0192429D01*
X0117224Y0188879D02*
X0117174Y0188829D01*
X0098024Y0188829D01*
X0096117Y0186922D01*
X0096117Y0168688D01*
X0124595Y0157058D02*
X0124595Y0154001D01*
X0124424Y0153829D01*
X0128095Y0157058D02*
X0128095Y0160245D01*
X0127920Y0160420D01*
X0128095Y0157058D02*
X0139758Y0157058D01*
X0139979Y0157279D01*
X0139979Y0159247D02*
X0145234Y0159247D01*
X0145243Y0159239D01*
X0145234Y0139562D02*
X0139979Y0139562D01*
X0145234Y0139562D02*
X0145243Y0139554D01*
X0128497Y0112003D02*
X0128489Y0111995D01*
X0057124Y0151025D02*
X0057124Y0154629D01*
X0057070Y0154575D01*
X0057124Y0151025D02*
X0057070Y0150971D01*
X0055085Y0089160D02*
X0055479Y0088766D01*
X0093668Y0060201D02*
X0097296Y0060201D01*
X0097324Y0060229D01*
X0093668Y0056701D02*
X0093668Y0042485D01*
X0156660Y0038985D02*
X0156705Y0039029D01*
X0160424Y0039029D01*
X0204824Y0087629D02*
X0203904Y0088549D01*
X0203904Y0091347D01*
X0203904Y0094847D02*
X0203904Y0096910D01*
X0206024Y0099029D01*
X0204448Y0100606D01*
X0204448Y0104621D01*
X0206416Y0104621D02*
X0206416Y0109822D01*
X0206424Y0109829D01*
X0208385Y0104621D02*
X0208385Y0094997D01*
X0208235Y0094847D01*
X0212566Y0094847D01*
X0212566Y0096688D01*
X0212024Y0097229D01*
X0210824Y0097229D01*
X0210353Y0097700D01*
X0210353Y0104621D01*
X0216259Y0104621D02*
X0218816Y0104621D01*
X0218824Y0104629D01*
X0204448Y0095391D02*
X0203904Y0094847D01*
X0201224Y0096629D02*
X0202479Y0097885D01*
X0202479Y0104621D01*
X0212566Y0094847D02*
X0216896Y0094847D01*
X0221227Y0094847D01*
X0221227Y0091347D02*
X0221227Y0087833D01*
X0221024Y0087629D01*
X0216896Y0087702D02*
X0216896Y0091347D01*
X0216896Y0087702D02*
X0216824Y0087629D01*
X0212566Y0087971D02*
X0212566Y0091347D01*
X0212566Y0087971D02*
X0212424Y0087829D01*
X0208424Y0087629D02*
X0208235Y0087818D01*
X0208235Y0091347D01*
X0262959Y0038985D02*
X0263004Y0039029D01*
X0266624Y0039029D01*
X0286424Y0131429D02*
X0286474Y0131479D01*
X0290024Y0131479D01*
X0296024Y0131479D01*
X0299524Y0131479D02*
X0296024Y0134979D01*
X0297824Y0138629D02*
X0290624Y0138629D01*
X0290024Y0138029D01*
X0290024Y0134979D01*
X0297824Y0138629D02*
X0299624Y0140429D01*
X0299624Y0171629D01*
X0301092Y0173097D01*
X0307646Y0173097D01*
X0307646Y0161286D02*
X0303081Y0161286D01*
X0301424Y0159629D01*
X0301424Y0134979D01*
X0301424Y0131479D02*
X0299524Y0131479D01*
X0307654Y0131542D02*
X0318294Y0131542D01*
X0321227Y0134475D01*
X0314024Y0136829D02*
X0312224Y0135029D01*
X0307667Y0135029D01*
X0307654Y0135042D01*
X0314024Y0136829D02*
X0314024Y0142829D01*
X0315670Y0144475D01*
X0321227Y0144475D01*
D30*
X0318824Y0153629D03*
X0286424Y0131429D03*
X0261947Y0109483D03*
X0266624Y0100829D03*
X0281024Y0093629D03*
X0281070Y0085223D03*
X0286188Y0085223D03*
X0279324Y0060229D03*
X0259324Y0060229D03*
X0233024Y0057629D03*
X0215724Y0060229D03*
X0183924Y0060229D03*
X0184724Y0068629D03*
X0180324Y0074429D03*
X0159324Y0089229D03*
X0154724Y0081929D03*
X0148024Y0081929D03*
X0140024Y0089229D03*
X0140125Y0109239D03*
X0125164Y0108451D03*
X0121621Y0116325D03*
X0121424Y0123829D03*
X0110424Y0116129D03*
X0110424Y0100629D03*
X0110324Y0077929D03*
X0097324Y0060229D03*
X0129224Y0060229D03*
X0152624Y0060229D03*
X0172408Y0094672D03*
X0178707Y0099396D03*
X0180224Y0109829D03*
X0183224Y0109829D03*
X0176739Y0110026D03*
X0195224Y0099029D03*
X0206024Y0099029D03*
X0218824Y0104629D03*
X0228524Y0112029D03*
X0234424Y0118829D03*
X0241306Y0115538D03*
X0218865Y0113963D03*
X0206424Y0109829D03*
X0204824Y0087629D03*
X0208424Y0087629D03*
X0212424Y0087829D03*
X0216824Y0087629D03*
X0221024Y0087629D03*
X0246224Y0093629D03*
X0218824Y0129729D03*
X0218865Y0139554D03*
X0234424Y0145829D03*
X0241306Y0141522D03*
X0241306Y0133648D03*
X0245624Y0149429D03*
X0245024Y0154829D03*
X0240912Y0161207D03*
X0234219Y0164751D03*
X0218471Y0159239D03*
X0239318Y0180762D03*
X0232625Y0188636D03*
X0198392Y0201759D03*
X0190912Y0198609D03*
X0176739Y0198609D03*
X0173589Y0205302D03*
X0151424Y0205829D03*
X0144455Y0188373D03*
X0149424Y0183829D03*
X0158624Y0183029D03*
X0161624Y0183029D03*
X0175164Y0182861D03*
X0196424Y0182829D03*
X0145243Y0159239D03*
X0127920Y0160420D03*
X0124424Y0153829D03*
X0128424Y0140829D03*
X0125164Y0134436D03*
X0145243Y0139554D03*
X0102424Y0156829D03*
X0101424Y0164829D03*
X0099424Y0179829D03*
X0132024Y0192429D03*
X0117224Y0207029D03*
X0064424Y0180029D03*
X0057124Y0154629D03*
X0062624Y0135029D03*
X0053024Y0127829D03*
X0076424Y0128829D03*
X0084219Y0135617D03*
X0098424Y0135829D03*
D31*
X0090951Y0139388D02*
X0090951Y0145026D01*
X0090912Y0145066D01*
X0087424Y0141829D02*
X0087424Y0139601D01*
X0087211Y0139388D01*
X0087424Y0141829D02*
X0086424Y0142829D01*
X0082424Y0142829D01*
X0082416Y0142822D01*
X0077424Y0142822D01*
X0076400Y0141798D01*
X0076400Y0136288D01*
X0080786Y0132662D02*
X0080786Y0130467D01*
X0082101Y0129152D01*
X0087211Y0129152D01*
X0087211Y0126042D01*
X0089424Y0123829D01*
X0089424Y0119680D01*
X0090558Y0118546D01*
X0090526Y0102829D02*
X0075424Y0102829D01*
X0071597Y0099003D01*
X0066404Y0099003D01*
X0055085Y0098609D02*
X0055085Y0108156D01*
X0055085Y0098609D02*
X0055085Y0089160D01*
X0055085Y0079613D01*
X0055479Y0088766D02*
X0066404Y0088766D01*
X0066404Y0084908D01*
X0065833Y0084337D01*
X0090526Y0102829D02*
X0090558Y0102798D01*
X0091566Y0168688D02*
X0090424Y0169829D01*
X0090424Y0182829D01*
X0087636Y0185617D01*
X0079888Y0185617D01*
X0091566Y0168688D02*
X0092424Y0168688D01*
X0096117Y0168688D01*
X0106353Y0168688D02*
X0112172Y0168688D01*
X0245024Y0154829D02*
X0245575Y0155381D01*
X0256465Y0155381D01*
X0256465Y0149475D02*
X0245670Y0149475D01*
X0245624Y0149429D01*
X0307646Y0149475D02*
X0314670Y0149475D01*
X0318824Y0153629D01*
X0286188Y0085223D02*
X0286188Y0077965D01*
X0286058Y0077965D01*
X0281070Y0077965D02*
X0281070Y0085223D01*
X0281058Y0077965D02*
X0281070Y0077965D01*
D32*
X0112172Y0168688D03*
X0090912Y0145066D03*
X0082424Y0142829D03*
D33*
X0076400Y0132788D02*
X0076400Y0128853D01*
X0076424Y0128829D01*
X0090558Y0118546D02*
X0090841Y0118829D01*
X0110424Y0118829D01*
X0112369Y0120774D01*
X0112369Y0133497D01*
X0109424Y0134829D02*
X0109424Y0135829D01*
X0110591Y0136997D01*
X0112369Y0136997D01*
X0109424Y0134829D02*
X0108257Y0133662D01*
X0107014Y0133662D01*
X0107014Y0137162D02*
X0107014Y0142239D01*
X0105424Y0143829D01*
X0096424Y0143829D01*
X0094692Y0142097D01*
X0094692Y0139388D01*
X0098424Y0135829D02*
X0099591Y0136997D01*
X0101920Y0136997D01*
X0101920Y0133497D02*
X0101920Y0131325D01*
X0099747Y0129152D01*
X0094692Y0129152D01*
X0096920Y0153333D02*
X0099107Y0153333D01*
X0096920Y0153333D02*
X0096117Y0154136D01*
X0096117Y0161207D01*
X0092046Y0161207D01*
X0091424Y0161829D01*
X0091424Y0168688D01*
X0092424Y0168688D01*
X0096117Y0164948D02*
X0101306Y0164948D01*
X0101424Y0164829D01*
X0106353Y0168688D02*
X0106353Y0173900D01*
X0104849Y0175404D01*
X0102749Y0175404D01*
X0099424Y0175579D02*
X0099424Y0179829D01*
X0099424Y0175579D02*
X0099249Y0175404D01*
X0102424Y0156829D02*
X0102607Y0156646D01*
X0102607Y0153333D01*
M02*
