G75*
%MOIN*%
%OFA0B0*%
%FSLAX25Y25*%
%IPPOS*%
%LPD*%
%AMOC8*
5,1,8,0,0,1.08239X$1,22.5*
%
%ADD10C,0.05500*%
%ADD11C,0.05150*%
%ADD12C,0.04000*%
%ADD13C,0.08858*%
%ADD14C,0.02400*%
%ADD15C,0.02800*%
%ADD16C,0.00600*%
D10*
X0321227Y0094475D03*
X0321227Y0104475D03*
X0321227Y0114475D03*
X0321227Y0124475D03*
X0321227Y0134475D03*
X0321227Y0144475D03*
X0321227Y0170499D03*
X0321227Y0180499D03*
X0321227Y0190499D03*
D11*
X0308235Y0047822D03*
X0302329Y0040735D03*
X0296424Y0047822D03*
X0249180Y0047822D03*
X0243274Y0040735D03*
X0237369Y0047822D03*
X0065833Y0084337D03*
X0065833Y0103432D03*
D12*
X0055085Y0108156D03*
X0055085Y0079613D03*
D13*
X0079888Y0167113D03*
X0079888Y0185617D03*
X0079888Y0204121D03*
D14*
X0064424Y0180029D03*
X0099424Y0179829D03*
X0101424Y0164829D03*
X0102424Y0156829D03*
X0124424Y0153829D03*
X0127920Y0160420D03*
X0145243Y0159239D03*
X0128424Y0140829D03*
X0125164Y0134436D03*
X0121424Y0123829D03*
X0121621Y0116325D03*
X0125164Y0108451D03*
X0140125Y0109239D03*
X0140024Y0089229D03*
X0148024Y0081929D03*
X0154724Y0081929D03*
X0159324Y0089229D03*
X0172408Y0094672D03*
X0178707Y0099396D03*
X0180224Y0109829D03*
X0183224Y0109829D03*
X0176739Y0110026D03*
X0195224Y0099029D03*
X0206024Y0099029D03*
X0218824Y0104629D03*
X0228524Y0112029D03*
X0234424Y0118829D03*
X0241306Y0115538D03*
X0261947Y0109483D03*
X0266624Y0100829D03*
X0281024Y0093629D03*
X0281070Y0085223D03*
X0286188Y0085223D03*
X0279324Y0060229D03*
X0259324Y0060229D03*
X0233024Y0057629D03*
X0215724Y0060229D03*
X0183924Y0060229D03*
X0184724Y0068629D03*
X0180324Y0074429D03*
X0204824Y0087629D03*
X0208424Y0087629D03*
X0212424Y0087829D03*
X0216824Y0087629D03*
X0221024Y0087629D03*
X0246224Y0093629D03*
X0218865Y0113963D03*
X0206424Y0109829D03*
X0218824Y0129729D03*
X0218865Y0139554D03*
X0234424Y0145829D03*
X0241306Y0141522D03*
X0241306Y0133648D03*
X0245624Y0149429D03*
X0245024Y0154829D03*
X0240912Y0161207D03*
X0234219Y0164751D03*
X0218471Y0159239D03*
X0239318Y0180762D03*
X0232625Y0188636D03*
X0198392Y0201759D03*
X0190912Y0198609D03*
X0176739Y0198609D03*
X0173589Y0205302D03*
X0151424Y0205829D03*
X0144455Y0188373D03*
X0149424Y0183829D03*
X0158624Y0183029D03*
X0161624Y0183029D03*
X0175164Y0182861D03*
X0196424Y0182829D03*
X0132024Y0192429D03*
X0117224Y0207029D03*
X0057124Y0154629D03*
X0062624Y0135029D03*
X0053024Y0127829D03*
X0076424Y0128829D03*
X0084219Y0135617D03*
X0098424Y0135829D03*
X0110424Y0116129D03*
X0110424Y0100629D03*
X0110324Y0077929D03*
X0097324Y0060229D03*
X0129224Y0060229D03*
X0152624Y0060229D03*
X0145243Y0139554D03*
X0286424Y0131429D03*
X0318824Y0153629D03*
D15*
X0112172Y0168688D03*
X0090912Y0145066D03*
X0082424Y0142829D03*
D16*
X0053109Y0041514D02*
X0056327Y0038947D01*
X0060037Y0037161D01*
X0064050Y0036245D01*
X0066109Y0036129D01*
X0333825Y0036129D01*
X0335884Y0036245D01*
X0339898Y0037161D01*
X0343607Y0038947D01*
X0346826Y0041514D01*
X0349393Y0044733D01*
X0351179Y0048442D01*
X0352095Y0052456D01*
X0352210Y0054514D01*
X0352210Y0231680D01*
X0352095Y0233738D01*
X0351179Y0237752D01*
X0349393Y0241461D01*
X0346826Y0244680D01*
X0343607Y0247247D01*
X0339898Y0249033D01*
X0335884Y0249949D01*
X0333825Y0250065D01*
X0312424Y0250065D01*
X0312424Y0141829D01*
X0251424Y0141829D01*
X0251424Y0250065D01*
X0066109Y0250065D01*
X0064050Y0249949D01*
X0060037Y0249033D01*
X0056327Y0247247D01*
X0056327Y0247247D01*
X0053109Y0244680D01*
X0050542Y0241461D01*
X0048756Y0237752D01*
X0047839Y0233738D01*
X0047724Y0231680D01*
X0047724Y0055053D01*
X0047724Y0054514D01*
X0047839Y0052456D01*
X0048756Y0048442D01*
X0050542Y0044733D01*
X0053109Y0041514D01*
X0053236Y0041413D02*
X0058642Y0041413D01*
X0057606Y0042012D02*
X0052712Y0042012D01*
X0052235Y0042610D02*
X0056688Y0042610D01*
X0056850Y0042448D02*
X0054042Y0045255D01*
X0052057Y0048694D01*
X0051029Y0052529D01*
X0051029Y0056500D01*
X0052057Y0060335D01*
X0054042Y0063773D01*
X0056850Y0066581D01*
X0060288Y0068566D01*
X0064124Y0069594D01*
X0068094Y0069594D01*
X0071929Y0068566D01*
X0075368Y0066581D01*
X0078176Y0063773D01*
X0080161Y0060335D01*
X0081188Y0056500D01*
X0081188Y0052529D01*
X0080161Y0048694D01*
X0078176Y0045255D01*
X0075368Y0042448D01*
X0071929Y0040463D01*
X0068094Y0039435D01*
X0064124Y0039435D01*
X0060288Y0040463D01*
X0056850Y0042448D01*
X0056089Y0043209D02*
X0051758Y0043209D01*
X0051280Y0043807D02*
X0055491Y0043807D01*
X0054892Y0044406D02*
X0050803Y0044406D01*
X0050411Y0045004D02*
X0054294Y0045004D01*
X0053842Y0045603D02*
X0050123Y0045603D01*
X0049835Y0046201D02*
X0053496Y0046201D01*
X0053151Y0046800D02*
X0049547Y0046800D01*
X0049258Y0047398D02*
X0052805Y0047398D01*
X0052460Y0047997D02*
X0048970Y0047997D01*
X0048721Y0048595D02*
X0052114Y0048595D01*
X0051923Y0049194D02*
X0048584Y0049194D01*
X0048447Y0049792D02*
X0051763Y0049792D01*
X0051602Y0050391D02*
X0048311Y0050391D01*
X0048174Y0050989D02*
X0051442Y0050989D01*
X0051282Y0051588D02*
X0048038Y0051588D01*
X0047901Y0052186D02*
X0051121Y0052186D01*
X0051029Y0052785D02*
X0047821Y0052785D01*
X0047787Y0053383D02*
X0051029Y0053383D01*
X0051029Y0053982D02*
X0047754Y0053982D01*
X0047724Y0054580D02*
X0051029Y0054580D01*
X0051029Y0055179D02*
X0047724Y0055179D01*
X0047724Y0055777D02*
X0051029Y0055777D01*
X0051029Y0056376D02*
X0047724Y0056376D01*
X0047724Y0056974D02*
X0051157Y0056974D01*
X0051317Y0057573D02*
X0047724Y0057573D01*
X0047724Y0058171D02*
X0051477Y0058171D01*
X0051638Y0058770D02*
X0047724Y0058770D01*
X0047724Y0059368D02*
X0051798Y0059368D01*
X0051958Y0059967D02*
X0047724Y0059967D01*
X0047724Y0060565D02*
X0052190Y0060565D01*
X0052536Y0061164D02*
X0047724Y0061164D01*
X0047724Y0061762D02*
X0052881Y0061762D01*
X0053227Y0062361D02*
X0047724Y0062361D01*
X0047724Y0062959D02*
X0053572Y0062959D01*
X0053918Y0063558D02*
X0047724Y0063558D01*
X0047724Y0064156D02*
X0054425Y0064156D01*
X0055024Y0064755D02*
X0047724Y0064755D01*
X0047724Y0065353D02*
X0055622Y0065353D01*
X0056221Y0065952D02*
X0047724Y0065952D01*
X0047724Y0066550D02*
X0056819Y0066550D01*
X0057834Y0067149D02*
X0047724Y0067149D01*
X0047724Y0067748D02*
X0058870Y0067748D01*
X0059907Y0068346D02*
X0047724Y0068346D01*
X0047724Y0068945D02*
X0061700Y0068945D01*
X0063934Y0069543D02*
X0047724Y0069543D01*
X0047724Y0070142D02*
X0183266Y0070142D01*
X0183854Y0070729D02*
X0182624Y0069499D01*
X0182624Y0067760D01*
X0183854Y0066529D01*
X0185594Y0066529D01*
X0186824Y0067760D01*
X0186824Y0069499D01*
X0185594Y0070729D01*
X0183854Y0070729D01*
X0182668Y0069543D02*
X0068284Y0069543D01*
X0070518Y0068945D02*
X0182624Y0068945D01*
X0182624Y0068346D02*
X0072311Y0068346D01*
X0073348Y0067748D02*
X0182636Y0067748D01*
X0183234Y0067149D02*
X0074384Y0067149D01*
X0075399Y0066550D02*
X0183833Y0066550D01*
X0185615Y0066550D02*
X0324536Y0066550D01*
X0324566Y0066581D02*
X0321759Y0063773D01*
X0319774Y0060335D01*
X0318746Y0056500D01*
X0318746Y0052529D01*
X0319774Y0048694D01*
X0321759Y0045255D01*
X0324566Y0042448D01*
X0328005Y0040463D01*
X0331840Y0039435D01*
X0335811Y0039435D01*
X0339646Y0040463D01*
X0343084Y0042448D01*
X0345892Y0045255D01*
X0347877Y0048694D01*
X0348905Y0052529D01*
X0348905Y0056500D01*
X0347877Y0060335D01*
X0345892Y0063773D01*
X0343084Y0066581D01*
X0339646Y0068566D01*
X0335811Y0069594D01*
X0331840Y0069594D01*
X0328005Y0068566D01*
X0324566Y0066581D01*
X0323937Y0065952D02*
X0075997Y0065952D01*
X0076596Y0065353D02*
X0323339Y0065353D01*
X0322740Y0064755D02*
X0077194Y0064755D01*
X0077793Y0064156D02*
X0322142Y0064156D01*
X0321634Y0063558D02*
X0078300Y0063558D01*
X0078646Y0062959D02*
X0321289Y0062959D01*
X0320943Y0062361D02*
X0078991Y0062361D01*
X0079337Y0061762D02*
X0320598Y0061762D01*
X0320252Y0061164D02*
X0079682Y0061164D01*
X0080028Y0060565D02*
X0319907Y0060565D01*
X0319675Y0059967D02*
X0080259Y0059967D01*
X0080420Y0059368D02*
X0231793Y0059368D01*
X0232154Y0059729D02*
X0230924Y0058499D01*
X0230924Y0056760D01*
X0232154Y0055529D01*
X0233894Y0055529D01*
X0235124Y0056760D01*
X0235124Y0058499D01*
X0233894Y0059729D01*
X0232154Y0059729D01*
X0231194Y0058770D02*
X0080580Y0058770D01*
X0080741Y0058171D02*
X0230924Y0058171D01*
X0230924Y0057573D02*
X0080901Y0057573D01*
X0081061Y0056974D02*
X0230924Y0056974D01*
X0231308Y0056376D02*
X0081188Y0056376D01*
X0081188Y0055777D02*
X0231906Y0055777D01*
X0234142Y0055777D02*
X0318746Y0055777D01*
X0318746Y0055179D02*
X0081188Y0055179D01*
X0081188Y0054580D02*
X0318746Y0054580D01*
X0318746Y0053982D02*
X0081188Y0053982D01*
X0081188Y0053383D02*
X0318746Y0053383D01*
X0318746Y0052785D02*
X0081188Y0052785D01*
X0081097Y0052186D02*
X0318838Y0052186D01*
X0318998Y0051588D02*
X0250107Y0051588D01*
X0250310Y0051547D02*
X0249561Y0051696D01*
X0249480Y0051696D01*
X0249480Y0048122D01*
X0248880Y0048122D01*
X0248880Y0051696D01*
X0248798Y0051696D01*
X0248050Y0051547D01*
X0247344Y0051255D01*
X0246710Y0050831D01*
X0246170Y0050292D01*
X0245746Y0049657D01*
X0245454Y0048952D01*
X0245305Y0048203D01*
X0245305Y0048121D01*
X0248880Y0048121D01*
X0248880Y0047522D01*
X0245305Y0047522D01*
X0245305Y0047440D01*
X0245454Y0046691D01*
X0245746Y0045986D01*
X0246170Y0045351D01*
X0246710Y0044812D01*
X0247344Y0044388D01*
X0248050Y0044096D01*
X0248798Y0043947D01*
X0248880Y0043947D01*
X0248880Y0047521D01*
X0249480Y0047521D01*
X0249480Y0043947D01*
X0249561Y0043947D01*
X0250310Y0044096D01*
X0251015Y0044388D01*
X0251650Y0044812D01*
X0252190Y0045351D01*
X0252614Y0045986D01*
X0252906Y0046691D01*
X0253055Y0047440D01*
X0253055Y0047522D01*
X0249480Y0047522D01*
X0249480Y0048121D01*
X0253055Y0048121D01*
X0253055Y0048203D01*
X0252906Y0048952D01*
X0252614Y0049657D01*
X0252190Y0050292D01*
X0251650Y0050831D01*
X0251015Y0051255D01*
X0250310Y0051547D01*
X0249480Y0051588D02*
X0248880Y0051588D01*
X0248880Y0050989D02*
X0249480Y0050989D01*
X0249480Y0050391D02*
X0248880Y0050391D01*
X0248880Y0049792D02*
X0249480Y0049792D01*
X0249480Y0049194D02*
X0248880Y0049194D01*
X0248880Y0048595D02*
X0249480Y0048595D01*
X0249480Y0047997D02*
X0292949Y0047997D01*
X0292949Y0048513D02*
X0292949Y0047130D01*
X0293478Y0045853D01*
X0294456Y0044876D01*
X0295733Y0044347D01*
X0297115Y0044347D01*
X0298392Y0044876D01*
X0299370Y0045853D01*
X0299899Y0047130D01*
X0299899Y0048513D01*
X0299370Y0049790D01*
X0298392Y0050767D01*
X0297115Y0051296D01*
X0295733Y0051296D01*
X0294456Y0050767D01*
X0293478Y0049790D01*
X0292949Y0048513D01*
X0292983Y0048595D02*
X0252977Y0048595D01*
X0252805Y0049194D02*
X0293231Y0049194D01*
X0293480Y0049792D02*
X0252523Y0049792D01*
X0252090Y0050391D02*
X0294079Y0050391D01*
X0294991Y0050989D02*
X0251413Y0050989D01*
X0248252Y0051588D02*
X0080936Y0051588D01*
X0080776Y0050989D02*
X0235936Y0050989D01*
X0235400Y0050767D02*
X0234423Y0049790D01*
X0233894Y0048513D01*
X0233894Y0047130D01*
X0234423Y0045853D01*
X0235400Y0044876D01*
X0236678Y0044347D01*
X0238060Y0044347D01*
X0239337Y0044876D01*
X0240315Y0045853D01*
X0240844Y0047130D01*
X0240844Y0048513D01*
X0240315Y0049790D01*
X0239337Y0050767D01*
X0238060Y0051296D01*
X0236678Y0051296D01*
X0235400Y0050767D01*
X0235024Y0050391D02*
X0080615Y0050391D01*
X0080455Y0049792D02*
X0234425Y0049792D01*
X0234176Y0049194D02*
X0080295Y0049194D01*
X0080104Y0048595D02*
X0233928Y0048595D01*
X0233894Y0047997D02*
X0079758Y0047997D01*
X0079413Y0047398D02*
X0233894Y0047398D01*
X0234031Y0046800D02*
X0079067Y0046800D01*
X0078722Y0046201D02*
X0234279Y0046201D01*
X0234674Y0045603D02*
X0078376Y0045603D01*
X0077924Y0045004D02*
X0235272Y0045004D01*
X0236535Y0044406D02*
X0077326Y0044406D01*
X0076727Y0043807D02*
X0241611Y0043807D01*
X0241306Y0043681D02*
X0240328Y0042703D01*
X0239799Y0041426D01*
X0239799Y0040044D01*
X0240328Y0038767D01*
X0241306Y0037789D01*
X0242583Y0037260D01*
X0243965Y0037260D01*
X0245243Y0037789D01*
X0246220Y0038767D01*
X0246749Y0040044D01*
X0246749Y0041426D01*
X0246220Y0042703D01*
X0245243Y0043681D01*
X0243965Y0044210D01*
X0242583Y0044210D01*
X0241306Y0043681D01*
X0240834Y0043209D02*
X0076129Y0043209D01*
X0075530Y0042610D02*
X0240290Y0042610D01*
X0240042Y0042012D02*
X0074612Y0042012D01*
X0073576Y0041413D02*
X0239799Y0041413D01*
X0239799Y0040815D02*
X0072539Y0040815D01*
X0071009Y0040216D02*
X0239799Y0040216D01*
X0239976Y0039617D02*
X0068776Y0039617D01*
X0063442Y0039617D02*
X0055487Y0039617D01*
X0056238Y0039019D02*
X0240224Y0039019D01*
X0240675Y0038420D02*
X0057422Y0038420D01*
X0058664Y0037822D02*
X0241273Y0037822D01*
X0245275Y0037822D02*
X0300328Y0037822D01*
X0300361Y0037789D02*
X0301638Y0037260D01*
X0303021Y0037260D01*
X0304298Y0037789D01*
X0305275Y0038767D01*
X0305804Y0040044D01*
X0305804Y0041426D01*
X0305275Y0042703D01*
X0304298Y0043681D01*
X0303021Y0044210D01*
X0301638Y0044210D01*
X0300361Y0043681D01*
X0299384Y0042703D01*
X0298855Y0041426D01*
X0298855Y0040044D01*
X0299384Y0038767D01*
X0300361Y0037789D01*
X0299730Y0038420D02*
X0245874Y0038420D01*
X0246325Y0039019D02*
X0299279Y0039019D01*
X0299031Y0039617D02*
X0246573Y0039617D01*
X0246749Y0040216D02*
X0298855Y0040216D01*
X0298855Y0040815D02*
X0246749Y0040815D01*
X0246749Y0041413D02*
X0298855Y0041413D01*
X0299097Y0042012D02*
X0246507Y0042012D01*
X0246259Y0042610D02*
X0299345Y0042610D01*
X0299889Y0043209D02*
X0245715Y0043209D01*
X0244937Y0043807D02*
X0300666Y0043807D01*
X0299119Y0045603D02*
X0305540Y0045603D01*
X0305289Y0045853D02*
X0306267Y0044876D01*
X0307544Y0044347D01*
X0308926Y0044347D01*
X0310203Y0044876D01*
X0311181Y0045853D01*
X0311710Y0047130D01*
X0311710Y0048513D01*
X0311181Y0049790D01*
X0310203Y0050767D01*
X0308926Y0051296D01*
X0307544Y0051296D01*
X0306267Y0050767D01*
X0305289Y0049790D01*
X0304760Y0048513D01*
X0304760Y0047130D01*
X0305289Y0045853D01*
X0305145Y0046201D02*
X0299514Y0046201D01*
X0299762Y0046800D02*
X0304897Y0046800D01*
X0304760Y0047398D02*
X0299899Y0047398D01*
X0299899Y0047997D02*
X0304760Y0047997D01*
X0304794Y0048595D02*
X0299865Y0048595D01*
X0299617Y0049194D02*
X0305042Y0049194D01*
X0305291Y0049792D02*
X0299367Y0049792D01*
X0298769Y0050391D02*
X0305890Y0050391D01*
X0306802Y0050989D02*
X0297856Y0050989D01*
X0298521Y0045004D02*
X0306138Y0045004D01*
X0307402Y0044406D02*
X0297257Y0044406D01*
X0295591Y0044406D02*
X0251042Y0044406D01*
X0251842Y0045004D02*
X0294327Y0045004D01*
X0293729Y0045603D02*
X0252357Y0045603D01*
X0252703Y0046201D02*
X0293334Y0046201D01*
X0293086Y0046800D02*
X0252927Y0046800D01*
X0253046Y0047398D02*
X0292949Y0047398D01*
X0303993Y0043807D02*
X0323207Y0043807D01*
X0322609Y0044406D02*
X0309068Y0044406D01*
X0310332Y0045004D02*
X0322010Y0045004D01*
X0321558Y0045603D02*
X0310930Y0045603D01*
X0311325Y0046201D02*
X0321213Y0046201D01*
X0320867Y0046800D02*
X0311573Y0046800D01*
X0311710Y0047398D02*
X0320522Y0047398D01*
X0320176Y0047997D02*
X0311710Y0047997D01*
X0311676Y0048595D02*
X0319831Y0048595D01*
X0319640Y0049194D02*
X0311428Y0049194D01*
X0311178Y0049792D02*
X0319479Y0049792D01*
X0319319Y0050391D02*
X0310580Y0050391D01*
X0309668Y0050989D02*
X0319159Y0050989D01*
X0318746Y0056376D02*
X0234740Y0056376D01*
X0235124Y0056974D02*
X0318873Y0056974D01*
X0319033Y0057573D02*
X0235124Y0057573D01*
X0235124Y0058171D02*
X0319194Y0058171D01*
X0319354Y0058770D02*
X0234853Y0058770D01*
X0234255Y0059368D02*
X0319515Y0059368D01*
X0325550Y0067149D02*
X0186213Y0067149D01*
X0186812Y0067748D02*
X0326587Y0067748D01*
X0327623Y0068346D02*
X0186824Y0068346D01*
X0186824Y0068945D02*
X0329417Y0068945D01*
X0331650Y0069543D02*
X0186780Y0069543D01*
X0186182Y0070142D02*
X0352210Y0070142D01*
X0352210Y0070740D02*
X0047724Y0070740D01*
X0047724Y0071339D02*
X0352210Y0071339D01*
X0352210Y0071937D02*
X0335116Y0071937D01*
X0335063Y0071915D02*
X0337350Y0072862D01*
X0339100Y0074612D01*
X0340047Y0076899D01*
X0340047Y0079374D01*
X0339100Y0081661D01*
X0337350Y0083411D01*
X0335063Y0084358D01*
X0332588Y0084358D01*
X0330301Y0083411D01*
X0328551Y0081661D01*
X0327604Y0079374D01*
X0327604Y0076899D01*
X0328551Y0074612D01*
X0330301Y0072862D01*
X0332588Y0071915D01*
X0335063Y0071915D01*
X0336561Y0072536D02*
X0352210Y0072536D01*
X0352210Y0073134D02*
X0337621Y0073134D01*
X0338220Y0073733D02*
X0352210Y0073733D01*
X0352210Y0074331D02*
X0338818Y0074331D01*
X0339231Y0074930D02*
X0352210Y0074930D01*
X0352210Y0075528D02*
X0339479Y0075528D01*
X0339727Y0076127D02*
X0352210Y0076127D01*
X0352210Y0076725D02*
X0339975Y0076725D01*
X0340047Y0077324D02*
X0352210Y0077324D01*
X0352210Y0077922D02*
X0340047Y0077922D01*
X0340047Y0078521D02*
X0352210Y0078521D01*
X0352210Y0079119D02*
X0340047Y0079119D01*
X0339904Y0079718D02*
X0352210Y0079718D01*
X0352210Y0080316D02*
X0339656Y0080316D01*
X0339408Y0080915D02*
X0352210Y0080915D01*
X0352210Y0081513D02*
X0339161Y0081513D01*
X0338648Y0082112D02*
X0352210Y0082112D01*
X0352210Y0082710D02*
X0338050Y0082710D01*
X0337451Y0083309D02*
X0352210Y0083309D01*
X0352210Y0083907D02*
X0336150Y0083907D01*
X0331501Y0083907D02*
X0287842Y0083907D01*
X0288288Y0084353D02*
X0287058Y0083123D01*
X0285318Y0083123D01*
X0284088Y0084353D01*
X0284088Y0086093D01*
X0285318Y0087323D01*
X0287058Y0087323D01*
X0288288Y0086093D01*
X0288288Y0084353D01*
X0288288Y0084506D02*
X0352210Y0084506D01*
X0352210Y0085104D02*
X0288288Y0085104D01*
X0288288Y0085703D02*
X0352210Y0085703D01*
X0352210Y0086301D02*
X0288079Y0086301D01*
X0287481Y0086900D02*
X0352210Y0086900D01*
X0352210Y0087498D02*
X0223124Y0087498D01*
X0223124Y0086900D02*
X0284895Y0086900D01*
X0284296Y0086301D02*
X0222666Y0086301D01*
X0223124Y0086760D02*
X0221894Y0085529D01*
X0220154Y0085529D01*
X0218924Y0086760D01*
X0217694Y0085529D01*
X0215954Y0085529D01*
X0214724Y0086760D01*
X0214724Y0088499D01*
X0215954Y0089729D01*
X0217694Y0089729D01*
X0218924Y0088499D01*
X0218924Y0086760D01*
X0218924Y0088499D01*
X0220154Y0089729D01*
X0221894Y0089729D01*
X0223124Y0088499D01*
X0223124Y0086760D01*
X0223124Y0088097D02*
X0352210Y0088097D01*
X0352210Y0088695D02*
X0222928Y0088695D01*
X0222329Y0089294D02*
X0352210Y0089294D01*
X0352210Y0089892D02*
X0161424Y0089892D01*
X0161424Y0090099D02*
X0160194Y0091329D01*
X0158454Y0091329D01*
X0157224Y0090099D01*
X0157224Y0088360D01*
X0158454Y0087129D01*
X0160194Y0087129D01*
X0161424Y0088360D01*
X0161424Y0090099D01*
X0161032Y0090491D02*
X0352210Y0090491D01*
X0352210Y0091089D02*
X0322591Y0091089D01*
X0321953Y0090825D02*
X0323295Y0091381D01*
X0324321Y0092407D01*
X0324877Y0093749D01*
X0324877Y0095201D01*
X0324321Y0096543D01*
X0323295Y0097569D01*
X0321953Y0098125D01*
X0320501Y0098125D01*
X0319159Y0097569D01*
X0318133Y0096543D01*
X0317577Y0095201D01*
X0317577Y0093749D01*
X0318133Y0092407D01*
X0319159Y0091381D01*
X0320501Y0090825D01*
X0321953Y0090825D01*
X0323602Y0091688D02*
X0352210Y0091688D01*
X0352210Y0092286D02*
X0324200Y0092286D01*
X0324519Y0092885D02*
X0352210Y0092885D01*
X0352210Y0093484D02*
X0324767Y0093484D01*
X0324877Y0094082D02*
X0352210Y0094082D01*
X0352210Y0094681D02*
X0324877Y0094681D01*
X0324845Y0095279D02*
X0352210Y0095279D01*
X0352210Y0095878D02*
X0324597Y0095878D01*
X0324349Y0096476D02*
X0352210Y0096476D01*
X0352210Y0097075D02*
X0323789Y0097075D01*
X0323044Y0097673D02*
X0352210Y0097673D01*
X0352210Y0098272D02*
X0197324Y0098272D01*
X0197324Y0098160D02*
X0196094Y0096929D01*
X0194354Y0096929D01*
X0193124Y0098160D01*
X0193124Y0099899D01*
X0194354Y0101129D01*
X0196094Y0101129D01*
X0197324Y0099899D01*
X0197324Y0098160D01*
X0196837Y0097673D02*
X0319410Y0097673D01*
X0318665Y0097075D02*
X0196239Y0097075D01*
X0194209Y0097075D02*
X0047724Y0097075D01*
X0047724Y0097673D02*
X0193610Y0097673D01*
X0193124Y0098272D02*
X0047724Y0098272D01*
X0047724Y0098870D02*
X0109213Y0098870D01*
X0109554Y0098529D02*
X0111294Y0098529D01*
X0112524Y0099760D01*
X0112524Y0101499D01*
X0111294Y0102729D01*
X0109554Y0102729D01*
X0108324Y0101499D01*
X0108324Y0099760D01*
X0109554Y0098529D01*
X0108615Y0099469D02*
X0047724Y0099469D01*
X0047724Y0100067D02*
X0064876Y0100067D01*
X0065142Y0099957D02*
X0066525Y0099957D01*
X0067802Y0100486D01*
X0068779Y0101463D01*
X0069308Y0102741D01*
X0069308Y0104123D01*
X0068779Y0105400D01*
X0067802Y0106378D01*
X0066525Y0106907D01*
X0065142Y0106907D01*
X0063865Y0106378D01*
X0062888Y0105400D01*
X0062359Y0104123D01*
X0062359Y0102741D01*
X0062888Y0101463D01*
X0063865Y0100486D01*
X0065142Y0099957D01*
X0063685Y0100666D02*
X0047724Y0100666D01*
X0047724Y0101264D02*
X0063087Y0101264D01*
X0062722Y0101863D02*
X0047724Y0101863D01*
X0047724Y0102461D02*
X0062474Y0102461D01*
X0062359Y0103060D02*
X0047724Y0103060D01*
X0047724Y0103658D02*
X0062359Y0103658D01*
X0062414Y0104257D02*
X0047724Y0104257D01*
X0047724Y0104855D02*
X0062662Y0104855D01*
X0062941Y0105454D02*
X0056139Y0105454D01*
X0055662Y0105256D02*
X0056728Y0105698D01*
X0057544Y0106513D01*
X0057985Y0107579D01*
X0057985Y0108733D01*
X0057544Y0109799D01*
X0056728Y0110615D01*
X0055662Y0111056D01*
X0054508Y0111056D01*
X0053443Y0110615D01*
X0052627Y0109799D01*
X0052185Y0108733D01*
X0052185Y0107579D01*
X0052627Y0106513D01*
X0053443Y0105698D01*
X0054508Y0105256D01*
X0055662Y0105256D01*
X0057083Y0106052D02*
X0063540Y0106052D01*
X0064525Y0106651D02*
X0057601Y0106651D01*
X0057849Y0107249D02*
X0123396Y0107249D01*
X0123064Y0107582D02*
X0124294Y0106351D01*
X0126034Y0106351D01*
X0127264Y0107582D01*
X0127264Y0109321D01*
X0126034Y0110551D01*
X0124294Y0110551D01*
X0123064Y0109321D01*
X0123064Y0107582D01*
X0123064Y0107848D02*
X0057985Y0107848D01*
X0057985Y0108446D02*
X0123064Y0108446D01*
X0123064Y0109045D02*
X0057856Y0109045D01*
X0057608Y0109643D02*
X0123386Y0109643D01*
X0123985Y0110242D02*
X0057101Y0110242D01*
X0056183Y0110840D02*
X0174639Y0110840D01*
X0174639Y0110896D02*
X0174639Y0109156D01*
X0175869Y0107926D01*
X0177609Y0107926D01*
X0178383Y0108700D01*
X0179354Y0107729D01*
X0181094Y0107729D01*
X0181724Y0108360D01*
X0182354Y0107729D01*
X0184094Y0107729D01*
X0185324Y0108960D01*
X0185324Y0110699D01*
X0184094Y0111929D01*
X0182354Y0111929D01*
X0181724Y0111299D01*
X0181094Y0111929D01*
X0179354Y0111929D01*
X0178580Y0111155D01*
X0177609Y0112126D01*
X0175869Y0112126D01*
X0174639Y0110896D01*
X0174639Y0110242D02*
X0126343Y0110242D01*
X0126942Y0109643D02*
X0174639Y0109643D01*
X0174750Y0109045D02*
X0127264Y0109045D01*
X0127264Y0108446D02*
X0175349Y0108446D01*
X0178129Y0108446D02*
X0178637Y0108446D01*
X0179236Y0107848D02*
X0127264Y0107848D01*
X0126932Y0107249D02*
X0318839Y0107249D01*
X0319159Y0107569D02*
X0318133Y0106543D01*
X0317577Y0105201D01*
X0317577Y0103749D01*
X0318133Y0102407D01*
X0319159Y0101381D01*
X0320501Y0100825D01*
X0321953Y0100825D01*
X0323295Y0101381D01*
X0324321Y0102407D01*
X0324877Y0103749D01*
X0324877Y0105201D01*
X0324321Y0106543D01*
X0323295Y0107569D01*
X0321953Y0108125D01*
X0320501Y0108125D01*
X0319159Y0107569D01*
X0319832Y0107848D02*
X0263281Y0107848D01*
X0262817Y0107383D02*
X0264047Y0108613D01*
X0264047Y0110353D01*
X0262817Y0111583D01*
X0261077Y0111583D01*
X0259847Y0110353D01*
X0259847Y0108613D01*
X0261077Y0107383D01*
X0262817Y0107383D01*
X0263880Y0108446D02*
X0352210Y0108446D01*
X0352210Y0107848D02*
X0322622Y0107848D01*
X0323615Y0107249D02*
X0352210Y0107249D01*
X0352210Y0106651D02*
X0324213Y0106651D01*
X0324524Y0106052D02*
X0352210Y0106052D01*
X0352210Y0105454D02*
X0324772Y0105454D01*
X0324877Y0104855D02*
X0352210Y0104855D01*
X0352210Y0104257D02*
X0324877Y0104257D01*
X0324839Y0103658D02*
X0352210Y0103658D01*
X0352210Y0103060D02*
X0324591Y0103060D01*
X0324344Y0102461D02*
X0352210Y0102461D01*
X0352210Y0101863D02*
X0323777Y0101863D01*
X0323013Y0101264D02*
X0352210Y0101264D01*
X0352210Y0100666D02*
X0196557Y0100666D01*
X0197156Y0100067D02*
X0352210Y0100067D01*
X0352210Y0099469D02*
X0197324Y0099469D01*
X0197324Y0098870D02*
X0352210Y0098870D01*
X0352210Y0109045D02*
X0264047Y0109045D01*
X0264047Y0109643D02*
X0352210Y0109643D01*
X0352210Y0110242D02*
X0264047Y0110242D01*
X0263559Y0110840D02*
X0320464Y0110840D01*
X0320501Y0110825D02*
X0321953Y0110825D01*
X0323295Y0111381D01*
X0324321Y0112407D01*
X0324877Y0113749D01*
X0324877Y0115201D01*
X0324321Y0116543D01*
X0323295Y0117569D01*
X0321953Y0118125D01*
X0320501Y0118125D01*
X0319159Y0117569D01*
X0318133Y0116543D01*
X0317577Y0115201D01*
X0317577Y0113749D01*
X0318133Y0112407D01*
X0319159Y0111381D01*
X0320501Y0110825D01*
X0321990Y0110840D02*
X0352210Y0110840D01*
X0352210Y0111439D02*
X0323353Y0111439D01*
X0323951Y0112037D02*
X0352210Y0112037D01*
X0352210Y0112636D02*
X0324416Y0112636D01*
X0324664Y0113234D02*
X0352210Y0113234D01*
X0352210Y0113833D02*
X0324877Y0113833D01*
X0324877Y0114431D02*
X0352210Y0114431D01*
X0352210Y0115030D02*
X0324877Y0115030D01*
X0324700Y0115628D02*
X0352210Y0115628D01*
X0352210Y0116227D02*
X0324452Y0116227D01*
X0324039Y0116825D02*
X0352210Y0116825D01*
X0352210Y0117424D02*
X0323440Y0117424D01*
X0322201Y0118022D02*
X0352210Y0118022D01*
X0352210Y0118621D02*
X0047724Y0118621D01*
X0047724Y0119219D02*
X0352210Y0119219D01*
X0352210Y0119818D02*
X0047724Y0119818D01*
X0047724Y0120417D02*
X0352210Y0120417D01*
X0352210Y0121015D02*
X0322412Y0121015D01*
X0321953Y0120825D02*
X0323295Y0121381D01*
X0324321Y0122407D01*
X0324877Y0123749D01*
X0324877Y0125201D01*
X0324321Y0126543D01*
X0323295Y0127569D01*
X0321953Y0128125D01*
X0320501Y0128125D01*
X0319159Y0127569D01*
X0318133Y0126543D01*
X0317577Y0125201D01*
X0317577Y0123749D01*
X0318133Y0122407D01*
X0319159Y0121381D01*
X0320501Y0120825D01*
X0321953Y0120825D01*
X0323527Y0121614D02*
X0352210Y0121614D01*
X0352210Y0122212D02*
X0324126Y0122212D01*
X0324488Y0122811D02*
X0352210Y0122811D01*
X0352210Y0123409D02*
X0324736Y0123409D01*
X0324877Y0124008D02*
X0352210Y0124008D01*
X0352210Y0124606D02*
X0324877Y0124606D01*
X0324876Y0125205D02*
X0352210Y0125205D01*
X0352210Y0125803D02*
X0324628Y0125803D01*
X0324380Y0126402D02*
X0352210Y0126402D01*
X0352210Y0127000D02*
X0323864Y0127000D01*
X0323224Y0127599D02*
X0352210Y0127599D01*
X0352210Y0128197D02*
X0220261Y0128197D01*
X0219694Y0127629D02*
X0220924Y0128860D01*
X0220924Y0130599D01*
X0219694Y0131829D01*
X0217954Y0131829D01*
X0216724Y0130599D01*
X0216724Y0128860D01*
X0217954Y0127629D01*
X0219694Y0127629D01*
X0220860Y0128796D02*
X0352210Y0128796D01*
X0352210Y0129394D02*
X0287359Y0129394D01*
X0287294Y0129329D02*
X0288524Y0130560D01*
X0288524Y0132299D01*
X0287294Y0133529D01*
X0285554Y0133529D01*
X0284324Y0132299D01*
X0284324Y0130560D01*
X0285554Y0129329D01*
X0287294Y0129329D01*
X0287957Y0129993D02*
X0352210Y0129993D01*
X0352210Y0130591D02*
X0288524Y0130591D01*
X0288524Y0131190D02*
X0319621Y0131190D01*
X0319159Y0131381D02*
X0320501Y0130825D01*
X0321953Y0130825D01*
X0323295Y0131381D01*
X0324321Y0132407D01*
X0324877Y0133749D01*
X0324877Y0135201D01*
X0324321Y0136543D01*
X0323295Y0137569D01*
X0321953Y0138125D01*
X0320501Y0138125D01*
X0319159Y0137569D01*
X0318133Y0136543D01*
X0317577Y0135201D01*
X0317577Y0133749D01*
X0318133Y0132407D01*
X0319159Y0131381D01*
X0318752Y0131788D02*
X0288524Y0131788D01*
X0288436Y0132387D02*
X0318153Y0132387D01*
X0317893Y0132985D02*
X0287838Y0132985D01*
X0285010Y0132985D02*
X0243406Y0132985D01*
X0243406Y0132778D02*
X0242176Y0131548D01*
X0240436Y0131548D01*
X0239206Y0132778D01*
X0239206Y0134518D01*
X0240436Y0135748D01*
X0242176Y0135748D01*
X0243406Y0134518D01*
X0243406Y0132778D01*
X0243014Y0132387D02*
X0284411Y0132387D01*
X0284324Y0131788D02*
X0242416Y0131788D01*
X0243406Y0133584D02*
X0317645Y0133584D01*
X0317577Y0134182D02*
X0243406Y0134182D01*
X0243143Y0134781D02*
X0317577Y0134781D01*
X0317651Y0135379D02*
X0242545Y0135379D01*
X0240067Y0135379D02*
X0127190Y0135379D01*
X0127264Y0135306D02*
X0126034Y0136536D01*
X0124294Y0136536D01*
X0123064Y0135306D01*
X0123064Y0133566D01*
X0124294Y0132336D01*
X0126034Y0132336D01*
X0127264Y0133566D01*
X0127264Y0135306D01*
X0127264Y0134781D02*
X0239468Y0134781D01*
X0239206Y0134182D02*
X0127264Y0134182D01*
X0127264Y0133584D02*
X0239206Y0133584D01*
X0239206Y0132985D02*
X0126683Y0132985D01*
X0126085Y0132387D02*
X0239597Y0132387D01*
X0240196Y0131788D02*
X0219735Y0131788D01*
X0220333Y0131190D02*
X0284324Y0131190D01*
X0284324Y0130591D02*
X0220924Y0130591D01*
X0220924Y0129993D02*
X0284891Y0129993D01*
X0285489Y0129394D02*
X0220924Y0129394D01*
X0217386Y0128197D02*
X0078524Y0128197D01*
X0078524Y0127960D02*
X0077294Y0126729D01*
X0075554Y0126729D01*
X0074324Y0127960D01*
X0074324Y0129699D01*
X0075554Y0130929D01*
X0077294Y0130929D01*
X0078524Y0129699D01*
X0078524Y0127960D01*
X0078163Y0127599D02*
X0319230Y0127599D01*
X0318590Y0127000D02*
X0077564Y0127000D01*
X0078524Y0128796D02*
X0216788Y0128796D01*
X0216724Y0129394D02*
X0078524Y0129394D01*
X0078230Y0129993D02*
X0216724Y0129993D01*
X0216724Y0130591D02*
X0077632Y0130591D01*
X0075216Y0130591D02*
X0047724Y0130591D01*
X0047724Y0129993D02*
X0074617Y0129993D01*
X0074324Y0129394D02*
X0054429Y0129394D01*
X0053894Y0129929D02*
X0055124Y0128699D01*
X0055124Y0126960D01*
X0053894Y0125729D01*
X0052154Y0125729D01*
X0050924Y0126960D01*
X0050924Y0128699D01*
X0052154Y0129929D01*
X0053894Y0129929D01*
X0055027Y0128796D02*
X0074324Y0128796D01*
X0074324Y0128197D02*
X0055124Y0128197D01*
X0055124Y0127599D02*
X0074685Y0127599D01*
X0075283Y0127000D02*
X0055124Y0127000D01*
X0054566Y0126402D02*
X0318074Y0126402D01*
X0317826Y0125803D02*
X0122420Y0125803D01*
X0122294Y0125929D02*
X0120554Y0125929D01*
X0119324Y0124699D01*
X0119324Y0122960D01*
X0120554Y0121729D01*
X0122294Y0121729D01*
X0123524Y0122960D01*
X0123524Y0124699D01*
X0122294Y0125929D01*
X0123019Y0125205D02*
X0317578Y0125205D01*
X0317577Y0124606D02*
X0123524Y0124606D01*
X0123524Y0124008D02*
X0317577Y0124008D01*
X0317718Y0123409D02*
X0123524Y0123409D01*
X0123375Y0122811D02*
X0317966Y0122811D01*
X0318328Y0122212D02*
X0122776Y0122212D01*
X0120071Y0122212D02*
X0047724Y0122212D01*
X0047724Y0121614D02*
X0318927Y0121614D01*
X0320042Y0121015D02*
X0047724Y0121015D01*
X0047724Y0122811D02*
X0119473Y0122811D01*
X0119324Y0123409D02*
X0047724Y0123409D01*
X0047724Y0124008D02*
X0119324Y0124008D01*
X0119324Y0124606D02*
X0047724Y0124606D01*
X0047724Y0125205D02*
X0119829Y0125205D01*
X0120428Y0125803D02*
X0053967Y0125803D01*
X0052080Y0125803D02*
X0047724Y0125803D01*
X0047724Y0126402D02*
X0051482Y0126402D01*
X0050924Y0127000D02*
X0047724Y0127000D01*
X0047724Y0127599D02*
X0050924Y0127599D01*
X0050924Y0128197D02*
X0047724Y0128197D01*
X0047724Y0128796D02*
X0051020Y0128796D01*
X0051619Y0129394D02*
X0047724Y0129394D01*
X0047724Y0131190D02*
X0217314Y0131190D01*
X0217913Y0131788D02*
X0047724Y0131788D01*
X0047724Y0132387D02*
X0124243Y0132387D01*
X0123645Y0132985D02*
X0063550Y0132985D01*
X0063494Y0132929D02*
X0064724Y0134160D01*
X0064724Y0135899D01*
X0063494Y0137129D01*
X0061754Y0137129D01*
X0060524Y0135899D01*
X0060524Y0134160D01*
X0061754Y0132929D01*
X0063494Y0132929D01*
X0064148Y0133584D02*
X0083282Y0133584D01*
X0083349Y0133517D02*
X0085089Y0133517D01*
X0086319Y0134747D01*
X0086319Y0136487D01*
X0085089Y0137717D01*
X0083349Y0137717D01*
X0082119Y0136487D01*
X0082119Y0134747D01*
X0083349Y0133517D01*
X0082684Y0134182D02*
X0064724Y0134182D01*
X0064724Y0134781D02*
X0082119Y0134781D01*
X0082119Y0135379D02*
X0064724Y0135379D01*
X0064645Y0135978D02*
X0082119Y0135978D01*
X0082209Y0136576D02*
X0064047Y0136576D01*
X0061201Y0136576D02*
X0053959Y0136576D01*
X0053947Y0136565D02*
X0054645Y0137263D01*
X0055023Y0138174D01*
X0055023Y0139161D01*
X0054645Y0140073D01*
X0053947Y0140771D01*
X0053036Y0141149D01*
X0052048Y0141149D01*
X0051137Y0140771D01*
X0050439Y0140073D01*
X0050061Y0139161D01*
X0050061Y0138174D01*
X0050439Y0137263D01*
X0051137Y0136565D01*
X0052048Y0136187D01*
X0053036Y0136187D01*
X0053947Y0136565D01*
X0054558Y0137175D02*
X0082807Y0137175D01*
X0085631Y0137175D02*
X0096799Y0137175D01*
X0096324Y0136699D02*
X0096324Y0134960D01*
X0097554Y0133729D01*
X0099294Y0133729D01*
X0100524Y0134960D01*
X0100524Y0136699D01*
X0099294Y0137929D01*
X0097554Y0137929D01*
X0096324Y0136699D01*
X0096324Y0136576D02*
X0086229Y0136576D01*
X0086319Y0135978D02*
X0096324Y0135978D01*
X0096324Y0135379D02*
X0086319Y0135379D01*
X0086319Y0134781D02*
X0096503Y0134781D01*
X0097101Y0134182D02*
X0085754Y0134182D01*
X0085156Y0133584D02*
X0123064Y0133584D01*
X0123064Y0134182D02*
X0099747Y0134182D01*
X0100345Y0134781D02*
X0123064Y0134781D01*
X0123138Y0135379D02*
X0100524Y0135379D01*
X0100524Y0135978D02*
X0123736Y0135978D01*
X0126592Y0135978D02*
X0317899Y0135978D01*
X0318166Y0136576D02*
X0100524Y0136576D01*
X0100048Y0137175D02*
X0318765Y0137175D01*
X0319652Y0137773D02*
X0220054Y0137773D01*
X0219735Y0137454D02*
X0220965Y0138684D01*
X0220965Y0140424D01*
X0219735Y0141654D01*
X0217995Y0141654D01*
X0216765Y0140424D01*
X0216765Y0138684D01*
X0217995Y0137454D01*
X0219735Y0137454D01*
X0220653Y0138372D02*
X0352210Y0138372D01*
X0352210Y0138970D02*
X0220965Y0138970D01*
X0220965Y0139569D02*
X0240289Y0139569D01*
X0240436Y0139422D02*
X0242176Y0139422D01*
X0243406Y0140652D01*
X0243406Y0142392D01*
X0242176Y0143622D01*
X0240436Y0143622D01*
X0239206Y0142392D01*
X0239206Y0140652D01*
X0240436Y0139422D01*
X0239691Y0140167D02*
X0220965Y0140167D01*
X0220623Y0140766D02*
X0239206Y0140766D01*
X0239206Y0141364D02*
X0220024Y0141364D01*
X0217706Y0141364D02*
X0146402Y0141364D01*
X0146113Y0141654D02*
X0144373Y0141654D01*
X0143143Y0140424D01*
X0143143Y0138684D01*
X0144373Y0137454D01*
X0146113Y0137454D01*
X0147343Y0138684D01*
X0147343Y0140424D01*
X0146113Y0141654D01*
X0147001Y0140766D02*
X0217107Y0140766D01*
X0216765Y0140167D02*
X0147343Y0140167D01*
X0147343Y0139569D02*
X0216765Y0139569D01*
X0216765Y0138970D02*
X0147343Y0138970D01*
X0147031Y0138372D02*
X0217077Y0138372D01*
X0217675Y0137773D02*
X0146432Y0137773D01*
X0144053Y0137773D02*
X0099450Y0137773D01*
X0097398Y0137773D02*
X0054857Y0137773D01*
X0055023Y0138372D02*
X0143455Y0138372D01*
X0143143Y0138970D02*
X0055023Y0138970D01*
X0054854Y0139569D02*
X0143143Y0139569D01*
X0143143Y0140167D02*
X0054551Y0140167D01*
X0053953Y0140766D02*
X0081235Y0140766D01*
X0081471Y0140529D02*
X0083377Y0140529D01*
X0084724Y0141877D01*
X0084724Y0143782D01*
X0083377Y0145129D01*
X0081471Y0145129D01*
X0080124Y0143782D01*
X0080124Y0141877D01*
X0081471Y0140529D01*
X0080636Y0141364D02*
X0047724Y0141364D01*
X0047724Y0140766D02*
X0051131Y0140766D01*
X0050533Y0140167D02*
X0047724Y0140167D01*
X0047724Y0139569D02*
X0050230Y0139569D01*
X0050061Y0138970D02*
X0047724Y0138970D01*
X0047724Y0138372D02*
X0050061Y0138372D01*
X0050227Y0137773D02*
X0047724Y0137773D01*
X0047724Y0137175D02*
X0050526Y0137175D01*
X0051125Y0136576D02*
X0047724Y0136576D01*
X0047724Y0135978D02*
X0060602Y0135978D01*
X0060524Y0135379D02*
X0047724Y0135379D01*
X0047724Y0134781D02*
X0060524Y0134781D01*
X0060524Y0134182D02*
X0047724Y0134182D01*
X0047724Y0133584D02*
X0061100Y0133584D01*
X0061698Y0132985D02*
X0047724Y0132985D01*
X0047724Y0141963D02*
X0080124Y0141963D01*
X0080124Y0142561D02*
X0047724Y0142561D01*
X0047724Y0143160D02*
X0080124Y0143160D01*
X0080124Y0143758D02*
X0047724Y0143758D01*
X0047724Y0144357D02*
X0080699Y0144357D01*
X0081297Y0144955D02*
X0047724Y0144955D01*
X0047724Y0145554D02*
X0051005Y0145554D01*
X0051137Y0145423D02*
X0052048Y0145045D01*
X0053036Y0145045D01*
X0053947Y0145423D01*
X0054645Y0146121D01*
X0055023Y0147033D01*
X0055023Y0148020D01*
X0054645Y0148932D01*
X0053947Y0149630D01*
X0053036Y0150007D01*
X0052048Y0150007D01*
X0051137Y0149630D01*
X0050439Y0148932D01*
X0050061Y0148020D01*
X0050061Y0147033D01*
X0050439Y0146121D01*
X0051137Y0145423D01*
X0050425Y0146152D02*
X0047724Y0146152D01*
X0047724Y0146751D02*
X0050178Y0146751D01*
X0050061Y0147350D02*
X0047724Y0147350D01*
X0047724Y0147948D02*
X0050061Y0147948D01*
X0050279Y0148547D02*
X0047724Y0148547D01*
X0047724Y0149145D02*
X0050652Y0149145D01*
X0051412Y0149744D02*
X0047724Y0149744D01*
X0047724Y0150342D02*
X0243567Y0150342D01*
X0243524Y0150299D02*
X0243524Y0148560D01*
X0244754Y0147329D01*
X0246494Y0147329D01*
X0247724Y0148560D01*
X0247724Y0150299D01*
X0246494Y0151529D01*
X0244754Y0151529D01*
X0243524Y0150299D01*
X0243524Y0149744D02*
X0053672Y0149744D01*
X0054432Y0149145D02*
X0243524Y0149145D01*
X0243537Y0148547D02*
X0054805Y0148547D01*
X0055023Y0147948D02*
X0244135Y0147948D01*
X0244734Y0147350D02*
X0091881Y0147350D01*
X0091865Y0147366D02*
X0089959Y0147366D01*
X0088612Y0146018D01*
X0088612Y0144113D01*
X0089959Y0142766D01*
X0091865Y0142766D01*
X0093212Y0144113D01*
X0093212Y0146018D01*
X0091865Y0147366D01*
X0092479Y0146751D02*
X0251424Y0146751D01*
X0251424Y0146152D02*
X0093078Y0146152D01*
X0093212Y0145554D02*
X0251424Y0145554D01*
X0251424Y0144955D02*
X0093212Y0144955D01*
X0093212Y0144357D02*
X0251424Y0144357D01*
X0251424Y0143758D02*
X0092858Y0143758D01*
X0092259Y0143160D02*
X0239974Y0143160D01*
X0239375Y0142561D02*
X0084724Y0142561D01*
X0084724Y0141963D02*
X0239206Y0141963D01*
X0242638Y0143160D02*
X0251424Y0143160D01*
X0251424Y0142561D02*
X0243236Y0142561D01*
X0243406Y0141963D02*
X0251424Y0141963D01*
X0251424Y0147350D02*
X0246514Y0147350D01*
X0247112Y0147948D02*
X0251424Y0147948D01*
X0251424Y0148547D02*
X0247711Y0148547D01*
X0247724Y0149145D02*
X0251424Y0149145D01*
X0251424Y0149744D02*
X0247724Y0149744D01*
X0247681Y0150342D02*
X0251424Y0150342D01*
X0251424Y0150941D02*
X0247083Y0150941D01*
X0244165Y0150941D02*
X0047724Y0150941D01*
X0047724Y0151539D02*
X0251424Y0151539D01*
X0251424Y0152138D02*
X0125702Y0152138D01*
X0125294Y0151729D02*
X0126524Y0152960D01*
X0126524Y0154699D01*
X0125294Y0155929D01*
X0123554Y0155929D01*
X0122324Y0154699D01*
X0122324Y0152960D01*
X0123554Y0151729D01*
X0125294Y0151729D01*
X0126300Y0152736D02*
X0251424Y0152736D01*
X0251424Y0153335D02*
X0126524Y0153335D01*
X0126524Y0153933D02*
X0251424Y0153933D01*
X0251424Y0154532D02*
X0126524Y0154532D01*
X0126093Y0155130D02*
X0251424Y0155130D01*
X0251424Y0155729D02*
X0125494Y0155729D01*
X0123353Y0155729D02*
X0104293Y0155729D01*
X0104524Y0155960D02*
X0103294Y0154729D01*
X0101554Y0154729D01*
X0100324Y0155960D01*
X0100324Y0157699D01*
X0101554Y0158929D01*
X0103294Y0158929D01*
X0104524Y0157699D01*
X0104524Y0155960D01*
X0104524Y0156327D02*
X0251424Y0156327D01*
X0251424Y0156926D02*
X0104524Y0156926D01*
X0104524Y0157524D02*
X0143988Y0157524D01*
X0144373Y0157139D02*
X0146113Y0157139D01*
X0147343Y0158369D01*
X0147343Y0160109D01*
X0146113Y0161339D01*
X0144373Y0161339D01*
X0143143Y0160109D01*
X0143143Y0158369D01*
X0144373Y0157139D01*
X0143389Y0158123D02*
X0104100Y0158123D01*
X0103502Y0158721D02*
X0143143Y0158721D01*
X0143143Y0159320D02*
X0047724Y0159320D01*
X0047724Y0159918D02*
X0143143Y0159918D01*
X0143551Y0160517D02*
X0047724Y0160517D01*
X0047724Y0161115D02*
X0144149Y0161115D01*
X0146336Y0161115D02*
X0217378Y0161115D01*
X0217601Y0161339D02*
X0216371Y0160109D01*
X0216371Y0158369D01*
X0217601Y0157139D01*
X0219341Y0157139D01*
X0220571Y0158369D01*
X0220571Y0160109D01*
X0219341Y0161339D01*
X0217601Y0161339D01*
X0216779Y0160517D02*
X0146935Y0160517D01*
X0147343Y0159918D02*
X0216371Y0159918D01*
X0216371Y0159320D02*
X0147343Y0159320D01*
X0147343Y0158721D02*
X0216371Y0158721D01*
X0216617Y0158123D02*
X0147097Y0158123D01*
X0146498Y0157524D02*
X0217216Y0157524D01*
X0219726Y0157524D02*
X0251424Y0157524D01*
X0251424Y0158123D02*
X0220325Y0158123D01*
X0220571Y0158721D02*
X0251424Y0158721D01*
X0251424Y0159320D02*
X0241994Y0159320D01*
X0241782Y0159107D02*
X0243012Y0160337D01*
X0243012Y0162077D01*
X0241782Y0163307D01*
X0240042Y0163307D01*
X0238812Y0162077D01*
X0238812Y0160337D01*
X0240042Y0159107D01*
X0241782Y0159107D01*
X0242593Y0159918D02*
X0251424Y0159918D01*
X0251424Y0160517D02*
X0243012Y0160517D01*
X0243012Y0161115D02*
X0251424Y0161115D01*
X0251424Y0161714D02*
X0243012Y0161714D01*
X0242777Y0162312D02*
X0251424Y0162312D01*
X0251424Y0162911D02*
X0242178Y0162911D01*
X0239646Y0162911D02*
X0102475Y0162911D01*
X0102294Y0162729D02*
X0103524Y0163960D01*
X0103524Y0165699D01*
X0102294Y0166929D01*
X0100554Y0166929D01*
X0099324Y0165699D01*
X0099324Y0163960D01*
X0100554Y0162729D01*
X0102294Y0162729D01*
X0103074Y0163509D02*
X0251424Y0163509D01*
X0251424Y0164108D02*
X0103524Y0164108D01*
X0103524Y0164706D02*
X0251424Y0164706D01*
X0251424Y0165305D02*
X0103524Y0165305D01*
X0103320Y0165903D02*
X0251424Y0165903D01*
X0251424Y0166502D02*
X0102721Y0166502D01*
X0100127Y0166502D02*
X0085218Y0166502D01*
X0085218Y0166053D02*
X0085218Y0168173D01*
X0084406Y0170132D01*
X0082907Y0171631D01*
X0080948Y0172442D01*
X0078828Y0172442D01*
X0076870Y0171631D01*
X0075371Y0170132D01*
X0074559Y0168173D01*
X0074559Y0166053D01*
X0075371Y0164094D01*
X0076870Y0162595D01*
X0078828Y0161784D01*
X0080948Y0161784D01*
X0082907Y0162595D01*
X0084406Y0164094D01*
X0085218Y0166053D01*
X0085156Y0165903D02*
X0099528Y0165903D01*
X0099324Y0165305D02*
X0084908Y0165305D01*
X0084660Y0164706D02*
X0099324Y0164706D01*
X0099324Y0164108D02*
X0084412Y0164108D01*
X0083821Y0163509D02*
X0099774Y0163509D01*
X0100373Y0162911D02*
X0083223Y0162911D01*
X0082225Y0162312D02*
X0239047Y0162312D01*
X0238812Y0161714D02*
X0047724Y0161714D01*
X0047724Y0162312D02*
X0077552Y0162312D01*
X0076554Y0162911D02*
X0047724Y0162911D01*
X0047724Y0163509D02*
X0075955Y0163509D01*
X0075365Y0164108D02*
X0047724Y0164108D01*
X0047724Y0164706D02*
X0075117Y0164706D01*
X0074869Y0165305D02*
X0047724Y0165305D01*
X0047724Y0165903D02*
X0074621Y0165903D01*
X0074559Y0166502D02*
X0047724Y0166502D01*
X0047724Y0167100D02*
X0074559Y0167100D01*
X0074559Y0167699D02*
X0047724Y0167699D01*
X0047724Y0168297D02*
X0074611Y0168297D01*
X0074859Y0168896D02*
X0047724Y0168896D01*
X0047724Y0169494D02*
X0075107Y0169494D01*
X0075355Y0170093D02*
X0047724Y0170093D01*
X0047724Y0170691D02*
X0075931Y0170691D01*
X0076529Y0171290D02*
X0047724Y0171290D01*
X0047724Y0171888D02*
X0077492Y0171888D01*
X0082285Y0171888D02*
X0251424Y0171888D01*
X0251424Y0171290D02*
X0083248Y0171290D01*
X0083846Y0170691D02*
X0251424Y0170691D01*
X0251424Y0170093D02*
X0084422Y0170093D01*
X0084670Y0169494D02*
X0251424Y0169494D01*
X0251424Y0168896D02*
X0084918Y0168896D01*
X0085166Y0168297D02*
X0251424Y0168297D01*
X0251424Y0167699D02*
X0085218Y0167699D01*
X0085218Y0167100D02*
X0251424Y0167100D01*
X0251424Y0172487D02*
X0047724Y0172487D01*
X0047724Y0173086D02*
X0251424Y0173086D01*
X0251424Y0173684D02*
X0047724Y0173684D01*
X0047724Y0174283D02*
X0251424Y0174283D01*
X0251424Y0174881D02*
X0047724Y0174881D01*
X0047724Y0175480D02*
X0251424Y0175480D01*
X0251424Y0176078D02*
X0047724Y0176078D01*
X0047724Y0176677D02*
X0251424Y0176677D01*
X0251424Y0177275D02*
X0047724Y0177275D01*
X0047724Y0177874D02*
X0098410Y0177874D01*
X0098554Y0177729D02*
X0100294Y0177729D01*
X0101524Y0178960D01*
X0101524Y0180699D01*
X0100294Y0181929D01*
X0098554Y0181929D01*
X0097324Y0180699D01*
X0097324Y0178960D01*
X0098554Y0177729D01*
X0097811Y0178472D02*
X0065836Y0178472D01*
X0065294Y0177929D02*
X0066524Y0179160D01*
X0066524Y0180899D01*
X0065294Y0182129D01*
X0063554Y0182129D01*
X0062324Y0180899D01*
X0062324Y0179160D01*
X0063554Y0177929D01*
X0065294Y0177929D01*
X0066435Y0179071D02*
X0097324Y0179071D01*
X0097324Y0179669D02*
X0066524Y0179669D01*
X0066524Y0180268D02*
X0097324Y0180268D01*
X0097491Y0180866D02*
X0082345Y0180866D01*
X0082907Y0181099D02*
X0084406Y0182598D01*
X0085218Y0184557D01*
X0085218Y0186677D01*
X0084406Y0188635D01*
X0082907Y0190135D01*
X0080948Y0190946D01*
X0078828Y0190946D01*
X0076870Y0190135D01*
X0075371Y0188635D01*
X0074559Y0186677D01*
X0074559Y0184557D01*
X0075371Y0182598D01*
X0076870Y0181099D01*
X0078828Y0180288D01*
X0080948Y0180288D01*
X0082907Y0181099D01*
X0083273Y0181465D02*
X0098089Y0181465D01*
X0100758Y0181465D02*
X0157219Y0181465D01*
X0157754Y0180929D02*
X0159494Y0180929D01*
X0160124Y0181560D01*
X0160754Y0180929D01*
X0162494Y0180929D01*
X0163724Y0182160D01*
X0163724Y0183899D01*
X0162494Y0185129D01*
X0160754Y0185129D01*
X0160124Y0184499D01*
X0159494Y0185129D01*
X0157754Y0185129D01*
X0156524Y0183899D01*
X0156524Y0182160D01*
X0157754Y0180929D01*
X0156620Y0182063D02*
X0150628Y0182063D01*
X0150294Y0181729D02*
X0151524Y0182960D01*
X0151524Y0184699D01*
X0150294Y0185929D01*
X0148554Y0185929D01*
X0147324Y0184699D01*
X0147324Y0182960D01*
X0148554Y0181729D01*
X0150294Y0181729D01*
X0151226Y0182662D02*
X0156524Y0182662D01*
X0156524Y0183260D02*
X0151524Y0183260D01*
X0151524Y0183859D02*
X0156524Y0183859D01*
X0157082Y0184457D02*
X0151524Y0184457D01*
X0151167Y0185056D02*
X0157680Y0185056D01*
X0159567Y0185056D02*
X0160680Y0185056D01*
X0162567Y0185056D02*
X0251424Y0185056D01*
X0251424Y0185654D02*
X0150569Y0185654D01*
X0148279Y0185654D02*
X0085218Y0185654D01*
X0085218Y0185056D02*
X0147680Y0185056D01*
X0147324Y0184457D02*
X0085176Y0184457D01*
X0084928Y0183859D02*
X0147324Y0183859D01*
X0147324Y0183260D02*
X0084681Y0183260D01*
X0084433Y0182662D02*
X0147622Y0182662D01*
X0148220Y0182063D02*
X0083871Y0182063D01*
X0085218Y0186253D02*
X0251424Y0186253D01*
X0251424Y0186851D02*
X0085145Y0186851D01*
X0084897Y0187450D02*
X0251424Y0187450D01*
X0251424Y0188048D02*
X0084649Y0188048D01*
X0084395Y0188647D02*
X0251424Y0188647D01*
X0251424Y0189245D02*
X0083796Y0189245D01*
X0083198Y0189844D02*
X0251424Y0189844D01*
X0251424Y0190442D02*
X0133007Y0190442D01*
X0132894Y0190329D02*
X0134124Y0191560D01*
X0134124Y0193299D01*
X0132894Y0194529D01*
X0131154Y0194529D01*
X0129924Y0193299D01*
X0129924Y0191560D01*
X0131154Y0190329D01*
X0132894Y0190329D01*
X0133605Y0191041D02*
X0251424Y0191041D01*
X0251424Y0191639D02*
X0134124Y0191639D01*
X0134124Y0192238D02*
X0251424Y0192238D01*
X0251424Y0192836D02*
X0134124Y0192836D01*
X0133988Y0193435D02*
X0251424Y0193435D01*
X0251424Y0194033D02*
X0133390Y0194033D01*
X0130658Y0194033D02*
X0047724Y0194033D01*
X0047724Y0193435D02*
X0130060Y0193435D01*
X0129924Y0192836D02*
X0047724Y0192836D01*
X0047724Y0192238D02*
X0129924Y0192238D01*
X0129924Y0191639D02*
X0047724Y0191639D01*
X0047724Y0191041D02*
X0130443Y0191041D01*
X0131041Y0190442D02*
X0082164Y0190442D01*
X0077613Y0190442D02*
X0047724Y0190442D01*
X0047724Y0189844D02*
X0076579Y0189844D01*
X0075980Y0189245D02*
X0047724Y0189245D01*
X0047724Y0188647D02*
X0075382Y0188647D01*
X0075127Y0188048D02*
X0047724Y0188048D01*
X0047724Y0187450D02*
X0074879Y0187450D01*
X0074632Y0186851D02*
X0047724Y0186851D01*
X0047724Y0186253D02*
X0074559Y0186253D01*
X0074559Y0185654D02*
X0047724Y0185654D01*
X0047724Y0185056D02*
X0074559Y0185056D01*
X0074601Y0184457D02*
X0047724Y0184457D01*
X0047724Y0183859D02*
X0074848Y0183859D01*
X0075096Y0183260D02*
X0047724Y0183260D01*
X0047724Y0182662D02*
X0075344Y0182662D01*
X0075906Y0182063D02*
X0065360Y0182063D01*
X0065958Y0181465D02*
X0076504Y0181465D01*
X0077432Y0180866D02*
X0066524Y0180866D01*
X0063488Y0182063D02*
X0047724Y0182063D01*
X0047724Y0181465D02*
X0062889Y0181465D01*
X0062324Y0180866D02*
X0047724Y0180866D01*
X0047724Y0180268D02*
X0062324Y0180268D01*
X0062324Y0179669D02*
X0047724Y0179669D01*
X0047724Y0179071D02*
X0062413Y0179071D01*
X0063011Y0178472D02*
X0047724Y0178472D01*
X0047724Y0194632D02*
X0251424Y0194632D01*
X0251424Y0195230D02*
X0047724Y0195230D01*
X0047724Y0195829D02*
X0251424Y0195829D01*
X0251424Y0196427D02*
X0047724Y0196427D01*
X0047724Y0197026D02*
X0251424Y0197026D01*
X0251424Y0197624D02*
X0047724Y0197624D01*
X0047724Y0198223D02*
X0251424Y0198223D01*
X0251424Y0198821D02*
X0081021Y0198821D01*
X0080948Y0198792D02*
X0082907Y0199603D01*
X0084406Y0201102D01*
X0085218Y0203061D01*
X0085218Y0205181D01*
X0084406Y0207139D01*
X0082907Y0208639D01*
X0080948Y0209450D01*
X0078828Y0209450D01*
X0076870Y0208639D01*
X0075371Y0207139D01*
X0074559Y0205181D01*
X0074559Y0203061D01*
X0075371Y0201102D01*
X0076870Y0199603D01*
X0078828Y0198792D01*
X0080948Y0198792D01*
X0082466Y0199420D02*
X0251424Y0199420D01*
X0251424Y0200019D02*
X0199622Y0200019D01*
X0199262Y0199659D02*
X0200492Y0200889D01*
X0200492Y0202628D01*
X0199262Y0203859D01*
X0197523Y0203859D01*
X0196292Y0202628D01*
X0196292Y0200889D01*
X0197523Y0199659D01*
X0199262Y0199659D01*
X0200221Y0200617D02*
X0251424Y0200617D01*
X0251424Y0201216D02*
X0200492Y0201216D01*
X0200492Y0201814D02*
X0251424Y0201814D01*
X0251424Y0202413D02*
X0200492Y0202413D01*
X0200110Y0203011D02*
X0251424Y0203011D01*
X0251424Y0203610D02*
X0199511Y0203610D01*
X0197274Y0203610D02*
X0174867Y0203610D01*
X0174459Y0203202D02*
X0175689Y0204432D01*
X0175689Y0206172D01*
X0174459Y0207402D01*
X0172719Y0207402D01*
X0171489Y0206172D01*
X0171489Y0204432D01*
X0172719Y0203202D01*
X0174459Y0203202D01*
X0175465Y0204208D02*
X0251424Y0204208D01*
X0251424Y0204807D02*
X0175689Y0204807D01*
X0175689Y0205405D02*
X0251424Y0205405D01*
X0251424Y0206004D02*
X0175689Y0206004D01*
X0175259Y0206602D02*
X0251424Y0206602D01*
X0251424Y0207201D02*
X0174660Y0207201D01*
X0172518Y0207201D02*
X0153022Y0207201D01*
X0153524Y0206699D02*
X0152294Y0207929D01*
X0150554Y0207929D01*
X0149324Y0206699D01*
X0149324Y0204960D01*
X0150554Y0203729D01*
X0152294Y0203729D01*
X0153524Y0204960D01*
X0153524Y0206699D01*
X0153524Y0206602D02*
X0171920Y0206602D01*
X0171489Y0206004D02*
X0153524Y0206004D01*
X0153524Y0205405D02*
X0171489Y0205405D01*
X0171489Y0204807D02*
X0153371Y0204807D01*
X0152772Y0204208D02*
X0171713Y0204208D01*
X0172312Y0203610D02*
X0085218Y0203610D01*
X0085218Y0204208D02*
X0150075Y0204208D01*
X0149477Y0204807D02*
X0085218Y0204807D01*
X0085125Y0205405D02*
X0115878Y0205405D01*
X0116354Y0204929D02*
X0118094Y0204929D01*
X0119324Y0206160D01*
X0119324Y0207899D01*
X0118094Y0209129D01*
X0116354Y0209129D01*
X0115124Y0207899D01*
X0115124Y0206160D01*
X0116354Y0204929D01*
X0115280Y0206004D02*
X0084877Y0206004D01*
X0084629Y0206602D02*
X0115124Y0206602D01*
X0115124Y0207201D02*
X0084345Y0207201D01*
X0083747Y0207799D02*
X0115124Y0207799D01*
X0115622Y0208398D02*
X0083148Y0208398D01*
X0082044Y0208996D02*
X0116221Y0208996D01*
X0118227Y0208996D02*
X0251424Y0208996D01*
X0251424Y0208398D02*
X0118825Y0208398D01*
X0119324Y0207799D02*
X0150424Y0207799D01*
X0149825Y0207201D02*
X0119324Y0207201D01*
X0119324Y0206602D02*
X0149324Y0206602D01*
X0149324Y0206004D02*
X0119168Y0206004D01*
X0118569Y0205405D02*
X0149324Y0205405D01*
X0152424Y0207799D02*
X0251424Y0207799D01*
X0251424Y0209595D02*
X0047724Y0209595D01*
X0047724Y0210193D02*
X0251424Y0210193D01*
X0251424Y0210792D02*
X0047724Y0210792D01*
X0047724Y0211390D02*
X0251424Y0211390D01*
X0251424Y0211989D02*
X0047724Y0211989D01*
X0047724Y0212587D02*
X0251424Y0212587D01*
X0251424Y0213186D02*
X0047724Y0213186D01*
X0047724Y0213784D02*
X0251424Y0213784D01*
X0251424Y0214383D02*
X0047724Y0214383D01*
X0047724Y0214981D02*
X0251424Y0214981D01*
X0251424Y0215580D02*
X0047724Y0215580D01*
X0047724Y0216178D02*
X0251424Y0216178D01*
X0251424Y0216777D02*
X0068753Y0216777D01*
X0068094Y0216600D02*
X0071929Y0217628D01*
X0075368Y0219613D01*
X0078176Y0222421D01*
X0080161Y0225859D01*
X0081188Y0229695D01*
X0081188Y0233665D01*
X0080161Y0237500D01*
X0078176Y0240939D01*
X0075368Y0243746D01*
X0071929Y0245732D01*
X0068094Y0246759D01*
X0064124Y0246759D01*
X0060288Y0245732D01*
X0056850Y0243746D01*
X0054042Y0240939D01*
X0052057Y0237500D01*
X0051029Y0233665D01*
X0051029Y0229695D01*
X0052057Y0225859D01*
X0054042Y0222421D01*
X0056850Y0219613D01*
X0060288Y0217628D01*
X0064124Y0216600D01*
X0068094Y0216600D01*
X0070987Y0217375D02*
X0251424Y0217375D01*
X0251424Y0217974D02*
X0072529Y0217974D01*
X0073565Y0218572D02*
X0251424Y0218572D01*
X0251424Y0219171D02*
X0074602Y0219171D01*
X0075524Y0219769D02*
X0251424Y0219769D01*
X0251424Y0220368D02*
X0076123Y0220368D01*
X0076721Y0220966D02*
X0251424Y0220966D01*
X0251424Y0221565D02*
X0077320Y0221565D01*
X0077918Y0222163D02*
X0251424Y0222163D01*
X0251424Y0222762D02*
X0078373Y0222762D01*
X0078718Y0223360D02*
X0251424Y0223360D01*
X0251424Y0223959D02*
X0079064Y0223959D01*
X0079409Y0224557D02*
X0251424Y0224557D01*
X0251424Y0225156D02*
X0079755Y0225156D01*
X0080100Y0225755D02*
X0251424Y0225755D01*
X0251424Y0226353D02*
X0080293Y0226353D01*
X0080453Y0226952D02*
X0251424Y0226952D01*
X0251424Y0227550D02*
X0080614Y0227550D01*
X0080774Y0228149D02*
X0251424Y0228149D01*
X0251424Y0228747D02*
X0080935Y0228747D01*
X0081095Y0229346D02*
X0251424Y0229346D01*
X0251424Y0229944D02*
X0081188Y0229944D01*
X0081188Y0230543D02*
X0251424Y0230543D01*
X0251424Y0231141D02*
X0081188Y0231141D01*
X0081188Y0231740D02*
X0251424Y0231740D01*
X0251424Y0232338D02*
X0081188Y0232338D01*
X0081188Y0232937D02*
X0251424Y0232937D01*
X0251424Y0233535D02*
X0081188Y0233535D01*
X0081063Y0234134D02*
X0251424Y0234134D01*
X0251424Y0234732D02*
X0080903Y0234732D01*
X0080742Y0235331D02*
X0251424Y0235331D01*
X0251424Y0235929D02*
X0080582Y0235929D01*
X0080421Y0236528D02*
X0251424Y0236528D01*
X0251424Y0237126D02*
X0080261Y0237126D01*
X0080031Y0237725D02*
X0251424Y0237725D01*
X0251424Y0238323D02*
X0079686Y0238323D01*
X0079340Y0238922D02*
X0251424Y0238922D01*
X0251424Y0239520D02*
X0078995Y0239520D01*
X0078649Y0240119D02*
X0251424Y0240119D01*
X0251424Y0240717D02*
X0078303Y0240717D01*
X0077799Y0241316D02*
X0251424Y0241316D01*
X0251424Y0241914D02*
X0077200Y0241914D01*
X0076602Y0242513D02*
X0251424Y0242513D01*
X0251424Y0243111D02*
X0076003Y0243111D01*
X0075405Y0243710D02*
X0251424Y0243710D01*
X0251424Y0244308D02*
X0074395Y0244308D01*
X0073358Y0244907D02*
X0251424Y0244907D01*
X0251424Y0245505D02*
X0072321Y0245505D01*
X0070540Y0246104D02*
X0251424Y0246104D01*
X0251424Y0246702D02*
X0068307Y0246702D01*
X0063911Y0246702D02*
X0055645Y0246702D01*
X0054894Y0246104D02*
X0061678Y0246104D01*
X0059897Y0245505D02*
X0054144Y0245505D01*
X0053393Y0244907D02*
X0058860Y0244907D01*
X0057823Y0244308D02*
X0052812Y0244308D01*
X0052335Y0243710D02*
X0056813Y0243710D01*
X0056215Y0243111D02*
X0051858Y0243111D01*
X0051380Y0242513D02*
X0055616Y0242513D01*
X0055018Y0241914D02*
X0050903Y0241914D01*
X0050472Y0241316D02*
X0054419Y0241316D01*
X0053914Y0240717D02*
X0050184Y0240717D01*
X0049895Y0240119D02*
X0053569Y0240119D01*
X0053223Y0239520D02*
X0049607Y0239520D01*
X0049319Y0238922D02*
X0052878Y0238922D01*
X0052532Y0238323D02*
X0049031Y0238323D01*
X0048749Y0237725D02*
X0052187Y0237725D01*
X0051957Y0237126D02*
X0048613Y0237126D01*
X0048476Y0236528D02*
X0051796Y0236528D01*
X0051636Y0235929D02*
X0048340Y0235929D01*
X0048203Y0235331D02*
X0051476Y0235331D01*
X0051315Y0234732D02*
X0048066Y0234732D01*
X0047930Y0234134D02*
X0051155Y0234134D01*
X0051029Y0233535D02*
X0047828Y0233535D01*
X0047794Y0232937D02*
X0051029Y0232937D01*
X0051029Y0232338D02*
X0047761Y0232338D01*
X0047727Y0231740D02*
X0051029Y0231740D01*
X0051029Y0231141D02*
X0047724Y0231141D01*
X0047724Y0230543D02*
X0051029Y0230543D01*
X0051029Y0229944D02*
X0047724Y0229944D01*
X0047724Y0229346D02*
X0051123Y0229346D01*
X0051283Y0228747D02*
X0047724Y0228747D01*
X0047724Y0228149D02*
X0051444Y0228149D01*
X0051604Y0227550D02*
X0047724Y0227550D01*
X0047724Y0226952D02*
X0051764Y0226952D01*
X0051925Y0226353D02*
X0047724Y0226353D01*
X0047724Y0225755D02*
X0052118Y0225755D01*
X0052463Y0225156D02*
X0047724Y0225156D01*
X0047724Y0224557D02*
X0052809Y0224557D01*
X0053154Y0223959D02*
X0047724Y0223959D01*
X0047724Y0223360D02*
X0053500Y0223360D01*
X0053845Y0222762D02*
X0047724Y0222762D01*
X0047724Y0222163D02*
X0054300Y0222163D01*
X0054898Y0221565D02*
X0047724Y0221565D01*
X0047724Y0220966D02*
X0055497Y0220966D01*
X0056095Y0220368D02*
X0047724Y0220368D01*
X0047724Y0219769D02*
X0056694Y0219769D01*
X0057616Y0219171D02*
X0047724Y0219171D01*
X0047724Y0218572D02*
X0058653Y0218572D01*
X0059689Y0217974D02*
X0047724Y0217974D01*
X0047724Y0217375D02*
X0061231Y0217375D01*
X0063465Y0216777D02*
X0047724Y0216777D01*
X0047724Y0208996D02*
X0077733Y0208996D01*
X0076629Y0208398D02*
X0047724Y0208398D01*
X0047724Y0207799D02*
X0076030Y0207799D01*
X0075432Y0207201D02*
X0047724Y0207201D01*
X0047724Y0206602D02*
X0075148Y0206602D01*
X0074900Y0206004D02*
X0047724Y0206004D01*
X0047724Y0205405D02*
X0074652Y0205405D01*
X0074559Y0204807D02*
X0047724Y0204807D01*
X0047724Y0204208D02*
X0074559Y0204208D01*
X0074559Y0203610D02*
X0047724Y0203610D01*
X0047724Y0203011D02*
X0074580Y0203011D01*
X0074828Y0202413D02*
X0047724Y0202413D01*
X0047724Y0201814D02*
X0075076Y0201814D01*
X0075324Y0201216D02*
X0047724Y0201216D01*
X0047724Y0200617D02*
X0075856Y0200617D01*
X0076454Y0200019D02*
X0047724Y0200019D01*
X0047724Y0199420D02*
X0077311Y0199420D01*
X0078756Y0198821D02*
X0047724Y0198821D01*
X0083323Y0200019D02*
X0197163Y0200019D01*
X0196564Y0200617D02*
X0083921Y0200617D01*
X0084453Y0201216D02*
X0196292Y0201216D01*
X0196292Y0201814D02*
X0084701Y0201814D01*
X0084949Y0202413D02*
X0196292Y0202413D01*
X0196675Y0203011D02*
X0085197Y0203011D01*
X0101357Y0180866D02*
X0174189Y0180866D01*
X0174294Y0180761D02*
X0176034Y0180761D01*
X0177264Y0181991D01*
X0177264Y0183731D01*
X0176034Y0184961D01*
X0174294Y0184961D01*
X0173064Y0183731D01*
X0173064Y0181991D01*
X0174294Y0180761D01*
X0173590Y0181465D02*
X0163029Y0181465D01*
X0163628Y0182063D02*
X0173064Y0182063D01*
X0173064Y0182662D02*
X0163724Y0182662D01*
X0163724Y0183260D02*
X0173064Y0183260D01*
X0173192Y0183859D02*
X0163724Y0183859D01*
X0163166Y0184457D02*
X0173791Y0184457D01*
X0176538Y0184457D02*
X0195082Y0184457D01*
X0195554Y0184929D02*
X0194324Y0183699D01*
X0194324Y0181960D01*
X0195554Y0180729D01*
X0197294Y0180729D01*
X0198524Y0181960D01*
X0198524Y0183699D01*
X0197294Y0184929D01*
X0195554Y0184929D01*
X0194483Y0183859D02*
X0177136Y0183859D01*
X0177264Y0183260D02*
X0194324Y0183260D01*
X0194324Y0182662D02*
X0177264Y0182662D01*
X0177264Y0182063D02*
X0194324Y0182063D01*
X0194819Y0181465D02*
X0176738Y0181465D01*
X0176139Y0180866D02*
X0195417Y0180866D01*
X0197430Y0180866D02*
X0237218Y0180866D01*
X0237218Y0180268D02*
X0101524Y0180268D01*
X0101524Y0179669D02*
X0237441Y0179669D01*
X0237218Y0179892D02*
X0238449Y0178662D01*
X0240188Y0178662D01*
X0241418Y0179892D01*
X0241418Y0181632D01*
X0240188Y0182862D01*
X0238449Y0182862D01*
X0237218Y0181632D01*
X0237218Y0179892D01*
X0238040Y0179071D02*
X0101524Y0179071D01*
X0101036Y0178472D02*
X0251424Y0178472D01*
X0251424Y0177874D02*
X0100438Y0177874D01*
X0101346Y0158721D02*
X0047724Y0158721D01*
X0047724Y0158123D02*
X0100747Y0158123D01*
X0100324Y0157524D02*
X0047724Y0157524D01*
X0047724Y0156926D02*
X0100324Y0156926D01*
X0100324Y0156327D02*
X0058396Y0156327D01*
X0057994Y0156729D02*
X0056254Y0156729D01*
X0055024Y0155499D01*
X0055024Y0153760D01*
X0056254Y0152529D01*
X0057994Y0152529D01*
X0059224Y0153760D01*
X0059224Y0155499D01*
X0057994Y0156729D01*
X0058994Y0155729D02*
X0100555Y0155729D01*
X0101153Y0155130D02*
X0059224Y0155130D01*
X0059224Y0154532D02*
X0122324Y0154532D01*
X0122324Y0153933D02*
X0059224Y0153933D01*
X0058799Y0153335D02*
X0122324Y0153335D01*
X0122547Y0152736D02*
X0058200Y0152736D01*
X0056047Y0152736D02*
X0047724Y0152736D01*
X0047724Y0152138D02*
X0123146Y0152138D01*
X0122755Y0155130D02*
X0103695Y0155130D01*
X0089943Y0147350D02*
X0055023Y0147350D01*
X0054906Y0146751D02*
X0089345Y0146751D01*
X0088746Y0146152D02*
X0054658Y0146152D01*
X0054079Y0145554D02*
X0088612Y0145554D01*
X0088612Y0144955D02*
X0083550Y0144955D01*
X0084149Y0144357D02*
X0088612Y0144357D01*
X0088967Y0143758D02*
X0084724Y0143758D01*
X0084724Y0143160D02*
X0089565Y0143160D01*
X0084212Y0141364D02*
X0144084Y0141364D01*
X0143485Y0140766D02*
X0083613Y0140766D01*
X0055449Y0153335D02*
X0047724Y0153335D01*
X0047724Y0153933D02*
X0055024Y0153933D01*
X0055024Y0154532D02*
X0047724Y0154532D01*
X0047724Y0155130D02*
X0055024Y0155130D01*
X0055253Y0155729D02*
X0047724Y0155729D01*
X0047724Y0156327D02*
X0055852Y0156327D01*
X0047724Y0118022D02*
X0109347Y0118022D01*
X0109554Y0118229D02*
X0108324Y0116999D01*
X0108324Y0115260D01*
X0109554Y0114029D01*
X0111294Y0114029D01*
X0112524Y0115260D01*
X0112524Y0116999D01*
X0111294Y0118229D01*
X0109554Y0118229D01*
X0108749Y0117424D02*
X0047724Y0117424D01*
X0047724Y0116825D02*
X0108324Y0116825D01*
X0108324Y0116227D02*
X0047724Y0116227D01*
X0047724Y0115628D02*
X0108324Y0115628D01*
X0108554Y0115030D02*
X0047724Y0115030D01*
X0047724Y0114431D02*
X0109152Y0114431D01*
X0111696Y0114431D02*
X0216765Y0114431D01*
X0216765Y0114833D02*
X0216765Y0113093D01*
X0217995Y0111863D01*
X0219735Y0111863D01*
X0220965Y0113093D01*
X0220965Y0114833D01*
X0219735Y0116063D01*
X0217995Y0116063D01*
X0216765Y0114833D01*
X0216962Y0115030D02*
X0112294Y0115030D01*
X0112524Y0115628D02*
X0217560Y0115628D01*
X0216765Y0113833D02*
X0047724Y0113833D01*
X0047724Y0113234D02*
X0216765Y0113234D01*
X0217222Y0112636D02*
X0047724Y0112636D01*
X0047724Y0112037D02*
X0175780Y0112037D01*
X0175182Y0111439D02*
X0047724Y0111439D01*
X0047724Y0110840D02*
X0053987Y0110840D01*
X0053070Y0110242D02*
X0047724Y0110242D01*
X0047724Y0109643D02*
X0052562Y0109643D01*
X0052314Y0109045D02*
X0047724Y0109045D01*
X0047724Y0108446D02*
X0052185Y0108446D01*
X0052185Y0107848D02*
X0047724Y0107848D01*
X0047724Y0107249D02*
X0052322Y0107249D01*
X0052570Y0106651D02*
X0047724Y0106651D01*
X0047724Y0106052D02*
X0053088Y0106052D01*
X0054031Y0105454D02*
X0047724Y0105454D01*
X0047724Y0096476D02*
X0171242Y0096476D01*
X0171538Y0096772D02*
X0170308Y0095542D01*
X0170308Y0093802D01*
X0171538Y0092572D01*
X0173278Y0092572D01*
X0174508Y0093802D01*
X0174508Y0095542D01*
X0173278Y0096772D01*
X0171538Y0096772D01*
X0170644Y0095878D02*
X0047724Y0095878D01*
X0047724Y0095279D02*
X0170308Y0095279D01*
X0170308Y0094681D02*
X0047724Y0094681D01*
X0047724Y0094082D02*
X0170308Y0094082D01*
X0170627Y0093484D02*
X0047724Y0093484D01*
X0047724Y0092885D02*
X0171225Y0092885D01*
X0173591Y0092885D02*
X0244124Y0092885D01*
X0244124Y0092760D02*
X0245354Y0091529D01*
X0247094Y0091529D01*
X0248324Y0092760D01*
X0248324Y0094499D01*
X0247094Y0095729D01*
X0245354Y0095729D01*
X0244124Y0094499D01*
X0244124Y0092760D01*
X0244597Y0092286D02*
X0047724Y0092286D01*
X0047724Y0091688D02*
X0245195Y0091688D01*
X0247252Y0091688D02*
X0279995Y0091688D01*
X0280154Y0091529D02*
X0281894Y0091529D01*
X0283124Y0092760D01*
X0283124Y0094499D01*
X0281894Y0095729D01*
X0280154Y0095729D01*
X0278924Y0094499D01*
X0278924Y0092760D01*
X0280154Y0091529D01*
X0279397Y0092286D02*
X0247851Y0092286D01*
X0248324Y0092885D02*
X0278924Y0092885D01*
X0278924Y0093484D02*
X0248324Y0093484D01*
X0248324Y0094082D02*
X0278924Y0094082D01*
X0279105Y0094681D02*
X0248143Y0094681D01*
X0247544Y0095279D02*
X0279704Y0095279D01*
X0282344Y0095279D02*
X0317609Y0095279D01*
X0317577Y0094681D02*
X0282943Y0094681D01*
X0283124Y0094082D02*
X0317577Y0094082D01*
X0317687Y0093484D02*
X0283124Y0093484D01*
X0283124Y0092885D02*
X0317935Y0092885D01*
X0318254Y0092286D02*
X0282651Y0092286D01*
X0282052Y0091688D02*
X0318852Y0091688D01*
X0319863Y0091089D02*
X0160434Y0091089D01*
X0161424Y0089294D02*
X0203519Y0089294D01*
X0203954Y0089729D02*
X0202724Y0088499D01*
X0202724Y0086760D01*
X0203954Y0085529D01*
X0205694Y0085529D01*
X0206624Y0086460D01*
X0207554Y0085529D01*
X0209294Y0085529D01*
X0210524Y0086760D01*
X0210524Y0088499D01*
X0209294Y0089729D01*
X0207554Y0089729D01*
X0206624Y0088799D01*
X0205694Y0089729D01*
X0203954Y0089729D01*
X0202920Y0088695D02*
X0161424Y0088695D01*
X0161161Y0088097D02*
X0202724Y0088097D01*
X0202724Y0087498D02*
X0160563Y0087498D01*
X0158085Y0087498D02*
X0141263Y0087498D01*
X0140894Y0087129D02*
X0142124Y0088360D01*
X0142124Y0090099D01*
X0140894Y0091329D01*
X0139154Y0091329D01*
X0137924Y0090099D01*
X0137924Y0088360D01*
X0139154Y0087129D01*
X0140894Y0087129D01*
X0141861Y0088097D02*
X0157487Y0088097D01*
X0157224Y0088695D02*
X0142124Y0088695D01*
X0142124Y0089294D02*
X0157224Y0089294D01*
X0157224Y0089892D02*
X0142124Y0089892D01*
X0141732Y0090491D02*
X0157616Y0090491D01*
X0158214Y0091089D02*
X0141134Y0091089D01*
X0138914Y0091089D02*
X0047724Y0091089D01*
X0047724Y0090491D02*
X0138316Y0090491D01*
X0137924Y0089892D02*
X0047724Y0089892D01*
X0047724Y0089294D02*
X0137924Y0089294D01*
X0137924Y0088695D02*
X0047724Y0088695D01*
X0047724Y0088097D02*
X0138187Y0088097D01*
X0138785Y0087498D02*
X0067282Y0087498D01*
X0067802Y0087283D02*
X0066525Y0087812D01*
X0065142Y0087812D01*
X0063865Y0087283D01*
X0062888Y0086306D01*
X0062359Y0085028D01*
X0062359Y0083646D01*
X0062888Y0082369D01*
X0063865Y0081391D01*
X0065142Y0080862D01*
X0066525Y0080862D01*
X0067802Y0081391D01*
X0068779Y0082369D01*
X0069308Y0083646D01*
X0069308Y0085028D01*
X0068779Y0086306D01*
X0067802Y0087283D01*
X0068185Y0086900D02*
X0202724Y0086900D01*
X0203182Y0086301D02*
X0068781Y0086301D01*
X0069029Y0085703D02*
X0203781Y0085703D01*
X0205867Y0085703D02*
X0207381Y0085703D01*
X0206782Y0086301D02*
X0206466Y0086301D01*
X0206129Y0089294D02*
X0207119Y0089294D01*
X0209729Y0089294D02*
X0215519Y0089294D01*
X0214920Y0088695D02*
X0210328Y0088695D01*
X0210524Y0088097D02*
X0214724Y0088097D01*
X0214724Y0087498D02*
X0210524Y0087498D01*
X0210524Y0086900D02*
X0214724Y0086900D01*
X0215182Y0086301D02*
X0210066Y0086301D01*
X0209467Y0085703D02*
X0215781Y0085703D01*
X0217867Y0085703D02*
X0219981Y0085703D01*
X0219382Y0086301D02*
X0218466Y0086301D01*
X0218924Y0086900D02*
X0218924Y0086900D01*
X0218924Y0087498D02*
X0218924Y0087498D01*
X0218924Y0088097D02*
X0218924Y0088097D01*
X0218728Y0088695D02*
X0219120Y0088695D01*
X0219719Y0089294D02*
X0218129Y0089294D01*
X0222067Y0085703D02*
X0284088Y0085703D01*
X0284088Y0085104D02*
X0069277Y0085104D01*
X0069308Y0084506D02*
X0284088Y0084506D01*
X0284534Y0083907D02*
X0155716Y0083907D01*
X0155594Y0084029D02*
X0153854Y0084029D01*
X0152624Y0082799D01*
X0152624Y0081060D01*
X0153854Y0079829D01*
X0155594Y0079829D01*
X0156824Y0081060D01*
X0156824Y0082799D01*
X0155594Y0084029D01*
X0156314Y0083309D02*
X0285132Y0083309D01*
X0287243Y0083309D02*
X0330200Y0083309D01*
X0329601Y0082710D02*
X0156824Y0082710D01*
X0156824Y0082112D02*
X0329003Y0082112D01*
X0328490Y0081513D02*
X0156824Y0081513D01*
X0156679Y0080915D02*
X0328242Y0080915D01*
X0327995Y0080316D02*
X0156081Y0080316D01*
X0153367Y0080316D02*
X0079814Y0080316D01*
X0080062Y0079718D02*
X0109142Y0079718D01*
X0109454Y0080029D02*
X0108224Y0078799D01*
X0108224Y0077060D01*
X0109454Y0075829D01*
X0111194Y0075829D01*
X0112424Y0077060D01*
X0112424Y0078799D01*
X0111194Y0080029D01*
X0109454Y0080029D01*
X0108544Y0079119D02*
X0080204Y0079119D01*
X0080204Y0079374D02*
X0080204Y0076899D01*
X0079257Y0074612D01*
X0077507Y0072862D01*
X0075220Y0071915D01*
X0072745Y0071915D01*
X0070459Y0072862D01*
X0068709Y0074612D01*
X0067762Y0076899D01*
X0067762Y0079374D01*
X0068709Y0081661D01*
X0070459Y0083411D01*
X0072745Y0084358D01*
X0075220Y0084358D01*
X0077507Y0083411D01*
X0079257Y0081661D01*
X0080204Y0079374D01*
X0080204Y0078521D02*
X0108224Y0078521D01*
X0108224Y0077922D02*
X0080204Y0077922D01*
X0080204Y0077324D02*
X0108224Y0077324D01*
X0108558Y0076725D02*
X0080132Y0076725D01*
X0079884Y0076127D02*
X0109157Y0076127D01*
X0111491Y0076127D02*
X0179051Y0076127D01*
X0179454Y0076529D02*
X0178224Y0075299D01*
X0178224Y0073560D01*
X0179454Y0072329D01*
X0181194Y0072329D01*
X0182424Y0073560D01*
X0182424Y0075299D01*
X0181194Y0076529D01*
X0179454Y0076529D01*
X0178453Y0075528D02*
X0079636Y0075528D01*
X0079388Y0074930D02*
X0178224Y0074930D01*
X0178224Y0074331D02*
X0078976Y0074331D01*
X0078377Y0073733D02*
X0178224Y0073733D01*
X0178649Y0073134D02*
X0077779Y0073134D01*
X0076718Y0072536D02*
X0179248Y0072536D01*
X0181400Y0072536D02*
X0331090Y0072536D01*
X0330030Y0073134D02*
X0181998Y0073134D01*
X0182424Y0073733D02*
X0329431Y0073733D01*
X0328833Y0074331D02*
X0182424Y0074331D01*
X0182424Y0074930D02*
X0328420Y0074930D01*
X0328172Y0075528D02*
X0182195Y0075528D01*
X0181596Y0076127D02*
X0327924Y0076127D01*
X0327676Y0076725D02*
X0112090Y0076725D01*
X0112424Y0077324D02*
X0327604Y0077324D01*
X0327604Y0077922D02*
X0112424Y0077922D01*
X0112424Y0078521D02*
X0327604Y0078521D01*
X0327604Y0079119D02*
X0112104Y0079119D01*
X0111505Y0079718D02*
X0327747Y0079718D01*
X0332535Y0071937D02*
X0075273Y0071937D01*
X0072693Y0071937D02*
X0047724Y0071937D01*
X0047724Y0072536D02*
X0071248Y0072536D01*
X0070187Y0073134D02*
X0047724Y0073134D01*
X0047724Y0073733D02*
X0069589Y0073733D01*
X0068990Y0074331D02*
X0047724Y0074331D01*
X0047724Y0074930D02*
X0068577Y0074930D01*
X0068329Y0075528D02*
X0047724Y0075528D01*
X0047724Y0076127D02*
X0068082Y0076127D01*
X0067834Y0076725D02*
X0055692Y0076725D01*
X0055662Y0076713D02*
X0056728Y0077154D01*
X0057544Y0077970D01*
X0057985Y0079036D01*
X0057985Y0080190D01*
X0057544Y0081256D01*
X0056728Y0082071D01*
X0055662Y0082513D01*
X0054508Y0082513D01*
X0053443Y0082071D01*
X0052627Y0081256D01*
X0052185Y0080190D01*
X0052185Y0079036D01*
X0052627Y0077970D01*
X0053443Y0077154D01*
X0054508Y0076713D01*
X0055662Y0076713D01*
X0054479Y0076725D02*
X0047724Y0076725D01*
X0047724Y0077324D02*
X0053273Y0077324D01*
X0052675Y0077922D02*
X0047724Y0077922D01*
X0047724Y0078521D02*
X0052399Y0078521D01*
X0052185Y0079119D02*
X0047724Y0079119D01*
X0047724Y0079718D02*
X0052185Y0079718D01*
X0052238Y0080316D02*
X0047724Y0080316D01*
X0047724Y0080915D02*
X0052486Y0080915D01*
X0052884Y0081513D02*
X0047724Y0081513D01*
X0047724Y0082112D02*
X0053540Y0082112D01*
X0056630Y0082112D02*
X0063145Y0082112D01*
X0062746Y0082710D02*
X0047724Y0082710D01*
X0047724Y0083309D02*
X0062498Y0083309D01*
X0062359Y0083907D02*
X0047724Y0083907D01*
X0047724Y0084506D02*
X0062359Y0084506D01*
X0062390Y0085104D02*
X0047724Y0085104D01*
X0047724Y0085703D02*
X0062638Y0085703D01*
X0062886Y0086301D02*
X0047724Y0086301D01*
X0047724Y0086900D02*
X0063482Y0086900D01*
X0064385Y0087498D02*
X0047724Y0087498D01*
X0057286Y0081513D02*
X0063743Y0081513D01*
X0065016Y0080915D02*
X0057685Y0080915D01*
X0057933Y0080316D02*
X0068152Y0080316D01*
X0067904Y0079718D02*
X0057985Y0079718D01*
X0057985Y0079119D02*
X0067762Y0079119D01*
X0067762Y0078521D02*
X0057772Y0078521D01*
X0057496Y0077922D02*
X0067762Y0077922D01*
X0067762Y0077324D02*
X0056897Y0077324D01*
X0066651Y0080915D02*
X0068400Y0080915D01*
X0068648Y0081513D02*
X0067923Y0081513D01*
X0068522Y0082112D02*
X0069160Y0082112D01*
X0068920Y0082710D02*
X0069759Y0082710D01*
X0069168Y0083309D02*
X0070357Y0083309D01*
X0069308Y0083907D02*
X0071658Y0083907D01*
X0076308Y0083907D02*
X0153732Y0083907D01*
X0153133Y0083309D02*
X0077609Y0083309D01*
X0078207Y0082710D02*
X0152624Y0082710D01*
X0152624Y0082112D02*
X0078806Y0082112D01*
X0079318Y0081513D02*
X0152624Y0081513D01*
X0152769Y0080915D02*
X0079566Y0080915D01*
X0066790Y0100067D02*
X0108324Y0100067D01*
X0108324Y0100666D02*
X0067981Y0100666D01*
X0068580Y0101264D02*
X0108324Y0101264D01*
X0108687Y0101863D02*
X0068944Y0101863D01*
X0069192Y0102461D02*
X0109286Y0102461D01*
X0111562Y0102461D02*
X0318110Y0102461D01*
X0317863Y0103060D02*
X0220224Y0103060D01*
X0219694Y0102529D02*
X0220924Y0103760D01*
X0220924Y0105499D01*
X0219694Y0106729D01*
X0217954Y0106729D01*
X0216724Y0105499D01*
X0216724Y0103760D01*
X0217954Y0102529D01*
X0219694Y0102529D01*
X0220823Y0103658D02*
X0317615Y0103658D01*
X0317577Y0104257D02*
X0220924Y0104257D01*
X0220924Y0104855D02*
X0317577Y0104855D01*
X0317682Y0105454D02*
X0220924Y0105454D01*
X0220371Y0106052D02*
X0317930Y0106052D01*
X0318241Y0106651D02*
X0219772Y0106651D01*
X0217875Y0106651D02*
X0126333Y0106651D01*
X0123995Y0106651D02*
X0067142Y0106651D01*
X0068127Y0106052D02*
X0217277Y0106052D01*
X0216724Y0105454D02*
X0068725Y0105454D01*
X0069005Y0104855D02*
X0216724Y0104855D01*
X0216724Y0104257D02*
X0069253Y0104257D01*
X0069308Y0103658D02*
X0216825Y0103658D01*
X0217424Y0103060D02*
X0069308Y0103060D01*
X0111634Y0098870D02*
X0193124Y0098870D01*
X0193124Y0099469D02*
X0112233Y0099469D01*
X0112524Y0100067D02*
X0193292Y0100067D01*
X0193890Y0100666D02*
X0112524Y0100666D01*
X0112524Y0101264D02*
X0319441Y0101264D01*
X0318678Y0101863D02*
X0112160Y0101863D01*
X0112524Y0116227D02*
X0239206Y0116227D01*
X0239206Y0116408D02*
X0239206Y0114668D01*
X0240436Y0113438D01*
X0242176Y0113438D01*
X0243406Y0114668D01*
X0243406Y0116408D01*
X0242176Y0117638D01*
X0240436Y0117638D01*
X0239206Y0116408D01*
X0239623Y0116825D02*
X0112524Y0116825D01*
X0112099Y0117424D02*
X0240222Y0117424D01*
X0239206Y0115628D02*
X0220169Y0115628D01*
X0220768Y0115030D02*
X0239206Y0115030D01*
X0239443Y0114431D02*
X0220965Y0114431D01*
X0220965Y0113833D02*
X0227358Y0113833D01*
X0227654Y0114129D02*
X0226424Y0112899D01*
X0226424Y0111160D01*
X0227654Y0109929D01*
X0229394Y0109929D01*
X0230624Y0111160D01*
X0230624Y0112899D01*
X0229394Y0114129D01*
X0227654Y0114129D01*
X0226759Y0113234D02*
X0220965Y0113234D01*
X0220507Y0112636D02*
X0226424Y0112636D01*
X0226424Y0112037D02*
X0219909Y0112037D01*
X0217821Y0112037D02*
X0177698Y0112037D01*
X0178296Y0111439D02*
X0178863Y0111439D01*
X0181584Y0111439D02*
X0181863Y0111439D01*
X0184584Y0111439D02*
X0205063Y0111439D01*
X0205554Y0111929D02*
X0204324Y0110699D01*
X0204324Y0108960D01*
X0205554Y0107729D01*
X0207294Y0107729D01*
X0208524Y0108960D01*
X0208524Y0110699D01*
X0207294Y0111929D01*
X0205554Y0111929D01*
X0204465Y0110840D02*
X0185183Y0110840D01*
X0185324Y0110242D02*
X0204324Y0110242D01*
X0204324Y0109643D02*
X0185324Y0109643D01*
X0185324Y0109045D02*
X0204324Y0109045D01*
X0204837Y0108446D02*
X0184811Y0108446D01*
X0184212Y0107848D02*
X0205436Y0107848D01*
X0207412Y0107848D02*
X0260612Y0107848D01*
X0260014Y0108446D02*
X0208011Y0108446D01*
X0208524Y0109045D02*
X0259847Y0109045D01*
X0259847Y0109643D02*
X0208524Y0109643D01*
X0208524Y0110242D02*
X0227342Y0110242D01*
X0226743Y0110840D02*
X0208383Y0110840D01*
X0207784Y0111439D02*
X0226424Y0111439D01*
X0229706Y0110242D02*
X0259847Y0110242D01*
X0260334Y0110840D02*
X0230305Y0110840D01*
X0230624Y0111439D02*
X0260933Y0111439D01*
X0262961Y0111439D02*
X0319101Y0111439D01*
X0318503Y0112037D02*
X0230624Y0112037D01*
X0230624Y0112636D02*
X0318038Y0112636D01*
X0317790Y0113234D02*
X0230289Y0113234D01*
X0229690Y0113833D02*
X0240041Y0113833D01*
X0242570Y0113833D02*
X0317577Y0113833D01*
X0317577Y0114431D02*
X0243169Y0114431D01*
X0243406Y0115030D02*
X0317577Y0115030D01*
X0317754Y0115628D02*
X0243406Y0115628D01*
X0243406Y0116227D02*
X0318002Y0116227D01*
X0318416Y0116825D02*
X0242988Y0116825D01*
X0242390Y0117424D02*
X0319014Y0117424D01*
X0320253Y0118022D02*
X0111501Y0118022D01*
X0173574Y0096476D02*
X0318105Y0096476D01*
X0317857Y0095878D02*
X0174172Y0095878D01*
X0174508Y0095279D02*
X0244904Y0095279D01*
X0244305Y0094681D02*
X0174508Y0094681D01*
X0174508Y0094082D02*
X0244124Y0094082D01*
X0244124Y0093484D02*
X0174190Y0093484D01*
X0181212Y0107848D02*
X0182236Y0107848D01*
X0242322Y0139569D02*
X0352210Y0139569D01*
X0352210Y0140167D02*
X0242921Y0140167D01*
X0243406Y0140766D02*
X0319599Y0140766D01*
X0319309Y0140886D02*
X0320046Y0140581D01*
X0320828Y0140425D01*
X0320927Y0140425D01*
X0320927Y0144175D01*
X0321527Y0144175D01*
X0321527Y0140425D01*
X0321626Y0140425D01*
X0322408Y0140581D01*
X0323145Y0140886D01*
X0323809Y0141329D01*
X0324373Y0141893D01*
X0324816Y0142557D01*
X0325121Y0143294D01*
X0325277Y0144076D01*
X0325277Y0144175D01*
X0321527Y0144175D01*
X0321527Y0144775D01*
X0325277Y0144775D01*
X0325277Y0144874D01*
X0325121Y0145656D01*
X0324816Y0146393D01*
X0324373Y0147057D01*
X0323809Y0147621D01*
X0323145Y0148064D01*
X0322408Y0148369D01*
X0321626Y0148525D01*
X0321527Y0148525D01*
X0321527Y0144775D01*
X0320927Y0144775D01*
X0320927Y0144175D01*
X0317177Y0144175D01*
X0317177Y0144076D01*
X0317333Y0143294D01*
X0317638Y0142557D01*
X0318081Y0141893D01*
X0318645Y0141329D01*
X0319309Y0140886D01*
X0318610Y0141364D02*
X0243406Y0141364D01*
X0239830Y0159320D02*
X0220571Y0159320D01*
X0220571Y0159918D02*
X0239231Y0159918D01*
X0238812Y0160517D02*
X0220163Y0160517D01*
X0219565Y0161115D02*
X0238812Y0161115D01*
X0240597Y0179071D02*
X0251424Y0179071D01*
X0251424Y0179669D02*
X0241196Y0179669D01*
X0241418Y0180268D02*
X0251424Y0180268D01*
X0251424Y0180866D02*
X0241418Y0180866D01*
X0241418Y0181465D02*
X0251424Y0181465D01*
X0251424Y0182063D02*
X0240987Y0182063D01*
X0240388Y0182662D02*
X0251424Y0182662D01*
X0251424Y0183260D02*
X0198524Y0183260D01*
X0198524Y0182662D02*
X0238249Y0182662D01*
X0237650Y0182063D02*
X0198524Y0182063D01*
X0198029Y0181465D02*
X0237218Y0181465D01*
X0251424Y0183859D02*
X0198364Y0183859D01*
X0197766Y0184457D02*
X0251424Y0184457D01*
X0312424Y0184457D02*
X0352210Y0184457D01*
X0352210Y0183859D02*
X0322653Y0183859D01*
X0323295Y0183593D02*
X0321953Y0184149D01*
X0320501Y0184149D01*
X0319159Y0183593D01*
X0318133Y0182566D01*
X0317577Y0181225D01*
X0317577Y0179773D01*
X0318133Y0178431D01*
X0319159Y0177404D01*
X0320501Y0176849D01*
X0321953Y0176849D01*
X0323295Y0177404D01*
X0324321Y0178431D01*
X0324877Y0179773D01*
X0324877Y0181225D01*
X0324321Y0182566D01*
X0323295Y0183593D01*
X0323627Y0183260D02*
X0352210Y0183260D01*
X0352210Y0182662D02*
X0324226Y0182662D01*
X0324530Y0182063D02*
X0352210Y0182063D01*
X0352210Y0181465D02*
X0324778Y0181465D01*
X0324877Y0180866D02*
X0352210Y0180866D01*
X0352210Y0180268D02*
X0324877Y0180268D01*
X0324834Y0179669D02*
X0352210Y0179669D01*
X0352210Y0179071D02*
X0324586Y0179071D01*
X0324338Y0178472D02*
X0352210Y0178472D01*
X0352210Y0177874D02*
X0323764Y0177874D01*
X0322982Y0177275D02*
X0352210Y0177275D01*
X0352210Y0176677D02*
X0312424Y0176677D01*
X0312424Y0177275D02*
X0319472Y0177275D01*
X0318690Y0177874D02*
X0312424Y0177874D01*
X0312424Y0178472D02*
X0318116Y0178472D01*
X0317868Y0179071D02*
X0312424Y0179071D01*
X0312424Y0179669D02*
X0317620Y0179669D01*
X0317577Y0180268D02*
X0312424Y0180268D01*
X0312424Y0180866D02*
X0317577Y0180866D01*
X0317676Y0181465D02*
X0312424Y0181465D01*
X0312424Y0182063D02*
X0317924Y0182063D01*
X0318228Y0182662D02*
X0312424Y0182662D01*
X0312424Y0183260D02*
X0318827Y0183260D01*
X0319801Y0183859D02*
X0312424Y0183859D01*
X0312424Y0185056D02*
X0352210Y0185056D01*
X0352210Y0185654D02*
X0312424Y0185654D01*
X0312424Y0186253D02*
X0352210Y0186253D01*
X0352210Y0186851D02*
X0321959Y0186851D01*
X0321953Y0186849D02*
X0323295Y0187404D01*
X0324321Y0188431D01*
X0324877Y0189773D01*
X0324877Y0191225D01*
X0324321Y0192566D01*
X0323295Y0193593D01*
X0321953Y0194149D01*
X0320501Y0194149D01*
X0319159Y0193593D01*
X0318133Y0192566D01*
X0317577Y0191225D01*
X0317577Y0189773D01*
X0318133Y0188431D01*
X0319159Y0187404D01*
X0320501Y0186849D01*
X0321953Y0186849D01*
X0320495Y0186851D02*
X0312424Y0186851D01*
X0312424Y0187450D02*
X0319114Y0187450D01*
X0318516Y0188048D02*
X0312424Y0188048D01*
X0312424Y0188647D02*
X0318043Y0188647D01*
X0317795Y0189245D02*
X0312424Y0189245D01*
X0312424Y0189844D02*
X0317577Y0189844D01*
X0317577Y0190442D02*
X0312424Y0190442D01*
X0312424Y0191041D02*
X0317577Y0191041D01*
X0317749Y0191639D02*
X0312424Y0191639D01*
X0312424Y0192238D02*
X0317997Y0192238D01*
X0318403Y0192836D02*
X0312424Y0192836D01*
X0312424Y0193435D02*
X0319001Y0193435D01*
X0320223Y0194033D02*
X0312424Y0194033D01*
X0312424Y0194632D02*
X0352210Y0194632D01*
X0352210Y0195230D02*
X0312424Y0195230D01*
X0312424Y0195829D02*
X0352210Y0195829D01*
X0352210Y0196427D02*
X0312424Y0196427D01*
X0312424Y0197026D02*
X0352210Y0197026D01*
X0352210Y0197624D02*
X0312424Y0197624D01*
X0312424Y0198223D02*
X0352210Y0198223D01*
X0352210Y0198821D02*
X0312424Y0198821D01*
X0312424Y0199420D02*
X0352210Y0199420D01*
X0352210Y0200019D02*
X0312424Y0200019D01*
X0312424Y0200617D02*
X0352210Y0200617D01*
X0352210Y0201216D02*
X0312424Y0201216D01*
X0312424Y0201814D02*
X0352210Y0201814D01*
X0352210Y0202413D02*
X0336454Y0202413D01*
X0337350Y0202784D02*
X0339100Y0204534D01*
X0340047Y0206820D01*
X0340047Y0209295D01*
X0339100Y0211582D01*
X0337350Y0213332D01*
X0335063Y0214279D01*
X0332588Y0214279D01*
X0330301Y0213332D01*
X0328551Y0211582D01*
X0327604Y0209295D01*
X0327604Y0206820D01*
X0328551Y0204534D01*
X0330301Y0202784D01*
X0332588Y0201836D01*
X0335063Y0201836D01*
X0337350Y0202784D01*
X0337577Y0203011D02*
X0352210Y0203011D01*
X0352210Y0203610D02*
X0338175Y0203610D01*
X0338774Y0204208D02*
X0352210Y0204208D01*
X0352210Y0204807D02*
X0339213Y0204807D01*
X0339461Y0205405D02*
X0352210Y0205405D01*
X0352210Y0206004D02*
X0339708Y0206004D01*
X0339956Y0206602D02*
X0352210Y0206602D01*
X0352210Y0207201D02*
X0340047Y0207201D01*
X0340047Y0207799D02*
X0352210Y0207799D01*
X0352210Y0208398D02*
X0340047Y0208398D01*
X0340047Y0208996D02*
X0352210Y0208996D01*
X0352210Y0209595D02*
X0339923Y0209595D01*
X0339675Y0210193D02*
X0352210Y0210193D01*
X0352210Y0210792D02*
X0339427Y0210792D01*
X0339179Y0211390D02*
X0352210Y0211390D01*
X0352210Y0211989D02*
X0338693Y0211989D01*
X0338094Y0212587D02*
X0352210Y0212587D01*
X0352210Y0213186D02*
X0337496Y0213186D01*
X0336257Y0213784D02*
X0352210Y0213784D01*
X0352210Y0214383D02*
X0312424Y0214383D01*
X0312424Y0214981D02*
X0352210Y0214981D01*
X0352210Y0215580D02*
X0312424Y0215580D01*
X0312424Y0216178D02*
X0352210Y0216178D01*
X0352210Y0216777D02*
X0336470Y0216777D01*
X0335811Y0216600D02*
X0339646Y0217628D01*
X0343084Y0219613D01*
X0345892Y0222421D01*
X0347877Y0225859D01*
X0348905Y0229695D01*
X0348905Y0233665D01*
X0347877Y0237500D01*
X0345892Y0240939D01*
X0343084Y0243746D01*
X0339646Y0245732D01*
X0335811Y0246759D01*
X0331840Y0246759D01*
X0328005Y0245732D01*
X0324566Y0243746D01*
X0321759Y0240939D01*
X0319774Y0237500D01*
X0318746Y0233665D01*
X0318746Y0229695D01*
X0319774Y0225859D01*
X0321759Y0222421D01*
X0324566Y0219613D01*
X0328005Y0217628D01*
X0331840Y0216600D01*
X0335811Y0216600D01*
X0338703Y0217375D02*
X0352210Y0217375D01*
X0352210Y0217974D02*
X0340245Y0217974D01*
X0341282Y0218572D02*
X0352210Y0218572D01*
X0352210Y0219171D02*
X0342318Y0219171D01*
X0343241Y0219769D02*
X0352210Y0219769D01*
X0352210Y0220368D02*
X0343839Y0220368D01*
X0344438Y0220966D02*
X0352210Y0220966D01*
X0352210Y0221565D02*
X0345036Y0221565D01*
X0345635Y0222163D02*
X0352210Y0222163D01*
X0352210Y0222762D02*
X0346089Y0222762D01*
X0346435Y0223360D02*
X0352210Y0223360D01*
X0352210Y0223959D02*
X0346780Y0223959D01*
X0347126Y0224557D02*
X0352210Y0224557D01*
X0352210Y0225156D02*
X0347471Y0225156D01*
X0347817Y0225755D02*
X0352210Y0225755D01*
X0352210Y0226353D02*
X0348010Y0226353D01*
X0348170Y0226952D02*
X0352210Y0226952D01*
X0352210Y0227550D02*
X0348330Y0227550D01*
X0348491Y0228149D02*
X0352210Y0228149D01*
X0352210Y0228747D02*
X0348651Y0228747D01*
X0348811Y0229346D02*
X0352210Y0229346D01*
X0352210Y0229944D02*
X0348905Y0229944D01*
X0348905Y0230543D02*
X0352210Y0230543D01*
X0352210Y0231141D02*
X0348905Y0231141D01*
X0348905Y0231740D02*
X0352207Y0231740D01*
X0352174Y0232338D02*
X0348905Y0232338D01*
X0348905Y0232937D02*
X0352140Y0232937D01*
X0352106Y0233535D02*
X0348905Y0233535D01*
X0348779Y0234134D02*
X0352005Y0234134D01*
X0351868Y0234732D02*
X0348619Y0234732D01*
X0348459Y0235331D02*
X0351731Y0235331D01*
X0351595Y0235929D02*
X0348298Y0235929D01*
X0348138Y0236528D02*
X0351458Y0236528D01*
X0351322Y0237126D02*
X0347978Y0237126D01*
X0347748Y0237725D02*
X0351185Y0237725D01*
X0350904Y0238323D02*
X0347402Y0238323D01*
X0347057Y0238922D02*
X0350615Y0238922D01*
X0350327Y0239520D02*
X0346711Y0239520D01*
X0346366Y0240119D02*
X0350039Y0240119D01*
X0349751Y0240717D02*
X0346020Y0240717D01*
X0345515Y0241316D02*
X0349463Y0241316D01*
X0349031Y0241914D02*
X0344917Y0241914D01*
X0344318Y0242513D02*
X0348554Y0242513D01*
X0348077Y0243111D02*
X0343720Y0243111D01*
X0343121Y0243710D02*
X0347599Y0243710D01*
X0347122Y0244308D02*
X0342111Y0244308D01*
X0341075Y0244907D02*
X0346541Y0244907D01*
X0345791Y0245505D02*
X0340038Y0245505D01*
X0338257Y0246104D02*
X0345040Y0246104D01*
X0344290Y0246702D02*
X0336023Y0246702D01*
X0336998Y0249695D02*
X0312424Y0249695D01*
X0312424Y0249096D02*
X0339620Y0249096D01*
X0341009Y0248498D02*
X0312424Y0248498D01*
X0312424Y0247899D02*
X0342252Y0247899D01*
X0343495Y0247301D02*
X0312424Y0247301D01*
X0312424Y0246702D02*
X0331628Y0246702D01*
X0329394Y0246104D02*
X0312424Y0246104D01*
X0312424Y0245505D02*
X0327613Y0245505D01*
X0326576Y0244907D02*
X0312424Y0244907D01*
X0312424Y0244308D02*
X0325540Y0244308D01*
X0324530Y0243710D02*
X0312424Y0243710D01*
X0312424Y0243111D02*
X0323931Y0243111D01*
X0323333Y0242513D02*
X0312424Y0242513D01*
X0312424Y0241914D02*
X0322734Y0241914D01*
X0322136Y0241316D02*
X0312424Y0241316D01*
X0312424Y0240717D02*
X0321631Y0240717D01*
X0321285Y0240119D02*
X0312424Y0240119D01*
X0312424Y0239520D02*
X0320940Y0239520D01*
X0320594Y0238922D02*
X0312424Y0238922D01*
X0312424Y0238323D02*
X0320249Y0238323D01*
X0319903Y0237725D02*
X0312424Y0237725D01*
X0312424Y0237126D02*
X0319673Y0237126D01*
X0319513Y0236528D02*
X0312424Y0236528D01*
X0312424Y0235929D02*
X0319353Y0235929D01*
X0319192Y0235331D02*
X0312424Y0235331D01*
X0312424Y0234732D02*
X0319032Y0234732D01*
X0318871Y0234134D02*
X0312424Y0234134D01*
X0312424Y0233535D02*
X0318746Y0233535D01*
X0318746Y0232937D02*
X0312424Y0232937D01*
X0312424Y0232338D02*
X0318746Y0232338D01*
X0318746Y0231740D02*
X0312424Y0231740D01*
X0312424Y0231141D02*
X0318746Y0231141D01*
X0318746Y0230543D02*
X0312424Y0230543D01*
X0312424Y0229944D02*
X0318746Y0229944D01*
X0318839Y0229346D02*
X0312424Y0229346D01*
X0312424Y0228747D02*
X0319000Y0228747D01*
X0319160Y0228149D02*
X0312424Y0228149D01*
X0312424Y0227550D02*
X0319321Y0227550D01*
X0319481Y0226952D02*
X0312424Y0226952D01*
X0312424Y0226353D02*
X0319641Y0226353D01*
X0319834Y0225755D02*
X0312424Y0225755D01*
X0312424Y0225156D02*
X0320180Y0225156D01*
X0320525Y0224557D02*
X0312424Y0224557D01*
X0312424Y0223959D02*
X0320871Y0223959D01*
X0321216Y0223360D02*
X0312424Y0223360D01*
X0312424Y0222762D02*
X0321562Y0222762D01*
X0322016Y0222163D02*
X0312424Y0222163D01*
X0312424Y0221565D02*
X0322615Y0221565D01*
X0323213Y0220966D02*
X0312424Y0220966D01*
X0312424Y0220368D02*
X0323812Y0220368D01*
X0324410Y0219769D02*
X0312424Y0219769D01*
X0312424Y0219171D02*
X0325332Y0219171D01*
X0326369Y0218572D02*
X0312424Y0218572D01*
X0312424Y0217974D02*
X0327406Y0217974D01*
X0328948Y0217375D02*
X0312424Y0217375D01*
X0312424Y0216777D02*
X0331181Y0216777D01*
X0331394Y0213784D02*
X0312424Y0213784D01*
X0312424Y0213186D02*
X0330155Y0213186D01*
X0329557Y0212587D02*
X0312424Y0212587D01*
X0312424Y0211989D02*
X0328958Y0211989D01*
X0328472Y0211390D02*
X0312424Y0211390D01*
X0312424Y0210792D02*
X0328224Y0210792D01*
X0327976Y0210193D02*
X0312424Y0210193D01*
X0312424Y0209595D02*
X0327728Y0209595D01*
X0327604Y0208996D02*
X0312424Y0208996D01*
X0312424Y0208398D02*
X0327604Y0208398D01*
X0327604Y0207799D02*
X0312424Y0207799D01*
X0312424Y0207201D02*
X0327604Y0207201D01*
X0327695Y0206602D02*
X0312424Y0206602D01*
X0312424Y0206004D02*
X0327942Y0206004D01*
X0328190Y0205405D02*
X0312424Y0205405D01*
X0312424Y0204807D02*
X0328438Y0204807D01*
X0328877Y0204208D02*
X0312424Y0204208D01*
X0312424Y0203610D02*
X0329475Y0203610D01*
X0330074Y0203011D02*
X0312424Y0203011D01*
X0312424Y0202413D02*
X0331197Y0202413D01*
X0323453Y0193435D02*
X0352210Y0193435D01*
X0352210Y0194033D02*
X0322231Y0194033D01*
X0324051Y0192836D02*
X0352210Y0192836D01*
X0352210Y0192238D02*
X0324457Y0192238D01*
X0324705Y0191639D02*
X0352210Y0191639D01*
X0352210Y0191041D02*
X0324877Y0191041D01*
X0324877Y0190442D02*
X0352210Y0190442D01*
X0352210Y0189844D02*
X0324877Y0189844D01*
X0324659Y0189245D02*
X0352210Y0189245D01*
X0352210Y0188647D02*
X0324411Y0188647D01*
X0323939Y0188048D02*
X0352210Y0188048D01*
X0352210Y0187450D02*
X0323340Y0187450D01*
X0312424Y0176078D02*
X0352210Y0176078D01*
X0352210Y0175480D02*
X0312424Y0175480D01*
X0312424Y0174881D02*
X0352210Y0174881D01*
X0352210Y0174283D02*
X0312424Y0174283D01*
X0312424Y0173684D02*
X0319379Y0173684D01*
X0319159Y0173593D02*
X0318133Y0172566D01*
X0317577Y0171225D01*
X0317577Y0169773D01*
X0318133Y0168431D01*
X0319159Y0167404D01*
X0320501Y0166849D01*
X0321953Y0166849D01*
X0323295Y0167404D01*
X0324321Y0168431D01*
X0324877Y0169773D01*
X0324877Y0171225D01*
X0324321Y0172566D01*
X0323295Y0173593D01*
X0321953Y0174149D01*
X0320501Y0174149D01*
X0319159Y0173593D01*
X0318652Y0173086D02*
X0312424Y0173086D01*
X0312424Y0172487D02*
X0318100Y0172487D01*
X0317852Y0171888D02*
X0312424Y0171888D01*
X0312424Y0171290D02*
X0317604Y0171290D01*
X0317577Y0170691D02*
X0312424Y0170691D01*
X0312424Y0170093D02*
X0317577Y0170093D01*
X0317692Y0169494D02*
X0312424Y0169494D01*
X0312424Y0168896D02*
X0317940Y0168896D01*
X0318266Y0168297D02*
X0312424Y0168297D01*
X0312424Y0167699D02*
X0318865Y0167699D01*
X0319893Y0167100D02*
X0312424Y0167100D01*
X0312424Y0166502D02*
X0352210Y0166502D01*
X0352210Y0167100D02*
X0322561Y0167100D01*
X0323589Y0167699D02*
X0352210Y0167699D01*
X0352210Y0168297D02*
X0324188Y0168297D01*
X0324514Y0168896D02*
X0352210Y0168896D01*
X0352210Y0169494D02*
X0324762Y0169494D01*
X0324877Y0170093D02*
X0352210Y0170093D01*
X0352210Y0170691D02*
X0324877Y0170691D01*
X0324850Y0171290D02*
X0352210Y0171290D01*
X0352210Y0171888D02*
X0324602Y0171888D01*
X0324354Y0172487D02*
X0352210Y0172487D01*
X0352210Y0173086D02*
X0323802Y0173086D01*
X0323075Y0173684D02*
X0352210Y0173684D01*
X0352210Y0165903D02*
X0312424Y0165903D01*
X0312424Y0165305D02*
X0352210Y0165305D01*
X0352210Y0164706D02*
X0312424Y0164706D01*
X0312424Y0164108D02*
X0352210Y0164108D01*
X0352210Y0163509D02*
X0312424Y0163509D01*
X0312424Y0162911D02*
X0352210Y0162911D01*
X0352210Y0162312D02*
X0312424Y0162312D01*
X0312424Y0161714D02*
X0352210Y0161714D01*
X0352210Y0161115D02*
X0312424Y0161115D01*
X0312424Y0160517D02*
X0352210Y0160517D01*
X0352210Y0159918D02*
X0312424Y0159918D01*
X0312424Y0159320D02*
X0352210Y0159320D01*
X0352210Y0158721D02*
X0312424Y0158721D01*
X0312424Y0158123D02*
X0352210Y0158123D01*
X0352210Y0157524D02*
X0312424Y0157524D01*
X0312424Y0156926D02*
X0352210Y0156926D01*
X0352210Y0156327D02*
X0312424Y0156327D01*
X0312424Y0155729D02*
X0317953Y0155729D01*
X0317954Y0155729D02*
X0316724Y0154499D01*
X0316724Y0152760D01*
X0317954Y0151529D01*
X0319694Y0151529D01*
X0320924Y0152760D01*
X0320924Y0154499D01*
X0319694Y0155729D01*
X0317954Y0155729D01*
X0317355Y0155130D02*
X0312424Y0155130D01*
X0312424Y0154532D02*
X0316756Y0154532D01*
X0316724Y0153933D02*
X0312424Y0153933D01*
X0312424Y0153335D02*
X0316724Y0153335D01*
X0316747Y0152736D02*
X0312424Y0152736D01*
X0312424Y0152138D02*
X0317346Y0152138D01*
X0317944Y0151539D02*
X0312424Y0151539D01*
X0312424Y0150941D02*
X0352210Y0150941D01*
X0352210Y0151539D02*
X0319703Y0151539D01*
X0320302Y0152138D02*
X0352210Y0152138D01*
X0352210Y0152736D02*
X0320900Y0152736D01*
X0320924Y0153335D02*
X0352210Y0153335D01*
X0352210Y0153933D02*
X0320924Y0153933D01*
X0320891Y0154532D02*
X0352210Y0154532D01*
X0352210Y0155130D02*
X0320293Y0155130D01*
X0319694Y0155729D02*
X0352210Y0155729D01*
X0352210Y0150342D02*
X0312424Y0150342D01*
X0312424Y0149744D02*
X0352210Y0149744D01*
X0352210Y0149145D02*
X0312424Y0149145D01*
X0312424Y0148547D02*
X0352210Y0148547D01*
X0352210Y0147948D02*
X0323319Y0147948D01*
X0324080Y0147350D02*
X0352210Y0147350D01*
X0352210Y0146751D02*
X0324577Y0146751D01*
X0324916Y0146152D02*
X0352210Y0146152D01*
X0352210Y0145554D02*
X0325142Y0145554D01*
X0325261Y0144955D02*
X0352210Y0144955D01*
X0352210Y0144357D02*
X0321527Y0144357D01*
X0321527Y0144955D02*
X0320927Y0144955D01*
X0320927Y0144775D02*
X0320927Y0148525D01*
X0320828Y0148525D01*
X0320046Y0148369D01*
X0319309Y0148064D01*
X0318645Y0147621D01*
X0318081Y0147057D01*
X0317638Y0146393D01*
X0317333Y0145656D01*
X0317177Y0144874D01*
X0317177Y0144775D01*
X0320927Y0144775D01*
X0320927Y0144357D02*
X0312424Y0144357D01*
X0312424Y0144955D02*
X0317193Y0144955D01*
X0317312Y0145554D02*
X0312424Y0145554D01*
X0312424Y0146152D02*
X0317538Y0146152D01*
X0317877Y0146751D02*
X0312424Y0146751D01*
X0312424Y0147350D02*
X0318374Y0147350D01*
X0319135Y0147948D02*
X0312424Y0147948D01*
X0312424Y0143758D02*
X0317240Y0143758D01*
X0317388Y0143160D02*
X0312424Y0143160D01*
X0312424Y0142561D02*
X0317636Y0142561D01*
X0318035Y0141963D02*
X0312424Y0141963D01*
X0320927Y0141963D02*
X0321527Y0141963D01*
X0321527Y0142561D02*
X0320927Y0142561D01*
X0320927Y0143160D02*
X0321527Y0143160D01*
X0321527Y0143758D02*
X0320927Y0143758D01*
X0320927Y0145554D02*
X0321527Y0145554D01*
X0321527Y0146152D02*
X0320927Y0146152D01*
X0320927Y0146751D02*
X0321527Y0146751D01*
X0321527Y0147350D02*
X0320927Y0147350D01*
X0320927Y0147948D02*
X0321527Y0147948D01*
X0325214Y0143758D02*
X0352210Y0143758D01*
X0352210Y0143160D02*
X0325066Y0143160D01*
X0324818Y0142561D02*
X0352210Y0142561D01*
X0352210Y0141963D02*
X0324419Y0141963D01*
X0323844Y0141364D02*
X0352210Y0141364D01*
X0352210Y0140766D02*
X0322855Y0140766D01*
X0321527Y0140766D02*
X0320927Y0140766D01*
X0320927Y0141364D02*
X0321527Y0141364D01*
X0322802Y0137773D02*
X0352210Y0137773D01*
X0352210Y0137175D02*
X0323689Y0137175D01*
X0324288Y0136576D02*
X0352210Y0136576D01*
X0352210Y0135978D02*
X0324555Y0135978D01*
X0324803Y0135379D02*
X0352210Y0135379D01*
X0352210Y0134781D02*
X0324877Y0134781D01*
X0324877Y0134182D02*
X0352210Y0134182D01*
X0352210Y0133584D02*
X0324809Y0133584D01*
X0324561Y0132985D02*
X0352210Y0132985D01*
X0352210Y0132387D02*
X0324301Y0132387D01*
X0323702Y0131788D02*
X0352210Y0131788D01*
X0352210Y0131190D02*
X0322833Y0131190D01*
X0336001Y0069543D02*
X0352210Y0069543D01*
X0352210Y0068945D02*
X0338234Y0068945D01*
X0340027Y0068346D02*
X0352210Y0068346D01*
X0352210Y0067748D02*
X0341064Y0067748D01*
X0342101Y0067149D02*
X0352210Y0067149D01*
X0352210Y0066550D02*
X0343115Y0066550D01*
X0343714Y0065952D02*
X0352210Y0065952D01*
X0352210Y0065353D02*
X0344312Y0065353D01*
X0344911Y0064755D02*
X0352210Y0064755D01*
X0352210Y0064156D02*
X0345509Y0064156D01*
X0346017Y0063558D02*
X0352210Y0063558D01*
X0352210Y0062959D02*
X0346362Y0062959D01*
X0346708Y0062361D02*
X0352210Y0062361D01*
X0352210Y0061762D02*
X0347053Y0061762D01*
X0347399Y0061164D02*
X0352210Y0061164D01*
X0352210Y0060565D02*
X0347744Y0060565D01*
X0347976Y0059967D02*
X0352210Y0059967D01*
X0352210Y0059368D02*
X0348136Y0059368D01*
X0348297Y0058770D02*
X0352210Y0058770D01*
X0352210Y0058171D02*
X0348457Y0058171D01*
X0348617Y0057573D02*
X0352210Y0057573D01*
X0352210Y0056974D02*
X0348778Y0056974D01*
X0348905Y0056376D02*
X0352210Y0056376D01*
X0352210Y0055777D02*
X0348905Y0055777D01*
X0348905Y0055179D02*
X0352210Y0055179D01*
X0352210Y0054580D02*
X0348905Y0054580D01*
X0348905Y0053982D02*
X0352181Y0053982D01*
X0352147Y0053383D02*
X0348905Y0053383D01*
X0348905Y0052785D02*
X0352113Y0052785D01*
X0352033Y0052186D02*
X0348813Y0052186D01*
X0348653Y0051588D02*
X0351897Y0051588D01*
X0351760Y0050989D02*
X0348492Y0050989D01*
X0348332Y0050391D02*
X0351624Y0050391D01*
X0351487Y0049792D02*
X0348172Y0049792D01*
X0348011Y0049194D02*
X0351350Y0049194D01*
X0351214Y0048595D02*
X0347820Y0048595D01*
X0347475Y0047997D02*
X0350964Y0047997D01*
X0350676Y0047398D02*
X0347129Y0047398D01*
X0346784Y0046800D02*
X0350388Y0046800D01*
X0350100Y0046201D02*
X0346438Y0046201D01*
X0346093Y0045603D02*
X0349811Y0045603D01*
X0349523Y0045004D02*
X0345641Y0045004D01*
X0345042Y0044406D02*
X0349131Y0044406D01*
X0348654Y0043807D02*
X0344444Y0043807D01*
X0343845Y0043209D02*
X0348177Y0043209D01*
X0347700Y0042610D02*
X0343247Y0042610D01*
X0342329Y0042012D02*
X0347222Y0042012D01*
X0346699Y0041413D02*
X0341292Y0041413D01*
X0340256Y0040815D02*
X0345948Y0040815D01*
X0345198Y0040216D02*
X0338726Y0040216D01*
X0336492Y0039617D02*
X0344447Y0039617D01*
X0343697Y0039019D02*
X0305380Y0039019D01*
X0305628Y0039617D02*
X0331159Y0039617D01*
X0328925Y0040216D02*
X0305804Y0040216D01*
X0305804Y0040815D02*
X0327395Y0040815D01*
X0326359Y0041413D02*
X0305804Y0041413D01*
X0305562Y0042012D02*
X0325322Y0042012D01*
X0324404Y0042610D02*
X0305314Y0042610D01*
X0304770Y0043209D02*
X0323806Y0043209D01*
X0337549Y0036625D02*
X0062386Y0036625D01*
X0059907Y0037223D02*
X0340027Y0037223D01*
X0341270Y0037822D02*
X0304331Y0037822D01*
X0304929Y0038420D02*
X0342513Y0038420D01*
X0249480Y0044406D02*
X0248880Y0044406D01*
X0248880Y0045004D02*
X0249480Y0045004D01*
X0249480Y0045603D02*
X0248880Y0045603D01*
X0248880Y0046201D02*
X0249480Y0046201D01*
X0249480Y0046800D02*
X0248880Y0046800D01*
X0248880Y0047398D02*
X0249480Y0047398D01*
X0248880Y0047997D02*
X0240844Y0047997D01*
X0240844Y0047398D02*
X0245313Y0047398D01*
X0245432Y0046800D02*
X0240707Y0046800D01*
X0240459Y0046201D02*
X0245657Y0046201D01*
X0246002Y0045603D02*
X0240064Y0045603D01*
X0239465Y0045004D02*
X0246517Y0045004D01*
X0247318Y0044406D02*
X0238202Y0044406D01*
X0240809Y0048595D02*
X0245383Y0048595D01*
X0245554Y0049194D02*
X0240561Y0049194D01*
X0240312Y0049792D02*
X0245836Y0049792D01*
X0246269Y0050391D02*
X0239714Y0050391D01*
X0238801Y0050989D02*
X0246946Y0050989D01*
X0160219Y0181465D02*
X0160029Y0181465D01*
X0251424Y0247301D02*
X0056440Y0247301D01*
X0057683Y0247899D02*
X0251424Y0247899D01*
X0251424Y0248498D02*
X0058925Y0248498D01*
X0060314Y0249096D02*
X0251424Y0249096D01*
X0251424Y0249695D02*
X0062936Y0249695D01*
X0059679Y0040815D02*
X0053986Y0040815D01*
X0054737Y0040216D02*
X0061209Y0040216D01*
M02*
