%
M48
M72
T01C0.01200
T02C0.01600
T03C0.02000
T04C0.02362
T05C0.03150
T06C0.03500
T07C0.05906
T08C0.09843
T09C0.27559
%
T01
X53024Y127829
X62624Y135029
X76424Y128829
X84219Y135617
X98424Y135829
X121424Y123829
X121621Y116325
X125164Y108451
X140125Y109239
X140024Y89229
X148024Y81929
X154724Y81929
X159324Y89229
X172408Y94672
X178707Y99396
X180224Y109829
X183224Y109829
X176739Y110026
X195224Y99029
X206024Y99029
X218824Y104629
X228524Y112029
X234424Y118829
X241306Y115538
X261947Y109483
X266624Y100829
X281024Y93629
X281070Y85223
X286188Y85223
X279324Y60229
X259324Y60229
X233024Y57629
X215724Y60229
X183924Y60229
X184724Y68629
X180324Y74429
X204824Y87629
X208424Y87629
X212424Y87829
X216824Y87629
X221024Y87629
X246224Y93629
X218865Y113963
X206424Y109829
X218824Y129729
X218865Y139554
X234424Y145829
X241306Y141522
X241306Y133648
X245624Y149429
X245024Y154829
X240912Y161207
X234219Y164751
X218471Y159239
X239318Y180762
X232625Y188636
X198392Y201759
X190912Y198609
X176739Y198609
X173589Y205302
X151424Y205829
X144455Y188373
X149424Y183829
X158624Y183029
X161624Y183029
X175164Y182861
X196424Y182829
X145243Y159239
X127920Y160420
X124424Y153829
X128424Y140829
X125164Y134436
X145243Y139554
X110424Y116129
X110424Y100629
X110324Y77929
X97324Y60229
X129224Y60229
X152624Y60229
X286424Y131429
X318824Y153629
X132024Y192429
X117224Y207029
X99424Y179829
X101424Y164829
X102424Y156829
X64424Y180029
X57124Y154629
T02
X82424Y142829
X90912Y145066
X112172Y168688
T03
X55085Y79613
X55085Y108156
T04
X52542Y138668
X52542Y147526
T05
X65833Y103432
X65833Y84337
X237369Y47822
X243274Y40735
X249180Y47822
X296424Y47822
X302329Y40735
X308235Y47822
T06
X321227Y94475
X321227Y104475
X321227Y114475
X321227Y124475
X321227Y134475
X321227Y144475
X321227Y170499
X321227Y180499
X321227Y190499
T07
X79888Y167113
X79888Y185617
X79888Y204121
T08
X73983Y78136
X333825Y78136
X333825Y208058
T09
X66109Y54514
X66109Y231680
X333825Y231680
X333825Y54514
M30
