G75*
%MOIN*%
%OFA0B0*%
%FSLAX25Y25*%
%IPPOS*%
%LPD*%
%AMOC8*
5,1,8,0,0,1.08239X$1,22.5*
%
%ADD10C,0.28359*%
%ADD11C,0.10643*%
%ADD12C,0.01100*%
%ADD13C,0.01650*%
%ADD14R,0.04343X0.03950*%
%ADD15R,0.08674X0.08674*%
%ADD16R,0.07300X0.07300*%
%ADD17C,0.07300*%
%ADD18C,0.04737*%
%ADD19R,0.02178X0.06115*%
%ADD20R,0.06115X0.02178*%
%ADD21R,0.02965X0.05524*%
%ADD22R,0.05524X0.02965*%
%ADD23C,0.05950*%
%ADD24C,0.04140*%
%ADD25R,0.06115X0.02375*%
%ADD26C,0.04800*%
%ADD27R,0.02769X0.09461*%
%ADD28C,0.02150*%
%ADD29C,0.09658*%
%ADD30C,0.03162*%
%ADD31R,0.04737X0.04737*%
%ADD32R,0.04737X0.03950*%
%ADD33C,0.03600*%
D10*
X0066109Y0054514D03*
X0066109Y0231680D03*
X0333825Y0231680D03*
X0333825Y0054514D03*
D11*
X0333825Y0078136D03*
X0333825Y0208058D03*
X0073983Y0078136D03*
D12*
X0109974Y0227979D02*
X0113911Y0227979D01*
X0116419Y0228964D02*
X0117404Y0227979D01*
X0119372Y0227979D01*
X0120356Y0228964D01*
X0122865Y0228964D02*
X0123849Y0227979D01*
X0125817Y0227979D01*
X0126802Y0228964D01*
X0126802Y0232900D01*
X0125817Y0233884D01*
X0123849Y0233884D01*
X0122865Y0232900D01*
X0122865Y0228964D01*
X0120356Y0232900D02*
X0119372Y0233884D01*
X0117404Y0233884D01*
X0116419Y0232900D01*
X0116419Y0228964D01*
X0111942Y0230932D02*
X0109974Y0230932D01*
X0109974Y0233884D02*
X0109974Y0227979D01*
X0109974Y0233884D02*
X0113911Y0233884D01*
X0129310Y0233884D02*
X0129310Y0227979D01*
X0133247Y0227979D02*
X0133247Y0233884D01*
X0135756Y0230932D02*
X0139693Y0230932D01*
X0142201Y0233884D02*
X0146138Y0233884D01*
X0144170Y0233884D02*
X0144170Y0227979D01*
X0148647Y0227979D02*
X0152584Y0227979D01*
X0155092Y0228964D02*
X0156077Y0227979D01*
X0158045Y0227979D01*
X0159029Y0228964D01*
X0161538Y0227979D02*
X0161538Y0233884D01*
X0159029Y0232900D02*
X0158045Y0233884D01*
X0156077Y0233884D01*
X0155092Y0232900D01*
X0155092Y0228964D01*
X0161538Y0230932D02*
X0165475Y0230932D01*
X0165475Y0233884D02*
X0165475Y0227979D01*
X0152584Y0233884D02*
X0148647Y0233884D01*
X0148647Y0227979D01*
X0148647Y0230932D02*
X0150615Y0230932D01*
X0133247Y0227979D02*
X0129310Y0233884D01*
D13*
X0118049Y0204004D02*
X0118049Y0202354D01*
X0116399Y0202354D01*
X0116399Y0204004D01*
X0118049Y0204004D01*
X0118049Y0204003D02*
X0116399Y0204003D01*
X0118049Y0200504D02*
X0118049Y0198854D01*
X0116399Y0198854D01*
X0116399Y0200504D01*
X0118049Y0200504D01*
X0118049Y0200503D02*
X0116399Y0200503D01*
X0118049Y0193204D02*
X0118049Y0191554D01*
X0116399Y0191554D01*
X0116399Y0193204D01*
X0118049Y0193204D01*
X0118049Y0193203D02*
X0116399Y0193203D01*
X0118049Y0189704D02*
X0118049Y0188054D01*
X0116399Y0188054D01*
X0116399Y0189704D01*
X0118049Y0189704D01*
X0118049Y0189703D02*
X0116399Y0189703D01*
X0103574Y0176229D02*
X0101924Y0176229D01*
X0103574Y0176229D02*
X0103574Y0174579D01*
X0101924Y0174579D01*
X0101924Y0176229D01*
X0101924Y0176228D02*
X0103574Y0176228D01*
X0100074Y0176229D02*
X0098424Y0176229D01*
X0100074Y0176229D02*
X0100074Y0174579D01*
X0098424Y0174579D01*
X0098424Y0176229D01*
X0098424Y0176228D02*
X0100074Y0176228D01*
X0123770Y0156233D02*
X0125420Y0156233D01*
X0123770Y0156233D02*
X0123770Y0157883D01*
X0125420Y0157883D01*
X0125420Y0156233D01*
X0125420Y0157882D02*
X0123770Y0157882D01*
X0127270Y0156233D02*
X0128920Y0156233D01*
X0127270Y0156233D02*
X0127270Y0157883D01*
X0128920Y0157883D01*
X0128920Y0156233D01*
X0128920Y0157882D02*
X0127270Y0157882D01*
X0103432Y0154158D02*
X0101782Y0154158D01*
X0103432Y0154158D02*
X0103432Y0152508D01*
X0101782Y0152508D01*
X0101782Y0154158D01*
X0101782Y0154157D02*
X0103432Y0154157D01*
X0099932Y0154158D02*
X0098282Y0154158D01*
X0099932Y0154158D02*
X0099932Y0152508D01*
X0098282Y0152508D01*
X0098282Y0154158D01*
X0098282Y0154157D02*
X0099932Y0154157D01*
X0102745Y0137822D02*
X0102745Y0136172D01*
X0101095Y0136172D01*
X0101095Y0137822D01*
X0102745Y0137822D01*
X0102745Y0137821D02*
X0101095Y0137821D01*
X0102745Y0134322D02*
X0102745Y0132672D01*
X0101095Y0132672D01*
X0101095Y0134322D01*
X0102745Y0134322D01*
X0102745Y0134321D02*
X0101095Y0134321D01*
X0107839Y0134487D02*
X0107839Y0132837D01*
X0106189Y0132837D01*
X0106189Y0134487D01*
X0107839Y0134487D01*
X0107839Y0134486D02*
X0106189Y0134486D01*
X0107839Y0136337D02*
X0107839Y0137987D01*
X0107839Y0136337D02*
X0106189Y0136337D01*
X0106189Y0137987D01*
X0107839Y0137987D01*
X0107839Y0137986D02*
X0106189Y0137986D01*
X0111544Y0137822D02*
X0113194Y0137822D01*
X0113194Y0136172D01*
X0111544Y0136172D01*
X0111544Y0137822D01*
X0111544Y0137821D02*
X0113194Y0137821D01*
X0113194Y0134322D02*
X0111544Y0134322D01*
X0113194Y0134322D02*
X0113194Y0132672D01*
X0111544Y0132672D01*
X0111544Y0134322D01*
X0111544Y0134321D02*
X0113194Y0134321D01*
X0124164Y0136941D02*
X0125814Y0136941D01*
X0124164Y0136941D02*
X0124164Y0138591D01*
X0125814Y0138591D01*
X0125814Y0136941D01*
X0125814Y0138590D02*
X0124164Y0138590D01*
X0127664Y0136941D02*
X0129314Y0136941D01*
X0127664Y0136941D02*
X0127664Y0138591D01*
X0129314Y0138591D01*
X0129314Y0136941D01*
X0129314Y0138590D02*
X0127664Y0138590D01*
X0127664Y0122981D02*
X0129314Y0122981D01*
X0127664Y0122981D02*
X0127664Y0124631D01*
X0129314Y0124631D01*
X0129314Y0122981D01*
X0129314Y0124630D02*
X0127664Y0124630D01*
X0125814Y0122981D02*
X0124164Y0122981D01*
X0124164Y0124631D01*
X0125814Y0124631D01*
X0125814Y0122981D01*
X0125814Y0124630D02*
X0124164Y0124630D01*
X0124164Y0115894D02*
X0125814Y0115894D01*
X0124164Y0115894D02*
X0124164Y0117544D01*
X0125814Y0117544D01*
X0125814Y0115894D01*
X0125814Y0117543D02*
X0124164Y0117543D01*
X0127664Y0115894D02*
X0129314Y0115894D01*
X0127664Y0115894D02*
X0127664Y0117544D01*
X0129314Y0117544D01*
X0129314Y0115894D01*
X0129314Y0117543D02*
X0127664Y0117543D01*
X0127664Y0111170D02*
X0129314Y0111170D01*
X0127664Y0111170D02*
X0127664Y0112820D01*
X0129314Y0112820D01*
X0129314Y0111170D01*
X0129314Y0112819D02*
X0127664Y0112819D01*
X0125814Y0111170D02*
X0124164Y0111170D01*
X0124164Y0112820D01*
X0125814Y0112820D01*
X0125814Y0111170D01*
X0125814Y0112819D02*
X0124164Y0112819D01*
X0109399Y0097604D02*
X0109399Y0095954D01*
X0109399Y0097604D02*
X0111049Y0097604D01*
X0111049Y0095954D01*
X0109399Y0095954D01*
X0109399Y0097603D02*
X0111049Y0097603D01*
X0109399Y0094104D02*
X0109399Y0092454D01*
X0109399Y0094104D02*
X0111049Y0094104D01*
X0111049Y0092454D01*
X0109399Y0092454D01*
X0109399Y0094103D02*
X0111049Y0094103D01*
X0109434Y0085585D02*
X0109434Y0083935D01*
X0109434Y0085585D02*
X0111084Y0085585D01*
X0111084Y0083935D01*
X0109434Y0083935D01*
X0109434Y0085584D02*
X0111084Y0085584D01*
X0109434Y0082085D02*
X0109434Y0080435D01*
X0109434Y0082085D02*
X0111084Y0082085D01*
X0111084Y0080435D01*
X0109434Y0080435D01*
X0109434Y0082084D02*
X0111084Y0082084D01*
X0080495Y0091485D02*
X0078845Y0091485D01*
X0078845Y0093135D01*
X0080495Y0093135D01*
X0080495Y0091485D01*
X0080495Y0093134D02*
X0078845Y0093134D01*
X0076995Y0091485D02*
X0075345Y0091485D01*
X0075345Y0093135D01*
X0076995Y0093135D01*
X0076995Y0091485D01*
X0076995Y0093134D02*
X0075345Y0093134D01*
X0075739Y0095815D02*
X0077389Y0095815D01*
X0075739Y0095815D02*
X0075739Y0097465D01*
X0077389Y0097465D01*
X0077389Y0095815D01*
X0077389Y0097464D02*
X0075739Y0097464D01*
X0079239Y0095815D02*
X0080889Y0095815D01*
X0079239Y0095815D02*
X0079239Y0097465D01*
X0080889Y0097465D01*
X0080889Y0095815D01*
X0080889Y0097464D02*
X0079239Y0097464D01*
X0071152Y0117158D02*
X0069502Y0117158D01*
X0071152Y0117158D02*
X0071152Y0115508D01*
X0069502Y0115508D01*
X0069502Y0117158D01*
X0069502Y0117157D02*
X0071152Y0117157D01*
X0067652Y0117158D02*
X0066002Y0117158D01*
X0067652Y0117158D02*
X0067652Y0115508D01*
X0066002Y0115508D01*
X0066002Y0117158D01*
X0066002Y0117157D02*
X0067652Y0117157D01*
X0067652Y0122728D02*
X0066002Y0122728D01*
X0067652Y0122728D02*
X0067652Y0121078D01*
X0066002Y0121078D01*
X0066002Y0122728D01*
X0066002Y0122727D02*
X0067652Y0122727D01*
X0069502Y0122728D02*
X0071152Y0122728D01*
X0071152Y0121078D01*
X0069502Y0121078D01*
X0069502Y0122728D01*
X0069502Y0122727D02*
X0071152Y0122727D01*
X0071152Y0128847D02*
X0069502Y0128847D01*
X0071152Y0128847D02*
X0071152Y0127197D01*
X0069502Y0127197D01*
X0069502Y0128847D01*
X0069502Y0128846D02*
X0071152Y0128846D01*
X0067652Y0128847D02*
X0066002Y0128847D01*
X0067652Y0128847D02*
X0067652Y0127197D01*
X0066002Y0127197D01*
X0066002Y0128847D01*
X0066002Y0128846D02*
X0067652Y0128846D01*
X0077225Y0131963D02*
X0077225Y0133613D01*
X0077225Y0131963D02*
X0075575Y0131963D01*
X0075575Y0133613D01*
X0077225Y0133613D01*
X0077225Y0133612D02*
X0075575Y0133612D01*
X0077225Y0135463D02*
X0077225Y0137113D01*
X0077225Y0135463D02*
X0075575Y0135463D01*
X0075575Y0137113D01*
X0077225Y0137113D01*
X0077225Y0137112D02*
X0075575Y0137112D01*
X0079961Y0136987D02*
X0079961Y0135337D01*
X0079961Y0136987D02*
X0081611Y0136987D01*
X0081611Y0135337D01*
X0079961Y0135337D01*
X0079961Y0136986D02*
X0081611Y0136986D01*
X0079961Y0133487D02*
X0079961Y0131837D01*
X0079961Y0133487D02*
X0081611Y0133487D01*
X0081611Y0131837D01*
X0079961Y0131837D01*
X0079961Y0133486D02*
X0081611Y0133486D01*
X0147230Y0090048D02*
X0147230Y0088398D01*
X0147230Y0090048D02*
X0148880Y0090048D01*
X0148880Y0088398D01*
X0147230Y0088398D01*
X0147230Y0090047D02*
X0148880Y0090047D01*
X0155554Y0090048D02*
X0155554Y0088398D01*
X0153904Y0088398D01*
X0153904Y0090048D01*
X0155554Y0090048D01*
X0155554Y0090047D02*
X0153904Y0090047D01*
X0155554Y0086548D02*
X0155554Y0084898D01*
X0153904Y0084898D01*
X0153904Y0086548D01*
X0155554Y0086548D01*
X0155554Y0086547D02*
X0153904Y0086547D01*
X0147230Y0086548D02*
X0147230Y0084898D01*
X0147230Y0086548D02*
X0148880Y0086548D01*
X0148880Y0084898D01*
X0147230Y0084898D01*
X0147230Y0086547D02*
X0148880Y0086547D01*
X0174717Y0093927D02*
X0176367Y0093927D01*
X0174717Y0093927D02*
X0174717Y0095577D01*
X0176367Y0095577D01*
X0176367Y0093927D01*
X0176367Y0095576D02*
X0174717Y0095576D01*
X0178217Y0093927D02*
X0179867Y0093927D01*
X0178217Y0093927D02*
X0178217Y0095577D01*
X0179867Y0095577D01*
X0179867Y0093927D01*
X0179867Y0095576D02*
X0178217Y0095576D01*
X0189961Y0095448D02*
X0191611Y0095448D01*
X0191611Y0093798D01*
X0189961Y0093798D01*
X0189961Y0095448D01*
X0189961Y0095447D02*
X0191611Y0095447D01*
X0193461Y0095448D02*
X0195111Y0095448D01*
X0195111Y0093798D01*
X0193461Y0093798D01*
X0193461Y0095448D01*
X0193461Y0095447D02*
X0195111Y0095447D01*
X0204729Y0095672D02*
X0204729Y0094022D01*
X0203079Y0094022D01*
X0203079Y0095672D01*
X0204729Y0095672D01*
X0204729Y0095671D02*
X0203079Y0095671D01*
X0204729Y0092172D02*
X0204729Y0090522D01*
X0203079Y0090522D01*
X0203079Y0092172D01*
X0204729Y0092172D01*
X0204729Y0092171D02*
X0203079Y0092171D01*
X0207410Y0092172D02*
X0207410Y0090522D01*
X0207410Y0092172D02*
X0209060Y0092172D01*
X0209060Y0090522D01*
X0207410Y0090522D01*
X0207410Y0092171D02*
X0209060Y0092171D01*
X0207410Y0094022D02*
X0207410Y0095672D01*
X0209060Y0095672D01*
X0209060Y0094022D01*
X0207410Y0094022D01*
X0207410Y0095671D02*
X0209060Y0095671D01*
X0213391Y0095672D02*
X0213391Y0094022D01*
X0211741Y0094022D01*
X0211741Y0095672D01*
X0213391Y0095672D01*
X0213391Y0095671D02*
X0211741Y0095671D01*
X0217721Y0095672D02*
X0217721Y0094022D01*
X0216071Y0094022D01*
X0216071Y0095672D01*
X0217721Y0095672D01*
X0217721Y0095671D02*
X0216071Y0095671D01*
X0222052Y0095672D02*
X0222052Y0094022D01*
X0220402Y0094022D01*
X0220402Y0095672D01*
X0222052Y0095672D01*
X0222052Y0095671D02*
X0220402Y0095671D01*
X0222052Y0092172D02*
X0222052Y0090522D01*
X0220402Y0090522D01*
X0220402Y0092172D01*
X0222052Y0092172D01*
X0222052Y0092171D02*
X0220402Y0092171D01*
X0217721Y0092172D02*
X0217721Y0090522D01*
X0216071Y0090522D01*
X0216071Y0092172D01*
X0217721Y0092172D01*
X0217721Y0092171D02*
X0216071Y0092171D01*
X0213391Y0092172D02*
X0213391Y0090522D01*
X0211741Y0090522D01*
X0211741Y0092172D01*
X0213391Y0092172D01*
X0213391Y0092171D02*
X0211741Y0092171D01*
X0192582Y0067774D02*
X0190932Y0067774D01*
X0190932Y0069424D01*
X0192582Y0069424D01*
X0192582Y0067774D01*
X0192582Y0069423D02*
X0190932Y0069423D01*
X0189082Y0067774D02*
X0187432Y0067774D01*
X0187432Y0069424D01*
X0189082Y0069424D01*
X0189082Y0067774D01*
X0189082Y0069423D02*
X0187432Y0069423D01*
X0181121Y0076872D02*
X0181121Y0078522D01*
X0181121Y0076872D02*
X0179471Y0076872D01*
X0179471Y0078522D01*
X0181121Y0078522D01*
X0181121Y0078521D02*
X0179471Y0078521D01*
X0181121Y0080372D02*
X0181121Y0082022D01*
X0181121Y0080372D02*
X0179471Y0080372D01*
X0179471Y0082022D01*
X0181121Y0082022D01*
X0181121Y0082021D02*
X0179471Y0082021D01*
X0187331Y0061026D02*
X0187331Y0059376D01*
X0187331Y0061026D02*
X0188981Y0061026D01*
X0188981Y0059376D01*
X0187331Y0059376D01*
X0187331Y0061025D02*
X0188981Y0061025D01*
X0187331Y0057526D02*
X0187331Y0055876D01*
X0187331Y0057526D02*
X0188981Y0057526D01*
X0188981Y0055876D01*
X0187331Y0055876D01*
X0187331Y0057525D02*
X0188981Y0057525D01*
X0188981Y0041660D02*
X0187331Y0041660D01*
X0187331Y0043310D01*
X0188981Y0043310D01*
X0188981Y0041660D01*
X0188981Y0043309D02*
X0187331Y0043309D01*
X0187331Y0038160D02*
X0188981Y0038160D01*
X0187331Y0038160D02*
X0187331Y0039810D01*
X0188981Y0039810D01*
X0188981Y0038160D01*
X0188981Y0039809D02*
X0187331Y0039809D01*
X0157485Y0038160D02*
X0155835Y0038160D01*
X0155835Y0039810D01*
X0157485Y0039810D01*
X0157485Y0038160D01*
X0157485Y0039809D02*
X0155835Y0039809D01*
X0155835Y0041660D02*
X0157485Y0041660D01*
X0155835Y0041660D02*
X0155835Y0043310D01*
X0157485Y0043310D01*
X0157485Y0041660D01*
X0157485Y0043309D02*
X0155835Y0043309D01*
X0155835Y0055876D02*
X0155835Y0057526D01*
X0157485Y0057526D01*
X0157485Y0055876D01*
X0155835Y0055876D01*
X0155835Y0057525D02*
X0157485Y0057525D01*
X0155835Y0059376D02*
X0155835Y0061026D01*
X0157485Y0061026D01*
X0157485Y0059376D01*
X0155835Y0059376D01*
X0155835Y0061025D02*
X0157485Y0061025D01*
X0124339Y0061026D02*
X0124339Y0059376D01*
X0124339Y0061026D02*
X0125989Y0061026D01*
X0125989Y0059376D01*
X0124339Y0059376D01*
X0124339Y0061025D02*
X0125989Y0061025D01*
X0124339Y0057526D02*
X0124339Y0055876D01*
X0124339Y0057526D02*
X0125989Y0057526D01*
X0125989Y0055876D01*
X0124339Y0055876D01*
X0124339Y0057525D02*
X0125989Y0057525D01*
X0125989Y0041660D02*
X0124339Y0041660D01*
X0124339Y0043310D01*
X0125989Y0043310D01*
X0125989Y0041660D01*
X0125989Y0043309D02*
X0124339Y0043309D01*
X0124339Y0038160D02*
X0125989Y0038160D01*
X0124339Y0038160D02*
X0124339Y0039810D01*
X0125989Y0039810D01*
X0125989Y0038160D01*
X0125989Y0039809D02*
X0124339Y0039809D01*
X0094493Y0038160D02*
X0092843Y0038160D01*
X0092843Y0039810D01*
X0094493Y0039810D01*
X0094493Y0038160D01*
X0094493Y0039809D02*
X0092843Y0039809D01*
X0092843Y0041660D02*
X0094493Y0041660D01*
X0092843Y0041660D02*
X0092843Y0043310D01*
X0094493Y0043310D01*
X0094493Y0041660D01*
X0094493Y0043309D02*
X0092843Y0043309D01*
X0092843Y0055876D02*
X0092843Y0057526D01*
X0094493Y0057526D01*
X0094493Y0055876D01*
X0092843Y0055876D01*
X0092843Y0057525D02*
X0094493Y0057525D01*
X0092843Y0059376D02*
X0092843Y0061026D01*
X0094493Y0061026D01*
X0094493Y0059376D01*
X0092843Y0059376D01*
X0092843Y0061025D02*
X0094493Y0061025D01*
X0218827Y0061026D02*
X0218827Y0059376D01*
X0218827Y0061026D02*
X0220477Y0061026D01*
X0220477Y0059376D01*
X0218827Y0059376D01*
X0218827Y0061025D02*
X0220477Y0061025D01*
X0218827Y0057526D02*
X0218827Y0055876D01*
X0218827Y0057526D02*
X0220477Y0057526D01*
X0220477Y0055876D01*
X0218827Y0055876D01*
X0218827Y0057525D02*
X0220477Y0057525D01*
X0220477Y0041660D02*
X0218827Y0041660D01*
X0218827Y0043310D01*
X0220477Y0043310D01*
X0220477Y0041660D01*
X0220477Y0043309D02*
X0218827Y0043309D01*
X0218827Y0038160D02*
X0220477Y0038160D01*
X0218827Y0038160D02*
X0218827Y0039810D01*
X0220477Y0039810D01*
X0220477Y0038160D01*
X0220477Y0039809D02*
X0218827Y0039809D01*
X0262134Y0038160D02*
X0263784Y0038160D01*
X0262134Y0038160D02*
X0262134Y0039810D01*
X0263784Y0039810D01*
X0263784Y0038160D01*
X0263784Y0039809D02*
X0262134Y0039809D01*
X0262134Y0041660D02*
X0263784Y0041660D01*
X0262134Y0041660D02*
X0262134Y0043310D01*
X0263784Y0043310D01*
X0263784Y0041660D01*
X0263784Y0043309D02*
X0262134Y0043309D01*
X0262134Y0055876D02*
X0262134Y0057526D01*
X0263784Y0057526D01*
X0263784Y0055876D01*
X0262134Y0055876D01*
X0262134Y0057525D02*
X0263784Y0057525D01*
X0262134Y0059376D02*
X0262134Y0061026D01*
X0263784Y0061026D01*
X0263784Y0059376D01*
X0262134Y0059376D01*
X0262134Y0061025D02*
X0263784Y0061025D01*
X0281819Y0061026D02*
X0281819Y0059376D01*
X0281819Y0061026D02*
X0283469Y0061026D01*
X0283469Y0059376D01*
X0281819Y0059376D01*
X0281819Y0061025D02*
X0283469Y0061025D01*
X0281819Y0057526D02*
X0281819Y0055876D01*
X0281819Y0057526D02*
X0283469Y0057526D01*
X0283469Y0055876D01*
X0281819Y0055876D01*
X0281819Y0057525D02*
X0283469Y0057525D01*
X0283469Y0041660D02*
X0281819Y0041660D01*
X0281819Y0043310D01*
X0283469Y0043310D01*
X0283469Y0041660D01*
X0283469Y0043309D02*
X0281819Y0043309D01*
X0281819Y0038160D02*
X0283469Y0038160D01*
X0281819Y0038160D02*
X0281819Y0039810D01*
X0283469Y0039810D01*
X0283469Y0038160D01*
X0283469Y0039809D02*
X0281819Y0039809D01*
X0271530Y0108699D02*
X0269880Y0108699D01*
X0269880Y0110349D01*
X0271530Y0110349D01*
X0271530Y0108699D01*
X0271530Y0110348D02*
X0269880Y0110348D01*
X0268030Y0108699D02*
X0266380Y0108699D01*
X0266380Y0110349D01*
X0268030Y0110349D01*
X0268030Y0108699D01*
X0268030Y0110348D02*
X0266380Y0110348D01*
X0238763Y0116363D02*
X0237113Y0116363D01*
X0238763Y0116363D02*
X0238763Y0114713D01*
X0237113Y0114713D01*
X0237113Y0116363D01*
X0237113Y0116362D02*
X0238763Y0116362D01*
X0235263Y0116363D02*
X0233613Y0116363D01*
X0235263Y0116363D02*
X0235263Y0114713D01*
X0233613Y0114713D01*
X0233613Y0116363D01*
X0233613Y0116362D02*
X0235263Y0116362D01*
X0235263Y0134473D02*
X0233613Y0134473D01*
X0235263Y0134473D02*
X0235263Y0132823D01*
X0233613Y0132823D01*
X0233613Y0134473D01*
X0233613Y0134472D02*
X0235263Y0134472D01*
X0237113Y0134473D02*
X0238763Y0134473D01*
X0238763Y0132823D01*
X0237113Y0132823D01*
X0237113Y0134473D01*
X0237113Y0134472D02*
X0238763Y0134472D01*
X0238763Y0142347D02*
X0237113Y0142347D01*
X0238763Y0142347D02*
X0238763Y0140697D01*
X0237113Y0140697D01*
X0237113Y0142347D01*
X0237113Y0142346D02*
X0238763Y0142346D01*
X0235263Y0142347D02*
X0233613Y0142347D01*
X0235263Y0142347D02*
X0235263Y0140697D01*
X0233613Y0140697D01*
X0233613Y0142347D01*
X0233613Y0142346D02*
X0235263Y0142346D01*
X0234869Y0162032D02*
X0233219Y0162032D01*
X0234869Y0162032D02*
X0234869Y0160382D01*
X0233219Y0160382D01*
X0233219Y0162032D01*
X0233219Y0162031D02*
X0234869Y0162031D01*
X0236719Y0162032D02*
X0238369Y0162032D01*
X0238369Y0160382D01*
X0236719Y0160382D01*
X0236719Y0162032D01*
X0236719Y0162031D02*
X0238369Y0162031D01*
X0236775Y0179937D02*
X0235125Y0179937D01*
X0235125Y0181587D01*
X0236775Y0181587D01*
X0236775Y0179937D01*
X0236775Y0181586D02*
X0235125Y0181586D01*
X0233275Y0179937D02*
X0231625Y0179937D01*
X0231625Y0181587D01*
X0233275Y0181587D01*
X0233275Y0179937D01*
X0233275Y0181586D02*
X0231625Y0181586D01*
X0231625Y0185917D02*
X0233275Y0185917D01*
X0233275Y0184267D01*
X0231625Y0184267D01*
X0231625Y0185917D01*
X0231625Y0185916D02*
X0233275Y0185916D01*
X0235125Y0185917D02*
X0236775Y0185917D01*
X0236775Y0184267D01*
X0235125Y0184267D01*
X0235125Y0185917D01*
X0235125Y0185916D02*
X0236775Y0185916D01*
X0193630Y0197609D02*
X0193630Y0199259D01*
X0195280Y0199259D01*
X0195280Y0197609D01*
X0193630Y0197609D01*
X0193630Y0199258D02*
X0195280Y0199258D01*
X0193630Y0201109D02*
X0193630Y0202759D01*
X0195280Y0202759D01*
X0195280Y0201109D01*
X0193630Y0201109D01*
X0193630Y0202758D02*
X0195280Y0202758D01*
X0172371Y0202759D02*
X0172371Y0201109D01*
X0172371Y0202759D02*
X0174021Y0202759D01*
X0174021Y0201109D01*
X0172371Y0201109D01*
X0172371Y0202758D02*
X0174021Y0202758D01*
X0172371Y0199259D02*
X0172371Y0197609D01*
X0172371Y0199259D02*
X0174021Y0199259D01*
X0174021Y0197609D01*
X0172371Y0197609D01*
X0172371Y0199258D02*
X0174021Y0199258D01*
X0152367Y0198865D02*
X0152367Y0197215D01*
X0150717Y0197215D01*
X0150717Y0198865D01*
X0152367Y0198865D01*
X0152367Y0198864D02*
X0150717Y0198864D01*
X0152367Y0200715D02*
X0152367Y0202365D01*
X0152367Y0200715D02*
X0150717Y0200715D01*
X0150717Y0202365D01*
X0152367Y0202365D01*
X0152367Y0202364D02*
X0150717Y0202364D01*
X0146386Y0202365D02*
X0146386Y0200715D01*
X0146386Y0202365D02*
X0148036Y0202365D01*
X0148036Y0200715D01*
X0146386Y0200715D01*
X0146386Y0202364D02*
X0148036Y0202364D01*
X0146386Y0198865D02*
X0146386Y0197215D01*
X0146386Y0198865D02*
X0148036Y0198865D01*
X0148036Y0197215D01*
X0146386Y0197215D01*
X0146386Y0198864D02*
X0148036Y0198864D01*
X0289199Y0135804D02*
X0289199Y0134154D01*
X0289199Y0135804D02*
X0290849Y0135804D01*
X0290849Y0134154D01*
X0289199Y0134154D01*
X0289199Y0135803D02*
X0290849Y0135803D01*
X0289199Y0132304D02*
X0289199Y0130654D01*
X0289199Y0132304D02*
X0290849Y0132304D01*
X0290849Y0130654D01*
X0289199Y0130654D01*
X0289199Y0132303D02*
X0290849Y0132303D01*
X0295199Y0130654D02*
X0296849Y0130654D01*
X0295199Y0130654D02*
X0295199Y0132304D01*
X0296849Y0132304D01*
X0296849Y0130654D01*
X0296849Y0132303D02*
X0295199Y0132303D01*
X0295199Y0134154D02*
X0296849Y0134154D01*
X0295199Y0134154D02*
X0295199Y0135804D01*
X0296849Y0135804D01*
X0296849Y0134154D01*
X0296849Y0135803D02*
X0295199Y0135803D01*
X0300599Y0135804D02*
X0300599Y0134154D01*
X0300599Y0135804D02*
X0302249Y0135804D01*
X0302249Y0134154D01*
X0300599Y0134154D01*
X0300599Y0135803D02*
X0302249Y0135803D01*
X0300599Y0132304D02*
X0300599Y0130654D01*
X0300599Y0132304D02*
X0302249Y0132304D01*
X0302249Y0130654D01*
X0300599Y0130654D01*
X0300599Y0132303D02*
X0302249Y0132303D01*
X0306829Y0132367D02*
X0306829Y0130717D01*
X0306829Y0132367D02*
X0308479Y0132367D01*
X0308479Y0130717D01*
X0306829Y0130717D01*
X0306829Y0132366D02*
X0308479Y0132366D01*
X0306829Y0134217D02*
X0306829Y0135867D01*
X0308479Y0135867D01*
X0308479Y0134217D01*
X0306829Y0134217D01*
X0306829Y0135866D02*
X0308479Y0135866D01*
D14*
X0058518Y0124381D03*
X0053007Y0124381D03*
X0053007Y0120050D03*
X0058518Y0120050D03*
D15*
X0090558Y0118546D03*
X0090558Y0102798D03*
D16*
X0321227Y0094475D03*
X0321227Y0170499D03*
D17*
X0321227Y0180499D03*
X0321227Y0190499D03*
X0321227Y0144475D03*
X0321227Y0134475D03*
X0321227Y0124475D03*
X0321227Y0114475D03*
X0321227Y0104475D03*
D18*
X0309615Y0149475D02*
X0309615Y0149475D01*
X0305677Y0149475D01*
X0305677Y0149475D01*
X0309615Y0149475D01*
X0309615Y0161286D02*
X0309615Y0161286D01*
X0305677Y0161286D01*
X0305677Y0161286D01*
X0309615Y0161286D01*
X0309615Y0173097D02*
X0309615Y0173097D01*
X0305677Y0173097D01*
X0305677Y0173097D01*
X0309615Y0173097D01*
X0258434Y0155381D02*
X0258434Y0155381D01*
X0254496Y0155381D01*
X0254496Y0155381D01*
X0258434Y0155381D01*
X0258434Y0149475D02*
X0258434Y0149475D01*
X0254496Y0149475D01*
X0254496Y0149475D01*
X0258434Y0149475D01*
X0258434Y0214436D02*
X0258434Y0214436D01*
X0254496Y0214436D01*
X0254496Y0214436D01*
X0258434Y0214436D01*
X0258434Y0220341D02*
X0258434Y0220341D01*
X0254496Y0220341D01*
X0254496Y0220341D01*
X0258434Y0220341D01*
D19*
X0216259Y0188283D03*
X0214290Y0188283D03*
X0212322Y0188283D03*
X0210353Y0188283D03*
X0208385Y0188283D03*
X0206416Y0188283D03*
X0204448Y0188283D03*
X0202479Y0188283D03*
X0200511Y0188283D03*
X0198542Y0188283D03*
X0196574Y0188283D03*
X0194605Y0188283D03*
X0192637Y0188283D03*
X0190668Y0188283D03*
X0188700Y0188283D03*
X0186731Y0188283D03*
X0184763Y0188283D03*
X0182794Y0188283D03*
X0180826Y0188283D03*
X0178857Y0188283D03*
X0176889Y0188283D03*
X0174920Y0188283D03*
X0172952Y0188283D03*
X0170983Y0188283D03*
X0169015Y0188283D03*
X0167046Y0188283D03*
X0165078Y0188283D03*
X0163109Y0188283D03*
X0161141Y0188283D03*
X0159172Y0188283D03*
X0157204Y0188283D03*
X0155235Y0188283D03*
X0153267Y0188283D03*
X0151298Y0188283D03*
X0149330Y0188283D03*
X0147361Y0188283D03*
X0147361Y0104621D03*
X0149330Y0104621D03*
X0151298Y0104621D03*
X0153267Y0104621D03*
X0155235Y0104621D03*
X0157204Y0104621D03*
X0159172Y0104621D03*
X0161141Y0104621D03*
X0163109Y0104621D03*
X0165078Y0104621D03*
X0167046Y0104621D03*
X0169015Y0104621D03*
X0170983Y0104641D03*
X0172952Y0104621D03*
X0174920Y0104621D03*
X0176889Y0104621D03*
X0178857Y0104621D03*
X0180826Y0104621D03*
X0182794Y0104621D03*
X0184763Y0104621D03*
X0186731Y0104621D03*
X0188700Y0104621D03*
X0190668Y0104621D03*
X0192637Y0104641D03*
X0194605Y0104621D03*
X0196574Y0104621D03*
X0198542Y0104621D03*
X0200511Y0104621D03*
X0202479Y0104621D03*
X0204448Y0104621D03*
X0206416Y0104621D03*
X0208385Y0104621D03*
X0210353Y0104621D03*
X0212322Y0104621D03*
X0214290Y0104621D03*
X0216259Y0104621D03*
D20*
X0223641Y0112003D03*
X0223641Y0113972D03*
X0223641Y0115940D03*
X0223641Y0117909D03*
X0223641Y0119877D03*
X0223641Y0121846D03*
X0223641Y0123814D03*
X0223641Y0125783D03*
X0223641Y0127751D03*
X0223641Y0129720D03*
X0223641Y0131688D03*
X0223641Y0133657D03*
X0223641Y0135625D03*
X0223641Y0137594D03*
X0223641Y0139562D03*
X0223641Y0141531D03*
X0223641Y0143499D03*
X0223641Y0145468D03*
X0223641Y0147436D03*
X0223641Y0149405D03*
X0223641Y0151373D03*
X0223641Y0153342D03*
X0223641Y0155310D03*
X0223641Y0157279D03*
X0223641Y0159247D03*
X0223641Y0161216D03*
X0223641Y0163184D03*
X0223641Y0165153D03*
X0223641Y0167121D03*
X0223641Y0169090D03*
X0223641Y0171058D03*
X0223641Y0173027D03*
X0223641Y0174995D03*
X0223641Y0176964D03*
X0223641Y0178932D03*
X0223641Y0180901D03*
X0139979Y0180901D03*
X0139979Y0178932D03*
X0139979Y0176964D03*
X0139979Y0174995D03*
X0139979Y0173027D03*
X0139979Y0171058D03*
X0139979Y0169090D03*
X0139979Y0167121D03*
X0139979Y0165153D03*
X0139979Y0163184D03*
X0139979Y0161216D03*
X0139979Y0159247D03*
X0139979Y0157279D03*
X0139979Y0155310D03*
X0139979Y0153342D03*
X0139979Y0151373D03*
X0139979Y0149405D03*
X0139979Y0147436D03*
X0139979Y0145468D03*
X0139979Y0143499D03*
X0139979Y0141531D03*
X0139979Y0139562D03*
X0139979Y0137594D03*
X0139979Y0135625D03*
X0139979Y0133657D03*
X0139979Y0131688D03*
X0139979Y0129720D03*
X0139979Y0127751D03*
X0139979Y0125783D03*
X0139979Y0123814D03*
X0139979Y0121846D03*
X0139979Y0119877D03*
X0139979Y0117909D03*
X0139979Y0115940D03*
X0139979Y0113972D03*
X0139979Y0112003D03*
D21*
X0094692Y0129152D03*
X0087211Y0129152D03*
X0087211Y0139388D03*
X0090951Y0139388D03*
X0094692Y0139388D03*
D22*
X0096117Y0161207D03*
X0096117Y0164948D03*
X0096117Y0168688D03*
X0106353Y0168688D03*
X0106353Y0161207D03*
D23*
X0065833Y0103432D03*
X0065833Y0084337D03*
X0237369Y0047822D03*
X0243274Y0040735D03*
X0249180Y0047822D03*
X0296424Y0047822D03*
X0302329Y0040735D03*
X0308235Y0047822D03*
D24*
X0057155Y0087090D02*
X0053015Y0087090D01*
X0053015Y0091230D01*
X0057155Y0091230D01*
X0057155Y0087090D01*
X0057155Y0091229D02*
X0053015Y0091229D01*
X0053015Y0096539D02*
X0057155Y0096539D01*
X0053015Y0096539D02*
X0053015Y0100679D01*
X0057155Y0100679D01*
X0057155Y0096539D01*
X0057155Y0100678D02*
X0053015Y0100678D01*
D25*
X0066404Y0099003D03*
X0066404Y0096444D03*
X0066404Y0093885D03*
X0066404Y0091325D03*
X0066404Y0088766D03*
D26*
X0057085Y0079613D02*
X0053085Y0079613D01*
X0053085Y0108156D02*
X0057085Y0108156D01*
D27*
X0271097Y0100799D03*
X0276097Y0100799D03*
X0281097Y0100799D03*
X0286097Y0100799D03*
X0286058Y0077965D03*
X0281058Y0077965D03*
X0276058Y0077965D03*
X0271097Y0077965D03*
D28*
X0193243Y0077086D02*
X0193243Y0073936D01*
X0193243Y0077086D02*
X0195393Y0077086D01*
X0195393Y0073936D01*
X0193243Y0073936D01*
X0193243Y0076085D02*
X0195393Y0076085D01*
X0185243Y0077086D02*
X0185243Y0073936D01*
X0185243Y0077086D02*
X0187393Y0077086D01*
X0187393Y0073936D01*
X0185243Y0073936D01*
X0185243Y0076085D02*
X0187393Y0076085D01*
X0185243Y0083936D02*
X0185243Y0087086D01*
X0187393Y0087086D01*
X0187393Y0083936D01*
X0185243Y0083936D01*
X0185243Y0086085D02*
X0187393Y0086085D01*
X0193243Y0087086D02*
X0193243Y0083936D01*
X0193243Y0087086D02*
X0195393Y0087086D01*
X0195393Y0083936D01*
X0193243Y0083936D01*
X0193243Y0086085D02*
X0195393Y0086085D01*
D29*
X0079888Y0167113D03*
X0079888Y0185617D03*
X0079888Y0204121D03*
D30*
X0052542Y0147526D03*
X0052542Y0138668D03*
D31*
X0049392Y0134042D03*
X0049392Y0152152D03*
D32*
X0057070Y0150971D03*
X0057070Y0135223D03*
D33*
X0082424Y0142829D03*
X0090912Y0145066D03*
X0112172Y0168688D03*
M02*
