G75*
%MOIN*%
%OFA0B0*%
%FSLAX25Y25*%
%IPPOS*%
%LPD*%
%AMOC8*
5,1,8,0,0,1.08239X$1,22.5*
%
%ADD10R,0.07874X0.07874*%
%ADD11R,0.06500X0.06500*%
%ADD12C,0.06500*%
%ADD13C,0.05150*%
%ADD14C,0.04000*%
%ADD15C,0.08858*%
%ADD16C,0.02400*%
%ADD17C,0.02800*%
%ADD18C,0.01600*%
%ADD19C,0.00600*%
D10*
X0064573Y0142822D03*
X0064573Y0170381D03*
D11*
X0321227Y0170499D03*
X0321227Y0094475D03*
D12*
X0321227Y0104475D03*
X0321227Y0114475D03*
X0321227Y0124475D03*
X0321227Y0134475D03*
X0321227Y0144475D03*
X0321227Y0180499D03*
X0321227Y0190499D03*
D13*
X0308235Y0047822D03*
X0302329Y0040735D03*
X0296424Y0047822D03*
X0249180Y0047822D03*
X0243274Y0040735D03*
X0237369Y0047822D03*
X0065833Y0084337D03*
X0065833Y0103432D03*
D14*
X0057085Y0108156D02*
X0053085Y0108156D01*
X0053085Y0079613D02*
X0057085Y0079613D01*
D15*
X0079888Y0167113D03*
X0079888Y0185617D03*
X0079888Y0204121D03*
D16*
X0097324Y0060229D03*
X0110324Y0077929D03*
X0129224Y0060229D03*
X0152624Y0060229D03*
X0180324Y0074429D03*
X0184724Y0068629D03*
X0183924Y0060229D03*
X0215724Y0060229D03*
X0233024Y0057629D03*
X0259324Y0060229D03*
X0279324Y0060229D03*
X0281070Y0085223D03*
X0286188Y0085223D03*
X0281024Y0093629D03*
X0266624Y0100829D03*
X0261947Y0109483D03*
X0241306Y0115538D03*
X0234424Y0118829D03*
X0228524Y0112029D03*
X0218865Y0113963D03*
X0206424Y0109829D03*
X0218824Y0104629D03*
X0206024Y0099029D03*
X0195224Y0099029D03*
X0204824Y0087629D03*
X0208424Y0087629D03*
X0212424Y0087829D03*
X0216824Y0087629D03*
X0221024Y0087629D03*
X0246224Y0093629D03*
X0218824Y0129729D03*
X0218865Y0139554D03*
X0234424Y0145829D03*
X0241306Y0141522D03*
X0241306Y0133648D03*
X0245624Y0149429D03*
X0245024Y0154829D03*
X0240912Y0161207D03*
X0234219Y0164751D03*
X0218471Y0159239D03*
X0239318Y0180762D03*
X0232625Y0188636D03*
X0198392Y0201759D03*
X0190912Y0198609D03*
X0176739Y0198609D03*
X0173589Y0205302D03*
X0151424Y0205829D03*
X0144455Y0188373D03*
X0149424Y0183829D03*
X0158624Y0183029D03*
X0161624Y0183029D03*
X0175164Y0182861D03*
X0196424Y0182829D03*
X0145243Y0159239D03*
X0127920Y0160420D03*
X0124424Y0153829D03*
X0128424Y0140829D03*
X0125164Y0134436D03*
X0121424Y0123829D03*
X0121621Y0116325D03*
X0125164Y0108451D03*
X0140125Y0109239D03*
X0140024Y0089229D03*
X0148024Y0081929D03*
X0154724Y0081929D03*
X0159324Y0089229D03*
X0172408Y0094672D03*
X0178707Y0099396D03*
X0180224Y0109829D03*
X0183224Y0109829D03*
X0176739Y0110026D03*
X0145243Y0139554D03*
X0110424Y0116129D03*
X0110424Y0100629D03*
X0076424Y0128829D03*
X0084219Y0135617D03*
X0098424Y0135829D03*
X0102424Y0156829D03*
X0101424Y0164829D03*
X0099424Y0179829D03*
X0132024Y0192429D03*
X0117224Y0207029D03*
X0064424Y0180029D03*
X0057124Y0154629D03*
X0062624Y0135029D03*
X0053024Y0127829D03*
X0286424Y0131429D03*
X0318824Y0153629D03*
D17*
X0112172Y0168688D03*
X0090912Y0145066D03*
X0082424Y0142829D03*
D18*
X0082416Y0142822D01*
X0064573Y0142822D01*
X0064573Y0152979D01*
X0068424Y0156829D01*
X0076424Y0156829D01*
X0079424Y0159829D01*
X0079424Y0166648D01*
X0079888Y0167113D01*
X0064573Y0170381D02*
X0064573Y0179880D01*
X0064424Y0180029D01*
D19*
X0062624Y0135029D02*
X0062624Y0111629D01*
X0065024Y0109229D01*
X0098024Y0109229D01*
X0099224Y0108029D01*
X0099224Y0090529D01*
X0100524Y0089229D01*
X0140024Y0089229D01*
X0159324Y0089229D02*
X0194124Y0089229D01*
X0195224Y0090329D01*
X0195224Y0099029D01*
X0200624Y0094829D02*
X0203624Y0091829D01*
X0236024Y0091829D01*
X0239624Y0088229D01*
X0320024Y0088229D01*
X0321224Y0089429D01*
X0321224Y0094472D01*
X0321227Y0094475D01*
X0313424Y0093029D02*
X0311024Y0090629D01*
X0241424Y0090629D01*
X0237824Y0094229D01*
X0205424Y0094229D01*
X0203624Y0096029D01*
X0203624Y0112229D01*
X0202424Y0113429D01*
X0180824Y0113429D01*
X0180224Y0112829D01*
X0180224Y0109829D01*
X0183224Y0109829D02*
X0199424Y0109829D01*
X0200624Y0108629D01*
X0200624Y0094829D01*
X0218824Y0104629D02*
X0218824Y0108229D01*
X0219824Y0109229D01*
X0248724Y0109229D01*
X0253824Y0114329D01*
X0321081Y0114329D01*
X0321227Y0114475D01*
X0321227Y0104475D02*
X0321181Y0104429D01*
X0315224Y0104429D01*
X0313424Y0102629D01*
X0313424Y0093029D01*
X0281024Y0093629D02*
X0246224Y0093629D01*
X0247224Y0112029D02*
X0228524Y0112029D01*
X0247224Y0112029D02*
X0249224Y0114029D01*
X0249224Y0122129D01*
X0251624Y0124529D01*
X0321173Y0124529D01*
X0321227Y0124475D01*
X0315358Y0174629D02*
X0321227Y0180499D01*
X0315358Y0174629D02*
X0161024Y0174629D01*
X0158624Y0177029D01*
X0158624Y0183029D01*
X0161624Y0183029D02*
X0161624Y0178229D01*
X0163424Y0176429D01*
X0216824Y0176429D01*
X0219224Y0178829D01*
X0219224Y0190229D01*
X0221624Y0192629D01*
X0319096Y0192629D01*
X0321227Y0190499D01*
X0218824Y0129729D02*
X0135124Y0129729D01*
X0133424Y0131429D01*
X0133424Y0191029D01*
X0132024Y0192429D01*
X0110424Y0116129D02*
X0110424Y0100629D01*
X0233024Y0057629D02*
X0256424Y0057629D01*
X0257624Y0056429D01*
X0257624Y0048629D01*
X0258432Y0047822D01*
X0296424Y0047822D01*
M02*
