G75*
%MOIN*%
%OFA0B0*%
%FSLAX25Y25*%
%IPPOS*%
%LPD*%
%AMOC8*
5,1,8,0,0,1.08239X$1,22.5*
%
%ADD10C,0.00000*%
%ADD11C,0.00300*%
%ADD12C,0.00400*%
%ADD13C,0.03000*%
%ADD14C,0.00500*%
%ADD15C,0.01000*%
%ADD16R,0.01969X0.02953*%
%ADD17C,0.00600*%
%ADD18C,0.00100*%
%ADD19C,0.00200*%
D10*
X0066109Y0034829D02*
X0333825Y0034829D01*
X0320045Y0054514D02*
X0320049Y0054852D01*
X0320062Y0055190D01*
X0320082Y0055528D01*
X0320111Y0055865D01*
X0320149Y0056201D01*
X0320194Y0056536D01*
X0320248Y0056870D01*
X0320310Y0057202D01*
X0320380Y0057533D01*
X0320458Y0057862D01*
X0320544Y0058189D01*
X0320638Y0058514D01*
X0320741Y0058837D01*
X0320851Y0059156D01*
X0320968Y0059473D01*
X0321094Y0059787D01*
X0321227Y0060098D01*
X0321368Y0060406D01*
X0321516Y0060710D01*
X0321672Y0061010D01*
X0321835Y0061306D01*
X0322005Y0061598D01*
X0322183Y0061886D01*
X0322367Y0062170D01*
X0322559Y0062449D01*
X0322757Y0062723D01*
X0322962Y0062992D01*
X0323173Y0063256D01*
X0323391Y0063515D01*
X0323615Y0063768D01*
X0323845Y0064016D01*
X0324081Y0064258D01*
X0324323Y0064494D01*
X0324571Y0064724D01*
X0324824Y0064948D01*
X0325083Y0065166D01*
X0325347Y0065377D01*
X0325616Y0065582D01*
X0325890Y0065780D01*
X0326169Y0065972D01*
X0326453Y0066156D01*
X0326741Y0066334D01*
X0327033Y0066504D01*
X0327329Y0066667D01*
X0327629Y0066823D01*
X0327933Y0066971D01*
X0328241Y0067112D01*
X0328552Y0067245D01*
X0328866Y0067371D01*
X0329183Y0067488D01*
X0329502Y0067598D01*
X0329825Y0067701D01*
X0330150Y0067795D01*
X0330477Y0067881D01*
X0330806Y0067959D01*
X0331137Y0068029D01*
X0331469Y0068091D01*
X0331803Y0068145D01*
X0332138Y0068190D01*
X0332474Y0068228D01*
X0332811Y0068257D01*
X0333149Y0068277D01*
X0333487Y0068290D01*
X0333825Y0068294D01*
X0334163Y0068290D01*
X0334501Y0068277D01*
X0334839Y0068257D01*
X0335176Y0068228D01*
X0335512Y0068190D01*
X0335847Y0068145D01*
X0336181Y0068091D01*
X0336513Y0068029D01*
X0336844Y0067959D01*
X0337173Y0067881D01*
X0337500Y0067795D01*
X0337825Y0067701D01*
X0338148Y0067598D01*
X0338467Y0067488D01*
X0338784Y0067371D01*
X0339098Y0067245D01*
X0339409Y0067112D01*
X0339717Y0066971D01*
X0340021Y0066823D01*
X0340321Y0066667D01*
X0340617Y0066504D01*
X0340909Y0066334D01*
X0341197Y0066156D01*
X0341481Y0065972D01*
X0341760Y0065780D01*
X0342034Y0065582D01*
X0342303Y0065377D01*
X0342567Y0065166D01*
X0342826Y0064948D01*
X0343079Y0064724D01*
X0343327Y0064494D01*
X0343569Y0064258D01*
X0343805Y0064016D01*
X0344035Y0063768D01*
X0344259Y0063515D01*
X0344477Y0063256D01*
X0344688Y0062992D01*
X0344893Y0062723D01*
X0345091Y0062449D01*
X0345283Y0062170D01*
X0345467Y0061886D01*
X0345645Y0061598D01*
X0345815Y0061306D01*
X0345978Y0061010D01*
X0346134Y0060710D01*
X0346282Y0060406D01*
X0346423Y0060098D01*
X0346556Y0059787D01*
X0346682Y0059473D01*
X0346799Y0059156D01*
X0346909Y0058837D01*
X0347012Y0058514D01*
X0347106Y0058189D01*
X0347192Y0057862D01*
X0347270Y0057533D01*
X0347340Y0057202D01*
X0347402Y0056870D01*
X0347456Y0056536D01*
X0347501Y0056201D01*
X0347539Y0055865D01*
X0347568Y0055528D01*
X0347588Y0055190D01*
X0347601Y0054852D01*
X0347605Y0054514D01*
X0347601Y0054176D01*
X0347588Y0053838D01*
X0347568Y0053500D01*
X0347539Y0053163D01*
X0347501Y0052827D01*
X0347456Y0052492D01*
X0347402Y0052158D01*
X0347340Y0051826D01*
X0347270Y0051495D01*
X0347192Y0051166D01*
X0347106Y0050839D01*
X0347012Y0050514D01*
X0346909Y0050191D01*
X0346799Y0049872D01*
X0346682Y0049555D01*
X0346556Y0049241D01*
X0346423Y0048930D01*
X0346282Y0048622D01*
X0346134Y0048318D01*
X0345978Y0048018D01*
X0345815Y0047722D01*
X0345645Y0047430D01*
X0345467Y0047142D01*
X0345283Y0046858D01*
X0345091Y0046579D01*
X0344893Y0046305D01*
X0344688Y0046036D01*
X0344477Y0045772D01*
X0344259Y0045513D01*
X0344035Y0045260D01*
X0343805Y0045012D01*
X0343569Y0044770D01*
X0343327Y0044534D01*
X0343079Y0044304D01*
X0342826Y0044080D01*
X0342567Y0043862D01*
X0342303Y0043651D01*
X0342034Y0043446D01*
X0341760Y0043248D01*
X0341481Y0043056D01*
X0341197Y0042872D01*
X0340909Y0042694D01*
X0340617Y0042524D01*
X0340321Y0042361D01*
X0340021Y0042205D01*
X0339717Y0042057D01*
X0339409Y0041916D01*
X0339098Y0041783D01*
X0338784Y0041657D01*
X0338467Y0041540D01*
X0338148Y0041430D01*
X0337825Y0041327D01*
X0337500Y0041233D01*
X0337173Y0041147D01*
X0336844Y0041069D01*
X0336513Y0040999D01*
X0336181Y0040937D01*
X0335847Y0040883D01*
X0335512Y0040838D01*
X0335176Y0040800D01*
X0334839Y0040771D01*
X0334501Y0040751D01*
X0334163Y0040738D01*
X0333825Y0040734D01*
X0333487Y0040738D01*
X0333149Y0040751D01*
X0332811Y0040771D01*
X0332474Y0040800D01*
X0332138Y0040838D01*
X0331803Y0040883D01*
X0331469Y0040937D01*
X0331137Y0040999D01*
X0330806Y0041069D01*
X0330477Y0041147D01*
X0330150Y0041233D01*
X0329825Y0041327D01*
X0329502Y0041430D01*
X0329183Y0041540D01*
X0328866Y0041657D01*
X0328552Y0041783D01*
X0328241Y0041916D01*
X0327933Y0042057D01*
X0327629Y0042205D01*
X0327329Y0042361D01*
X0327033Y0042524D01*
X0326741Y0042694D01*
X0326453Y0042872D01*
X0326169Y0043056D01*
X0325890Y0043248D01*
X0325616Y0043446D01*
X0325347Y0043651D01*
X0325083Y0043862D01*
X0324824Y0044080D01*
X0324571Y0044304D01*
X0324323Y0044534D01*
X0324081Y0044770D01*
X0323845Y0045012D01*
X0323615Y0045260D01*
X0323391Y0045513D01*
X0323173Y0045772D01*
X0322962Y0046036D01*
X0322757Y0046305D01*
X0322559Y0046579D01*
X0322367Y0046858D01*
X0322183Y0047142D01*
X0322005Y0047430D01*
X0321835Y0047722D01*
X0321672Y0048018D01*
X0321516Y0048318D01*
X0321368Y0048622D01*
X0321227Y0048930D01*
X0321094Y0049241D01*
X0320968Y0049555D01*
X0320851Y0049872D01*
X0320741Y0050191D01*
X0320638Y0050514D01*
X0320544Y0050839D01*
X0320458Y0051166D01*
X0320380Y0051495D01*
X0320310Y0051826D01*
X0320248Y0052158D01*
X0320194Y0052492D01*
X0320149Y0052827D01*
X0320111Y0053163D01*
X0320082Y0053500D01*
X0320062Y0053838D01*
X0320049Y0054176D01*
X0320045Y0054514D01*
X0333825Y0034829D02*
X0334301Y0034835D01*
X0334776Y0034852D01*
X0335251Y0034881D01*
X0335725Y0034921D01*
X0336198Y0034973D01*
X0336669Y0035036D01*
X0337139Y0035110D01*
X0337607Y0035196D01*
X0338073Y0035293D01*
X0338536Y0035401D01*
X0338996Y0035520D01*
X0339454Y0035651D01*
X0339908Y0035792D01*
X0340359Y0035945D01*
X0340805Y0036108D01*
X0341248Y0036282D01*
X0341686Y0036467D01*
X0342120Y0036662D01*
X0342549Y0036868D01*
X0342973Y0037084D01*
X0343392Y0037310D01*
X0343805Y0037546D01*
X0344212Y0037792D01*
X0344613Y0038048D01*
X0345007Y0038314D01*
X0345396Y0038589D01*
X0345777Y0038873D01*
X0346151Y0039166D01*
X0346519Y0039468D01*
X0346879Y0039780D01*
X0347231Y0040099D01*
X0347575Y0040427D01*
X0347912Y0040764D01*
X0348240Y0041108D01*
X0348559Y0041460D01*
X0348871Y0041820D01*
X0349173Y0042188D01*
X0349466Y0042562D01*
X0349750Y0042943D01*
X0350025Y0043332D01*
X0350291Y0043726D01*
X0350547Y0044127D01*
X0350793Y0044534D01*
X0351029Y0044947D01*
X0351255Y0045366D01*
X0351471Y0045790D01*
X0351677Y0046219D01*
X0351872Y0046653D01*
X0352057Y0047091D01*
X0352231Y0047534D01*
X0352394Y0047980D01*
X0352547Y0048431D01*
X0352688Y0048885D01*
X0352819Y0049343D01*
X0352938Y0049803D01*
X0353046Y0050266D01*
X0353143Y0050732D01*
X0353229Y0051200D01*
X0353303Y0051670D01*
X0353366Y0052141D01*
X0353418Y0052614D01*
X0353458Y0053088D01*
X0353487Y0053563D01*
X0353504Y0054038D01*
X0353510Y0054514D01*
X0353510Y0231680D01*
X0320045Y0231680D02*
X0320049Y0232018D01*
X0320062Y0232356D01*
X0320082Y0232694D01*
X0320111Y0233031D01*
X0320149Y0233367D01*
X0320194Y0233702D01*
X0320248Y0234036D01*
X0320310Y0234368D01*
X0320380Y0234699D01*
X0320458Y0235028D01*
X0320544Y0235355D01*
X0320638Y0235680D01*
X0320741Y0236003D01*
X0320851Y0236322D01*
X0320968Y0236639D01*
X0321094Y0236953D01*
X0321227Y0237264D01*
X0321368Y0237572D01*
X0321516Y0237876D01*
X0321672Y0238176D01*
X0321835Y0238472D01*
X0322005Y0238764D01*
X0322183Y0239052D01*
X0322367Y0239336D01*
X0322559Y0239615D01*
X0322757Y0239889D01*
X0322962Y0240158D01*
X0323173Y0240422D01*
X0323391Y0240681D01*
X0323615Y0240934D01*
X0323845Y0241182D01*
X0324081Y0241424D01*
X0324323Y0241660D01*
X0324571Y0241890D01*
X0324824Y0242114D01*
X0325083Y0242332D01*
X0325347Y0242543D01*
X0325616Y0242748D01*
X0325890Y0242946D01*
X0326169Y0243138D01*
X0326453Y0243322D01*
X0326741Y0243500D01*
X0327033Y0243670D01*
X0327329Y0243833D01*
X0327629Y0243989D01*
X0327933Y0244137D01*
X0328241Y0244278D01*
X0328552Y0244411D01*
X0328866Y0244537D01*
X0329183Y0244654D01*
X0329502Y0244764D01*
X0329825Y0244867D01*
X0330150Y0244961D01*
X0330477Y0245047D01*
X0330806Y0245125D01*
X0331137Y0245195D01*
X0331469Y0245257D01*
X0331803Y0245311D01*
X0332138Y0245356D01*
X0332474Y0245394D01*
X0332811Y0245423D01*
X0333149Y0245443D01*
X0333487Y0245456D01*
X0333825Y0245460D01*
X0334163Y0245456D01*
X0334501Y0245443D01*
X0334839Y0245423D01*
X0335176Y0245394D01*
X0335512Y0245356D01*
X0335847Y0245311D01*
X0336181Y0245257D01*
X0336513Y0245195D01*
X0336844Y0245125D01*
X0337173Y0245047D01*
X0337500Y0244961D01*
X0337825Y0244867D01*
X0338148Y0244764D01*
X0338467Y0244654D01*
X0338784Y0244537D01*
X0339098Y0244411D01*
X0339409Y0244278D01*
X0339717Y0244137D01*
X0340021Y0243989D01*
X0340321Y0243833D01*
X0340617Y0243670D01*
X0340909Y0243500D01*
X0341197Y0243322D01*
X0341481Y0243138D01*
X0341760Y0242946D01*
X0342034Y0242748D01*
X0342303Y0242543D01*
X0342567Y0242332D01*
X0342826Y0242114D01*
X0343079Y0241890D01*
X0343327Y0241660D01*
X0343569Y0241424D01*
X0343805Y0241182D01*
X0344035Y0240934D01*
X0344259Y0240681D01*
X0344477Y0240422D01*
X0344688Y0240158D01*
X0344893Y0239889D01*
X0345091Y0239615D01*
X0345283Y0239336D01*
X0345467Y0239052D01*
X0345645Y0238764D01*
X0345815Y0238472D01*
X0345978Y0238176D01*
X0346134Y0237876D01*
X0346282Y0237572D01*
X0346423Y0237264D01*
X0346556Y0236953D01*
X0346682Y0236639D01*
X0346799Y0236322D01*
X0346909Y0236003D01*
X0347012Y0235680D01*
X0347106Y0235355D01*
X0347192Y0235028D01*
X0347270Y0234699D01*
X0347340Y0234368D01*
X0347402Y0234036D01*
X0347456Y0233702D01*
X0347501Y0233367D01*
X0347539Y0233031D01*
X0347568Y0232694D01*
X0347588Y0232356D01*
X0347601Y0232018D01*
X0347605Y0231680D01*
X0347601Y0231342D01*
X0347588Y0231004D01*
X0347568Y0230666D01*
X0347539Y0230329D01*
X0347501Y0229993D01*
X0347456Y0229658D01*
X0347402Y0229324D01*
X0347340Y0228992D01*
X0347270Y0228661D01*
X0347192Y0228332D01*
X0347106Y0228005D01*
X0347012Y0227680D01*
X0346909Y0227357D01*
X0346799Y0227038D01*
X0346682Y0226721D01*
X0346556Y0226407D01*
X0346423Y0226096D01*
X0346282Y0225788D01*
X0346134Y0225484D01*
X0345978Y0225184D01*
X0345815Y0224888D01*
X0345645Y0224596D01*
X0345467Y0224308D01*
X0345283Y0224024D01*
X0345091Y0223745D01*
X0344893Y0223471D01*
X0344688Y0223202D01*
X0344477Y0222938D01*
X0344259Y0222679D01*
X0344035Y0222426D01*
X0343805Y0222178D01*
X0343569Y0221936D01*
X0343327Y0221700D01*
X0343079Y0221470D01*
X0342826Y0221246D01*
X0342567Y0221028D01*
X0342303Y0220817D01*
X0342034Y0220612D01*
X0341760Y0220414D01*
X0341481Y0220222D01*
X0341197Y0220038D01*
X0340909Y0219860D01*
X0340617Y0219690D01*
X0340321Y0219527D01*
X0340021Y0219371D01*
X0339717Y0219223D01*
X0339409Y0219082D01*
X0339098Y0218949D01*
X0338784Y0218823D01*
X0338467Y0218706D01*
X0338148Y0218596D01*
X0337825Y0218493D01*
X0337500Y0218399D01*
X0337173Y0218313D01*
X0336844Y0218235D01*
X0336513Y0218165D01*
X0336181Y0218103D01*
X0335847Y0218049D01*
X0335512Y0218004D01*
X0335176Y0217966D01*
X0334839Y0217937D01*
X0334501Y0217917D01*
X0334163Y0217904D01*
X0333825Y0217900D01*
X0333487Y0217904D01*
X0333149Y0217917D01*
X0332811Y0217937D01*
X0332474Y0217966D01*
X0332138Y0218004D01*
X0331803Y0218049D01*
X0331469Y0218103D01*
X0331137Y0218165D01*
X0330806Y0218235D01*
X0330477Y0218313D01*
X0330150Y0218399D01*
X0329825Y0218493D01*
X0329502Y0218596D01*
X0329183Y0218706D01*
X0328866Y0218823D01*
X0328552Y0218949D01*
X0328241Y0219082D01*
X0327933Y0219223D01*
X0327629Y0219371D01*
X0327329Y0219527D01*
X0327033Y0219690D01*
X0326741Y0219860D01*
X0326453Y0220038D01*
X0326169Y0220222D01*
X0325890Y0220414D01*
X0325616Y0220612D01*
X0325347Y0220817D01*
X0325083Y0221028D01*
X0324824Y0221246D01*
X0324571Y0221470D01*
X0324323Y0221700D01*
X0324081Y0221936D01*
X0323845Y0222178D01*
X0323615Y0222426D01*
X0323391Y0222679D01*
X0323173Y0222938D01*
X0322962Y0223202D01*
X0322757Y0223471D01*
X0322559Y0223745D01*
X0322367Y0224024D01*
X0322183Y0224308D01*
X0322005Y0224596D01*
X0321835Y0224888D01*
X0321672Y0225184D01*
X0321516Y0225484D01*
X0321368Y0225788D01*
X0321227Y0226096D01*
X0321094Y0226407D01*
X0320968Y0226721D01*
X0320851Y0227038D01*
X0320741Y0227357D01*
X0320638Y0227680D01*
X0320544Y0228005D01*
X0320458Y0228332D01*
X0320380Y0228661D01*
X0320310Y0228992D01*
X0320248Y0229324D01*
X0320194Y0229658D01*
X0320149Y0229993D01*
X0320111Y0230329D01*
X0320082Y0230666D01*
X0320062Y0231004D01*
X0320049Y0231342D01*
X0320045Y0231680D01*
X0333825Y0251365D02*
X0334301Y0251359D01*
X0334776Y0251342D01*
X0335251Y0251313D01*
X0335725Y0251273D01*
X0336198Y0251221D01*
X0336669Y0251158D01*
X0337139Y0251084D01*
X0337607Y0250998D01*
X0338073Y0250901D01*
X0338536Y0250793D01*
X0338996Y0250674D01*
X0339454Y0250543D01*
X0339908Y0250402D01*
X0340359Y0250249D01*
X0340805Y0250086D01*
X0341248Y0249912D01*
X0341686Y0249727D01*
X0342120Y0249532D01*
X0342549Y0249326D01*
X0342973Y0249110D01*
X0343392Y0248884D01*
X0343805Y0248648D01*
X0344212Y0248402D01*
X0344613Y0248146D01*
X0345007Y0247880D01*
X0345396Y0247605D01*
X0345777Y0247321D01*
X0346151Y0247028D01*
X0346519Y0246726D01*
X0346879Y0246414D01*
X0347231Y0246095D01*
X0347575Y0245767D01*
X0347912Y0245430D01*
X0348240Y0245086D01*
X0348559Y0244734D01*
X0348871Y0244374D01*
X0349173Y0244006D01*
X0349466Y0243632D01*
X0349750Y0243251D01*
X0350025Y0242862D01*
X0350291Y0242468D01*
X0350547Y0242067D01*
X0350793Y0241660D01*
X0351029Y0241247D01*
X0351255Y0240828D01*
X0351471Y0240404D01*
X0351677Y0239975D01*
X0351872Y0239541D01*
X0352057Y0239103D01*
X0352231Y0238660D01*
X0352394Y0238214D01*
X0352547Y0237763D01*
X0352688Y0237309D01*
X0352819Y0236851D01*
X0352938Y0236391D01*
X0353046Y0235928D01*
X0353143Y0235462D01*
X0353229Y0234994D01*
X0353303Y0234524D01*
X0353366Y0234053D01*
X0353418Y0233580D01*
X0353458Y0233106D01*
X0353487Y0232631D01*
X0353504Y0232156D01*
X0353510Y0231680D01*
X0333825Y0251365D02*
X0066109Y0251365D01*
X0052329Y0231680D02*
X0052333Y0232018D01*
X0052346Y0232356D01*
X0052366Y0232694D01*
X0052395Y0233031D01*
X0052433Y0233367D01*
X0052478Y0233702D01*
X0052532Y0234036D01*
X0052594Y0234368D01*
X0052664Y0234699D01*
X0052742Y0235028D01*
X0052828Y0235355D01*
X0052922Y0235680D01*
X0053025Y0236003D01*
X0053135Y0236322D01*
X0053252Y0236639D01*
X0053378Y0236953D01*
X0053511Y0237264D01*
X0053652Y0237572D01*
X0053800Y0237876D01*
X0053956Y0238176D01*
X0054119Y0238472D01*
X0054289Y0238764D01*
X0054467Y0239052D01*
X0054651Y0239336D01*
X0054843Y0239615D01*
X0055041Y0239889D01*
X0055246Y0240158D01*
X0055457Y0240422D01*
X0055675Y0240681D01*
X0055899Y0240934D01*
X0056129Y0241182D01*
X0056365Y0241424D01*
X0056607Y0241660D01*
X0056855Y0241890D01*
X0057108Y0242114D01*
X0057367Y0242332D01*
X0057631Y0242543D01*
X0057900Y0242748D01*
X0058174Y0242946D01*
X0058453Y0243138D01*
X0058737Y0243322D01*
X0059025Y0243500D01*
X0059317Y0243670D01*
X0059613Y0243833D01*
X0059913Y0243989D01*
X0060217Y0244137D01*
X0060525Y0244278D01*
X0060836Y0244411D01*
X0061150Y0244537D01*
X0061467Y0244654D01*
X0061786Y0244764D01*
X0062109Y0244867D01*
X0062434Y0244961D01*
X0062761Y0245047D01*
X0063090Y0245125D01*
X0063421Y0245195D01*
X0063753Y0245257D01*
X0064087Y0245311D01*
X0064422Y0245356D01*
X0064758Y0245394D01*
X0065095Y0245423D01*
X0065433Y0245443D01*
X0065771Y0245456D01*
X0066109Y0245460D01*
X0066447Y0245456D01*
X0066785Y0245443D01*
X0067123Y0245423D01*
X0067460Y0245394D01*
X0067796Y0245356D01*
X0068131Y0245311D01*
X0068465Y0245257D01*
X0068797Y0245195D01*
X0069128Y0245125D01*
X0069457Y0245047D01*
X0069784Y0244961D01*
X0070109Y0244867D01*
X0070432Y0244764D01*
X0070751Y0244654D01*
X0071068Y0244537D01*
X0071382Y0244411D01*
X0071693Y0244278D01*
X0072001Y0244137D01*
X0072305Y0243989D01*
X0072605Y0243833D01*
X0072901Y0243670D01*
X0073193Y0243500D01*
X0073481Y0243322D01*
X0073765Y0243138D01*
X0074044Y0242946D01*
X0074318Y0242748D01*
X0074587Y0242543D01*
X0074851Y0242332D01*
X0075110Y0242114D01*
X0075363Y0241890D01*
X0075611Y0241660D01*
X0075853Y0241424D01*
X0076089Y0241182D01*
X0076319Y0240934D01*
X0076543Y0240681D01*
X0076761Y0240422D01*
X0076972Y0240158D01*
X0077177Y0239889D01*
X0077375Y0239615D01*
X0077567Y0239336D01*
X0077751Y0239052D01*
X0077929Y0238764D01*
X0078099Y0238472D01*
X0078262Y0238176D01*
X0078418Y0237876D01*
X0078566Y0237572D01*
X0078707Y0237264D01*
X0078840Y0236953D01*
X0078966Y0236639D01*
X0079083Y0236322D01*
X0079193Y0236003D01*
X0079296Y0235680D01*
X0079390Y0235355D01*
X0079476Y0235028D01*
X0079554Y0234699D01*
X0079624Y0234368D01*
X0079686Y0234036D01*
X0079740Y0233702D01*
X0079785Y0233367D01*
X0079823Y0233031D01*
X0079852Y0232694D01*
X0079872Y0232356D01*
X0079885Y0232018D01*
X0079889Y0231680D01*
X0079885Y0231342D01*
X0079872Y0231004D01*
X0079852Y0230666D01*
X0079823Y0230329D01*
X0079785Y0229993D01*
X0079740Y0229658D01*
X0079686Y0229324D01*
X0079624Y0228992D01*
X0079554Y0228661D01*
X0079476Y0228332D01*
X0079390Y0228005D01*
X0079296Y0227680D01*
X0079193Y0227357D01*
X0079083Y0227038D01*
X0078966Y0226721D01*
X0078840Y0226407D01*
X0078707Y0226096D01*
X0078566Y0225788D01*
X0078418Y0225484D01*
X0078262Y0225184D01*
X0078099Y0224888D01*
X0077929Y0224596D01*
X0077751Y0224308D01*
X0077567Y0224024D01*
X0077375Y0223745D01*
X0077177Y0223471D01*
X0076972Y0223202D01*
X0076761Y0222938D01*
X0076543Y0222679D01*
X0076319Y0222426D01*
X0076089Y0222178D01*
X0075853Y0221936D01*
X0075611Y0221700D01*
X0075363Y0221470D01*
X0075110Y0221246D01*
X0074851Y0221028D01*
X0074587Y0220817D01*
X0074318Y0220612D01*
X0074044Y0220414D01*
X0073765Y0220222D01*
X0073481Y0220038D01*
X0073193Y0219860D01*
X0072901Y0219690D01*
X0072605Y0219527D01*
X0072305Y0219371D01*
X0072001Y0219223D01*
X0071693Y0219082D01*
X0071382Y0218949D01*
X0071068Y0218823D01*
X0070751Y0218706D01*
X0070432Y0218596D01*
X0070109Y0218493D01*
X0069784Y0218399D01*
X0069457Y0218313D01*
X0069128Y0218235D01*
X0068797Y0218165D01*
X0068465Y0218103D01*
X0068131Y0218049D01*
X0067796Y0218004D01*
X0067460Y0217966D01*
X0067123Y0217937D01*
X0066785Y0217917D01*
X0066447Y0217904D01*
X0066109Y0217900D01*
X0065771Y0217904D01*
X0065433Y0217917D01*
X0065095Y0217937D01*
X0064758Y0217966D01*
X0064422Y0218004D01*
X0064087Y0218049D01*
X0063753Y0218103D01*
X0063421Y0218165D01*
X0063090Y0218235D01*
X0062761Y0218313D01*
X0062434Y0218399D01*
X0062109Y0218493D01*
X0061786Y0218596D01*
X0061467Y0218706D01*
X0061150Y0218823D01*
X0060836Y0218949D01*
X0060525Y0219082D01*
X0060217Y0219223D01*
X0059913Y0219371D01*
X0059613Y0219527D01*
X0059317Y0219690D01*
X0059025Y0219860D01*
X0058737Y0220038D01*
X0058453Y0220222D01*
X0058174Y0220414D01*
X0057900Y0220612D01*
X0057631Y0220817D01*
X0057367Y0221028D01*
X0057108Y0221246D01*
X0056855Y0221470D01*
X0056607Y0221700D01*
X0056365Y0221936D01*
X0056129Y0222178D01*
X0055899Y0222426D01*
X0055675Y0222679D01*
X0055457Y0222938D01*
X0055246Y0223202D01*
X0055041Y0223471D01*
X0054843Y0223745D01*
X0054651Y0224024D01*
X0054467Y0224308D01*
X0054289Y0224596D01*
X0054119Y0224888D01*
X0053956Y0225184D01*
X0053800Y0225484D01*
X0053652Y0225788D01*
X0053511Y0226096D01*
X0053378Y0226407D01*
X0053252Y0226721D01*
X0053135Y0227038D01*
X0053025Y0227357D01*
X0052922Y0227680D01*
X0052828Y0228005D01*
X0052742Y0228332D01*
X0052664Y0228661D01*
X0052594Y0228992D01*
X0052532Y0229324D01*
X0052478Y0229658D01*
X0052433Y0229993D01*
X0052395Y0230329D01*
X0052366Y0230666D01*
X0052346Y0231004D01*
X0052333Y0231342D01*
X0052329Y0231680D01*
X0046424Y0231680D02*
X0046424Y0054514D01*
X0052329Y0054514D02*
X0052333Y0054852D01*
X0052346Y0055190D01*
X0052366Y0055528D01*
X0052395Y0055865D01*
X0052433Y0056201D01*
X0052478Y0056536D01*
X0052532Y0056870D01*
X0052594Y0057202D01*
X0052664Y0057533D01*
X0052742Y0057862D01*
X0052828Y0058189D01*
X0052922Y0058514D01*
X0053025Y0058837D01*
X0053135Y0059156D01*
X0053252Y0059473D01*
X0053378Y0059787D01*
X0053511Y0060098D01*
X0053652Y0060406D01*
X0053800Y0060710D01*
X0053956Y0061010D01*
X0054119Y0061306D01*
X0054289Y0061598D01*
X0054467Y0061886D01*
X0054651Y0062170D01*
X0054843Y0062449D01*
X0055041Y0062723D01*
X0055246Y0062992D01*
X0055457Y0063256D01*
X0055675Y0063515D01*
X0055899Y0063768D01*
X0056129Y0064016D01*
X0056365Y0064258D01*
X0056607Y0064494D01*
X0056855Y0064724D01*
X0057108Y0064948D01*
X0057367Y0065166D01*
X0057631Y0065377D01*
X0057900Y0065582D01*
X0058174Y0065780D01*
X0058453Y0065972D01*
X0058737Y0066156D01*
X0059025Y0066334D01*
X0059317Y0066504D01*
X0059613Y0066667D01*
X0059913Y0066823D01*
X0060217Y0066971D01*
X0060525Y0067112D01*
X0060836Y0067245D01*
X0061150Y0067371D01*
X0061467Y0067488D01*
X0061786Y0067598D01*
X0062109Y0067701D01*
X0062434Y0067795D01*
X0062761Y0067881D01*
X0063090Y0067959D01*
X0063421Y0068029D01*
X0063753Y0068091D01*
X0064087Y0068145D01*
X0064422Y0068190D01*
X0064758Y0068228D01*
X0065095Y0068257D01*
X0065433Y0068277D01*
X0065771Y0068290D01*
X0066109Y0068294D01*
X0066447Y0068290D01*
X0066785Y0068277D01*
X0067123Y0068257D01*
X0067460Y0068228D01*
X0067796Y0068190D01*
X0068131Y0068145D01*
X0068465Y0068091D01*
X0068797Y0068029D01*
X0069128Y0067959D01*
X0069457Y0067881D01*
X0069784Y0067795D01*
X0070109Y0067701D01*
X0070432Y0067598D01*
X0070751Y0067488D01*
X0071068Y0067371D01*
X0071382Y0067245D01*
X0071693Y0067112D01*
X0072001Y0066971D01*
X0072305Y0066823D01*
X0072605Y0066667D01*
X0072901Y0066504D01*
X0073193Y0066334D01*
X0073481Y0066156D01*
X0073765Y0065972D01*
X0074044Y0065780D01*
X0074318Y0065582D01*
X0074587Y0065377D01*
X0074851Y0065166D01*
X0075110Y0064948D01*
X0075363Y0064724D01*
X0075611Y0064494D01*
X0075853Y0064258D01*
X0076089Y0064016D01*
X0076319Y0063768D01*
X0076543Y0063515D01*
X0076761Y0063256D01*
X0076972Y0062992D01*
X0077177Y0062723D01*
X0077375Y0062449D01*
X0077567Y0062170D01*
X0077751Y0061886D01*
X0077929Y0061598D01*
X0078099Y0061306D01*
X0078262Y0061010D01*
X0078418Y0060710D01*
X0078566Y0060406D01*
X0078707Y0060098D01*
X0078840Y0059787D01*
X0078966Y0059473D01*
X0079083Y0059156D01*
X0079193Y0058837D01*
X0079296Y0058514D01*
X0079390Y0058189D01*
X0079476Y0057862D01*
X0079554Y0057533D01*
X0079624Y0057202D01*
X0079686Y0056870D01*
X0079740Y0056536D01*
X0079785Y0056201D01*
X0079823Y0055865D01*
X0079852Y0055528D01*
X0079872Y0055190D01*
X0079885Y0054852D01*
X0079889Y0054514D01*
X0079885Y0054176D01*
X0079872Y0053838D01*
X0079852Y0053500D01*
X0079823Y0053163D01*
X0079785Y0052827D01*
X0079740Y0052492D01*
X0079686Y0052158D01*
X0079624Y0051826D01*
X0079554Y0051495D01*
X0079476Y0051166D01*
X0079390Y0050839D01*
X0079296Y0050514D01*
X0079193Y0050191D01*
X0079083Y0049872D01*
X0078966Y0049555D01*
X0078840Y0049241D01*
X0078707Y0048930D01*
X0078566Y0048622D01*
X0078418Y0048318D01*
X0078262Y0048018D01*
X0078099Y0047722D01*
X0077929Y0047430D01*
X0077751Y0047142D01*
X0077567Y0046858D01*
X0077375Y0046579D01*
X0077177Y0046305D01*
X0076972Y0046036D01*
X0076761Y0045772D01*
X0076543Y0045513D01*
X0076319Y0045260D01*
X0076089Y0045012D01*
X0075853Y0044770D01*
X0075611Y0044534D01*
X0075363Y0044304D01*
X0075110Y0044080D01*
X0074851Y0043862D01*
X0074587Y0043651D01*
X0074318Y0043446D01*
X0074044Y0043248D01*
X0073765Y0043056D01*
X0073481Y0042872D01*
X0073193Y0042694D01*
X0072901Y0042524D01*
X0072605Y0042361D01*
X0072305Y0042205D01*
X0072001Y0042057D01*
X0071693Y0041916D01*
X0071382Y0041783D01*
X0071068Y0041657D01*
X0070751Y0041540D01*
X0070432Y0041430D01*
X0070109Y0041327D01*
X0069784Y0041233D01*
X0069457Y0041147D01*
X0069128Y0041069D01*
X0068797Y0040999D01*
X0068465Y0040937D01*
X0068131Y0040883D01*
X0067796Y0040838D01*
X0067460Y0040800D01*
X0067123Y0040771D01*
X0066785Y0040751D01*
X0066447Y0040738D01*
X0066109Y0040734D01*
X0065771Y0040738D01*
X0065433Y0040751D01*
X0065095Y0040771D01*
X0064758Y0040800D01*
X0064422Y0040838D01*
X0064087Y0040883D01*
X0063753Y0040937D01*
X0063421Y0040999D01*
X0063090Y0041069D01*
X0062761Y0041147D01*
X0062434Y0041233D01*
X0062109Y0041327D01*
X0061786Y0041430D01*
X0061467Y0041540D01*
X0061150Y0041657D01*
X0060836Y0041783D01*
X0060525Y0041916D01*
X0060217Y0042057D01*
X0059913Y0042205D01*
X0059613Y0042361D01*
X0059317Y0042524D01*
X0059025Y0042694D01*
X0058737Y0042872D01*
X0058453Y0043056D01*
X0058174Y0043248D01*
X0057900Y0043446D01*
X0057631Y0043651D01*
X0057367Y0043862D01*
X0057108Y0044080D01*
X0056855Y0044304D01*
X0056607Y0044534D01*
X0056365Y0044770D01*
X0056129Y0045012D01*
X0055899Y0045260D01*
X0055675Y0045513D01*
X0055457Y0045772D01*
X0055246Y0046036D01*
X0055041Y0046305D01*
X0054843Y0046579D01*
X0054651Y0046858D01*
X0054467Y0047142D01*
X0054289Y0047430D01*
X0054119Y0047722D01*
X0053956Y0048018D01*
X0053800Y0048318D01*
X0053652Y0048622D01*
X0053511Y0048930D01*
X0053378Y0049241D01*
X0053252Y0049555D01*
X0053135Y0049872D01*
X0053025Y0050191D01*
X0052922Y0050514D01*
X0052828Y0050839D01*
X0052742Y0051166D01*
X0052664Y0051495D01*
X0052594Y0051826D01*
X0052532Y0052158D01*
X0052478Y0052492D01*
X0052433Y0052827D01*
X0052395Y0053163D01*
X0052366Y0053500D01*
X0052346Y0053838D01*
X0052333Y0054176D01*
X0052329Y0054514D01*
X0046424Y0054514D02*
X0046430Y0054038D01*
X0046447Y0053563D01*
X0046476Y0053088D01*
X0046516Y0052614D01*
X0046568Y0052141D01*
X0046631Y0051670D01*
X0046705Y0051200D01*
X0046791Y0050732D01*
X0046888Y0050266D01*
X0046996Y0049803D01*
X0047115Y0049343D01*
X0047246Y0048885D01*
X0047387Y0048431D01*
X0047540Y0047980D01*
X0047703Y0047534D01*
X0047877Y0047091D01*
X0048062Y0046653D01*
X0048257Y0046219D01*
X0048463Y0045790D01*
X0048679Y0045366D01*
X0048905Y0044947D01*
X0049141Y0044534D01*
X0049387Y0044127D01*
X0049643Y0043726D01*
X0049909Y0043332D01*
X0050184Y0042943D01*
X0050468Y0042562D01*
X0050761Y0042188D01*
X0051063Y0041820D01*
X0051375Y0041460D01*
X0051694Y0041108D01*
X0052022Y0040764D01*
X0052359Y0040427D01*
X0052703Y0040099D01*
X0053055Y0039780D01*
X0053415Y0039468D01*
X0053783Y0039166D01*
X0054157Y0038873D01*
X0054538Y0038589D01*
X0054927Y0038314D01*
X0055321Y0038048D01*
X0055722Y0037792D01*
X0056129Y0037546D01*
X0056542Y0037310D01*
X0056961Y0037084D01*
X0057385Y0036868D01*
X0057814Y0036662D01*
X0058248Y0036467D01*
X0058686Y0036282D01*
X0059129Y0036108D01*
X0059575Y0035945D01*
X0060026Y0035792D01*
X0060480Y0035651D01*
X0060938Y0035520D01*
X0061398Y0035401D01*
X0061861Y0035293D01*
X0062327Y0035196D01*
X0062795Y0035110D01*
X0063265Y0035036D01*
X0063736Y0034973D01*
X0064209Y0034921D01*
X0064683Y0034881D01*
X0065158Y0034852D01*
X0065633Y0034835D01*
X0066109Y0034829D01*
X0069062Y0078136D02*
X0069064Y0078276D01*
X0069070Y0078416D01*
X0069080Y0078555D01*
X0069094Y0078694D01*
X0069112Y0078833D01*
X0069133Y0078971D01*
X0069159Y0079109D01*
X0069189Y0079246D01*
X0069222Y0079381D01*
X0069260Y0079516D01*
X0069301Y0079650D01*
X0069346Y0079783D01*
X0069394Y0079914D01*
X0069447Y0080043D01*
X0069503Y0080172D01*
X0069562Y0080298D01*
X0069626Y0080423D01*
X0069692Y0080546D01*
X0069763Y0080667D01*
X0069836Y0080786D01*
X0069913Y0080903D01*
X0069994Y0081017D01*
X0070077Y0081129D01*
X0070164Y0081239D01*
X0070254Y0081347D01*
X0070346Y0081451D01*
X0070442Y0081553D01*
X0070541Y0081653D01*
X0070642Y0081749D01*
X0070746Y0081843D01*
X0070853Y0081933D01*
X0070962Y0082020D01*
X0071074Y0082105D01*
X0071188Y0082186D01*
X0071304Y0082264D01*
X0071422Y0082338D01*
X0071543Y0082409D01*
X0071665Y0082477D01*
X0071790Y0082541D01*
X0071916Y0082602D01*
X0072043Y0082659D01*
X0072173Y0082712D01*
X0072304Y0082762D01*
X0072436Y0082807D01*
X0072569Y0082850D01*
X0072704Y0082888D01*
X0072839Y0082922D01*
X0072976Y0082953D01*
X0073113Y0082980D01*
X0073251Y0083002D01*
X0073390Y0083021D01*
X0073529Y0083036D01*
X0073668Y0083047D01*
X0073808Y0083054D01*
X0073948Y0083057D01*
X0074088Y0083056D01*
X0074228Y0083051D01*
X0074367Y0083042D01*
X0074507Y0083029D01*
X0074646Y0083012D01*
X0074784Y0082991D01*
X0074922Y0082967D01*
X0075059Y0082938D01*
X0075195Y0082906D01*
X0075330Y0082869D01*
X0075464Y0082829D01*
X0075597Y0082785D01*
X0075728Y0082737D01*
X0075858Y0082686D01*
X0075987Y0082631D01*
X0076114Y0082572D01*
X0076239Y0082509D01*
X0076362Y0082444D01*
X0076484Y0082374D01*
X0076603Y0082301D01*
X0076721Y0082225D01*
X0076836Y0082146D01*
X0076949Y0082063D01*
X0077059Y0081977D01*
X0077167Y0081888D01*
X0077272Y0081796D01*
X0077375Y0081701D01*
X0077475Y0081603D01*
X0077572Y0081503D01*
X0077666Y0081399D01*
X0077758Y0081293D01*
X0077846Y0081185D01*
X0077931Y0081074D01*
X0078013Y0080960D01*
X0078092Y0080844D01*
X0078167Y0080727D01*
X0078239Y0080607D01*
X0078307Y0080485D01*
X0078372Y0080361D01*
X0078434Y0080235D01*
X0078492Y0080108D01*
X0078546Y0079979D01*
X0078597Y0079848D01*
X0078643Y0079716D01*
X0078686Y0079583D01*
X0078726Y0079449D01*
X0078761Y0079314D01*
X0078793Y0079177D01*
X0078820Y0079040D01*
X0078844Y0078902D01*
X0078864Y0078764D01*
X0078880Y0078625D01*
X0078892Y0078485D01*
X0078900Y0078346D01*
X0078904Y0078206D01*
X0078904Y0078066D01*
X0078900Y0077926D01*
X0078892Y0077787D01*
X0078880Y0077647D01*
X0078864Y0077508D01*
X0078844Y0077370D01*
X0078820Y0077232D01*
X0078793Y0077095D01*
X0078761Y0076958D01*
X0078726Y0076823D01*
X0078686Y0076689D01*
X0078643Y0076556D01*
X0078597Y0076424D01*
X0078546Y0076293D01*
X0078492Y0076164D01*
X0078434Y0076037D01*
X0078372Y0075911D01*
X0078307Y0075787D01*
X0078239Y0075665D01*
X0078167Y0075545D01*
X0078092Y0075428D01*
X0078013Y0075312D01*
X0077931Y0075198D01*
X0077846Y0075087D01*
X0077758Y0074979D01*
X0077666Y0074873D01*
X0077572Y0074769D01*
X0077475Y0074669D01*
X0077375Y0074571D01*
X0077272Y0074476D01*
X0077167Y0074384D01*
X0077059Y0074295D01*
X0076949Y0074209D01*
X0076836Y0074126D01*
X0076721Y0074047D01*
X0076603Y0073971D01*
X0076484Y0073898D01*
X0076362Y0073828D01*
X0076239Y0073763D01*
X0076114Y0073700D01*
X0075987Y0073641D01*
X0075858Y0073586D01*
X0075728Y0073535D01*
X0075597Y0073487D01*
X0075464Y0073443D01*
X0075330Y0073403D01*
X0075195Y0073366D01*
X0075059Y0073334D01*
X0074922Y0073305D01*
X0074784Y0073281D01*
X0074646Y0073260D01*
X0074507Y0073243D01*
X0074367Y0073230D01*
X0074228Y0073221D01*
X0074088Y0073216D01*
X0073948Y0073215D01*
X0073808Y0073218D01*
X0073668Y0073225D01*
X0073529Y0073236D01*
X0073390Y0073251D01*
X0073251Y0073270D01*
X0073113Y0073292D01*
X0072976Y0073319D01*
X0072839Y0073350D01*
X0072704Y0073384D01*
X0072569Y0073422D01*
X0072436Y0073465D01*
X0072304Y0073510D01*
X0072173Y0073560D01*
X0072043Y0073613D01*
X0071916Y0073670D01*
X0071790Y0073731D01*
X0071665Y0073795D01*
X0071543Y0073863D01*
X0071422Y0073934D01*
X0071304Y0074008D01*
X0071188Y0074086D01*
X0071074Y0074167D01*
X0070962Y0074252D01*
X0070853Y0074339D01*
X0070746Y0074429D01*
X0070642Y0074523D01*
X0070541Y0074619D01*
X0070442Y0074719D01*
X0070346Y0074821D01*
X0070254Y0074925D01*
X0070164Y0075033D01*
X0070077Y0075143D01*
X0069994Y0075255D01*
X0069913Y0075369D01*
X0069836Y0075486D01*
X0069763Y0075605D01*
X0069692Y0075726D01*
X0069626Y0075849D01*
X0069562Y0075974D01*
X0069503Y0076100D01*
X0069447Y0076229D01*
X0069394Y0076358D01*
X0069346Y0076489D01*
X0069301Y0076622D01*
X0069260Y0076756D01*
X0069222Y0076891D01*
X0069189Y0077026D01*
X0069159Y0077163D01*
X0069133Y0077301D01*
X0069112Y0077439D01*
X0069094Y0077578D01*
X0069080Y0077717D01*
X0069070Y0077856D01*
X0069064Y0077996D01*
X0069062Y0078136D01*
X0051361Y0138668D02*
X0051363Y0138737D01*
X0051369Y0138805D01*
X0051379Y0138873D01*
X0051393Y0138940D01*
X0051411Y0139007D01*
X0051432Y0139072D01*
X0051458Y0139136D01*
X0051487Y0139198D01*
X0051519Y0139258D01*
X0051555Y0139317D01*
X0051595Y0139373D01*
X0051637Y0139427D01*
X0051683Y0139478D01*
X0051732Y0139527D01*
X0051783Y0139573D01*
X0051837Y0139615D01*
X0051893Y0139655D01*
X0051951Y0139691D01*
X0052012Y0139723D01*
X0052074Y0139752D01*
X0052138Y0139778D01*
X0052203Y0139799D01*
X0052270Y0139817D01*
X0052337Y0139831D01*
X0052405Y0139841D01*
X0052473Y0139847D01*
X0052542Y0139849D01*
X0052611Y0139847D01*
X0052679Y0139841D01*
X0052747Y0139831D01*
X0052814Y0139817D01*
X0052881Y0139799D01*
X0052946Y0139778D01*
X0053010Y0139752D01*
X0053072Y0139723D01*
X0053132Y0139691D01*
X0053191Y0139655D01*
X0053247Y0139615D01*
X0053301Y0139573D01*
X0053352Y0139527D01*
X0053401Y0139478D01*
X0053447Y0139427D01*
X0053489Y0139373D01*
X0053529Y0139317D01*
X0053565Y0139258D01*
X0053597Y0139198D01*
X0053626Y0139136D01*
X0053652Y0139072D01*
X0053673Y0139007D01*
X0053691Y0138940D01*
X0053705Y0138873D01*
X0053715Y0138805D01*
X0053721Y0138737D01*
X0053723Y0138668D01*
X0053721Y0138599D01*
X0053715Y0138531D01*
X0053705Y0138463D01*
X0053691Y0138396D01*
X0053673Y0138329D01*
X0053652Y0138264D01*
X0053626Y0138200D01*
X0053597Y0138138D01*
X0053565Y0138077D01*
X0053529Y0138019D01*
X0053489Y0137963D01*
X0053447Y0137909D01*
X0053401Y0137858D01*
X0053352Y0137809D01*
X0053301Y0137763D01*
X0053247Y0137721D01*
X0053191Y0137681D01*
X0053133Y0137645D01*
X0053072Y0137613D01*
X0053010Y0137584D01*
X0052946Y0137558D01*
X0052881Y0137537D01*
X0052814Y0137519D01*
X0052747Y0137505D01*
X0052679Y0137495D01*
X0052611Y0137489D01*
X0052542Y0137487D01*
X0052473Y0137489D01*
X0052405Y0137495D01*
X0052337Y0137505D01*
X0052270Y0137519D01*
X0052203Y0137537D01*
X0052138Y0137558D01*
X0052074Y0137584D01*
X0052012Y0137613D01*
X0051951Y0137645D01*
X0051893Y0137681D01*
X0051837Y0137721D01*
X0051783Y0137763D01*
X0051732Y0137809D01*
X0051683Y0137858D01*
X0051637Y0137909D01*
X0051595Y0137963D01*
X0051555Y0138019D01*
X0051519Y0138077D01*
X0051487Y0138138D01*
X0051458Y0138200D01*
X0051432Y0138264D01*
X0051411Y0138329D01*
X0051393Y0138396D01*
X0051379Y0138463D01*
X0051369Y0138531D01*
X0051363Y0138599D01*
X0051361Y0138668D01*
X0051361Y0147526D02*
X0051363Y0147595D01*
X0051369Y0147663D01*
X0051379Y0147731D01*
X0051393Y0147798D01*
X0051411Y0147865D01*
X0051432Y0147930D01*
X0051458Y0147994D01*
X0051487Y0148056D01*
X0051519Y0148116D01*
X0051555Y0148175D01*
X0051595Y0148231D01*
X0051637Y0148285D01*
X0051683Y0148336D01*
X0051732Y0148385D01*
X0051783Y0148431D01*
X0051837Y0148473D01*
X0051893Y0148513D01*
X0051951Y0148549D01*
X0052012Y0148581D01*
X0052074Y0148610D01*
X0052138Y0148636D01*
X0052203Y0148657D01*
X0052270Y0148675D01*
X0052337Y0148689D01*
X0052405Y0148699D01*
X0052473Y0148705D01*
X0052542Y0148707D01*
X0052611Y0148705D01*
X0052679Y0148699D01*
X0052747Y0148689D01*
X0052814Y0148675D01*
X0052881Y0148657D01*
X0052946Y0148636D01*
X0053010Y0148610D01*
X0053072Y0148581D01*
X0053132Y0148549D01*
X0053191Y0148513D01*
X0053247Y0148473D01*
X0053301Y0148431D01*
X0053352Y0148385D01*
X0053401Y0148336D01*
X0053447Y0148285D01*
X0053489Y0148231D01*
X0053529Y0148175D01*
X0053565Y0148116D01*
X0053597Y0148056D01*
X0053626Y0147994D01*
X0053652Y0147930D01*
X0053673Y0147865D01*
X0053691Y0147798D01*
X0053705Y0147731D01*
X0053715Y0147663D01*
X0053721Y0147595D01*
X0053723Y0147526D01*
X0053721Y0147457D01*
X0053715Y0147389D01*
X0053705Y0147321D01*
X0053691Y0147254D01*
X0053673Y0147187D01*
X0053652Y0147122D01*
X0053626Y0147058D01*
X0053597Y0146996D01*
X0053565Y0146935D01*
X0053529Y0146877D01*
X0053489Y0146821D01*
X0053447Y0146767D01*
X0053401Y0146716D01*
X0053352Y0146667D01*
X0053301Y0146621D01*
X0053247Y0146579D01*
X0053191Y0146539D01*
X0053133Y0146503D01*
X0053072Y0146471D01*
X0053010Y0146442D01*
X0052946Y0146416D01*
X0052881Y0146395D01*
X0052814Y0146377D01*
X0052747Y0146363D01*
X0052679Y0146353D01*
X0052611Y0146347D01*
X0052542Y0146345D01*
X0052473Y0146347D01*
X0052405Y0146353D01*
X0052337Y0146363D01*
X0052270Y0146377D01*
X0052203Y0146395D01*
X0052138Y0146416D01*
X0052074Y0146442D01*
X0052012Y0146471D01*
X0051951Y0146503D01*
X0051893Y0146539D01*
X0051837Y0146579D01*
X0051783Y0146621D01*
X0051732Y0146667D01*
X0051683Y0146716D01*
X0051637Y0146767D01*
X0051595Y0146821D01*
X0051555Y0146877D01*
X0051519Y0146935D01*
X0051487Y0146996D01*
X0051458Y0147058D01*
X0051432Y0147122D01*
X0051411Y0147187D01*
X0051393Y0147254D01*
X0051379Y0147321D01*
X0051369Y0147389D01*
X0051363Y0147457D01*
X0051361Y0147526D01*
X0046424Y0231680D02*
X0046430Y0232156D01*
X0046447Y0232631D01*
X0046476Y0233106D01*
X0046516Y0233580D01*
X0046568Y0234053D01*
X0046631Y0234524D01*
X0046705Y0234994D01*
X0046791Y0235462D01*
X0046888Y0235928D01*
X0046996Y0236391D01*
X0047115Y0236851D01*
X0047246Y0237309D01*
X0047387Y0237763D01*
X0047540Y0238214D01*
X0047703Y0238660D01*
X0047877Y0239103D01*
X0048062Y0239541D01*
X0048257Y0239975D01*
X0048463Y0240404D01*
X0048679Y0240828D01*
X0048905Y0241247D01*
X0049141Y0241660D01*
X0049387Y0242067D01*
X0049643Y0242468D01*
X0049909Y0242862D01*
X0050184Y0243251D01*
X0050468Y0243632D01*
X0050761Y0244006D01*
X0051063Y0244374D01*
X0051375Y0244734D01*
X0051694Y0245086D01*
X0052022Y0245430D01*
X0052359Y0245767D01*
X0052703Y0246095D01*
X0053055Y0246414D01*
X0053415Y0246726D01*
X0053783Y0247028D01*
X0054157Y0247321D01*
X0054538Y0247605D01*
X0054927Y0247880D01*
X0055321Y0248146D01*
X0055722Y0248402D01*
X0056129Y0248648D01*
X0056542Y0248884D01*
X0056961Y0249110D01*
X0057385Y0249326D01*
X0057814Y0249532D01*
X0058248Y0249727D01*
X0058686Y0249912D01*
X0059129Y0250086D01*
X0059575Y0250249D01*
X0060026Y0250402D01*
X0060480Y0250543D01*
X0060938Y0250674D01*
X0061398Y0250793D01*
X0061861Y0250901D01*
X0062327Y0250998D01*
X0062795Y0251084D01*
X0063265Y0251158D01*
X0063736Y0251221D01*
X0064209Y0251273D01*
X0064683Y0251313D01*
X0065158Y0251342D01*
X0065633Y0251359D01*
X0066109Y0251365D01*
X0328904Y0208058D02*
X0328906Y0208198D01*
X0328912Y0208338D01*
X0328922Y0208477D01*
X0328936Y0208616D01*
X0328954Y0208755D01*
X0328975Y0208893D01*
X0329001Y0209031D01*
X0329031Y0209168D01*
X0329064Y0209303D01*
X0329102Y0209438D01*
X0329143Y0209572D01*
X0329188Y0209705D01*
X0329236Y0209836D01*
X0329289Y0209965D01*
X0329345Y0210094D01*
X0329404Y0210220D01*
X0329468Y0210345D01*
X0329534Y0210468D01*
X0329605Y0210589D01*
X0329678Y0210708D01*
X0329755Y0210825D01*
X0329836Y0210939D01*
X0329919Y0211051D01*
X0330006Y0211161D01*
X0330096Y0211269D01*
X0330188Y0211373D01*
X0330284Y0211475D01*
X0330383Y0211575D01*
X0330484Y0211671D01*
X0330588Y0211765D01*
X0330695Y0211855D01*
X0330804Y0211942D01*
X0330916Y0212027D01*
X0331030Y0212108D01*
X0331146Y0212186D01*
X0331264Y0212260D01*
X0331385Y0212331D01*
X0331507Y0212399D01*
X0331632Y0212463D01*
X0331758Y0212524D01*
X0331885Y0212581D01*
X0332015Y0212634D01*
X0332146Y0212684D01*
X0332278Y0212729D01*
X0332411Y0212772D01*
X0332546Y0212810D01*
X0332681Y0212844D01*
X0332818Y0212875D01*
X0332955Y0212902D01*
X0333093Y0212924D01*
X0333232Y0212943D01*
X0333371Y0212958D01*
X0333510Y0212969D01*
X0333650Y0212976D01*
X0333790Y0212979D01*
X0333930Y0212978D01*
X0334070Y0212973D01*
X0334209Y0212964D01*
X0334349Y0212951D01*
X0334488Y0212934D01*
X0334626Y0212913D01*
X0334764Y0212889D01*
X0334901Y0212860D01*
X0335037Y0212828D01*
X0335172Y0212791D01*
X0335306Y0212751D01*
X0335439Y0212707D01*
X0335570Y0212659D01*
X0335700Y0212608D01*
X0335829Y0212553D01*
X0335956Y0212494D01*
X0336081Y0212431D01*
X0336204Y0212366D01*
X0336326Y0212296D01*
X0336445Y0212223D01*
X0336563Y0212147D01*
X0336678Y0212068D01*
X0336791Y0211985D01*
X0336901Y0211899D01*
X0337009Y0211810D01*
X0337114Y0211718D01*
X0337217Y0211623D01*
X0337317Y0211525D01*
X0337414Y0211425D01*
X0337508Y0211321D01*
X0337600Y0211215D01*
X0337688Y0211107D01*
X0337773Y0210996D01*
X0337855Y0210882D01*
X0337934Y0210766D01*
X0338009Y0210649D01*
X0338081Y0210529D01*
X0338149Y0210407D01*
X0338214Y0210283D01*
X0338276Y0210157D01*
X0338334Y0210030D01*
X0338388Y0209901D01*
X0338439Y0209770D01*
X0338485Y0209638D01*
X0338528Y0209505D01*
X0338568Y0209371D01*
X0338603Y0209236D01*
X0338635Y0209099D01*
X0338662Y0208962D01*
X0338686Y0208824D01*
X0338706Y0208686D01*
X0338722Y0208547D01*
X0338734Y0208407D01*
X0338742Y0208268D01*
X0338746Y0208128D01*
X0338746Y0207988D01*
X0338742Y0207848D01*
X0338734Y0207709D01*
X0338722Y0207569D01*
X0338706Y0207430D01*
X0338686Y0207292D01*
X0338662Y0207154D01*
X0338635Y0207017D01*
X0338603Y0206880D01*
X0338568Y0206745D01*
X0338528Y0206611D01*
X0338485Y0206478D01*
X0338439Y0206346D01*
X0338388Y0206215D01*
X0338334Y0206086D01*
X0338276Y0205959D01*
X0338214Y0205833D01*
X0338149Y0205709D01*
X0338081Y0205587D01*
X0338009Y0205467D01*
X0337934Y0205350D01*
X0337855Y0205234D01*
X0337773Y0205120D01*
X0337688Y0205009D01*
X0337600Y0204901D01*
X0337508Y0204795D01*
X0337414Y0204691D01*
X0337317Y0204591D01*
X0337217Y0204493D01*
X0337114Y0204398D01*
X0337009Y0204306D01*
X0336901Y0204217D01*
X0336791Y0204131D01*
X0336678Y0204048D01*
X0336563Y0203969D01*
X0336445Y0203893D01*
X0336326Y0203820D01*
X0336204Y0203750D01*
X0336081Y0203685D01*
X0335956Y0203622D01*
X0335829Y0203563D01*
X0335700Y0203508D01*
X0335570Y0203457D01*
X0335439Y0203409D01*
X0335306Y0203365D01*
X0335172Y0203325D01*
X0335037Y0203288D01*
X0334901Y0203256D01*
X0334764Y0203227D01*
X0334626Y0203203D01*
X0334488Y0203182D01*
X0334349Y0203165D01*
X0334209Y0203152D01*
X0334070Y0203143D01*
X0333930Y0203138D01*
X0333790Y0203137D01*
X0333650Y0203140D01*
X0333510Y0203147D01*
X0333371Y0203158D01*
X0333232Y0203173D01*
X0333093Y0203192D01*
X0332955Y0203214D01*
X0332818Y0203241D01*
X0332681Y0203272D01*
X0332546Y0203306D01*
X0332411Y0203344D01*
X0332278Y0203387D01*
X0332146Y0203432D01*
X0332015Y0203482D01*
X0331885Y0203535D01*
X0331758Y0203592D01*
X0331632Y0203653D01*
X0331507Y0203717D01*
X0331385Y0203785D01*
X0331264Y0203856D01*
X0331146Y0203930D01*
X0331030Y0204008D01*
X0330916Y0204089D01*
X0330804Y0204174D01*
X0330695Y0204261D01*
X0330588Y0204351D01*
X0330484Y0204445D01*
X0330383Y0204541D01*
X0330284Y0204641D01*
X0330188Y0204743D01*
X0330096Y0204847D01*
X0330006Y0204955D01*
X0329919Y0205065D01*
X0329836Y0205177D01*
X0329755Y0205291D01*
X0329678Y0205408D01*
X0329605Y0205527D01*
X0329534Y0205648D01*
X0329468Y0205771D01*
X0329404Y0205896D01*
X0329345Y0206022D01*
X0329289Y0206151D01*
X0329236Y0206280D01*
X0329188Y0206411D01*
X0329143Y0206544D01*
X0329102Y0206678D01*
X0329064Y0206813D01*
X0329031Y0206948D01*
X0329001Y0207085D01*
X0328975Y0207223D01*
X0328954Y0207361D01*
X0328936Y0207500D01*
X0328922Y0207639D01*
X0328912Y0207778D01*
X0328906Y0207918D01*
X0328904Y0208058D01*
X0328904Y0078136D02*
X0328906Y0078276D01*
X0328912Y0078416D01*
X0328922Y0078555D01*
X0328936Y0078694D01*
X0328954Y0078833D01*
X0328975Y0078971D01*
X0329001Y0079109D01*
X0329031Y0079246D01*
X0329064Y0079381D01*
X0329102Y0079516D01*
X0329143Y0079650D01*
X0329188Y0079783D01*
X0329236Y0079914D01*
X0329289Y0080043D01*
X0329345Y0080172D01*
X0329404Y0080298D01*
X0329468Y0080423D01*
X0329534Y0080546D01*
X0329605Y0080667D01*
X0329678Y0080786D01*
X0329755Y0080903D01*
X0329836Y0081017D01*
X0329919Y0081129D01*
X0330006Y0081239D01*
X0330096Y0081347D01*
X0330188Y0081451D01*
X0330284Y0081553D01*
X0330383Y0081653D01*
X0330484Y0081749D01*
X0330588Y0081843D01*
X0330695Y0081933D01*
X0330804Y0082020D01*
X0330916Y0082105D01*
X0331030Y0082186D01*
X0331146Y0082264D01*
X0331264Y0082338D01*
X0331385Y0082409D01*
X0331507Y0082477D01*
X0331632Y0082541D01*
X0331758Y0082602D01*
X0331885Y0082659D01*
X0332015Y0082712D01*
X0332146Y0082762D01*
X0332278Y0082807D01*
X0332411Y0082850D01*
X0332546Y0082888D01*
X0332681Y0082922D01*
X0332818Y0082953D01*
X0332955Y0082980D01*
X0333093Y0083002D01*
X0333232Y0083021D01*
X0333371Y0083036D01*
X0333510Y0083047D01*
X0333650Y0083054D01*
X0333790Y0083057D01*
X0333930Y0083056D01*
X0334070Y0083051D01*
X0334209Y0083042D01*
X0334349Y0083029D01*
X0334488Y0083012D01*
X0334626Y0082991D01*
X0334764Y0082967D01*
X0334901Y0082938D01*
X0335037Y0082906D01*
X0335172Y0082869D01*
X0335306Y0082829D01*
X0335439Y0082785D01*
X0335570Y0082737D01*
X0335700Y0082686D01*
X0335829Y0082631D01*
X0335956Y0082572D01*
X0336081Y0082509D01*
X0336204Y0082444D01*
X0336326Y0082374D01*
X0336445Y0082301D01*
X0336563Y0082225D01*
X0336678Y0082146D01*
X0336791Y0082063D01*
X0336901Y0081977D01*
X0337009Y0081888D01*
X0337114Y0081796D01*
X0337217Y0081701D01*
X0337317Y0081603D01*
X0337414Y0081503D01*
X0337508Y0081399D01*
X0337600Y0081293D01*
X0337688Y0081185D01*
X0337773Y0081074D01*
X0337855Y0080960D01*
X0337934Y0080844D01*
X0338009Y0080727D01*
X0338081Y0080607D01*
X0338149Y0080485D01*
X0338214Y0080361D01*
X0338276Y0080235D01*
X0338334Y0080108D01*
X0338388Y0079979D01*
X0338439Y0079848D01*
X0338485Y0079716D01*
X0338528Y0079583D01*
X0338568Y0079449D01*
X0338603Y0079314D01*
X0338635Y0079177D01*
X0338662Y0079040D01*
X0338686Y0078902D01*
X0338706Y0078764D01*
X0338722Y0078625D01*
X0338734Y0078485D01*
X0338742Y0078346D01*
X0338746Y0078206D01*
X0338746Y0078066D01*
X0338742Y0077926D01*
X0338734Y0077787D01*
X0338722Y0077647D01*
X0338706Y0077508D01*
X0338686Y0077370D01*
X0338662Y0077232D01*
X0338635Y0077095D01*
X0338603Y0076958D01*
X0338568Y0076823D01*
X0338528Y0076689D01*
X0338485Y0076556D01*
X0338439Y0076424D01*
X0338388Y0076293D01*
X0338334Y0076164D01*
X0338276Y0076037D01*
X0338214Y0075911D01*
X0338149Y0075787D01*
X0338081Y0075665D01*
X0338009Y0075545D01*
X0337934Y0075428D01*
X0337855Y0075312D01*
X0337773Y0075198D01*
X0337688Y0075087D01*
X0337600Y0074979D01*
X0337508Y0074873D01*
X0337414Y0074769D01*
X0337317Y0074669D01*
X0337217Y0074571D01*
X0337114Y0074476D01*
X0337009Y0074384D01*
X0336901Y0074295D01*
X0336791Y0074209D01*
X0336678Y0074126D01*
X0336563Y0074047D01*
X0336445Y0073971D01*
X0336326Y0073898D01*
X0336204Y0073828D01*
X0336081Y0073763D01*
X0335956Y0073700D01*
X0335829Y0073641D01*
X0335700Y0073586D01*
X0335570Y0073535D01*
X0335439Y0073487D01*
X0335306Y0073443D01*
X0335172Y0073403D01*
X0335037Y0073366D01*
X0334901Y0073334D01*
X0334764Y0073305D01*
X0334626Y0073281D01*
X0334488Y0073260D01*
X0334349Y0073243D01*
X0334209Y0073230D01*
X0334070Y0073221D01*
X0333930Y0073216D01*
X0333790Y0073215D01*
X0333650Y0073218D01*
X0333510Y0073225D01*
X0333371Y0073236D01*
X0333232Y0073251D01*
X0333093Y0073270D01*
X0332955Y0073292D01*
X0332818Y0073319D01*
X0332681Y0073350D01*
X0332546Y0073384D01*
X0332411Y0073422D01*
X0332278Y0073465D01*
X0332146Y0073510D01*
X0332015Y0073560D01*
X0331885Y0073613D01*
X0331758Y0073670D01*
X0331632Y0073731D01*
X0331507Y0073795D01*
X0331385Y0073863D01*
X0331264Y0073934D01*
X0331146Y0074008D01*
X0331030Y0074086D01*
X0330916Y0074167D01*
X0330804Y0074252D01*
X0330695Y0074339D01*
X0330588Y0074429D01*
X0330484Y0074523D01*
X0330383Y0074619D01*
X0330284Y0074719D01*
X0330188Y0074821D01*
X0330096Y0074925D01*
X0330006Y0075033D01*
X0329919Y0075143D01*
X0329836Y0075255D01*
X0329755Y0075369D01*
X0329678Y0075486D01*
X0329605Y0075605D01*
X0329534Y0075726D01*
X0329468Y0075849D01*
X0329404Y0075974D01*
X0329345Y0076100D01*
X0329289Y0076229D01*
X0329236Y0076358D01*
X0329188Y0076489D01*
X0329143Y0076622D01*
X0329102Y0076756D01*
X0329064Y0076891D01*
X0329031Y0077026D01*
X0329001Y0077163D01*
X0328975Y0077301D01*
X0328954Y0077439D01*
X0328936Y0077578D01*
X0328922Y0077717D01*
X0328912Y0077856D01*
X0328906Y0077996D01*
X0328904Y0078136D01*
D11*
X0284394Y0061451D02*
X0284394Y0055451D01*
X0284392Y0055407D01*
X0284386Y0055364D01*
X0284377Y0055322D01*
X0284364Y0055280D01*
X0284347Y0055240D01*
X0284327Y0055201D01*
X0284304Y0055164D01*
X0284277Y0055130D01*
X0284248Y0055097D01*
X0284215Y0055068D01*
X0284181Y0055041D01*
X0284144Y0055018D01*
X0284105Y0054998D01*
X0284065Y0054981D01*
X0284023Y0054968D01*
X0283981Y0054959D01*
X0283938Y0054953D01*
X0283894Y0054951D01*
X0281394Y0054951D01*
X0281350Y0054953D01*
X0281307Y0054959D01*
X0281265Y0054968D01*
X0281223Y0054981D01*
X0281183Y0054998D01*
X0281144Y0055018D01*
X0281107Y0055041D01*
X0281073Y0055068D01*
X0281040Y0055097D01*
X0281011Y0055130D01*
X0280984Y0055164D01*
X0280961Y0055201D01*
X0280941Y0055240D01*
X0280924Y0055280D01*
X0280911Y0055322D01*
X0280902Y0055364D01*
X0280896Y0055407D01*
X0280894Y0055451D01*
X0280894Y0061451D01*
X0280896Y0061495D01*
X0280902Y0061538D01*
X0280911Y0061580D01*
X0280924Y0061622D01*
X0280941Y0061662D01*
X0280961Y0061701D01*
X0280984Y0061738D01*
X0281011Y0061772D01*
X0281040Y0061805D01*
X0281073Y0061834D01*
X0281107Y0061861D01*
X0281144Y0061884D01*
X0281183Y0061904D01*
X0281223Y0061921D01*
X0281265Y0061934D01*
X0281307Y0061943D01*
X0281350Y0061949D01*
X0281394Y0061951D01*
X0283894Y0061951D01*
X0283938Y0061949D01*
X0283981Y0061943D01*
X0284023Y0061934D01*
X0284065Y0061921D01*
X0284105Y0061904D01*
X0284144Y0061884D01*
X0284181Y0061861D01*
X0284215Y0061834D01*
X0284248Y0061805D01*
X0284277Y0061772D01*
X0284304Y0061738D01*
X0284327Y0061701D01*
X0284347Y0061662D01*
X0284364Y0061622D01*
X0284377Y0061580D01*
X0284386Y0061538D01*
X0284392Y0061495D01*
X0284394Y0061451D01*
X0264709Y0061451D02*
X0264709Y0055451D01*
X0264707Y0055407D01*
X0264701Y0055364D01*
X0264692Y0055322D01*
X0264679Y0055280D01*
X0264662Y0055240D01*
X0264642Y0055201D01*
X0264619Y0055164D01*
X0264592Y0055130D01*
X0264563Y0055097D01*
X0264530Y0055068D01*
X0264496Y0055041D01*
X0264459Y0055018D01*
X0264420Y0054998D01*
X0264380Y0054981D01*
X0264338Y0054968D01*
X0264296Y0054959D01*
X0264253Y0054953D01*
X0264209Y0054951D01*
X0261709Y0054951D01*
X0261665Y0054953D01*
X0261622Y0054959D01*
X0261580Y0054968D01*
X0261538Y0054981D01*
X0261498Y0054998D01*
X0261459Y0055018D01*
X0261422Y0055041D01*
X0261388Y0055068D01*
X0261355Y0055097D01*
X0261326Y0055130D01*
X0261299Y0055164D01*
X0261276Y0055201D01*
X0261256Y0055240D01*
X0261239Y0055280D01*
X0261226Y0055322D01*
X0261217Y0055364D01*
X0261211Y0055407D01*
X0261209Y0055451D01*
X0261209Y0061451D01*
X0261211Y0061495D01*
X0261217Y0061538D01*
X0261226Y0061580D01*
X0261239Y0061622D01*
X0261256Y0061662D01*
X0261276Y0061701D01*
X0261299Y0061738D01*
X0261326Y0061772D01*
X0261355Y0061805D01*
X0261388Y0061834D01*
X0261422Y0061861D01*
X0261459Y0061884D01*
X0261498Y0061904D01*
X0261538Y0061921D01*
X0261580Y0061934D01*
X0261622Y0061943D01*
X0261665Y0061949D01*
X0261709Y0061951D01*
X0264209Y0061951D01*
X0264253Y0061949D01*
X0264296Y0061943D01*
X0264338Y0061934D01*
X0264380Y0061921D01*
X0264420Y0061904D01*
X0264459Y0061884D01*
X0264496Y0061861D01*
X0264530Y0061834D01*
X0264563Y0061805D01*
X0264592Y0061772D01*
X0264619Y0061738D01*
X0264642Y0061701D01*
X0264662Y0061662D01*
X0264679Y0061622D01*
X0264692Y0061580D01*
X0264701Y0061538D01*
X0264707Y0061495D01*
X0264709Y0061451D01*
X0264209Y0044235D02*
X0261709Y0044235D01*
X0261665Y0044233D01*
X0261622Y0044227D01*
X0261580Y0044218D01*
X0261538Y0044205D01*
X0261498Y0044188D01*
X0261459Y0044168D01*
X0261422Y0044145D01*
X0261388Y0044118D01*
X0261355Y0044089D01*
X0261326Y0044056D01*
X0261299Y0044022D01*
X0261276Y0043985D01*
X0261256Y0043946D01*
X0261239Y0043906D01*
X0261226Y0043864D01*
X0261217Y0043822D01*
X0261211Y0043779D01*
X0261209Y0043735D01*
X0261209Y0037903D01*
X0261877Y0037235D01*
X0264041Y0037235D01*
X0264709Y0037903D01*
X0264709Y0043735D01*
X0264707Y0043779D01*
X0264701Y0043822D01*
X0264692Y0043864D01*
X0264679Y0043906D01*
X0264662Y0043946D01*
X0264642Y0043985D01*
X0264619Y0044022D01*
X0264592Y0044056D01*
X0264563Y0044089D01*
X0264530Y0044118D01*
X0264496Y0044145D01*
X0264459Y0044168D01*
X0264420Y0044188D01*
X0264380Y0044205D01*
X0264338Y0044218D01*
X0264296Y0044227D01*
X0264253Y0044233D01*
X0264209Y0044235D01*
X0280894Y0043735D02*
X0280894Y0037903D01*
X0281562Y0037235D01*
X0283726Y0037235D01*
X0284394Y0037903D01*
X0284394Y0043735D01*
X0284392Y0043779D01*
X0284386Y0043822D01*
X0284377Y0043864D01*
X0284364Y0043906D01*
X0284347Y0043946D01*
X0284327Y0043985D01*
X0284304Y0044022D01*
X0284277Y0044056D01*
X0284248Y0044089D01*
X0284215Y0044118D01*
X0284181Y0044145D01*
X0284144Y0044168D01*
X0284105Y0044188D01*
X0284065Y0044205D01*
X0284023Y0044218D01*
X0283981Y0044227D01*
X0283938Y0044233D01*
X0283894Y0044235D01*
X0281394Y0044235D01*
X0281350Y0044233D01*
X0281307Y0044227D01*
X0281265Y0044218D01*
X0281223Y0044205D01*
X0281183Y0044188D01*
X0281144Y0044168D01*
X0281107Y0044145D01*
X0281073Y0044118D01*
X0281040Y0044089D01*
X0281011Y0044056D01*
X0280984Y0044022D01*
X0280961Y0043985D01*
X0280941Y0043946D01*
X0280924Y0043906D01*
X0280911Y0043864D01*
X0280902Y0043822D01*
X0280896Y0043779D01*
X0280894Y0043735D01*
X0221402Y0043735D02*
X0221402Y0037903D01*
X0220734Y0037235D01*
X0218570Y0037235D01*
X0217902Y0037903D01*
X0217902Y0043735D01*
X0217904Y0043779D01*
X0217910Y0043822D01*
X0217919Y0043864D01*
X0217932Y0043906D01*
X0217949Y0043946D01*
X0217969Y0043985D01*
X0217992Y0044022D01*
X0218019Y0044056D01*
X0218048Y0044089D01*
X0218081Y0044118D01*
X0218115Y0044145D01*
X0218152Y0044168D01*
X0218191Y0044188D01*
X0218231Y0044205D01*
X0218273Y0044218D01*
X0218315Y0044227D01*
X0218358Y0044233D01*
X0218402Y0044235D01*
X0220902Y0044235D01*
X0220946Y0044233D01*
X0220989Y0044227D01*
X0221031Y0044218D01*
X0221073Y0044205D01*
X0221113Y0044188D01*
X0221152Y0044168D01*
X0221189Y0044145D01*
X0221223Y0044118D01*
X0221256Y0044089D01*
X0221285Y0044056D01*
X0221312Y0044022D01*
X0221335Y0043985D01*
X0221355Y0043946D01*
X0221372Y0043906D01*
X0221385Y0043864D01*
X0221394Y0043822D01*
X0221400Y0043779D01*
X0221402Y0043735D01*
X0220902Y0054951D02*
X0218402Y0054951D01*
X0218358Y0054953D01*
X0218315Y0054959D01*
X0218273Y0054968D01*
X0218231Y0054981D01*
X0218191Y0054998D01*
X0218152Y0055018D01*
X0218115Y0055041D01*
X0218081Y0055068D01*
X0218048Y0055097D01*
X0218019Y0055130D01*
X0217992Y0055164D01*
X0217969Y0055201D01*
X0217949Y0055240D01*
X0217932Y0055280D01*
X0217919Y0055322D01*
X0217910Y0055364D01*
X0217904Y0055407D01*
X0217902Y0055451D01*
X0217902Y0061451D01*
X0217904Y0061495D01*
X0217910Y0061538D01*
X0217919Y0061580D01*
X0217932Y0061622D01*
X0217949Y0061662D01*
X0217969Y0061701D01*
X0217992Y0061738D01*
X0218019Y0061772D01*
X0218048Y0061805D01*
X0218081Y0061834D01*
X0218115Y0061861D01*
X0218152Y0061884D01*
X0218191Y0061904D01*
X0218231Y0061921D01*
X0218273Y0061934D01*
X0218315Y0061943D01*
X0218358Y0061949D01*
X0218402Y0061951D01*
X0220902Y0061951D01*
X0220946Y0061949D01*
X0220989Y0061943D01*
X0221031Y0061934D01*
X0221073Y0061921D01*
X0221113Y0061904D01*
X0221152Y0061884D01*
X0221189Y0061861D01*
X0221223Y0061834D01*
X0221256Y0061805D01*
X0221285Y0061772D01*
X0221312Y0061738D01*
X0221335Y0061701D01*
X0221355Y0061662D01*
X0221372Y0061622D01*
X0221385Y0061580D01*
X0221394Y0061538D01*
X0221400Y0061495D01*
X0221402Y0061451D01*
X0221402Y0055451D01*
X0221400Y0055407D01*
X0221394Y0055364D01*
X0221385Y0055322D01*
X0221372Y0055280D01*
X0221355Y0055240D01*
X0221335Y0055201D01*
X0221312Y0055164D01*
X0221285Y0055130D01*
X0221256Y0055097D01*
X0221223Y0055068D01*
X0221189Y0055041D01*
X0221152Y0055018D01*
X0221113Y0054998D01*
X0221073Y0054981D01*
X0221031Y0054968D01*
X0220989Y0054959D01*
X0220946Y0054953D01*
X0220902Y0054951D01*
X0193507Y0067349D02*
X0193507Y0069849D01*
X0193505Y0069893D01*
X0193499Y0069936D01*
X0193490Y0069978D01*
X0193477Y0070020D01*
X0193460Y0070060D01*
X0193440Y0070099D01*
X0193417Y0070136D01*
X0193390Y0070170D01*
X0193361Y0070203D01*
X0193328Y0070232D01*
X0193294Y0070259D01*
X0193257Y0070282D01*
X0193218Y0070302D01*
X0193178Y0070319D01*
X0193136Y0070332D01*
X0193094Y0070341D01*
X0193051Y0070347D01*
X0193007Y0070349D01*
X0187007Y0070349D01*
X0186963Y0070347D01*
X0186920Y0070341D01*
X0186878Y0070332D01*
X0186836Y0070319D01*
X0186796Y0070302D01*
X0186757Y0070282D01*
X0186720Y0070259D01*
X0186686Y0070232D01*
X0186653Y0070203D01*
X0186624Y0070170D01*
X0186597Y0070136D01*
X0186574Y0070099D01*
X0186554Y0070060D01*
X0186537Y0070020D01*
X0186524Y0069978D01*
X0186515Y0069936D01*
X0186509Y0069893D01*
X0186507Y0069849D01*
X0186507Y0067349D01*
X0186509Y0067305D01*
X0186515Y0067262D01*
X0186524Y0067220D01*
X0186537Y0067178D01*
X0186554Y0067138D01*
X0186574Y0067099D01*
X0186597Y0067062D01*
X0186624Y0067028D01*
X0186653Y0066995D01*
X0186686Y0066966D01*
X0186720Y0066939D01*
X0186757Y0066916D01*
X0186796Y0066896D01*
X0186836Y0066879D01*
X0186878Y0066866D01*
X0186920Y0066857D01*
X0186963Y0066851D01*
X0187007Y0066849D01*
X0193007Y0066849D01*
X0193051Y0066851D01*
X0193094Y0066857D01*
X0193136Y0066866D01*
X0193178Y0066879D01*
X0193218Y0066896D01*
X0193257Y0066916D01*
X0193294Y0066939D01*
X0193328Y0066966D01*
X0193361Y0066995D01*
X0193390Y0067028D01*
X0193417Y0067062D01*
X0193440Y0067099D01*
X0193460Y0067138D01*
X0193477Y0067178D01*
X0193490Y0067220D01*
X0193499Y0067262D01*
X0193505Y0067305D01*
X0193507Y0067349D01*
X0189406Y0061951D02*
X0186906Y0061951D01*
X0186862Y0061949D01*
X0186819Y0061943D01*
X0186777Y0061934D01*
X0186735Y0061921D01*
X0186695Y0061904D01*
X0186656Y0061884D01*
X0186619Y0061861D01*
X0186585Y0061834D01*
X0186552Y0061805D01*
X0186523Y0061772D01*
X0186496Y0061738D01*
X0186473Y0061701D01*
X0186453Y0061662D01*
X0186436Y0061622D01*
X0186423Y0061580D01*
X0186414Y0061538D01*
X0186408Y0061495D01*
X0186406Y0061451D01*
X0186406Y0055451D01*
X0186408Y0055407D01*
X0186414Y0055364D01*
X0186423Y0055322D01*
X0186436Y0055280D01*
X0186453Y0055240D01*
X0186473Y0055201D01*
X0186496Y0055164D01*
X0186523Y0055130D01*
X0186552Y0055097D01*
X0186585Y0055068D01*
X0186619Y0055041D01*
X0186656Y0055018D01*
X0186695Y0054998D01*
X0186735Y0054981D01*
X0186777Y0054968D01*
X0186819Y0054959D01*
X0186862Y0054953D01*
X0186906Y0054951D01*
X0189406Y0054951D01*
X0189450Y0054953D01*
X0189493Y0054959D01*
X0189535Y0054968D01*
X0189577Y0054981D01*
X0189617Y0054998D01*
X0189656Y0055018D01*
X0189693Y0055041D01*
X0189727Y0055068D01*
X0189760Y0055097D01*
X0189789Y0055130D01*
X0189816Y0055164D01*
X0189839Y0055201D01*
X0189859Y0055240D01*
X0189876Y0055280D01*
X0189889Y0055322D01*
X0189898Y0055364D01*
X0189904Y0055407D01*
X0189906Y0055451D01*
X0189906Y0061451D01*
X0189904Y0061495D01*
X0189898Y0061538D01*
X0189889Y0061580D01*
X0189876Y0061622D01*
X0189859Y0061662D01*
X0189839Y0061701D01*
X0189816Y0061738D01*
X0189789Y0061772D01*
X0189760Y0061805D01*
X0189727Y0061834D01*
X0189693Y0061861D01*
X0189656Y0061884D01*
X0189617Y0061904D01*
X0189577Y0061921D01*
X0189535Y0061934D01*
X0189493Y0061943D01*
X0189450Y0061949D01*
X0189406Y0061951D01*
X0181546Y0075947D02*
X0179046Y0075947D01*
X0179002Y0075949D01*
X0178959Y0075955D01*
X0178917Y0075964D01*
X0178875Y0075977D01*
X0178835Y0075994D01*
X0178796Y0076014D01*
X0178759Y0076037D01*
X0178725Y0076064D01*
X0178692Y0076093D01*
X0178663Y0076126D01*
X0178636Y0076160D01*
X0178613Y0076197D01*
X0178593Y0076236D01*
X0178576Y0076276D01*
X0178563Y0076318D01*
X0178554Y0076360D01*
X0178548Y0076403D01*
X0178546Y0076447D01*
X0178546Y0082447D01*
X0178548Y0082491D01*
X0178554Y0082534D01*
X0178563Y0082576D01*
X0178576Y0082618D01*
X0178593Y0082658D01*
X0178613Y0082697D01*
X0178636Y0082734D01*
X0178663Y0082768D01*
X0178692Y0082801D01*
X0178725Y0082830D01*
X0178759Y0082857D01*
X0178796Y0082880D01*
X0178835Y0082900D01*
X0178875Y0082917D01*
X0178917Y0082930D01*
X0178959Y0082939D01*
X0179002Y0082945D01*
X0179046Y0082947D01*
X0181546Y0082947D01*
X0181590Y0082945D01*
X0181633Y0082939D01*
X0181675Y0082930D01*
X0181717Y0082917D01*
X0181757Y0082900D01*
X0181796Y0082880D01*
X0181833Y0082857D01*
X0181867Y0082830D01*
X0181900Y0082801D01*
X0181929Y0082768D01*
X0181956Y0082734D01*
X0181979Y0082697D01*
X0181999Y0082658D01*
X0182016Y0082618D01*
X0182029Y0082576D01*
X0182038Y0082534D01*
X0182044Y0082491D01*
X0182046Y0082447D01*
X0182046Y0076447D01*
X0182044Y0076403D01*
X0182038Y0076360D01*
X0182029Y0076318D01*
X0182016Y0076276D01*
X0181999Y0076236D01*
X0181979Y0076197D01*
X0181956Y0076160D01*
X0181929Y0076126D01*
X0181900Y0076093D01*
X0181867Y0076064D01*
X0181833Y0076037D01*
X0181796Y0076014D01*
X0181757Y0075994D01*
X0181717Y0075977D01*
X0181675Y0075964D01*
X0181633Y0075955D01*
X0181590Y0075949D01*
X0181546Y0075947D01*
X0202654Y0089597D02*
X0205154Y0089597D01*
X0205198Y0089599D01*
X0205241Y0089605D01*
X0205283Y0089614D01*
X0205325Y0089627D01*
X0205365Y0089644D01*
X0205404Y0089664D01*
X0205441Y0089687D01*
X0205475Y0089714D01*
X0205508Y0089743D01*
X0205537Y0089776D01*
X0205564Y0089810D01*
X0205587Y0089847D01*
X0205607Y0089886D01*
X0205624Y0089926D01*
X0205637Y0089968D01*
X0205646Y0090010D01*
X0205652Y0090053D01*
X0205654Y0090097D01*
X0205654Y0096097D01*
X0205652Y0096141D01*
X0205646Y0096184D01*
X0205637Y0096226D01*
X0205624Y0096268D01*
X0205607Y0096308D01*
X0205587Y0096347D01*
X0205564Y0096384D01*
X0205537Y0096418D01*
X0205508Y0096451D01*
X0205475Y0096480D01*
X0205441Y0096507D01*
X0205404Y0096530D01*
X0205365Y0096550D01*
X0205325Y0096567D01*
X0205283Y0096580D01*
X0205241Y0096589D01*
X0205198Y0096595D01*
X0205154Y0096597D01*
X0202654Y0096597D01*
X0202610Y0096595D01*
X0202567Y0096589D01*
X0202525Y0096580D01*
X0202483Y0096567D01*
X0202443Y0096550D01*
X0202404Y0096530D01*
X0202367Y0096507D01*
X0202333Y0096480D01*
X0202300Y0096451D01*
X0202271Y0096418D01*
X0202244Y0096384D01*
X0202221Y0096347D01*
X0202201Y0096308D01*
X0202184Y0096268D01*
X0202171Y0096226D01*
X0202162Y0096184D01*
X0202156Y0096141D01*
X0202154Y0096097D01*
X0202154Y0090097D01*
X0202156Y0090053D01*
X0202162Y0090010D01*
X0202171Y0089968D01*
X0202184Y0089926D01*
X0202201Y0089886D01*
X0202221Y0089847D01*
X0202244Y0089810D01*
X0202271Y0089776D01*
X0202300Y0089743D01*
X0202333Y0089714D01*
X0202367Y0089687D01*
X0202404Y0089664D01*
X0202443Y0089644D01*
X0202483Y0089627D01*
X0202525Y0089614D01*
X0202567Y0089605D01*
X0202610Y0089599D01*
X0202654Y0089597D01*
X0206485Y0090097D02*
X0206485Y0096097D01*
X0206487Y0096141D01*
X0206493Y0096184D01*
X0206502Y0096226D01*
X0206515Y0096268D01*
X0206532Y0096308D01*
X0206552Y0096347D01*
X0206575Y0096384D01*
X0206602Y0096418D01*
X0206631Y0096451D01*
X0206664Y0096480D01*
X0206698Y0096507D01*
X0206735Y0096530D01*
X0206774Y0096550D01*
X0206814Y0096567D01*
X0206856Y0096580D01*
X0206898Y0096589D01*
X0206941Y0096595D01*
X0206985Y0096597D01*
X0209485Y0096597D01*
X0209529Y0096595D01*
X0209572Y0096589D01*
X0209614Y0096580D01*
X0209656Y0096567D01*
X0209696Y0096550D01*
X0209735Y0096530D01*
X0209772Y0096507D01*
X0209806Y0096480D01*
X0209839Y0096451D01*
X0209868Y0096418D01*
X0209895Y0096384D01*
X0209918Y0096347D01*
X0209938Y0096308D01*
X0209955Y0096268D01*
X0209968Y0096226D01*
X0209977Y0096184D01*
X0209983Y0096141D01*
X0209985Y0096097D01*
X0209985Y0090097D01*
X0209983Y0090053D01*
X0209977Y0090010D01*
X0209968Y0089968D01*
X0209955Y0089926D01*
X0209938Y0089886D01*
X0209918Y0089847D01*
X0209895Y0089810D01*
X0209868Y0089776D01*
X0209839Y0089743D01*
X0209806Y0089714D01*
X0209772Y0089687D01*
X0209735Y0089664D01*
X0209696Y0089644D01*
X0209656Y0089627D01*
X0209614Y0089614D01*
X0209572Y0089605D01*
X0209529Y0089599D01*
X0209485Y0089597D01*
X0206985Y0089597D01*
X0206941Y0089599D01*
X0206898Y0089605D01*
X0206856Y0089614D01*
X0206814Y0089627D01*
X0206774Y0089644D01*
X0206735Y0089664D01*
X0206698Y0089687D01*
X0206664Y0089714D01*
X0206631Y0089743D01*
X0206602Y0089776D01*
X0206575Y0089810D01*
X0206552Y0089847D01*
X0206532Y0089886D01*
X0206515Y0089926D01*
X0206502Y0089968D01*
X0206493Y0090010D01*
X0206487Y0090053D01*
X0206485Y0090097D01*
X0210816Y0090097D02*
X0210816Y0096097D01*
X0210818Y0096141D01*
X0210824Y0096184D01*
X0210833Y0096226D01*
X0210846Y0096268D01*
X0210863Y0096308D01*
X0210883Y0096347D01*
X0210906Y0096384D01*
X0210933Y0096418D01*
X0210962Y0096451D01*
X0210995Y0096480D01*
X0211029Y0096507D01*
X0211066Y0096530D01*
X0211105Y0096550D01*
X0211145Y0096567D01*
X0211187Y0096580D01*
X0211229Y0096589D01*
X0211272Y0096595D01*
X0211316Y0096597D01*
X0213816Y0096597D01*
X0213860Y0096595D01*
X0213903Y0096589D01*
X0213945Y0096580D01*
X0213987Y0096567D01*
X0214027Y0096550D01*
X0214066Y0096530D01*
X0214103Y0096507D01*
X0214137Y0096480D01*
X0214170Y0096451D01*
X0214199Y0096418D01*
X0214226Y0096384D01*
X0214249Y0096347D01*
X0214269Y0096308D01*
X0214286Y0096268D01*
X0214299Y0096226D01*
X0214308Y0096184D01*
X0214314Y0096141D01*
X0214316Y0096097D01*
X0214316Y0090097D01*
X0214314Y0090053D01*
X0214308Y0090010D01*
X0214299Y0089968D01*
X0214286Y0089926D01*
X0214269Y0089886D01*
X0214249Y0089847D01*
X0214226Y0089810D01*
X0214199Y0089776D01*
X0214170Y0089743D01*
X0214137Y0089714D01*
X0214103Y0089687D01*
X0214066Y0089664D01*
X0214027Y0089644D01*
X0213987Y0089627D01*
X0213945Y0089614D01*
X0213903Y0089605D01*
X0213860Y0089599D01*
X0213816Y0089597D01*
X0211316Y0089597D01*
X0211272Y0089599D01*
X0211229Y0089605D01*
X0211187Y0089614D01*
X0211145Y0089627D01*
X0211105Y0089644D01*
X0211066Y0089664D01*
X0211029Y0089687D01*
X0210995Y0089714D01*
X0210962Y0089743D01*
X0210933Y0089776D01*
X0210906Y0089810D01*
X0210883Y0089847D01*
X0210863Y0089886D01*
X0210846Y0089926D01*
X0210833Y0089968D01*
X0210824Y0090010D01*
X0210818Y0090053D01*
X0210816Y0090097D01*
X0215146Y0090097D02*
X0215146Y0096097D01*
X0215148Y0096141D01*
X0215154Y0096184D01*
X0215163Y0096226D01*
X0215176Y0096268D01*
X0215193Y0096308D01*
X0215213Y0096347D01*
X0215236Y0096384D01*
X0215263Y0096418D01*
X0215292Y0096451D01*
X0215325Y0096480D01*
X0215359Y0096507D01*
X0215396Y0096530D01*
X0215435Y0096550D01*
X0215475Y0096567D01*
X0215517Y0096580D01*
X0215559Y0096589D01*
X0215602Y0096595D01*
X0215646Y0096597D01*
X0218146Y0096597D01*
X0218190Y0096595D01*
X0218233Y0096589D01*
X0218275Y0096580D01*
X0218317Y0096567D01*
X0218357Y0096550D01*
X0218396Y0096530D01*
X0218433Y0096507D01*
X0218467Y0096480D01*
X0218500Y0096451D01*
X0218529Y0096418D01*
X0218556Y0096384D01*
X0218579Y0096347D01*
X0218599Y0096308D01*
X0218616Y0096268D01*
X0218629Y0096226D01*
X0218638Y0096184D01*
X0218644Y0096141D01*
X0218646Y0096097D01*
X0218646Y0090097D01*
X0218644Y0090053D01*
X0218638Y0090010D01*
X0218629Y0089968D01*
X0218616Y0089926D01*
X0218599Y0089886D01*
X0218579Y0089847D01*
X0218556Y0089810D01*
X0218529Y0089776D01*
X0218500Y0089743D01*
X0218467Y0089714D01*
X0218433Y0089687D01*
X0218396Y0089664D01*
X0218357Y0089644D01*
X0218317Y0089627D01*
X0218275Y0089614D01*
X0218233Y0089605D01*
X0218190Y0089599D01*
X0218146Y0089597D01*
X0215646Y0089597D01*
X0215602Y0089599D01*
X0215559Y0089605D01*
X0215517Y0089614D01*
X0215475Y0089627D01*
X0215435Y0089644D01*
X0215396Y0089664D01*
X0215359Y0089687D01*
X0215325Y0089714D01*
X0215292Y0089743D01*
X0215263Y0089776D01*
X0215236Y0089810D01*
X0215213Y0089847D01*
X0215193Y0089886D01*
X0215176Y0089926D01*
X0215163Y0089968D01*
X0215154Y0090010D01*
X0215148Y0090053D01*
X0215146Y0090097D01*
X0219477Y0090097D02*
X0219477Y0096097D01*
X0219479Y0096141D01*
X0219485Y0096184D01*
X0219494Y0096226D01*
X0219507Y0096268D01*
X0219524Y0096308D01*
X0219544Y0096347D01*
X0219567Y0096384D01*
X0219594Y0096418D01*
X0219623Y0096451D01*
X0219656Y0096480D01*
X0219690Y0096507D01*
X0219727Y0096530D01*
X0219766Y0096550D01*
X0219806Y0096567D01*
X0219848Y0096580D01*
X0219890Y0096589D01*
X0219933Y0096595D01*
X0219977Y0096597D01*
X0222477Y0096597D01*
X0222521Y0096595D01*
X0222564Y0096589D01*
X0222606Y0096580D01*
X0222648Y0096567D01*
X0222688Y0096550D01*
X0222727Y0096530D01*
X0222764Y0096507D01*
X0222798Y0096480D01*
X0222831Y0096451D01*
X0222860Y0096418D01*
X0222887Y0096384D01*
X0222910Y0096347D01*
X0222930Y0096308D01*
X0222947Y0096268D01*
X0222960Y0096226D01*
X0222969Y0096184D01*
X0222975Y0096141D01*
X0222977Y0096097D01*
X0222977Y0090097D01*
X0222975Y0090053D01*
X0222969Y0090010D01*
X0222960Y0089968D01*
X0222947Y0089926D01*
X0222930Y0089886D01*
X0222910Y0089847D01*
X0222887Y0089810D01*
X0222860Y0089776D01*
X0222831Y0089743D01*
X0222798Y0089714D01*
X0222764Y0089687D01*
X0222727Y0089664D01*
X0222688Y0089644D01*
X0222648Y0089627D01*
X0222606Y0089614D01*
X0222564Y0089605D01*
X0222521Y0089599D01*
X0222477Y0089597D01*
X0219977Y0089597D01*
X0219933Y0089599D01*
X0219890Y0089605D01*
X0219848Y0089614D01*
X0219806Y0089627D01*
X0219766Y0089644D01*
X0219727Y0089664D01*
X0219690Y0089687D01*
X0219656Y0089714D01*
X0219623Y0089743D01*
X0219594Y0089776D01*
X0219567Y0089810D01*
X0219544Y0089847D01*
X0219524Y0089886D01*
X0219507Y0089926D01*
X0219494Y0089968D01*
X0219485Y0090010D01*
X0219479Y0090053D01*
X0219477Y0090097D01*
X0196036Y0093373D02*
X0196036Y0095873D01*
X0196034Y0095917D01*
X0196028Y0095960D01*
X0196019Y0096002D01*
X0196006Y0096044D01*
X0195989Y0096084D01*
X0195969Y0096123D01*
X0195946Y0096160D01*
X0195919Y0096194D01*
X0195890Y0096227D01*
X0195857Y0096256D01*
X0195823Y0096283D01*
X0195786Y0096306D01*
X0195747Y0096326D01*
X0195707Y0096343D01*
X0195665Y0096356D01*
X0195623Y0096365D01*
X0195580Y0096371D01*
X0195536Y0096373D01*
X0189536Y0096373D01*
X0189492Y0096371D01*
X0189449Y0096365D01*
X0189407Y0096356D01*
X0189365Y0096343D01*
X0189325Y0096326D01*
X0189286Y0096306D01*
X0189249Y0096283D01*
X0189215Y0096256D01*
X0189182Y0096227D01*
X0189153Y0096194D01*
X0189126Y0096160D01*
X0189103Y0096123D01*
X0189083Y0096084D01*
X0189066Y0096044D01*
X0189053Y0096002D01*
X0189044Y0095960D01*
X0189038Y0095917D01*
X0189036Y0095873D01*
X0189036Y0093373D01*
X0189038Y0093329D01*
X0189044Y0093286D01*
X0189053Y0093244D01*
X0189066Y0093202D01*
X0189083Y0093162D01*
X0189103Y0093123D01*
X0189126Y0093086D01*
X0189153Y0093052D01*
X0189182Y0093019D01*
X0189215Y0092990D01*
X0189249Y0092963D01*
X0189286Y0092940D01*
X0189325Y0092920D01*
X0189365Y0092903D01*
X0189407Y0092890D01*
X0189449Y0092881D01*
X0189492Y0092875D01*
X0189536Y0092873D01*
X0195536Y0092873D01*
X0195580Y0092875D01*
X0195623Y0092881D01*
X0195665Y0092890D01*
X0195707Y0092903D01*
X0195747Y0092920D01*
X0195786Y0092940D01*
X0195823Y0092963D01*
X0195857Y0092990D01*
X0195890Y0093019D01*
X0195919Y0093052D01*
X0195946Y0093086D01*
X0195969Y0093123D01*
X0195989Y0093162D01*
X0196006Y0093202D01*
X0196019Y0093244D01*
X0196028Y0093286D01*
X0196034Y0093329D01*
X0196036Y0093373D01*
X0180792Y0093502D02*
X0180792Y0096002D01*
X0180790Y0096046D01*
X0180784Y0096089D01*
X0180775Y0096131D01*
X0180762Y0096173D01*
X0180745Y0096213D01*
X0180725Y0096252D01*
X0180702Y0096289D01*
X0180675Y0096323D01*
X0180646Y0096356D01*
X0180613Y0096385D01*
X0180579Y0096412D01*
X0180542Y0096435D01*
X0180503Y0096455D01*
X0180463Y0096472D01*
X0180421Y0096485D01*
X0180379Y0096494D01*
X0180336Y0096500D01*
X0180292Y0096502D01*
X0174292Y0096502D01*
X0174248Y0096500D01*
X0174205Y0096494D01*
X0174163Y0096485D01*
X0174121Y0096472D01*
X0174081Y0096455D01*
X0174042Y0096435D01*
X0174005Y0096412D01*
X0173971Y0096385D01*
X0173938Y0096356D01*
X0173909Y0096323D01*
X0173882Y0096289D01*
X0173859Y0096252D01*
X0173839Y0096213D01*
X0173822Y0096173D01*
X0173809Y0096131D01*
X0173800Y0096089D01*
X0173794Y0096046D01*
X0173792Y0096002D01*
X0173792Y0093502D01*
X0173794Y0093458D01*
X0173800Y0093415D01*
X0173809Y0093373D01*
X0173822Y0093331D01*
X0173839Y0093291D01*
X0173859Y0093252D01*
X0173882Y0093215D01*
X0173909Y0093181D01*
X0173938Y0093148D01*
X0173971Y0093119D01*
X0174005Y0093092D01*
X0174042Y0093069D01*
X0174081Y0093049D01*
X0174121Y0093032D01*
X0174163Y0093019D01*
X0174205Y0093010D01*
X0174248Y0093004D01*
X0174292Y0093002D01*
X0180292Y0093002D01*
X0180336Y0093004D01*
X0180379Y0093010D01*
X0180421Y0093019D01*
X0180463Y0093032D01*
X0180503Y0093049D01*
X0180542Y0093069D01*
X0180579Y0093092D01*
X0180613Y0093119D01*
X0180646Y0093148D01*
X0180675Y0093181D01*
X0180702Y0093215D01*
X0180725Y0093252D01*
X0180745Y0093291D01*
X0180762Y0093331D01*
X0180775Y0093373D01*
X0180784Y0093415D01*
X0180790Y0093458D01*
X0180792Y0093502D01*
X0156479Y0090473D02*
X0156479Y0084473D01*
X0156477Y0084429D01*
X0156471Y0084386D01*
X0156462Y0084344D01*
X0156449Y0084302D01*
X0156432Y0084262D01*
X0156412Y0084223D01*
X0156389Y0084186D01*
X0156362Y0084152D01*
X0156333Y0084119D01*
X0156300Y0084090D01*
X0156266Y0084063D01*
X0156229Y0084040D01*
X0156190Y0084020D01*
X0156150Y0084003D01*
X0156108Y0083990D01*
X0156066Y0083981D01*
X0156023Y0083975D01*
X0155979Y0083973D01*
X0153479Y0083973D01*
X0153435Y0083975D01*
X0153392Y0083981D01*
X0153350Y0083990D01*
X0153308Y0084003D01*
X0153268Y0084020D01*
X0153229Y0084040D01*
X0153192Y0084063D01*
X0153158Y0084090D01*
X0153125Y0084119D01*
X0153096Y0084152D01*
X0153069Y0084186D01*
X0153046Y0084223D01*
X0153026Y0084262D01*
X0153009Y0084302D01*
X0152996Y0084344D01*
X0152987Y0084386D01*
X0152981Y0084429D01*
X0152979Y0084473D01*
X0152979Y0090473D01*
X0152981Y0090517D01*
X0152987Y0090560D01*
X0152996Y0090602D01*
X0153009Y0090644D01*
X0153026Y0090684D01*
X0153046Y0090723D01*
X0153069Y0090760D01*
X0153096Y0090794D01*
X0153125Y0090827D01*
X0153158Y0090856D01*
X0153192Y0090883D01*
X0153229Y0090906D01*
X0153268Y0090926D01*
X0153308Y0090943D01*
X0153350Y0090956D01*
X0153392Y0090965D01*
X0153435Y0090971D01*
X0153479Y0090973D01*
X0155979Y0090973D01*
X0156023Y0090971D01*
X0156066Y0090965D01*
X0156108Y0090956D01*
X0156150Y0090943D01*
X0156190Y0090926D01*
X0156229Y0090906D01*
X0156266Y0090883D01*
X0156300Y0090856D01*
X0156333Y0090827D01*
X0156362Y0090794D01*
X0156389Y0090760D01*
X0156412Y0090723D01*
X0156432Y0090684D01*
X0156449Y0090644D01*
X0156462Y0090602D01*
X0156471Y0090560D01*
X0156477Y0090517D01*
X0156479Y0090473D01*
X0149805Y0090473D02*
X0149805Y0084473D01*
X0149803Y0084429D01*
X0149797Y0084386D01*
X0149788Y0084344D01*
X0149775Y0084302D01*
X0149758Y0084262D01*
X0149738Y0084223D01*
X0149715Y0084186D01*
X0149688Y0084152D01*
X0149659Y0084119D01*
X0149626Y0084090D01*
X0149592Y0084063D01*
X0149555Y0084040D01*
X0149516Y0084020D01*
X0149476Y0084003D01*
X0149434Y0083990D01*
X0149392Y0083981D01*
X0149349Y0083975D01*
X0149305Y0083973D01*
X0146805Y0083973D01*
X0146761Y0083975D01*
X0146718Y0083981D01*
X0146676Y0083990D01*
X0146634Y0084003D01*
X0146594Y0084020D01*
X0146555Y0084040D01*
X0146518Y0084063D01*
X0146484Y0084090D01*
X0146451Y0084119D01*
X0146422Y0084152D01*
X0146395Y0084186D01*
X0146372Y0084223D01*
X0146352Y0084262D01*
X0146335Y0084302D01*
X0146322Y0084344D01*
X0146313Y0084386D01*
X0146307Y0084429D01*
X0146305Y0084473D01*
X0146305Y0090473D01*
X0146307Y0090517D01*
X0146313Y0090560D01*
X0146322Y0090602D01*
X0146335Y0090644D01*
X0146352Y0090684D01*
X0146372Y0090723D01*
X0146395Y0090760D01*
X0146422Y0090794D01*
X0146451Y0090827D01*
X0146484Y0090856D01*
X0146518Y0090883D01*
X0146555Y0090906D01*
X0146594Y0090926D01*
X0146634Y0090943D01*
X0146676Y0090956D01*
X0146718Y0090965D01*
X0146761Y0090971D01*
X0146805Y0090973D01*
X0149305Y0090973D01*
X0149349Y0090971D01*
X0149392Y0090965D01*
X0149434Y0090956D01*
X0149476Y0090943D01*
X0149516Y0090926D01*
X0149555Y0090906D01*
X0149592Y0090883D01*
X0149626Y0090856D01*
X0149659Y0090827D01*
X0149688Y0090794D01*
X0149715Y0090760D01*
X0149738Y0090723D01*
X0149758Y0090684D01*
X0149775Y0090644D01*
X0149788Y0090602D01*
X0149797Y0090560D01*
X0149803Y0090517D01*
X0149805Y0090473D01*
X0129739Y0110245D02*
X0123739Y0110245D01*
X0123695Y0110247D01*
X0123652Y0110253D01*
X0123610Y0110262D01*
X0123568Y0110275D01*
X0123528Y0110292D01*
X0123489Y0110312D01*
X0123452Y0110335D01*
X0123418Y0110362D01*
X0123385Y0110391D01*
X0123356Y0110424D01*
X0123329Y0110458D01*
X0123306Y0110495D01*
X0123286Y0110534D01*
X0123269Y0110574D01*
X0123256Y0110616D01*
X0123247Y0110658D01*
X0123241Y0110701D01*
X0123239Y0110745D01*
X0123239Y0113245D01*
X0123241Y0113289D01*
X0123247Y0113332D01*
X0123256Y0113374D01*
X0123269Y0113416D01*
X0123286Y0113456D01*
X0123306Y0113495D01*
X0123329Y0113532D01*
X0123356Y0113566D01*
X0123385Y0113599D01*
X0123418Y0113628D01*
X0123452Y0113655D01*
X0123489Y0113678D01*
X0123528Y0113698D01*
X0123568Y0113715D01*
X0123610Y0113728D01*
X0123652Y0113737D01*
X0123695Y0113743D01*
X0123739Y0113745D01*
X0129739Y0113745D01*
X0129783Y0113743D01*
X0129826Y0113737D01*
X0129868Y0113728D01*
X0129910Y0113715D01*
X0129950Y0113698D01*
X0129989Y0113678D01*
X0130026Y0113655D01*
X0130060Y0113628D01*
X0130093Y0113599D01*
X0130122Y0113566D01*
X0130149Y0113532D01*
X0130172Y0113495D01*
X0130192Y0113456D01*
X0130209Y0113416D01*
X0130222Y0113374D01*
X0130231Y0113332D01*
X0130237Y0113289D01*
X0130239Y0113245D01*
X0130239Y0110745D01*
X0130237Y0110701D01*
X0130231Y0110658D01*
X0130222Y0110616D01*
X0130209Y0110574D01*
X0130192Y0110534D01*
X0130172Y0110495D01*
X0130149Y0110458D01*
X0130122Y0110424D01*
X0130093Y0110391D01*
X0130060Y0110362D01*
X0130026Y0110335D01*
X0129989Y0110312D01*
X0129950Y0110292D01*
X0129910Y0110275D01*
X0129868Y0110262D01*
X0129826Y0110253D01*
X0129783Y0110247D01*
X0129739Y0110245D01*
X0129739Y0114969D02*
X0123739Y0114969D01*
X0123695Y0114971D01*
X0123652Y0114977D01*
X0123610Y0114986D01*
X0123568Y0114999D01*
X0123528Y0115016D01*
X0123489Y0115036D01*
X0123452Y0115059D01*
X0123418Y0115086D01*
X0123385Y0115115D01*
X0123356Y0115148D01*
X0123329Y0115182D01*
X0123306Y0115219D01*
X0123286Y0115258D01*
X0123269Y0115298D01*
X0123256Y0115340D01*
X0123247Y0115382D01*
X0123241Y0115425D01*
X0123239Y0115469D01*
X0123239Y0117969D01*
X0123241Y0118013D01*
X0123247Y0118056D01*
X0123256Y0118098D01*
X0123269Y0118140D01*
X0123286Y0118180D01*
X0123306Y0118219D01*
X0123329Y0118256D01*
X0123356Y0118290D01*
X0123385Y0118323D01*
X0123418Y0118352D01*
X0123452Y0118379D01*
X0123489Y0118402D01*
X0123528Y0118422D01*
X0123568Y0118439D01*
X0123610Y0118452D01*
X0123652Y0118461D01*
X0123695Y0118467D01*
X0123739Y0118469D01*
X0129739Y0118469D01*
X0129783Y0118467D01*
X0129826Y0118461D01*
X0129868Y0118452D01*
X0129910Y0118439D01*
X0129950Y0118422D01*
X0129989Y0118402D01*
X0130026Y0118379D01*
X0130060Y0118352D01*
X0130093Y0118323D01*
X0130122Y0118290D01*
X0130149Y0118256D01*
X0130172Y0118219D01*
X0130192Y0118180D01*
X0130209Y0118140D01*
X0130222Y0118098D01*
X0130231Y0118056D01*
X0130237Y0118013D01*
X0130239Y0117969D01*
X0130239Y0115469D01*
X0130237Y0115425D01*
X0130231Y0115382D01*
X0130222Y0115340D01*
X0130209Y0115298D01*
X0130192Y0115258D01*
X0130172Y0115219D01*
X0130149Y0115182D01*
X0130122Y0115148D01*
X0130093Y0115115D01*
X0130060Y0115086D01*
X0130026Y0115059D01*
X0129989Y0115036D01*
X0129950Y0115016D01*
X0129910Y0114999D01*
X0129868Y0114986D01*
X0129826Y0114977D01*
X0129783Y0114971D01*
X0129739Y0114969D01*
X0129739Y0122056D02*
X0123739Y0122056D01*
X0123695Y0122058D01*
X0123652Y0122064D01*
X0123610Y0122073D01*
X0123568Y0122086D01*
X0123528Y0122103D01*
X0123489Y0122123D01*
X0123452Y0122146D01*
X0123418Y0122173D01*
X0123385Y0122202D01*
X0123356Y0122235D01*
X0123329Y0122269D01*
X0123306Y0122306D01*
X0123286Y0122345D01*
X0123269Y0122385D01*
X0123256Y0122427D01*
X0123247Y0122469D01*
X0123241Y0122512D01*
X0123239Y0122556D01*
X0123239Y0125056D01*
X0123241Y0125100D01*
X0123247Y0125143D01*
X0123256Y0125185D01*
X0123269Y0125227D01*
X0123286Y0125267D01*
X0123306Y0125306D01*
X0123329Y0125343D01*
X0123356Y0125377D01*
X0123385Y0125410D01*
X0123418Y0125439D01*
X0123452Y0125466D01*
X0123489Y0125489D01*
X0123528Y0125509D01*
X0123568Y0125526D01*
X0123610Y0125539D01*
X0123652Y0125548D01*
X0123695Y0125554D01*
X0123739Y0125556D01*
X0129739Y0125556D01*
X0129783Y0125554D01*
X0129826Y0125548D01*
X0129868Y0125539D01*
X0129910Y0125526D01*
X0129950Y0125509D01*
X0129989Y0125489D01*
X0130026Y0125466D01*
X0130060Y0125439D01*
X0130093Y0125410D01*
X0130122Y0125377D01*
X0130149Y0125343D01*
X0130172Y0125306D01*
X0130192Y0125267D01*
X0130209Y0125227D01*
X0130222Y0125185D01*
X0130231Y0125143D01*
X0130237Y0125100D01*
X0130239Y0125056D01*
X0130239Y0122556D01*
X0130237Y0122512D01*
X0130231Y0122469D01*
X0130222Y0122427D01*
X0130209Y0122385D01*
X0130192Y0122345D01*
X0130172Y0122306D01*
X0130149Y0122269D01*
X0130122Y0122235D01*
X0130093Y0122202D01*
X0130060Y0122173D01*
X0130026Y0122146D01*
X0129989Y0122123D01*
X0129950Y0122103D01*
X0129910Y0122086D01*
X0129868Y0122073D01*
X0129826Y0122064D01*
X0129783Y0122058D01*
X0129739Y0122056D01*
X0114119Y0132247D02*
X0114119Y0138079D01*
X0113451Y0138747D01*
X0111287Y0138747D01*
X0110619Y0138079D01*
X0110619Y0132247D01*
X0110621Y0132203D01*
X0110627Y0132160D01*
X0110636Y0132118D01*
X0110649Y0132076D01*
X0110666Y0132036D01*
X0110686Y0131997D01*
X0110709Y0131960D01*
X0110736Y0131926D01*
X0110765Y0131893D01*
X0110798Y0131864D01*
X0110832Y0131837D01*
X0110869Y0131814D01*
X0110908Y0131794D01*
X0110948Y0131777D01*
X0110990Y0131764D01*
X0111032Y0131755D01*
X0111075Y0131749D01*
X0111119Y0131747D01*
X0113619Y0131747D01*
X0113663Y0131749D01*
X0113706Y0131755D01*
X0113748Y0131764D01*
X0113790Y0131777D01*
X0113830Y0131794D01*
X0113869Y0131814D01*
X0113906Y0131837D01*
X0113940Y0131864D01*
X0113973Y0131893D01*
X0114002Y0131926D01*
X0114029Y0131960D01*
X0114052Y0131997D01*
X0114072Y0132036D01*
X0114089Y0132076D01*
X0114102Y0132118D01*
X0114111Y0132160D01*
X0114117Y0132203D01*
X0114119Y0132247D01*
X0108764Y0132412D02*
X0108764Y0138412D01*
X0108762Y0138456D01*
X0108756Y0138499D01*
X0108747Y0138541D01*
X0108734Y0138583D01*
X0108717Y0138623D01*
X0108697Y0138662D01*
X0108674Y0138699D01*
X0108647Y0138733D01*
X0108618Y0138766D01*
X0108585Y0138795D01*
X0108551Y0138822D01*
X0108514Y0138845D01*
X0108475Y0138865D01*
X0108435Y0138882D01*
X0108393Y0138895D01*
X0108351Y0138904D01*
X0108308Y0138910D01*
X0108264Y0138912D01*
X0105764Y0138912D01*
X0105720Y0138910D01*
X0105677Y0138904D01*
X0105635Y0138895D01*
X0105593Y0138882D01*
X0105553Y0138865D01*
X0105514Y0138845D01*
X0105477Y0138822D01*
X0105443Y0138795D01*
X0105410Y0138766D01*
X0105381Y0138733D01*
X0105354Y0138699D01*
X0105331Y0138662D01*
X0105311Y0138623D01*
X0105294Y0138583D01*
X0105281Y0138541D01*
X0105272Y0138499D01*
X0105266Y0138456D01*
X0105264Y0138412D01*
X0105264Y0132412D01*
X0105266Y0132368D01*
X0105272Y0132325D01*
X0105281Y0132283D01*
X0105294Y0132241D01*
X0105311Y0132201D01*
X0105331Y0132162D01*
X0105354Y0132125D01*
X0105381Y0132091D01*
X0105410Y0132058D01*
X0105443Y0132029D01*
X0105477Y0132002D01*
X0105514Y0131979D01*
X0105553Y0131959D01*
X0105593Y0131942D01*
X0105635Y0131929D01*
X0105677Y0131920D01*
X0105720Y0131914D01*
X0105764Y0131912D01*
X0108264Y0131912D01*
X0108308Y0131914D01*
X0108351Y0131920D01*
X0108393Y0131929D01*
X0108435Y0131942D01*
X0108475Y0131959D01*
X0108514Y0131979D01*
X0108551Y0132002D01*
X0108585Y0132029D01*
X0108618Y0132058D01*
X0108647Y0132091D01*
X0108674Y0132125D01*
X0108697Y0132162D01*
X0108717Y0132201D01*
X0108734Y0132241D01*
X0108747Y0132283D01*
X0108756Y0132325D01*
X0108762Y0132368D01*
X0108764Y0132412D01*
X0103670Y0132247D02*
X0103670Y0138247D01*
X0103668Y0138291D01*
X0103662Y0138334D01*
X0103653Y0138376D01*
X0103640Y0138418D01*
X0103623Y0138458D01*
X0103603Y0138497D01*
X0103580Y0138534D01*
X0103553Y0138568D01*
X0103524Y0138601D01*
X0103491Y0138630D01*
X0103457Y0138657D01*
X0103420Y0138680D01*
X0103381Y0138700D01*
X0103341Y0138717D01*
X0103299Y0138730D01*
X0103257Y0138739D01*
X0103214Y0138745D01*
X0103170Y0138747D01*
X0100670Y0138747D01*
X0100626Y0138745D01*
X0100583Y0138739D01*
X0100541Y0138730D01*
X0100499Y0138717D01*
X0100459Y0138700D01*
X0100420Y0138680D01*
X0100383Y0138657D01*
X0100349Y0138630D01*
X0100316Y0138601D01*
X0100287Y0138568D01*
X0100260Y0138534D01*
X0100237Y0138497D01*
X0100217Y0138458D01*
X0100200Y0138418D01*
X0100187Y0138376D01*
X0100178Y0138334D01*
X0100172Y0138291D01*
X0100170Y0138247D01*
X0100170Y0132247D01*
X0100172Y0132203D01*
X0100178Y0132160D01*
X0100187Y0132118D01*
X0100200Y0132076D01*
X0100217Y0132036D01*
X0100237Y0131997D01*
X0100260Y0131960D01*
X0100287Y0131926D01*
X0100316Y0131893D01*
X0100349Y0131864D01*
X0100383Y0131837D01*
X0100420Y0131814D01*
X0100459Y0131794D01*
X0100499Y0131777D01*
X0100541Y0131764D01*
X0100583Y0131755D01*
X0100626Y0131749D01*
X0100670Y0131747D01*
X0103170Y0131747D01*
X0103214Y0131749D01*
X0103257Y0131755D01*
X0103299Y0131764D01*
X0103341Y0131777D01*
X0103381Y0131794D01*
X0103420Y0131814D01*
X0103457Y0131837D01*
X0103491Y0131864D01*
X0103524Y0131893D01*
X0103553Y0131926D01*
X0103580Y0131960D01*
X0103603Y0131997D01*
X0103623Y0132036D01*
X0103640Y0132076D01*
X0103653Y0132118D01*
X0103662Y0132160D01*
X0103668Y0132203D01*
X0103670Y0132247D01*
X0123239Y0136516D02*
X0123239Y0139016D01*
X0123241Y0139060D01*
X0123247Y0139103D01*
X0123256Y0139145D01*
X0123269Y0139187D01*
X0123286Y0139227D01*
X0123306Y0139266D01*
X0123329Y0139303D01*
X0123356Y0139337D01*
X0123385Y0139370D01*
X0123418Y0139399D01*
X0123452Y0139426D01*
X0123489Y0139449D01*
X0123528Y0139469D01*
X0123568Y0139486D01*
X0123610Y0139499D01*
X0123652Y0139508D01*
X0123695Y0139514D01*
X0123739Y0139516D01*
X0129739Y0139516D01*
X0129783Y0139514D01*
X0129826Y0139508D01*
X0129868Y0139499D01*
X0129910Y0139486D01*
X0129950Y0139469D01*
X0129989Y0139449D01*
X0130026Y0139426D01*
X0130060Y0139399D01*
X0130093Y0139370D01*
X0130122Y0139337D01*
X0130149Y0139303D01*
X0130172Y0139266D01*
X0130192Y0139227D01*
X0130209Y0139187D01*
X0130222Y0139145D01*
X0130231Y0139103D01*
X0130237Y0139060D01*
X0130239Y0139016D01*
X0130239Y0136516D01*
X0130237Y0136472D01*
X0130231Y0136429D01*
X0130222Y0136387D01*
X0130209Y0136345D01*
X0130192Y0136305D01*
X0130172Y0136266D01*
X0130149Y0136229D01*
X0130122Y0136195D01*
X0130093Y0136162D01*
X0130060Y0136133D01*
X0130026Y0136106D01*
X0129989Y0136083D01*
X0129950Y0136063D01*
X0129910Y0136046D01*
X0129868Y0136033D01*
X0129826Y0136024D01*
X0129783Y0136018D01*
X0129739Y0136016D01*
X0123739Y0136016D01*
X0123695Y0136018D01*
X0123652Y0136024D01*
X0123610Y0136033D01*
X0123568Y0136046D01*
X0123528Y0136063D01*
X0123489Y0136083D01*
X0123452Y0136106D01*
X0123418Y0136133D01*
X0123385Y0136162D01*
X0123356Y0136195D01*
X0123329Y0136229D01*
X0123306Y0136266D01*
X0123286Y0136305D01*
X0123269Y0136345D01*
X0123256Y0136387D01*
X0123247Y0136429D01*
X0123241Y0136472D01*
X0123239Y0136516D01*
X0104357Y0152083D02*
X0104357Y0154583D01*
X0104355Y0154627D01*
X0104349Y0154670D01*
X0104340Y0154712D01*
X0104327Y0154754D01*
X0104310Y0154794D01*
X0104290Y0154833D01*
X0104267Y0154870D01*
X0104240Y0154904D01*
X0104211Y0154937D01*
X0104178Y0154966D01*
X0104144Y0154993D01*
X0104107Y0155016D01*
X0104068Y0155036D01*
X0104028Y0155053D01*
X0103986Y0155066D01*
X0103944Y0155075D01*
X0103901Y0155081D01*
X0103857Y0155083D01*
X0097857Y0155083D01*
X0097813Y0155081D01*
X0097770Y0155075D01*
X0097728Y0155066D01*
X0097686Y0155053D01*
X0097646Y0155036D01*
X0097607Y0155016D01*
X0097570Y0154993D01*
X0097536Y0154966D01*
X0097503Y0154937D01*
X0097474Y0154904D01*
X0097447Y0154870D01*
X0097424Y0154833D01*
X0097404Y0154794D01*
X0097387Y0154754D01*
X0097374Y0154712D01*
X0097365Y0154670D01*
X0097359Y0154627D01*
X0097357Y0154583D01*
X0097357Y0152083D01*
X0097359Y0152039D01*
X0097365Y0151996D01*
X0097374Y0151954D01*
X0097387Y0151912D01*
X0097404Y0151872D01*
X0097424Y0151833D01*
X0097447Y0151796D01*
X0097474Y0151762D01*
X0097503Y0151729D01*
X0097536Y0151700D01*
X0097570Y0151673D01*
X0097607Y0151650D01*
X0097646Y0151630D01*
X0097686Y0151613D01*
X0097728Y0151600D01*
X0097770Y0151591D01*
X0097813Y0151585D01*
X0097857Y0151583D01*
X0103857Y0151583D01*
X0103901Y0151585D01*
X0103944Y0151591D01*
X0103986Y0151600D01*
X0104028Y0151613D01*
X0104068Y0151630D01*
X0104107Y0151650D01*
X0104144Y0151673D01*
X0104178Y0151700D01*
X0104211Y0151729D01*
X0104240Y0151762D01*
X0104267Y0151796D01*
X0104290Y0151833D01*
X0104310Y0151872D01*
X0104327Y0151912D01*
X0104340Y0151954D01*
X0104349Y0151996D01*
X0104355Y0152039D01*
X0104357Y0152083D01*
X0122845Y0155808D02*
X0122845Y0158308D01*
X0122847Y0158352D01*
X0122853Y0158395D01*
X0122862Y0158437D01*
X0122875Y0158479D01*
X0122892Y0158519D01*
X0122912Y0158558D01*
X0122935Y0158595D01*
X0122962Y0158629D01*
X0122991Y0158662D01*
X0123024Y0158691D01*
X0123058Y0158718D01*
X0123095Y0158741D01*
X0123134Y0158761D01*
X0123174Y0158778D01*
X0123216Y0158791D01*
X0123258Y0158800D01*
X0123301Y0158806D01*
X0123345Y0158808D01*
X0129345Y0158808D01*
X0129389Y0158806D01*
X0129432Y0158800D01*
X0129474Y0158791D01*
X0129516Y0158778D01*
X0129556Y0158761D01*
X0129595Y0158741D01*
X0129632Y0158718D01*
X0129666Y0158691D01*
X0129699Y0158662D01*
X0129728Y0158629D01*
X0129755Y0158595D01*
X0129778Y0158558D01*
X0129798Y0158519D01*
X0129815Y0158479D01*
X0129828Y0158437D01*
X0129837Y0158395D01*
X0129843Y0158352D01*
X0129845Y0158308D01*
X0129845Y0155808D01*
X0129843Y0155764D01*
X0129837Y0155721D01*
X0129828Y0155679D01*
X0129815Y0155637D01*
X0129798Y0155597D01*
X0129778Y0155558D01*
X0129755Y0155521D01*
X0129728Y0155487D01*
X0129699Y0155454D01*
X0129666Y0155425D01*
X0129632Y0155398D01*
X0129595Y0155375D01*
X0129556Y0155355D01*
X0129516Y0155338D01*
X0129474Y0155325D01*
X0129432Y0155316D01*
X0129389Y0155310D01*
X0129345Y0155308D01*
X0123345Y0155308D01*
X0123301Y0155310D01*
X0123258Y0155316D01*
X0123216Y0155325D01*
X0123174Y0155338D01*
X0123134Y0155355D01*
X0123095Y0155375D01*
X0123058Y0155398D01*
X0123024Y0155425D01*
X0122991Y0155454D01*
X0122962Y0155487D01*
X0122935Y0155521D01*
X0122912Y0155558D01*
X0122892Y0155597D01*
X0122875Y0155637D01*
X0122862Y0155679D01*
X0122853Y0155721D01*
X0122847Y0155764D01*
X0122845Y0155808D01*
X0104499Y0174154D02*
X0104499Y0176654D01*
X0104497Y0176698D01*
X0104491Y0176741D01*
X0104482Y0176783D01*
X0104469Y0176825D01*
X0104452Y0176865D01*
X0104432Y0176904D01*
X0104409Y0176941D01*
X0104382Y0176975D01*
X0104353Y0177008D01*
X0104320Y0177037D01*
X0104286Y0177064D01*
X0104249Y0177087D01*
X0104210Y0177107D01*
X0104170Y0177124D01*
X0104128Y0177137D01*
X0104086Y0177146D01*
X0104043Y0177152D01*
X0103999Y0177154D01*
X0097999Y0177154D01*
X0097955Y0177152D01*
X0097912Y0177146D01*
X0097870Y0177137D01*
X0097828Y0177124D01*
X0097788Y0177107D01*
X0097749Y0177087D01*
X0097712Y0177064D01*
X0097678Y0177037D01*
X0097645Y0177008D01*
X0097616Y0176975D01*
X0097589Y0176941D01*
X0097566Y0176904D01*
X0097546Y0176865D01*
X0097529Y0176825D01*
X0097516Y0176783D01*
X0097507Y0176741D01*
X0097501Y0176698D01*
X0097499Y0176654D01*
X0097499Y0174154D01*
X0097501Y0174110D01*
X0097507Y0174067D01*
X0097516Y0174025D01*
X0097529Y0173983D01*
X0097546Y0173943D01*
X0097566Y0173904D01*
X0097589Y0173867D01*
X0097616Y0173833D01*
X0097645Y0173800D01*
X0097678Y0173771D01*
X0097712Y0173744D01*
X0097749Y0173721D01*
X0097788Y0173701D01*
X0097828Y0173684D01*
X0097870Y0173671D01*
X0097912Y0173662D01*
X0097955Y0173656D01*
X0097999Y0173654D01*
X0103999Y0173654D01*
X0104043Y0173656D01*
X0104086Y0173662D01*
X0104128Y0173671D01*
X0104170Y0173684D01*
X0104210Y0173701D01*
X0104249Y0173721D01*
X0104286Y0173744D01*
X0104320Y0173771D01*
X0104353Y0173800D01*
X0104382Y0173833D01*
X0104409Y0173867D01*
X0104432Y0173904D01*
X0104452Y0173943D01*
X0104469Y0173983D01*
X0104482Y0174025D01*
X0104491Y0174067D01*
X0104497Y0174110D01*
X0104499Y0174154D01*
X0115974Y0187129D02*
X0118474Y0187129D01*
X0118518Y0187131D01*
X0118561Y0187137D01*
X0118603Y0187146D01*
X0118645Y0187159D01*
X0118685Y0187176D01*
X0118724Y0187196D01*
X0118761Y0187219D01*
X0118795Y0187246D01*
X0118828Y0187275D01*
X0118857Y0187308D01*
X0118884Y0187342D01*
X0118907Y0187379D01*
X0118927Y0187418D01*
X0118944Y0187458D01*
X0118957Y0187500D01*
X0118966Y0187542D01*
X0118972Y0187585D01*
X0118974Y0187629D01*
X0118974Y0193629D01*
X0118972Y0193673D01*
X0118966Y0193716D01*
X0118957Y0193758D01*
X0118944Y0193800D01*
X0118927Y0193840D01*
X0118907Y0193879D01*
X0118884Y0193916D01*
X0118857Y0193950D01*
X0118828Y0193983D01*
X0118795Y0194012D01*
X0118761Y0194039D01*
X0118724Y0194062D01*
X0118685Y0194082D01*
X0118645Y0194099D01*
X0118603Y0194112D01*
X0118561Y0194121D01*
X0118518Y0194127D01*
X0118474Y0194129D01*
X0115974Y0194129D01*
X0115930Y0194127D01*
X0115887Y0194121D01*
X0115845Y0194112D01*
X0115803Y0194099D01*
X0115763Y0194082D01*
X0115724Y0194062D01*
X0115687Y0194039D01*
X0115653Y0194012D01*
X0115620Y0193983D01*
X0115591Y0193950D01*
X0115564Y0193916D01*
X0115541Y0193879D01*
X0115521Y0193840D01*
X0115504Y0193800D01*
X0115491Y0193758D01*
X0115482Y0193716D01*
X0115476Y0193673D01*
X0115474Y0193629D01*
X0115474Y0187629D01*
X0115476Y0187585D01*
X0115482Y0187542D01*
X0115491Y0187500D01*
X0115504Y0187458D01*
X0115521Y0187418D01*
X0115541Y0187379D01*
X0115564Y0187342D01*
X0115591Y0187308D01*
X0115620Y0187275D01*
X0115653Y0187246D01*
X0115687Y0187219D01*
X0115724Y0187196D01*
X0115763Y0187176D01*
X0115803Y0187159D01*
X0115845Y0187146D01*
X0115887Y0187137D01*
X0115930Y0187131D01*
X0115974Y0187129D01*
X0115974Y0197929D02*
X0118474Y0197929D01*
X0118518Y0197931D01*
X0118561Y0197937D01*
X0118603Y0197946D01*
X0118645Y0197959D01*
X0118685Y0197976D01*
X0118724Y0197996D01*
X0118761Y0198019D01*
X0118795Y0198046D01*
X0118828Y0198075D01*
X0118857Y0198108D01*
X0118884Y0198142D01*
X0118907Y0198179D01*
X0118927Y0198218D01*
X0118944Y0198258D01*
X0118957Y0198300D01*
X0118966Y0198342D01*
X0118972Y0198385D01*
X0118974Y0198429D01*
X0118974Y0204429D01*
X0118972Y0204473D01*
X0118966Y0204516D01*
X0118957Y0204558D01*
X0118944Y0204600D01*
X0118927Y0204640D01*
X0118907Y0204679D01*
X0118884Y0204716D01*
X0118857Y0204750D01*
X0118828Y0204783D01*
X0118795Y0204812D01*
X0118761Y0204839D01*
X0118724Y0204862D01*
X0118685Y0204882D01*
X0118645Y0204899D01*
X0118603Y0204912D01*
X0118561Y0204921D01*
X0118518Y0204927D01*
X0118474Y0204929D01*
X0115974Y0204929D01*
X0115930Y0204927D01*
X0115887Y0204921D01*
X0115845Y0204912D01*
X0115803Y0204899D01*
X0115763Y0204882D01*
X0115724Y0204862D01*
X0115687Y0204839D01*
X0115653Y0204812D01*
X0115620Y0204783D01*
X0115591Y0204750D01*
X0115564Y0204716D01*
X0115541Y0204679D01*
X0115521Y0204640D01*
X0115504Y0204600D01*
X0115491Y0204558D01*
X0115482Y0204516D01*
X0115476Y0204473D01*
X0115474Y0204429D01*
X0115474Y0198429D01*
X0115476Y0198385D01*
X0115482Y0198342D01*
X0115491Y0198300D01*
X0115504Y0198258D01*
X0115521Y0198218D01*
X0115541Y0198179D01*
X0115564Y0198142D01*
X0115591Y0198108D01*
X0115620Y0198075D01*
X0115653Y0198046D01*
X0115687Y0198019D01*
X0115724Y0197996D01*
X0115763Y0197976D01*
X0115803Y0197959D01*
X0115845Y0197946D01*
X0115887Y0197937D01*
X0115930Y0197931D01*
X0115974Y0197929D01*
X0145461Y0196790D02*
X0145461Y0202790D01*
X0145463Y0202834D01*
X0145469Y0202877D01*
X0145478Y0202919D01*
X0145491Y0202961D01*
X0145508Y0203001D01*
X0145528Y0203040D01*
X0145551Y0203077D01*
X0145578Y0203111D01*
X0145607Y0203144D01*
X0145640Y0203173D01*
X0145674Y0203200D01*
X0145711Y0203223D01*
X0145750Y0203243D01*
X0145790Y0203260D01*
X0145832Y0203273D01*
X0145874Y0203282D01*
X0145917Y0203288D01*
X0145961Y0203290D01*
X0148461Y0203290D01*
X0148505Y0203288D01*
X0148548Y0203282D01*
X0148590Y0203273D01*
X0148632Y0203260D01*
X0148672Y0203243D01*
X0148711Y0203223D01*
X0148748Y0203200D01*
X0148782Y0203173D01*
X0148815Y0203144D01*
X0148844Y0203111D01*
X0148871Y0203077D01*
X0148894Y0203040D01*
X0148914Y0203001D01*
X0148931Y0202961D01*
X0148944Y0202919D01*
X0148953Y0202877D01*
X0148959Y0202834D01*
X0148961Y0202790D01*
X0148961Y0196790D01*
X0148959Y0196746D01*
X0148953Y0196703D01*
X0148944Y0196661D01*
X0148931Y0196619D01*
X0148914Y0196579D01*
X0148894Y0196540D01*
X0148871Y0196503D01*
X0148844Y0196469D01*
X0148815Y0196436D01*
X0148782Y0196407D01*
X0148748Y0196380D01*
X0148711Y0196357D01*
X0148672Y0196337D01*
X0148632Y0196320D01*
X0148590Y0196307D01*
X0148548Y0196298D01*
X0148505Y0196292D01*
X0148461Y0196290D01*
X0145961Y0196290D01*
X0145917Y0196292D01*
X0145874Y0196298D01*
X0145832Y0196307D01*
X0145790Y0196320D01*
X0145750Y0196337D01*
X0145711Y0196357D01*
X0145674Y0196380D01*
X0145640Y0196407D01*
X0145607Y0196436D01*
X0145578Y0196469D01*
X0145551Y0196503D01*
X0145528Y0196540D01*
X0145508Y0196579D01*
X0145491Y0196619D01*
X0145478Y0196661D01*
X0145469Y0196703D01*
X0145463Y0196746D01*
X0145461Y0196790D01*
X0149792Y0196790D02*
X0149792Y0202790D01*
X0149794Y0202834D01*
X0149800Y0202877D01*
X0149809Y0202919D01*
X0149822Y0202961D01*
X0149839Y0203001D01*
X0149859Y0203040D01*
X0149882Y0203077D01*
X0149909Y0203111D01*
X0149938Y0203144D01*
X0149971Y0203173D01*
X0150005Y0203200D01*
X0150042Y0203223D01*
X0150081Y0203243D01*
X0150121Y0203260D01*
X0150163Y0203273D01*
X0150205Y0203282D01*
X0150248Y0203288D01*
X0150292Y0203290D01*
X0152792Y0203290D01*
X0152836Y0203288D01*
X0152879Y0203282D01*
X0152921Y0203273D01*
X0152963Y0203260D01*
X0153003Y0203243D01*
X0153042Y0203223D01*
X0153079Y0203200D01*
X0153113Y0203173D01*
X0153146Y0203144D01*
X0153175Y0203111D01*
X0153202Y0203077D01*
X0153225Y0203040D01*
X0153245Y0203001D01*
X0153262Y0202961D01*
X0153275Y0202919D01*
X0153284Y0202877D01*
X0153290Y0202834D01*
X0153292Y0202790D01*
X0153292Y0196790D01*
X0153290Y0196746D01*
X0153284Y0196703D01*
X0153275Y0196661D01*
X0153262Y0196619D01*
X0153245Y0196579D01*
X0153225Y0196540D01*
X0153202Y0196503D01*
X0153175Y0196469D01*
X0153146Y0196436D01*
X0153113Y0196407D01*
X0153079Y0196380D01*
X0153042Y0196357D01*
X0153003Y0196337D01*
X0152963Y0196320D01*
X0152921Y0196307D01*
X0152879Y0196298D01*
X0152836Y0196292D01*
X0152792Y0196290D01*
X0150292Y0196290D01*
X0150248Y0196292D01*
X0150205Y0196298D01*
X0150163Y0196307D01*
X0150121Y0196320D01*
X0150081Y0196337D01*
X0150042Y0196357D01*
X0150005Y0196380D01*
X0149971Y0196407D01*
X0149938Y0196436D01*
X0149909Y0196469D01*
X0149882Y0196503D01*
X0149859Y0196540D01*
X0149839Y0196579D01*
X0149822Y0196619D01*
X0149809Y0196661D01*
X0149800Y0196703D01*
X0149794Y0196746D01*
X0149792Y0196790D01*
X0171446Y0197184D02*
X0171446Y0203184D01*
X0171448Y0203228D01*
X0171454Y0203271D01*
X0171463Y0203313D01*
X0171476Y0203355D01*
X0171493Y0203395D01*
X0171513Y0203434D01*
X0171536Y0203471D01*
X0171563Y0203505D01*
X0171592Y0203538D01*
X0171625Y0203567D01*
X0171659Y0203594D01*
X0171696Y0203617D01*
X0171735Y0203637D01*
X0171775Y0203654D01*
X0171817Y0203667D01*
X0171859Y0203676D01*
X0171902Y0203682D01*
X0171946Y0203684D01*
X0174446Y0203684D01*
X0174490Y0203682D01*
X0174533Y0203676D01*
X0174575Y0203667D01*
X0174617Y0203654D01*
X0174657Y0203637D01*
X0174696Y0203617D01*
X0174733Y0203594D01*
X0174767Y0203567D01*
X0174800Y0203538D01*
X0174829Y0203505D01*
X0174856Y0203471D01*
X0174879Y0203434D01*
X0174899Y0203395D01*
X0174916Y0203355D01*
X0174929Y0203313D01*
X0174938Y0203271D01*
X0174944Y0203228D01*
X0174946Y0203184D01*
X0174946Y0197184D01*
X0174944Y0197140D01*
X0174938Y0197097D01*
X0174929Y0197055D01*
X0174916Y0197013D01*
X0174899Y0196973D01*
X0174879Y0196934D01*
X0174856Y0196897D01*
X0174829Y0196863D01*
X0174800Y0196830D01*
X0174767Y0196801D01*
X0174733Y0196774D01*
X0174696Y0196751D01*
X0174657Y0196731D01*
X0174617Y0196714D01*
X0174575Y0196701D01*
X0174533Y0196692D01*
X0174490Y0196686D01*
X0174446Y0196684D01*
X0171946Y0196684D01*
X0171902Y0196686D01*
X0171859Y0196692D01*
X0171817Y0196701D01*
X0171775Y0196714D01*
X0171735Y0196731D01*
X0171696Y0196751D01*
X0171659Y0196774D01*
X0171625Y0196801D01*
X0171592Y0196830D01*
X0171563Y0196863D01*
X0171536Y0196897D01*
X0171513Y0196934D01*
X0171493Y0196973D01*
X0171476Y0197013D01*
X0171463Y0197055D01*
X0171454Y0197097D01*
X0171448Y0197140D01*
X0171446Y0197184D01*
X0192705Y0197184D02*
X0192705Y0203184D01*
X0192707Y0203228D01*
X0192713Y0203271D01*
X0192722Y0203313D01*
X0192735Y0203355D01*
X0192752Y0203395D01*
X0192772Y0203434D01*
X0192795Y0203471D01*
X0192822Y0203505D01*
X0192851Y0203538D01*
X0192884Y0203567D01*
X0192918Y0203594D01*
X0192955Y0203617D01*
X0192994Y0203637D01*
X0193034Y0203654D01*
X0193076Y0203667D01*
X0193118Y0203676D01*
X0193161Y0203682D01*
X0193205Y0203684D01*
X0195705Y0203684D01*
X0195749Y0203682D01*
X0195792Y0203676D01*
X0195834Y0203667D01*
X0195876Y0203654D01*
X0195916Y0203637D01*
X0195955Y0203617D01*
X0195992Y0203594D01*
X0196026Y0203567D01*
X0196059Y0203538D01*
X0196088Y0203505D01*
X0196115Y0203471D01*
X0196138Y0203434D01*
X0196158Y0203395D01*
X0196175Y0203355D01*
X0196188Y0203313D01*
X0196197Y0203271D01*
X0196203Y0203228D01*
X0196205Y0203184D01*
X0196205Y0197184D01*
X0196203Y0197140D01*
X0196197Y0197097D01*
X0196188Y0197055D01*
X0196175Y0197013D01*
X0196158Y0196973D01*
X0196138Y0196934D01*
X0196115Y0196897D01*
X0196088Y0196863D01*
X0196059Y0196830D01*
X0196026Y0196801D01*
X0195992Y0196774D01*
X0195955Y0196751D01*
X0195916Y0196731D01*
X0195876Y0196714D01*
X0195834Y0196701D01*
X0195792Y0196692D01*
X0195749Y0196686D01*
X0195705Y0196684D01*
X0193205Y0196684D01*
X0193161Y0196686D01*
X0193118Y0196692D01*
X0193076Y0196701D01*
X0193034Y0196714D01*
X0192994Y0196731D01*
X0192955Y0196751D01*
X0192918Y0196774D01*
X0192884Y0196801D01*
X0192851Y0196830D01*
X0192822Y0196863D01*
X0192795Y0196897D01*
X0192772Y0196934D01*
X0192752Y0196973D01*
X0192735Y0197013D01*
X0192722Y0197055D01*
X0192713Y0197097D01*
X0192707Y0197140D01*
X0192705Y0197184D01*
X0230700Y0186342D02*
X0230700Y0183842D01*
X0230702Y0183798D01*
X0230708Y0183755D01*
X0230717Y0183713D01*
X0230730Y0183671D01*
X0230747Y0183631D01*
X0230767Y0183592D01*
X0230790Y0183555D01*
X0230817Y0183521D01*
X0230846Y0183488D01*
X0230879Y0183459D01*
X0230913Y0183432D01*
X0230950Y0183409D01*
X0230989Y0183389D01*
X0231029Y0183372D01*
X0231071Y0183359D01*
X0231113Y0183350D01*
X0231156Y0183344D01*
X0231200Y0183342D01*
X0237200Y0183342D01*
X0237244Y0183344D01*
X0237287Y0183350D01*
X0237329Y0183359D01*
X0237371Y0183372D01*
X0237411Y0183389D01*
X0237450Y0183409D01*
X0237487Y0183432D01*
X0237521Y0183459D01*
X0237554Y0183488D01*
X0237583Y0183521D01*
X0237610Y0183555D01*
X0237633Y0183592D01*
X0237653Y0183631D01*
X0237670Y0183671D01*
X0237683Y0183713D01*
X0237692Y0183755D01*
X0237698Y0183798D01*
X0237700Y0183842D01*
X0237700Y0186342D01*
X0237698Y0186386D01*
X0237692Y0186429D01*
X0237683Y0186471D01*
X0237670Y0186513D01*
X0237653Y0186553D01*
X0237633Y0186592D01*
X0237610Y0186629D01*
X0237583Y0186663D01*
X0237554Y0186696D01*
X0237521Y0186725D01*
X0237487Y0186752D01*
X0237450Y0186775D01*
X0237411Y0186795D01*
X0237371Y0186812D01*
X0237329Y0186825D01*
X0237287Y0186834D01*
X0237244Y0186840D01*
X0237200Y0186842D01*
X0231200Y0186842D01*
X0231156Y0186840D01*
X0231113Y0186834D01*
X0231071Y0186825D01*
X0231029Y0186812D01*
X0230989Y0186795D01*
X0230950Y0186775D01*
X0230913Y0186752D01*
X0230879Y0186725D01*
X0230846Y0186696D01*
X0230817Y0186663D01*
X0230790Y0186629D01*
X0230767Y0186592D01*
X0230747Y0186553D01*
X0230730Y0186513D01*
X0230717Y0186471D01*
X0230708Y0186429D01*
X0230702Y0186386D01*
X0230700Y0186342D01*
X0231200Y0182512D02*
X0237200Y0182512D01*
X0237244Y0182510D01*
X0237287Y0182504D01*
X0237329Y0182495D01*
X0237371Y0182482D01*
X0237411Y0182465D01*
X0237450Y0182445D01*
X0237487Y0182422D01*
X0237521Y0182395D01*
X0237554Y0182366D01*
X0237583Y0182333D01*
X0237610Y0182299D01*
X0237633Y0182262D01*
X0237653Y0182223D01*
X0237670Y0182183D01*
X0237683Y0182141D01*
X0237692Y0182099D01*
X0237698Y0182056D01*
X0237700Y0182012D01*
X0237700Y0179512D01*
X0237698Y0179468D01*
X0237692Y0179425D01*
X0237683Y0179383D01*
X0237670Y0179341D01*
X0237653Y0179301D01*
X0237633Y0179262D01*
X0237610Y0179225D01*
X0237583Y0179191D01*
X0237554Y0179158D01*
X0237521Y0179129D01*
X0237487Y0179102D01*
X0237450Y0179079D01*
X0237411Y0179059D01*
X0237371Y0179042D01*
X0237329Y0179029D01*
X0237287Y0179020D01*
X0237244Y0179014D01*
X0237200Y0179012D01*
X0231200Y0179012D01*
X0231156Y0179014D01*
X0231113Y0179020D01*
X0231071Y0179029D01*
X0231029Y0179042D01*
X0230989Y0179059D01*
X0230950Y0179079D01*
X0230913Y0179102D01*
X0230879Y0179129D01*
X0230846Y0179158D01*
X0230817Y0179191D01*
X0230790Y0179225D01*
X0230767Y0179262D01*
X0230747Y0179301D01*
X0230730Y0179341D01*
X0230717Y0179383D01*
X0230708Y0179425D01*
X0230702Y0179468D01*
X0230700Y0179512D01*
X0230700Y0182012D01*
X0230702Y0182056D01*
X0230708Y0182099D01*
X0230717Y0182141D01*
X0230730Y0182183D01*
X0230747Y0182223D01*
X0230767Y0182262D01*
X0230790Y0182299D01*
X0230817Y0182333D01*
X0230846Y0182366D01*
X0230879Y0182395D01*
X0230913Y0182422D01*
X0230950Y0182445D01*
X0230989Y0182465D01*
X0231029Y0182482D01*
X0231071Y0182495D01*
X0231113Y0182504D01*
X0231156Y0182510D01*
X0231200Y0182512D01*
X0232794Y0162957D02*
X0238794Y0162957D01*
X0238838Y0162955D01*
X0238881Y0162949D01*
X0238923Y0162940D01*
X0238965Y0162927D01*
X0239005Y0162910D01*
X0239044Y0162890D01*
X0239081Y0162867D01*
X0239115Y0162840D01*
X0239148Y0162811D01*
X0239177Y0162778D01*
X0239204Y0162744D01*
X0239227Y0162707D01*
X0239247Y0162668D01*
X0239264Y0162628D01*
X0239277Y0162586D01*
X0239286Y0162544D01*
X0239292Y0162501D01*
X0239294Y0162457D01*
X0239294Y0159957D01*
X0239292Y0159913D01*
X0239286Y0159870D01*
X0239277Y0159828D01*
X0239264Y0159786D01*
X0239247Y0159746D01*
X0239227Y0159707D01*
X0239204Y0159670D01*
X0239177Y0159636D01*
X0239148Y0159603D01*
X0239115Y0159574D01*
X0239081Y0159547D01*
X0239044Y0159524D01*
X0239005Y0159504D01*
X0238965Y0159487D01*
X0238923Y0159474D01*
X0238881Y0159465D01*
X0238838Y0159459D01*
X0238794Y0159457D01*
X0232794Y0159457D01*
X0232750Y0159459D01*
X0232707Y0159465D01*
X0232665Y0159474D01*
X0232623Y0159487D01*
X0232583Y0159504D01*
X0232544Y0159524D01*
X0232507Y0159547D01*
X0232473Y0159574D01*
X0232440Y0159603D01*
X0232411Y0159636D01*
X0232384Y0159670D01*
X0232361Y0159707D01*
X0232341Y0159746D01*
X0232324Y0159786D01*
X0232311Y0159828D01*
X0232302Y0159870D01*
X0232296Y0159913D01*
X0232294Y0159957D01*
X0232294Y0162457D01*
X0232296Y0162501D01*
X0232302Y0162544D01*
X0232311Y0162586D01*
X0232324Y0162628D01*
X0232341Y0162668D01*
X0232361Y0162707D01*
X0232384Y0162744D01*
X0232411Y0162778D01*
X0232440Y0162811D01*
X0232473Y0162840D01*
X0232507Y0162867D01*
X0232544Y0162890D01*
X0232583Y0162910D01*
X0232623Y0162927D01*
X0232665Y0162940D01*
X0232707Y0162949D01*
X0232750Y0162955D01*
X0232794Y0162957D01*
X0233188Y0143272D02*
X0239188Y0143272D01*
X0239232Y0143270D01*
X0239275Y0143264D01*
X0239317Y0143255D01*
X0239359Y0143242D01*
X0239399Y0143225D01*
X0239438Y0143205D01*
X0239475Y0143182D01*
X0239509Y0143155D01*
X0239542Y0143126D01*
X0239571Y0143093D01*
X0239598Y0143059D01*
X0239621Y0143022D01*
X0239641Y0142983D01*
X0239658Y0142943D01*
X0239671Y0142901D01*
X0239680Y0142859D01*
X0239686Y0142816D01*
X0239688Y0142772D01*
X0239688Y0140272D01*
X0239686Y0140228D01*
X0239680Y0140185D01*
X0239671Y0140143D01*
X0239658Y0140101D01*
X0239641Y0140061D01*
X0239621Y0140022D01*
X0239598Y0139985D01*
X0239571Y0139951D01*
X0239542Y0139918D01*
X0239509Y0139889D01*
X0239475Y0139862D01*
X0239438Y0139839D01*
X0239399Y0139819D01*
X0239359Y0139802D01*
X0239317Y0139789D01*
X0239275Y0139780D01*
X0239232Y0139774D01*
X0239188Y0139772D01*
X0233188Y0139772D01*
X0233144Y0139774D01*
X0233101Y0139780D01*
X0233059Y0139789D01*
X0233017Y0139802D01*
X0232977Y0139819D01*
X0232938Y0139839D01*
X0232901Y0139862D01*
X0232867Y0139889D01*
X0232834Y0139918D01*
X0232805Y0139951D01*
X0232778Y0139985D01*
X0232755Y0140022D01*
X0232735Y0140061D01*
X0232718Y0140101D01*
X0232705Y0140143D01*
X0232696Y0140185D01*
X0232690Y0140228D01*
X0232688Y0140272D01*
X0232688Y0142772D01*
X0232690Y0142816D01*
X0232696Y0142859D01*
X0232705Y0142901D01*
X0232718Y0142943D01*
X0232735Y0142983D01*
X0232755Y0143022D01*
X0232778Y0143059D01*
X0232805Y0143093D01*
X0232834Y0143126D01*
X0232867Y0143155D01*
X0232901Y0143182D01*
X0232938Y0143205D01*
X0232977Y0143225D01*
X0233017Y0143242D01*
X0233059Y0143255D01*
X0233101Y0143264D01*
X0233144Y0143270D01*
X0233188Y0143272D01*
X0233188Y0135398D02*
X0239188Y0135398D01*
X0239232Y0135396D01*
X0239275Y0135390D01*
X0239317Y0135381D01*
X0239359Y0135368D01*
X0239399Y0135351D01*
X0239438Y0135331D01*
X0239475Y0135308D01*
X0239509Y0135281D01*
X0239542Y0135252D01*
X0239571Y0135219D01*
X0239598Y0135185D01*
X0239621Y0135148D01*
X0239641Y0135109D01*
X0239658Y0135069D01*
X0239671Y0135027D01*
X0239680Y0134985D01*
X0239686Y0134942D01*
X0239688Y0134898D01*
X0239688Y0132398D01*
X0239686Y0132354D01*
X0239680Y0132311D01*
X0239671Y0132269D01*
X0239658Y0132227D01*
X0239641Y0132187D01*
X0239621Y0132148D01*
X0239598Y0132111D01*
X0239571Y0132077D01*
X0239542Y0132044D01*
X0239509Y0132015D01*
X0239475Y0131988D01*
X0239438Y0131965D01*
X0239399Y0131945D01*
X0239359Y0131928D01*
X0239317Y0131915D01*
X0239275Y0131906D01*
X0239232Y0131900D01*
X0239188Y0131898D01*
X0233188Y0131898D01*
X0233144Y0131900D01*
X0233101Y0131906D01*
X0233059Y0131915D01*
X0233017Y0131928D01*
X0232977Y0131945D01*
X0232938Y0131965D01*
X0232901Y0131988D01*
X0232867Y0132015D01*
X0232834Y0132044D01*
X0232805Y0132077D01*
X0232778Y0132111D01*
X0232755Y0132148D01*
X0232735Y0132187D01*
X0232718Y0132227D01*
X0232705Y0132269D01*
X0232696Y0132311D01*
X0232690Y0132354D01*
X0232688Y0132398D01*
X0232688Y0134898D01*
X0232690Y0134942D01*
X0232696Y0134985D01*
X0232705Y0135027D01*
X0232718Y0135069D01*
X0232735Y0135109D01*
X0232755Y0135148D01*
X0232778Y0135185D01*
X0232805Y0135219D01*
X0232834Y0135252D01*
X0232867Y0135281D01*
X0232901Y0135308D01*
X0232938Y0135331D01*
X0232977Y0135351D01*
X0233017Y0135368D01*
X0233059Y0135381D01*
X0233101Y0135390D01*
X0233144Y0135396D01*
X0233188Y0135398D01*
X0233188Y0117288D02*
X0239188Y0117288D01*
X0239232Y0117286D01*
X0239275Y0117280D01*
X0239317Y0117271D01*
X0239359Y0117258D01*
X0239399Y0117241D01*
X0239438Y0117221D01*
X0239475Y0117198D01*
X0239509Y0117171D01*
X0239542Y0117142D01*
X0239571Y0117109D01*
X0239598Y0117075D01*
X0239621Y0117038D01*
X0239641Y0116999D01*
X0239658Y0116959D01*
X0239671Y0116917D01*
X0239680Y0116875D01*
X0239686Y0116832D01*
X0239688Y0116788D01*
X0239688Y0114288D01*
X0239686Y0114244D01*
X0239680Y0114201D01*
X0239671Y0114159D01*
X0239658Y0114117D01*
X0239641Y0114077D01*
X0239621Y0114038D01*
X0239598Y0114001D01*
X0239571Y0113967D01*
X0239542Y0113934D01*
X0239509Y0113905D01*
X0239475Y0113878D01*
X0239438Y0113855D01*
X0239399Y0113835D01*
X0239359Y0113818D01*
X0239317Y0113805D01*
X0239275Y0113796D01*
X0239232Y0113790D01*
X0239188Y0113788D01*
X0233188Y0113788D01*
X0233144Y0113790D01*
X0233101Y0113796D01*
X0233059Y0113805D01*
X0233017Y0113818D01*
X0232977Y0113835D01*
X0232938Y0113855D01*
X0232901Y0113878D01*
X0232867Y0113905D01*
X0232834Y0113934D01*
X0232805Y0113967D01*
X0232778Y0114001D01*
X0232755Y0114038D01*
X0232735Y0114077D01*
X0232718Y0114117D01*
X0232705Y0114159D01*
X0232696Y0114201D01*
X0232690Y0114244D01*
X0232688Y0114288D01*
X0232688Y0116788D01*
X0232690Y0116832D01*
X0232696Y0116875D01*
X0232705Y0116917D01*
X0232718Y0116959D01*
X0232735Y0116999D01*
X0232755Y0117038D01*
X0232778Y0117075D01*
X0232805Y0117109D01*
X0232834Y0117142D01*
X0232867Y0117171D01*
X0232901Y0117198D01*
X0232938Y0117221D01*
X0232977Y0117241D01*
X0233017Y0117258D01*
X0233059Y0117271D01*
X0233101Y0117280D01*
X0233144Y0117286D01*
X0233188Y0117288D01*
X0265455Y0110774D02*
X0265455Y0108274D01*
X0265457Y0108230D01*
X0265463Y0108187D01*
X0265472Y0108145D01*
X0265485Y0108103D01*
X0265502Y0108063D01*
X0265522Y0108024D01*
X0265545Y0107987D01*
X0265572Y0107953D01*
X0265601Y0107920D01*
X0265634Y0107891D01*
X0265668Y0107864D01*
X0265705Y0107841D01*
X0265744Y0107821D01*
X0265784Y0107804D01*
X0265826Y0107791D01*
X0265868Y0107782D01*
X0265911Y0107776D01*
X0265955Y0107774D01*
X0271955Y0107774D01*
X0271999Y0107776D01*
X0272042Y0107782D01*
X0272084Y0107791D01*
X0272126Y0107804D01*
X0272166Y0107821D01*
X0272205Y0107841D01*
X0272242Y0107864D01*
X0272276Y0107891D01*
X0272309Y0107920D01*
X0272338Y0107953D01*
X0272365Y0107987D01*
X0272388Y0108024D01*
X0272408Y0108063D01*
X0272425Y0108103D01*
X0272438Y0108145D01*
X0272447Y0108187D01*
X0272453Y0108230D01*
X0272455Y0108274D01*
X0272455Y0110774D01*
X0272453Y0110818D01*
X0272447Y0110861D01*
X0272438Y0110903D01*
X0272425Y0110945D01*
X0272408Y0110985D01*
X0272388Y0111024D01*
X0272365Y0111061D01*
X0272338Y0111095D01*
X0272309Y0111128D01*
X0272276Y0111157D01*
X0272242Y0111184D01*
X0272205Y0111207D01*
X0272166Y0111227D01*
X0272126Y0111244D01*
X0272084Y0111257D01*
X0272042Y0111266D01*
X0271999Y0111272D01*
X0271955Y0111274D01*
X0265955Y0111274D01*
X0265911Y0111272D01*
X0265868Y0111266D01*
X0265826Y0111257D01*
X0265784Y0111244D01*
X0265744Y0111227D01*
X0265705Y0111207D01*
X0265668Y0111184D01*
X0265634Y0111157D01*
X0265601Y0111128D01*
X0265572Y0111095D01*
X0265545Y0111061D01*
X0265522Y0111024D01*
X0265502Y0110985D01*
X0265485Y0110945D01*
X0265472Y0110903D01*
X0265463Y0110861D01*
X0265457Y0110818D01*
X0265455Y0110774D01*
X0288274Y0130229D02*
X0288274Y0136229D01*
X0288276Y0136273D01*
X0288282Y0136316D01*
X0288291Y0136358D01*
X0288304Y0136400D01*
X0288321Y0136440D01*
X0288341Y0136479D01*
X0288364Y0136516D01*
X0288391Y0136550D01*
X0288420Y0136583D01*
X0288453Y0136612D01*
X0288487Y0136639D01*
X0288524Y0136662D01*
X0288563Y0136682D01*
X0288603Y0136699D01*
X0288645Y0136712D01*
X0288687Y0136721D01*
X0288730Y0136727D01*
X0288774Y0136729D01*
X0291274Y0136729D01*
X0291318Y0136727D01*
X0291361Y0136721D01*
X0291403Y0136712D01*
X0291445Y0136699D01*
X0291485Y0136682D01*
X0291524Y0136662D01*
X0291561Y0136639D01*
X0291595Y0136612D01*
X0291628Y0136583D01*
X0291657Y0136550D01*
X0291684Y0136516D01*
X0291707Y0136479D01*
X0291727Y0136440D01*
X0291744Y0136400D01*
X0291757Y0136358D01*
X0291766Y0136316D01*
X0291772Y0136273D01*
X0291774Y0136229D01*
X0291774Y0130229D01*
X0291772Y0130185D01*
X0291766Y0130142D01*
X0291757Y0130100D01*
X0291744Y0130058D01*
X0291727Y0130018D01*
X0291707Y0129979D01*
X0291684Y0129942D01*
X0291657Y0129908D01*
X0291628Y0129875D01*
X0291595Y0129846D01*
X0291561Y0129819D01*
X0291524Y0129796D01*
X0291485Y0129776D01*
X0291445Y0129759D01*
X0291403Y0129746D01*
X0291361Y0129737D01*
X0291318Y0129731D01*
X0291274Y0129729D01*
X0288774Y0129729D01*
X0288730Y0129731D01*
X0288687Y0129737D01*
X0288645Y0129746D01*
X0288603Y0129759D01*
X0288563Y0129776D01*
X0288524Y0129796D01*
X0288487Y0129819D01*
X0288453Y0129846D01*
X0288420Y0129875D01*
X0288391Y0129908D01*
X0288364Y0129942D01*
X0288341Y0129979D01*
X0288321Y0130018D01*
X0288304Y0130058D01*
X0288291Y0130100D01*
X0288282Y0130142D01*
X0288276Y0130185D01*
X0288274Y0130229D01*
X0294274Y0130398D02*
X0294274Y0136229D01*
X0294276Y0136273D01*
X0294282Y0136316D01*
X0294291Y0136358D01*
X0294304Y0136400D01*
X0294321Y0136440D01*
X0294341Y0136479D01*
X0294364Y0136516D01*
X0294391Y0136550D01*
X0294420Y0136583D01*
X0294453Y0136612D01*
X0294487Y0136639D01*
X0294524Y0136662D01*
X0294563Y0136682D01*
X0294603Y0136699D01*
X0294645Y0136712D01*
X0294687Y0136721D01*
X0294730Y0136727D01*
X0294774Y0136729D01*
X0297274Y0136729D01*
X0297318Y0136727D01*
X0297361Y0136721D01*
X0297403Y0136712D01*
X0297445Y0136699D01*
X0297485Y0136682D01*
X0297524Y0136662D01*
X0297561Y0136639D01*
X0297595Y0136612D01*
X0297628Y0136583D01*
X0297657Y0136550D01*
X0297684Y0136516D01*
X0297707Y0136479D01*
X0297727Y0136440D01*
X0297744Y0136400D01*
X0297757Y0136358D01*
X0297766Y0136316D01*
X0297772Y0136273D01*
X0297774Y0136229D01*
X0297774Y0130398D01*
X0297106Y0129729D01*
X0294942Y0129729D01*
X0294274Y0130398D01*
X0299674Y0130229D02*
X0299674Y0136229D01*
X0299676Y0136273D01*
X0299682Y0136316D01*
X0299691Y0136358D01*
X0299704Y0136400D01*
X0299721Y0136440D01*
X0299741Y0136479D01*
X0299764Y0136516D01*
X0299791Y0136550D01*
X0299820Y0136583D01*
X0299853Y0136612D01*
X0299887Y0136639D01*
X0299924Y0136662D01*
X0299963Y0136682D01*
X0300003Y0136699D01*
X0300045Y0136712D01*
X0300087Y0136721D01*
X0300130Y0136727D01*
X0300174Y0136729D01*
X0302674Y0136729D01*
X0302718Y0136727D01*
X0302761Y0136721D01*
X0302803Y0136712D01*
X0302845Y0136699D01*
X0302885Y0136682D01*
X0302924Y0136662D01*
X0302961Y0136639D01*
X0302995Y0136612D01*
X0303028Y0136583D01*
X0303057Y0136550D01*
X0303084Y0136516D01*
X0303107Y0136479D01*
X0303127Y0136440D01*
X0303144Y0136400D01*
X0303157Y0136358D01*
X0303166Y0136316D01*
X0303172Y0136273D01*
X0303174Y0136229D01*
X0303174Y0130229D01*
X0303172Y0130185D01*
X0303166Y0130142D01*
X0303157Y0130100D01*
X0303144Y0130058D01*
X0303127Y0130018D01*
X0303107Y0129979D01*
X0303084Y0129942D01*
X0303057Y0129908D01*
X0303028Y0129875D01*
X0302995Y0129846D01*
X0302961Y0129819D01*
X0302924Y0129796D01*
X0302885Y0129776D01*
X0302845Y0129759D01*
X0302803Y0129746D01*
X0302761Y0129737D01*
X0302718Y0129731D01*
X0302674Y0129729D01*
X0300174Y0129729D01*
X0300130Y0129731D01*
X0300087Y0129737D01*
X0300045Y0129746D01*
X0300003Y0129759D01*
X0299963Y0129776D01*
X0299924Y0129796D01*
X0299887Y0129819D01*
X0299853Y0129846D01*
X0299820Y0129875D01*
X0299791Y0129908D01*
X0299764Y0129942D01*
X0299741Y0129979D01*
X0299721Y0130018D01*
X0299704Y0130058D01*
X0299691Y0130100D01*
X0299682Y0130142D01*
X0299676Y0130185D01*
X0299674Y0130229D01*
X0305904Y0130292D02*
X0305904Y0136292D01*
X0305906Y0136336D01*
X0305912Y0136379D01*
X0305921Y0136421D01*
X0305934Y0136463D01*
X0305951Y0136503D01*
X0305971Y0136542D01*
X0305994Y0136579D01*
X0306021Y0136613D01*
X0306050Y0136646D01*
X0306083Y0136675D01*
X0306117Y0136702D01*
X0306154Y0136725D01*
X0306193Y0136745D01*
X0306233Y0136762D01*
X0306275Y0136775D01*
X0306317Y0136784D01*
X0306360Y0136790D01*
X0306404Y0136792D01*
X0308904Y0136792D01*
X0308948Y0136790D01*
X0308991Y0136784D01*
X0309033Y0136775D01*
X0309075Y0136762D01*
X0309115Y0136745D01*
X0309154Y0136725D01*
X0309191Y0136702D01*
X0309225Y0136675D01*
X0309258Y0136646D01*
X0309287Y0136613D01*
X0309314Y0136579D01*
X0309337Y0136542D01*
X0309357Y0136503D01*
X0309374Y0136463D01*
X0309387Y0136421D01*
X0309396Y0136379D01*
X0309402Y0136336D01*
X0309404Y0136292D01*
X0309404Y0130292D01*
X0309402Y0130248D01*
X0309396Y0130205D01*
X0309387Y0130163D01*
X0309374Y0130121D01*
X0309357Y0130081D01*
X0309337Y0130042D01*
X0309314Y0130005D01*
X0309287Y0129971D01*
X0309258Y0129938D01*
X0309225Y0129909D01*
X0309191Y0129882D01*
X0309154Y0129859D01*
X0309115Y0129839D01*
X0309075Y0129822D01*
X0309033Y0129809D01*
X0308991Y0129800D01*
X0308948Y0129794D01*
X0308904Y0129792D01*
X0306404Y0129792D01*
X0306360Y0129794D01*
X0306317Y0129800D01*
X0306275Y0129809D01*
X0306233Y0129822D01*
X0306193Y0129839D01*
X0306154Y0129859D01*
X0306117Y0129882D01*
X0306083Y0129909D01*
X0306050Y0129938D01*
X0306021Y0129971D01*
X0305994Y0130005D01*
X0305971Y0130042D01*
X0305951Y0130081D01*
X0305934Y0130121D01*
X0305921Y0130163D01*
X0305912Y0130205D01*
X0305906Y0130248D01*
X0305904Y0130292D01*
X0189906Y0043735D02*
X0189906Y0037903D01*
X0189238Y0037235D01*
X0187074Y0037235D01*
X0186406Y0037903D01*
X0186406Y0043735D01*
X0186408Y0043779D01*
X0186414Y0043822D01*
X0186423Y0043864D01*
X0186436Y0043906D01*
X0186453Y0043946D01*
X0186473Y0043985D01*
X0186496Y0044022D01*
X0186523Y0044056D01*
X0186552Y0044089D01*
X0186585Y0044118D01*
X0186619Y0044145D01*
X0186656Y0044168D01*
X0186695Y0044188D01*
X0186735Y0044205D01*
X0186777Y0044218D01*
X0186819Y0044227D01*
X0186862Y0044233D01*
X0186906Y0044235D01*
X0189406Y0044235D01*
X0189450Y0044233D01*
X0189493Y0044227D01*
X0189535Y0044218D01*
X0189577Y0044205D01*
X0189617Y0044188D01*
X0189656Y0044168D01*
X0189693Y0044145D01*
X0189727Y0044118D01*
X0189760Y0044089D01*
X0189789Y0044056D01*
X0189816Y0044022D01*
X0189839Y0043985D01*
X0189859Y0043946D01*
X0189876Y0043906D01*
X0189889Y0043864D01*
X0189898Y0043822D01*
X0189904Y0043779D01*
X0189906Y0043735D01*
X0158410Y0043735D02*
X0158410Y0037903D01*
X0157742Y0037235D01*
X0155578Y0037235D01*
X0154910Y0037903D01*
X0154910Y0043735D01*
X0154912Y0043779D01*
X0154918Y0043822D01*
X0154927Y0043864D01*
X0154940Y0043906D01*
X0154957Y0043946D01*
X0154977Y0043985D01*
X0155000Y0044022D01*
X0155027Y0044056D01*
X0155056Y0044089D01*
X0155089Y0044118D01*
X0155123Y0044145D01*
X0155160Y0044168D01*
X0155199Y0044188D01*
X0155239Y0044205D01*
X0155281Y0044218D01*
X0155323Y0044227D01*
X0155366Y0044233D01*
X0155410Y0044235D01*
X0157910Y0044235D01*
X0157954Y0044233D01*
X0157997Y0044227D01*
X0158039Y0044218D01*
X0158081Y0044205D01*
X0158121Y0044188D01*
X0158160Y0044168D01*
X0158197Y0044145D01*
X0158231Y0044118D01*
X0158264Y0044089D01*
X0158293Y0044056D01*
X0158320Y0044022D01*
X0158343Y0043985D01*
X0158363Y0043946D01*
X0158380Y0043906D01*
X0158393Y0043864D01*
X0158402Y0043822D01*
X0158408Y0043779D01*
X0158410Y0043735D01*
X0157910Y0054951D02*
X0155410Y0054951D01*
X0155366Y0054953D01*
X0155323Y0054959D01*
X0155281Y0054968D01*
X0155239Y0054981D01*
X0155199Y0054998D01*
X0155160Y0055018D01*
X0155123Y0055041D01*
X0155089Y0055068D01*
X0155056Y0055097D01*
X0155027Y0055130D01*
X0155000Y0055164D01*
X0154977Y0055201D01*
X0154957Y0055240D01*
X0154940Y0055280D01*
X0154927Y0055322D01*
X0154918Y0055364D01*
X0154912Y0055407D01*
X0154910Y0055451D01*
X0154910Y0061451D01*
X0154912Y0061495D01*
X0154918Y0061538D01*
X0154927Y0061580D01*
X0154940Y0061622D01*
X0154957Y0061662D01*
X0154977Y0061701D01*
X0155000Y0061738D01*
X0155027Y0061772D01*
X0155056Y0061805D01*
X0155089Y0061834D01*
X0155123Y0061861D01*
X0155160Y0061884D01*
X0155199Y0061904D01*
X0155239Y0061921D01*
X0155281Y0061934D01*
X0155323Y0061943D01*
X0155366Y0061949D01*
X0155410Y0061951D01*
X0157910Y0061951D01*
X0157954Y0061949D01*
X0157997Y0061943D01*
X0158039Y0061934D01*
X0158081Y0061921D01*
X0158121Y0061904D01*
X0158160Y0061884D01*
X0158197Y0061861D01*
X0158231Y0061834D01*
X0158264Y0061805D01*
X0158293Y0061772D01*
X0158320Y0061738D01*
X0158343Y0061701D01*
X0158363Y0061662D01*
X0158380Y0061622D01*
X0158393Y0061580D01*
X0158402Y0061538D01*
X0158408Y0061495D01*
X0158410Y0061451D01*
X0158410Y0055451D01*
X0158408Y0055407D01*
X0158402Y0055364D01*
X0158393Y0055322D01*
X0158380Y0055280D01*
X0158363Y0055240D01*
X0158343Y0055201D01*
X0158320Y0055164D01*
X0158293Y0055130D01*
X0158264Y0055097D01*
X0158231Y0055068D01*
X0158197Y0055041D01*
X0158160Y0055018D01*
X0158121Y0054998D01*
X0158081Y0054981D01*
X0158039Y0054968D01*
X0157997Y0054959D01*
X0157954Y0054953D01*
X0157910Y0054951D01*
X0126914Y0055451D02*
X0126914Y0061451D01*
X0126912Y0061495D01*
X0126906Y0061538D01*
X0126897Y0061580D01*
X0126884Y0061622D01*
X0126867Y0061662D01*
X0126847Y0061701D01*
X0126824Y0061738D01*
X0126797Y0061772D01*
X0126768Y0061805D01*
X0126735Y0061834D01*
X0126701Y0061861D01*
X0126664Y0061884D01*
X0126625Y0061904D01*
X0126585Y0061921D01*
X0126543Y0061934D01*
X0126501Y0061943D01*
X0126458Y0061949D01*
X0126414Y0061951D01*
X0123914Y0061951D01*
X0123870Y0061949D01*
X0123827Y0061943D01*
X0123785Y0061934D01*
X0123743Y0061921D01*
X0123703Y0061904D01*
X0123664Y0061884D01*
X0123627Y0061861D01*
X0123593Y0061834D01*
X0123560Y0061805D01*
X0123531Y0061772D01*
X0123504Y0061738D01*
X0123481Y0061701D01*
X0123461Y0061662D01*
X0123444Y0061622D01*
X0123431Y0061580D01*
X0123422Y0061538D01*
X0123416Y0061495D01*
X0123414Y0061451D01*
X0123414Y0055451D01*
X0123416Y0055407D01*
X0123422Y0055364D01*
X0123431Y0055322D01*
X0123444Y0055280D01*
X0123461Y0055240D01*
X0123481Y0055201D01*
X0123504Y0055164D01*
X0123531Y0055130D01*
X0123560Y0055097D01*
X0123593Y0055068D01*
X0123627Y0055041D01*
X0123664Y0055018D01*
X0123703Y0054998D01*
X0123743Y0054981D01*
X0123785Y0054968D01*
X0123827Y0054959D01*
X0123870Y0054953D01*
X0123914Y0054951D01*
X0126414Y0054951D01*
X0126458Y0054953D01*
X0126501Y0054959D01*
X0126543Y0054968D01*
X0126585Y0054981D01*
X0126625Y0054998D01*
X0126664Y0055018D01*
X0126701Y0055041D01*
X0126735Y0055068D01*
X0126768Y0055097D01*
X0126797Y0055130D01*
X0126824Y0055164D01*
X0126847Y0055201D01*
X0126867Y0055240D01*
X0126884Y0055280D01*
X0126897Y0055322D01*
X0126906Y0055364D01*
X0126912Y0055407D01*
X0126914Y0055451D01*
X0126414Y0044235D02*
X0123914Y0044235D01*
X0123870Y0044233D01*
X0123827Y0044227D01*
X0123785Y0044218D01*
X0123743Y0044205D01*
X0123703Y0044188D01*
X0123664Y0044168D01*
X0123627Y0044145D01*
X0123593Y0044118D01*
X0123560Y0044089D01*
X0123531Y0044056D01*
X0123504Y0044022D01*
X0123481Y0043985D01*
X0123461Y0043946D01*
X0123444Y0043906D01*
X0123431Y0043864D01*
X0123422Y0043822D01*
X0123416Y0043779D01*
X0123414Y0043735D01*
X0123414Y0037903D01*
X0124082Y0037235D01*
X0126246Y0037235D01*
X0126914Y0037903D01*
X0126914Y0043735D01*
X0126912Y0043779D01*
X0126906Y0043822D01*
X0126897Y0043864D01*
X0126884Y0043906D01*
X0126867Y0043946D01*
X0126847Y0043985D01*
X0126824Y0044022D01*
X0126797Y0044056D01*
X0126768Y0044089D01*
X0126735Y0044118D01*
X0126701Y0044145D01*
X0126664Y0044168D01*
X0126625Y0044188D01*
X0126585Y0044205D01*
X0126543Y0044218D01*
X0126501Y0044227D01*
X0126458Y0044233D01*
X0126414Y0044235D01*
X0095418Y0043735D02*
X0095418Y0037903D01*
X0094750Y0037235D01*
X0092586Y0037235D01*
X0091918Y0037903D01*
X0091918Y0043735D01*
X0091920Y0043779D01*
X0091926Y0043822D01*
X0091935Y0043864D01*
X0091948Y0043906D01*
X0091965Y0043946D01*
X0091985Y0043985D01*
X0092008Y0044022D01*
X0092035Y0044056D01*
X0092064Y0044089D01*
X0092097Y0044118D01*
X0092131Y0044145D01*
X0092168Y0044168D01*
X0092207Y0044188D01*
X0092247Y0044205D01*
X0092289Y0044218D01*
X0092331Y0044227D01*
X0092374Y0044233D01*
X0092418Y0044235D01*
X0094918Y0044235D01*
X0094962Y0044233D01*
X0095005Y0044227D01*
X0095047Y0044218D01*
X0095089Y0044205D01*
X0095129Y0044188D01*
X0095168Y0044168D01*
X0095205Y0044145D01*
X0095239Y0044118D01*
X0095272Y0044089D01*
X0095301Y0044056D01*
X0095328Y0044022D01*
X0095351Y0043985D01*
X0095371Y0043946D01*
X0095388Y0043906D01*
X0095401Y0043864D01*
X0095410Y0043822D01*
X0095416Y0043779D01*
X0095418Y0043735D01*
X0094918Y0054951D02*
X0092418Y0054951D01*
X0092374Y0054953D01*
X0092331Y0054959D01*
X0092289Y0054968D01*
X0092247Y0054981D01*
X0092207Y0054998D01*
X0092168Y0055018D01*
X0092131Y0055041D01*
X0092097Y0055068D01*
X0092064Y0055097D01*
X0092035Y0055130D01*
X0092008Y0055164D01*
X0091985Y0055201D01*
X0091965Y0055240D01*
X0091948Y0055280D01*
X0091935Y0055322D01*
X0091926Y0055364D01*
X0091920Y0055407D01*
X0091918Y0055451D01*
X0091918Y0061451D01*
X0091920Y0061495D01*
X0091926Y0061538D01*
X0091935Y0061580D01*
X0091948Y0061622D01*
X0091965Y0061662D01*
X0091985Y0061701D01*
X0092008Y0061738D01*
X0092035Y0061772D01*
X0092064Y0061805D01*
X0092097Y0061834D01*
X0092131Y0061861D01*
X0092168Y0061884D01*
X0092207Y0061904D01*
X0092247Y0061921D01*
X0092289Y0061934D01*
X0092331Y0061943D01*
X0092374Y0061949D01*
X0092418Y0061951D01*
X0094918Y0061951D01*
X0094962Y0061949D01*
X0095005Y0061943D01*
X0095047Y0061934D01*
X0095089Y0061921D01*
X0095129Y0061904D01*
X0095168Y0061884D01*
X0095205Y0061861D01*
X0095239Y0061834D01*
X0095272Y0061805D01*
X0095301Y0061772D01*
X0095328Y0061738D01*
X0095351Y0061701D01*
X0095371Y0061662D01*
X0095388Y0061622D01*
X0095401Y0061580D01*
X0095410Y0061538D01*
X0095416Y0061495D01*
X0095418Y0061451D01*
X0095418Y0055451D01*
X0095416Y0055407D01*
X0095410Y0055364D01*
X0095401Y0055322D01*
X0095388Y0055280D01*
X0095371Y0055240D01*
X0095351Y0055201D01*
X0095328Y0055164D01*
X0095301Y0055130D01*
X0095272Y0055097D01*
X0095239Y0055068D01*
X0095205Y0055041D01*
X0095168Y0055018D01*
X0095129Y0054998D01*
X0095089Y0054981D01*
X0095047Y0054968D01*
X0095005Y0054959D01*
X0094962Y0054953D01*
X0094918Y0054951D01*
X0109009Y0079510D02*
X0111509Y0079510D01*
X0111553Y0079512D01*
X0111596Y0079518D01*
X0111638Y0079527D01*
X0111680Y0079540D01*
X0111720Y0079557D01*
X0111759Y0079577D01*
X0111796Y0079600D01*
X0111830Y0079627D01*
X0111863Y0079656D01*
X0111892Y0079689D01*
X0111919Y0079723D01*
X0111942Y0079760D01*
X0111962Y0079799D01*
X0111979Y0079839D01*
X0111992Y0079881D01*
X0112001Y0079923D01*
X0112007Y0079966D01*
X0112009Y0080010D01*
X0112009Y0086010D01*
X0112007Y0086054D01*
X0112001Y0086097D01*
X0111992Y0086139D01*
X0111979Y0086181D01*
X0111962Y0086221D01*
X0111942Y0086260D01*
X0111919Y0086297D01*
X0111892Y0086331D01*
X0111863Y0086364D01*
X0111830Y0086393D01*
X0111796Y0086420D01*
X0111759Y0086443D01*
X0111720Y0086463D01*
X0111680Y0086480D01*
X0111638Y0086493D01*
X0111596Y0086502D01*
X0111553Y0086508D01*
X0111509Y0086510D01*
X0109009Y0086510D01*
X0108965Y0086508D01*
X0108922Y0086502D01*
X0108880Y0086493D01*
X0108838Y0086480D01*
X0108798Y0086463D01*
X0108759Y0086443D01*
X0108722Y0086420D01*
X0108688Y0086393D01*
X0108655Y0086364D01*
X0108626Y0086331D01*
X0108599Y0086297D01*
X0108576Y0086260D01*
X0108556Y0086221D01*
X0108539Y0086181D01*
X0108526Y0086139D01*
X0108517Y0086097D01*
X0108511Y0086054D01*
X0108509Y0086010D01*
X0108509Y0080010D01*
X0108511Y0079966D01*
X0108517Y0079923D01*
X0108526Y0079881D01*
X0108539Y0079839D01*
X0108556Y0079799D01*
X0108576Y0079760D01*
X0108599Y0079723D01*
X0108626Y0079689D01*
X0108655Y0079656D01*
X0108688Y0079627D01*
X0108722Y0079600D01*
X0108759Y0079577D01*
X0108798Y0079557D01*
X0108838Y0079540D01*
X0108880Y0079527D01*
X0108922Y0079518D01*
X0108965Y0079512D01*
X0109009Y0079510D01*
X0108974Y0091529D02*
X0111474Y0091529D01*
X0111518Y0091531D01*
X0111561Y0091537D01*
X0111603Y0091546D01*
X0111645Y0091559D01*
X0111685Y0091576D01*
X0111724Y0091596D01*
X0111761Y0091619D01*
X0111795Y0091646D01*
X0111828Y0091675D01*
X0111857Y0091708D01*
X0111884Y0091742D01*
X0111907Y0091779D01*
X0111927Y0091818D01*
X0111944Y0091858D01*
X0111957Y0091900D01*
X0111966Y0091942D01*
X0111972Y0091985D01*
X0111974Y0092029D01*
X0111974Y0098029D01*
X0111972Y0098073D01*
X0111966Y0098116D01*
X0111957Y0098158D01*
X0111944Y0098200D01*
X0111927Y0098240D01*
X0111907Y0098279D01*
X0111884Y0098316D01*
X0111857Y0098350D01*
X0111828Y0098383D01*
X0111795Y0098412D01*
X0111761Y0098439D01*
X0111724Y0098462D01*
X0111685Y0098482D01*
X0111645Y0098499D01*
X0111603Y0098512D01*
X0111561Y0098521D01*
X0111518Y0098527D01*
X0111474Y0098529D01*
X0108974Y0098529D01*
X0108930Y0098527D01*
X0108887Y0098521D01*
X0108845Y0098512D01*
X0108803Y0098499D01*
X0108763Y0098482D01*
X0108724Y0098462D01*
X0108687Y0098439D01*
X0108653Y0098412D01*
X0108620Y0098383D01*
X0108591Y0098350D01*
X0108564Y0098316D01*
X0108541Y0098279D01*
X0108521Y0098240D01*
X0108504Y0098200D01*
X0108491Y0098158D01*
X0108482Y0098116D01*
X0108476Y0098073D01*
X0108474Y0098029D01*
X0108474Y0092029D01*
X0108476Y0091985D01*
X0108482Y0091942D01*
X0108491Y0091900D01*
X0108504Y0091858D01*
X0108521Y0091818D01*
X0108541Y0091779D01*
X0108564Y0091742D01*
X0108591Y0091708D01*
X0108620Y0091675D01*
X0108653Y0091646D01*
X0108687Y0091619D01*
X0108724Y0091596D01*
X0108763Y0091576D01*
X0108803Y0091559D01*
X0108845Y0091546D01*
X0108887Y0091537D01*
X0108930Y0091531D01*
X0108974Y0091529D01*
X0081814Y0095390D02*
X0081814Y0097890D01*
X0081812Y0097934D01*
X0081806Y0097977D01*
X0081797Y0098019D01*
X0081784Y0098061D01*
X0081767Y0098101D01*
X0081747Y0098140D01*
X0081724Y0098177D01*
X0081697Y0098211D01*
X0081668Y0098244D01*
X0081635Y0098273D01*
X0081601Y0098300D01*
X0081564Y0098323D01*
X0081525Y0098343D01*
X0081485Y0098360D01*
X0081443Y0098373D01*
X0081401Y0098382D01*
X0081358Y0098388D01*
X0081314Y0098390D01*
X0075314Y0098390D01*
X0075270Y0098388D01*
X0075227Y0098382D01*
X0075185Y0098373D01*
X0075143Y0098360D01*
X0075103Y0098343D01*
X0075064Y0098323D01*
X0075027Y0098300D01*
X0074993Y0098273D01*
X0074960Y0098244D01*
X0074931Y0098211D01*
X0074904Y0098177D01*
X0074881Y0098140D01*
X0074861Y0098101D01*
X0074844Y0098061D01*
X0074831Y0098019D01*
X0074822Y0097977D01*
X0074816Y0097934D01*
X0074814Y0097890D01*
X0074814Y0095390D01*
X0074816Y0095346D01*
X0074822Y0095303D01*
X0074831Y0095261D01*
X0074844Y0095219D01*
X0074861Y0095179D01*
X0074881Y0095140D01*
X0074904Y0095103D01*
X0074931Y0095069D01*
X0074960Y0095036D01*
X0074993Y0095007D01*
X0075027Y0094980D01*
X0075064Y0094957D01*
X0075103Y0094937D01*
X0075143Y0094920D01*
X0075185Y0094907D01*
X0075227Y0094898D01*
X0075270Y0094892D01*
X0075314Y0094890D01*
X0081314Y0094890D01*
X0081358Y0094892D01*
X0081401Y0094898D01*
X0081443Y0094907D01*
X0081485Y0094920D01*
X0081525Y0094937D01*
X0081564Y0094957D01*
X0081601Y0094980D01*
X0081635Y0095007D01*
X0081668Y0095036D01*
X0081697Y0095069D01*
X0081724Y0095103D01*
X0081747Y0095140D01*
X0081767Y0095179D01*
X0081784Y0095219D01*
X0081797Y0095261D01*
X0081806Y0095303D01*
X0081812Y0095346D01*
X0081814Y0095390D01*
X0080920Y0094060D02*
X0074920Y0094060D01*
X0074876Y0094058D01*
X0074833Y0094052D01*
X0074791Y0094043D01*
X0074749Y0094030D01*
X0074709Y0094013D01*
X0074670Y0093993D01*
X0074633Y0093970D01*
X0074599Y0093943D01*
X0074566Y0093914D01*
X0074537Y0093881D01*
X0074510Y0093847D01*
X0074487Y0093810D01*
X0074467Y0093771D01*
X0074450Y0093731D01*
X0074437Y0093689D01*
X0074428Y0093647D01*
X0074422Y0093604D01*
X0074420Y0093560D01*
X0074420Y0091060D01*
X0074422Y0091016D01*
X0074428Y0090973D01*
X0074437Y0090931D01*
X0074450Y0090889D01*
X0074467Y0090849D01*
X0074487Y0090810D01*
X0074510Y0090773D01*
X0074537Y0090739D01*
X0074566Y0090706D01*
X0074599Y0090677D01*
X0074633Y0090650D01*
X0074670Y0090627D01*
X0074709Y0090607D01*
X0074749Y0090590D01*
X0074791Y0090577D01*
X0074833Y0090568D01*
X0074876Y0090562D01*
X0074920Y0090560D01*
X0080920Y0090560D01*
X0080964Y0090562D01*
X0081007Y0090568D01*
X0081049Y0090577D01*
X0081091Y0090590D01*
X0081131Y0090607D01*
X0081170Y0090627D01*
X0081207Y0090650D01*
X0081241Y0090677D01*
X0081274Y0090706D01*
X0081303Y0090739D01*
X0081330Y0090773D01*
X0081353Y0090810D01*
X0081373Y0090849D01*
X0081390Y0090889D01*
X0081403Y0090931D01*
X0081412Y0090973D01*
X0081418Y0091016D01*
X0081420Y0091060D01*
X0081420Y0093560D01*
X0081418Y0093604D01*
X0081412Y0093647D01*
X0081403Y0093689D01*
X0081390Y0093731D01*
X0081373Y0093771D01*
X0081353Y0093810D01*
X0081330Y0093847D01*
X0081303Y0093881D01*
X0081274Y0093914D01*
X0081241Y0093943D01*
X0081207Y0093970D01*
X0081170Y0093993D01*
X0081131Y0094013D01*
X0081091Y0094030D01*
X0081049Y0094043D01*
X0081007Y0094052D01*
X0080964Y0094058D01*
X0080920Y0094060D01*
X0071577Y0114583D02*
X0065577Y0114583D01*
X0065533Y0114585D01*
X0065490Y0114591D01*
X0065448Y0114600D01*
X0065406Y0114613D01*
X0065366Y0114630D01*
X0065327Y0114650D01*
X0065290Y0114673D01*
X0065256Y0114700D01*
X0065223Y0114729D01*
X0065194Y0114762D01*
X0065167Y0114796D01*
X0065144Y0114833D01*
X0065124Y0114872D01*
X0065107Y0114912D01*
X0065094Y0114954D01*
X0065085Y0114996D01*
X0065079Y0115039D01*
X0065077Y0115083D01*
X0065077Y0117583D01*
X0065079Y0117627D01*
X0065085Y0117670D01*
X0065094Y0117712D01*
X0065107Y0117754D01*
X0065124Y0117794D01*
X0065144Y0117833D01*
X0065167Y0117870D01*
X0065194Y0117904D01*
X0065223Y0117937D01*
X0065256Y0117966D01*
X0065290Y0117993D01*
X0065327Y0118016D01*
X0065366Y0118036D01*
X0065406Y0118053D01*
X0065448Y0118066D01*
X0065490Y0118075D01*
X0065533Y0118081D01*
X0065577Y0118083D01*
X0071577Y0118083D01*
X0071621Y0118081D01*
X0071664Y0118075D01*
X0071706Y0118066D01*
X0071748Y0118053D01*
X0071788Y0118036D01*
X0071827Y0118016D01*
X0071864Y0117993D01*
X0071898Y0117966D01*
X0071931Y0117937D01*
X0071960Y0117904D01*
X0071987Y0117870D01*
X0072010Y0117833D01*
X0072030Y0117794D01*
X0072047Y0117754D01*
X0072060Y0117712D01*
X0072069Y0117670D01*
X0072075Y0117627D01*
X0072077Y0117583D01*
X0072077Y0115083D01*
X0072075Y0115039D01*
X0072069Y0114996D01*
X0072060Y0114954D01*
X0072047Y0114912D01*
X0072030Y0114872D01*
X0072010Y0114833D01*
X0071987Y0114796D01*
X0071960Y0114762D01*
X0071931Y0114729D01*
X0071898Y0114700D01*
X0071864Y0114673D01*
X0071827Y0114650D01*
X0071788Y0114630D01*
X0071748Y0114613D01*
X0071706Y0114600D01*
X0071664Y0114591D01*
X0071621Y0114585D01*
X0071577Y0114583D01*
X0071577Y0120153D02*
X0065577Y0120153D01*
X0065533Y0120155D01*
X0065490Y0120161D01*
X0065448Y0120170D01*
X0065406Y0120183D01*
X0065366Y0120200D01*
X0065327Y0120220D01*
X0065290Y0120243D01*
X0065256Y0120270D01*
X0065223Y0120299D01*
X0065194Y0120332D01*
X0065167Y0120366D01*
X0065144Y0120403D01*
X0065124Y0120442D01*
X0065107Y0120482D01*
X0065094Y0120524D01*
X0065085Y0120566D01*
X0065079Y0120609D01*
X0065077Y0120653D01*
X0065077Y0123153D01*
X0065079Y0123197D01*
X0065085Y0123240D01*
X0065094Y0123282D01*
X0065107Y0123324D01*
X0065124Y0123364D01*
X0065144Y0123403D01*
X0065167Y0123440D01*
X0065194Y0123474D01*
X0065223Y0123507D01*
X0065256Y0123536D01*
X0065290Y0123563D01*
X0065327Y0123586D01*
X0065366Y0123606D01*
X0065406Y0123623D01*
X0065448Y0123636D01*
X0065490Y0123645D01*
X0065533Y0123651D01*
X0065577Y0123653D01*
X0071577Y0123653D01*
X0071621Y0123651D01*
X0071664Y0123645D01*
X0071706Y0123636D01*
X0071748Y0123623D01*
X0071788Y0123606D01*
X0071827Y0123586D01*
X0071864Y0123563D01*
X0071898Y0123536D01*
X0071931Y0123507D01*
X0071960Y0123474D01*
X0071987Y0123440D01*
X0072010Y0123403D01*
X0072030Y0123364D01*
X0072047Y0123324D01*
X0072060Y0123282D01*
X0072069Y0123240D01*
X0072075Y0123197D01*
X0072077Y0123153D01*
X0072077Y0120653D01*
X0072075Y0120609D01*
X0072069Y0120566D01*
X0072060Y0120524D01*
X0072047Y0120482D01*
X0072030Y0120442D01*
X0072010Y0120403D01*
X0071987Y0120366D01*
X0071960Y0120332D01*
X0071931Y0120299D01*
X0071898Y0120270D01*
X0071864Y0120243D01*
X0071827Y0120220D01*
X0071788Y0120200D01*
X0071748Y0120183D01*
X0071706Y0120170D01*
X0071664Y0120161D01*
X0071621Y0120155D01*
X0071577Y0120153D01*
X0071577Y0126272D02*
X0065577Y0126272D01*
X0065533Y0126274D01*
X0065490Y0126280D01*
X0065448Y0126289D01*
X0065406Y0126302D01*
X0065366Y0126319D01*
X0065327Y0126339D01*
X0065290Y0126362D01*
X0065256Y0126389D01*
X0065223Y0126418D01*
X0065194Y0126451D01*
X0065167Y0126485D01*
X0065144Y0126522D01*
X0065124Y0126561D01*
X0065107Y0126601D01*
X0065094Y0126643D01*
X0065085Y0126685D01*
X0065079Y0126728D01*
X0065077Y0126772D01*
X0065077Y0129272D01*
X0065079Y0129316D01*
X0065085Y0129359D01*
X0065094Y0129401D01*
X0065107Y0129443D01*
X0065124Y0129483D01*
X0065144Y0129522D01*
X0065167Y0129559D01*
X0065194Y0129593D01*
X0065223Y0129626D01*
X0065256Y0129655D01*
X0065290Y0129682D01*
X0065327Y0129705D01*
X0065366Y0129725D01*
X0065406Y0129742D01*
X0065448Y0129755D01*
X0065490Y0129764D01*
X0065533Y0129770D01*
X0065577Y0129772D01*
X0071577Y0129772D01*
X0071621Y0129770D01*
X0071664Y0129764D01*
X0071706Y0129755D01*
X0071748Y0129742D01*
X0071788Y0129725D01*
X0071827Y0129705D01*
X0071864Y0129682D01*
X0071898Y0129655D01*
X0071931Y0129626D01*
X0071960Y0129593D01*
X0071987Y0129559D01*
X0072010Y0129522D01*
X0072030Y0129483D01*
X0072047Y0129443D01*
X0072060Y0129401D01*
X0072069Y0129359D01*
X0072075Y0129316D01*
X0072077Y0129272D01*
X0072077Y0126772D01*
X0072075Y0126728D01*
X0072069Y0126685D01*
X0072060Y0126643D01*
X0072047Y0126601D01*
X0072030Y0126561D01*
X0072010Y0126522D01*
X0071987Y0126485D01*
X0071960Y0126451D01*
X0071931Y0126418D01*
X0071898Y0126389D01*
X0071864Y0126362D01*
X0071827Y0126339D01*
X0071788Y0126319D01*
X0071748Y0126302D01*
X0071706Y0126289D01*
X0071664Y0126280D01*
X0071621Y0126274D01*
X0071577Y0126272D01*
X0075150Y0131038D02*
X0077650Y0131038D01*
X0077694Y0131040D01*
X0077737Y0131046D01*
X0077779Y0131055D01*
X0077821Y0131068D01*
X0077861Y0131085D01*
X0077900Y0131105D01*
X0077937Y0131128D01*
X0077971Y0131155D01*
X0078004Y0131184D01*
X0078033Y0131217D01*
X0078060Y0131251D01*
X0078083Y0131288D01*
X0078103Y0131327D01*
X0078120Y0131367D01*
X0078133Y0131409D01*
X0078142Y0131451D01*
X0078148Y0131494D01*
X0078150Y0131538D01*
X0078150Y0137538D01*
X0078148Y0137582D01*
X0078142Y0137625D01*
X0078133Y0137667D01*
X0078120Y0137709D01*
X0078103Y0137749D01*
X0078083Y0137788D01*
X0078060Y0137825D01*
X0078033Y0137859D01*
X0078004Y0137892D01*
X0077971Y0137921D01*
X0077937Y0137948D01*
X0077900Y0137971D01*
X0077861Y0137991D01*
X0077821Y0138008D01*
X0077779Y0138021D01*
X0077737Y0138030D01*
X0077694Y0138036D01*
X0077650Y0138038D01*
X0075150Y0138038D01*
X0075106Y0138036D01*
X0075063Y0138030D01*
X0075021Y0138021D01*
X0074979Y0138008D01*
X0074939Y0137991D01*
X0074900Y0137971D01*
X0074863Y0137948D01*
X0074829Y0137921D01*
X0074796Y0137892D01*
X0074767Y0137859D01*
X0074740Y0137825D01*
X0074717Y0137788D01*
X0074697Y0137749D01*
X0074680Y0137709D01*
X0074667Y0137667D01*
X0074658Y0137625D01*
X0074652Y0137582D01*
X0074650Y0137538D01*
X0074650Y0131538D01*
X0074652Y0131494D01*
X0074658Y0131451D01*
X0074667Y0131409D01*
X0074680Y0131367D01*
X0074697Y0131327D01*
X0074717Y0131288D01*
X0074740Y0131251D01*
X0074767Y0131217D01*
X0074796Y0131184D01*
X0074829Y0131155D01*
X0074863Y0131128D01*
X0074900Y0131105D01*
X0074939Y0131085D01*
X0074979Y0131068D01*
X0075021Y0131055D01*
X0075063Y0131046D01*
X0075106Y0131040D01*
X0075150Y0131038D01*
X0079036Y0131412D02*
X0079036Y0137412D01*
X0079038Y0137456D01*
X0079044Y0137499D01*
X0079053Y0137541D01*
X0079066Y0137583D01*
X0079083Y0137623D01*
X0079103Y0137662D01*
X0079126Y0137699D01*
X0079153Y0137733D01*
X0079182Y0137766D01*
X0079215Y0137795D01*
X0079249Y0137822D01*
X0079286Y0137845D01*
X0079325Y0137865D01*
X0079365Y0137882D01*
X0079407Y0137895D01*
X0079449Y0137904D01*
X0079492Y0137910D01*
X0079536Y0137912D01*
X0082036Y0137912D01*
X0082080Y0137910D01*
X0082123Y0137904D01*
X0082165Y0137895D01*
X0082207Y0137882D01*
X0082247Y0137865D01*
X0082286Y0137845D01*
X0082323Y0137822D01*
X0082357Y0137795D01*
X0082390Y0137766D01*
X0082419Y0137733D01*
X0082446Y0137699D01*
X0082469Y0137662D01*
X0082489Y0137623D01*
X0082506Y0137583D01*
X0082519Y0137541D01*
X0082528Y0137499D01*
X0082534Y0137456D01*
X0082536Y0137412D01*
X0082536Y0131412D01*
X0082534Y0131368D01*
X0082528Y0131325D01*
X0082519Y0131283D01*
X0082506Y0131241D01*
X0082489Y0131201D01*
X0082469Y0131162D01*
X0082446Y0131125D01*
X0082419Y0131091D01*
X0082390Y0131058D01*
X0082357Y0131029D01*
X0082323Y0131002D01*
X0082286Y0130979D01*
X0082247Y0130959D01*
X0082207Y0130942D01*
X0082165Y0130929D01*
X0082123Y0130920D01*
X0082080Y0130914D01*
X0082036Y0130912D01*
X0079536Y0130912D01*
X0079492Y0130914D01*
X0079449Y0130920D01*
X0079407Y0130929D01*
X0079365Y0130942D01*
X0079325Y0130959D01*
X0079286Y0130979D01*
X0079249Y0131002D01*
X0079215Y0131029D01*
X0079182Y0131058D01*
X0079153Y0131091D01*
X0079126Y0131125D01*
X0079103Y0131162D01*
X0079083Y0131201D01*
X0079066Y0131241D01*
X0079053Y0131283D01*
X0079044Y0131325D01*
X0079038Y0131368D01*
X0079036Y0131412D01*
D12*
X0078245Y0126840D02*
X0077211Y0126840D01*
X0076694Y0126323D01*
X0075540Y0126323D02*
X0075022Y0126840D01*
X0073471Y0126840D01*
X0073471Y0123737D01*
X0073471Y0122758D02*
X0075022Y0122758D01*
X0075540Y0122241D01*
X0075540Y0121207D01*
X0075022Y0120690D01*
X0073471Y0120690D01*
X0074505Y0120690D02*
X0075540Y0119655D01*
X0076694Y0119655D02*
X0078762Y0121724D01*
X0078762Y0122241D01*
X0078245Y0122758D01*
X0077211Y0122758D01*
X0076694Y0122241D01*
X0076694Y0123737D02*
X0078762Y0125806D01*
X0078762Y0126323D01*
X0078245Y0126840D01*
X0079917Y0125806D02*
X0080951Y0126840D01*
X0080951Y0123737D01*
X0079917Y0123737D02*
X0081985Y0123737D01*
X0081468Y0122758D02*
X0081985Y0122241D01*
X0079917Y0120172D01*
X0080434Y0119655D01*
X0081468Y0119655D01*
X0081985Y0120172D01*
X0081985Y0122241D01*
X0081468Y0122758D02*
X0080434Y0122758D01*
X0079917Y0122241D01*
X0079917Y0120172D01*
X0078762Y0119655D02*
X0076694Y0119655D01*
X0076611Y0118128D02*
X0076094Y0117611D01*
X0076611Y0118128D02*
X0077645Y0118128D01*
X0078162Y0117611D01*
X0078162Y0117094D01*
X0076094Y0115025D01*
X0078162Y0115025D01*
X0079317Y0115025D02*
X0081385Y0117094D01*
X0081385Y0117611D01*
X0080868Y0118128D01*
X0079834Y0118128D01*
X0079317Y0117611D01*
X0079317Y0115025D02*
X0081385Y0115025D01*
X0074940Y0115025D02*
X0073905Y0116060D01*
X0074422Y0116060D02*
X0072871Y0116060D01*
X0072871Y0115025D02*
X0072871Y0118128D01*
X0074422Y0118128D01*
X0074940Y0117611D01*
X0074940Y0116577D01*
X0074422Y0116060D01*
X0073471Y0119655D02*
X0073471Y0122758D01*
X0073471Y0124771D02*
X0075022Y0124771D01*
X0075540Y0125289D01*
X0075540Y0126323D01*
X0074505Y0124771D02*
X0075540Y0123737D01*
X0076694Y0123737D02*
X0078762Y0123737D01*
X0077776Y0139447D02*
X0079845Y0139447D01*
X0080362Y0139964D01*
X0080362Y0140998D01*
X0079845Y0141515D01*
X0080362Y0142669D02*
X0080362Y0144738D01*
X0080362Y0143704D02*
X0077259Y0143704D01*
X0078293Y0142669D01*
X0077776Y0141515D02*
X0077259Y0140998D01*
X0077259Y0139964D01*
X0077776Y0139447D01*
X0075700Y0140255D02*
X0075700Y0141289D01*
X0075183Y0141806D01*
X0075183Y0142961D02*
X0075700Y0143478D01*
X0075700Y0144512D01*
X0075183Y0145029D01*
X0073115Y0145029D01*
X0072598Y0144512D01*
X0072598Y0143478D01*
X0073115Y0142961D01*
X0073632Y0142961D01*
X0074149Y0143478D01*
X0074149Y0145029D01*
X0073115Y0141806D02*
X0072598Y0141289D01*
X0072598Y0140255D01*
X0073115Y0139738D01*
X0075183Y0139738D01*
X0075700Y0140255D01*
X0077776Y0145892D02*
X0077259Y0146409D01*
X0077259Y0147444D01*
X0077776Y0147961D01*
X0079845Y0145892D01*
X0080362Y0146409D01*
X0080362Y0147444D01*
X0079845Y0147961D01*
X0077776Y0147961D01*
X0077776Y0145892D02*
X0079845Y0145892D01*
X0094589Y0147450D02*
X0095106Y0146933D01*
X0096140Y0146933D01*
X0096657Y0147450D01*
X0097811Y0146933D02*
X0099880Y0146933D01*
X0098846Y0146933D02*
X0098846Y0150036D01*
X0097811Y0149002D01*
X0096657Y0149519D02*
X0096140Y0150036D01*
X0095106Y0150036D01*
X0094589Y0149519D01*
X0094589Y0147450D01*
X0101034Y0146933D02*
X0103103Y0149002D01*
X0103103Y0149519D01*
X0102586Y0150036D01*
X0101551Y0150036D01*
X0101034Y0149519D01*
X0101034Y0146933D02*
X0103103Y0146933D01*
X0119539Y0143652D02*
X0119539Y0141584D01*
X0120056Y0141066D01*
X0121090Y0141066D01*
X0121607Y0141584D01*
X0122762Y0141066D02*
X0124830Y0143135D01*
X0124830Y0143652D01*
X0124313Y0144169D01*
X0123279Y0144169D01*
X0122762Y0143652D01*
X0121607Y0143652D02*
X0121090Y0144169D01*
X0120056Y0144169D01*
X0119539Y0143652D01*
X0122762Y0141066D02*
X0124830Y0141066D01*
X0125984Y0142618D02*
X0128053Y0142618D01*
X0127536Y0144169D02*
X0125984Y0142618D01*
X0127536Y0141066D02*
X0127536Y0144169D01*
X0128162Y0129608D02*
X0128162Y0128057D01*
X0129196Y0128574D01*
X0129713Y0128574D01*
X0130230Y0128057D01*
X0130230Y0127023D01*
X0129713Y0126506D01*
X0128679Y0126506D01*
X0128162Y0127023D01*
X0127007Y0126506D02*
X0125973Y0127540D01*
X0126490Y0127540D02*
X0124939Y0127540D01*
X0124939Y0126506D02*
X0124939Y0129608D01*
X0126490Y0129608D01*
X0127007Y0129091D01*
X0127007Y0128057D01*
X0126490Y0127540D01*
X0128162Y0129608D02*
X0130230Y0129608D01*
X0113669Y0129769D02*
X0113669Y0131838D01*
X0113669Y0130804D02*
X0110566Y0130804D01*
X0111600Y0129769D01*
X0111083Y0128615D02*
X0110566Y0128098D01*
X0110566Y0126547D01*
X0113669Y0126547D01*
X0113669Y0128098D01*
X0113152Y0128615D01*
X0111083Y0128615D01*
X0108514Y0128280D02*
X0107480Y0127246D01*
X0107480Y0127763D02*
X0107480Y0126212D01*
X0108514Y0126212D02*
X0105412Y0126212D01*
X0105412Y0127763D01*
X0105929Y0128280D01*
X0106963Y0128280D01*
X0107480Y0127763D01*
X0107480Y0129435D02*
X0106963Y0129952D01*
X0106963Y0130986D01*
X0107480Y0131503D01*
X0107997Y0131503D01*
X0108514Y0130986D01*
X0108514Y0129952D01*
X0107997Y0129435D01*
X0107480Y0129435D01*
X0106963Y0129952D02*
X0106446Y0129435D01*
X0105929Y0129435D01*
X0105412Y0129952D01*
X0105412Y0130986D01*
X0105929Y0131503D01*
X0106446Y0131503D01*
X0106963Y0130986D01*
X0103220Y0131244D02*
X0100117Y0131244D01*
X0101669Y0129692D01*
X0101669Y0131761D01*
X0103220Y0128538D02*
X0103220Y0126469D01*
X0103220Y0127504D02*
X0100117Y0127504D01*
X0101152Y0126469D01*
X0101669Y0125315D02*
X0102186Y0124798D01*
X0102186Y0123247D01*
X0102186Y0124281D02*
X0103220Y0125315D01*
X0101669Y0125315D02*
X0100634Y0125315D01*
X0100117Y0124798D01*
X0100117Y0123247D01*
X0103220Y0123247D01*
X0112838Y0117753D02*
X0114390Y0117753D01*
X0114907Y0117235D01*
X0114907Y0116201D01*
X0114390Y0115684D01*
X0112838Y0115684D01*
X0112838Y0114650D02*
X0112838Y0117753D01*
X0113872Y0115684D02*
X0114907Y0114650D01*
X0116061Y0114650D02*
X0118129Y0116718D01*
X0118129Y0117235D01*
X0117612Y0117753D01*
X0116578Y0117753D01*
X0116061Y0117235D01*
X0116061Y0114650D02*
X0118129Y0114650D01*
X0118667Y0112634D02*
X0118667Y0111083D01*
X0119701Y0111600D01*
X0120219Y0111600D01*
X0120736Y0111083D01*
X0120736Y0110049D01*
X0120219Y0109532D01*
X0119184Y0109532D01*
X0118667Y0110049D01*
X0117513Y0109532D02*
X0115445Y0109532D01*
X0117513Y0111600D01*
X0117513Y0112117D01*
X0116996Y0112634D01*
X0115962Y0112634D01*
X0115445Y0112117D01*
X0114290Y0112117D02*
X0113773Y0112634D01*
X0112739Y0112634D01*
X0112222Y0112117D01*
X0112222Y0110049D01*
X0112739Y0109532D01*
X0113773Y0109532D01*
X0114290Y0110049D01*
X0118667Y0112634D02*
X0120736Y0112634D01*
X0120469Y0097232D02*
X0122538Y0097232D01*
X0122538Y0096715D01*
X0120469Y0094646D01*
X0120469Y0094129D01*
X0119315Y0094129D02*
X0117247Y0094129D01*
X0118281Y0094129D02*
X0118281Y0097232D01*
X0117247Y0096198D01*
X0116092Y0096715D02*
X0116092Y0095681D01*
X0115575Y0095164D01*
X0114024Y0095164D01*
X0115058Y0095164D02*
X0116092Y0094129D01*
X0114024Y0094129D02*
X0114024Y0097232D01*
X0115575Y0097232D01*
X0116092Y0096715D01*
X0114995Y0084667D02*
X0115512Y0084150D01*
X0115512Y0083116D01*
X0114995Y0082599D01*
X0113444Y0082599D01*
X0114478Y0082599D02*
X0115512Y0081565D01*
X0116666Y0081565D02*
X0118735Y0081565D01*
X0117701Y0081565D02*
X0117701Y0084667D01*
X0116666Y0083633D01*
X0114995Y0084667D02*
X0113444Y0084667D01*
X0113444Y0081565D01*
X0119889Y0082082D02*
X0119889Y0082599D01*
X0120406Y0083116D01*
X0121440Y0083116D01*
X0121957Y0082599D01*
X0121957Y0082082D01*
X0121440Y0081565D01*
X0120406Y0081565D01*
X0119889Y0082082D01*
X0120406Y0083116D02*
X0119889Y0083633D01*
X0119889Y0084150D01*
X0120406Y0084667D01*
X0121440Y0084667D01*
X0121957Y0084150D01*
X0121957Y0083633D01*
X0121440Y0083116D01*
X0140180Y0082761D02*
X0140180Y0085864D01*
X0141731Y0085864D01*
X0142248Y0085346D01*
X0142248Y0084312D01*
X0141731Y0083795D01*
X0140180Y0083795D01*
X0141214Y0083795D02*
X0142248Y0082761D01*
X0143403Y0084312D02*
X0145471Y0084312D01*
X0144954Y0082761D02*
X0144954Y0085864D01*
X0143403Y0084312D01*
X0156334Y0084720D02*
X0156334Y0082652D01*
X0156851Y0082135D01*
X0157886Y0082135D01*
X0158403Y0082652D01*
X0159557Y0082652D02*
X0159557Y0083169D01*
X0160074Y0083686D01*
X0161108Y0083686D01*
X0161625Y0083169D01*
X0161625Y0082652D01*
X0161108Y0082135D01*
X0160074Y0082135D01*
X0159557Y0082652D01*
X0160074Y0083686D02*
X0159557Y0084203D01*
X0159557Y0084720D01*
X0160074Y0085238D01*
X0161108Y0085238D01*
X0161625Y0084720D01*
X0161625Y0084203D01*
X0161108Y0083686D01*
X0158403Y0084720D02*
X0157886Y0085238D01*
X0156851Y0085238D01*
X0156334Y0084720D01*
X0170361Y0080287D02*
X0170361Y0078219D01*
X0170878Y0077702D01*
X0171912Y0077702D01*
X0172429Y0078219D01*
X0173584Y0078219D02*
X0174101Y0077702D01*
X0175135Y0077702D01*
X0175652Y0078219D01*
X0175652Y0078736D01*
X0175135Y0079253D01*
X0173584Y0079253D01*
X0173584Y0078219D01*
X0173584Y0079253D02*
X0174618Y0080287D01*
X0175652Y0080804D01*
X0172429Y0080287D02*
X0171912Y0080804D01*
X0170878Y0080804D01*
X0170361Y0080287D01*
X0174809Y0088452D02*
X0175843Y0088452D01*
X0176360Y0088969D01*
X0177514Y0088452D02*
X0179583Y0088452D01*
X0178549Y0088452D02*
X0178549Y0091555D01*
X0177514Y0090521D01*
X0176360Y0091038D02*
X0175843Y0091555D01*
X0174809Y0091555D01*
X0174292Y0091038D01*
X0174292Y0088969D01*
X0174809Y0088452D01*
X0180737Y0090004D02*
X0182806Y0090004D01*
X0182288Y0091555D02*
X0180737Y0090004D01*
X0182288Y0091555D02*
X0182288Y0088452D01*
X0190112Y0088736D02*
X0190112Y0091838D01*
X0191663Y0091838D01*
X0192180Y0091321D01*
X0192180Y0090287D01*
X0191663Y0089770D01*
X0190112Y0089770D01*
X0191146Y0089770D02*
X0192180Y0088736D01*
X0193335Y0089253D02*
X0193852Y0088736D01*
X0194886Y0088736D01*
X0195403Y0089253D01*
X0195403Y0089770D01*
X0194886Y0090287D01*
X0194369Y0090287D01*
X0194886Y0090287D02*
X0195403Y0090804D01*
X0195403Y0091321D01*
X0194886Y0091838D01*
X0193852Y0091838D01*
X0193335Y0091321D01*
X0202910Y0084707D02*
X0203427Y0084707D01*
X0205496Y0082638D01*
X0206013Y0082638D01*
X0206013Y0081484D02*
X0206013Y0079415D01*
X0203944Y0081484D01*
X0203427Y0081484D01*
X0202910Y0080967D01*
X0202910Y0079932D01*
X0203427Y0079415D01*
X0203427Y0078261D02*
X0202910Y0077744D01*
X0202910Y0076710D01*
X0203427Y0076193D01*
X0205496Y0076193D01*
X0206013Y0076710D01*
X0206013Y0077744D01*
X0205496Y0078261D01*
X0207202Y0079901D02*
X0207719Y0079384D01*
X0209787Y0079384D01*
X0210304Y0079901D01*
X0210304Y0080935D01*
X0209787Y0081452D01*
X0210304Y0082607D02*
X0210304Y0084675D01*
X0210304Y0083641D02*
X0207202Y0083641D01*
X0208236Y0082607D01*
X0207719Y0081452D02*
X0207202Y0080935D01*
X0207202Y0079901D01*
X0211649Y0079248D02*
X0211649Y0080800D01*
X0212166Y0081317D01*
X0213200Y0081317D01*
X0213717Y0080800D01*
X0213717Y0079248D01*
X0214751Y0079248D02*
X0211649Y0079248D01*
X0213717Y0080283D02*
X0214751Y0081317D01*
X0215512Y0080612D02*
X0215512Y0079578D01*
X0216029Y0079061D01*
X0218097Y0079061D01*
X0218614Y0079578D01*
X0218614Y0080612D01*
X0218097Y0081129D01*
X0217063Y0082284D02*
X0217063Y0084352D01*
X0215512Y0083835D02*
X0217063Y0082284D01*
X0216029Y0081129D02*
X0215512Y0080612D01*
X0214751Y0082471D02*
X0214751Y0084540D01*
X0214751Y0083505D02*
X0211649Y0083505D01*
X0212683Y0082471D01*
X0215512Y0083835D02*
X0218614Y0083835D01*
X0220387Y0083959D02*
X0220387Y0081890D01*
X0221939Y0081890D01*
X0221422Y0082924D01*
X0221422Y0083441D01*
X0221939Y0083959D01*
X0222973Y0083959D01*
X0223490Y0083441D01*
X0223490Y0082407D01*
X0222973Y0081890D01*
X0222973Y0080736D02*
X0223490Y0080219D01*
X0223490Y0079184D01*
X0222973Y0078667D01*
X0220904Y0078667D01*
X0220387Y0079184D01*
X0220387Y0080219D01*
X0220904Y0080736D01*
X0202910Y0082638D02*
X0202910Y0084707D01*
X0202573Y0077595D02*
X0202573Y0074492D01*
X0201539Y0074492D02*
X0203607Y0074492D01*
X0201539Y0076561D02*
X0202573Y0077595D01*
X0200384Y0077595D02*
X0200384Y0077078D01*
X0199350Y0076044D01*
X0199350Y0074492D01*
X0199350Y0076044D02*
X0198316Y0077078D01*
X0198316Y0077595D01*
X0197558Y0070202D02*
X0196524Y0070202D01*
X0196007Y0069685D01*
X0196007Y0067617D01*
X0196524Y0067099D01*
X0197558Y0067099D01*
X0198075Y0067617D01*
X0199229Y0067617D02*
X0199229Y0067099D01*
X0199229Y0067617D02*
X0201298Y0069685D01*
X0201298Y0070202D01*
X0199229Y0070202D01*
X0198075Y0069685D02*
X0197558Y0070202D01*
X0198364Y0060564D02*
X0197847Y0060047D01*
X0198364Y0060564D02*
X0199399Y0060564D01*
X0199916Y0060047D01*
X0199916Y0059530D01*
X0197847Y0057462D01*
X0199916Y0057462D01*
X0196693Y0057462D02*
X0194625Y0057462D01*
X0195659Y0057462D02*
X0195659Y0060564D01*
X0194625Y0059530D01*
X0193470Y0059013D02*
X0192953Y0058496D01*
X0191402Y0058496D01*
X0192436Y0058496D02*
X0193470Y0057462D01*
X0193470Y0059013D02*
X0193470Y0060047D01*
X0192953Y0060564D01*
X0191402Y0060564D01*
X0191402Y0057462D01*
X0192218Y0043764D02*
X0193770Y0043764D01*
X0194287Y0043247D01*
X0194287Y0041179D01*
X0193770Y0040662D01*
X0192218Y0040662D01*
X0192218Y0043764D01*
X0195441Y0043764D02*
X0195441Y0042213D01*
X0196475Y0042730D01*
X0196992Y0042730D01*
X0197510Y0042213D01*
X0197510Y0041179D01*
X0196992Y0040662D01*
X0195958Y0040662D01*
X0195441Y0041179D01*
X0195441Y0043764D02*
X0197510Y0043764D01*
X0222602Y0056558D02*
X0222602Y0059660D01*
X0224153Y0059660D01*
X0224670Y0059143D01*
X0224670Y0058109D01*
X0224153Y0057592D01*
X0222602Y0057592D01*
X0223636Y0057592D02*
X0224670Y0056558D01*
X0225825Y0056558D02*
X0227893Y0056558D01*
X0226859Y0056558D02*
X0226859Y0059660D01*
X0225825Y0058626D01*
X0229047Y0059143D02*
X0229564Y0059660D01*
X0230599Y0059660D01*
X0231116Y0059143D01*
X0231116Y0058626D01*
X0230599Y0058109D01*
X0231116Y0057592D01*
X0231116Y0057075D01*
X0230599Y0056558D01*
X0229564Y0056558D01*
X0229047Y0057075D01*
X0230082Y0058109D02*
X0230599Y0058109D01*
X0232926Y0057058D02*
X0232926Y0056541D01*
X0233443Y0056024D01*
X0234477Y0056024D01*
X0234994Y0055507D01*
X0234994Y0054990D01*
X0234477Y0054473D01*
X0233443Y0054473D01*
X0232926Y0054990D01*
X0232926Y0057058D02*
X0233443Y0057575D01*
X0234477Y0057575D01*
X0234994Y0057058D01*
X0236149Y0057575D02*
X0236149Y0054473D01*
X0237183Y0055507D01*
X0238217Y0054473D01*
X0238217Y0057575D01*
X0239371Y0057058D02*
X0239889Y0057575D01*
X0240923Y0057575D01*
X0241440Y0057058D01*
X0241440Y0056541D01*
X0240923Y0056024D01*
X0241440Y0055507D01*
X0241440Y0054990D01*
X0240923Y0054473D01*
X0239889Y0054473D01*
X0239371Y0054990D01*
X0240406Y0056024D02*
X0240923Y0056024D01*
X0242594Y0055507D02*
X0244146Y0055507D01*
X0244663Y0056024D01*
X0244663Y0057058D01*
X0244146Y0057575D01*
X0242594Y0057575D01*
X0242594Y0054473D01*
X0245817Y0056024D02*
X0247885Y0056024D01*
X0249040Y0056541D02*
X0250074Y0057575D01*
X0250074Y0054473D01*
X0249040Y0054473D02*
X0251108Y0054473D01*
X0267002Y0057265D02*
X0267002Y0060367D01*
X0268553Y0060367D01*
X0269070Y0059850D01*
X0269070Y0058816D01*
X0268553Y0058299D01*
X0267002Y0058299D01*
X0268036Y0058299D02*
X0269070Y0057265D01*
X0270225Y0057265D02*
X0272293Y0059333D01*
X0272293Y0059850D01*
X0271776Y0060367D01*
X0270742Y0060367D01*
X0270225Y0059850D01*
X0270225Y0057265D02*
X0272293Y0057265D01*
X0273447Y0057782D02*
X0273964Y0057265D01*
X0274999Y0057265D01*
X0275516Y0057782D01*
X0275516Y0058299D01*
X0274999Y0058816D01*
X0274482Y0058816D01*
X0274999Y0058816D02*
X0275516Y0059333D01*
X0275516Y0059850D01*
X0274999Y0060367D01*
X0273964Y0060367D01*
X0273447Y0059850D01*
X0285602Y0059384D02*
X0287153Y0059384D01*
X0287670Y0059901D01*
X0287670Y0060935D01*
X0287153Y0061453D01*
X0285602Y0061453D01*
X0285602Y0058350D01*
X0286636Y0059384D02*
X0287670Y0058350D01*
X0288825Y0058350D02*
X0290893Y0060418D01*
X0290893Y0060935D01*
X0290376Y0061453D01*
X0289342Y0061453D01*
X0288825Y0060935D01*
X0288825Y0058350D02*
X0290893Y0058350D01*
X0290698Y0058775D02*
X0290181Y0058258D01*
X0290181Y0057741D01*
X0290698Y0057224D01*
X0291732Y0057224D01*
X0292249Y0056707D01*
X0292249Y0056190D01*
X0291732Y0055673D01*
X0290698Y0055673D01*
X0290181Y0056190D01*
X0290698Y0058775D02*
X0291732Y0058775D01*
X0292249Y0058258D01*
X0293404Y0058775D02*
X0293404Y0055673D01*
X0294438Y0056707D01*
X0295472Y0055673D01*
X0295472Y0058775D01*
X0296627Y0058258D02*
X0297144Y0058775D01*
X0298178Y0058775D01*
X0298695Y0058258D01*
X0298695Y0057741D01*
X0298178Y0057224D01*
X0298695Y0056707D01*
X0298695Y0056190D01*
X0298178Y0055673D01*
X0297144Y0055673D01*
X0296627Y0056190D01*
X0297661Y0057224D02*
X0298178Y0057224D01*
X0299849Y0056707D02*
X0301401Y0056707D01*
X0301918Y0057224D01*
X0301918Y0058258D01*
X0301401Y0058775D01*
X0299849Y0058775D01*
X0299849Y0055673D01*
X0303072Y0057224D02*
X0305140Y0057224D01*
X0306295Y0058258D02*
X0306812Y0058775D01*
X0307846Y0058775D01*
X0308363Y0058258D01*
X0308363Y0057741D01*
X0306295Y0055673D01*
X0308363Y0055673D01*
X0294116Y0059901D02*
X0292047Y0059901D01*
X0293599Y0061453D01*
X0293599Y0058350D01*
X0293815Y0045253D02*
X0294332Y0044735D01*
X0292264Y0042667D01*
X0292781Y0042150D01*
X0293815Y0042150D01*
X0294332Y0042667D01*
X0294332Y0044735D01*
X0293815Y0045253D02*
X0292781Y0045253D01*
X0292264Y0044735D01*
X0292264Y0042667D01*
X0291110Y0042150D02*
X0289041Y0042150D01*
X0290075Y0042150D02*
X0290075Y0045253D01*
X0289041Y0044218D01*
X0287887Y0044735D02*
X0287370Y0045253D01*
X0285818Y0045253D01*
X0285818Y0042150D01*
X0287370Y0042150D01*
X0287887Y0042667D01*
X0287887Y0044735D01*
X0273110Y0042450D02*
X0273110Y0040382D01*
X0272592Y0039865D01*
X0271558Y0039865D01*
X0271041Y0040382D01*
X0269887Y0040382D02*
X0269887Y0042450D01*
X0269370Y0042967D01*
X0267818Y0042967D01*
X0267818Y0039865D01*
X0269370Y0039865D01*
X0269887Y0040382D01*
X0271041Y0041933D02*
X0271558Y0041416D01*
X0273110Y0041416D01*
X0273110Y0042450D02*
X0272592Y0042967D01*
X0271558Y0042967D01*
X0271041Y0042450D01*
X0271041Y0041933D01*
X0228710Y0042860D02*
X0227675Y0042343D01*
X0226641Y0041309D01*
X0228192Y0041309D01*
X0228710Y0040792D01*
X0228710Y0040275D01*
X0228192Y0039758D01*
X0227158Y0039758D01*
X0226641Y0040275D01*
X0226641Y0041309D01*
X0225487Y0040275D02*
X0225487Y0042343D01*
X0224970Y0042860D01*
X0223418Y0042860D01*
X0223418Y0039758D01*
X0224970Y0039758D01*
X0225487Y0040275D01*
X0170516Y0056566D02*
X0168447Y0056566D01*
X0169482Y0056566D02*
X0169482Y0059668D01*
X0168447Y0058634D01*
X0167293Y0056566D02*
X0165225Y0056566D01*
X0166259Y0056566D02*
X0166259Y0059668D01*
X0165225Y0058634D01*
X0164070Y0058117D02*
X0163553Y0057600D01*
X0162002Y0057600D01*
X0163036Y0057600D02*
X0164070Y0056566D01*
X0164070Y0058117D02*
X0164070Y0059151D01*
X0163553Y0059668D01*
X0162002Y0059668D01*
X0162002Y0056566D01*
X0162818Y0043468D02*
X0164370Y0043468D01*
X0164887Y0042951D01*
X0164887Y0040883D01*
X0164370Y0040366D01*
X0162818Y0040366D01*
X0162818Y0043468D01*
X0166041Y0041917D02*
X0168110Y0041917D01*
X0167592Y0040366D02*
X0167592Y0043468D01*
X0166041Y0041917D01*
X0138116Y0054387D02*
X0137599Y0053870D01*
X0136564Y0053870D01*
X0136047Y0054387D01*
X0138116Y0056455D01*
X0138116Y0054387D01*
X0138116Y0056455D02*
X0137599Y0056972D01*
X0136564Y0056972D01*
X0136047Y0056455D01*
X0136047Y0054387D01*
X0134893Y0053870D02*
X0132825Y0053870D01*
X0133859Y0053870D02*
X0133859Y0056972D01*
X0132825Y0055938D01*
X0131670Y0056455D02*
X0131670Y0055421D01*
X0131153Y0054904D01*
X0129602Y0054904D01*
X0130636Y0054904D02*
X0131670Y0053870D01*
X0129602Y0053870D02*
X0129602Y0056972D01*
X0131153Y0056972D01*
X0131670Y0056455D01*
X0131370Y0042572D02*
X0129818Y0042572D01*
X0129818Y0039470D01*
X0131370Y0039470D01*
X0131887Y0039987D01*
X0131887Y0042055D01*
X0131370Y0042572D01*
X0133041Y0042055D02*
X0133558Y0042572D01*
X0134592Y0042572D01*
X0135110Y0042055D01*
X0135110Y0041538D01*
X0134592Y0041021D01*
X0135110Y0040504D01*
X0135110Y0039987D01*
X0134592Y0039470D01*
X0133558Y0039470D01*
X0133041Y0039987D01*
X0134075Y0041021D02*
X0134592Y0041021D01*
X0103910Y0041842D02*
X0103910Y0042359D01*
X0103392Y0042876D01*
X0102358Y0042876D01*
X0101841Y0042359D01*
X0100687Y0042359D02*
X0100170Y0042876D01*
X0098618Y0042876D01*
X0098618Y0039773D01*
X0100170Y0039773D01*
X0100687Y0040291D01*
X0100687Y0042359D01*
X0101841Y0039773D02*
X0103910Y0041842D01*
X0103910Y0039773D02*
X0101841Y0039773D01*
X0101542Y0054173D02*
X0102576Y0054173D01*
X0103093Y0054691D01*
X0103093Y0056759D01*
X0102576Y0057276D01*
X0101542Y0057276D01*
X0101025Y0056759D01*
X0101025Y0056242D01*
X0101542Y0055725D01*
X0103093Y0055725D01*
X0101542Y0054173D02*
X0101025Y0054691D01*
X0099870Y0054173D02*
X0098836Y0055208D01*
X0099353Y0055208D02*
X0097802Y0055208D01*
X0097802Y0054173D02*
X0097802Y0057276D01*
X0099353Y0057276D01*
X0099870Y0056759D01*
X0099870Y0055725D01*
X0099353Y0055208D01*
X0091317Y0089010D02*
X0090283Y0089010D01*
X0089765Y0089527D01*
X0090283Y0090561D02*
X0091834Y0090561D01*
X0091834Y0089527D02*
X0091834Y0091595D01*
X0091317Y0092112D01*
X0090283Y0092112D01*
X0089765Y0091595D01*
X0089765Y0091078D01*
X0090283Y0090561D01*
X0091317Y0089010D02*
X0091834Y0089527D01*
X0088611Y0089010D02*
X0086543Y0089010D01*
X0087577Y0089010D02*
X0087577Y0092112D01*
X0086543Y0091078D01*
X0085388Y0090561D02*
X0084871Y0090044D01*
X0083320Y0090044D01*
X0084354Y0090044D02*
X0085388Y0089010D01*
X0085388Y0090561D02*
X0085388Y0091595D01*
X0084871Y0092112D01*
X0083320Y0092112D01*
X0083320Y0089010D01*
X0083714Y0094540D02*
X0083714Y0097643D01*
X0085265Y0097643D01*
X0085782Y0097126D01*
X0085782Y0096092D01*
X0085265Y0095575D01*
X0083714Y0095575D01*
X0084748Y0095575D02*
X0085782Y0094540D01*
X0086936Y0094540D02*
X0086936Y0095058D01*
X0089005Y0097126D01*
X0089005Y0097643D01*
X0086936Y0097643D01*
X0073385Y0098362D02*
X0071317Y0100430D01*
X0070800Y0100430D01*
X0070283Y0099913D01*
X0070283Y0098879D01*
X0070800Y0098362D01*
X0070800Y0097207D02*
X0071317Y0097207D01*
X0071834Y0096690D01*
X0071834Y0095139D01*
X0072351Y0093985D02*
X0072868Y0093985D01*
X0073385Y0093468D01*
X0073385Y0092433D01*
X0072868Y0091916D01*
X0072868Y0090762D02*
X0070283Y0090762D01*
X0070800Y0091916D02*
X0071317Y0091916D01*
X0071834Y0092433D01*
X0071834Y0093468D01*
X0072351Y0093985D01*
X0073385Y0095139D02*
X0070283Y0095139D01*
X0070283Y0096690D01*
X0070800Y0097207D01*
X0071834Y0096690D02*
X0072351Y0097207D01*
X0072868Y0097207D01*
X0073385Y0096690D01*
X0073385Y0095139D01*
X0070800Y0093985D02*
X0070283Y0093468D01*
X0070283Y0092433D01*
X0070800Y0091916D01*
X0072868Y0090762D02*
X0073385Y0090245D01*
X0073385Y0089211D01*
X0072868Y0088694D01*
X0070283Y0088694D01*
X0073385Y0098362D02*
X0073385Y0100430D01*
X0043385Y0100862D02*
X0041317Y0100862D01*
X0040283Y0101896D01*
X0041317Y0102930D01*
X0043385Y0102930D01*
X0041834Y0102930D02*
X0041834Y0100862D01*
X0041834Y0099707D02*
X0040800Y0099707D01*
X0040283Y0099190D01*
X0040283Y0097639D01*
X0043385Y0097639D01*
X0042351Y0097639D02*
X0042351Y0099190D01*
X0041834Y0099707D01*
X0041834Y0096485D02*
X0041317Y0095968D01*
X0041317Y0095450D01*
X0041834Y0094416D01*
X0040283Y0094416D01*
X0040283Y0096485D01*
X0041834Y0096485D02*
X0042868Y0096485D01*
X0043385Y0095968D01*
X0043385Y0094933D01*
X0042868Y0094416D01*
X0041834Y0093262D02*
X0041834Y0091193D01*
X0042351Y0090039D02*
X0042868Y0090039D01*
X0043385Y0089522D01*
X0043385Y0087971D01*
X0040283Y0087971D01*
X0040283Y0089522D01*
X0040800Y0090039D01*
X0041317Y0090039D01*
X0041834Y0089522D01*
X0041834Y0087971D01*
X0041834Y0086816D02*
X0041834Y0084748D01*
X0041317Y0083594D02*
X0040800Y0083594D01*
X0040283Y0083077D01*
X0040283Y0082042D01*
X0040800Y0081525D01*
X0040283Y0080371D02*
X0040800Y0079337D01*
X0041834Y0078302D01*
X0041834Y0079854D01*
X0042351Y0080371D01*
X0042868Y0080371D01*
X0043385Y0079854D01*
X0043385Y0078820D01*
X0042868Y0078302D01*
X0041834Y0078302D01*
X0043385Y0077148D02*
X0040283Y0075080D01*
X0040283Y0073925D02*
X0040800Y0073925D01*
X0042868Y0071857D01*
X0043385Y0071857D01*
X0043385Y0073925D01*
X0043385Y0075080D02*
X0040283Y0077148D01*
X0043385Y0081525D02*
X0041317Y0083594D01*
X0043385Y0083594D02*
X0043385Y0081525D01*
X0041834Y0089522D02*
X0042351Y0090039D01*
X0040283Y0073925D02*
X0040283Y0071857D01*
X0050962Y0128915D02*
X0052514Y0128915D01*
X0053031Y0129432D01*
X0053031Y0131501D01*
X0052514Y0132018D01*
X0050962Y0132018D01*
X0050962Y0128915D01*
X0054185Y0128915D02*
X0054185Y0129432D01*
X0056254Y0131501D01*
X0056254Y0132018D01*
X0054185Y0132018D01*
X0103130Y0174321D02*
X0103648Y0173804D01*
X0104682Y0173804D01*
X0105199Y0174321D01*
X0106353Y0173804D02*
X0108422Y0173804D01*
X0107387Y0173804D02*
X0107387Y0176907D01*
X0106353Y0175873D01*
X0105199Y0176390D02*
X0104682Y0176907D01*
X0103648Y0176907D01*
X0103130Y0176390D01*
X0103130Y0174321D01*
X0109576Y0173804D02*
X0111644Y0173804D01*
X0110610Y0173804D02*
X0110610Y0176907D01*
X0109576Y0175873D01*
X0109247Y0188629D02*
X0107178Y0188629D01*
X0108213Y0188629D02*
X0108213Y0191732D01*
X0107178Y0190698D01*
X0106024Y0191215D02*
X0106024Y0190181D01*
X0105507Y0189664D01*
X0103956Y0189664D01*
X0104990Y0189664D02*
X0106024Y0188629D01*
X0103956Y0188629D02*
X0103956Y0191732D01*
X0105507Y0191732D01*
X0106024Y0191215D01*
X0110401Y0191732D02*
X0110401Y0190181D01*
X0111435Y0190698D01*
X0111952Y0190698D01*
X0112470Y0190181D01*
X0112470Y0189146D01*
X0111952Y0188629D01*
X0110918Y0188629D01*
X0110401Y0189146D01*
X0110401Y0191732D02*
X0112470Y0191732D01*
X0111952Y0199429D02*
X0112470Y0199946D01*
X0112470Y0200464D01*
X0111952Y0200981D01*
X0110401Y0200981D01*
X0110401Y0199946D01*
X0110918Y0199429D01*
X0111952Y0199429D01*
X0110401Y0200981D02*
X0111435Y0202015D01*
X0112470Y0202532D01*
X0108213Y0202532D02*
X0108213Y0199429D01*
X0109247Y0199429D02*
X0107178Y0199429D01*
X0106024Y0199429D02*
X0104990Y0200464D01*
X0105507Y0200464D02*
X0103956Y0200464D01*
X0103956Y0199429D02*
X0103956Y0202532D01*
X0105507Y0202532D01*
X0106024Y0202015D01*
X0106024Y0200981D01*
X0105507Y0200464D01*
X0107178Y0201498D02*
X0108213Y0202532D01*
X0145346Y0204956D02*
X0145863Y0204439D01*
X0147931Y0204439D01*
X0148448Y0204956D01*
X0148448Y0205990D01*
X0147931Y0206507D01*
X0148448Y0207662D02*
X0146380Y0209730D01*
X0145863Y0209730D01*
X0145346Y0209213D01*
X0145346Y0208179D01*
X0145863Y0207662D01*
X0145863Y0206507D02*
X0145346Y0205990D01*
X0145346Y0204956D01*
X0148448Y0207662D02*
X0148448Y0209730D01*
X0148448Y0210884D02*
X0146380Y0212953D01*
X0145863Y0212953D01*
X0145346Y0212436D01*
X0145346Y0211401D01*
X0145863Y0210884D01*
X0148448Y0210884D02*
X0148448Y0212953D01*
X0150193Y0210124D02*
X0150711Y0210124D01*
X0151228Y0209607D01*
X0151745Y0210124D01*
X0152262Y0210124D01*
X0152779Y0209607D01*
X0152779Y0208572D01*
X0152262Y0208055D01*
X0152262Y0206901D02*
X0152779Y0206384D01*
X0152779Y0205350D01*
X0152262Y0204833D01*
X0150193Y0204833D01*
X0149676Y0205350D01*
X0149676Y0206384D01*
X0150193Y0206901D01*
X0150193Y0208055D02*
X0149676Y0208572D01*
X0149676Y0209607D01*
X0150193Y0210124D01*
X0151228Y0209607D02*
X0151228Y0209090D01*
X0175893Y0203195D02*
X0178996Y0203195D01*
X0178996Y0202161D02*
X0178996Y0204229D01*
X0176927Y0202161D02*
X0175893Y0203195D01*
X0176410Y0201007D02*
X0175893Y0200490D01*
X0175893Y0199455D01*
X0176410Y0198938D01*
X0176410Y0197784D02*
X0175893Y0197267D01*
X0175893Y0196233D01*
X0176410Y0195715D01*
X0178478Y0195715D01*
X0178996Y0196233D01*
X0178996Y0197267D01*
X0178478Y0197784D01*
X0178996Y0198938D02*
X0176927Y0201007D01*
X0176410Y0201007D01*
X0178996Y0201007D02*
X0178996Y0198938D01*
X0197153Y0199455D02*
X0197670Y0198938D01*
X0197153Y0199455D02*
X0197153Y0200490D01*
X0197670Y0201007D01*
X0198187Y0201007D01*
X0200255Y0198938D01*
X0200255Y0201007D01*
X0199738Y0202161D02*
X0197670Y0204229D01*
X0199738Y0204229D01*
X0200255Y0203712D01*
X0200255Y0202678D01*
X0199738Y0202161D01*
X0197670Y0202161D01*
X0197153Y0202678D01*
X0197153Y0203712D01*
X0197670Y0204229D01*
X0197670Y0197784D02*
X0197153Y0197267D01*
X0197153Y0196233D01*
X0197670Y0195715D01*
X0199738Y0195715D01*
X0200255Y0196233D01*
X0200255Y0197267D01*
X0199738Y0197784D01*
X0240443Y0187041D02*
X0240443Y0184972D01*
X0240960Y0184455D01*
X0241994Y0184455D01*
X0242511Y0184972D01*
X0243666Y0184455D02*
X0245734Y0186524D01*
X0245734Y0187041D01*
X0245217Y0187558D01*
X0244183Y0187558D01*
X0243666Y0187041D01*
X0242511Y0187041D02*
X0241994Y0187558D01*
X0240960Y0187558D01*
X0240443Y0187041D01*
X0243666Y0184455D02*
X0245734Y0184455D01*
X0246888Y0184972D02*
X0247405Y0184455D01*
X0248440Y0184455D01*
X0248957Y0184972D01*
X0248957Y0185490D01*
X0248440Y0186007D01*
X0246888Y0186007D01*
X0246888Y0184972D01*
X0246888Y0186007D02*
X0247922Y0187041D01*
X0248957Y0187558D01*
X0247617Y0182027D02*
X0246583Y0182027D01*
X0246066Y0181510D01*
X0244911Y0181510D02*
X0244394Y0182027D01*
X0243360Y0182027D01*
X0242843Y0181510D01*
X0242843Y0179442D01*
X0243360Y0178925D01*
X0244394Y0178925D01*
X0244911Y0179442D01*
X0246066Y0178925D02*
X0248134Y0180993D01*
X0248134Y0181510D01*
X0247617Y0182027D01*
X0248134Y0178925D02*
X0246066Y0178925D01*
X0237523Y0157910D02*
X0236488Y0157910D01*
X0235971Y0157393D01*
X0235971Y0156876D01*
X0236488Y0156359D01*
X0238040Y0156359D01*
X0238040Y0157393D02*
X0237523Y0157910D01*
X0238040Y0157393D02*
X0238040Y0155324D01*
X0237523Y0154807D01*
X0236488Y0154807D01*
X0235971Y0155324D01*
X0234817Y0154807D02*
X0232748Y0154807D01*
X0233783Y0154807D02*
X0233783Y0157910D01*
X0232748Y0156876D01*
X0231594Y0157393D02*
X0231077Y0157910D01*
X0230043Y0157910D01*
X0229526Y0157393D01*
X0229526Y0155324D01*
X0230043Y0154807D01*
X0231077Y0154807D01*
X0231594Y0155324D01*
X0244147Y0142788D02*
X0243630Y0142271D01*
X0243630Y0140202D01*
X0244147Y0139685D01*
X0245181Y0139685D01*
X0245699Y0140202D01*
X0246853Y0139685D02*
X0248921Y0139685D01*
X0247887Y0139685D02*
X0247887Y0142788D01*
X0246853Y0141754D01*
X0245699Y0142271D02*
X0245181Y0142788D01*
X0244147Y0142788D01*
X0250076Y0142271D02*
X0250076Y0141754D01*
X0250593Y0141237D01*
X0251627Y0141237D01*
X0252144Y0140720D01*
X0252144Y0140202D01*
X0251627Y0139685D01*
X0250593Y0139685D01*
X0250076Y0140202D01*
X0250076Y0140720D01*
X0250593Y0141237D01*
X0251627Y0141237D02*
X0252144Y0141754D01*
X0252144Y0142271D01*
X0251627Y0142788D01*
X0250593Y0142788D01*
X0250076Y0142271D01*
X0250121Y0135120D02*
X0249087Y0134603D01*
X0248053Y0133569D01*
X0249604Y0133569D01*
X0250121Y0133052D01*
X0250121Y0132535D01*
X0249604Y0132018D01*
X0248570Y0132018D01*
X0248053Y0132535D01*
X0248053Y0133569D01*
X0246899Y0133569D02*
X0246381Y0133052D01*
X0244830Y0133052D01*
X0245864Y0133052D02*
X0246899Y0132018D01*
X0246899Y0133569D02*
X0246899Y0134603D01*
X0246381Y0135120D01*
X0244830Y0135120D01*
X0244830Y0132018D01*
X0266555Y0116609D02*
X0266555Y0114541D01*
X0267072Y0114024D01*
X0268106Y0114024D01*
X0268623Y0114541D01*
X0269777Y0114024D02*
X0271846Y0114024D01*
X0270812Y0114024D02*
X0270812Y0117127D01*
X0269777Y0116092D01*
X0268623Y0116609D02*
X0268106Y0117127D01*
X0267072Y0117127D01*
X0266555Y0116609D01*
X0273000Y0116609D02*
X0273517Y0117127D01*
X0274551Y0117127D01*
X0275069Y0116609D01*
X0275069Y0116092D01*
X0274551Y0115575D01*
X0275069Y0115058D01*
X0275069Y0114541D01*
X0274551Y0114024D01*
X0273517Y0114024D01*
X0273000Y0114541D01*
X0274034Y0115575D02*
X0274551Y0115575D01*
X0288521Y0118561D02*
X0288521Y0120112D01*
X0289038Y0120630D01*
X0290073Y0120630D01*
X0290590Y0120112D01*
X0290590Y0118561D01*
X0291624Y0118561D02*
X0288521Y0118561D01*
X0290590Y0119595D02*
X0291624Y0120630D01*
X0291624Y0121784D02*
X0289555Y0123852D01*
X0289038Y0123852D01*
X0288521Y0123335D01*
X0288521Y0122301D01*
X0289038Y0121784D01*
X0291624Y0121784D02*
X0291624Y0123852D01*
X0291107Y0125007D02*
X0291624Y0125524D01*
X0291624Y0126558D01*
X0291107Y0127075D01*
X0290073Y0127075D01*
X0289555Y0126558D01*
X0289555Y0126041D01*
X0290073Y0125007D01*
X0288521Y0125007D01*
X0288521Y0127075D01*
X0294521Y0126141D02*
X0297624Y0126141D01*
X0297624Y0125107D02*
X0297624Y0127175D01*
X0299921Y0126475D02*
X0300438Y0125441D01*
X0301473Y0124407D01*
X0301473Y0125958D01*
X0301990Y0126475D01*
X0302507Y0126475D01*
X0303024Y0125958D01*
X0303024Y0124924D01*
X0302507Y0124407D01*
X0301473Y0124407D01*
X0300955Y0123252D02*
X0300438Y0123252D01*
X0299921Y0122735D01*
X0299921Y0121701D01*
X0300438Y0121184D01*
X0300438Y0120030D02*
X0301473Y0120030D01*
X0301990Y0119512D01*
X0301990Y0117961D01*
X0303024Y0117961D02*
X0299921Y0117961D01*
X0299921Y0119512D01*
X0300438Y0120030D01*
X0301990Y0118995D02*
X0303024Y0120030D01*
X0303024Y0121184D02*
X0300955Y0123252D01*
X0303024Y0123252D02*
X0303024Y0121184D01*
X0307351Y0121681D02*
X0310454Y0121681D01*
X0310454Y0120647D02*
X0310454Y0122715D01*
X0309937Y0123870D02*
X0310454Y0124387D01*
X0310454Y0125421D01*
X0309937Y0125938D01*
X0308902Y0125938D01*
X0308385Y0125421D01*
X0308385Y0124904D01*
X0308902Y0123870D01*
X0307351Y0123870D01*
X0307351Y0125938D01*
X0307351Y0121681D02*
X0308385Y0120647D01*
X0307868Y0119493D02*
X0307351Y0118975D01*
X0307351Y0117941D01*
X0307868Y0117424D01*
X0309937Y0117424D01*
X0310454Y0117941D01*
X0310454Y0118975D01*
X0309937Y0119493D01*
X0297624Y0120212D02*
X0297624Y0118661D01*
X0294521Y0118661D01*
X0294521Y0120212D01*
X0295038Y0120730D01*
X0297107Y0120730D01*
X0297624Y0120212D01*
X0297624Y0121884D02*
X0297624Y0123952D01*
X0297624Y0122918D02*
X0294521Y0122918D01*
X0295555Y0121884D01*
X0295555Y0125107D02*
X0294521Y0126141D01*
X0294228Y0109775D02*
X0294995Y0109008D01*
X0294995Y0107473D01*
X0294228Y0106706D01*
X0293461Y0106706D01*
X0292693Y0107473D01*
X0292693Y0109008D01*
X0293461Y0109775D01*
X0294228Y0109775D01*
X0294995Y0109008D02*
X0295762Y0109775D01*
X0296530Y0109775D01*
X0297297Y0109008D01*
X0297297Y0107473D01*
X0296530Y0106706D01*
X0295762Y0106706D01*
X0294995Y0107473D01*
X0294228Y0105171D02*
X0293461Y0105171D01*
X0292693Y0104404D01*
X0292693Y0102869D01*
X0293461Y0102102D01*
X0294228Y0105171D02*
X0297297Y0102102D01*
X0297297Y0105171D01*
X0297297Y0100567D02*
X0297297Y0097498D01*
X0297297Y0099032D02*
X0292693Y0099032D01*
X0294228Y0097498D01*
X0293461Y0095963D02*
X0296530Y0095963D01*
X0297297Y0095196D01*
X0297297Y0093661D01*
X0296530Y0092894D01*
X0293461Y0092894D01*
X0292693Y0093661D01*
X0292693Y0095196D01*
X0293461Y0095963D01*
X0295762Y0094429D02*
X0297297Y0095963D01*
X0296530Y0091359D02*
X0297297Y0090592D01*
X0297297Y0089057D01*
X0296530Y0088290D01*
X0294995Y0088290D02*
X0294228Y0089825D01*
X0294228Y0090592D01*
X0294995Y0091359D01*
X0296530Y0091359D01*
X0294995Y0088290D02*
X0292693Y0088290D01*
X0292693Y0091359D01*
X0293461Y0086755D02*
X0292693Y0085988D01*
X0292693Y0084453D01*
X0293461Y0083686D01*
X0292693Y0082151D02*
X0297297Y0082151D01*
X0295762Y0080617D01*
X0297297Y0079082D01*
X0292693Y0079082D01*
X0297297Y0083686D02*
X0294228Y0086755D01*
X0293461Y0086755D01*
X0297297Y0086755D02*
X0297297Y0083686D01*
X0328924Y0104616D02*
X0328924Y0106684D01*
X0329441Y0107839D02*
X0329959Y0107839D01*
X0330476Y0108356D01*
X0330476Y0109390D01*
X0330993Y0109907D01*
X0331510Y0109907D01*
X0332027Y0109390D01*
X0332027Y0108356D01*
X0331510Y0107839D01*
X0332027Y0106684D02*
X0332027Y0104616D01*
X0328924Y0104616D01*
X0330476Y0104616D02*
X0330476Y0105650D01*
X0329441Y0107839D02*
X0328924Y0108356D01*
X0328924Y0109390D01*
X0329441Y0109907D01*
X0328924Y0111061D02*
X0328924Y0112613D01*
X0329441Y0113130D01*
X0330476Y0113130D01*
X0330993Y0112613D01*
X0330993Y0111061D01*
X0332027Y0111061D02*
X0328924Y0111061D01*
X0329441Y0114284D02*
X0329959Y0114284D01*
X0330476Y0114801D01*
X0330476Y0115835D01*
X0330993Y0116352D01*
X0331510Y0116352D01*
X0332027Y0115835D01*
X0332027Y0114801D01*
X0331510Y0114284D01*
X0330993Y0114284D01*
X0330476Y0114801D01*
X0330476Y0115835D02*
X0329959Y0116352D01*
X0329441Y0116352D01*
X0328924Y0115835D01*
X0328924Y0114801D01*
X0329441Y0114284D01*
X0329441Y0117507D02*
X0328924Y0118024D01*
X0328924Y0119058D01*
X0329441Y0119575D01*
X0329959Y0119575D01*
X0332027Y0117507D01*
X0332027Y0119575D01*
X0331510Y0120730D02*
X0332027Y0121247D01*
X0332027Y0122281D01*
X0331510Y0122798D01*
X0330993Y0122798D01*
X0330476Y0122281D01*
X0330476Y0120730D01*
X0331510Y0120730D01*
X0330476Y0120730D02*
X0329441Y0121764D01*
X0328924Y0122798D01*
X0330476Y0123952D02*
X0330476Y0125504D01*
X0330993Y0126021D01*
X0331510Y0126021D01*
X0332027Y0125504D01*
X0332027Y0124469D01*
X0331510Y0123952D01*
X0330476Y0123952D01*
X0329441Y0124986D01*
X0328924Y0126021D01*
X0328924Y0168862D02*
X0331510Y0168862D01*
X0332027Y0169379D01*
X0332027Y0170413D01*
X0331510Y0170931D01*
X0328924Y0170931D01*
X0329441Y0172085D02*
X0329959Y0172085D01*
X0330476Y0172602D01*
X0330476Y0173636D01*
X0330993Y0174153D01*
X0331510Y0174153D01*
X0332027Y0173636D01*
X0332027Y0172602D01*
X0331510Y0172085D01*
X0329441Y0172085D02*
X0328924Y0172602D01*
X0328924Y0173636D01*
X0329441Y0174153D01*
X0329959Y0175308D02*
X0328924Y0176342D01*
X0329959Y0177376D01*
X0332027Y0177376D01*
X0332027Y0178530D02*
X0328924Y0178530D01*
X0328924Y0180082D01*
X0329441Y0180599D01*
X0330476Y0180599D01*
X0330993Y0180082D01*
X0330993Y0178530D01*
X0330993Y0179565D02*
X0332027Y0180599D01*
X0332027Y0182787D02*
X0328924Y0182787D01*
X0328924Y0181753D02*
X0328924Y0183822D01*
X0329959Y0184976D02*
X0328924Y0186010D01*
X0332027Y0186010D01*
X0332027Y0184976D02*
X0332027Y0187044D01*
X0330476Y0177376D02*
X0330476Y0175308D01*
X0329959Y0175308D02*
X0332027Y0175308D01*
X0239033Y0110441D02*
X0236965Y0110441D01*
X0239033Y0110441D02*
X0239033Y0109924D01*
X0236965Y0107855D01*
X0236965Y0107338D01*
X0235811Y0107338D02*
X0233742Y0107338D01*
X0234776Y0107338D02*
X0234776Y0110441D01*
X0233742Y0109406D01*
X0232588Y0109924D02*
X0232071Y0110441D01*
X0231037Y0110441D01*
X0230519Y0109924D01*
X0230519Y0107855D01*
X0231037Y0107338D01*
X0232071Y0107338D01*
X0232588Y0107855D01*
X0179957Y0154841D02*
X0176888Y0154841D01*
X0178423Y0154841D02*
X0178423Y0159445D01*
X0176888Y0157910D01*
X0175353Y0158678D02*
X0174586Y0159445D01*
X0173051Y0159445D01*
X0172284Y0158678D01*
X0172284Y0155608D01*
X0173051Y0154841D01*
X0174586Y0154841D01*
X0175353Y0155608D01*
X0170749Y0154841D02*
X0169215Y0154841D01*
X0169982Y0154841D02*
X0169982Y0159445D01*
X0169215Y0159445D02*
X0170749Y0159445D01*
X0126459Y0160275D02*
X0125942Y0159758D01*
X0124908Y0159758D01*
X0124391Y0160275D01*
X0123236Y0159758D02*
X0121168Y0159758D01*
X0123236Y0161826D01*
X0123236Y0162343D01*
X0122719Y0162860D01*
X0121685Y0162860D01*
X0121168Y0162343D01*
X0120014Y0162343D02*
X0119496Y0162860D01*
X0118462Y0162860D01*
X0117945Y0162343D01*
X0117945Y0160275D01*
X0118462Y0159758D01*
X0119496Y0159758D01*
X0120014Y0160275D01*
X0124391Y0162343D02*
X0124908Y0162860D01*
X0125942Y0162860D01*
X0126459Y0162343D01*
X0126459Y0161826D01*
X0125942Y0161309D01*
X0126459Y0160792D01*
X0126459Y0160275D01*
X0125942Y0161309D02*
X0125425Y0161309D01*
D13*
X0049625Y0127491D03*
D14*
X0049463Y0127530D02*
X0062062Y0127530D01*
X0062062Y0127333D01*
X0062062Y0123003D02*
X0062062Y0121428D01*
X0062062Y0117097D02*
X0062062Y0116900D01*
X0049463Y0116900D01*
X0049463Y0117097D01*
X0049463Y0121428D02*
X0049463Y0123003D01*
X0049463Y0127333D02*
X0049463Y0127530D01*
X0044259Y0109829D02*
X0046621Y0108451D01*
X0046621Y0079318D01*
X0044259Y0077940D01*
X0044259Y0109829D01*
X0046818Y0108451D02*
X0050361Y0108451D01*
X0049085Y0108385D02*
X0049085Y0079385D01*
X0050361Y0079318D02*
X0046818Y0079318D01*
X0059810Y0079318D02*
X0066306Y0079318D01*
X0066306Y0081286D01*
X0066306Y0106877D02*
X0066306Y0108451D01*
X0060203Y0108451D01*
X0099805Y0108087D02*
X0102057Y0108087D01*
X0102807Y0108838D01*
X0102807Y0111840D01*
X0102057Y0112591D01*
X0099805Y0112591D01*
X0099805Y0108087D01*
X0104409Y0108838D02*
X0104409Y0109589D01*
X0105159Y0110339D01*
X0106660Y0110339D01*
X0107411Y0109589D01*
X0107411Y0108838D01*
X0106660Y0108087D01*
X0105159Y0108087D01*
X0104409Y0108838D01*
X0105159Y0110339D02*
X0104409Y0111090D01*
X0104409Y0111840D01*
X0105159Y0112591D01*
X0106660Y0112591D01*
X0107411Y0111840D01*
X0107411Y0111090D01*
X0106660Y0110339D01*
X0142440Y0107082D02*
X0221180Y0107082D01*
X0221180Y0185822D01*
X0142440Y0185822D01*
X0142440Y0107082D01*
X0144227Y0110035D02*
X0144229Y0110104D01*
X0144235Y0110172D01*
X0144245Y0110240D01*
X0144258Y0110308D01*
X0144276Y0110374D01*
X0144297Y0110440D01*
X0144322Y0110504D01*
X0144351Y0110567D01*
X0144383Y0110628D01*
X0144418Y0110686D01*
X0144457Y0110743D01*
X0144499Y0110798D01*
X0144544Y0110850D01*
X0144592Y0110899D01*
X0144643Y0110946D01*
X0144696Y0110989D01*
X0144752Y0111030D01*
X0144810Y0111067D01*
X0144870Y0111101D01*
X0144931Y0111131D01*
X0144995Y0111158D01*
X0145060Y0111181D01*
X0145126Y0111200D01*
X0145193Y0111216D01*
X0145261Y0111228D01*
X0145329Y0111236D01*
X0145398Y0111240D01*
X0145466Y0111240D01*
X0145535Y0111236D01*
X0145603Y0111228D01*
X0145671Y0111216D01*
X0145738Y0111200D01*
X0145804Y0111181D01*
X0145869Y0111158D01*
X0145933Y0111131D01*
X0145994Y0111101D01*
X0146054Y0111067D01*
X0146112Y0111030D01*
X0146168Y0110989D01*
X0146221Y0110946D01*
X0146272Y0110899D01*
X0146320Y0110850D01*
X0146365Y0110798D01*
X0146407Y0110743D01*
X0146446Y0110686D01*
X0146481Y0110628D01*
X0146513Y0110567D01*
X0146542Y0110504D01*
X0146567Y0110440D01*
X0146588Y0110374D01*
X0146606Y0110308D01*
X0146619Y0110240D01*
X0146629Y0110172D01*
X0146635Y0110104D01*
X0146637Y0110035D01*
X0146635Y0109966D01*
X0146629Y0109898D01*
X0146619Y0109830D01*
X0146606Y0109762D01*
X0146588Y0109696D01*
X0146567Y0109630D01*
X0146542Y0109566D01*
X0146513Y0109503D01*
X0146481Y0109442D01*
X0146446Y0109384D01*
X0146407Y0109327D01*
X0146365Y0109272D01*
X0146320Y0109220D01*
X0146272Y0109171D01*
X0146221Y0109124D01*
X0146168Y0109081D01*
X0146112Y0109040D01*
X0146054Y0109003D01*
X0145994Y0108969D01*
X0145933Y0108939D01*
X0145869Y0108912D01*
X0145804Y0108889D01*
X0145738Y0108870D01*
X0145671Y0108854D01*
X0145603Y0108842D01*
X0145535Y0108834D01*
X0145466Y0108830D01*
X0145398Y0108830D01*
X0145329Y0108834D01*
X0145261Y0108842D01*
X0145193Y0108854D01*
X0145126Y0108870D01*
X0145060Y0108889D01*
X0144995Y0108912D01*
X0144931Y0108939D01*
X0144870Y0108969D01*
X0144810Y0109003D01*
X0144752Y0109040D01*
X0144696Y0109081D01*
X0144643Y0109124D01*
X0144592Y0109171D01*
X0144544Y0109220D01*
X0144499Y0109272D01*
X0144457Y0109327D01*
X0144418Y0109384D01*
X0144383Y0109442D01*
X0144351Y0109503D01*
X0144322Y0109566D01*
X0144297Y0109630D01*
X0144276Y0109696D01*
X0144258Y0109762D01*
X0144245Y0109830D01*
X0144235Y0109898D01*
X0144229Y0109966D01*
X0144227Y0110035D01*
X0182325Y0085529D02*
X0182327Y0085588D01*
X0182333Y0085646D01*
X0182343Y0085704D01*
X0182356Y0085761D01*
X0182374Y0085818D01*
X0182395Y0085873D01*
X0182420Y0085926D01*
X0182448Y0085977D01*
X0182479Y0086027D01*
X0182514Y0086074D01*
X0182552Y0086119D01*
X0182593Y0086162D01*
X0182637Y0086201D01*
X0182683Y0086237D01*
X0182731Y0086271D01*
X0182782Y0086301D01*
X0182835Y0086327D01*
X0182889Y0086350D01*
X0182944Y0086369D01*
X0183001Y0086385D01*
X0183059Y0086397D01*
X0183117Y0086405D01*
X0183176Y0086409D01*
X0183234Y0086409D01*
X0183293Y0086405D01*
X0183351Y0086397D01*
X0183409Y0086385D01*
X0183466Y0086369D01*
X0183521Y0086350D01*
X0183575Y0086327D01*
X0183628Y0086301D01*
X0183679Y0086271D01*
X0183727Y0086237D01*
X0183773Y0086201D01*
X0183817Y0086162D01*
X0183858Y0086119D01*
X0183896Y0086074D01*
X0183931Y0086027D01*
X0183962Y0085977D01*
X0183990Y0085926D01*
X0184015Y0085873D01*
X0184036Y0085818D01*
X0184054Y0085761D01*
X0184067Y0085704D01*
X0184077Y0085646D01*
X0184083Y0085588D01*
X0184085Y0085529D01*
X0184083Y0085470D01*
X0184077Y0085412D01*
X0184067Y0085354D01*
X0184054Y0085297D01*
X0184036Y0085240D01*
X0184015Y0085185D01*
X0183990Y0085132D01*
X0183962Y0085081D01*
X0183931Y0085031D01*
X0183896Y0084984D01*
X0183858Y0084939D01*
X0183817Y0084896D01*
X0183773Y0084857D01*
X0183727Y0084821D01*
X0183679Y0084787D01*
X0183628Y0084757D01*
X0183575Y0084731D01*
X0183521Y0084708D01*
X0183466Y0084689D01*
X0183409Y0084673D01*
X0183351Y0084661D01*
X0183293Y0084653D01*
X0183234Y0084649D01*
X0183176Y0084649D01*
X0183117Y0084653D01*
X0183059Y0084661D01*
X0183001Y0084673D01*
X0182944Y0084689D01*
X0182889Y0084708D01*
X0182835Y0084731D01*
X0182782Y0084757D01*
X0182731Y0084787D01*
X0182683Y0084821D01*
X0182637Y0084857D01*
X0182593Y0084896D01*
X0182552Y0084939D01*
X0182514Y0084984D01*
X0182479Y0085031D01*
X0182448Y0085081D01*
X0182420Y0085132D01*
X0182395Y0085185D01*
X0182374Y0085240D01*
X0182356Y0085297D01*
X0182343Y0085354D01*
X0182333Y0085412D01*
X0182327Y0085470D01*
X0182325Y0085529D01*
X0185397Y0082873D02*
X0185397Y0078149D01*
X0188350Y0074212D02*
X0192287Y0074212D01*
X0195240Y0078149D02*
X0195240Y0082873D01*
X0192287Y0086810D02*
X0188350Y0086810D01*
X0233432Y0052546D02*
X0253117Y0052546D01*
X0253117Y0040735D02*
X0233432Y0040735D01*
X0292487Y0040735D02*
X0312172Y0040735D01*
X0312172Y0052546D02*
X0292487Y0052546D01*
X0316227Y0089475D02*
X0316227Y0149475D01*
X0326227Y0149475D01*
X0326227Y0089475D01*
X0316227Y0089475D01*
X0307646Y0141601D02*
X0256465Y0141601D01*
X0316227Y0165499D02*
X0316227Y0195499D01*
X0326227Y0195499D01*
X0326227Y0165499D01*
X0316227Y0165499D01*
X0307646Y0247900D02*
X0256465Y0247900D01*
X0087762Y0209022D02*
X0087762Y0159810D01*
X0048392Y0159810D02*
X0048392Y0209022D01*
D15*
X0083373Y0119530D02*
X0085636Y0119530D01*
X0083373Y0119530D02*
X0083373Y0101814D01*
X0095479Y0101814D02*
X0097743Y0101814D01*
X0097743Y0119530D01*
X0095479Y0119530D01*
X0085637Y0101814D02*
X0084505Y0101823D01*
X0083373Y0101814D01*
D16*
X0084652Y0115101D03*
X0096463Y0115101D03*
D17*
X0096353Y0131377D02*
X0096180Y0131377D01*
X0096353Y0131377D02*
X0096353Y0137164D01*
X0096180Y0137164D01*
X0093007Y0137164D02*
X0092636Y0137164D01*
X0089266Y0137164D02*
X0088896Y0137164D01*
X0085723Y0137164D02*
X0085550Y0137164D01*
X0085550Y0131377D01*
X0085723Y0131377D01*
X0088896Y0131377D02*
X0093007Y0131377D01*
X0098341Y0159546D02*
X0098341Y0159719D01*
X0098341Y0159546D02*
X0104129Y0159546D01*
X0104129Y0159719D01*
X0104129Y0162892D02*
X0104129Y0167003D01*
X0104129Y0170176D02*
X0104129Y0170349D01*
X0098341Y0170349D01*
X0098341Y0170176D01*
X0098341Y0167003D02*
X0098341Y0166633D01*
X0098341Y0163262D02*
X0098341Y0162892D01*
X0268361Y0098240D02*
X0268361Y0080563D01*
X0268361Y0080524D02*
X0268363Y0080462D01*
X0268369Y0080401D01*
X0268378Y0080340D01*
X0268392Y0080279D01*
X0268409Y0080220D01*
X0268430Y0080162D01*
X0268455Y0080105D01*
X0268483Y0080050D01*
X0268514Y0079997D01*
X0268549Y0079946D01*
X0268587Y0079897D01*
X0268628Y0079850D01*
X0268671Y0079807D01*
X0268718Y0079766D01*
X0268767Y0079728D01*
X0268818Y0079693D01*
X0268871Y0079662D01*
X0268926Y0079634D01*
X0268983Y0079609D01*
X0269041Y0079588D01*
X0269100Y0079571D01*
X0269161Y0079557D01*
X0269222Y0079548D01*
X0269283Y0079542D01*
X0269345Y0079540D01*
X0269385Y0079540D02*
X0269798Y0079540D01*
X0272436Y0079540D02*
X0274759Y0079540D01*
X0277396Y0079540D02*
X0279759Y0079540D01*
X0282396Y0079540D02*
X0284759Y0079540D01*
X0287357Y0079540D02*
X0287770Y0079540D01*
X0287849Y0079540D02*
X0287911Y0079542D01*
X0287972Y0079548D01*
X0288033Y0079557D01*
X0288094Y0079571D01*
X0288153Y0079588D01*
X0288211Y0079609D01*
X0288268Y0079634D01*
X0288323Y0079662D01*
X0288376Y0079693D01*
X0288427Y0079728D01*
X0288476Y0079766D01*
X0288523Y0079807D01*
X0288566Y0079850D01*
X0288607Y0079897D01*
X0288645Y0079946D01*
X0288680Y0079997D01*
X0288711Y0080050D01*
X0288739Y0080105D01*
X0288764Y0080162D01*
X0288785Y0080220D01*
X0288802Y0080279D01*
X0288816Y0080340D01*
X0288825Y0080401D01*
X0288831Y0080462D01*
X0288833Y0080524D01*
X0288833Y0098240D01*
X0288831Y0098302D01*
X0288825Y0098363D01*
X0288816Y0098424D01*
X0288802Y0098485D01*
X0288785Y0098544D01*
X0288764Y0098602D01*
X0288739Y0098659D01*
X0288711Y0098714D01*
X0288680Y0098767D01*
X0288645Y0098818D01*
X0288607Y0098867D01*
X0288566Y0098914D01*
X0288523Y0098957D01*
X0288476Y0098998D01*
X0288427Y0099036D01*
X0288376Y0099071D01*
X0288323Y0099102D01*
X0288268Y0099130D01*
X0288211Y0099155D01*
X0288153Y0099176D01*
X0288094Y0099193D01*
X0288033Y0099207D01*
X0287972Y0099216D01*
X0287911Y0099222D01*
X0287849Y0099224D01*
X0287888Y0099225D02*
X0287396Y0099225D01*
X0284759Y0099225D02*
X0282436Y0099225D01*
X0279759Y0099225D02*
X0277436Y0099225D01*
X0274759Y0099225D02*
X0272436Y0099225D01*
X0269798Y0099225D02*
X0269385Y0099225D01*
X0269345Y0099224D02*
X0269283Y0099222D01*
X0269222Y0099216D01*
X0269161Y0099207D01*
X0269100Y0099193D01*
X0269041Y0099176D01*
X0268983Y0099155D01*
X0268926Y0099130D01*
X0268871Y0099102D01*
X0268818Y0099071D01*
X0268767Y0099036D01*
X0268718Y0098998D01*
X0268671Y0098957D01*
X0268628Y0098914D01*
X0268587Y0098867D01*
X0268549Y0098818D01*
X0268514Y0098767D01*
X0268483Y0098714D01*
X0268455Y0098659D01*
X0268430Y0098602D01*
X0268409Y0098544D01*
X0268392Y0098485D01*
X0268378Y0098424D01*
X0268369Y0098363D01*
X0268363Y0098302D01*
X0268361Y0098240D01*
D18*
X0084373Y0121771D02*
X0083272Y0121771D01*
X0083639Y0122138D01*
X0083272Y0122505D01*
X0084373Y0122505D01*
X0084190Y0122876D02*
X0084373Y0123059D01*
X0084373Y0123426D01*
X0084190Y0123610D01*
X0084373Y0123981D02*
X0083272Y0123981D01*
X0083272Y0124531D01*
X0083456Y0124715D01*
X0083823Y0124715D01*
X0084006Y0124531D01*
X0084006Y0123981D01*
X0083456Y0123610D02*
X0083272Y0123426D01*
X0083272Y0123059D01*
X0083456Y0122876D01*
X0084190Y0122876D01*
X0084190Y0125086D02*
X0084373Y0125086D01*
X0084190Y0125086D02*
X0083456Y0125820D01*
X0083272Y0125820D01*
X0083272Y0125086D01*
X0083456Y0126191D02*
X0083272Y0126374D01*
X0083272Y0126741D01*
X0083456Y0126925D01*
X0083639Y0126925D01*
X0083823Y0126741D01*
X0084006Y0126925D01*
X0084190Y0126925D01*
X0084373Y0126741D01*
X0084373Y0126374D01*
X0084190Y0126191D01*
X0083823Y0126558D02*
X0083823Y0126741D01*
X0084006Y0127296D02*
X0083823Y0127479D01*
X0083823Y0127846D01*
X0084006Y0128030D01*
X0084190Y0128030D01*
X0084373Y0127846D01*
X0084373Y0127479D01*
X0084190Y0127296D01*
X0084006Y0127296D01*
X0083823Y0127479D02*
X0083639Y0127296D01*
X0083456Y0127296D01*
X0083272Y0127479D01*
X0083272Y0127846D01*
X0083456Y0128030D01*
X0083639Y0128030D01*
X0083823Y0127846D01*
X0084190Y0128401D02*
X0084373Y0128584D01*
X0084373Y0128951D01*
X0084190Y0129134D01*
X0084006Y0129134D01*
X0083823Y0128951D01*
X0083823Y0128767D01*
X0083823Y0128951D02*
X0083639Y0129134D01*
X0083456Y0129134D01*
X0083272Y0128951D01*
X0083272Y0128584D01*
X0083456Y0128401D01*
X0083639Y0129505D02*
X0083272Y0129872D01*
X0084373Y0129872D01*
X0084373Y0129505D02*
X0084373Y0130239D01*
X0083823Y0130610D02*
X0083823Y0131344D01*
X0083639Y0131715D02*
X0083272Y0132082D01*
X0084373Y0132082D01*
X0084373Y0131715D02*
X0084373Y0132449D01*
D19*
X0110811Y0152911D02*
X0110811Y0154012D01*
X0111178Y0154379D01*
X0111912Y0154379D01*
X0112279Y0154012D01*
X0112279Y0152911D01*
X0113013Y0152911D02*
X0110811Y0152911D01*
X0112279Y0153645D02*
X0113013Y0154379D01*
X0113013Y0155855D02*
X0110811Y0155855D01*
X0110811Y0155121D02*
X0110811Y0156589D01*
X0111178Y0157331D02*
X0111545Y0157331D01*
X0111912Y0157698D01*
X0111912Y0158799D01*
X0112646Y0158799D02*
X0111178Y0158799D01*
X0110811Y0158432D01*
X0110811Y0157698D01*
X0111178Y0157331D01*
X0112646Y0157331D02*
X0113013Y0157698D01*
X0113013Y0158432D01*
X0112646Y0158799D01*
X0112646Y0159541D02*
X0111178Y0161009D01*
X0112646Y0161009D01*
X0113013Y0160642D01*
X0113013Y0159908D01*
X0112646Y0159541D01*
X0111178Y0159541D01*
X0110811Y0159908D01*
X0110811Y0160642D01*
X0111178Y0161009D01*
X0111545Y0161751D02*
X0110811Y0162485D01*
X0113013Y0162485D01*
X0113013Y0161751D02*
X0113013Y0163219D01*
X0112646Y0163961D02*
X0113013Y0164328D01*
X0113013Y0165062D01*
X0112646Y0165429D01*
X0112279Y0165429D01*
X0111912Y0165062D01*
X0111912Y0164695D01*
X0111912Y0165062D02*
X0111545Y0165429D01*
X0111178Y0165429D01*
X0110811Y0165062D01*
X0110811Y0164328D01*
X0111178Y0163961D01*
X0111912Y0166171D02*
X0111912Y0167638D01*
X0111545Y0168380D02*
X0110811Y0169114D01*
X0113013Y0169114D01*
X0113013Y0168380D02*
X0113013Y0169848D01*
X0271038Y0084992D02*
X0271040Y0085080D01*
X0271046Y0085168D01*
X0271056Y0085256D01*
X0271070Y0085344D01*
X0271087Y0085430D01*
X0271109Y0085516D01*
X0271134Y0085600D01*
X0271164Y0085684D01*
X0271196Y0085766D01*
X0271233Y0085846D01*
X0271273Y0085925D01*
X0271317Y0086002D01*
X0271364Y0086077D01*
X0271414Y0086149D01*
X0271468Y0086220D01*
X0271524Y0086287D01*
X0271584Y0086353D01*
X0271646Y0086415D01*
X0271712Y0086475D01*
X0271779Y0086531D01*
X0271850Y0086585D01*
X0271922Y0086635D01*
X0271997Y0086682D01*
X0272074Y0086726D01*
X0272153Y0086766D01*
X0272233Y0086803D01*
X0272315Y0086835D01*
X0272399Y0086865D01*
X0272483Y0086890D01*
X0272569Y0086912D01*
X0272655Y0086929D01*
X0272743Y0086943D01*
X0272831Y0086953D01*
X0272919Y0086959D01*
X0273007Y0086961D01*
X0273095Y0086959D01*
X0273183Y0086953D01*
X0273271Y0086943D01*
X0273359Y0086929D01*
X0273445Y0086912D01*
X0273531Y0086890D01*
X0273615Y0086865D01*
X0273699Y0086835D01*
X0273781Y0086803D01*
X0273861Y0086766D01*
X0273940Y0086726D01*
X0274017Y0086682D01*
X0274092Y0086635D01*
X0274164Y0086585D01*
X0274235Y0086531D01*
X0274302Y0086475D01*
X0274368Y0086415D01*
X0274430Y0086353D01*
X0274490Y0086287D01*
X0274546Y0086220D01*
X0274600Y0086149D01*
X0274650Y0086077D01*
X0274697Y0086002D01*
X0274741Y0085925D01*
X0274781Y0085846D01*
X0274818Y0085766D01*
X0274850Y0085684D01*
X0274880Y0085600D01*
X0274905Y0085516D01*
X0274927Y0085430D01*
X0274944Y0085344D01*
X0274958Y0085256D01*
X0274968Y0085168D01*
X0274974Y0085080D01*
X0274976Y0084992D01*
X0274974Y0084904D01*
X0274968Y0084816D01*
X0274958Y0084728D01*
X0274944Y0084640D01*
X0274927Y0084554D01*
X0274905Y0084468D01*
X0274880Y0084384D01*
X0274850Y0084300D01*
X0274818Y0084218D01*
X0274781Y0084138D01*
X0274741Y0084059D01*
X0274697Y0083982D01*
X0274650Y0083907D01*
X0274600Y0083835D01*
X0274546Y0083764D01*
X0274490Y0083697D01*
X0274430Y0083631D01*
X0274368Y0083569D01*
X0274302Y0083509D01*
X0274235Y0083453D01*
X0274164Y0083399D01*
X0274092Y0083349D01*
X0274017Y0083302D01*
X0273940Y0083258D01*
X0273861Y0083218D01*
X0273781Y0083181D01*
X0273699Y0083149D01*
X0273615Y0083119D01*
X0273531Y0083094D01*
X0273445Y0083072D01*
X0273359Y0083055D01*
X0273271Y0083041D01*
X0273183Y0083031D01*
X0273095Y0083025D01*
X0273007Y0083023D01*
X0272919Y0083025D01*
X0272831Y0083031D01*
X0272743Y0083041D01*
X0272655Y0083055D01*
X0272569Y0083072D01*
X0272483Y0083094D01*
X0272399Y0083119D01*
X0272315Y0083149D01*
X0272233Y0083181D01*
X0272153Y0083218D01*
X0272074Y0083258D01*
X0271997Y0083302D01*
X0271922Y0083349D01*
X0271850Y0083399D01*
X0271779Y0083453D01*
X0271712Y0083509D01*
X0271646Y0083569D01*
X0271584Y0083631D01*
X0271524Y0083697D01*
X0271468Y0083764D01*
X0271414Y0083835D01*
X0271364Y0083907D01*
X0271317Y0083982D01*
X0271273Y0084059D01*
X0271233Y0084138D01*
X0271196Y0084218D01*
X0271164Y0084300D01*
X0271134Y0084384D01*
X0271109Y0084468D01*
X0271087Y0084554D01*
X0271070Y0084640D01*
X0271056Y0084728D01*
X0271046Y0084816D01*
X0271040Y0084904D01*
X0271038Y0084992D01*
M02*
