G75*
%MOIN*%
%OFA0B0*%
%FSLAX25Y25*%
%IPPOS*%
%LPD*%
%AMOC8*
5,1,8,0,0,1.08239X$1,22.5*
%
%ADD10C,0.02000*%
%ADD11C,0.00200*%
%ADD12C,0.00500*%
D10*
X0048645Y0128825D02*
X0051645Y0128825D01*
X0051645Y0157369D02*
X0048645Y0157369D01*
D11*
X0039754Y0127474D02*
X0039988Y0127241D01*
X0040221Y0127474D01*
X0040221Y0127941D01*
X0040455Y0128175D01*
X0040688Y0127941D01*
X0040688Y0127241D01*
X0039754Y0127474D02*
X0039754Y0128175D01*
X0039287Y0128714D02*
X0039287Y0128948D01*
X0040688Y0128948D01*
X0040688Y0129181D02*
X0040688Y0128714D01*
X0040455Y0129696D02*
X0040688Y0129930D01*
X0040688Y0130397D01*
X0040455Y0130630D01*
X0039988Y0130630D01*
X0039754Y0130397D01*
X0039754Y0129930D01*
X0039988Y0129696D01*
X0040455Y0129696D01*
X0039754Y0131170D02*
X0039754Y0131637D01*
X0039521Y0131403D02*
X0040455Y0131403D01*
X0040688Y0131637D01*
X0040455Y0133625D02*
X0039988Y0133625D01*
X0039754Y0133858D01*
X0039754Y0134559D01*
X0039287Y0134559D02*
X0040688Y0134559D01*
X0040688Y0133858D01*
X0040455Y0133625D01*
X0040688Y0135098D02*
X0039754Y0135098D01*
X0039754Y0135565D02*
X0039754Y0135799D01*
X0039754Y0135565D02*
X0040221Y0135098D01*
X0039754Y0136326D02*
X0039754Y0136559D01*
X0040688Y0136559D01*
X0040688Y0136326D02*
X0040688Y0136793D01*
X0040688Y0137308D02*
X0040688Y0137775D01*
X0040688Y0137542D02*
X0039287Y0137542D01*
X0039287Y0137308D01*
X0039287Y0136559D02*
X0039054Y0136559D01*
X0039287Y0138290D02*
X0039287Y0138524D01*
X0040688Y0138524D01*
X0040688Y0138757D02*
X0040688Y0138290D01*
X0040688Y0139272D02*
X0040688Y0139973D01*
X0040455Y0140207D01*
X0040221Y0139973D01*
X0040221Y0139506D01*
X0039988Y0139272D01*
X0039754Y0139506D01*
X0039754Y0140207D01*
X0039754Y0142219D02*
X0040455Y0142219D01*
X0040688Y0142452D01*
X0040455Y0142686D01*
X0040688Y0142920D01*
X0040455Y0143153D01*
X0039754Y0143153D01*
X0039754Y0143692D02*
X0039754Y0143926D01*
X0040688Y0143926D01*
X0040688Y0144159D02*
X0040688Y0143692D01*
X0040455Y0144908D02*
X0040688Y0145141D01*
X0040455Y0144908D02*
X0039521Y0144908D01*
X0039754Y0145141D02*
X0039754Y0144674D01*
X0039287Y0143926D02*
X0039054Y0143926D01*
X0039287Y0145657D02*
X0040688Y0145657D01*
X0039988Y0145657D02*
X0039754Y0145890D01*
X0039754Y0146357D01*
X0039988Y0146591D01*
X0040688Y0146591D01*
X0040455Y0148603D02*
X0040688Y0148837D01*
X0040688Y0149537D01*
X0040455Y0150076D02*
X0040688Y0150310D01*
X0040688Y0150777D01*
X0040455Y0151010D01*
X0039988Y0151010D01*
X0039754Y0150777D01*
X0039754Y0150310D01*
X0039988Y0150076D01*
X0040455Y0150076D01*
X0039754Y0149537D02*
X0039754Y0148837D01*
X0039988Y0148603D01*
X0040455Y0148603D01*
X0040688Y0151550D02*
X0040688Y0152250D01*
X0040455Y0152484D01*
X0039988Y0152484D01*
X0039754Y0152250D01*
X0039754Y0151550D01*
X0041156Y0151550D01*
X0041156Y0153023D02*
X0039754Y0153023D01*
X0039754Y0153723D01*
X0039988Y0153957D01*
X0040455Y0153957D01*
X0040688Y0153723D01*
X0040688Y0153023D01*
X0040455Y0154496D02*
X0039988Y0154496D01*
X0039754Y0154730D01*
X0039754Y0155197D01*
X0039988Y0155430D01*
X0040221Y0155430D01*
X0040221Y0154496D01*
X0040455Y0154496D02*
X0040688Y0154730D01*
X0040688Y0155197D01*
X0040688Y0155969D02*
X0039754Y0155969D01*
X0039754Y0156436D02*
X0039754Y0156670D01*
X0039754Y0156436D02*
X0040221Y0155969D01*
D12*
X0041688Y0157097D02*
X0041688Y0128597D01*
X0043688Y0128597D01*
X0043188Y0128097D01*
X0043688Y0128597D02*
X0043188Y0129097D01*
X0043188Y0156597D02*
X0043688Y0157097D01*
X0043188Y0157597D01*
X0043688Y0157097D02*
X0041688Y0157097D01*
M02*
