%
M48
M72
T01C0.01200
T02C0.02000
T03C0.02362
T04C0.03150
T05C0.03500
T06C0.05906
T07C0.09843
T08C0.27559
%
T01
X93724Y68429
X102324Y71629
X108724Y82429
X98824Y85529
X118824Y93929
X119624Y99029
X125164Y108451
X121621Y116325
X121424Y123829
X125164Y134436
X128424Y140829
X124424Y153829
X127920Y160420
X110624Y165629
X90924Y176929
X83024Y183029
X89024Y187829
X96824Y193229
X102824Y192029
X117124Y198229
X130624Y187529
X134724Y180929
X144455Y188373
X149424Y183829
X159224Y183629
X162624Y173229
X175824Y165229
X168624Y163129
X162124Y155829
X167324Y146429
X172024Y140629
X162124Y134029
X158024Y123629
X161024Y121229
X165824Y116429
X176739Y110026
X178707Y99396
X172408Y94672
X194624Y109829
X206424Y109829
X218865Y113963
X228224Y113429
X230624Y109829
X241306Y115538
X234424Y118829
X222824Y105029
X236724Y94329
X221024Y87629
X216824Y87629
X212424Y87829
X208424Y87629
X204824Y87629
X212024Y78629
X219724Y65129
X219924Y53629
X243824Y78029
X258924Y62829
X263924Y46729
X279824Y82229
X300324Y87029
X321524Y95529
X261224Y107429
X261224Y113429
X241306Y133648
X241306Y141522
X234424Y145829
X218865Y139554
X204324Y138429
X193424Y141129
X184624Y138529
X192424Y130829
X174324Y129829
X151424Y118829
X140125Y109239
X108724Y129029
X101624Y142829
X86424Y131629
X82924Y139529
X81824Y147029
X78224Y151829
X72224Y162629
X71424Y172529
X54924Y170529
X57224Y184229
X59724Y199029
X90624Y166629
X132724Y196029
X151424Y205829
X173589Y205302
X176739Y198609
X190912Y198609
X198392Y201759
X196424Y182829
X186724Y170429
X187424Y161929
X184024Y154529
X185124Y148429
X174624Y151629
X153224Y144629
X145243Y139554
X145243Y159239
X175164Y182861
X198724Y163629
X206824Y170229
X218471Y159239
X207124Y148729
X198124Y152529
X234219Y164751
X240912Y161207
X239318Y180762
X232625Y188636
X206024Y99029
X180324Y74429
X184724Y68629
X179724Y62429
X182724Y53829
X147824Y79829
X139824Y62029
X126224Y79829
X95524Y56229
X104624Y52329
X141124Y43529
X77624Y89429
X67524Y92629
X65424Y107729
X55424Y106229
X56324Y119329
X69124Y118129
X77324Y113429
X85824Y103929
X98624Y103829
X98424Y108829
X55124Y76229
T02
X50188Y128825
X50188Y157369
T03
X50361Y97310
X50361Y90459
T04
X60936Y133550
X60936Y152644
X284613Y240637
X290518Y247724
X296424Y240637
T05
X256463Y219869
X246463Y219869
X236463Y219869
X226463Y219869
X216463Y219869
X206463Y219869
X182408Y219869
X172408Y219869
X162408Y219869
T06
X143668Y213963
X125164Y213963
X106660Y213963
T07
X73983Y78136
X333825Y78136
X333825Y208058
T08
X66109Y54514
X66109Y231680
X333825Y231680
X333825Y54514
M30
