G75*
%MOIN*%
%OFA0B0*%
%FSLAX25Y25*%
%IPPOS*%
%LPD*%
%AMOC8*
5,1,8,0,0,1.08239X$1,22.5*
%
%ADD10R,0.07874X0.07874*%
%ADD11R,0.06500X0.06500*%
%ADD12C,0.06500*%
%ADD13C,0.05150*%
%ADD14C,0.04000*%
%ADD15C,0.08858*%
%ADD16C,0.02400*%
%ADD17C,0.01600*%
%ADD18C,0.00600*%
D10*
X0069074Y0128478D03*
X0069074Y0156037D03*
D11*
X0182408Y0219869D03*
X0256463Y0219869D03*
D12*
X0246463Y0219869D03*
X0236463Y0219869D03*
X0226463Y0219869D03*
X0216463Y0219869D03*
X0206463Y0219869D03*
X0172408Y0219869D03*
X0162408Y0219869D03*
D13*
X0060936Y0152644D03*
X0060936Y0133550D03*
X0284613Y0240637D03*
X0290518Y0247724D03*
X0296424Y0240637D03*
D14*
X0052188Y0157369D02*
X0048188Y0157369D01*
X0048188Y0128825D02*
X0052188Y0128825D01*
D15*
X0106660Y0213963D03*
X0125164Y0213963D03*
X0143668Y0213963D03*
D16*
X0151424Y0205829D03*
X0132724Y0196029D03*
X0130624Y0187529D03*
X0134724Y0180929D03*
X0144455Y0188373D03*
X0149424Y0183829D03*
X0159224Y0183629D03*
X0162624Y0173229D03*
X0175824Y0165229D03*
X0168624Y0163129D03*
X0162124Y0155829D03*
X0167324Y0146429D03*
X0172024Y0140629D03*
X0162124Y0134029D03*
X0158024Y0123629D03*
X0161024Y0121229D03*
X0165824Y0116429D03*
X0176739Y0110026D03*
X0178707Y0099396D03*
X0172408Y0094672D03*
X0194624Y0109829D03*
X0206424Y0109829D03*
X0218865Y0113963D03*
X0228224Y0113429D03*
X0230624Y0109829D03*
X0241306Y0115538D03*
X0234424Y0118829D03*
X0222824Y0105029D03*
X0236724Y0094329D03*
X0221024Y0087629D03*
X0216824Y0087629D03*
X0212424Y0087829D03*
X0208424Y0087629D03*
X0204824Y0087629D03*
X0212024Y0078629D03*
X0219724Y0065129D03*
X0219924Y0053629D03*
X0243824Y0078029D03*
X0258924Y0062829D03*
X0263924Y0046729D03*
X0279824Y0082229D03*
X0300324Y0087029D03*
X0321524Y0095529D03*
X0261224Y0107429D03*
X0261224Y0113429D03*
X0241306Y0133648D03*
X0241306Y0141522D03*
X0234424Y0145829D03*
X0218865Y0139554D03*
X0204324Y0138429D03*
X0193424Y0141129D03*
X0184624Y0138529D03*
X0192424Y0130829D03*
X0174324Y0129829D03*
X0151424Y0118829D03*
X0140125Y0109239D03*
X0125164Y0108451D03*
X0121621Y0116325D03*
X0121424Y0123829D03*
X0125164Y0134436D03*
X0128424Y0140829D03*
X0124424Y0153829D03*
X0127920Y0160420D03*
X0110624Y0165629D03*
X0090924Y0176929D03*
X0083024Y0183029D03*
X0089024Y0187829D03*
X0096824Y0193229D03*
X0102824Y0192029D03*
X0117124Y0198229D03*
X0090624Y0166629D03*
X0072224Y0162629D03*
X0071424Y0172529D03*
X0054924Y0170529D03*
X0057224Y0184229D03*
X0059724Y0199029D03*
X0078224Y0151829D03*
X0081824Y0147029D03*
X0082924Y0139529D03*
X0086424Y0131629D03*
X0101624Y0142829D03*
X0108724Y0129029D03*
X0098424Y0108829D03*
X0098624Y0103829D03*
X0085824Y0103929D03*
X0077324Y0113429D03*
X0069124Y0118129D03*
X0065424Y0107729D03*
X0055424Y0106229D03*
X0056324Y0119329D03*
X0067524Y0092629D03*
X0077624Y0089429D03*
X0098824Y0085529D03*
X0108724Y0082429D03*
X0102324Y0071629D03*
X0093724Y0068429D03*
X0095524Y0056229D03*
X0104624Y0052329D03*
X0139824Y0062029D03*
X0147824Y0079829D03*
X0126224Y0079829D03*
X0118824Y0093929D03*
X0119624Y0099029D03*
X0145243Y0139554D03*
X0153224Y0144629D03*
X0145243Y0159239D03*
X0174624Y0151629D03*
X0184024Y0154529D03*
X0185124Y0148429D03*
X0198124Y0152529D03*
X0207124Y0148729D03*
X0218471Y0159239D03*
X0206824Y0170229D03*
X0198724Y0163629D03*
X0187424Y0161929D03*
X0186724Y0170429D03*
X0196424Y0182829D03*
X0175164Y0182861D03*
X0176739Y0198609D03*
X0173589Y0205302D03*
X0190912Y0198609D03*
X0198392Y0201759D03*
X0232625Y0188636D03*
X0239318Y0180762D03*
X0234219Y0164751D03*
X0240912Y0161207D03*
X0206024Y0099029D03*
X0180324Y0074429D03*
X0184724Y0068629D03*
X0179724Y0062429D03*
X0182724Y0053829D03*
X0141124Y0043529D03*
X0055124Y0076229D03*
D17*
X0069074Y0118129D02*
X0069124Y0118129D01*
X0069074Y0118129D02*
X0069074Y0128478D01*
X0078224Y0151829D02*
X0088424Y0162029D01*
X0107024Y0162029D01*
X0110624Y0165629D01*
X0090924Y0172329D02*
X0090924Y0176929D01*
X0090924Y0172329D02*
X0074632Y0156037D01*
X0069074Y0156037D01*
X0096824Y0193229D02*
X0096824Y0211829D01*
X0099224Y0214229D01*
X0106394Y0214229D01*
X0106660Y0213963D01*
D18*
X0050888Y0042835D02*
X0054430Y0039294D01*
X0058767Y0036790D01*
X0063605Y0035494D01*
X0066109Y0035329D01*
X0333825Y0035329D01*
X0336330Y0035494D01*
X0341167Y0036790D01*
X0345505Y0039294D01*
X0349046Y0042835D01*
X0351550Y0047173D01*
X0352846Y0052010D01*
X0353010Y0054514D01*
X0353010Y0099629D01*
X0264824Y0099629D01*
X0264824Y0208229D01*
X0328404Y0208229D01*
X0328404Y0209136D01*
X0329230Y0211129D01*
X0330755Y0212654D01*
X0332747Y0213479D01*
X0334904Y0213479D01*
X0336896Y0212654D01*
X0338421Y0211129D01*
X0339247Y0209136D01*
X0339247Y0208229D01*
X0353010Y0208229D01*
X0353010Y0231680D01*
X0352846Y0234184D01*
X0351550Y0239022D01*
X0349046Y0243359D01*
X0345505Y0246900D01*
X0341167Y0249404D01*
X0336330Y0250701D01*
X0333825Y0250865D01*
X0292016Y0250865D01*
X0292487Y0250670D01*
X0293464Y0249692D01*
X0293993Y0248415D01*
X0293993Y0247033D01*
X0293464Y0245756D01*
X0292487Y0244778D01*
X0291210Y0244249D01*
X0289827Y0244249D01*
X0288550Y0244778D01*
X0287573Y0245756D01*
X0287044Y0247033D01*
X0287044Y0248415D01*
X0287573Y0249692D01*
X0288550Y0250670D01*
X0289021Y0250865D01*
X0066109Y0250865D01*
X0063605Y0250701D01*
X0058767Y0249404D01*
X0054430Y0246900D01*
X0050888Y0243359D01*
X0048384Y0239022D01*
X0048384Y0239022D01*
X0047088Y0234184D01*
X0046924Y0231680D01*
X0046924Y0160417D01*
X0047226Y0160542D01*
X0047863Y0160669D01*
X0049988Y0160669D01*
X0049988Y0157569D01*
X0050388Y0157569D01*
X0050388Y0160669D01*
X0052513Y0160669D01*
X0053151Y0160542D01*
X0053752Y0160293D01*
X0054292Y0159932D01*
X0054752Y0159472D01*
X0055113Y0158932D01*
X0055362Y0158331D01*
X0055488Y0157694D01*
X0055488Y0157569D01*
X0050389Y0157569D01*
X0050389Y0157169D01*
X0055488Y0157169D01*
X0055488Y0157044D01*
X0055362Y0156406D01*
X0055113Y0155806D01*
X0054752Y0155265D01*
X0054292Y0154805D01*
X0053752Y0154444D01*
X0053151Y0154196D01*
X0052513Y0154069D01*
X0050388Y0154069D01*
X0050388Y0157169D01*
X0049988Y0157169D01*
X0049988Y0154069D01*
X0047863Y0154069D01*
X0047226Y0154196D01*
X0046924Y0154321D01*
X0046924Y0131874D01*
X0047226Y0131999D01*
X0047863Y0132125D01*
X0049988Y0132125D01*
X0049988Y0129026D01*
X0050388Y0129026D01*
X0050388Y0132125D01*
X0052513Y0132125D01*
X0053151Y0131999D01*
X0053752Y0131750D01*
X0054292Y0131389D01*
X0054752Y0130929D01*
X0055113Y0130389D01*
X0055362Y0129788D01*
X0055488Y0129150D01*
X0055488Y0129025D01*
X0050389Y0129025D01*
X0050389Y0128625D01*
X0055488Y0128625D01*
X0055488Y0128500D01*
X0055362Y0127863D01*
X0055113Y0127262D01*
X0054752Y0126722D01*
X0054292Y0126262D01*
X0053752Y0125901D01*
X0053151Y0125652D01*
X0052513Y0125525D01*
X0050388Y0125525D01*
X0050388Y0128625D01*
X0049988Y0128625D01*
X0049988Y0125525D01*
X0047863Y0125525D01*
X0047226Y0125652D01*
X0046924Y0125777D01*
X0046924Y0054514D01*
X0047088Y0052010D01*
X0048384Y0047173D01*
X0050888Y0042835D01*
X0051114Y0042610D02*
X0058169Y0042610D01*
X0057341Y0043088D02*
X0060597Y0041208D01*
X0064229Y0040235D01*
X0067989Y0040235D01*
X0071621Y0041208D01*
X0074877Y0043088D01*
X0077535Y0045747D01*
X0079415Y0049003D01*
X0080388Y0052634D01*
X0080388Y0056394D01*
X0079415Y0060026D01*
X0077535Y0063282D01*
X0074877Y0065941D01*
X0071621Y0067821D01*
X0067989Y0068794D01*
X0064229Y0068794D01*
X0060597Y0067821D01*
X0057341Y0065941D01*
X0054682Y0063282D01*
X0052803Y0060026D01*
X0051829Y0056394D01*
X0051829Y0052634D01*
X0052803Y0049003D01*
X0054682Y0045747D01*
X0057341Y0043088D01*
X0057220Y0043209D02*
X0050673Y0043209D01*
X0050327Y0043807D02*
X0056622Y0043807D01*
X0056023Y0044406D02*
X0049982Y0044406D01*
X0049636Y0045004D02*
X0055425Y0045004D01*
X0054826Y0045603D02*
X0049291Y0045603D01*
X0048945Y0046201D02*
X0054420Y0046201D01*
X0054074Y0046800D02*
X0048600Y0046800D01*
X0048324Y0047398D02*
X0053729Y0047398D01*
X0053383Y0047997D02*
X0048163Y0047997D01*
X0048003Y0048595D02*
X0053038Y0048595D01*
X0052751Y0049194D02*
X0047843Y0049194D01*
X0047682Y0049792D02*
X0052591Y0049792D01*
X0052431Y0050391D02*
X0047522Y0050391D01*
X0047362Y0050989D02*
X0052270Y0050989D01*
X0052110Y0051588D02*
X0047201Y0051588D01*
X0047076Y0052186D02*
X0051949Y0052186D01*
X0051829Y0052785D02*
X0047037Y0052785D01*
X0046998Y0053383D02*
X0051829Y0053383D01*
X0051829Y0053982D02*
X0046959Y0053982D01*
X0046924Y0054580D02*
X0051829Y0054580D01*
X0051829Y0055179D02*
X0046924Y0055179D01*
X0046924Y0055777D02*
X0051829Y0055777D01*
X0051829Y0056376D02*
X0046924Y0056376D01*
X0046924Y0056974D02*
X0051985Y0056974D01*
X0052145Y0057573D02*
X0046924Y0057573D01*
X0046924Y0058171D02*
X0052306Y0058171D01*
X0052466Y0058770D02*
X0046924Y0058770D01*
X0046924Y0059368D02*
X0052626Y0059368D01*
X0052787Y0059967D02*
X0046924Y0059967D01*
X0046924Y0060565D02*
X0053114Y0060565D01*
X0053459Y0061164D02*
X0046924Y0061164D01*
X0046924Y0061762D02*
X0053805Y0061762D01*
X0054151Y0062361D02*
X0046924Y0062361D01*
X0046924Y0062959D02*
X0054496Y0062959D01*
X0054958Y0063558D02*
X0046924Y0063558D01*
X0046924Y0064156D02*
X0055557Y0064156D01*
X0056155Y0064755D02*
X0046924Y0064755D01*
X0046924Y0065353D02*
X0056754Y0065353D01*
X0057360Y0065952D02*
X0046924Y0065952D01*
X0046924Y0066550D02*
X0058397Y0066550D01*
X0059434Y0067149D02*
X0046924Y0067149D01*
X0046924Y0067748D02*
X0060470Y0067748D01*
X0062557Y0068346D02*
X0046924Y0068346D01*
X0046924Y0068945D02*
X0353010Y0068945D01*
X0353010Y0069543D02*
X0046924Y0069543D01*
X0046924Y0070142D02*
X0353010Y0070142D01*
X0353010Y0070740D02*
X0046924Y0070740D01*
X0046924Y0071339D02*
X0353010Y0071339D01*
X0353010Y0071937D02*
X0046924Y0071937D01*
X0046924Y0072536D02*
X0353010Y0072536D01*
X0353010Y0073134D02*
X0335915Y0073134D01*
X0336896Y0073541D02*
X0334904Y0072715D01*
X0332747Y0072715D01*
X0330755Y0073541D01*
X0329230Y0075066D01*
X0328404Y0077058D01*
X0328404Y0079215D01*
X0329230Y0081207D01*
X0330755Y0082732D01*
X0332747Y0083558D01*
X0334904Y0083558D01*
X0336896Y0082732D01*
X0338421Y0081207D01*
X0339247Y0079215D01*
X0339247Y0077058D01*
X0338421Y0075066D01*
X0336896Y0073541D01*
X0337088Y0073733D02*
X0353010Y0073733D01*
X0353010Y0074331D02*
X0337687Y0074331D01*
X0338285Y0074930D02*
X0353010Y0074930D01*
X0353010Y0075528D02*
X0338613Y0075528D01*
X0338861Y0076127D02*
X0353010Y0076127D01*
X0353010Y0076725D02*
X0339109Y0076725D01*
X0339247Y0077324D02*
X0353010Y0077324D01*
X0353010Y0077922D02*
X0339247Y0077922D01*
X0339247Y0078521D02*
X0353010Y0078521D01*
X0353010Y0079119D02*
X0339247Y0079119D01*
X0339038Y0079718D02*
X0353010Y0079718D01*
X0353010Y0080316D02*
X0338790Y0080316D01*
X0338543Y0080915D02*
X0353010Y0080915D01*
X0353010Y0081513D02*
X0338115Y0081513D01*
X0337517Y0082112D02*
X0353010Y0082112D01*
X0353010Y0082710D02*
X0336918Y0082710D01*
X0335505Y0083309D02*
X0353010Y0083309D01*
X0353010Y0083907D02*
X0281116Y0083907D01*
X0280694Y0084329D02*
X0278954Y0084329D01*
X0277724Y0083099D01*
X0277724Y0081360D01*
X0278954Y0080129D01*
X0280694Y0080129D01*
X0281924Y0081360D01*
X0281924Y0083099D01*
X0280694Y0084329D01*
X0281714Y0083309D02*
X0332146Y0083309D01*
X0330732Y0082710D02*
X0281924Y0082710D01*
X0281924Y0082112D02*
X0330134Y0082112D01*
X0329535Y0081513D02*
X0281924Y0081513D01*
X0281479Y0080915D02*
X0329108Y0080915D01*
X0328860Y0080316D02*
X0280881Y0080316D01*
X0278767Y0080316D02*
X0213307Y0080316D01*
X0212894Y0080729D02*
X0214124Y0079499D01*
X0214124Y0077760D01*
X0212894Y0076529D01*
X0211154Y0076529D01*
X0209924Y0077760D01*
X0209924Y0079499D01*
X0211154Y0080729D01*
X0212894Y0080729D01*
X0213905Y0079718D02*
X0242542Y0079718D01*
X0242954Y0080129D02*
X0241724Y0078899D01*
X0241724Y0077160D01*
X0242954Y0075929D01*
X0244694Y0075929D01*
X0245924Y0077160D01*
X0245924Y0078899D01*
X0244694Y0080129D01*
X0242954Y0080129D01*
X0241944Y0079119D02*
X0214124Y0079119D01*
X0214124Y0078521D02*
X0241724Y0078521D01*
X0241724Y0077922D02*
X0214124Y0077922D01*
X0213688Y0077324D02*
X0241724Y0077324D01*
X0242158Y0076725D02*
X0213090Y0076725D01*
X0210958Y0076725D02*
X0079266Y0076725D01*
X0079404Y0077058D02*
X0078579Y0075066D01*
X0077054Y0073541D01*
X0075061Y0072715D01*
X0072905Y0072715D01*
X0070912Y0073541D01*
X0069387Y0075066D01*
X0068562Y0077058D01*
X0068562Y0079215D01*
X0069387Y0081207D01*
X0070912Y0082732D01*
X0072905Y0083558D01*
X0075061Y0083558D01*
X0077054Y0082732D01*
X0078579Y0081207D01*
X0079404Y0079215D01*
X0079404Y0077058D01*
X0079404Y0077324D02*
X0210360Y0077324D01*
X0209924Y0077922D02*
X0148887Y0077922D01*
X0148694Y0077729D02*
X0149924Y0078960D01*
X0149924Y0080699D01*
X0148694Y0081929D01*
X0146954Y0081929D01*
X0145724Y0080699D01*
X0145724Y0078960D01*
X0146954Y0077729D01*
X0148694Y0077729D01*
X0149485Y0078521D02*
X0209924Y0078521D01*
X0209924Y0079119D02*
X0149924Y0079119D01*
X0149924Y0079718D02*
X0210142Y0079718D01*
X0210741Y0080316D02*
X0149924Y0080316D01*
X0149708Y0080915D02*
X0278169Y0080915D01*
X0277724Y0081513D02*
X0149110Y0081513D01*
X0146538Y0081513D02*
X0127510Y0081513D01*
X0127094Y0081929D02*
X0125354Y0081929D01*
X0124124Y0080699D01*
X0124124Y0078960D01*
X0125354Y0077729D01*
X0127094Y0077729D01*
X0128324Y0078960D01*
X0128324Y0080699D01*
X0127094Y0081929D01*
X0128108Y0080915D02*
X0145939Y0080915D01*
X0145724Y0080316D02*
X0128324Y0080316D01*
X0128324Y0079718D02*
X0145724Y0079718D01*
X0145724Y0079119D02*
X0128324Y0079119D01*
X0127885Y0078521D02*
X0146163Y0078521D01*
X0146761Y0077922D02*
X0127287Y0077922D01*
X0125161Y0077922D02*
X0079404Y0077922D01*
X0079404Y0078521D02*
X0124563Y0078521D01*
X0124124Y0079119D02*
X0079404Y0079119D01*
X0079196Y0079718D02*
X0124124Y0079718D01*
X0124124Y0080316D02*
X0078948Y0080316D01*
X0078700Y0080915D02*
X0124339Y0080915D01*
X0124938Y0081513D02*
X0078273Y0081513D01*
X0077674Y0082112D02*
X0277724Y0082112D01*
X0277724Y0082710D02*
X0077076Y0082710D01*
X0075662Y0083309D02*
X0277933Y0083309D01*
X0278532Y0083907D02*
X0046924Y0083907D01*
X0046924Y0083309D02*
X0072304Y0083309D01*
X0070890Y0082710D02*
X0046924Y0082710D01*
X0046924Y0082112D02*
X0070291Y0082112D01*
X0069693Y0081513D02*
X0046924Y0081513D01*
X0046924Y0080915D02*
X0069266Y0080915D01*
X0069018Y0080316D02*
X0046924Y0080316D01*
X0046924Y0079718D02*
X0068770Y0079718D01*
X0068562Y0079119D02*
X0046924Y0079119D01*
X0046924Y0078521D02*
X0068562Y0078521D01*
X0068562Y0077922D02*
X0046924Y0077922D01*
X0046924Y0077324D02*
X0068562Y0077324D01*
X0068700Y0076725D02*
X0046924Y0076725D01*
X0046924Y0076127D02*
X0068947Y0076127D01*
X0069195Y0075528D02*
X0046924Y0075528D01*
X0046924Y0074930D02*
X0069523Y0074930D01*
X0070121Y0074331D02*
X0046924Y0074331D01*
X0046924Y0073733D02*
X0070720Y0073733D01*
X0071893Y0073134D02*
X0046924Y0073134D01*
X0046924Y0084506D02*
X0353010Y0084506D01*
X0353010Y0085104D02*
X0046924Y0085104D01*
X0046924Y0085703D02*
X0353010Y0085703D01*
X0353010Y0086301D02*
X0213866Y0086301D01*
X0213294Y0085729D02*
X0214524Y0086960D01*
X0214524Y0088699D01*
X0213294Y0089929D01*
X0211554Y0089929D01*
X0210324Y0088699D01*
X0210324Y0086960D01*
X0211554Y0085729D01*
X0213294Y0085729D01*
X0214464Y0086900D02*
X0353010Y0086900D01*
X0353010Y0087498D02*
X0214524Y0087498D01*
X0214524Y0088097D02*
X0353010Y0088097D01*
X0353010Y0088695D02*
X0214524Y0088695D01*
X0213929Y0089294D02*
X0353010Y0089294D01*
X0353010Y0089892D02*
X0213331Y0089892D01*
X0211517Y0089892D02*
X0079724Y0089892D01*
X0079724Y0090299D02*
X0078594Y0091429D01*
X0086627Y0091429D01*
X0088027Y0090029D01*
X0193921Y0090029D01*
X0194624Y0090732D01*
X0195824Y0091932D01*
X0195824Y0108060D01*
X0196724Y0108960D01*
X0196724Y0110699D01*
X0195494Y0111929D01*
X0193754Y0111929D01*
X0192524Y0110699D01*
X0192524Y0108960D01*
X0193424Y0108060D01*
X0193424Y0092926D01*
X0192927Y0092429D01*
X0120294Y0092429D01*
X0120594Y0092729D01*
X0165021Y0092729D01*
X0165724Y0093432D01*
X0167024Y0094732D01*
X0167024Y0114660D01*
X0167924Y0115560D01*
X0167924Y0117299D01*
X0166694Y0118529D01*
X0164954Y0118529D01*
X0163724Y0117299D01*
X0163724Y0115560D01*
X0164624Y0114660D01*
X0164624Y0095726D01*
X0164027Y0095129D01*
X0120594Y0095129D01*
X0119694Y0096029D01*
X0117954Y0096029D01*
X0116724Y0094799D01*
X0116724Y0093060D01*
X0117354Y0092429D01*
X0089021Y0092429D01*
X0088324Y0093126D01*
X0087621Y0093829D01*
X0069294Y0093829D01*
X0068394Y0094729D01*
X0066654Y0094729D01*
X0065424Y0093499D01*
X0065424Y0091760D01*
X0066654Y0090529D01*
X0068394Y0090529D01*
X0069294Y0091429D01*
X0076654Y0091429D01*
X0075524Y0090299D01*
X0075524Y0088560D01*
X0076754Y0087329D01*
X0078494Y0087329D01*
X0079724Y0088560D01*
X0079724Y0090299D01*
X0079532Y0090491D02*
X0087565Y0090491D01*
X0086967Y0091089D02*
X0078934Y0091089D01*
X0079724Y0089294D02*
X0210919Y0089294D01*
X0210324Y0088695D02*
X0079724Y0088695D01*
X0079261Y0088097D02*
X0210324Y0088097D01*
X0210324Y0087498D02*
X0078663Y0087498D01*
X0076585Y0087498D02*
X0046924Y0087498D01*
X0046924Y0086900D02*
X0210384Y0086900D01*
X0210982Y0086301D02*
X0046924Y0086301D01*
X0046924Y0088097D02*
X0075987Y0088097D01*
X0075524Y0088695D02*
X0046924Y0088695D01*
X0046924Y0089294D02*
X0049149Y0089294D01*
X0048680Y0089763D02*
X0049665Y0088778D01*
X0051057Y0088778D01*
X0052042Y0089763D01*
X0052042Y0091156D01*
X0051057Y0092140D01*
X0049665Y0092140D01*
X0048680Y0091156D01*
X0048680Y0089763D01*
X0048680Y0089892D02*
X0046924Y0089892D01*
X0046924Y0090491D02*
X0048680Y0090491D01*
X0048680Y0091089D02*
X0046924Y0091089D01*
X0046924Y0091688D02*
X0049212Y0091688D01*
X0051510Y0091688D02*
X0065495Y0091688D01*
X0065424Y0092286D02*
X0046924Y0092286D01*
X0046924Y0092885D02*
X0065424Y0092885D01*
X0065424Y0093484D02*
X0046924Y0093484D01*
X0046924Y0094082D02*
X0066007Y0094082D01*
X0066605Y0094681D02*
X0046924Y0094681D01*
X0046924Y0095279D02*
X0117204Y0095279D01*
X0116724Y0094681D02*
X0068443Y0094681D01*
X0069041Y0094082D02*
X0116724Y0094082D01*
X0116724Y0093484D02*
X0087967Y0093484D01*
X0088565Y0092885D02*
X0116898Y0092885D01*
X0118824Y0093929D02*
X0164524Y0093929D01*
X0165824Y0095229D01*
X0165824Y0116429D01*
X0167394Y0115030D02*
X0226855Y0115030D01*
X0227024Y0115199D02*
X0226124Y0114299D01*
X0226124Y0112560D01*
X0227354Y0111329D01*
X0227427Y0111329D01*
X0223227Y0107129D01*
X0221954Y0107129D01*
X0220724Y0105899D01*
X0220724Y0104160D01*
X0221954Y0102929D01*
X0223694Y0102929D01*
X0224924Y0104160D01*
X0224924Y0105432D01*
X0228524Y0109032D01*
X0228524Y0108960D01*
X0229754Y0107729D01*
X0231494Y0107729D01*
X0232394Y0108629D01*
X0251521Y0108629D01*
X0254521Y0111629D01*
X0255224Y0112332D01*
X0255224Y0207132D01*
X0257521Y0209429D01*
X0294121Y0209429D01*
X0297121Y0212429D01*
X0297824Y0213132D01*
X0297824Y0237456D01*
X0298392Y0237691D01*
X0299370Y0238669D01*
X0299899Y0239946D01*
X0299899Y0241328D01*
X0299370Y0242606D01*
X0298392Y0243583D01*
X0297115Y0244112D01*
X0295733Y0244112D01*
X0294456Y0243583D01*
X0293478Y0242606D01*
X0292949Y0241328D01*
X0292949Y0239946D01*
X0293478Y0238669D01*
X0294456Y0237691D01*
X0295424Y0237290D01*
X0295424Y0214126D01*
X0293127Y0211829D01*
X0256527Y0211829D01*
X0255824Y0211126D01*
X0252824Y0208126D01*
X0252824Y0113326D01*
X0250527Y0111029D01*
X0232394Y0111029D01*
X0231494Y0111929D01*
X0231421Y0111929D01*
X0232321Y0112829D01*
X0233024Y0113532D01*
X0233024Y0117260D01*
X0233554Y0116729D01*
X0235294Y0116729D01*
X0236524Y0117960D01*
X0236524Y0119699D01*
X0235294Y0120929D01*
X0233554Y0120929D01*
X0233024Y0120399D01*
X0233024Y0144260D01*
X0233554Y0143729D01*
X0235294Y0143729D01*
X0236524Y0144960D01*
X0236524Y0146699D01*
X0235294Y0147929D01*
X0233554Y0147929D01*
X0233024Y0147399D01*
X0233024Y0162976D01*
X0233349Y0162651D01*
X0235089Y0162651D01*
X0236319Y0163881D01*
X0236319Y0165620D01*
X0235089Y0166851D01*
X0233349Y0166851D01*
X0233024Y0166525D01*
X0233024Y0184332D01*
X0236521Y0187829D01*
X0237224Y0188532D01*
X0237224Y0215719D01*
X0237289Y0215719D01*
X0238814Y0216351D01*
X0239981Y0217518D01*
X0240613Y0219043D01*
X0240613Y0220694D01*
X0239981Y0222220D01*
X0238814Y0223387D01*
X0237289Y0224019D01*
X0235638Y0224019D01*
X0234112Y0223387D01*
X0232945Y0222220D01*
X0232313Y0220694D01*
X0232313Y0219043D01*
X0232945Y0217518D01*
X0234112Y0216351D01*
X0234824Y0216056D01*
X0234824Y0189526D01*
X0234725Y0189428D01*
X0234725Y0189506D01*
X0233495Y0190736D01*
X0231756Y0190736D01*
X0230525Y0189506D01*
X0230525Y0187766D01*
X0231756Y0186536D01*
X0231833Y0186536D01*
X0230624Y0185326D01*
X0230624Y0114526D01*
X0230324Y0114226D01*
X0230324Y0114299D01*
X0229424Y0115199D01*
X0229424Y0216960D01*
X0229981Y0217518D01*
X0230613Y0219043D01*
X0230613Y0220694D01*
X0229981Y0222220D01*
X0228814Y0223387D01*
X0227289Y0224019D01*
X0225638Y0224019D01*
X0224112Y0223387D01*
X0222945Y0222220D01*
X0222313Y0220694D01*
X0222313Y0219043D01*
X0222945Y0217518D01*
X0224112Y0216351D01*
X0225638Y0215719D01*
X0227024Y0215719D01*
X0227024Y0115199D01*
X0227024Y0115628D02*
X0167924Y0115628D01*
X0167924Y0116227D02*
X0227024Y0116227D01*
X0227024Y0116825D02*
X0167924Y0116825D01*
X0167799Y0117424D02*
X0227024Y0117424D01*
X0227024Y0118022D02*
X0167201Y0118022D01*
X0164447Y0118022D02*
X0162224Y0118022D01*
X0162224Y0117424D02*
X0163849Y0117424D01*
X0163724Y0116825D02*
X0162224Y0116825D01*
X0162224Y0116227D02*
X0163724Y0116227D01*
X0163724Y0115628D02*
X0162224Y0115628D01*
X0162224Y0115030D02*
X0164254Y0115030D01*
X0164624Y0114431D02*
X0162224Y0114431D01*
X0162224Y0113833D02*
X0164624Y0113833D01*
X0164624Y0113234D02*
X0162224Y0113234D01*
X0162224Y0112636D02*
X0164624Y0112636D01*
X0164624Y0112037D02*
X0162224Y0112037D01*
X0162224Y0111439D02*
X0164624Y0111439D01*
X0164624Y0110840D02*
X0162224Y0110840D01*
X0162224Y0110242D02*
X0164624Y0110242D01*
X0164624Y0109643D02*
X0162224Y0109643D01*
X0162224Y0109045D02*
X0164624Y0109045D01*
X0164624Y0108446D02*
X0162224Y0108446D01*
X0162224Y0107848D02*
X0164624Y0107848D01*
X0164624Y0107249D02*
X0162224Y0107249D01*
X0162224Y0106651D02*
X0164624Y0106651D01*
X0164624Y0106052D02*
X0162224Y0106052D01*
X0162224Y0105454D02*
X0164624Y0105454D01*
X0164624Y0104855D02*
X0162224Y0104855D01*
X0162224Y0104257D02*
X0164624Y0104257D01*
X0164624Y0103658D02*
X0162224Y0103658D01*
X0162224Y0103060D02*
X0164624Y0103060D01*
X0164624Y0102461D02*
X0162224Y0102461D01*
X0162224Y0101863D02*
X0164624Y0101863D01*
X0164624Y0101264D02*
X0162224Y0101264D01*
X0162224Y0100666D02*
X0164624Y0100666D01*
X0164624Y0100067D02*
X0161959Y0100067D01*
X0162224Y0100332D02*
X0162224Y0119460D01*
X0163124Y0120360D01*
X0163124Y0122099D01*
X0161894Y0123329D01*
X0160154Y0123329D01*
X0160124Y0123299D01*
X0160124Y0124499D01*
X0158894Y0125729D01*
X0157154Y0125729D01*
X0156254Y0124829D01*
X0151527Y0124829D01*
X0149127Y0122429D01*
X0078327Y0122429D01*
X0076827Y0120929D01*
X0076124Y0120226D01*
X0076124Y0115199D01*
X0075224Y0114299D01*
X0075224Y0112560D01*
X0076454Y0111329D01*
X0078194Y0111329D01*
X0079424Y0112560D01*
X0079424Y0114299D01*
X0078524Y0115199D01*
X0078524Y0119232D01*
X0079321Y0120029D01*
X0149654Y0120029D01*
X0086727Y0120029D01*
X0085527Y0118829D01*
X0084824Y0118126D01*
X0084824Y0105899D01*
X0083724Y0104799D01*
X0083724Y0103060D01*
X0046924Y0103060D01*
X0046924Y0103658D02*
X0083724Y0103658D01*
X0083724Y0103060D02*
X0084954Y0101829D01*
X0086694Y0101829D01*
X0087924Y0103060D01*
X0096524Y0103060D01*
X0096524Y0102960D02*
X0097754Y0101729D01*
X0099494Y0101729D01*
X0100724Y0102960D01*
X0100724Y0104699D01*
X0099494Y0105929D01*
X0097754Y0105929D01*
X0096524Y0104699D01*
X0096524Y0102960D01*
X0096524Y0103658D02*
X0087924Y0103658D01*
X0087924Y0103060D02*
X0087924Y0104799D01*
X0087224Y0105499D01*
X0087224Y0117132D01*
X0087721Y0117629D01*
X0119955Y0117629D01*
X0119521Y0117195D01*
X0119521Y0115456D01*
X0120751Y0114225D01*
X0122491Y0114225D01*
X0123721Y0115456D01*
X0123721Y0117195D01*
X0123287Y0117629D01*
X0149654Y0117629D01*
X0150554Y0116729D01*
X0152294Y0116729D01*
X0153524Y0117960D01*
X0153524Y0119699D01*
X0152294Y0120929D01*
X0151021Y0120929D01*
X0152521Y0122429D01*
X0156254Y0122429D01*
X0157154Y0121529D01*
X0158894Y0121529D01*
X0158924Y0121560D01*
X0158924Y0120360D01*
X0159824Y0119460D01*
X0159824Y0101326D01*
X0158727Y0100229D01*
X0121394Y0100229D01*
X0120494Y0101129D01*
X0118754Y0101129D01*
X0117524Y0099899D01*
X0117524Y0098160D01*
X0118754Y0096929D01*
X0120494Y0096929D01*
X0121394Y0097829D01*
X0159721Y0097829D01*
X0162224Y0100332D01*
X0161360Y0099469D02*
X0164624Y0099469D01*
X0164624Y0098870D02*
X0160762Y0098870D01*
X0160163Y0098272D02*
X0164624Y0098272D01*
X0164624Y0097673D02*
X0121237Y0097673D01*
X0120639Y0097075D02*
X0164624Y0097075D01*
X0164624Y0096476D02*
X0051905Y0096476D01*
X0052042Y0096613D02*
X0051057Y0095629D01*
X0049665Y0095629D01*
X0048680Y0096613D01*
X0048680Y0098006D01*
X0049665Y0098991D01*
X0051057Y0098991D01*
X0052042Y0098006D01*
X0052042Y0096613D01*
X0052042Y0097075D02*
X0118609Y0097075D01*
X0118010Y0097673D02*
X0052042Y0097673D01*
X0051776Y0098272D02*
X0117524Y0098272D01*
X0117524Y0098870D02*
X0051178Y0098870D01*
X0049544Y0098870D02*
X0046924Y0098870D01*
X0046924Y0098272D02*
X0048945Y0098272D01*
X0048680Y0097673D02*
X0046924Y0097673D01*
X0046924Y0097075D02*
X0048680Y0097075D01*
X0048817Y0096476D02*
X0046924Y0096476D01*
X0046924Y0095878D02*
X0049416Y0095878D01*
X0051306Y0095878D02*
X0117802Y0095878D01*
X0119846Y0095878D02*
X0164624Y0095878D01*
X0164176Y0095279D02*
X0120444Y0095279D01*
X0119624Y0099029D02*
X0159224Y0099029D01*
X0161024Y0100829D01*
X0161024Y0121229D01*
X0162582Y0119818D02*
X0227024Y0119818D01*
X0227024Y0120417D02*
X0163124Y0120417D01*
X0163124Y0121015D02*
X0227024Y0121015D01*
X0227024Y0121614D02*
X0163124Y0121614D01*
X0163011Y0122212D02*
X0227024Y0122212D01*
X0227024Y0122811D02*
X0162413Y0122811D01*
X0160124Y0123409D02*
X0227024Y0123409D01*
X0227024Y0124008D02*
X0160124Y0124008D01*
X0160017Y0124606D02*
X0227024Y0124606D01*
X0227024Y0125205D02*
X0159419Y0125205D01*
X0158024Y0123629D02*
X0152024Y0123629D01*
X0149624Y0121229D01*
X0078824Y0121229D01*
X0077324Y0119729D01*
X0077324Y0113429D01*
X0078902Y0112037D02*
X0084824Y0112037D01*
X0084824Y0111439D02*
X0078303Y0111439D01*
X0079424Y0112636D02*
X0084824Y0112636D01*
X0084824Y0113234D02*
X0079424Y0113234D01*
X0079424Y0113833D02*
X0084824Y0113833D01*
X0084824Y0114431D02*
X0079292Y0114431D01*
X0078693Y0115030D02*
X0084824Y0115030D01*
X0084824Y0115628D02*
X0078524Y0115628D01*
X0078524Y0116227D02*
X0084824Y0116227D01*
X0084824Y0116825D02*
X0078524Y0116825D01*
X0078524Y0117424D02*
X0084824Y0117424D01*
X0084824Y0118022D02*
X0078524Y0118022D01*
X0078524Y0118621D02*
X0085318Y0118621D01*
X0085917Y0119219D02*
X0078524Y0119219D01*
X0079110Y0119818D02*
X0086515Y0119818D01*
X0087224Y0118829D02*
X0086024Y0117629D01*
X0086024Y0104129D01*
X0085824Y0103929D01*
X0087326Y0102461D02*
X0097022Y0102461D01*
X0097621Y0101863D02*
X0086727Y0101863D01*
X0084921Y0101863D02*
X0046924Y0101863D01*
X0046924Y0102461D02*
X0084322Y0102461D01*
X0083724Y0104257D02*
X0046924Y0104257D01*
X0046924Y0104855D02*
X0083780Y0104855D01*
X0084378Y0105454D02*
X0046924Y0105454D01*
X0046924Y0106052D02*
X0084824Y0106052D01*
X0084824Y0106651D02*
X0046924Y0106651D01*
X0046924Y0107249D02*
X0084824Y0107249D01*
X0084824Y0107848D02*
X0046924Y0107848D01*
X0046924Y0108446D02*
X0084824Y0108446D01*
X0084824Y0109045D02*
X0046924Y0109045D01*
X0046924Y0109643D02*
X0084824Y0109643D01*
X0084824Y0110242D02*
X0046924Y0110242D01*
X0046924Y0110840D02*
X0084824Y0110840D01*
X0087224Y0110840D02*
X0138756Y0110840D01*
X0139255Y0111339D02*
X0138025Y0110109D01*
X0138025Y0108369D01*
X0139255Y0107139D01*
X0140995Y0107139D01*
X0142225Y0108369D01*
X0142225Y0110109D01*
X0140995Y0111339D01*
X0139255Y0111339D01*
X0138158Y0110242D02*
X0087224Y0110242D01*
X0087224Y0109643D02*
X0138025Y0109643D01*
X0138025Y0109045D02*
X0087224Y0109045D01*
X0087224Y0108446D02*
X0138025Y0108446D01*
X0138546Y0107848D02*
X0087224Y0107848D01*
X0087224Y0107249D02*
X0139144Y0107249D01*
X0141105Y0107249D02*
X0159824Y0107249D01*
X0159824Y0106651D02*
X0087224Y0106651D01*
X0087224Y0106052D02*
X0159824Y0106052D01*
X0159824Y0105454D02*
X0099969Y0105454D01*
X0100568Y0104855D02*
X0159824Y0104855D01*
X0159824Y0104257D02*
X0100724Y0104257D01*
X0100724Y0103658D02*
X0159824Y0103658D01*
X0159824Y0103060D02*
X0100724Y0103060D01*
X0100226Y0102461D02*
X0159824Y0102461D01*
X0159824Y0101863D02*
X0099627Y0101863D01*
X0096524Y0104257D02*
X0087924Y0104257D01*
X0087868Y0104855D02*
X0096680Y0104855D01*
X0097278Y0105454D02*
X0087269Y0105454D01*
X0087224Y0111439D02*
X0159824Y0111439D01*
X0159824Y0112037D02*
X0087224Y0112037D01*
X0087224Y0112636D02*
X0159824Y0112636D01*
X0159824Y0113234D02*
X0087224Y0113234D01*
X0087224Y0113833D02*
X0159824Y0113833D01*
X0159824Y0114431D02*
X0122697Y0114431D01*
X0123295Y0115030D02*
X0159824Y0115030D01*
X0159824Y0115628D02*
X0123721Y0115628D01*
X0123721Y0116227D02*
X0159824Y0116227D01*
X0159824Y0116825D02*
X0152390Y0116825D01*
X0152988Y0117424D02*
X0159824Y0117424D01*
X0159824Y0118022D02*
X0153524Y0118022D01*
X0153524Y0118621D02*
X0159824Y0118621D01*
X0159824Y0119219D02*
X0153524Y0119219D01*
X0153405Y0119818D02*
X0159465Y0119818D01*
X0158924Y0120417D02*
X0152807Y0120417D01*
X0151705Y0121614D02*
X0157070Y0121614D01*
X0156471Y0122212D02*
X0152304Y0122212D01*
X0151107Y0121015D02*
X0158924Y0121015D01*
X0162224Y0119219D02*
X0227024Y0119219D01*
X0227024Y0118621D02*
X0162224Y0118621D01*
X0167024Y0114431D02*
X0226256Y0114431D01*
X0226124Y0113833D02*
X0167024Y0113833D01*
X0167024Y0113234D02*
X0226124Y0113234D01*
X0226124Y0112636D02*
X0167024Y0112636D01*
X0167024Y0112037D02*
X0226646Y0112037D01*
X0227245Y0111439D02*
X0195984Y0111439D01*
X0196583Y0110840D02*
X0226938Y0110840D01*
X0226339Y0110242D02*
X0196724Y0110242D01*
X0196724Y0109643D02*
X0225741Y0109643D01*
X0225142Y0109045D02*
X0196724Y0109045D01*
X0196211Y0108446D02*
X0224544Y0108446D01*
X0223945Y0107848D02*
X0195824Y0107848D01*
X0195824Y0107249D02*
X0223347Y0107249D01*
X0221475Y0106651D02*
X0195824Y0106651D01*
X0195824Y0106052D02*
X0220877Y0106052D01*
X0220724Y0105454D02*
X0195824Y0105454D01*
X0195824Y0104855D02*
X0220724Y0104855D01*
X0220724Y0104257D02*
X0195824Y0104257D01*
X0195824Y0103658D02*
X0221225Y0103658D01*
X0221824Y0103060D02*
X0195824Y0103060D01*
X0195824Y0102461D02*
X0264824Y0102461D01*
X0264824Y0101863D02*
X0195824Y0101863D01*
X0195824Y0101264D02*
X0264824Y0101264D01*
X0264824Y0100666D02*
X0207357Y0100666D01*
X0206894Y0101129D02*
X0205154Y0101129D01*
X0203924Y0099899D01*
X0203924Y0098160D01*
X0205154Y0096929D01*
X0206894Y0096929D01*
X0208124Y0098160D01*
X0208124Y0099899D01*
X0206894Y0101129D01*
X0207956Y0100067D02*
X0264824Y0100067D01*
X0264824Y0103060D02*
X0223824Y0103060D01*
X0224423Y0103658D02*
X0264824Y0103658D01*
X0264824Y0104257D02*
X0224924Y0104257D01*
X0224924Y0104855D02*
X0264824Y0104855D01*
X0264824Y0105454D02*
X0224945Y0105454D01*
X0225544Y0106052D02*
X0264824Y0106052D01*
X0264824Y0106651D02*
X0226142Y0106651D01*
X0226741Y0107249D02*
X0264824Y0107249D01*
X0264824Y0107848D02*
X0231612Y0107848D01*
X0232211Y0108446D02*
X0264824Y0108446D01*
X0264824Y0109045D02*
X0251936Y0109045D01*
X0252535Y0109643D02*
X0264824Y0109643D01*
X0264824Y0110242D02*
X0253133Y0110242D01*
X0253732Y0110840D02*
X0264824Y0110840D01*
X0264824Y0111439D02*
X0262203Y0111439D01*
X0262094Y0111329D02*
X0263324Y0112560D01*
X0263324Y0114299D01*
X0262094Y0115529D01*
X0260354Y0115529D01*
X0259124Y0114299D01*
X0259124Y0112560D01*
X0260354Y0111329D01*
X0262094Y0111329D01*
X0262802Y0112037D02*
X0264824Y0112037D01*
X0264824Y0112636D02*
X0263324Y0112636D01*
X0263324Y0113234D02*
X0264824Y0113234D01*
X0264824Y0113833D02*
X0263324Y0113833D01*
X0263192Y0114431D02*
X0264824Y0114431D01*
X0264824Y0115030D02*
X0262593Y0115030D01*
X0264824Y0115628D02*
X0255224Y0115628D01*
X0255224Y0115030D02*
X0259855Y0115030D01*
X0259256Y0114431D02*
X0255224Y0114431D01*
X0255224Y0113833D02*
X0259124Y0113833D01*
X0259124Y0113234D02*
X0255224Y0113234D01*
X0255224Y0112636D02*
X0259124Y0112636D01*
X0259646Y0112037D02*
X0254929Y0112037D01*
X0254330Y0111439D02*
X0260245Y0111439D01*
X0254024Y0112829D02*
X0254024Y0207629D01*
X0257024Y0210629D01*
X0293624Y0210629D01*
X0296624Y0213629D01*
X0296624Y0240437D01*
X0296424Y0240637D01*
X0298864Y0243111D02*
X0325066Y0243111D01*
X0325058Y0243106D02*
X0322399Y0240448D01*
X0320519Y0237191D01*
X0319546Y0233560D01*
X0319546Y0229800D01*
X0320519Y0226168D01*
X0322399Y0222912D01*
X0325058Y0220253D01*
X0328314Y0218373D01*
X0331946Y0217400D01*
X0335705Y0217400D01*
X0339337Y0218373D01*
X0342593Y0220253D01*
X0345252Y0222912D01*
X0347132Y0226168D01*
X0348105Y0229800D01*
X0348105Y0233560D01*
X0347132Y0237191D01*
X0345252Y0240448D01*
X0342593Y0243106D01*
X0339337Y0244986D01*
X0335705Y0245959D01*
X0331946Y0245959D01*
X0328314Y0244986D01*
X0325058Y0243106D01*
X0324464Y0242513D02*
X0299408Y0242513D01*
X0299656Y0241914D02*
X0323866Y0241914D01*
X0323267Y0241316D02*
X0299899Y0241316D01*
X0299899Y0240717D02*
X0322669Y0240717D01*
X0322209Y0240119D02*
X0299899Y0240119D01*
X0299722Y0239520D02*
X0321864Y0239520D01*
X0321518Y0238922D02*
X0299474Y0238922D01*
X0299024Y0238323D02*
X0321172Y0238323D01*
X0320827Y0237725D02*
X0298425Y0237725D01*
X0297824Y0237126D02*
X0320502Y0237126D01*
X0320341Y0236528D02*
X0297824Y0236528D01*
X0297824Y0235929D02*
X0320181Y0235929D01*
X0320020Y0235331D02*
X0297824Y0235331D01*
X0297824Y0234732D02*
X0319860Y0234732D01*
X0319700Y0234134D02*
X0297824Y0234134D01*
X0297824Y0233535D02*
X0319546Y0233535D01*
X0319546Y0232937D02*
X0297824Y0232937D01*
X0297824Y0232338D02*
X0319546Y0232338D01*
X0319546Y0231740D02*
X0297824Y0231740D01*
X0297824Y0231141D02*
X0319546Y0231141D01*
X0319546Y0230543D02*
X0297824Y0230543D01*
X0297824Y0229944D02*
X0319546Y0229944D01*
X0319668Y0229346D02*
X0297824Y0229346D01*
X0297824Y0228747D02*
X0319828Y0228747D01*
X0319988Y0228149D02*
X0297824Y0228149D01*
X0297824Y0227550D02*
X0320149Y0227550D01*
X0320309Y0226952D02*
X0297824Y0226952D01*
X0297824Y0226353D02*
X0320470Y0226353D01*
X0320758Y0225755D02*
X0297824Y0225755D01*
X0297824Y0225156D02*
X0321103Y0225156D01*
X0321449Y0224557D02*
X0297824Y0224557D01*
X0297824Y0223959D02*
X0321794Y0223959D01*
X0322140Y0223360D02*
X0297824Y0223360D01*
X0297824Y0222762D02*
X0322549Y0222762D01*
X0323148Y0222163D02*
X0297824Y0222163D01*
X0297824Y0221565D02*
X0323746Y0221565D01*
X0324345Y0220966D02*
X0297824Y0220966D01*
X0297824Y0220368D02*
X0324943Y0220368D01*
X0325896Y0219769D02*
X0297824Y0219769D01*
X0297824Y0219171D02*
X0326932Y0219171D01*
X0327969Y0218572D02*
X0297824Y0218572D01*
X0297824Y0217974D02*
X0329805Y0217974D01*
X0332039Y0213186D02*
X0297824Y0213186D01*
X0297824Y0213784D02*
X0353010Y0213784D01*
X0353010Y0213186D02*
X0335612Y0213186D01*
X0336963Y0212587D02*
X0353010Y0212587D01*
X0353010Y0211989D02*
X0337561Y0211989D01*
X0338160Y0211390D02*
X0353010Y0211390D01*
X0353010Y0210792D02*
X0338561Y0210792D01*
X0338809Y0210193D02*
X0353010Y0210193D01*
X0353010Y0209595D02*
X0339057Y0209595D01*
X0339247Y0208996D02*
X0353010Y0208996D01*
X0353010Y0208398D02*
X0339247Y0208398D01*
X0330688Y0212587D02*
X0297279Y0212587D01*
X0296680Y0211989D02*
X0330090Y0211989D01*
X0329491Y0211390D02*
X0296082Y0211390D01*
X0295483Y0210792D02*
X0329090Y0210792D01*
X0328842Y0210193D02*
X0294885Y0210193D01*
X0294286Y0209595D02*
X0328594Y0209595D01*
X0328404Y0208996D02*
X0257088Y0208996D01*
X0256489Y0208398D02*
X0328404Y0208398D01*
X0337846Y0217974D02*
X0353010Y0217974D01*
X0353010Y0218572D02*
X0339682Y0218572D01*
X0340718Y0219171D02*
X0353010Y0219171D01*
X0353010Y0219769D02*
X0341755Y0219769D01*
X0342708Y0220368D02*
X0353010Y0220368D01*
X0353010Y0220966D02*
X0343306Y0220966D01*
X0343905Y0221565D02*
X0353010Y0221565D01*
X0353010Y0222163D02*
X0344503Y0222163D01*
X0345102Y0222762D02*
X0353010Y0222762D01*
X0353010Y0223360D02*
X0345511Y0223360D01*
X0345856Y0223959D02*
X0353010Y0223959D01*
X0353010Y0224557D02*
X0346202Y0224557D01*
X0346548Y0225156D02*
X0353010Y0225156D01*
X0353010Y0225755D02*
X0346893Y0225755D01*
X0347181Y0226353D02*
X0353010Y0226353D01*
X0353010Y0226952D02*
X0347342Y0226952D01*
X0347502Y0227550D02*
X0353010Y0227550D01*
X0353010Y0228149D02*
X0347662Y0228149D01*
X0347823Y0228747D02*
X0353010Y0228747D01*
X0353010Y0229346D02*
X0347983Y0229346D01*
X0348105Y0229944D02*
X0353010Y0229944D01*
X0353010Y0230543D02*
X0348105Y0230543D01*
X0348105Y0231141D02*
X0353010Y0231141D01*
X0353007Y0231740D02*
X0348105Y0231740D01*
X0348105Y0232338D02*
X0352967Y0232338D01*
X0352928Y0232937D02*
X0348105Y0232937D01*
X0348105Y0233535D02*
X0352889Y0233535D01*
X0352850Y0234134D02*
X0347951Y0234134D01*
X0347791Y0234732D02*
X0352699Y0234732D01*
X0352539Y0235331D02*
X0347630Y0235331D01*
X0347470Y0235929D02*
X0352379Y0235929D01*
X0352218Y0236528D02*
X0347310Y0236528D01*
X0347149Y0237126D02*
X0352058Y0237126D01*
X0351898Y0237725D02*
X0346824Y0237725D01*
X0346478Y0238323D02*
X0351737Y0238323D01*
X0351577Y0238922D02*
X0346133Y0238922D01*
X0345787Y0239520D02*
X0351262Y0239520D01*
X0350917Y0240119D02*
X0345442Y0240119D01*
X0344982Y0240717D02*
X0350571Y0240717D01*
X0350226Y0241316D02*
X0344384Y0241316D01*
X0343785Y0241914D02*
X0349880Y0241914D01*
X0349534Y0242513D02*
X0343187Y0242513D01*
X0342584Y0243111D02*
X0349189Y0243111D01*
X0348695Y0243710D02*
X0341548Y0243710D01*
X0340511Y0244308D02*
X0348097Y0244308D01*
X0347498Y0244907D02*
X0339475Y0244907D01*
X0337399Y0245505D02*
X0346899Y0245505D01*
X0346301Y0246104D02*
X0293608Y0246104D01*
X0293856Y0246702D02*
X0345702Y0246702D01*
X0344811Y0247301D02*
X0293993Y0247301D01*
X0293993Y0247899D02*
X0343774Y0247899D01*
X0342737Y0248498D02*
X0293959Y0248498D01*
X0293711Y0249096D02*
X0341701Y0249096D01*
X0340083Y0249695D02*
X0293461Y0249695D01*
X0292863Y0250293D02*
X0337849Y0250293D01*
X0330251Y0245505D02*
X0293214Y0245505D01*
X0292615Y0244907D02*
X0328176Y0244907D01*
X0327140Y0244308D02*
X0291353Y0244308D01*
X0289684Y0244308D02*
X0285875Y0244308D01*
X0285743Y0244363D02*
X0284994Y0244512D01*
X0284913Y0244512D01*
X0284913Y0240937D01*
X0288488Y0240937D01*
X0288488Y0241019D01*
X0288339Y0241767D01*
X0288047Y0242473D01*
X0287623Y0243107D01*
X0287083Y0243647D01*
X0286448Y0244071D01*
X0285743Y0244363D01*
X0284913Y0244308D02*
X0284313Y0244308D01*
X0284313Y0244512D02*
X0284231Y0244512D01*
X0283483Y0244363D01*
X0282777Y0244071D01*
X0282143Y0243647D01*
X0281603Y0243107D01*
X0281179Y0242473D01*
X0280887Y0241767D01*
X0280738Y0241019D01*
X0280738Y0240937D01*
X0284313Y0240937D01*
X0284313Y0240337D01*
X0284913Y0240337D01*
X0284913Y0236762D01*
X0284994Y0236762D01*
X0285743Y0236911D01*
X0286448Y0237203D01*
X0287083Y0237628D01*
X0287623Y0238167D01*
X0288047Y0238802D01*
X0288339Y0239507D01*
X0288488Y0240256D01*
X0288488Y0240337D01*
X0284913Y0240337D01*
X0284913Y0240937D01*
X0284313Y0240937D01*
X0284313Y0244512D01*
X0284313Y0243710D02*
X0284913Y0243710D01*
X0284913Y0243111D02*
X0284313Y0243111D01*
X0284313Y0242513D02*
X0284913Y0242513D01*
X0284913Y0241914D02*
X0284313Y0241914D01*
X0284313Y0241316D02*
X0284913Y0241316D01*
X0284913Y0240717D02*
X0292949Y0240717D01*
X0292949Y0240119D02*
X0288460Y0240119D01*
X0288341Y0239520D02*
X0293125Y0239520D01*
X0293373Y0238922D02*
X0288096Y0238922D01*
X0287727Y0238323D02*
X0293824Y0238323D01*
X0294422Y0237725D02*
X0287180Y0237725D01*
X0286262Y0237126D02*
X0295424Y0237126D01*
X0295424Y0236528D02*
X0079593Y0236528D01*
X0079433Y0237126D02*
X0282964Y0237126D01*
X0282777Y0237203D02*
X0283483Y0236911D01*
X0284231Y0236762D01*
X0284313Y0236762D01*
X0284313Y0240337D01*
X0280738Y0240337D01*
X0280738Y0240256D01*
X0280887Y0239507D01*
X0281179Y0238802D01*
X0281603Y0238167D01*
X0282143Y0237628D01*
X0282777Y0237203D01*
X0282046Y0237725D02*
X0079107Y0237725D01*
X0079415Y0237191D02*
X0077535Y0240448D01*
X0074877Y0243106D01*
X0071621Y0244986D01*
X0067989Y0245959D01*
X0064229Y0245959D01*
X0060597Y0244986D01*
X0057341Y0243106D01*
X0054682Y0240448D01*
X0052803Y0237191D01*
X0051829Y0233560D01*
X0051829Y0229800D01*
X0052803Y0226168D01*
X0054682Y0222912D01*
X0057341Y0220253D01*
X0060597Y0218373D01*
X0064229Y0217400D01*
X0067989Y0217400D01*
X0071621Y0218373D01*
X0074877Y0220253D01*
X0077535Y0222912D01*
X0079415Y0226168D01*
X0080388Y0229800D01*
X0080388Y0233560D01*
X0079415Y0237191D01*
X0079754Y0235929D02*
X0295424Y0235929D01*
X0295424Y0235331D02*
X0079914Y0235331D01*
X0080074Y0234732D02*
X0295424Y0234732D01*
X0295424Y0234134D02*
X0080235Y0234134D01*
X0080388Y0233535D02*
X0295424Y0233535D01*
X0295424Y0232937D02*
X0080388Y0232937D01*
X0080388Y0232338D02*
X0295424Y0232338D01*
X0295424Y0231740D02*
X0080388Y0231740D01*
X0080388Y0231141D02*
X0295424Y0231141D01*
X0295424Y0230543D02*
X0080388Y0230543D01*
X0080388Y0229944D02*
X0295424Y0229944D01*
X0295424Y0229346D02*
X0080267Y0229346D01*
X0080106Y0228747D02*
X0295424Y0228747D01*
X0295424Y0228149D02*
X0079946Y0228149D01*
X0079786Y0227550D02*
X0295424Y0227550D01*
X0295424Y0226952D02*
X0079625Y0226952D01*
X0079465Y0226353D02*
X0295424Y0226353D01*
X0295424Y0225755D02*
X0079177Y0225755D01*
X0078831Y0225156D02*
X0295424Y0225156D01*
X0295424Y0224557D02*
X0078485Y0224557D01*
X0078140Y0223959D02*
X0161438Y0223959D01*
X0161583Y0224019D02*
X0160057Y0223387D01*
X0158890Y0222220D01*
X0158258Y0220694D01*
X0158258Y0219043D01*
X0158890Y0217518D01*
X0160057Y0216351D01*
X0161583Y0215719D01*
X0163234Y0215719D01*
X0164759Y0216351D01*
X0165926Y0217518D01*
X0166558Y0219043D01*
X0166558Y0220694D01*
X0165926Y0222220D01*
X0164759Y0223387D01*
X0163234Y0224019D01*
X0161583Y0224019D01*
X0160031Y0223360D02*
X0077794Y0223360D01*
X0077385Y0222762D02*
X0159432Y0222762D01*
X0158867Y0222163D02*
X0076787Y0222163D01*
X0076188Y0221565D02*
X0158619Y0221565D01*
X0158371Y0220966D02*
X0075590Y0220966D01*
X0074991Y0220368D02*
X0158258Y0220368D01*
X0158258Y0219769D02*
X0074039Y0219769D01*
X0073002Y0219171D02*
X0105307Y0219171D01*
X0105600Y0219292D02*
X0103641Y0218481D01*
X0102142Y0216982D01*
X0101706Y0215929D01*
X0098520Y0215929D01*
X0097524Y0214934D01*
X0095124Y0212534D01*
X0095124Y0194499D01*
X0094724Y0194099D01*
X0094724Y0192360D01*
X0095954Y0191129D01*
X0097694Y0191129D01*
X0098924Y0192360D01*
X0098924Y0194099D01*
X0098524Y0194499D01*
X0098524Y0211125D01*
X0099928Y0212529D01*
X0101486Y0212529D01*
X0102142Y0210945D01*
X0103641Y0209445D01*
X0105600Y0208634D01*
X0107720Y0208634D01*
X0109679Y0209445D01*
X0111178Y0210945D01*
X0111989Y0212903D01*
X0111989Y0215023D01*
X0111178Y0216982D01*
X0109679Y0218481D01*
X0107720Y0219292D01*
X0105600Y0219292D01*
X0103862Y0218572D02*
X0071965Y0218572D01*
X0070130Y0217974D02*
X0103134Y0217974D01*
X0102536Y0217375D02*
X0046924Y0217375D01*
X0046924Y0216777D02*
X0102057Y0216777D01*
X0101809Y0216178D02*
X0046924Y0216178D01*
X0046924Y0215580D02*
X0098170Y0215580D01*
X0097572Y0214981D02*
X0046924Y0214981D01*
X0046924Y0214383D02*
X0096973Y0214383D01*
X0096375Y0213784D02*
X0046924Y0213784D01*
X0046924Y0213186D02*
X0095776Y0213186D01*
X0095178Y0212587D02*
X0046924Y0212587D01*
X0046924Y0211989D02*
X0095124Y0211989D01*
X0095124Y0211390D02*
X0046924Y0211390D01*
X0046924Y0210792D02*
X0095124Y0210792D01*
X0095124Y0210193D02*
X0046924Y0210193D01*
X0046924Y0209595D02*
X0095124Y0209595D01*
X0095124Y0208996D02*
X0046924Y0208996D01*
X0046924Y0208398D02*
X0095124Y0208398D01*
X0095124Y0207799D02*
X0046924Y0207799D01*
X0046924Y0207201D02*
X0095124Y0207201D01*
X0095124Y0206602D02*
X0046924Y0206602D01*
X0046924Y0206004D02*
X0095124Y0206004D01*
X0095124Y0205405D02*
X0046924Y0205405D01*
X0046924Y0204807D02*
X0095124Y0204807D01*
X0095124Y0204208D02*
X0046924Y0204208D01*
X0046924Y0203610D02*
X0095124Y0203610D01*
X0095124Y0203011D02*
X0046924Y0203011D01*
X0046924Y0202413D02*
X0095124Y0202413D01*
X0095124Y0201814D02*
X0046924Y0201814D01*
X0046924Y0201216D02*
X0095124Y0201216D01*
X0095124Y0200617D02*
X0046924Y0200617D01*
X0046924Y0200019D02*
X0095124Y0200019D01*
X0095124Y0199420D02*
X0046924Y0199420D01*
X0046924Y0198821D02*
X0095124Y0198821D01*
X0095124Y0198223D02*
X0046924Y0198223D01*
X0046924Y0197624D02*
X0095124Y0197624D01*
X0095124Y0197026D02*
X0046924Y0197026D01*
X0046924Y0196427D02*
X0095124Y0196427D01*
X0095124Y0195829D02*
X0046924Y0195829D01*
X0046924Y0195230D02*
X0095124Y0195230D01*
X0095124Y0194632D02*
X0046924Y0194632D01*
X0046924Y0194033D02*
X0094724Y0194033D01*
X0094724Y0193435D02*
X0046924Y0193435D01*
X0046924Y0192836D02*
X0094724Y0192836D01*
X0094846Y0192238D02*
X0046924Y0192238D01*
X0046924Y0191639D02*
X0095444Y0191639D01*
X0098204Y0191639D02*
X0165824Y0191639D01*
X0165824Y0191041D02*
X0046924Y0191041D01*
X0046924Y0190442D02*
X0143555Y0190442D01*
X0143586Y0190473D02*
X0142355Y0189243D01*
X0142355Y0187503D01*
X0143586Y0186273D01*
X0145325Y0186273D01*
X0146555Y0187503D01*
X0146555Y0189243D01*
X0145325Y0190473D01*
X0143586Y0190473D01*
X0142957Y0189844D02*
X0046924Y0189844D01*
X0046924Y0189245D02*
X0142358Y0189245D01*
X0142355Y0188647D02*
X0046924Y0188647D01*
X0046924Y0188048D02*
X0142355Y0188048D01*
X0142408Y0187450D02*
X0046924Y0187450D01*
X0046924Y0186851D02*
X0143007Y0186851D01*
X0145904Y0186851D02*
X0165824Y0186851D01*
X0165824Y0186253D02*
X0046924Y0186253D01*
X0046924Y0185654D02*
X0158279Y0185654D01*
X0158354Y0185729D02*
X0157124Y0184499D01*
X0157124Y0182760D01*
X0158354Y0181529D01*
X0160094Y0181529D01*
X0160994Y0182429D01*
X0166321Y0182429D01*
X0167024Y0183132D01*
X0167024Y0183132D01*
X0167521Y0183629D01*
X0168224Y0184332D01*
X0168224Y0213247D01*
X0170699Y0216085D01*
X0171583Y0215719D01*
X0173234Y0215719D01*
X0174759Y0216351D01*
X0175926Y0217518D01*
X0176558Y0219043D01*
X0176558Y0220694D01*
X0175926Y0222220D01*
X0174759Y0223387D01*
X0173234Y0224019D01*
X0171583Y0224019D01*
X0170057Y0223387D01*
X0168890Y0222220D01*
X0168258Y0220694D01*
X0168258Y0219043D01*
X0168850Y0217615D01*
X0166146Y0214517D01*
X0165824Y0214194D01*
X0165824Y0214147D01*
X0165793Y0214111D01*
X0165824Y0213656D01*
X0165824Y0185326D01*
X0165327Y0184829D01*
X0160994Y0184829D01*
X0160094Y0185729D01*
X0158354Y0185729D01*
X0157680Y0185056D02*
X0046924Y0185056D01*
X0046924Y0184457D02*
X0157124Y0184457D01*
X0157124Y0183859D02*
X0046924Y0183859D01*
X0046924Y0183260D02*
X0157124Y0183260D01*
X0157222Y0182662D02*
X0135961Y0182662D01*
X0135594Y0183029D02*
X0133854Y0183029D01*
X0132624Y0181799D01*
X0132624Y0180060D01*
X0133524Y0179160D01*
X0133524Y0149426D01*
X0132327Y0148229D01*
X0083594Y0148229D01*
X0082694Y0149129D01*
X0080954Y0149129D01*
X0079724Y0147899D01*
X0079724Y0146160D01*
X0080954Y0144929D01*
X0082694Y0144929D01*
X0083594Y0145829D01*
X0133321Y0145829D01*
X0134024Y0146532D01*
X0135924Y0148432D01*
X0135924Y0179160D01*
X0136824Y0180060D01*
X0136824Y0181799D01*
X0135594Y0183029D01*
X0136560Y0182063D02*
X0157820Y0182063D01*
X0159224Y0183629D02*
X0165824Y0183629D01*
X0167024Y0184829D01*
X0167024Y0213697D01*
X0172408Y0219869D01*
X0169432Y0222762D02*
X0165384Y0222762D01*
X0165950Y0222163D02*
X0168867Y0222163D01*
X0168619Y0221565D02*
X0166197Y0221565D01*
X0166445Y0220966D02*
X0168371Y0220966D01*
X0168258Y0220368D02*
X0166558Y0220368D01*
X0166558Y0219769D02*
X0168258Y0219769D01*
X0168258Y0219171D02*
X0166558Y0219171D01*
X0166363Y0218572D02*
X0168453Y0218572D01*
X0168701Y0217974D02*
X0166115Y0217974D01*
X0165784Y0217375D02*
X0168640Y0217375D01*
X0168118Y0216777D02*
X0165185Y0216777D01*
X0164343Y0216178D02*
X0167596Y0216178D01*
X0167074Y0215580D02*
X0148767Y0215580D01*
X0148997Y0215023D02*
X0148186Y0216982D01*
X0146687Y0218481D01*
X0144728Y0219292D01*
X0142608Y0219292D01*
X0140649Y0218481D01*
X0139150Y0216982D01*
X0138339Y0215023D01*
X0138339Y0212903D01*
X0139150Y0210945D01*
X0140649Y0209445D01*
X0142608Y0208634D01*
X0144728Y0208634D01*
X0146687Y0209445D01*
X0148186Y0210945D01*
X0148997Y0212903D01*
X0148997Y0215023D01*
X0148997Y0214981D02*
X0166552Y0214981D01*
X0166013Y0214383D02*
X0148997Y0214383D01*
X0148997Y0213784D02*
X0165815Y0213784D01*
X0165824Y0213186D02*
X0148997Y0213186D01*
X0148866Y0212587D02*
X0165824Y0212587D01*
X0165824Y0211989D02*
X0148618Y0211989D01*
X0148370Y0211390D02*
X0165824Y0211390D01*
X0165824Y0210792D02*
X0148033Y0210792D01*
X0147434Y0210193D02*
X0165824Y0210193D01*
X0165824Y0209595D02*
X0146836Y0209595D01*
X0145602Y0208996D02*
X0165824Y0208996D01*
X0165824Y0208398D02*
X0098524Y0208398D01*
X0098524Y0208996D02*
X0104726Y0208996D01*
X0103492Y0209595D02*
X0098524Y0209595D01*
X0098524Y0210193D02*
X0102894Y0210193D01*
X0102295Y0210792D02*
X0098524Y0210792D01*
X0098789Y0211390D02*
X0101958Y0211390D01*
X0101710Y0211989D02*
X0099387Y0211989D01*
X0098524Y0207799D02*
X0165824Y0207799D01*
X0165824Y0207201D02*
X0098524Y0207201D01*
X0098524Y0206602D02*
X0165824Y0206602D01*
X0165824Y0206004D02*
X0098524Y0206004D01*
X0098524Y0205405D02*
X0165824Y0205405D01*
X0165824Y0204807D02*
X0098524Y0204807D01*
X0098524Y0204208D02*
X0165824Y0204208D01*
X0165824Y0203610D02*
X0098524Y0203610D01*
X0098524Y0203011D02*
X0165824Y0203011D01*
X0165824Y0202413D02*
X0098524Y0202413D01*
X0098524Y0201814D02*
X0165824Y0201814D01*
X0165824Y0201216D02*
X0098524Y0201216D01*
X0098524Y0200617D02*
X0165824Y0200617D01*
X0165824Y0200019D02*
X0098524Y0200019D01*
X0098524Y0199420D02*
X0165824Y0199420D01*
X0165824Y0198821D02*
X0098524Y0198821D01*
X0098524Y0198223D02*
X0165824Y0198223D01*
X0165824Y0197624D02*
X0098524Y0197624D01*
X0098524Y0197026D02*
X0165824Y0197026D01*
X0165824Y0196427D02*
X0098524Y0196427D01*
X0098524Y0195829D02*
X0165824Y0195829D01*
X0165824Y0195230D02*
X0098524Y0195230D01*
X0098524Y0194632D02*
X0165824Y0194632D01*
X0165824Y0194033D02*
X0098924Y0194033D01*
X0098924Y0193435D02*
X0165824Y0193435D01*
X0165824Y0192836D02*
X0098924Y0192836D01*
X0098802Y0192238D02*
X0165824Y0192238D01*
X0165824Y0190442D02*
X0145356Y0190442D01*
X0145954Y0189844D02*
X0165824Y0189844D01*
X0165824Y0189245D02*
X0146553Y0189245D01*
X0146555Y0188647D02*
X0165824Y0188647D01*
X0165824Y0188048D02*
X0146555Y0188048D01*
X0146502Y0187450D02*
X0165824Y0187450D01*
X0165824Y0185654D02*
X0160169Y0185654D01*
X0160767Y0185056D02*
X0165553Y0185056D01*
X0167152Y0183260D02*
X0227024Y0183260D01*
X0227024Y0182662D02*
X0166553Y0182662D01*
X0167521Y0183629D02*
X0167521Y0183629D01*
X0167750Y0183859D02*
X0227024Y0183859D01*
X0227024Y0184457D02*
X0168224Y0184457D01*
X0168224Y0185056D02*
X0227024Y0185056D01*
X0227024Y0185654D02*
X0168224Y0185654D01*
X0168224Y0186253D02*
X0227024Y0186253D01*
X0227024Y0186851D02*
X0168224Y0186851D01*
X0168224Y0187450D02*
X0227024Y0187450D01*
X0227024Y0188048D02*
X0168224Y0188048D01*
X0168224Y0188647D02*
X0227024Y0188647D01*
X0227024Y0189245D02*
X0168224Y0189245D01*
X0168224Y0189844D02*
X0227024Y0189844D01*
X0227024Y0190442D02*
X0168224Y0190442D01*
X0168224Y0191041D02*
X0227024Y0191041D01*
X0227024Y0191639D02*
X0168224Y0191639D01*
X0168224Y0192238D02*
X0227024Y0192238D01*
X0227024Y0192836D02*
X0168224Y0192836D01*
X0168224Y0193435D02*
X0227024Y0193435D01*
X0227024Y0194033D02*
X0168224Y0194033D01*
X0168224Y0194632D02*
X0227024Y0194632D01*
X0227024Y0195230D02*
X0168224Y0195230D01*
X0168224Y0195829D02*
X0227024Y0195829D01*
X0227024Y0196427D02*
X0168224Y0196427D01*
X0168224Y0197026D02*
X0175352Y0197026D01*
X0175869Y0196509D02*
X0177609Y0196509D01*
X0178839Y0197739D01*
X0178839Y0199479D01*
X0177609Y0200709D01*
X0175869Y0200709D01*
X0174639Y0199479D01*
X0174639Y0197739D01*
X0175869Y0196509D01*
X0174753Y0197624D02*
X0168224Y0197624D01*
X0168224Y0198223D02*
X0174639Y0198223D01*
X0174639Y0198821D02*
X0168224Y0198821D01*
X0168224Y0199420D02*
X0174639Y0199420D01*
X0175179Y0200019D02*
X0168224Y0200019D01*
X0168224Y0200617D02*
X0175777Y0200617D01*
X0177701Y0200617D02*
X0189950Y0200617D01*
X0190042Y0200709D02*
X0188812Y0199479D01*
X0188812Y0197739D01*
X0190042Y0196509D01*
X0191782Y0196509D01*
X0193012Y0197739D01*
X0193012Y0199479D01*
X0191782Y0200709D01*
X0190042Y0200709D01*
X0189352Y0200019D02*
X0178299Y0200019D01*
X0178839Y0199420D02*
X0188812Y0199420D01*
X0188812Y0198821D02*
X0178839Y0198821D01*
X0178839Y0198223D02*
X0188812Y0198223D01*
X0188927Y0197624D02*
X0178724Y0197624D01*
X0178126Y0197026D02*
X0189525Y0197026D01*
X0192299Y0197026D02*
X0227024Y0197026D01*
X0227024Y0197624D02*
X0192897Y0197624D01*
X0193012Y0198223D02*
X0227024Y0198223D01*
X0227024Y0198821D02*
X0193012Y0198821D01*
X0193012Y0199420D02*
X0227024Y0199420D01*
X0227024Y0200019D02*
X0192472Y0200019D01*
X0191874Y0200617D02*
X0227024Y0200617D01*
X0227024Y0201216D02*
X0168224Y0201216D01*
X0168224Y0201814D02*
X0227024Y0201814D01*
X0227024Y0202413D02*
X0168224Y0202413D01*
X0168224Y0203011D02*
X0227024Y0203011D01*
X0227024Y0203610D02*
X0168224Y0203610D01*
X0168224Y0204208D02*
X0227024Y0204208D01*
X0227024Y0204807D02*
X0168224Y0204807D01*
X0168224Y0205405D02*
X0227024Y0205405D01*
X0227024Y0206004D02*
X0168224Y0206004D01*
X0168224Y0206602D02*
X0227024Y0206602D01*
X0227024Y0207201D02*
X0168224Y0207201D01*
X0168224Y0207799D02*
X0227024Y0207799D01*
X0227024Y0208398D02*
X0168224Y0208398D01*
X0168224Y0208996D02*
X0227024Y0208996D01*
X0227024Y0209595D02*
X0168224Y0209595D01*
X0168224Y0210193D02*
X0227024Y0210193D01*
X0227024Y0210792D02*
X0168224Y0210792D01*
X0168224Y0211390D02*
X0227024Y0211390D01*
X0227024Y0211989D02*
X0168224Y0211989D01*
X0168224Y0212587D02*
X0227024Y0212587D01*
X0227024Y0213186D02*
X0168224Y0213186D01*
X0168692Y0213784D02*
X0227024Y0213784D01*
X0227024Y0214383D02*
X0169215Y0214383D01*
X0169737Y0214981D02*
X0227024Y0214981D01*
X0227024Y0215580D02*
X0217987Y0215580D01*
X0218210Y0215652D02*
X0218848Y0215977D01*
X0219427Y0216398D01*
X0219934Y0216905D01*
X0220355Y0217484D01*
X0220680Y0218122D01*
X0220901Y0218803D01*
X0221013Y0219511D01*
X0221013Y0219569D01*
X0216763Y0219569D01*
X0216763Y0220169D01*
X0216163Y0220169D01*
X0216163Y0219569D01*
X0211913Y0219569D01*
X0211913Y0219511D01*
X0212025Y0218803D01*
X0212247Y0218122D01*
X0212572Y0217484D01*
X0212993Y0216905D01*
X0213499Y0216398D01*
X0214079Y0215977D01*
X0214717Y0215652D01*
X0215398Y0215431D01*
X0216105Y0215319D01*
X0216163Y0215319D01*
X0216163Y0219569D01*
X0216763Y0219569D01*
X0216763Y0215319D01*
X0216821Y0215319D01*
X0217529Y0215431D01*
X0218210Y0215652D01*
X0219125Y0216178D02*
X0224528Y0216178D01*
X0223686Y0216777D02*
X0219806Y0216777D01*
X0220276Y0217375D02*
X0223088Y0217375D01*
X0222756Y0217974D02*
X0220604Y0217974D01*
X0220826Y0218572D02*
X0222508Y0218572D01*
X0222313Y0219171D02*
X0220959Y0219171D01*
X0221013Y0220169D02*
X0216763Y0220169D01*
X0216763Y0224419D01*
X0216821Y0224419D01*
X0217529Y0224307D01*
X0218210Y0224085D01*
X0218848Y0223760D01*
X0219427Y0223339D01*
X0219934Y0222833D01*
X0220355Y0222253D01*
X0220680Y0221615D01*
X0220901Y0220934D01*
X0221013Y0220227D01*
X0221013Y0220169D01*
X0220991Y0220368D02*
X0222313Y0220368D01*
X0222313Y0219769D02*
X0216763Y0219769D01*
X0216763Y0219171D02*
X0216163Y0219171D01*
X0216163Y0219769D02*
X0210613Y0219769D01*
X0210613Y0219171D02*
X0211967Y0219171D01*
X0212100Y0218572D02*
X0210418Y0218572D01*
X0210613Y0219043D02*
X0209981Y0217518D01*
X0208814Y0216351D01*
X0207289Y0215719D01*
X0205638Y0215719D01*
X0204112Y0216351D01*
X0202945Y0217518D01*
X0202313Y0219043D01*
X0202313Y0220694D01*
X0202945Y0222220D01*
X0204112Y0223387D01*
X0205638Y0224019D01*
X0207289Y0224019D01*
X0208814Y0223387D01*
X0209981Y0222220D01*
X0210613Y0220694D01*
X0210613Y0219043D01*
X0210170Y0217974D02*
X0212322Y0217974D01*
X0212651Y0217375D02*
X0209839Y0217375D01*
X0209240Y0216777D02*
X0213120Y0216777D01*
X0213802Y0216178D02*
X0208398Y0216178D01*
X0204528Y0216178D02*
X0186886Y0216178D01*
X0186870Y0216117D02*
X0186958Y0216448D01*
X0186958Y0219569D01*
X0182708Y0219569D01*
X0182708Y0220169D01*
X0182108Y0220169D01*
X0182108Y0224419D01*
X0178987Y0224419D01*
X0178656Y0224330D01*
X0178360Y0224159D01*
X0178118Y0223917D01*
X0177947Y0223621D01*
X0177858Y0223290D01*
X0177858Y0220169D01*
X0182108Y0220169D01*
X0182108Y0219569D01*
X0177858Y0219569D01*
X0177858Y0216448D01*
X0177947Y0216117D01*
X0178118Y0215821D01*
X0178360Y0215579D01*
X0178656Y0215407D01*
X0178987Y0215319D01*
X0182108Y0215319D01*
X0182108Y0219569D01*
X0182708Y0219569D01*
X0182708Y0215319D01*
X0185829Y0215319D01*
X0186160Y0215407D01*
X0186456Y0215579D01*
X0186698Y0215821D01*
X0186870Y0216117D01*
X0186958Y0216777D02*
X0203686Y0216777D01*
X0203088Y0217375D02*
X0186958Y0217375D01*
X0186958Y0217974D02*
X0202756Y0217974D01*
X0202508Y0218572D02*
X0186958Y0218572D01*
X0186958Y0219171D02*
X0202313Y0219171D01*
X0202313Y0219769D02*
X0182708Y0219769D01*
X0182708Y0220169D02*
X0186958Y0220169D01*
X0186958Y0223290D01*
X0186870Y0223621D01*
X0186698Y0223917D01*
X0186456Y0224159D01*
X0186160Y0224330D01*
X0185829Y0224419D01*
X0182708Y0224419D01*
X0182708Y0220169D01*
X0182708Y0220368D02*
X0182108Y0220368D01*
X0182108Y0220966D02*
X0182708Y0220966D01*
X0182708Y0221565D02*
X0182108Y0221565D01*
X0182108Y0222163D02*
X0182708Y0222163D01*
X0182708Y0222762D02*
X0182108Y0222762D01*
X0182108Y0223360D02*
X0182708Y0223360D01*
X0182708Y0223959D02*
X0182108Y0223959D01*
X0178160Y0223959D02*
X0173378Y0223959D01*
X0174785Y0223360D02*
X0177877Y0223360D01*
X0177858Y0222762D02*
X0175384Y0222762D01*
X0175950Y0222163D02*
X0177858Y0222163D01*
X0177858Y0221565D02*
X0176197Y0221565D01*
X0176445Y0220966D02*
X0177858Y0220966D01*
X0177858Y0220368D02*
X0176558Y0220368D01*
X0176558Y0219769D02*
X0182108Y0219769D01*
X0182108Y0219171D02*
X0182708Y0219171D01*
X0182708Y0218572D02*
X0182108Y0218572D01*
X0182108Y0217974D02*
X0182708Y0217974D01*
X0182708Y0217375D02*
X0182108Y0217375D01*
X0182108Y0216777D02*
X0182708Y0216777D01*
X0182708Y0216178D02*
X0182108Y0216178D01*
X0182108Y0215580D02*
X0182708Y0215580D01*
X0186458Y0215580D02*
X0214939Y0215580D01*
X0216163Y0215580D02*
X0216763Y0215580D01*
X0216763Y0216178D02*
X0216163Y0216178D01*
X0216163Y0216777D02*
X0216763Y0216777D01*
X0216763Y0217375D02*
X0216163Y0217375D01*
X0216163Y0217974D02*
X0216763Y0217974D01*
X0216763Y0218572D02*
X0216163Y0218572D01*
X0216163Y0220169D02*
X0211913Y0220169D01*
X0211913Y0220227D01*
X0212025Y0220934D01*
X0212247Y0221615D01*
X0212572Y0222253D01*
X0212993Y0222833D01*
X0213499Y0223339D01*
X0214079Y0223760D01*
X0214717Y0224085D01*
X0215398Y0224307D01*
X0216105Y0224419D01*
X0216163Y0224419D01*
X0216163Y0220169D01*
X0216163Y0220368D02*
X0216763Y0220368D01*
X0216763Y0220966D02*
X0216163Y0220966D01*
X0216163Y0221565D02*
X0216763Y0221565D01*
X0216763Y0222163D02*
X0216163Y0222163D01*
X0216163Y0222762D02*
X0216763Y0222762D01*
X0216763Y0223360D02*
X0216163Y0223360D01*
X0216163Y0223959D02*
X0216763Y0223959D01*
X0218458Y0223959D02*
X0225493Y0223959D01*
X0224086Y0223360D02*
X0219398Y0223360D01*
X0219985Y0222762D02*
X0223487Y0222762D01*
X0222922Y0222163D02*
X0220401Y0222163D01*
X0220696Y0221565D02*
X0222674Y0221565D01*
X0222426Y0220966D02*
X0220891Y0220966D01*
X0226463Y0219869D02*
X0227024Y0219029D01*
X0228224Y0217829D01*
X0228224Y0113429D01*
X0229593Y0115030D02*
X0230624Y0115030D01*
X0230624Y0115628D02*
X0229424Y0115628D01*
X0229424Y0116227D02*
X0230624Y0116227D01*
X0230624Y0116825D02*
X0229424Y0116825D01*
X0229424Y0117424D02*
X0230624Y0117424D01*
X0230624Y0118022D02*
X0229424Y0118022D01*
X0229424Y0118621D02*
X0230624Y0118621D01*
X0230624Y0119219D02*
X0229424Y0119219D01*
X0229424Y0119818D02*
X0230624Y0119818D01*
X0230624Y0120417D02*
X0229424Y0120417D01*
X0229424Y0121015D02*
X0230624Y0121015D01*
X0230624Y0121614D02*
X0229424Y0121614D01*
X0229424Y0122212D02*
X0230624Y0122212D01*
X0230624Y0122811D02*
X0229424Y0122811D01*
X0229424Y0123409D02*
X0230624Y0123409D01*
X0230624Y0124008D02*
X0229424Y0124008D01*
X0229424Y0124606D02*
X0230624Y0124606D01*
X0230624Y0125205D02*
X0229424Y0125205D01*
X0229424Y0125803D02*
X0230624Y0125803D01*
X0230624Y0126402D02*
X0229424Y0126402D01*
X0229424Y0127000D02*
X0230624Y0127000D01*
X0230624Y0127599D02*
X0229424Y0127599D01*
X0229424Y0128197D02*
X0230624Y0128197D01*
X0230624Y0128796D02*
X0229424Y0128796D01*
X0229424Y0129394D02*
X0230624Y0129394D01*
X0230624Y0129993D02*
X0229424Y0129993D01*
X0229424Y0130591D02*
X0230624Y0130591D01*
X0230624Y0131190D02*
X0229424Y0131190D01*
X0229424Y0131788D02*
X0230624Y0131788D01*
X0230624Y0132387D02*
X0229424Y0132387D01*
X0229424Y0132985D02*
X0230624Y0132985D01*
X0230624Y0133584D02*
X0229424Y0133584D01*
X0229424Y0134182D02*
X0230624Y0134182D01*
X0230624Y0134781D02*
X0229424Y0134781D01*
X0229424Y0135379D02*
X0230624Y0135379D01*
X0230624Y0135978D02*
X0229424Y0135978D01*
X0229424Y0136576D02*
X0230624Y0136576D01*
X0230624Y0137175D02*
X0229424Y0137175D01*
X0229424Y0137773D02*
X0230624Y0137773D01*
X0230624Y0138372D02*
X0229424Y0138372D01*
X0229424Y0138970D02*
X0230624Y0138970D01*
X0230624Y0139569D02*
X0229424Y0139569D01*
X0229424Y0140167D02*
X0230624Y0140167D01*
X0230624Y0140766D02*
X0229424Y0140766D01*
X0229424Y0141364D02*
X0230624Y0141364D01*
X0230624Y0141963D02*
X0229424Y0141963D01*
X0229424Y0142561D02*
X0230624Y0142561D01*
X0230624Y0143160D02*
X0229424Y0143160D01*
X0229424Y0143758D02*
X0230624Y0143758D01*
X0230624Y0144357D02*
X0229424Y0144357D01*
X0229424Y0144955D02*
X0230624Y0144955D01*
X0230624Y0145554D02*
X0229424Y0145554D01*
X0229424Y0146152D02*
X0230624Y0146152D01*
X0230624Y0146751D02*
X0229424Y0146751D01*
X0229424Y0147350D02*
X0230624Y0147350D01*
X0230624Y0147948D02*
X0229424Y0147948D01*
X0229424Y0148547D02*
X0230624Y0148547D01*
X0230624Y0149145D02*
X0229424Y0149145D01*
X0229424Y0149744D02*
X0230624Y0149744D01*
X0230624Y0150342D02*
X0229424Y0150342D01*
X0229424Y0150941D02*
X0230624Y0150941D01*
X0230624Y0151539D02*
X0229424Y0151539D01*
X0229424Y0152138D02*
X0230624Y0152138D01*
X0230624Y0152736D02*
X0229424Y0152736D01*
X0229424Y0153335D02*
X0230624Y0153335D01*
X0230624Y0153933D02*
X0229424Y0153933D01*
X0229424Y0154532D02*
X0230624Y0154532D01*
X0230624Y0155130D02*
X0229424Y0155130D01*
X0229424Y0155729D02*
X0230624Y0155729D01*
X0230624Y0156327D02*
X0229424Y0156327D01*
X0229424Y0156926D02*
X0230624Y0156926D01*
X0230624Y0157524D02*
X0229424Y0157524D01*
X0229424Y0158123D02*
X0230624Y0158123D01*
X0230624Y0158721D02*
X0229424Y0158721D01*
X0229424Y0159320D02*
X0230624Y0159320D01*
X0230624Y0159918D02*
X0229424Y0159918D01*
X0229424Y0160517D02*
X0230624Y0160517D01*
X0230624Y0161115D02*
X0229424Y0161115D01*
X0229424Y0161714D02*
X0230624Y0161714D01*
X0230624Y0162312D02*
X0229424Y0162312D01*
X0229424Y0162911D02*
X0230624Y0162911D01*
X0230624Y0163509D02*
X0229424Y0163509D01*
X0229424Y0164108D02*
X0230624Y0164108D01*
X0230624Y0164706D02*
X0229424Y0164706D01*
X0229424Y0165305D02*
X0230624Y0165305D01*
X0230624Y0165903D02*
X0229424Y0165903D01*
X0229424Y0166502D02*
X0230624Y0166502D01*
X0230624Y0167100D02*
X0229424Y0167100D01*
X0229424Y0167699D02*
X0230624Y0167699D01*
X0230624Y0168297D02*
X0229424Y0168297D01*
X0229424Y0168896D02*
X0230624Y0168896D01*
X0230624Y0169494D02*
X0229424Y0169494D01*
X0229424Y0170093D02*
X0230624Y0170093D01*
X0230624Y0170691D02*
X0229424Y0170691D01*
X0229424Y0171290D02*
X0230624Y0171290D01*
X0230624Y0171888D02*
X0229424Y0171888D01*
X0229424Y0172487D02*
X0230624Y0172487D01*
X0230624Y0173086D02*
X0229424Y0173086D01*
X0229424Y0173684D02*
X0230624Y0173684D01*
X0230624Y0174283D02*
X0229424Y0174283D01*
X0229424Y0174881D02*
X0230624Y0174881D01*
X0230624Y0175480D02*
X0229424Y0175480D01*
X0229424Y0176078D02*
X0230624Y0176078D01*
X0230624Y0176677D02*
X0229424Y0176677D01*
X0229424Y0177275D02*
X0230624Y0177275D01*
X0230624Y0177874D02*
X0229424Y0177874D01*
X0229424Y0178472D02*
X0230624Y0178472D01*
X0230624Y0179071D02*
X0229424Y0179071D01*
X0229424Y0179669D02*
X0230624Y0179669D01*
X0230624Y0180268D02*
X0229424Y0180268D01*
X0229424Y0180866D02*
X0230624Y0180866D01*
X0230624Y0181465D02*
X0229424Y0181465D01*
X0229424Y0182063D02*
X0230624Y0182063D01*
X0230624Y0182662D02*
X0229424Y0182662D01*
X0229424Y0183260D02*
X0230624Y0183260D01*
X0230624Y0183859D02*
X0229424Y0183859D01*
X0229424Y0184457D02*
X0230624Y0184457D01*
X0230624Y0185056D02*
X0229424Y0185056D01*
X0229424Y0185654D02*
X0230952Y0185654D01*
X0231550Y0186253D02*
X0229424Y0186253D01*
X0229424Y0186851D02*
X0231440Y0186851D01*
X0230842Y0187450D02*
X0229424Y0187450D01*
X0229424Y0188048D02*
X0230525Y0188048D01*
X0230525Y0188647D02*
X0229424Y0188647D01*
X0229424Y0189245D02*
X0230525Y0189245D01*
X0230864Y0189844D02*
X0229424Y0189844D01*
X0229424Y0190442D02*
X0231462Y0190442D01*
X0229424Y0191041D02*
X0234824Y0191041D01*
X0234824Y0191639D02*
X0229424Y0191639D01*
X0229424Y0192238D02*
X0234824Y0192238D01*
X0234824Y0192836D02*
X0229424Y0192836D01*
X0229424Y0193435D02*
X0234824Y0193435D01*
X0234824Y0194033D02*
X0229424Y0194033D01*
X0229424Y0194632D02*
X0234824Y0194632D01*
X0234824Y0195230D02*
X0229424Y0195230D01*
X0229424Y0195829D02*
X0234824Y0195829D01*
X0234824Y0196427D02*
X0229424Y0196427D01*
X0229424Y0197026D02*
X0234824Y0197026D01*
X0234824Y0197624D02*
X0229424Y0197624D01*
X0229424Y0198223D02*
X0234824Y0198223D01*
X0234824Y0198821D02*
X0229424Y0198821D01*
X0229424Y0199420D02*
X0234824Y0199420D01*
X0234824Y0200019D02*
X0229424Y0200019D01*
X0229424Y0200617D02*
X0234824Y0200617D01*
X0234824Y0201216D02*
X0229424Y0201216D01*
X0229424Y0201814D02*
X0234824Y0201814D01*
X0234824Y0202413D02*
X0229424Y0202413D01*
X0229424Y0203011D02*
X0234824Y0203011D01*
X0234824Y0203610D02*
X0229424Y0203610D01*
X0229424Y0204208D02*
X0234824Y0204208D01*
X0234824Y0204807D02*
X0229424Y0204807D01*
X0229424Y0205405D02*
X0234824Y0205405D01*
X0234824Y0206004D02*
X0229424Y0206004D01*
X0229424Y0206602D02*
X0234824Y0206602D01*
X0234824Y0207201D02*
X0229424Y0207201D01*
X0229424Y0207799D02*
X0234824Y0207799D01*
X0234824Y0208398D02*
X0229424Y0208398D01*
X0229424Y0208996D02*
X0234824Y0208996D01*
X0234824Y0209595D02*
X0229424Y0209595D01*
X0229424Y0210193D02*
X0234824Y0210193D01*
X0234824Y0210792D02*
X0229424Y0210792D01*
X0229424Y0211390D02*
X0234824Y0211390D01*
X0234824Y0211989D02*
X0229424Y0211989D01*
X0229424Y0212587D02*
X0234824Y0212587D01*
X0234824Y0213186D02*
X0229424Y0213186D01*
X0229424Y0213784D02*
X0234824Y0213784D01*
X0234824Y0214383D02*
X0229424Y0214383D01*
X0229424Y0214981D02*
X0234824Y0214981D01*
X0234824Y0215580D02*
X0229424Y0215580D01*
X0229424Y0216178D02*
X0234528Y0216178D01*
X0233686Y0216777D02*
X0229424Y0216777D01*
X0229839Y0217375D02*
X0233088Y0217375D01*
X0232756Y0217974D02*
X0230170Y0217974D01*
X0230418Y0218572D02*
X0232508Y0218572D01*
X0232313Y0219171D02*
X0230613Y0219171D01*
X0230613Y0219769D02*
X0232313Y0219769D01*
X0232313Y0220368D02*
X0230613Y0220368D01*
X0230501Y0220966D02*
X0232426Y0220966D01*
X0232674Y0221565D02*
X0230253Y0221565D01*
X0230005Y0222163D02*
X0232922Y0222163D01*
X0233487Y0222762D02*
X0229439Y0222762D01*
X0228841Y0223360D02*
X0234086Y0223360D01*
X0235493Y0223959D02*
X0227433Y0223959D01*
X0236024Y0219029D02*
X0236463Y0219869D01*
X0236024Y0219029D02*
X0236024Y0189029D01*
X0231824Y0184829D01*
X0231824Y0114029D01*
X0222824Y0105029D01*
X0227339Y0107848D02*
X0229636Y0107848D01*
X0229037Y0108446D02*
X0227938Y0108446D01*
X0230624Y0109829D02*
X0251024Y0109829D01*
X0254024Y0112829D01*
X0252732Y0113234D02*
X0232726Y0113234D01*
X0233024Y0113833D02*
X0252824Y0113833D01*
X0252824Y0114431D02*
X0233024Y0114431D01*
X0233024Y0115030D02*
X0252824Y0115030D01*
X0252824Y0115628D02*
X0233024Y0115628D01*
X0233024Y0116227D02*
X0252824Y0116227D01*
X0252824Y0116825D02*
X0235390Y0116825D01*
X0235988Y0117424D02*
X0252824Y0117424D01*
X0252824Y0118022D02*
X0236524Y0118022D01*
X0236524Y0118621D02*
X0252824Y0118621D01*
X0252824Y0119219D02*
X0236524Y0119219D01*
X0236405Y0119818D02*
X0252824Y0119818D01*
X0252824Y0120417D02*
X0235807Y0120417D01*
X0233041Y0120417D02*
X0233024Y0120417D01*
X0233024Y0121015D02*
X0252824Y0121015D01*
X0252824Y0121614D02*
X0233024Y0121614D01*
X0233024Y0122212D02*
X0252824Y0122212D01*
X0252824Y0122811D02*
X0233024Y0122811D01*
X0233024Y0123409D02*
X0252824Y0123409D01*
X0252824Y0124008D02*
X0233024Y0124008D01*
X0233024Y0124606D02*
X0252824Y0124606D01*
X0252824Y0125205D02*
X0233024Y0125205D01*
X0233024Y0125803D02*
X0252824Y0125803D01*
X0252824Y0126402D02*
X0233024Y0126402D01*
X0233024Y0127000D02*
X0252824Y0127000D01*
X0252824Y0127599D02*
X0233024Y0127599D01*
X0233024Y0128197D02*
X0252824Y0128197D01*
X0252824Y0128796D02*
X0233024Y0128796D01*
X0233024Y0129394D02*
X0252824Y0129394D01*
X0252824Y0129993D02*
X0233024Y0129993D01*
X0233024Y0130591D02*
X0252824Y0130591D01*
X0252824Y0131190D02*
X0233024Y0131190D01*
X0233024Y0131788D02*
X0252824Y0131788D01*
X0252824Y0132387D02*
X0233024Y0132387D01*
X0233024Y0132985D02*
X0252824Y0132985D01*
X0252824Y0133584D02*
X0233024Y0133584D01*
X0233024Y0134182D02*
X0252824Y0134182D01*
X0252824Y0134781D02*
X0233024Y0134781D01*
X0233024Y0135379D02*
X0252824Y0135379D01*
X0252824Y0135978D02*
X0233024Y0135978D01*
X0233024Y0136576D02*
X0252824Y0136576D01*
X0252824Y0137175D02*
X0233024Y0137175D01*
X0233024Y0137773D02*
X0252824Y0137773D01*
X0252824Y0138372D02*
X0233024Y0138372D01*
X0233024Y0138970D02*
X0252824Y0138970D01*
X0252824Y0139569D02*
X0233024Y0139569D01*
X0233024Y0140167D02*
X0252824Y0140167D01*
X0252824Y0140766D02*
X0233024Y0140766D01*
X0233024Y0141364D02*
X0252824Y0141364D01*
X0252824Y0141963D02*
X0233024Y0141963D01*
X0233024Y0142561D02*
X0252824Y0142561D01*
X0252824Y0143160D02*
X0233024Y0143160D01*
X0233024Y0143758D02*
X0233525Y0143758D01*
X0235323Y0143758D02*
X0252824Y0143758D01*
X0252824Y0144357D02*
X0235921Y0144357D01*
X0236520Y0144955D02*
X0252824Y0144955D01*
X0252824Y0145554D02*
X0236524Y0145554D01*
X0236524Y0146152D02*
X0252824Y0146152D01*
X0252824Y0146751D02*
X0236472Y0146751D01*
X0235874Y0147350D02*
X0252824Y0147350D01*
X0252824Y0147948D02*
X0233024Y0147948D01*
X0233024Y0148547D02*
X0252824Y0148547D01*
X0252824Y0149145D02*
X0233024Y0149145D01*
X0233024Y0149744D02*
X0252824Y0149744D01*
X0252824Y0150342D02*
X0233024Y0150342D01*
X0233024Y0150941D02*
X0252824Y0150941D01*
X0252824Y0151539D02*
X0233024Y0151539D01*
X0233024Y0152138D02*
X0252824Y0152138D01*
X0252824Y0152736D02*
X0233024Y0152736D01*
X0233024Y0153335D02*
X0252824Y0153335D01*
X0252824Y0153933D02*
X0233024Y0153933D01*
X0233024Y0154532D02*
X0252824Y0154532D01*
X0252824Y0155130D02*
X0233024Y0155130D01*
X0233024Y0155729D02*
X0252824Y0155729D01*
X0252824Y0156327D02*
X0233024Y0156327D01*
X0233024Y0156926D02*
X0252824Y0156926D01*
X0252824Y0157524D02*
X0233024Y0157524D01*
X0233024Y0158123D02*
X0252824Y0158123D01*
X0252824Y0158721D02*
X0233024Y0158721D01*
X0233024Y0159320D02*
X0252824Y0159320D01*
X0252824Y0159918D02*
X0233024Y0159918D01*
X0233024Y0160517D02*
X0252824Y0160517D01*
X0252824Y0161115D02*
X0233024Y0161115D01*
X0233024Y0161714D02*
X0252824Y0161714D01*
X0252824Y0162312D02*
X0233024Y0162312D01*
X0233024Y0162911D02*
X0233089Y0162911D01*
X0235349Y0162911D02*
X0252824Y0162911D01*
X0252824Y0163509D02*
X0235948Y0163509D01*
X0236319Y0164108D02*
X0252824Y0164108D01*
X0252824Y0164706D02*
X0236319Y0164706D01*
X0236319Y0165305D02*
X0252824Y0165305D01*
X0252824Y0165903D02*
X0236036Y0165903D01*
X0235438Y0166502D02*
X0252824Y0166502D01*
X0252824Y0167100D02*
X0233024Y0167100D01*
X0233024Y0167699D02*
X0252824Y0167699D01*
X0252824Y0168297D02*
X0233024Y0168297D01*
X0233024Y0168896D02*
X0252824Y0168896D01*
X0252824Y0169494D02*
X0233024Y0169494D01*
X0233024Y0170093D02*
X0252824Y0170093D01*
X0252824Y0170691D02*
X0233024Y0170691D01*
X0233024Y0171290D02*
X0252824Y0171290D01*
X0252824Y0171888D02*
X0233024Y0171888D01*
X0233024Y0172487D02*
X0252824Y0172487D01*
X0252824Y0173086D02*
X0233024Y0173086D01*
X0233024Y0173684D02*
X0252824Y0173684D01*
X0252824Y0174283D02*
X0233024Y0174283D01*
X0233024Y0174881D02*
X0252824Y0174881D01*
X0252824Y0175480D02*
X0233024Y0175480D01*
X0233024Y0176078D02*
X0252824Y0176078D01*
X0252824Y0176677D02*
X0233024Y0176677D01*
X0233024Y0177275D02*
X0252824Y0177275D01*
X0252824Y0177874D02*
X0233024Y0177874D01*
X0233024Y0178472D02*
X0252824Y0178472D01*
X0252824Y0179071D02*
X0233024Y0179071D01*
X0233024Y0179669D02*
X0252824Y0179669D01*
X0252824Y0180268D02*
X0233024Y0180268D01*
X0233024Y0180866D02*
X0252824Y0180866D01*
X0252824Y0181465D02*
X0233024Y0181465D01*
X0233024Y0182063D02*
X0252824Y0182063D01*
X0252824Y0182662D02*
X0233024Y0182662D01*
X0233024Y0183260D02*
X0252824Y0183260D01*
X0252824Y0183859D02*
X0233024Y0183859D01*
X0233149Y0184457D02*
X0252824Y0184457D01*
X0252824Y0185056D02*
X0233747Y0185056D01*
X0234346Y0185654D02*
X0252824Y0185654D01*
X0252824Y0186253D02*
X0234944Y0186253D01*
X0235543Y0186851D02*
X0252824Y0186851D01*
X0252824Y0187450D02*
X0236141Y0187450D01*
X0236740Y0188048D02*
X0252824Y0188048D01*
X0252824Y0188647D02*
X0237224Y0188647D01*
X0237224Y0189245D02*
X0252824Y0189245D01*
X0252824Y0189844D02*
X0237224Y0189844D01*
X0237224Y0190442D02*
X0252824Y0190442D01*
X0252824Y0191041D02*
X0237224Y0191041D01*
X0237224Y0191639D02*
X0252824Y0191639D01*
X0252824Y0192238D02*
X0237224Y0192238D01*
X0237224Y0192836D02*
X0252824Y0192836D01*
X0252824Y0193435D02*
X0237224Y0193435D01*
X0237224Y0194033D02*
X0252824Y0194033D01*
X0252824Y0194632D02*
X0237224Y0194632D01*
X0237224Y0195230D02*
X0252824Y0195230D01*
X0252824Y0195829D02*
X0237224Y0195829D01*
X0237224Y0196427D02*
X0252824Y0196427D01*
X0252824Y0197026D02*
X0237224Y0197026D01*
X0237224Y0197624D02*
X0252824Y0197624D01*
X0252824Y0198223D02*
X0237224Y0198223D01*
X0237224Y0198821D02*
X0252824Y0198821D01*
X0252824Y0199420D02*
X0237224Y0199420D01*
X0237224Y0200019D02*
X0252824Y0200019D01*
X0252824Y0200617D02*
X0237224Y0200617D01*
X0237224Y0201216D02*
X0252824Y0201216D01*
X0252824Y0201814D02*
X0237224Y0201814D01*
X0237224Y0202413D02*
X0252824Y0202413D01*
X0252824Y0203011D02*
X0237224Y0203011D01*
X0237224Y0203610D02*
X0252824Y0203610D01*
X0252824Y0204208D02*
X0237224Y0204208D01*
X0237224Y0204807D02*
X0252824Y0204807D01*
X0252824Y0205405D02*
X0237224Y0205405D01*
X0237224Y0206004D02*
X0252824Y0206004D01*
X0252824Y0206602D02*
X0237224Y0206602D01*
X0237224Y0207201D02*
X0252824Y0207201D01*
X0252824Y0207799D02*
X0237224Y0207799D01*
X0237224Y0208398D02*
X0253095Y0208398D01*
X0253694Y0208996D02*
X0237224Y0208996D01*
X0237224Y0209595D02*
X0254292Y0209595D01*
X0254891Y0210193D02*
X0237224Y0210193D01*
X0237224Y0210792D02*
X0255489Y0210792D01*
X0256088Y0211390D02*
X0237224Y0211390D01*
X0237224Y0211989D02*
X0293286Y0211989D01*
X0293885Y0212587D02*
X0237224Y0212587D01*
X0237224Y0213186D02*
X0294483Y0213186D01*
X0295082Y0213784D02*
X0237224Y0213784D01*
X0237224Y0214383D02*
X0295424Y0214383D01*
X0295424Y0214981D02*
X0237224Y0214981D01*
X0237224Y0215580D02*
X0295424Y0215580D01*
X0295424Y0216178D02*
X0260546Y0216178D01*
X0260613Y0216246D02*
X0260613Y0223492D01*
X0260086Y0224019D01*
X0252840Y0224019D01*
X0252313Y0223492D01*
X0252313Y0216246D01*
X0252840Y0215719D01*
X0260086Y0215719D01*
X0260613Y0216246D01*
X0260613Y0216777D02*
X0295424Y0216777D01*
X0295424Y0217375D02*
X0260613Y0217375D01*
X0260613Y0217974D02*
X0295424Y0217974D01*
X0295424Y0218572D02*
X0260613Y0218572D01*
X0260613Y0219171D02*
X0295424Y0219171D01*
X0295424Y0219769D02*
X0260613Y0219769D01*
X0260613Y0220368D02*
X0295424Y0220368D01*
X0295424Y0220966D02*
X0260613Y0220966D01*
X0260613Y0221565D02*
X0295424Y0221565D01*
X0295424Y0222163D02*
X0260613Y0222163D01*
X0260613Y0222762D02*
X0295424Y0222762D01*
X0295424Y0223360D02*
X0260613Y0223360D01*
X0260146Y0223959D02*
X0295424Y0223959D01*
X0297824Y0217375D02*
X0353010Y0217375D01*
X0353010Y0216777D02*
X0297824Y0216777D01*
X0297824Y0216178D02*
X0353010Y0216178D01*
X0353010Y0215580D02*
X0297824Y0215580D01*
X0297824Y0214981D02*
X0353010Y0214981D01*
X0353010Y0214383D02*
X0297824Y0214383D01*
X0284913Y0237126D02*
X0284313Y0237126D01*
X0284313Y0237725D02*
X0284913Y0237725D01*
X0284913Y0238323D02*
X0284313Y0238323D01*
X0284313Y0238922D02*
X0284913Y0238922D01*
X0284913Y0239520D02*
X0284313Y0239520D01*
X0284313Y0240119D02*
X0284913Y0240119D01*
X0284313Y0240717D02*
X0077266Y0240717D01*
X0077725Y0240119D02*
X0280765Y0240119D01*
X0280884Y0239520D02*
X0078071Y0239520D01*
X0078416Y0238922D02*
X0281129Y0238922D01*
X0281499Y0238323D02*
X0078762Y0238323D01*
X0076667Y0241316D02*
X0280797Y0241316D01*
X0280948Y0241914D02*
X0076069Y0241914D01*
X0075470Y0242513D02*
X0281206Y0242513D01*
X0281607Y0243111D02*
X0074868Y0243111D01*
X0073831Y0243710D02*
X0282237Y0243710D01*
X0283350Y0244308D02*
X0072795Y0244308D01*
X0071758Y0244907D02*
X0288421Y0244907D01*
X0287823Y0245505D02*
X0069683Y0245505D01*
X0062535Y0245505D02*
X0053035Y0245505D01*
X0052436Y0244907D02*
X0060460Y0244907D01*
X0059423Y0244308D02*
X0051838Y0244308D01*
X0051239Y0243710D02*
X0058387Y0243710D01*
X0057350Y0243111D02*
X0050745Y0243111D01*
X0050400Y0242513D02*
X0056748Y0242513D01*
X0056149Y0241914D02*
X0050054Y0241914D01*
X0049709Y0241316D02*
X0055551Y0241316D01*
X0054952Y0240717D02*
X0049363Y0240717D01*
X0049018Y0240119D02*
X0054493Y0240119D01*
X0054147Y0239520D02*
X0048672Y0239520D01*
X0048357Y0238922D02*
X0053802Y0238922D01*
X0053456Y0238323D02*
X0048197Y0238323D01*
X0048037Y0237725D02*
X0053110Y0237725D01*
X0052785Y0237126D02*
X0047876Y0237126D01*
X0047716Y0236528D02*
X0052625Y0236528D01*
X0052464Y0235929D02*
X0047556Y0235929D01*
X0047395Y0235331D02*
X0052304Y0235331D01*
X0052144Y0234732D02*
X0047235Y0234732D01*
X0047085Y0234134D02*
X0051983Y0234134D01*
X0051829Y0233535D02*
X0047045Y0233535D01*
X0047006Y0232937D02*
X0051829Y0232937D01*
X0051829Y0232338D02*
X0046967Y0232338D01*
X0046928Y0231740D02*
X0051829Y0231740D01*
X0051829Y0231141D02*
X0046924Y0231141D01*
X0046924Y0230543D02*
X0051829Y0230543D01*
X0051829Y0229944D02*
X0046924Y0229944D01*
X0046924Y0229346D02*
X0051951Y0229346D01*
X0052111Y0228747D02*
X0046924Y0228747D01*
X0046924Y0228149D02*
X0052272Y0228149D01*
X0052432Y0227550D02*
X0046924Y0227550D01*
X0046924Y0226952D02*
X0052593Y0226952D01*
X0052753Y0226353D02*
X0046924Y0226353D01*
X0046924Y0225755D02*
X0053041Y0225755D01*
X0053387Y0225156D02*
X0046924Y0225156D01*
X0046924Y0224557D02*
X0053732Y0224557D01*
X0054078Y0223959D02*
X0046924Y0223959D01*
X0046924Y0223360D02*
X0054423Y0223360D01*
X0054832Y0222762D02*
X0046924Y0222762D01*
X0046924Y0222163D02*
X0055431Y0222163D01*
X0056029Y0221565D02*
X0046924Y0221565D01*
X0046924Y0220966D02*
X0056628Y0220966D01*
X0057227Y0220368D02*
X0046924Y0220368D01*
X0046924Y0219769D02*
X0058179Y0219769D01*
X0059216Y0219171D02*
X0046924Y0219171D01*
X0046924Y0218572D02*
X0060253Y0218572D01*
X0062088Y0217974D02*
X0046924Y0217974D01*
X0053633Y0246104D02*
X0287428Y0246104D01*
X0287180Y0246702D02*
X0054232Y0246702D01*
X0055124Y0247301D02*
X0287044Y0247301D01*
X0287044Y0247899D02*
X0056160Y0247899D01*
X0057197Y0248498D02*
X0287078Y0248498D01*
X0287326Y0249096D02*
X0058234Y0249096D01*
X0059851Y0249695D02*
X0287575Y0249695D01*
X0288174Y0250293D02*
X0062085Y0250293D01*
X0108013Y0219171D02*
X0123811Y0219171D01*
X0124104Y0219292D02*
X0122145Y0218481D01*
X0120646Y0216982D01*
X0119835Y0215023D01*
X0119835Y0212903D01*
X0120646Y0210945D01*
X0122145Y0209445D01*
X0124104Y0208634D01*
X0126224Y0208634D01*
X0128183Y0209445D01*
X0129682Y0210945D01*
X0130493Y0212903D01*
X0130493Y0215023D01*
X0129682Y0216982D01*
X0128183Y0218481D01*
X0126224Y0219292D01*
X0124104Y0219292D01*
X0122366Y0218572D02*
X0109458Y0218572D01*
X0110186Y0217974D02*
X0121638Y0217974D01*
X0121040Y0217375D02*
X0110785Y0217375D01*
X0111263Y0216777D02*
X0120561Y0216777D01*
X0120313Y0216178D02*
X0111511Y0216178D01*
X0111759Y0215580D02*
X0120065Y0215580D01*
X0119835Y0214981D02*
X0111989Y0214981D01*
X0111989Y0214383D02*
X0119835Y0214383D01*
X0119835Y0213784D02*
X0111989Y0213784D01*
X0111989Y0213186D02*
X0119835Y0213186D01*
X0119966Y0212587D02*
X0111858Y0212587D01*
X0111610Y0211989D02*
X0120214Y0211989D01*
X0120462Y0211390D02*
X0111363Y0211390D01*
X0111025Y0210792D02*
X0120799Y0210792D01*
X0121398Y0210193D02*
X0110427Y0210193D01*
X0109828Y0209595D02*
X0121996Y0209595D01*
X0123230Y0208996D02*
X0108594Y0208996D01*
X0127098Y0208996D02*
X0141734Y0208996D01*
X0140500Y0209595D02*
X0128332Y0209595D01*
X0128931Y0210193D02*
X0139901Y0210193D01*
X0139303Y0210792D02*
X0129529Y0210792D01*
X0129866Y0211390D02*
X0138966Y0211390D01*
X0138718Y0211989D02*
X0130114Y0211989D01*
X0130362Y0212587D02*
X0138470Y0212587D01*
X0138339Y0213186D02*
X0130493Y0213186D01*
X0130493Y0213784D02*
X0138339Y0213784D01*
X0138339Y0214383D02*
X0130493Y0214383D01*
X0130493Y0214981D02*
X0138339Y0214981D01*
X0138569Y0215580D02*
X0130263Y0215580D01*
X0130015Y0216178D02*
X0138817Y0216178D01*
X0139065Y0216777D02*
X0129767Y0216777D01*
X0129288Y0217375D02*
X0139544Y0217375D01*
X0140142Y0217974D02*
X0128690Y0217974D01*
X0127962Y0218572D02*
X0140870Y0218572D01*
X0142315Y0219171D02*
X0126517Y0219171D01*
X0145021Y0219171D02*
X0158258Y0219171D01*
X0158453Y0218572D02*
X0146466Y0218572D01*
X0147194Y0217974D02*
X0158701Y0217974D01*
X0159033Y0217375D02*
X0147792Y0217375D01*
X0148271Y0216777D02*
X0159631Y0216777D01*
X0160473Y0216178D02*
X0148519Y0216178D01*
X0163378Y0223959D02*
X0171438Y0223959D01*
X0170031Y0223360D02*
X0164785Y0223360D01*
X0170259Y0215580D02*
X0178359Y0215580D01*
X0177930Y0216178D02*
X0174343Y0216178D01*
X0175185Y0216777D02*
X0177858Y0216777D01*
X0177858Y0217375D02*
X0175784Y0217375D01*
X0176115Y0217974D02*
X0177858Y0217974D01*
X0177858Y0218572D02*
X0176363Y0218572D01*
X0176558Y0219171D02*
X0177858Y0219171D01*
X0186958Y0220368D02*
X0202313Y0220368D01*
X0202426Y0220966D02*
X0186958Y0220966D01*
X0186958Y0221565D02*
X0202674Y0221565D01*
X0202922Y0222163D02*
X0186958Y0222163D01*
X0186958Y0222762D02*
X0203487Y0222762D01*
X0204086Y0223360D02*
X0186939Y0223360D01*
X0186656Y0223959D02*
X0205493Y0223959D01*
X0207433Y0223959D02*
X0214469Y0223959D01*
X0213528Y0223360D02*
X0208841Y0223360D01*
X0209439Y0222762D02*
X0212941Y0222762D01*
X0212526Y0222163D02*
X0210005Y0222163D01*
X0210253Y0221565D02*
X0212230Y0221565D01*
X0212036Y0220966D02*
X0210501Y0220966D01*
X0210613Y0220368D02*
X0211936Y0220368D01*
X0237433Y0223959D02*
X0245493Y0223959D01*
X0245638Y0224019D02*
X0244112Y0223387D01*
X0242945Y0222220D01*
X0242313Y0220694D01*
X0242313Y0219043D01*
X0242945Y0217518D01*
X0244112Y0216351D01*
X0245638Y0215719D01*
X0247289Y0215719D01*
X0248814Y0216351D01*
X0249981Y0217518D01*
X0250613Y0219043D01*
X0250613Y0220694D01*
X0249981Y0222220D01*
X0248814Y0223387D01*
X0247289Y0224019D01*
X0245638Y0224019D01*
X0244086Y0223360D02*
X0238841Y0223360D01*
X0239439Y0222762D02*
X0243487Y0222762D01*
X0242922Y0222163D02*
X0240005Y0222163D01*
X0240253Y0221565D02*
X0242674Y0221565D01*
X0242426Y0220966D02*
X0240501Y0220966D01*
X0240613Y0220368D02*
X0242313Y0220368D01*
X0242313Y0219769D02*
X0240613Y0219769D01*
X0240613Y0219171D02*
X0242313Y0219171D01*
X0242508Y0218572D02*
X0240418Y0218572D01*
X0240170Y0217974D02*
X0242756Y0217974D01*
X0243088Y0217375D02*
X0239839Y0217375D01*
X0239240Y0216777D02*
X0243686Y0216777D01*
X0244528Y0216178D02*
X0238398Y0216178D01*
X0248398Y0216178D02*
X0252381Y0216178D01*
X0252313Y0216777D02*
X0249240Y0216777D01*
X0249839Y0217375D02*
X0252313Y0217375D01*
X0252313Y0217974D02*
X0250170Y0217974D01*
X0250418Y0218572D02*
X0252313Y0218572D01*
X0252313Y0219171D02*
X0250613Y0219171D01*
X0250613Y0219769D02*
X0252313Y0219769D01*
X0252313Y0220368D02*
X0250613Y0220368D01*
X0250501Y0220966D02*
X0252313Y0220966D01*
X0252313Y0221565D02*
X0250253Y0221565D01*
X0250005Y0222163D02*
X0252313Y0222163D01*
X0252313Y0222762D02*
X0249439Y0222762D01*
X0248841Y0223360D02*
X0252313Y0223360D01*
X0252781Y0223959D02*
X0247433Y0223959D01*
X0255891Y0207799D02*
X0264824Y0207799D01*
X0264824Y0207201D02*
X0255292Y0207201D01*
X0255224Y0206602D02*
X0264824Y0206602D01*
X0264824Y0206004D02*
X0255224Y0206004D01*
X0255224Y0205405D02*
X0264824Y0205405D01*
X0264824Y0204807D02*
X0255224Y0204807D01*
X0255224Y0204208D02*
X0264824Y0204208D01*
X0264824Y0203610D02*
X0255224Y0203610D01*
X0255224Y0203011D02*
X0264824Y0203011D01*
X0264824Y0202413D02*
X0255224Y0202413D01*
X0255224Y0201814D02*
X0264824Y0201814D01*
X0264824Y0201216D02*
X0255224Y0201216D01*
X0255224Y0200617D02*
X0264824Y0200617D01*
X0264824Y0200019D02*
X0255224Y0200019D01*
X0255224Y0199420D02*
X0264824Y0199420D01*
X0264824Y0198821D02*
X0255224Y0198821D01*
X0255224Y0198223D02*
X0264824Y0198223D01*
X0264824Y0197624D02*
X0255224Y0197624D01*
X0255224Y0197026D02*
X0264824Y0197026D01*
X0264824Y0196427D02*
X0255224Y0196427D01*
X0255224Y0195829D02*
X0264824Y0195829D01*
X0264824Y0195230D02*
X0255224Y0195230D01*
X0255224Y0194632D02*
X0264824Y0194632D01*
X0264824Y0194033D02*
X0255224Y0194033D01*
X0255224Y0193435D02*
X0264824Y0193435D01*
X0264824Y0192836D02*
X0255224Y0192836D01*
X0255224Y0192238D02*
X0264824Y0192238D01*
X0264824Y0191639D02*
X0255224Y0191639D01*
X0255224Y0191041D02*
X0264824Y0191041D01*
X0264824Y0190442D02*
X0255224Y0190442D01*
X0255224Y0189844D02*
X0264824Y0189844D01*
X0264824Y0189245D02*
X0255224Y0189245D01*
X0255224Y0188647D02*
X0264824Y0188647D01*
X0264824Y0188048D02*
X0255224Y0188048D01*
X0255224Y0187450D02*
X0264824Y0187450D01*
X0264824Y0186851D02*
X0255224Y0186851D01*
X0255224Y0186253D02*
X0264824Y0186253D01*
X0264824Y0185654D02*
X0255224Y0185654D01*
X0255224Y0185056D02*
X0264824Y0185056D01*
X0264824Y0184457D02*
X0255224Y0184457D01*
X0255224Y0183859D02*
X0264824Y0183859D01*
X0264824Y0183260D02*
X0255224Y0183260D01*
X0255224Y0182662D02*
X0264824Y0182662D01*
X0264824Y0182063D02*
X0255224Y0182063D01*
X0255224Y0181465D02*
X0264824Y0181465D01*
X0264824Y0180866D02*
X0255224Y0180866D01*
X0255224Y0180268D02*
X0264824Y0180268D01*
X0264824Y0179669D02*
X0255224Y0179669D01*
X0255224Y0179071D02*
X0264824Y0179071D01*
X0264824Y0178472D02*
X0255224Y0178472D01*
X0255224Y0177874D02*
X0264824Y0177874D01*
X0264824Y0177275D02*
X0255224Y0177275D01*
X0255224Y0176677D02*
X0264824Y0176677D01*
X0264824Y0176078D02*
X0255224Y0176078D01*
X0255224Y0175480D02*
X0264824Y0175480D01*
X0264824Y0174881D02*
X0255224Y0174881D01*
X0255224Y0174283D02*
X0264824Y0174283D01*
X0264824Y0173684D02*
X0255224Y0173684D01*
X0255224Y0173086D02*
X0264824Y0173086D01*
X0264824Y0172487D02*
X0255224Y0172487D01*
X0255224Y0171888D02*
X0264824Y0171888D01*
X0264824Y0171290D02*
X0255224Y0171290D01*
X0255224Y0170691D02*
X0264824Y0170691D01*
X0264824Y0170093D02*
X0255224Y0170093D01*
X0255224Y0169494D02*
X0264824Y0169494D01*
X0264824Y0168896D02*
X0255224Y0168896D01*
X0255224Y0168297D02*
X0264824Y0168297D01*
X0264824Y0167699D02*
X0255224Y0167699D01*
X0255224Y0167100D02*
X0264824Y0167100D01*
X0264824Y0166502D02*
X0255224Y0166502D01*
X0255224Y0165903D02*
X0264824Y0165903D01*
X0264824Y0165305D02*
X0255224Y0165305D01*
X0255224Y0164706D02*
X0264824Y0164706D01*
X0264824Y0164108D02*
X0255224Y0164108D01*
X0255224Y0163509D02*
X0264824Y0163509D01*
X0264824Y0162911D02*
X0255224Y0162911D01*
X0255224Y0162312D02*
X0264824Y0162312D01*
X0264824Y0161714D02*
X0255224Y0161714D01*
X0255224Y0161115D02*
X0264824Y0161115D01*
X0264824Y0160517D02*
X0255224Y0160517D01*
X0255224Y0159918D02*
X0264824Y0159918D01*
X0264824Y0159320D02*
X0255224Y0159320D01*
X0255224Y0158721D02*
X0264824Y0158721D01*
X0264824Y0158123D02*
X0255224Y0158123D01*
X0255224Y0157524D02*
X0264824Y0157524D01*
X0264824Y0156926D02*
X0255224Y0156926D01*
X0255224Y0156327D02*
X0264824Y0156327D01*
X0264824Y0155729D02*
X0255224Y0155729D01*
X0255224Y0155130D02*
X0264824Y0155130D01*
X0264824Y0154532D02*
X0255224Y0154532D01*
X0255224Y0153933D02*
X0264824Y0153933D01*
X0264824Y0153335D02*
X0255224Y0153335D01*
X0255224Y0152736D02*
X0264824Y0152736D01*
X0264824Y0152138D02*
X0255224Y0152138D01*
X0255224Y0151539D02*
X0264824Y0151539D01*
X0264824Y0150941D02*
X0255224Y0150941D01*
X0255224Y0150342D02*
X0264824Y0150342D01*
X0264824Y0149744D02*
X0255224Y0149744D01*
X0255224Y0149145D02*
X0264824Y0149145D01*
X0264824Y0148547D02*
X0255224Y0148547D01*
X0255224Y0147948D02*
X0264824Y0147948D01*
X0264824Y0147350D02*
X0255224Y0147350D01*
X0255224Y0146751D02*
X0264824Y0146751D01*
X0264824Y0146152D02*
X0255224Y0146152D01*
X0255224Y0145554D02*
X0264824Y0145554D01*
X0264824Y0144955D02*
X0255224Y0144955D01*
X0255224Y0144357D02*
X0264824Y0144357D01*
X0264824Y0143758D02*
X0255224Y0143758D01*
X0255224Y0143160D02*
X0264824Y0143160D01*
X0264824Y0142561D02*
X0255224Y0142561D01*
X0255224Y0141963D02*
X0264824Y0141963D01*
X0264824Y0141364D02*
X0255224Y0141364D01*
X0255224Y0140766D02*
X0264824Y0140766D01*
X0264824Y0140167D02*
X0255224Y0140167D01*
X0255224Y0139569D02*
X0264824Y0139569D01*
X0264824Y0138970D02*
X0255224Y0138970D01*
X0255224Y0138372D02*
X0264824Y0138372D01*
X0264824Y0137773D02*
X0255224Y0137773D01*
X0255224Y0137175D02*
X0264824Y0137175D01*
X0264824Y0136576D02*
X0255224Y0136576D01*
X0255224Y0135978D02*
X0264824Y0135978D01*
X0264824Y0135379D02*
X0255224Y0135379D01*
X0255224Y0134781D02*
X0264824Y0134781D01*
X0264824Y0134182D02*
X0255224Y0134182D01*
X0255224Y0133584D02*
X0264824Y0133584D01*
X0264824Y0132985D02*
X0255224Y0132985D01*
X0255224Y0132387D02*
X0264824Y0132387D01*
X0264824Y0131788D02*
X0255224Y0131788D01*
X0255224Y0131190D02*
X0264824Y0131190D01*
X0264824Y0130591D02*
X0255224Y0130591D01*
X0255224Y0129993D02*
X0264824Y0129993D01*
X0264824Y0129394D02*
X0255224Y0129394D01*
X0255224Y0128796D02*
X0264824Y0128796D01*
X0264824Y0128197D02*
X0255224Y0128197D01*
X0255224Y0127599D02*
X0264824Y0127599D01*
X0264824Y0127000D02*
X0255224Y0127000D01*
X0255224Y0126402D02*
X0264824Y0126402D01*
X0264824Y0125803D02*
X0255224Y0125803D01*
X0255224Y0125205D02*
X0264824Y0125205D01*
X0264824Y0124606D02*
X0255224Y0124606D01*
X0255224Y0124008D02*
X0264824Y0124008D01*
X0264824Y0123409D02*
X0255224Y0123409D01*
X0255224Y0122811D02*
X0264824Y0122811D01*
X0264824Y0122212D02*
X0255224Y0122212D01*
X0255224Y0121614D02*
X0264824Y0121614D01*
X0264824Y0121015D02*
X0255224Y0121015D01*
X0255224Y0120417D02*
X0264824Y0120417D01*
X0264824Y0119818D02*
X0255224Y0119818D01*
X0255224Y0119219D02*
X0264824Y0119219D01*
X0264824Y0118621D02*
X0255224Y0118621D01*
X0255224Y0118022D02*
X0264824Y0118022D01*
X0264824Y0117424D02*
X0255224Y0117424D01*
X0255224Y0116825D02*
X0264824Y0116825D01*
X0264824Y0116227D02*
X0255224Y0116227D01*
X0252133Y0112636D02*
X0232127Y0112636D01*
X0231529Y0112037D02*
X0251535Y0112037D01*
X0250936Y0111439D02*
X0231984Y0111439D01*
X0230529Y0114431D02*
X0230192Y0114431D01*
X0233024Y0116825D02*
X0233458Y0116825D01*
X0227024Y0125803D02*
X0074311Y0125803D01*
X0074311Y0125205D02*
X0156629Y0125205D01*
X0151304Y0124606D02*
X0074311Y0124606D01*
X0074311Y0124370D02*
X0074311Y0128178D01*
X0069374Y0128178D01*
X0069374Y0123241D01*
X0073182Y0123241D01*
X0073513Y0123330D01*
X0073809Y0123501D01*
X0074052Y0123743D01*
X0074223Y0124039D01*
X0074311Y0124370D01*
X0074204Y0124008D02*
X0150705Y0124008D01*
X0150107Y0123409D02*
X0073650Y0123409D01*
X0074311Y0126402D02*
X0227024Y0126402D01*
X0227024Y0127000D02*
X0074311Y0127000D01*
X0074311Y0127599D02*
X0227024Y0127599D01*
X0227024Y0128197D02*
X0069374Y0128197D01*
X0069374Y0128178D02*
X0069374Y0128778D01*
X0068774Y0128778D01*
X0068774Y0128178D01*
X0063837Y0128178D01*
X0063837Y0124370D01*
X0063926Y0124039D01*
X0064097Y0123743D01*
X0064339Y0123501D01*
X0064635Y0123330D01*
X0064966Y0123241D01*
X0068774Y0123241D01*
X0068774Y0128178D01*
X0069374Y0128178D01*
X0069374Y0127599D02*
X0068774Y0127599D01*
X0068774Y0128197D02*
X0055428Y0128197D01*
X0055252Y0127599D02*
X0063837Y0127599D01*
X0063837Y0127000D02*
X0054938Y0127000D01*
X0054432Y0126402D02*
X0063837Y0126402D01*
X0063837Y0125803D02*
X0053515Y0125803D01*
X0050388Y0125803D02*
X0049988Y0125803D01*
X0049988Y0126402D02*
X0050388Y0126402D01*
X0050388Y0127000D02*
X0049988Y0127000D01*
X0049988Y0127599D02*
X0050388Y0127599D01*
X0050388Y0128197D02*
X0049988Y0128197D01*
X0050389Y0128796D02*
X0063837Y0128796D01*
X0063837Y0128778D02*
X0068774Y0128778D01*
X0068774Y0133715D01*
X0064966Y0133715D01*
X0064635Y0133627D01*
X0064339Y0133455D01*
X0064133Y0133250D01*
X0061237Y0133250D01*
X0061237Y0133850D01*
X0064811Y0133850D01*
X0064811Y0133931D01*
X0064662Y0134680D01*
X0064370Y0135385D01*
X0063946Y0136020D01*
X0063407Y0136560D01*
X0062772Y0136984D01*
X0062067Y0137276D01*
X0061318Y0137425D01*
X0061236Y0137425D01*
X0061236Y0133850D01*
X0060636Y0133850D01*
X0060636Y0133250D01*
X0057062Y0133250D01*
X0057062Y0133168D01*
X0057211Y0132420D01*
X0057503Y0131714D01*
X0057927Y0131080D01*
X0058466Y0130540D01*
X0059101Y0130116D01*
X0059806Y0129824D01*
X0060555Y0129675D01*
X0060636Y0129675D01*
X0060636Y0133250D01*
X0061236Y0133250D01*
X0061236Y0129675D01*
X0061318Y0129675D01*
X0062067Y0129824D01*
X0062772Y0130116D01*
X0063407Y0130540D01*
X0063837Y0130971D01*
X0063837Y0128778D01*
X0063837Y0129394D02*
X0055440Y0129394D01*
X0055277Y0129993D02*
X0059399Y0129993D01*
X0058415Y0130591D02*
X0054977Y0130591D01*
X0054491Y0131190D02*
X0057853Y0131190D01*
X0057472Y0131788D02*
X0053659Y0131788D01*
X0050388Y0131788D02*
X0049988Y0131788D01*
X0049988Y0131190D02*
X0050388Y0131190D01*
X0050388Y0130591D02*
X0049988Y0130591D01*
X0049988Y0129993D02*
X0050388Y0129993D01*
X0050388Y0129394D02*
X0049988Y0129394D01*
X0046924Y0132387D02*
X0057224Y0132387D01*
X0057098Y0132985D02*
X0046924Y0132985D01*
X0046924Y0133584D02*
X0060636Y0133584D01*
X0060636Y0133850D02*
X0057062Y0133850D01*
X0057062Y0133931D01*
X0057211Y0134680D01*
X0057503Y0135385D01*
X0057927Y0136020D01*
X0058466Y0136560D01*
X0059101Y0136984D01*
X0059806Y0137276D01*
X0060555Y0137425D01*
X0060636Y0137425D01*
X0060636Y0133850D01*
X0060636Y0134182D02*
X0061236Y0134182D01*
X0061237Y0133584D02*
X0064561Y0133584D01*
X0064761Y0134182D02*
X0227024Y0134182D01*
X0227024Y0133584D02*
X0073587Y0133584D01*
X0073513Y0133627D02*
X0073182Y0133715D01*
X0069374Y0133715D01*
X0069374Y0128778D01*
X0074311Y0128778D01*
X0074311Y0132586D01*
X0074223Y0132917D01*
X0074052Y0133213D01*
X0073809Y0133455D01*
X0073513Y0133627D01*
X0074183Y0132985D02*
X0227024Y0132985D01*
X0227024Y0132387D02*
X0074311Y0132387D01*
X0074311Y0131788D02*
X0227024Y0131788D01*
X0227024Y0131190D02*
X0074311Y0131190D01*
X0074311Y0130591D02*
X0227024Y0130591D01*
X0227024Y0129993D02*
X0074311Y0129993D01*
X0074311Y0129394D02*
X0227024Y0129394D01*
X0227024Y0128796D02*
X0074311Y0128796D01*
X0069374Y0128796D02*
X0068774Y0128796D01*
X0068774Y0129394D02*
X0069374Y0129394D01*
X0069374Y0129993D02*
X0068774Y0129993D01*
X0068774Y0130591D02*
X0069374Y0130591D01*
X0069374Y0131190D02*
X0068774Y0131190D01*
X0068774Y0131788D02*
X0069374Y0131788D01*
X0069374Y0132387D02*
X0068774Y0132387D01*
X0068774Y0132985D02*
X0069374Y0132985D01*
X0069374Y0133584D02*
X0068774Y0133584D01*
X0064621Y0134781D02*
X0227024Y0134781D01*
X0227024Y0135379D02*
X0064373Y0135379D01*
X0063974Y0135978D02*
X0227024Y0135978D01*
X0227024Y0136576D02*
X0063382Y0136576D01*
X0062310Y0137175D02*
X0227024Y0137175D01*
X0227024Y0137773D02*
X0084138Y0137773D01*
X0083794Y0137429D02*
X0084694Y0138329D01*
X0106821Y0138329D01*
X0107524Y0139032D01*
X0111921Y0143429D01*
X0151454Y0143429D01*
X0152354Y0142529D01*
X0154094Y0142529D01*
X0155324Y0143760D01*
X0155324Y0145499D01*
X0154094Y0146729D01*
X0152354Y0146729D01*
X0151454Y0145829D01*
X0110927Y0145829D01*
X0105827Y0140729D01*
X0084694Y0140729D01*
X0083794Y0141629D01*
X0082054Y0141629D01*
X0080824Y0140399D01*
X0080824Y0138660D01*
X0082054Y0137429D01*
X0083794Y0137429D01*
X0081710Y0137773D02*
X0046924Y0137773D01*
X0046924Y0137175D02*
X0059563Y0137175D01*
X0060636Y0137175D02*
X0061236Y0137175D01*
X0061236Y0136576D02*
X0060636Y0136576D01*
X0060636Y0135978D02*
X0061236Y0135978D01*
X0061236Y0135379D02*
X0060636Y0135379D01*
X0060636Y0134781D02*
X0061236Y0134781D01*
X0061236Y0132985D02*
X0060636Y0132985D01*
X0060636Y0132387D02*
X0061236Y0132387D01*
X0061236Y0131788D02*
X0060636Y0131788D01*
X0060636Y0131190D02*
X0061236Y0131190D01*
X0061236Y0130591D02*
X0060636Y0130591D01*
X0060636Y0129993D02*
X0061236Y0129993D01*
X0062474Y0129993D02*
X0063837Y0129993D01*
X0063837Y0130591D02*
X0063458Y0130591D01*
X0057112Y0134182D02*
X0046924Y0134182D01*
X0046924Y0134781D02*
X0057252Y0134781D01*
X0057500Y0135379D02*
X0046924Y0135379D01*
X0046924Y0135978D02*
X0057899Y0135978D01*
X0058491Y0136576D02*
X0046924Y0136576D01*
X0046924Y0138372D02*
X0081112Y0138372D01*
X0080824Y0138970D02*
X0046924Y0138970D01*
X0046924Y0139569D02*
X0080824Y0139569D01*
X0080824Y0140167D02*
X0046924Y0140167D01*
X0046924Y0140766D02*
X0081191Y0140766D01*
X0081789Y0141364D02*
X0046924Y0141364D01*
X0046924Y0141963D02*
X0099524Y0141963D01*
X0099524Y0141960D02*
X0100754Y0140729D01*
X0102494Y0140729D01*
X0103724Y0141960D01*
X0103724Y0143699D01*
X0102494Y0144929D01*
X0100754Y0144929D01*
X0099524Y0143699D01*
X0099524Y0141960D01*
X0099524Y0142561D02*
X0046924Y0142561D01*
X0046924Y0143160D02*
X0099524Y0143160D01*
X0099583Y0143758D02*
X0046924Y0143758D01*
X0046924Y0144357D02*
X0100182Y0144357D01*
X0103066Y0144357D02*
X0109454Y0144357D01*
X0108856Y0143758D02*
X0103665Y0143758D01*
X0103724Y0143160D02*
X0108257Y0143160D01*
X0107659Y0142561D02*
X0103724Y0142561D01*
X0103724Y0141963D02*
X0107060Y0141963D01*
X0106462Y0141364D02*
X0103129Y0141364D01*
X0102530Y0140766D02*
X0105863Y0140766D01*
X0106324Y0139529D02*
X0082924Y0139529D01*
X0084657Y0140766D02*
X0100718Y0140766D01*
X0100119Y0141364D02*
X0084059Y0141364D01*
X0082720Y0144955D02*
X0110053Y0144955D01*
X0110651Y0145554D02*
X0083318Y0145554D01*
X0081824Y0147029D02*
X0132824Y0147029D01*
X0134724Y0148929D01*
X0134724Y0180929D01*
X0136824Y0180866D02*
X0227024Y0180866D01*
X0227024Y0180268D02*
X0136824Y0180268D01*
X0136433Y0179669D02*
X0227024Y0179669D01*
X0227024Y0179071D02*
X0135924Y0179071D01*
X0135924Y0178472D02*
X0227024Y0178472D01*
X0227024Y0177874D02*
X0135924Y0177874D01*
X0135924Y0177275D02*
X0227024Y0177275D01*
X0227024Y0176677D02*
X0135924Y0176677D01*
X0135924Y0176078D02*
X0227024Y0176078D01*
X0227024Y0175480D02*
X0135924Y0175480D01*
X0135924Y0174881D02*
X0227024Y0174881D01*
X0227024Y0174283D02*
X0135924Y0174283D01*
X0135924Y0173684D02*
X0227024Y0173684D01*
X0227024Y0173086D02*
X0135924Y0173086D01*
X0135924Y0172487D02*
X0227024Y0172487D01*
X0227024Y0171888D02*
X0135924Y0171888D01*
X0135924Y0171290D02*
X0227024Y0171290D01*
X0227024Y0170691D02*
X0135924Y0170691D01*
X0135924Y0170093D02*
X0227024Y0170093D01*
X0227024Y0169494D02*
X0135924Y0169494D01*
X0135924Y0168896D02*
X0227024Y0168896D01*
X0227024Y0168297D02*
X0135924Y0168297D01*
X0135924Y0167699D02*
X0227024Y0167699D01*
X0227024Y0167100D02*
X0135924Y0167100D01*
X0135924Y0166502D02*
X0227024Y0166502D01*
X0227024Y0165903D02*
X0135924Y0165903D01*
X0135924Y0165305D02*
X0227024Y0165305D01*
X0227024Y0164706D02*
X0135924Y0164706D01*
X0135924Y0164108D02*
X0227024Y0164108D01*
X0227024Y0163509D02*
X0135924Y0163509D01*
X0135924Y0162911D02*
X0227024Y0162911D01*
X0227024Y0162312D02*
X0135924Y0162312D01*
X0135924Y0161714D02*
X0227024Y0161714D01*
X0227024Y0161115D02*
X0135924Y0161115D01*
X0135924Y0160517D02*
X0227024Y0160517D01*
X0227024Y0159918D02*
X0135924Y0159918D01*
X0135924Y0159320D02*
X0227024Y0159320D01*
X0227024Y0158721D02*
X0135924Y0158721D01*
X0135924Y0158123D02*
X0227024Y0158123D01*
X0227024Y0157524D02*
X0135924Y0157524D01*
X0135924Y0156926D02*
X0227024Y0156926D01*
X0227024Y0156327D02*
X0135924Y0156327D01*
X0135924Y0155729D02*
X0227024Y0155729D01*
X0227024Y0155130D02*
X0135924Y0155130D01*
X0135924Y0154532D02*
X0227024Y0154532D01*
X0227024Y0153933D02*
X0135924Y0153933D01*
X0135924Y0153335D02*
X0227024Y0153335D01*
X0227024Y0152736D02*
X0135924Y0152736D01*
X0135924Y0152138D02*
X0227024Y0152138D01*
X0227024Y0151539D02*
X0135924Y0151539D01*
X0135924Y0150941D02*
X0227024Y0150941D01*
X0227024Y0150342D02*
X0135924Y0150342D01*
X0135924Y0149744D02*
X0227024Y0149744D01*
X0227024Y0149145D02*
X0135924Y0149145D01*
X0135924Y0148547D02*
X0227024Y0148547D01*
X0227024Y0147948D02*
X0135440Y0147948D01*
X0134841Y0147350D02*
X0227024Y0147350D01*
X0227024Y0146751D02*
X0134243Y0146751D01*
X0133644Y0146152D02*
X0151777Y0146152D01*
X0153224Y0144629D02*
X0111424Y0144629D01*
X0106324Y0139529D01*
X0107462Y0138970D02*
X0127313Y0138970D01*
X0127554Y0138729D02*
X0126324Y0139960D01*
X0126324Y0141699D01*
X0127554Y0142929D01*
X0129294Y0142929D01*
X0130524Y0141699D01*
X0130524Y0139960D01*
X0129294Y0138729D01*
X0127554Y0138729D01*
X0126715Y0139569D02*
X0108060Y0139569D01*
X0108659Y0140167D02*
X0126324Y0140167D01*
X0126324Y0140766D02*
X0109257Y0140766D01*
X0109856Y0141364D02*
X0126324Y0141364D01*
X0126588Y0141963D02*
X0110454Y0141963D01*
X0111053Y0142561D02*
X0127186Y0142561D01*
X0129662Y0142561D02*
X0152322Y0142561D01*
X0151723Y0143160D02*
X0111651Y0143160D01*
X0106863Y0138372D02*
X0227024Y0138372D01*
X0227024Y0138970D02*
X0129535Y0138970D01*
X0130133Y0139569D02*
X0227024Y0139569D01*
X0227024Y0140167D02*
X0130524Y0140167D01*
X0130524Y0140766D02*
X0227024Y0140766D01*
X0227024Y0141364D02*
X0130524Y0141364D01*
X0130260Y0141963D02*
X0227024Y0141963D01*
X0227024Y0142561D02*
X0154126Y0142561D01*
X0154724Y0143160D02*
X0227024Y0143160D01*
X0227024Y0143758D02*
X0155323Y0143758D01*
X0155324Y0144357D02*
X0227024Y0144357D01*
X0227024Y0144955D02*
X0155324Y0144955D01*
X0155269Y0145554D02*
X0227024Y0145554D01*
X0227024Y0146152D02*
X0154671Y0146152D01*
X0133524Y0149744D02*
X0079108Y0149744D01*
X0079094Y0149729D02*
X0080324Y0150960D01*
X0080324Y0151525D01*
X0089128Y0160329D01*
X0107728Y0160329D01*
X0110928Y0163529D01*
X0111494Y0163529D01*
X0112724Y0164760D01*
X0112724Y0166499D01*
X0111494Y0167729D01*
X0109754Y0167729D01*
X0108524Y0166499D01*
X0108524Y0165934D01*
X0106320Y0163729D01*
X0087720Y0163729D01*
X0086724Y0162734D01*
X0077920Y0153929D01*
X0077354Y0153929D01*
X0076124Y0152699D01*
X0076124Y0150960D01*
X0077354Y0149729D01*
X0079094Y0149729D01*
X0079706Y0150342D02*
X0133524Y0150342D01*
X0133524Y0150941D02*
X0080305Y0150941D01*
X0080338Y0151539D02*
X0133524Y0151539D01*
X0133524Y0152138D02*
X0080936Y0152138D01*
X0081535Y0152736D02*
X0133524Y0152736D01*
X0133524Y0153335D02*
X0082133Y0153335D01*
X0082732Y0153933D02*
X0133524Y0153933D01*
X0133524Y0154532D02*
X0083330Y0154532D01*
X0083929Y0155130D02*
X0133524Y0155130D01*
X0133524Y0155729D02*
X0084527Y0155729D01*
X0085126Y0156327D02*
X0133524Y0156327D01*
X0133524Y0156926D02*
X0085724Y0156926D01*
X0086323Y0157524D02*
X0133524Y0157524D01*
X0133524Y0158123D02*
X0086921Y0158123D01*
X0087520Y0158721D02*
X0126649Y0158721D01*
X0127050Y0158320D02*
X0128790Y0158320D01*
X0130020Y0159550D01*
X0130020Y0161290D01*
X0128790Y0162520D01*
X0127050Y0162520D01*
X0125820Y0161290D01*
X0125820Y0159550D01*
X0127050Y0158320D01*
X0126050Y0159320D02*
X0088118Y0159320D01*
X0088717Y0159918D02*
X0125820Y0159918D01*
X0125820Y0160517D02*
X0107915Y0160517D01*
X0108514Y0161115D02*
X0125820Y0161115D01*
X0126244Y0161714D02*
X0109112Y0161714D01*
X0109711Y0162312D02*
X0126842Y0162312D01*
X0128997Y0162312D02*
X0133524Y0162312D01*
X0133524Y0161714D02*
X0129596Y0161714D01*
X0130020Y0161115D02*
X0133524Y0161115D01*
X0133524Y0160517D02*
X0130020Y0160517D01*
X0130020Y0159918D02*
X0133524Y0159918D01*
X0133524Y0159320D02*
X0129790Y0159320D01*
X0129191Y0158721D02*
X0133524Y0158721D01*
X0133524Y0162911D02*
X0110309Y0162911D01*
X0110908Y0163509D02*
X0133524Y0163509D01*
X0133524Y0164108D02*
X0112072Y0164108D01*
X0112671Y0164706D02*
X0133524Y0164706D01*
X0133524Y0165305D02*
X0112724Y0165305D01*
X0112724Y0165903D02*
X0133524Y0165903D01*
X0133524Y0166502D02*
X0112721Y0166502D01*
X0112123Y0167100D02*
X0133524Y0167100D01*
X0133524Y0167699D02*
X0111524Y0167699D01*
X0109724Y0167699D02*
X0088698Y0167699D01*
X0089296Y0168297D02*
X0133524Y0168297D01*
X0133524Y0168896D02*
X0089895Y0168896D01*
X0090493Y0169494D02*
X0133524Y0169494D01*
X0133524Y0170093D02*
X0091092Y0170093D01*
X0091628Y0170629D02*
X0092624Y0171625D01*
X0092624Y0175660D01*
X0093024Y0176060D01*
X0093024Y0177799D01*
X0091794Y0179029D01*
X0090054Y0179029D01*
X0088824Y0177799D01*
X0088824Y0176060D01*
X0089224Y0175660D01*
X0089224Y0173034D01*
X0073928Y0157737D01*
X0073911Y0157737D01*
X0073911Y0160347D01*
X0073411Y0160847D01*
X0074324Y0161760D01*
X0074324Y0163499D01*
X0073094Y0164729D01*
X0071354Y0164729D01*
X0070124Y0163499D01*
X0070124Y0161760D01*
X0071009Y0160874D01*
X0064764Y0160874D01*
X0064237Y0160347D01*
X0064237Y0154679D01*
X0063946Y0155114D01*
X0063407Y0155654D01*
X0062772Y0156078D01*
X0062067Y0156370D01*
X0061318Y0156519D01*
X0061236Y0156519D01*
X0061236Y0152944D01*
X0060636Y0152944D01*
X0060636Y0152344D01*
X0057062Y0152344D01*
X0057062Y0152263D01*
X0057211Y0151514D01*
X0057503Y0150809D01*
X0057927Y0150174D01*
X0058466Y0149635D01*
X0059101Y0149211D01*
X0059806Y0148918D01*
X0060555Y0148770D01*
X0060636Y0148770D01*
X0060636Y0152344D01*
X0061236Y0152344D01*
X0061236Y0148770D01*
X0061318Y0148770D01*
X0062067Y0148918D01*
X0062772Y0149211D01*
X0063407Y0149635D01*
X0063946Y0150174D01*
X0064370Y0150809D01*
X0064600Y0151364D01*
X0064764Y0151200D01*
X0073384Y0151200D01*
X0073911Y0151727D01*
X0073911Y0154337D01*
X0075336Y0154337D01*
X0091628Y0170629D01*
X0091690Y0170691D02*
X0133524Y0170691D01*
X0133524Y0171290D02*
X0092289Y0171290D01*
X0092624Y0171888D02*
X0133524Y0171888D01*
X0133524Y0172487D02*
X0092624Y0172487D01*
X0092624Y0173086D02*
X0133524Y0173086D01*
X0133524Y0173684D02*
X0092624Y0173684D01*
X0092624Y0174283D02*
X0133524Y0174283D01*
X0133524Y0174881D02*
X0092624Y0174881D01*
X0092624Y0175480D02*
X0133524Y0175480D01*
X0133524Y0176078D02*
X0093024Y0176078D01*
X0093024Y0176677D02*
X0133524Y0176677D01*
X0133524Y0177275D02*
X0093024Y0177275D01*
X0092950Y0177874D02*
X0133524Y0177874D01*
X0133524Y0178472D02*
X0092351Y0178472D01*
X0089497Y0178472D02*
X0046924Y0178472D01*
X0046924Y0177874D02*
X0088898Y0177874D01*
X0088824Y0177275D02*
X0046924Y0177275D01*
X0046924Y0176677D02*
X0088824Y0176677D01*
X0088824Y0176078D02*
X0046924Y0176078D01*
X0046924Y0175480D02*
X0089224Y0175480D01*
X0089224Y0174881D02*
X0046924Y0174881D01*
X0046924Y0174283D02*
X0089224Y0174283D01*
X0089224Y0173684D02*
X0046924Y0173684D01*
X0046924Y0173086D02*
X0089224Y0173086D01*
X0088677Y0172487D02*
X0046924Y0172487D01*
X0046924Y0171888D02*
X0088079Y0171888D01*
X0087480Y0171290D02*
X0046924Y0171290D01*
X0046924Y0170691D02*
X0086882Y0170691D01*
X0086283Y0170093D02*
X0046924Y0170093D01*
X0046924Y0169494D02*
X0085685Y0169494D01*
X0085086Y0168896D02*
X0046924Y0168896D01*
X0046924Y0168297D02*
X0084488Y0168297D01*
X0083889Y0167699D02*
X0046924Y0167699D01*
X0046924Y0167100D02*
X0083291Y0167100D01*
X0082692Y0166502D02*
X0046924Y0166502D01*
X0046924Y0165903D02*
X0082094Y0165903D01*
X0081495Y0165305D02*
X0046924Y0165305D01*
X0046924Y0164706D02*
X0071331Y0164706D01*
X0070732Y0164108D02*
X0046924Y0164108D01*
X0046924Y0163509D02*
X0070134Y0163509D01*
X0070124Y0162911D02*
X0046924Y0162911D01*
X0046924Y0162312D02*
X0070124Y0162312D01*
X0070170Y0161714D02*
X0046924Y0161714D01*
X0046924Y0161115D02*
X0070768Y0161115D01*
X0073680Y0161115D02*
X0077306Y0161115D01*
X0077904Y0161714D02*
X0074278Y0161714D01*
X0074324Y0162312D02*
X0078503Y0162312D01*
X0079101Y0162911D02*
X0074324Y0162911D01*
X0074314Y0163509D02*
X0079700Y0163509D01*
X0080298Y0164108D02*
X0073715Y0164108D01*
X0073117Y0164706D02*
X0080897Y0164706D01*
X0083311Y0162312D02*
X0086303Y0162312D01*
X0086901Y0162911D02*
X0083909Y0162911D01*
X0084508Y0163509D02*
X0087500Y0163509D01*
X0085705Y0164706D02*
X0107297Y0164706D01*
X0106698Y0164108D02*
X0085106Y0164108D01*
X0086304Y0165305D02*
X0107895Y0165305D01*
X0108494Y0165903D02*
X0086902Y0165903D01*
X0087501Y0166502D02*
X0108527Y0166502D01*
X0109125Y0167100D02*
X0088099Y0167100D01*
X0085704Y0161714D02*
X0082712Y0161714D01*
X0082114Y0161115D02*
X0085106Y0161115D01*
X0084507Y0160517D02*
X0081515Y0160517D01*
X0080917Y0159918D02*
X0083909Y0159918D01*
X0083310Y0159320D02*
X0080318Y0159320D01*
X0079720Y0158721D02*
X0082712Y0158721D01*
X0082113Y0158123D02*
X0079121Y0158123D01*
X0078523Y0157524D02*
X0081515Y0157524D01*
X0080916Y0156926D02*
X0077924Y0156926D01*
X0077326Y0156327D02*
X0080318Y0156327D01*
X0079719Y0155729D02*
X0076727Y0155729D01*
X0076129Y0155130D02*
X0079120Y0155130D01*
X0078522Y0154532D02*
X0075530Y0154532D01*
X0076759Y0153335D02*
X0073911Y0153335D01*
X0073911Y0153933D02*
X0077923Y0153933D01*
X0076161Y0152736D02*
X0073911Y0152736D01*
X0073911Y0152138D02*
X0076124Y0152138D01*
X0076124Y0151539D02*
X0073723Y0151539D01*
X0076143Y0150941D02*
X0064425Y0150941D01*
X0064058Y0150342D02*
X0076741Y0150342D01*
X0077340Y0149744D02*
X0063515Y0149744D01*
X0062614Y0149145D02*
X0133242Y0149145D01*
X0132644Y0148547D02*
X0083277Y0148547D01*
X0080371Y0148547D02*
X0046924Y0148547D01*
X0046924Y0149145D02*
X0059259Y0149145D01*
X0058357Y0149744D02*
X0046924Y0149744D01*
X0046924Y0150342D02*
X0057815Y0150342D01*
X0057448Y0150941D02*
X0046924Y0150941D01*
X0046924Y0151539D02*
X0057206Y0151539D01*
X0057087Y0152138D02*
X0046924Y0152138D01*
X0046924Y0152736D02*
X0060636Y0152736D01*
X0060636Y0152944D02*
X0057062Y0152944D01*
X0057062Y0153026D01*
X0057211Y0153775D01*
X0057503Y0154480D01*
X0057927Y0155114D01*
X0058466Y0155654D01*
X0059101Y0156078D01*
X0059806Y0156370D01*
X0060555Y0156519D01*
X0060636Y0156519D01*
X0060636Y0152944D01*
X0060636Y0153335D02*
X0061236Y0153335D01*
X0061236Y0153933D02*
X0060636Y0153933D01*
X0060636Y0154532D02*
X0061236Y0154532D01*
X0061236Y0155130D02*
X0060636Y0155130D01*
X0060636Y0155729D02*
X0061236Y0155729D01*
X0061236Y0156327D02*
X0060636Y0156327D01*
X0059702Y0156327D02*
X0055329Y0156327D01*
X0055465Y0156926D02*
X0064237Y0156926D01*
X0064237Y0157524D02*
X0050389Y0157524D01*
X0050388Y0156926D02*
X0049988Y0156926D01*
X0049988Y0156327D02*
X0050388Y0156327D01*
X0050388Y0155729D02*
X0049988Y0155729D01*
X0049988Y0155130D02*
X0050388Y0155130D01*
X0050388Y0154532D02*
X0049988Y0154532D01*
X0046924Y0153933D02*
X0057276Y0153933D01*
X0057123Y0153335D02*
X0046924Y0153335D01*
X0049988Y0158123D02*
X0050388Y0158123D01*
X0050388Y0158721D02*
X0049988Y0158721D01*
X0049988Y0159320D02*
X0050388Y0159320D01*
X0050388Y0159918D02*
X0049988Y0159918D01*
X0049988Y0160517D02*
X0050388Y0160517D01*
X0053212Y0160517D02*
X0064407Y0160517D01*
X0064237Y0159918D02*
X0054306Y0159918D01*
X0054854Y0159320D02*
X0064237Y0159320D01*
X0064237Y0158721D02*
X0055200Y0158721D01*
X0055403Y0158123D02*
X0064237Y0158123D01*
X0064237Y0156327D02*
X0062171Y0156327D01*
X0063295Y0155729D02*
X0064237Y0155729D01*
X0064237Y0155130D02*
X0063930Y0155130D01*
X0061236Y0152138D02*
X0060636Y0152138D01*
X0060636Y0151539D02*
X0061236Y0151539D01*
X0061236Y0150941D02*
X0060636Y0150941D01*
X0060636Y0150342D02*
X0061236Y0150342D01*
X0061236Y0149744D02*
X0060636Y0149744D01*
X0060636Y0149145D02*
X0061236Y0149145D01*
X0057537Y0154532D02*
X0053882Y0154532D01*
X0054617Y0155130D02*
X0057943Y0155130D01*
X0058578Y0155729D02*
X0055061Y0155729D01*
X0047165Y0160517D02*
X0046924Y0160517D01*
X0046924Y0147948D02*
X0079773Y0147948D01*
X0079724Y0147350D02*
X0046924Y0147350D01*
X0046924Y0146751D02*
X0079724Y0146751D01*
X0079731Y0146152D02*
X0046924Y0146152D01*
X0046924Y0145554D02*
X0080329Y0145554D01*
X0080928Y0144955D02*
X0046924Y0144955D01*
X0046924Y0125205D02*
X0063837Y0125205D01*
X0063837Y0124606D02*
X0046924Y0124606D01*
X0046924Y0124008D02*
X0063944Y0124008D01*
X0064498Y0123409D02*
X0046924Y0123409D01*
X0046924Y0122811D02*
X0149508Y0122811D01*
X0149654Y0120029D02*
X0149654Y0120029D01*
X0151424Y0118829D02*
X0087224Y0118829D01*
X0087515Y0117424D02*
X0119749Y0117424D01*
X0119521Y0116825D02*
X0087224Y0116825D01*
X0087224Y0116227D02*
X0119521Y0116227D01*
X0119521Y0115628D02*
X0087224Y0115628D01*
X0087224Y0115030D02*
X0119946Y0115030D01*
X0120545Y0114431D02*
X0087224Y0114431D01*
X0076124Y0115628D02*
X0046924Y0115628D01*
X0046924Y0115030D02*
X0075955Y0115030D01*
X0075356Y0114431D02*
X0046924Y0114431D01*
X0046924Y0113833D02*
X0075224Y0113833D01*
X0075224Y0113234D02*
X0046924Y0113234D01*
X0046924Y0112636D02*
X0075224Y0112636D01*
X0075746Y0112037D02*
X0046924Y0112037D01*
X0046924Y0111439D02*
X0076345Y0111439D01*
X0076124Y0116227D02*
X0046924Y0116227D01*
X0046924Y0116825D02*
X0076124Y0116825D01*
X0076124Y0117424D02*
X0046924Y0117424D01*
X0046924Y0118022D02*
X0076124Y0118022D01*
X0076124Y0118621D02*
X0046924Y0118621D01*
X0046924Y0119219D02*
X0076124Y0119219D01*
X0076124Y0119818D02*
X0046924Y0119818D01*
X0046924Y0120417D02*
X0076314Y0120417D01*
X0076912Y0121015D02*
X0046924Y0121015D01*
X0046924Y0121614D02*
X0077511Y0121614D01*
X0078109Y0122212D02*
X0046924Y0122212D01*
X0068774Y0123409D02*
X0069374Y0123409D01*
X0069374Y0124008D02*
X0068774Y0124008D01*
X0068774Y0124606D02*
X0069374Y0124606D01*
X0069374Y0125205D02*
X0068774Y0125205D01*
X0068774Y0125803D02*
X0069374Y0125803D01*
X0069374Y0126402D02*
X0068774Y0126402D01*
X0068774Y0127000D02*
X0069374Y0127000D01*
X0046924Y0101264D02*
X0159762Y0101264D01*
X0159163Y0100666D02*
X0120957Y0100666D01*
X0118290Y0100666D02*
X0046924Y0100666D01*
X0046924Y0100067D02*
X0117692Y0100067D01*
X0117524Y0099469D02*
X0046924Y0099469D01*
X0052042Y0091089D02*
X0066094Y0091089D01*
X0067524Y0092629D02*
X0087124Y0092629D01*
X0088524Y0091229D01*
X0193424Y0091229D01*
X0194624Y0092429D01*
X0194624Y0109829D01*
X0193037Y0108446D02*
X0167024Y0108446D01*
X0167024Y0107848D02*
X0193424Y0107848D01*
X0193424Y0107249D02*
X0167024Y0107249D01*
X0167024Y0106651D02*
X0193424Y0106651D01*
X0193424Y0106052D02*
X0167024Y0106052D01*
X0167024Y0105454D02*
X0193424Y0105454D01*
X0193424Y0104855D02*
X0167024Y0104855D01*
X0167024Y0104257D02*
X0193424Y0104257D01*
X0193424Y0103658D02*
X0167024Y0103658D01*
X0167024Y0103060D02*
X0193424Y0103060D01*
X0193424Y0102461D02*
X0167024Y0102461D01*
X0167024Y0101863D02*
X0193424Y0101863D01*
X0193424Y0101264D02*
X0179809Y0101264D01*
X0179577Y0101496D02*
X0177837Y0101496D01*
X0176607Y0100266D01*
X0176607Y0098526D01*
X0177837Y0097296D01*
X0179577Y0097296D01*
X0180807Y0098526D01*
X0180807Y0100266D01*
X0179577Y0101496D01*
X0180408Y0100666D02*
X0193424Y0100666D01*
X0193424Y0100067D02*
X0180807Y0100067D01*
X0180807Y0099469D02*
X0193424Y0099469D01*
X0193424Y0098870D02*
X0180807Y0098870D01*
X0180552Y0098272D02*
X0193424Y0098272D01*
X0193424Y0097673D02*
X0179954Y0097673D01*
X0177461Y0097673D02*
X0167024Y0097673D01*
X0167024Y0097075D02*
X0193424Y0097075D01*
X0193424Y0096476D02*
X0167024Y0096476D01*
X0167024Y0095878D02*
X0193424Y0095878D01*
X0193424Y0095279D02*
X0167024Y0095279D01*
X0166972Y0094681D02*
X0193424Y0094681D01*
X0193424Y0094082D02*
X0166374Y0094082D01*
X0165775Y0093484D02*
X0193424Y0093484D01*
X0193382Y0092885D02*
X0165177Y0092885D01*
X0167024Y0098272D02*
X0176862Y0098272D01*
X0176607Y0098870D02*
X0167024Y0098870D01*
X0167024Y0099469D02*
X0176607Y0099469D01*
X0176607Y0100067D02*
X0167024Y0100067D01*
X0167024Y0100666D02*
X0177007Y0100666D01*
X0177605Y0101264D02*
X0167024Y0101264D01*
X0159824Y0107848D02*
X0141703Y0107848D01*
X0142225Y0108446D02*
X0159824Y0108446D01*
X0159824Y0109045D02*
X0142225Y0109045D01*
X0142225Y0109643D02*
X0159824Y0109643D01*
X0159824Y0110242D02*
X0142092Y0110242D01*
X0141493Y0110840D02*
X0159824Y0110840D01*
X0167024Y0110840D02*
X0192665Y0110840D01*
X0192524Y0110242D02*
X0167024Y0110242D01*
X0167024Y0109643D02*
X0192524Y0109643D01*
X0192524Y0109045D02*
X0167024Y0109045D01*
X0167024Y0111439D02*
X0193263Y0111439D01*
X0195824Y0100666D02*
X0204690Y0100666D01*
X0204092Y0100067D02*
X0195824Y0100067D01*
X0195824Y0099469D02*
X0203924Y0099469D01*
X0203924Y0098870D02*
X0195824Y0098870D01*
X0195824Y0098272D02*
X0203924Y0098272D01*
X0204410Y0097673D02*
X0195824Y0097673D01*
X0195824Y0097075D02*
X0205009Y0097075D01*
X0207039Y0097075D02*
X0353010Y0097075D01*
X0353010Y0097673D02*
X0207637Y0097673D01*
X0208124Y0098272D02*
X0353010Y0098272D01*
X0353010Y0098870D02*
X0208124Y0098870D01*
X0208124Y0099469D02*
X0353010Y0099469D01*
X0353010Y0096476D02*
X0195824Y0096476D01*
X0195824Y0095878D02*
X0353010Y0095878D01*
X0353010Y0095279D02*
X0195824Y0095279D01*
X0195824Y0094681D02*
X0353010Y0094681D01*
X0353010Y0094082D02*
X0195824Y0094082D01*
X0195824Y0093484D02*
X0353010Y0093484D01*
X0353010Y0092885D02*
X0195824Y0092885D01*
X0195824Y0092286D02*
X0353010Y0092286D01*
X0353010Y0091688D02*
X0195580Y0091688D01*
X0194981Y0091089D02*
X0353010Y0091089D01*
X0353010Y0090491D02*
X0194382Y0090491D01*
X0150458Y0116825D02*
X0123721Y0116825D01*
X0123492Y0117424D02*
X0149859Y0117424D01*
X0076314Y0091089D02*
X0068954Y0091089D01*
X0075524Y0089892D02*
X0052042Y0089892D01*
X0052042Y0090491D02*
X0075716Y0090491D01*
X0075524Y0089294D02*
X0051573Y0089294D01*
X0076073Y0073134D02*
X0331736Y0073134D01*
X0330562Y0073733D02*
X0077246Y0073733D01*
X0077844Y0074331D02*
X0329964Y0074331D01*
X0329365Y0074930D02*
X0078443Y0074930D01*
X0078770Y0075528D02*
X0329038Y0075528D01*
X0328790Y0076127D02*
X0244891Y0076127D01*
X0245490Y0076725D02*
X0328542Y0076725D01*
X0328404Y0077324D02*
X0245924Y0077324D01*
X0245924Y0077922D02*
X0328404Y0077922D01*
X0328404Y0078521D02*
X0245924Y0078521D01*
X0245704Y0079119D02*
X0328404Y0079119D01*
X0328613Y0079718D02*
X0245105Y0079718D01*
X0242757Y0076127D02*
X0079018Y0076127D01*
X0072784Y0067149D02*
X0327150Y0067149D01*
X0326113Y0066550D02*
X0073821Y0066550D01*
X0074858Y0065952D02*
X0325077Y0065952D01*
X0325058Y0065941D02*
X0322399Y0063282D01*
X0320519Y0060026D01*
X0319546Y0056394D01*
X0319546Y0052634D01*
X0320519Y0049003D01*
X0322399Y0045747D01*
X0325058Y0043088D01*
X0328314Y0041208D01*
X0331946Y0040235D01*
X0335705Y0040235D01*
X0339337Y0041208D01*
X0342593Y0043088D01*
X0345252Y0045747D01*
X0347132Y0049003D01*
X0348105Y0052634D01*
X0348105Y0056394D01*
X0347132Y0060026D01*
X0345252Y0063282D01*
X0342593Y0065941D01*
X0339337Y0067821D01*
X0335705Y0068794D01*
X0331946Y0068794D01*
X0328314Y0067821D01*
X0325058Y0065941D01*
X0324470Y0065353D02*
X0075464Y0065353D01*
X0076063Y0064755D02*
X0323872Y0064755D01*
X0323273Y0064156D02*
X0076661Y0064156D01*
X0077260Y0063558D02*
X0322675Y0063558D01*
X0322213Y0062959D02*
X0077722Y0062959D01*
X0078067Y0062361D02*
X0321867Y0062361D01*
X0321522Y0061762D02*
X0078413Y0061762D01*
X0078758Y0061164D02*
X0321176Y0061164D01*
X0320830Y0060565D02*
X0079104Y0060565D01*
X0079431Y0059967D02*
X0320503Y0059967D01*
X0320343Y0059368D02*
X0079592Y0059368D01*
X0079752Y0058770D02*
X0320182Y0058770D01*
X0320022Y0058171D02*
X0079912Y0058171D01*
X0080073Y0057573D02*
X0319862Y0057573D01*
X0319701Y0056974D02*
X0080233Y0056974D01*
X0080388Y0056376D02*
X0319546Y0056376D01*
X0319546Y0055777D02*
X0080388Y0055777D01*
X0080388Y0055179D02*
X0319546Y0055179D01*
X0319546Y0054580D02*
X0080388Y0054580D01*
X0080388Y0053982D02*
X0319546Y0053982D01*
X0319546Y0053383D02*
X0080388Y0053383D01*
X0080388Y0052785D02*
X0319546Y0052785D01*
X0319666Y0052186D02*
X0080268Y0052186D01*
X0080108Y0051588D02*
X0319826Y0051588D01*
X0319987Y0050989D02*
X0079948Y0050989D01*
X0079787Y0050391D02*
X0320147Y0050391D01*
X0320308Y0049792D02*
X0079627Y0049792D01*
X0079466Y0049194D02*
X0320468Y0049194D01*
X0320754Y0048595D02*
X0079180Y0048595D01*
X0078834Y0047997D02*
X0321100Y0047997D01*
X0321445Y0047398D02*
X0078489Y0047398D01*
X0078143Y0046800D02*
X0321791Y0046800D01*
X0322137Y0046201D02*
X0077798Y0046201D01*
X0077391Y0045603D02*
X0322543Y0045603D01*
X0323141Y0045004D02*
X0076793Y0045004D01*
X0076194Y0044406D02*
X0323740Y0044406D01*
X0324339Y0043807D02*
X0075596Y0043807D01*
X0074997Y0043209D02*
X0324937Y0043209D01*
X0325885Y0042610D02*
X0074049Y0042610D01*
X0073012Y0042012D02*
X0326922Y0042012D01*
X0327959Y0041413D02*
X0071976Y0041413D01*
X0070152Y0040815D02*
X0329782Y0040815D01*
X0335329Y0035428D02*
X0064606Y0035428D01*
X0061616Y0036026D02*
X0338318Y0036026D01*
X0340552Y0036625D02*
X0059382Y0036625D01*
X0058016Y0037223D02*
X0341918Y0037223D01*
X0342955Y0037822D02*
X0056979Y0037822D01*
X0055943Y0038420D02*
X0343992Y0038420D01*
X0345028Y0039019D02*
X0054906Y0039019D01*
X0054106Y0039617D02*
X0345828Y0039617D01*
X0346427Y0040216D02*
X0053508Y0040216D01*
X0052909Y0040815D02*
X0062066Y0040815D01*
X0060242Y0041413D02*
X0052311Y0041413D01*
X0051712Y0042012D02*
X0059206Y0042012D01*
X0069661Y0068346D02*
X0330274Y0068346D01*
X0328187Y0067748D02*
X0071748Y0067748D01*
X0073911Y0158123D02*
X0074313Y0158123D01*
X0073911Y0158721D02*
X0074912Y0158721D01*
X0075510Y0159320D02*
X0073911Y0159320D01*
X0073911Y0159918D02*
X0076109Y0159918D01*
X0076707Y0160517D02*
X0073742Y0160517D01*
X0046924Y0179071D02*
X0133524Y0179071D01*
X0133014Y0179669D02*
X0046924Y0179669D01*
X0046924Y0180268D02*
X0132624Y0180268D01*
X0132624Y0180866D02*
X0046924Y0180866D01*
X0046924Y0181465D02*
X0132624Y0181465D01*
X0132888Y0182063D02*
X0046924Y0182063D01*
X0046924Y0182662D02*
X0133486Y0182662D01*
X0136824Y0181465D02*
X0227024Y0181465D01*
X0227024Y0182063D02*
X0160628Y0182063D01*
X0233789Y0190442D02*
X0234824Y0190442D01*
X0234824Y0189844D02*
X0234387Y0189844D01*
X0288429Y0241316D02*
X0292949Y0241316D01*
X0293192Y0241914D02*
X0288278Y0241914D01*
X0288020Y0242513D02*
X0293440Y0242513D01*
X0293984Y0243111D02*
X0287619Y0243111D01*
X0286989Y0243710D02*
X0294762Y0243710D01*
X0298086Y0243710D02*
X0326103Y0243710D01*
X0337377Y0068346D02*
X0353010Y0068346D01*
X0353010Y0067748D02*
X0339464Y0067748D01*
X0340501Y0067149D02*
X0353010Y0067149D01*
X0353010Y0066550D02*
X0341537Y0066550D01*
X0342574Y0065952D02*
X0353010Y0065952D01*
X0353010Y0065353D02*
X0343181Y0065353D01*
X0343779Y0064755D02*
X0353010Y0064755D01*
X0353010Y0064156D02*
X0344378Y0064156D01*
X0344976Y0063558D02*
X0353010Y0063558D01*
X0353010Y0062959D02*
X0345438Y0062959D01*
X0345784Y0062361D02*
X0353010Y0062361D01*
X0353010Y0061762D02*
X0346129Y0061762D01*
X0346475Y0061164D02*
X0353010Y0061164D01*
X0353010Y0060565D02*
X0346821Y0060565D01*
X0347148Y0059967D02*
X0353010Y0059967D01*
X0353010Y0059368D02*
X0347308Y0059368D01*
X0347468Y0058770D02*
X0353010Y0058770D01*
X0353010Y0058171D02*
X0347629Y0058171D01*
X0347789Y0057573D02*
X0353010Y0057573D01*
X0353010Y0056974D02*
X0347950Y0056974D01*
X0348105Y0056376D02*
X0353010Y0056376D01*
X0353010Y0055777D02*
X0348105Y0055777D01*
X0348105Y0055179D02*
X0353010Y0055179D01*
X0353010Y0054580D02*
X0348105Y0054580D01*
X0348105Y0053982D02*
X0352976Y0053982D01*
X0352936Y0053383D02*
X0348105Y0053383D01*
X0348105Y0052785D02*
X0352897Y0052785D01*
X0352858Y0052186D02*
X0347985Y0052186D01*
X0347824Y0051588D02*
X0352733Y0051588D01*
X0352573Y0050989D02*
X0347664Y0050989D01*
X0347504Y0050391D02*
X0352412Y0050391D01*
X0352252Y0049792D02*
X0347343Y0049792D01*
X0347183Y0049194D02*
X0352092Y0049194D01*
X0351931Y0048595D02*
X0346897Y0048595D01*
X0346551Y0047997D02*
X0351771Y0047997D01*
X0351611Y0047398D02*
X0346205Y0047398D01*
X0345860Y0046800D02*
X0351335Y0046800D01*
X0350989Y0046201D02*
X0345514Y0046201D01*
X0345108Y0045603D02*
X0350644Y0045603D01*
X0350298Y0045004D02*
X0344509Y0045004D01*
X0343911Y0044406D02*
X0349953Y0044406D01*
X0349607Y0043807D02*
X0343312Y0043807D01*
X0342714Y0043209D02*
X0349261Y0043209D01*
X0348821Y0042610D02*
X0341765Y0042610D01*
X0340729Y0042012D02*
X0348222Y0042012D01*
X0347624Y0041413D02*
X0339692Y0041413D01*
X0337868Y0040815D02*
X0347025Y0040815D01*
M02*
