G75*
%MOIN*%
%OFA0B0*%
%FSLAX25Y25*%
%IPPOS*%
%LPD*%
%AMOC8*
5,1,8,0,0,1.08239X$1,22.5*
%
%ADD10C,0.05500*%
%ADD11C,0.05150*%
%ADD12C,0.04000*%
%ADD13C,0.08858*%
%ADD14C,0.02400*%
%ADD15C,0.00600*%
D10*
X0199810Y0219081D03*
X0209810Y0219081D03*
X0219810Y0219081D03*
X0236778Y0219081D03*
X0246778Y0219081D03*
X0256778Y0219081D03*
X0266778Y0219081D03*
X0276778Y0219081D03*
X0286778Y0219081D03*
D11*
X0306266Y0233935D03*
X0300361Y0241022D03*
X0312172Y0241022D03*
X0106626Y0234318D03*
X0087532Y0234318D03*
D12*
X0082807Y0245066D03*
X0111351Y0245066D03*
D13*
X0124707Y0213963D03*
X0143211Y0213963D03*
X0161715Y0213963D03*
D14*
X0151424Y0205829D03*
X0173589Y0205302D03*
X0176739Y0198609D03*
X0190912Y0198609D03*
X0198392Y0201759D03*
X0185624Y0213629D03*
X0178424Y0228029D03*
X0192224Y0240629D03*
X0232625Y0188636D03*
X0239318Y0180762D03*
X0234219Y0164751D03*
X0240912Y0161207D03*
X0234424Y0145829D03*
X0241306Y0141522D03*
X0241306Y0133648D03*
X0234424Y0118829D03*
X0241306Y0115538D03*
X0244124Y0112029D03*
X0240724Y0104629D03*
X0261224Y0107429D03*
X0261224Y0113429D03*
X0300324Y0087029D03*
X0279824Y0082229D03*
X0243824Y0078029D03*
X0221024Y0087629D03*
X0216824Y0087629D03*
X0212424Y0087829D03*
X0208424Y0087629D03*
X0204824Y0087629D03*
X0206024Y0099029D03*
X0206424Y0109829D03*
X0214424Y0111029D03*
X0218865Y0113963D03*
X0194624Y0109829D03*
X0178707Y0099396D03*
X0172408Y0094672D03*
X0176739Y0110026D03*
X0165824Y0116429D03*
X0161024Y0121229D03*
X0158024Y0123629D03*
X0151424Y0118829D03*
X0140125Y0109239D03*
X0125164Y0108451D03*
X0121621Y0116325D03*
X0121424Y0123829D03*
X0125164Y0134436D03*
X0128424Y0140829D03*
X0124424Y0153829D03*
X0127920Y0160420D03*
X0145243Y0159239D03*
X0145243Y0139554D03*
X0101624Y0142829D03*
X0086424Y0131629D03*
X0065624Y0117029D03*
X0077324Y0113429D03*
X0085824Y0103929D03*
X0098624Y0103829D03*
X0098424Y0108829D03*
X0119624Y0099029D03*
X0118824Y0093929D03*
X0126224Y0079829D03*
X0147824Y0079829D03*
X0180324Y0074429D03*
X0184724Y0068629D03*
X0212024Y0078629D03*
X0218865Y0139554D03*
X0218471Y0159239D03*
X0207224Y0175829D03*
X0198824Y0178829D03*
X0196424Y0182829D03*
X0175164Y0182861D03*
X0153224Y0180029D03*
X0149424Y0183829D03*
X0144455Y0188373D03*
X0140024Y0184829D03*
X0102824Y0192029D03*
X0089024Y0187829D03*
X0083024Y0183029D03*
X0090824Y0178229D03*
X0090624Y0166629D03*
X0072224Y0162629D03*
X0071424Y0172529D03*
X0094724Y0211229D03*
X0099224Y0211229D03*
X0077624Y0089429D03*
X0098824Y0085529D03*
X0321524Y0095529D03*
D15*
X0056327Y0038947D02*
X0053109Y0041514D01*
X0050542Y0044733D01*
X0048756Y0048442D01*
X0047839Y0052456D01*
X0047724Y0054514D01*
X0047724Y0231680D01*
X0047839Y0233738D01*
X0048756Y0237752D01*
X0050542Y0241461D01*
X0053109Y0244680D01*
X0056327Y0247247D01*
X0060037Y0249033D01*
X0064050Y0249949D01*
X0066109Y0250065D01*
X0333825Y0250065D01*
X0335884Y0249949D01*
X0339898Y0249033D01*
X0343607Y0247247D01*
X0346826Y0244680D01*
X0349393Y0241461D01*
X0351179Y0237752D01*
X0352095Y0233738D01*
X0352210Y0231680D01*
X0352210Y0208229D01*
X0340047Y0208229D01*
X0340047Y0209295D01*
X0339100Y0211582D01*
X0337350Y0213332D01*
X0335063Y0214279D01*
X0332588Y0214279D01*
X0330301Y0213332D01*
X0328551Y0211582D01*
X0327604Y0209295D01*
X0327604Y0208229D01*
X0264824Y0208229D01*
X0264824Y0099629D01*
X0352210Y0099629D01*
X0352210Y0054514D01*
X0352095Y0052456D01*
X0351179Y0048442D01*
X0349393Y0044733D01*
X0346826Y0041514D01*
X0343607Y0038947D01*
X0339898Y0037161D01*
X0335884Y0036245D01*
X0333825Y0036129D01*
X0066109Y0036129D01*
X0064050Y0036245D01*
X0060037Y0037161D01*
X0056327Y0038947D01*
X0056238Y0039019D02*
X0343697Y0039019D01*
X0344447Y0039617D02*
X0336492Y0039617D01*
X0335811Y0039435D02*
X0339646Y0040463D01*
X0343084Y0042448D01*
X0345892Y0045255D01*
X0347877Y0048694D01*
X0348905Y0052529D01*
X0348905Y0056500D01*
X0347877Y0060335D01*
X0345892Y0063773D01*
X0343084Y0066581D01*
X0339646Y0068566D01*
X0335811Y0069594D01*
X0331840Y0069594D01*
X0328005Y0068566D01*
X0324566Y0066581D01*
X0321759Y0063773D01*
X0319774Y0060335D01*
X0318746Y0056500D01*
X0318746Y0052529D01*
X0319774Y0048694D01*
X0321759Y0045255D01*
X0324566Y0042448D01*
X0328005Y0040463D01*
X0331840Y0039435D01*
X0335811Y0039435D01*
X0338726Y0040216D02*
X0345198Y0040216D01*
X0345948Y0040815D02*
X0340256Y0040815D01*
X0341292Y0041413D02*
X0346699Y0041413D01*
X0347222Y0042012D02*
X0342329Y0042012D01*
X0343247Y0042610D02*
X0347700Y0042610D01*
X0348177Y0043209D02*
X0343845Y0043209D01*
X0344444Y0043807D02*
X0348654Y0043807D01*
X0349131Y0044406D02*
X0345042Y0044406D01*
X0345641Y0045004D02*
X0349523Y0045004D01*
X0349811Y0045603D02*
X0346093Y0045603D01*
X0346438Y0046201D02*
X0350100Y0046201D01*
X0350388Y0046800D02*
X0346784Y0046800D01*
X0347129Y0047398D02*
X0350676Y0047398D01*
X0350964Y0047997D02*
X0347475Y0047997D01*
X0347820Y0048595D02*
X0351214Y0048595D01*
X0351350Y0049194D02*
X0348011Y0049194D01*
X0348172Y0049792D02*
X0351487Y0049792D01*
X0351624Y0050391D02*
X0348332Y0050391D01*
X0348492Y0050989D02*
X0351760Y0050989D01*
X0351897Y0051588D02*
X0348653Y0051588D01*
X0348813Y0052186D02*
X0352033Y0052186D01*
X0352113Y0052785D02*
X0348905Y0052785D01*
X0348905Y0053383D02*
X0352147Y0053383D01*
X0352181Y0053982D02*
X0348905Y0053982D01*
X0348905Y0054580D02*
X0352210Y0054580D01*
X0352210Y0055179D02*
X0348905Y0055179D01*
X0348905Y0055777D02*
X0352210Y0055777D01*
X0352210Y0056376D02*
X0348905Y0056376D01*
X0348778Y0056974D02*
X0352210Y0056974D01*
X0352210Y0057573D02*
X0348617Y0057573D01*
X0348457Y0058171D02*
X0352210Y0058171D01*
X0352210Y0058770D02*
X0348297Y0058770D01*
X0348136Y0059368D02*
X0352210Y0059368D01*
X0352210Y0059967D02*
X0347976Y0059967D01*
X0347744Y0060565D02*
X0352210Y0060565D01*
X0352210Y0061164D02*
X0347399Y0061164D01*
X0347053Y0061762D02*
X0352210Y0061762D01*
X0352210Y0062361D02*
X0346708Y0062361D01*
X0346362Y0062959D02*
X0352210Y0062959D01*
X0352210Y0063558D02*
X0346017Y0063558D01*
X0345509Y0064156D02*
X0352210Y0064156D01*
X0352210Y0064755D02*
X0344911Y0064755D01*
X0344312Y0065353D02*
X0352210Y0065353D01*
X0352210Y0065952D02*
X0343714Y0065952D01*
X0343115Y0066550D02*
X0352210Y0066550D01*
X0352210Y0067149D02*
X0342101Y0067149D01*
X0341064Y0067748D02*
X0352210Y0067748D01*
X0352210Y0068346D02*
X0340027Y0068346D01*
X0338234Y0068945D02*
X0352210Y0068945D01*
X0352210Y0069543D02*
X0336001Y0069543D01*
X0335063Y0071915D02*
X0332588Y0071915D01*
X0330301Y0072862D01*
X0328551Y0074612D01*
X0327604Y0076899D01*
X0327604Y0079374D01*
X0328551Y0081661D01*
X0330301Y0083411D01*
X0332588Y0084358D01*
X0335063Y0084358D01*
X0337350Y0083411D01*
X0339100Y0081661D01*
X0340047Y0079374D01*
X0340047Y0076899D01*
X0339100Y0074612D01*
X0337350Y0072862D01*
X0335063Y0071915D01*
X0335116Y0071937D02*
X0352210Y0071937D01*
X0352210Y0071339D02*
X0047724Y0071339D01*
X0047724Y0071937D02*
X0072693Y0071937D01*
X0072745Y0071915D02*
X0075220Y0071915D01*
X0077507Y0072862D01*
X0079257Y0074612D01*
X0080204Y0076899D01*
X0080204Y0079374D01*
X0079257Y0081661D01*
X0077507Y0083411D01*
X0075220Y0084358D01*
X0072745Y0084358D01*
X0070459Y0083411D01*
X0068709Y0081661D01*
X0067762Y0079374D01*
X0067762Y0076899D01*
X0068709Y0074612D01*
X0070459Y0072862D01*
X0072745Y0071915D01*
X0071248Y0072536D02*
X0047724Y0072536D01*
X0047724Y0073134D02*
X0070187Y0073134D01*
X0069589Y0073733D02*
X0047724Y0073733D01*
X0047724Y0074331D02*
X0068990Y0074331D01*
X0068577Y0074930D02*
X0047724Y0074930D01*
X0047724Y0075528D02*
X0068329Y0075528D01*
X0068082Y0076127D02*
X0047724Y0076127D01*
X0047724Y0076725D02*
X0067834Y0076725D01*
X0067762Y0077324D02*
X0047724Y0077324D01*
X0047724Y0077922D02*
X0067762Y0077922D01*
X0067762Y0078521D02*
X0047724Y0078521D01*
X0047724Y0079119D02*
X0067762Y0079119D01*
X0067904Y0079718D02*
X0047724Y0079718D01*
X0047724Y0080316D02*
X0068152Y0080316D01*
X0068400Y0080915D02*
X0047724Y0080915D01*
X0047724Y0081513D02*
X0068648Y0081513D01*
X0069160Y0082112D02*
X0047724Y0082112D01*
X0047724Y0082710D02*
X0069759Y0082710D01*
X0070357Y0083309D02*
X0047724Y0083309D01*
X0047724Y0083907D02*
X0071658Y0083907D01*
X0076308Y0083907D02*
X0278532Y0083907D01*
X0278954Y0084329D02*
X0277724Y0083099D01*
X0277724Y0081360D01*
X0278954Y0080129D01*
X0280694Y0080129D01*
X0281924Y0081360D01*
X0281924Y0083099D01*
X0280694Y0084329D01*
X0278954Y0084329D01*
X0277933Y0083309D02*
X0077609Y0083309D01*
X0078207Y0082710D02*
X0277724Y0082710D01*
X0277724Y0082112D02*
X0078806Y0082112D01*
X0079318Y0081513D02*
X0124938Y0081513D01*
X0125354Y0081929D02*
X0124124Y0080699D01*
X0124124Y0078960D01*
X0125354Y0077729D01*
X0127094Y0077729D01*
X0128324Y0078960D01*
X0128324Y0080699D01*
X0127094Y0081929D01*
X0125354Y0081929D01*
X0124339Y0080915D02*
X0079566Y0080915D01*
X0079814Y0080316D02*
X0124124Y0080316D01*
X0124124Y0079718D02*
X0080062Y0079718D01*
X0080204Y0079119D02*
X0124124Y0079119D01*
X0124563Y0078521D02*
X0080204Y0078521D01*
X0080204Y0077922D02*
X0125161Y0077922D01*
X0127287Y0077922D02*
X0146761Y0077922D01*
X0146954Y0077729D02*
X0148694Y0077729D01*
X0149924Y0078960D01*
X0149924Y0080699D01*
X0148694Y0081929D01*
X0146954Y0081929D01*
X0145724Y0080699D01*
X0145724Y0078960D01*
X0146954Y0077729D01*
X0146163Y0078521D02*
X0127885Y0078521D01*
X0128324Y0079119D02*
X0145724Y0079119D01*
X0145724Y0079718D02*
X0128324Y0079718D01*
X0128324Y0080316D02*
X0145724Y0080316D01*
X0145939Y0080915D02*
X0128108Y0080915D01*
X0127510Y0081513D02*
X0146538Y0081513D01*
X0149110Y0081513D02*
X0277724Y0081513D01*
X0278169Y0080915D02*
X0149708Y0080915D01*
X0149924Y0080316D02*
X0210741Y0080316D01*
X0211154Y0080729D02*
X0209924Y0079499D01*
X0209924Y0077760D01*
X0211154Y0076529D01*
X0212894Y0076529D01*
X0214124Y0077760D01*
X0214124Y0079499D01*
X0212894Y0080729D01*
X0211154Y0080729D01*
X0210142Y0079718D02*
X0149924Y0079718D01*
X0149924Y0079119D02*
X0209924Y0079119D01*
X0209924Y0078521D02*
X0149485Y0078521D01*
X0148887Y0077922D02*
X0209924Y0077922D01*
X0210360Y0077324D02*
X0080204Y0077324D01*
X0080132Y0076725D02*
X0210958Y0076725D01*
X0213090Y0076725D02*
X0242158Y0076725D01*
X0241724Y0077160D02*
X0242954Y0075929D01*
X0244694Y0075929D01*
X0245924Y0077160D01*
X0245924Y0078899D01*
X0244694Y0080129D01*
X0242954Y0080129D01*
X0241724Y0078899D01*
X0241724Y0077160D01*
X0241724Y0077324D02*
X0213688Y0077324D01*
X0214124Y0077922D02*
X0241724Y0077922D01*
X0241724Y0078521D02*
X0214124Y0078521D01*
X0214124Y0079119D02*
X0241944Y0079119D01*
X0242542Y0079718D02*
X0213905Y0079718D01*
X0213307Y0080316D02*
X0278767Y0080316D01*
X0280881Y0080316D02*
X0327995Y0080316D01*
X0327747Y0079718D02*
X0245105Y0079718D01*
X0245704Y0079119D02*
X0327604Y0079119D01*
X0327604Y0078521D02*
X0245924Y0078521D01*
X0245924Y0077922D02*
X0327604Y0077922D01*
X0327604Y0077324D02*
X0245924Y0077324D01*
X0245490Y0076725D02*
X0327676Y0076725D01*
X0327924Y0076127D02*
X0244891Y0076127D01*
X0242757Y0076127D02*
X0079884Y0076127D01*
X0079636Y0075528D02*
X0328172Y0075528D01*
X0328420Y0074930D02*
X0079388Y0074930D01*
X0078976Y0074331D02*
X0328833Y0074331D01*
X0329431Y0073733D02*
X0078377Y0073733D01*
X0077779Y0073134D02*
X0330030Y0073134D01*
X0331090Y0072536D02*
X0076718Y0072536D01*
X0075273Y0071937D02*
X0332535Y0071937D01*
X0331650Y0069543D02*
X0068284Y0069543D01*
X0068094Y0069594D02*
X0064124Y0069594D01*
X0060288Y0068566D01*
X0056850Y0066581D01*
X0054042Y0063773D01*
X0052057Y0060335D01*
X0051029Y0056500D01*
X0051029Y0052529D01*
X0052057Y0048694D01*
X0054042Y0045255D01*
X0056850Y0042448D01*
X0060288Y0040463D01*
X0064124Y0039435D01*
X0068094Y0039435D01*
X0071929Y0040463D01*
X0075368Y0042448D01*
X0078176Y0045255D01*
X0080161Y0048694D01*
X0081188Y0052529D01*
X0081188Y0056500D01*
X0080161Y0060335D01*
X0078176Y0063773D01*
X0075368Y0066581D01*
X0071929Y0068566D01*
X0068094Y0069594D01*
X0070518Y0068945D02*
X0329417Y0068945D01*
X0327623Y0068346D02*
X0072311Y0068346D01*
X0073348Y0067748D02*
X0326587Y0067748D01*
X0325550Y0067149D02*
X0074384Y0067149D01*
X0075399Y0066550D02*
X0324536Y0066550D01*
X0323937Y0065952D02*
X0075997Y0065952D01*
X0076596Y0065353D02*
X0323339Y0065353D01*
X0322740Y0064755D02*
X0077194Y0064755D01*
X0077793Y0064156D02*
X0322142Y0064156D01*
X0321634Y0063558D02*
X0078300Y0063558D01*
X0078646Y0062959D02*
X0321289Y0062959D01*
X0320943Y0062361D02*
X0078991Y0062361D01*
X0079337Y0061762D02*
X0320598Y0061762D01*
X0320252Y0061164D02*
X0079682Y0061164D01*
X0080028Y0060565D02*
X0319907Y0060565D01*
X0319675Y0059967D02*
X0080259Y0059967D01*
X0080420Y0059368D02*
X0319515Y0059368D01*
X0319354Y0058770D02*
X0080580Y0058770D01*
X0080741Y0058171D02*
X0319194Y0058171D01*
X0319033Y0057573D02*
X0080901Y0057573D01*
X0081061Y0056974D02*
X0318873Y0056974D01*
X0318746Y0056376D02*
X0081188Y0056376D01*
X0081188Y0055777D02*
X0318746Y0055777D01*
X0318746Y0055179D02*
X0081188Y0055179D01*
X0081188Y0054580D02*
X0318746Y0054580D01*
X0318746Y0053982D02*
X0081188Y0053982D01*
X0081188Y0053383D02*
X0318746Y0053383D01*
X0318746Y0052785D02*
X0081188Y0052785D01*
X0081097Y0052186D02*
X0318838Y0052186D01*
X0318998Y0051588D02*
X0080936Y0051588D01*
X0080776Y0050989D02*
X0319159Y0050989D01*
X0319319Y0050391D02*
X0080615Y0050391D01*
X0080455Y0049792D02*
X0319479Y0049792D01*
X0319640Y0049194D02*
X0080295Y0049194D01*
X0080104Y0048595D02*
X0319831Y0048595D01*
X0320176Y0047997D02*
X0079758Y0047997D01*
X0079413Y0047398D02*
X0320522Y0047398D01*
X0320867Y0046800D02*
X0079067Y0046800D01*
X0078722Y0046201D02*
X0321213Y0046201D01*
X0321558Y0045603D02*
X0078376Y0045603D01*
X0077924Y0045004D02*
X0322010Y0045004D01*
X0322609Y0044406D02*
X0077326Y0044406D01*
X0076727Y0043807D02*
X0323207Y0043807D01*
X0323806Y0043209D02*
X0076129Y0043209D01*
X0075530Y0042610D02*
X0324404Y0042610D01*
X0325322Y0042012D02*
X0074612Y0042012D01*
X0073576Y0041413D02*
X0326359Y0041413D01*
X0327395Y0040815D02*
X0072539Y0040815D01*
X0071009Y0040216D02*
X0328925Y0040216D01*
X0331159Y0039617D02*
X0068776Y0039617D01*
X0063442Y0039617D02*
X0055487Y0039617D01*
X0054737Y0040216D02*
X0061209Y0040216D01*
X0059679Y0040815D02*
X0053986Y0040815D01*
X0053236Y0041413D02*
X0058642Y0041413D01*
X0057606Y0042012D02*
X0052712Y0042012D01*
X0052235Y0042610D02*
X0056688Y0042610D01*
X0056089Y0043209D02*
X0051758Y0043209D01*
X0051280Y0043807D02*
X0055491Y0043807D01*
X0054892Y0044406D02*
X0050803Y0044406D01*
X0050411Y0045004D02*
X0054294Y0045004D01*
X0053842Y0045603D02*
X0050123Y0045603D01*
X0049835Y0046201D02*
X0053496Y0046201D01*
X0053151Y0046800D02*
X0049547Y0046800D01*
X0049258Y0047398D02*
X0052805Y0047398D01*
X0052460Y0047997D02*
X0048970Y0047997D01*
X0048721Y0048595D02*
X0052114Y0048595D01*
X0051923Y0049194D02*
X0048584Y0049194D01*
X0048447Y0049792D02*
X0051763Y0049792D01*
X0051602Y0050391D02*
X0048311Y0050391D01*
X0048174Y0050989D02*
X0051442Y0050989D01*
X0051282Y0051588D02*
X0048038Y0051588D01*
X0047901Y0052186D02*
X0051121Y0052186D01*
X0051029Y0052785D02*
X0047821Y0052785D01*
X0047787Y0053383D02*
X0051029Y0053383D01*
X0051029Y0053982D02*
X0047754Y0053982D01*
X0047724Y0054580D02*
X0051029Y0054580D01*
X0051029Y0055179D02*
X0047724Y0055179D01*
X0047724Y0055777D02*
X0051029Y0055777D01*
X0051029Y0056376D02*
X0047724Y0056376D01*
X0047724Y0056974D02*
X0051157Y0056974D01*
X0051317Y0057573D02*
X0047724Y0057573D01*
X0047724Y0058171D02*
X0051477Y0058171D01*
X0051638Y0058770D02*
X0047724Y0058770D01*
X0047724Y0059368D02*
X0051798Y0059368D01*
X0051958Y0059967D02*
X0047724Y0059967D01*
X0047724Y0060565D02*
X0052190Y0060565D01*
X0052536Y0061164D02*
X0047724Y0061164D01*
X0047724Y0061762D02*
X0052881Y0061762D01*
X0053227Y0062361D02*
X0047724Y0062361D01*
X0047724Y0062959D02*
X0053572Y0062959D01*
X0053918Y0063558D02*
X0047724Y0063558D01*
X0047724Y0064156D02*
X0054425Y0064156D01*
X0055024Y0064755D02*
X0047724Y0064755D01*
X0047724Y0065353D02*
X0055622Y0065353D01*
X0056221Y0065952D02*
X0047724Y0065952D01*
X0047724Y0066550D02*
X0056819Y0066550D01*
X0057834Y0067149D02*
X0047724Y0067149D01*
X0047724Y0067748D02*
X0058870Y0067748D01*
X0059907Y0068346D02*
X0047724Y0068346D01*
X0047724Y0068945D02*
X0061700Y0068945D01*
X0063934Y0069543D02*
X0047724Y0069543D01*
X0047724Y0070142D02*
X0352210Y0070142D01*
X0352210Y0070740D02*
X0047724Y0070740D01*
X0047724Y0084506D02*
X0352210Y0084506D01*
X0352210Y0085104D02*
X0047724Y0085104D01*
X0047724Y0085703D02*
X0352210Y0085703D01*
X0352210Y0086301D02*
X0213866Y0086301D01*
X0213294Y0085729D02*
X0214524Y0086960D01*
X0214524Y0088699D01*
X0213294Y0089929D01*
X0211554Y0089929D01*
X0210324Y0088699D01*
X0210324Y0086960D01*
X0211554Y0085729D01*
X0213294Y0085729D01*
X0214464Y0086900D02*
X0352210Y0086900D01*
X0352210Y0087498D02*
X0214524Y0087498D01*
X0214524Y0088097D02*
X0352210Y0088097D01*
X0352210Y0088695D02*
X0214524Y0088695D01*
X0213929Y0089294D02*
X0352210Y0089294D01*
X0352210Y0089892D02*
X0213331Y0089892D01*
X0211517Y0089892D02*
X0079724Y0089892D01*
X0079724Y0090299D02*
X0079724Y0088560D01*
X0078494Y0087329D01*
X0076754Y0087329D01*
X0075524Y0088560D01*
X0075524Y0090299D01*
X0076754Y0091529D01*
X0078494Y0091529D01*
X0079724Y0090299D01*
X0079532Y0090491D02*
X0352210Y0090491D01*
X0352210Y0091089D02*
X0078934Y0091089D01*
X0079724Y0089294D02*
X0210919Y0089294D01*
X0210324Y0088695D02*
X0079724Y0088695D01*
X0079261Y0088097D02*
X0210324Y0088097D01*
X0210324Y0087498D02*
X0078663Y0087498D01*
X0076585Y0087498D02*
X0047724Y0087498D01*
X0047724Y0086900D02*
X0210384Y0086900D01*
X0210982Y0086301D02*
X0047724Y0086301D01*
X0047724Y0088097D02*
X0075987Y0088097D01*
X0075524Y0088695D02*
X0047724Y0088695D01*
X0047724Y0089294D02*
X0075524Y0089294D01*
X0075524Y0089892D02*
X0047724Y0089892D01*
X0047724Y0090491D02*
X0075716Y0090491D01*
X0076314Y0091089D02*
X0047724Y0091089D01*
X0047724Y0091688D02*
X0352210Y0091688D01*
X0352210Y0092286D02*
X0120151Y0092286D01*
X0119694Y0091829D02*
X0120924Y0093060D01*
X0120924Y0094799D01*
X0119694Y0096029D01*
X0117954Y0096029D01*
X0116724Y0094799D01*
X0116724Y0093060D01*
X0117954Y0091829D01*
X0119694Y0091829D01*
X0120749Y0092885D02*
X0352210Y0092885D01*
X0352210Y0093484D02*
X0120924Y0093484D01*
X0120924Y0094082D02*
X0352210Y0094082D01*
X0352210Y0094681D02*
X0120924Y0094681D01*
X0120444Y0095279D02*
X0352210Y0095279D01*
X0352210Y0095878D02*
X0119846Y0095878D01*
X0120494Y0096929D02*
X0121724Y0098160D01*
X0121724Y0099899D01*
X0120494Y0101129D01*
X0118754Y0101129D01*
X0117524Y0099899D01*
X0117524Y0098160D01*
X0118754Y0096929D01*
X0120494Y0096929D01*
X0120639Y0097075D02*
X0205009Y0097075D01*
X0205154Y0096929D02*
X0206894Y0096929D01*
X0208124Y0098160D01*
X0208124Y0099899D01*
X0206894Y0101129D01*
X0205154Y0101129D01*
X0203924Y0099899D01*
X0203924Y0098160D01*
X0205154Y0096929D01*
X0204410Y0097673D02*
X0179954Y0097673D01*
X0179577Y0097296D02*
X0180807Y0098526D01*
X0180807Y0100266D01*
X0179577Y0101496D01*
X0177837Y0101496D01*
X0176607Y0100266D01*
X0176607Y0098526D01*
X0177837Y0097296D01*
X0179577Y0097296D01*
X0180552Y0098272D02*
X0203924Y0098272D01*
X0203924Y0098870D02*
X0180807Y0098870D01*
X0180807Y0099469D02*
X0203924Y0099469D01*
X0204092Y0100067D02*
X0180807Y0100067D01*
X0180408Y0100666D02*
X0204690Y0100666D01*
X0207357Y0100666D02*
X0264824Y0100666D01*
X0264824Y0101264D02*
X0179809Y0101264D01*
X0177605Y0101264D02*
X0047724Y0101264D01*
X0047724Y0100666D02*
X0118290Y0100666D01*
X0117692Y0100067D02*
X0047724Y0100067D01*
X0047724Y0099469D02*
X0117524Y0099469D01*
X0117524Y0098870D02*
X0047724Y0098870D01*
X0047724Y0098272D02*
X0117524Y0098272D01*
X0118010Y0097673D02*
X0047724Y0097673D01*
X0047724Y0097075D02*
X0118609Y0097075D01*
X0117802Y0095878D02*
X0047724Y0095878D01*
X0047724Y0096476D02*
X0352210Y0096476D01*
X0352210Y0097075D02*
X0207039Y0097075D01*
X0207637Y0097673D02*
X0352210Y0097673D01*
X0352210Y0098272D02*
X0208124Y0098272D01*
X0208124Y0098870D02*
X0352210Y0098870D01*
X0352210Y0099469D02*
X0208124Y0099469D01*
X0207956Y0100067D02*
X0264824Y0100067D01*
X0264824Y0101863D02*
X0099627Y0101863D01*
X0099494Y0101729D02*
X0100724Y0102960D01*
X0100724Y0104699D01*
X0099494Y0105929D01*
X0097754Y0105929D01*
X0096524Y0104699D01*
X0096524Y0102960D01*
X0097754Y0101729D01*
X0099494Y0101729D01*
X0100226Y0102461D02*
X0264824Y0102461D01*
X0264824Y0103060D02*
X0242124Y0103060D01*
X0241594Y0102529D02*
X0242824Y0103760D01*
X0242824Y0105499D01*
X0241594Y0106729D01*
X0239854Y0106729D01*
X0238624Y0105499D01*
X0238624Y0103760D01*
X0239854Y0102529D01*
X0241594Y0102529D01*
X0242723Y0103658D02*
X0264824Y0103658D01*
X0264824Y0104257D02*
X0242824Y0104257D01*
X0242824Y0104855D02*
X0264824Y0104855D01*
X0264824Y0105454D02*
X0242824Y0105454D01*
X0242271Y0106052D02*
X0264824Y0106052D01*
X0264824Y0106651D02*
X0241672Y0106651D01*
X0239775Y0106651D02*
X0047724Y0106651D01*
X0047724Y0107249D02*
X0139144Y0107249D01*
X0139255Y0107139D02*
X0140995Y0107139D01*
X0142225Y0108369D01*
X0142225Y0110109D01*
X0140995Y0111339D01*
X0139255Y0111339D01*
X0138025Y0110109D01*
X0138025Y0108369D01*
X0139255Y0107139D01*
X0138546Y0107848D02*
X0047724Y0107848D01*
X0047724Y0108446D02*
X0138025Y0108446D01*
X0138025Y0109045D02*
X0047724Y0109045D01*
X0047724Y0109643D02*
X0138025Y0109643D01*
X0138158Y0110242D02*
X0047724Y0110242D01*
X0047724Y0110840D02*
X0138756Y0110840D01*
X0141493Y0110840D02*
X0192665Y0110840D01*
X0192524Y0110699D02*
X0192524Y0108960D01*
X0193754Y0107729D01*
X0195494Y0107729D01*
X0196724Y0108960D01*
X0196724Y0110699D01*
X0195494Y0111929D01*
X0193754Y0111929D01*
X0192524Y0110699D01*
X0192524Y0110242D02*
X0142092Y0110242D01*
X0142225Y0109643D02*
X0192524Y0109643D01*
X0192524Y0109045D02*
X0142225Y0109045D01*
X0142225Y0108446D02*
X0193037Y0108446D01*
X0193636Y0107848D02*
X0141703Y0107848D01*
X0141105Y0107249D02*
X0264824Y0107249D01*
X0264824Y0107848D02*
X0195612Y0107848D01*
X0196211Y0108446D02*
X0264824Y0108446D01*
X0264824Y0109045D02*
X0215409Y0109045D01*
X0215294Y0108929D02*
X0216524Y0110160D01*
X0216524Y0111899D01*
X0215294Y0113129D01*
X0213554Y0113129D01*
X0212324Y0111899D01*
X0212324Y0110160D01*
X0213554Y0108929D01*
X0215294Y0108929D01*
X0216008Y0109643D02*
X0264824Y0109643D01*
X0264824Y0110242D02*
X0245306Y0110242D01*
X0244994Y0109929D02*
X0246224Y0111160D01*
X0246224Y0112899D01*
X0244994Y0114129D01*
X0243254Y0114129D01*
X0242024Y0112899D01*
X0242024Y0111160D01*
X0243254Y0109929D01*
X0244994Y0109929D01*
X0245905Y0110840D02*
X0264824Y0110840D01*
X0264824Y0111439D02*
X0262203Y0111439D01*
X0262094Y0111329D02*
X0263324Y0112560D01*
X0263324Y0114299D01*
X0262094Y0115529D01*
X0260354Y0115529D01*
X0259124Y0114299D01*
X0259124Y0112560D01*
X0260354Y0111329D01*
X0262094Y0111329D01*
X0262802Y0112037D02*
X0264824Y0112037D01*
X0264824Y0112636D02*
X0263324Y0112636D01*
X0263324Y0113234D02*
X0264824Y0113234D01*
X0264824Y0113833D02*
X0263324Y0113833D01*
X0263192Y0114431D02*
X0264824Y0114431D01*
X0264824Y0115030D02*
X0262593Y0115030D01*
X0264824Y0115628D02*
X0167924Y0115628D01*
X0167924Y0115560D02*
X0166694Y0114329D01*
X0164954Y0114329D01*
X0163724Y0115560D01*
X0163724Y0117299D01*
X0164954Y0118529D01*
X0166694Y0118529D01*
X0167924Y0117299D01*
X0167924Y0115560D01*
X0167924Y0116227D02*
X0264824Y0116227D01*
X0264824Y0116825D02*
X0235390Y0116825D01*
X0235294Y0116729D02*
X0236524Y0117960D01*
X0236524Y0119699D01*
X0235294Y0120929D01*
X0233554Y0120929D01*
X0232324Y0119699D01*
X0232324Y0117960D01*
X0233554Y0116729D01*
X0235294Y0116729D01*
X0235988Y0117424D02*
X0264824Y0117424D01*
X0264824Y0118022D02*
X0236524Y0118022D01*
X0236524Y0118621D02*
X0264824Y0118621D01*
X0264824Y0119219D02*
X0236524Y0119219D01*
X0236405Y0119818D02*
X0264824Y0119818D01*
X0264824Y0120417D02*
X0235807Y0120417D01*
X0233041Y0120417D02*
X0163124Y0120417D01*
X0163124Y0120360D02*
X0161894Y0119129D01*
X0160154Y0119129D01*
X0158924Y0120360D01*
X0158924Y0121560D01*
X0158894Y0121529D01*
X0157154Y0121529D01*
X0155924Y0122760D01*
X0155924Y0124499D01*
X0157154Y0125729D01*
X0158894Y0125729D01*
X0160124Y0124499D01*
X0160124Y0123299D01*
X0160154Y0123329D01*
X0161894Y0123329D01*
X0163124Y0122099D01*
X0163124Y0120360D01*
X0163124Y0121015D02*
X0264824Y0121015D01*
X0264824Y0121614D02*
X0163124Y0121614D01*
X0163011Y0122212D02*
X0264824Y0122212D01*
X0264824Y0122811D02*
X0162413Y0122811D01*
X0160124Y0123409D02*
X0264824Y0123409D01*
X0264824Y0124008D02*
X0160124Y0124008D01*
X0160017Y0124606D02*
X0264824Y0124606D01*
X0264824Y0125205D02*
X0159419Y0125205D01*
X0156629Y0125205D02*
X0047724Y0125205D01*
X0047724Y0125803D02*
X0264824Y0125803D01*
X0264824Y0126402D02*
X0047724Y0126402D01*
X0047724Y0127000D02*
X0264824Y0127000D01*
X0264824Y0127599D02*
X0047724Y0127599D01*
X0047724Y0128197D02*
X0264824Y0128197D01*
X0264824Y0128796D02*
X0047724Y0128796D01*
X0047724Y0129394D02*
X0264824Y0129394D01*
X0264824Y0129993D02*
X0047724Y0129993D01*
X0047724Y0130591D02*
X0264824Y0130591D01*
X0264824Y0131190D02*
X0047724Y0131190D01*
X0047724Y0131788D02*
X0264824Y0131788D01*
X0264824Y0132387D02*
X0047724Y0132387D01*
X0047724Y0132985D02*
X0264824Y0132985D01*
X0264824Y0133584D02*
X0047724Y0133584D01*
X0047724Y0134182D02*
X0264824Y0134182D01*
X0264824Y0134781D02*
X0047724Y0134781D01*
X0047724Y0135379D02*
X0264824Y0135379D01*
X0264824Y0135978D02*
X0047724Y0135978D01*
X0047724Y0136576D02*
X0264824Y0136576D01*
X0264824Y0137175D02*
X0047724Y0137175D01*
X0047724Y0137773D02*
X0264824Y0137773D01*
X0264824Y0138372D02*
X0047724Y0138372D01*
X0047724Y0138970D02*
X0127313Y0138970D01*
X0127554Y0138729D02*
X0129294Y0138729D01*
X0130524Y0139960D01*
X0130524Y0141699D01*
X0129294Y0142929D01*
X0127554Y0142929D01*
X0126324Y0141699D01*
X0126324Y0139960D01*
X0127554Y0138729D01*
X0126715Y0139569D02*
X0047724Y0139569D01*
X0047724Y0140167D02*
X0126324Y0140167D01*
X0126324Y0140766D02*
X0102530Y0140766D01*
X0102494Y0140729D02*
X0103724Y0141960D01*
X0103724Y0143699D01*
X0102494Y0144929D01*
X0100754Y0144929D01*
X0099524Y0143699D01*
X0099524Y0141960D01*
X0100754Y0140729D01*
X0102494Y0140729D01*
X0103129Y0141364D02*
X0126324Y0141364D01*
X0126588Y0141963D02*
X0103724Y0141963D01*
X0103724Y0142561D02*
X0127186Y0142561D01*
X0129662Y0142561D02*
X0264824Y0142561D01*
X0264824Y0141963D02*
X0130260Y0141963D01*
X0130524Y0141364D02*
X0264824Y0141364D01*
X0264824Y0140766D02*
X0130524Y0140766D01*
X0130524Y0140167D02*
X0264824Y0140167D01*
X0264824Y0139569D02*
X0130133Y0139569D01*
X0129535Y0138970D02*
X0264824Y0138970D01*
X0264824Y0143160D02*
X0103724Y0143160D01*
X0103665Y0143758D02*
X0233525Y0143758D01*
X0233554Y0143729D02*
X0235294Y0143729D01*
X0236524Y0144960D01*
X0236524Y0146699D01*
X0235294Y0147929D01*
X0233554Y0147929D01*
X0232324Y0146699D01*
X0232324Y0144960D01*
X0233554Y0143729D01*
X0232926Y0144357D02*
X0103066Y0144357D01*
X0100182Y0144357D02*
X0047724Y0144357D01*
X0047724Y0144955D02*
X0232328Y0144955D01*
X0232324Y0145554D02*
X0047724Y0145554D01*
X0047724Y0146152D02*
X0232324Y0146152D01*
X0232376Y0146751D02*
X0047724Y0146751D01*
X0047724Y0147350D02*
X0232974Y0147350D01*
X0235874Y0147350D02*
X0264824Y0147350D01*
X0264824Y0147948D02*
X0047724Y0147948D01*
X0047724Y0148547D02*
X0264824Y0148547D01*
X0264824Y0149145D02*
X0047724Y0149145D01*
X0047724Y0149744D02*
X0264824Y0149744D01*
X0264824Y0150342D02*
X0047724Y0150342D01*
X0047724Y0150941D02*
X0264824Y0150941D01*
X0264824Y0151539D02*
X0047724Y0151539D01*
X0047724Y0152138D02*
X0264824Y0152138D01*
X0264824Y0152736D02*
X0047724Y0152736D01*
X0047724Y0153335D02*
X0264824Y0153335D01*
X0264824Y0153933D02*
X0047724Y0153933D01*
X0047724Y0154532D02*
X0264824Y0154532D01*
X0264824Y0155130D02*
X0047724Y0155130D01*
X0047724Y0155729D02*
X0264824Y0155729D01*
X0264824Y0156327D02*
X0047724Y0156327D01*
X0047724Y0156926D02*
X0264824Y0156926D01*
X0264824Y0157524D02*
X0047724Y0157524D01*
X0047724Y0158123D02*
X0264824Y0158123D01*
X0264824Y0158721D02*
X0129191Y0158721D01*
X0128790Y0158320D02*
X0130020Y0159550D01*
X0130020Y0161290D01*
X0128790Y0162520D01*
X0127050Y0162520D01*
X0125820Y0161290D01*
X0125820Y0159550D01*
X0127050Y0158320D01*
X0128790Y0158320D01*
X0129790Y0159320D02*
X0264824Y0159320D01*
X0264824Y0159918D02*
X0130020Y0159918D01*
X0130020Y0160517D02*
X0264824Y0160517D01*
X0264824Y0161115D02*
X0130020Y0161115D01*
X0129596Y0161714D02*
X0264824Y0161714D01*
X0264824Y0162312D02*
X0128997Y0162312D01*
X0126842Y0162312D02*
X0074324Y0162312D01*
X0074324Y0161760D02*
X0073094Y0160529D01*
X0071354Y0160529D01*
X0070124Y0161760D01*
X0070124Y0163499D01*
X0071354Y0164729D01*
X0073094Y0164729D01*
X0074324Y0163499D01*
X0074324Y0161760D01*
X0074278Y0161714D02*
X0126244Y0161714D01*
X0125820Y0161115D02*
X0073680Y0161115D01*
X0074324Y0162911D02*
X0233089Y0162911D01*
X0233349Y0162651D02*
X0235089Y0162651D01*
X0236319Y0163881D01*
X0236319Y0165620D01*
X0235089Y0166851D01*
X0233349Y0166851D01*
X0232119Y0165620D01*
X0232119Y0163881D01*
X0233349Y0162651D01*
X0232491Y0163509D02*
X0074314Y0163509D01*
X0073715Y0164108D02*
X0232119Y0164108D01*
X0232119Y0164706D02*
X0073117Y0164706D01*
X0071331Y0164706D02*
X0047724Y0164706D01*
X0047724Y0164108D02*
X0070732Y0164108D01*
X0070134Y0163509D02*
X0047724Y0163509D01*
X0047724Y0162911D02*
X0070124Y0162911D01*
X0070124Y0162312D02*
X0047724Y0162312D01*
X0047724Y0161714D02*
X0070170Y0161714D01*
X0070768Y0161115D02*
X0047724Y0161115D01*
X0047724Y0160517D02*
X0125820Y0160517D01*
X0125820Y0159918D02*
X0047724Y0159918D01*
X0047724Y0159320D02*
X0126050Y0159320D01*
X0126649Y0158721D02*
X0047724Y0158721D01*
X0047724Y0165305D02*
X0232119Y0165305D01*
X0232402Y0165903D02*
X0047724Y0165903D01*
X0047724Y0166502D02*
X0233001Y0166502D01*
X0235438Y0166502D02*
X0264824Y0166502D01*
X0264824Y0167100D02*
X0047724Y0167100D01*
X0047724Y0167699D02*
X0264824Y0167699D01*
X0264824Y0168297D02*
X0047724Y0168297D01*
X0047724Y0168896D02*
X0264824Y0168896D01*
X0264824Y0169494D02*
X0047724Y0169494D01*
X0047724Y0170093D02*
X0264824Y0170093D01*
X0264824Y0170691D02*
X0047724Y0170691D01*
X0047724Y0171290D02*
X0264824Y0171290D01*
X0264824Y0171888D02*
X0047724Y0171888D01*
X0047724Y0172487D02*
X0264824Y0172487D01*
X0264824Y0173086D02*
X0047724Y0173086D01*
X0047724Y0173684D02*
X0264824Y0173684D01*
X0264824Y0174283D02*
X0208647Y0174283D01*
X0208094Y0173729D02*
X0209324Y0174960D01*
X0209324Y0176699D01*
X0208094Y0177929D01*
X0206354Y0177929D01*
X0205124Y0176699D01*
X0205124Y0174960D01*
X0206354Y0173729D01*
X0208094Y0173729D01*
X0209245Y0174881D02*
X0264824Y0174881D01*
X0264824Y0175480D02*
X0209324Y0175480D01*
X0209324Y0176078D02*
X0264824Y0176078D01*
X0264824Y0176677D02*
X0209324Y0176677D01*
X0208748Y0177275D02*
X0264824Y0177275D01*
X0264824Y0177874D02*
X0208150Y0177874D01*
X0206298Y0177874D02*
X0200838Y0177874D01*
X0200924Y0177960D02*
X0199694Y0176729D01*
X0197954Y0176729D01*
X0196724Y0177960D01*
X0196724Y0179699D01*
X0197954Y0180929D01*
X0199694Y0180929D01*
X0200924Y0179699D01*
X0200924Y0177960D01*
X0200924Y0178472D02*
X0264824Y0178472D01*
X0264824Y0179071D02*
X0200924Y0179071D01*
X0200924Y0179669D02*
X0264824Y0179669D01*
X0264824Y0180268D02*
X0200355Y0180268D01*
X0199757Y0180866D02*
X0264824Y0180866D01*
X0264824Y0181465D02*
X0154758Y0181465D01*
X0155324Y0180899D02*
X0154094Y0182129D01*
X0152354Y0182129D01*
X0151124Y0180899D01*
X0151124Y0179160D01*
X0152354Y0177929D01*
X0154094Y0177929D01*
X0155324Y0179160D01*
X0155324Y0180899D01*
X0155324Y0180866D02*
X0197891Y0180866D01*
X0197292Y0180268D02*
X0155324Y0180268D01*
X0155324Y0179669D02*
X0196724Y0179669D01*
X0196724Y0179071D02*
X0155235Y0179071D01*
X0154636Y0178472D02*
X0196724Y0178472D01*
X0196810Y0177874D02*
X0092924Y0177874D01*
X0092924Y0177360D02*
X0091694Y0176129D01*
X0089954Y0176129D01*
X0088724Y0177360D01*
X0088724Y0179099D01*
X0089954Y0180329D01*
X0091694Y0180329D01*
X0092924Y0179099D01*
X0092924Y0177360D01*
X0092839Y0177275D02*
X0197408Y0177275D01*
X0200239Y0177275D02*
X0205700Y0177275D01*
X0205124Y0176677D02*
X0092241Y0176677D01*
X0092924Y0178472D02*
X0151811Y0178472D01*
X0151213Y0179071D02*
X0092924Y0179071D01*
X0092354Y0179669D02*
X0151124Y0179669D01*
X0151124Y0180268D02*
X0091755Y0180268D01*
X0089892Y0180268D02*
X0047724Y0180268D01*
X0047724Y0180866D02*
X0151124Y0180866D01*
X0151689Y0181465D02*
X0047724Y0181465D01*
X0047724Y0182063D02*
X0152288Y0182063D01*
X0154160Y0182063D02*
X0264824Y0182063D01*
X0264824Y0182662D02*
X0047724Y0182662D01*
X0047724Y0183260D02*
X0138623Y0183260D01*
X0139154Y0182729D02*
X0140894Y0182729D01*
X0142124Y0183960D01*
X0142124Y0185699D01*
X0140894Y0186929D01*
X0139154Y0186929D01*
X0137924Y0185699D01*
X0137924Y0183960D01*
X0139154Y0182729D01*
X0138025Y0183859D02*
X0047724Y0183859D01*
X0047724Y0184457D02*
X0137924Y0184457D01*
X0137924Y0185056D02*
X0047724Y0185056D01*
X0047724Y0185654D02*
X0137924Y0185654D01*
X0138477Y0186253D02*
X0047724Y0186253D01*
X0047724Y0186851D02*
X0139076Y0186851D01*
X0140972Y0186851D02*
X0143007Y0186851D01*
X0143586Y0186273D02*
X0145325Y0186273D01*
X0146555Y0187503D01*
X0146555Y0189243D01*
X0145325Y0190473D01*
X0143586Y0190473D01*
X0142355Y0189243D01*
X0142355Y0187503D01*
X0143586Y0186273D01*
X0142124Y0185654D02*
X0264824Y0185654D01*
X0264824Y0185056D02*
X0142124Y0185056D01*
X0142124Y0184457D02*
X0264824Y0184457D01*
X0264824Y0183859D02*
X0142023Y0183859D01*
X0141425Y0183260D02*
X0264824Y0183260D01*
X0264824Y0186253D02*
X0141570Y0186253D01*
X0142408Y0187450D02*
X0047724Y0187450D01*
X0047724Y0188048D02*
X0142355Y0188048D01*
X0142355Y0188647D02*
X0047724Y0188647D01*
X0047724Y0189245D02*
X0142358Y0189245D01*
X0142957Y0189844D02*
X0047724Y0189844D01*
X0047724Y0190442D02*
X0143555Y0190442D01*
X0145356Y0190442D02*
X0231462Y0190442D01*
X0231756Y0190736D02*
X0230525Y0189506D01*
X0230525Y0187766D01*
X0231756Y0186536D01*
X0233495Y0186536D01*
X0234725Y0187766D01*
X0234725Y0189506D01*
X0233495Y0190736D01*
X0231756Y0190736D01*
X0230864Y0189844D02*
X0145954Y0189844D01*
X0146553Y0189245D02*
X0230525Y0189245D01*
X0230525Y0188647D02*
X0146555Y0188647D01*
X0146555Y0188048D02*
X0230525Y0188048D01*
X0230842Y0187450D02*
X0146502Y0187450D01*
X0145904Y0186851D02*
X0231440Y0186851D01*
X0233811Y0186851D02*
X0264824Y0186851D01*
X0264824Y0187450D02*
X0234409Y0187450D01*
X0234725Y0188048D02*
X0264824Y0188048D01*
X0264824Y0188647D02*
X0234725Y0188647D01*
X0234725Y0189245D02*
X0264824Y0189245D01*
X0264824Y0189844D02*
X0234387Y0189844D01*
X0233789Y0190442D02*
X0264824Y0190442D01*
X0264824Y0191041D02*
X0047724Y0191041D01*
X0047724Y0191639D02*
X0264824Y0191639D01*
X0264824Y0192238D02*
X0047724Y0192238D01*
X0047724Y0192836D02*
X0264824Y0192836D01*
X0264824Y0193435D02*
X0047724Y0193435D01*
X0047724Y0194033D02*
X0264824Y0194033D01*
X0264824Y0194632D02*
X0047724Y0194632D01*
X0047724Y0195230D02*
X0264824Y0195230D01*
X0264824Y0195829D02*
X0047724Y0195829D01*
X0047724Y0196427D02*
X0264824Y0196427D01*
X0264824Y0197026D02*
X0192299Y0197026D01*
X0191782Y0196509D02*
X0193012Y0197739D01*
X0193012Y0199479D01*
X0191782Y0200709D01*
X0190042Y0200709D01*
X0188812Y0199479D01*
X0188812Y0197739D01*
X0190042Y0196509D01*
X0191782Y0196509D01*
X0192897Y0197624D02*
X0264824Y0197624D01*
X0264824Y0198223D02*
X0193012Y0198223D01*
X0193012Y0198821D02*
X0264824Y0198821D01*
X0264824Y0199420D02*
X0193012Y0199420D01*
X0192472Y0200019D02*
X0264824Y0200019D01*
X0264824Y0200617D02*
X0191874Y0200617D01*
X0189950Y0200617D02*
X0177701Y0200617D01*
X0177609Y0200709D02*
X0178839Y0199479D01*
X0178839Y0197739D01*
X0177609Y0196509D01*
X0175869Y0196509D01*
X0174639Y0197739D01*
X0174639Y0199479D01*
X0175869Y0200709D01*
X0177609Y0200709D01*
X0178299Y0200019D02*
X0189352Y0200019D01*
X0188812Y0199420D02*
X0178839Y0199420D01*
X0178839Y0198821D02*
X0188812Y0198821D01*
X0188812Y0198223D02*
X0178839Y0198223D01*
X0178724Y0197624D02*
X0188927Y0197624D01*
X0189525Y0197026D02*
X0178126Y0197026D01*
X0175352Y0197026D02*
X0047724Y0197026D01*
X0047724Y0197624D02*
X0174753Y0197624D01*
X0174639Y0198223D02*
X0047724Y0198223D01*
X0047724Y0198821D02*
X0174639Y0198821D01*
X0174639Y0199420D02*
X0047724Y0199420D01*
X0047724Y0200019D02*
X0175179Y0200019D01*
X0175777Y0200617D02*
X0047724Y0200617D01*
X0047724Y0201216D02*
X0264824Y0201216D01*
X0264824Y0201814D02*
X0047724Y0201814D01*
X0047724Y0202413D02*
X0264824Y0202413D01*
X0264824Y0203011D02*
X0047724Y0203011D01*
X0047724Y0203610D02*
X0264824Y0203610D01*
X0264824Y0204208D02*
X0047724Y0204208D01*
X0047724Y0204807D02*
X0264824Y0204807D01*
X0264824Y0205405D02*
X0047724Y0205405D01*
X0047724Y0206004D02*
X0264824Y0206004D01*
X0264824Y0206602D02*
X0047724Y0206602D01*
X0047724Y0207201D02*
X0264824Y0207201D01*
X0264824Y0207799D02*
X0047724Y0207799D01*
X0047724Y0208398D02*
X0327604Y0208398D01*
X0327604Y0208996D02*
X0163649Y0208996D01*
X0162775Y0208634D02*
X0164734Y0209445D01*
X0166233Y0210945D01*
X0167044Y0212903D01*
X0167044Y0215023D01*
X0166233Y0216982D01*
X0164734Y0218481D01*
X0162775Y0219292D01*
X0160655Y0219292D01*
X0158697Y0218481D01*
X0157197Y0216982D01*
X0156386Y0215023D01*
X0156386Y0212903D01*
X0157197Y0210945D01*
X0158697Y0209445D01*
X0160655Y0208634D01*
X0162775Y0208634D01*
X0164883Y0209595D02*
X0327728Y0209595D01*
X0327976Y0210193D02*
X0165482Y0210193D01*
X0166080Y0210792D02*
X0328224Y0210792D01*
X0328472Y0211390D02*
X0166418Y0211390D01*
X0166666Y0211989D02*
X0184295Y0211989D01*
X0184754Y0211529D02*
X0186494Y0211529D01*
X0187724Y0212760D01*
X0187724Y0214499D01*
X0186494Y0215729D01*
X0184754Y0215729D01*
X0183524Y0214499D01*
X0183524Y0212760D01*
X0184754Y0211529D01*
X0183696Y0212587D02*
X0166913Y0212587D01*
X0167044Y0213186D02*
X0183524Y0213186D01*
X0183524Y0213784D02*
X0167044Y0213784D01*
X0167044Y0214383D02*
X0183524Y0214383D01*
X0184006Y0214981D02*
X0167044Y0214981D01*
X0166814Y0215580D02*
X0184604Y0215580D01*
X0186643Y0215580D02*
X0198725Y0215580D01*
X0199084Y0215431D02*
X0200536Y0215431D01*
X0201877Y0215987D01*
X0202904Y0217014D01*
X0203460Y0218355D01*
X0203460Y0219807D01*
X0202904Y0221149D01*
X0201877Y0222176D01*
X0200536Y0222731D01*
X0199084Y0222731D01*
X0197742Y0222176D01*
X0196715Y0221149D01*
X0196160Y0219807D01*
X0196160Y0218355D01*
X0196715Y0217014D01*
X0197742Y0215987D01*
X0199084Y0215431D01*
X0197551Y0216178D02*
X0166566Y0216178D01*
X0166318Y0216777D02*
X0196952Y0216777D01*
X0196566Y0217375D02*
X0165840Y0217375D01*
X0165241Y0217974D02*
X0196318Y0217974D01*
X0196160Y0218572D02*
X0164514Y0218572D01*
X0163069Y0219171D02*
X0196160Y0219171D01*
X0196160Y0219769D02*
X0075524Y0219769D01*
X0075368Y0219613D02*
X0078176Y0222421D01*
X0080161Y0225859D01*
X0081188Y0229695D01*
X0081188Y0233665D01*
X0080161Y0237500D01*
X0078176Y0240939D01*
X0075368Y0243746D01*
X0071929Y0245732D01*
X0068094Y0246759D01*
X0064124Y0246759D01*
X0060288Y0245732D01*
X0056850Y0243746D01*
X0054042Y0240939D01*
X0052057Y0237500D01*
X0051029Y0233665D01*
X0051029Y0229695D01*
X0052057Y0225859D01*
X0054042Y0222421D01*
X0056850Y0219613D01*
X0060288Y0217628D01*
X0064124Y0216600D01*
X0068094Y0216600D01*
X0071929Y0217628D01*
X0075368Y0219613D01*
X0074602Y0219171D02*
X0123354Y0219171D01*
X0123647Y0219292D02*
X0121689Y0218481D01*
X0120190Y0216982D01*
X0119378Y0215023D01*
X0119378Y0212903D01*
X0120190Y0210945D01*
X0121689Y0209445D01*
X0123647Y0208634D01*
X0125767Y0208634D01*
X0127726Y0209445D01*
X0129225Y0210945D01*
X0130036Y0212903D01*
X0130036Y0215023D01*
X0129225Y0216982D01*
X0127726Y0218481D01*
X0125767Y0219292D01*
X0123647Y0219292D01*
X0121909Y0218572D02*
X0073565Y0218572D01*
X0072529Y0217974D02*
X0121181Y0217974D01*
X0120583Y0217375D02*
X0070987Y0217375D01*
X0068753Y0216777D02*
X0120105Y0216777D01*
X0119857Y0216178D02*
X0047724Y0216178D01*
X0047724Y0215580D02*
X0119609Y0215580D01*
X0119378Y0214981D02*
X0047724Y0214981D01*
X0047724Y0214383D02*
X0119378Y0214383D01*
X0119378Y0213784D02*
X0047724Y0213784D01*
X0047724Y0213186D02*
X0093710Y0213186D01*
X0093854Y0213329D02*
X0092624Y0212099D01*
X0092624Y0210360D01*
X0093854Y0209129D01*
X0095594Y0209129D01*
X0096824Y0210360D01*
X0096824Y0212099D01*
X0095594Y0213329D01*
X0093854Y0213329D01*
X0093112Y0212587D02*
X0047724Y0212587D01*
X0047724Y0211989D02*
X0092624Y0211989D01*
X0092624Y0211390D02*
X0047724Y0211390D01*
X0047724Y0210792D02*
X0092624Y0210792D01*
X0092790Y0210193D02*
X0047724Y0210193D01*
X0047724Y0209595D02*
X0093389Y0209595D01*
X0096059Y0209595D02*
X0097889Y0209595D01*
X0098354Y0209129D02*
X0097124Y0210360D01*
X0097124Y0212099D01*
X0098354Y0213329D01*
X0100094Y0213329D01*
X0101324Y0212099D01*
X0101324Y0210360D01*
X0100094Y0209129D01*
X0098354Y0209129D01*
X0097290Y0210193D02*
X0096658Y0210193D01*
X0096824Y0210792D02*
X0097124Y0210792D01*
X0097124Y0211390D02*
X0096824Y0211390D01*
X0096824Y0211989D02*
X0097124Y0211989D01*
X0097612Y0212587D02*
X0096336Y0212587D01*
X0095737Y0213186D02*
X0098210Y0213186D01*
X0100237Y0213186D02*
X0119378Y0213186D01*
X0119509Y0212587D02*
X0100836Y0212587D01*
X0101324Y0211989D02*
X0119757Y0211989D01*
X0120005Y0211390D02*
X0101324Y0211390D01*
X0101324Y0210792D02*
X0120342Y0210792D01*
X0120941Y0210193D02*
X0101158Y0210193D01*
X0100559Y0209595D02*
X0121539Y0209595D01*
X0122773Y0208996D02*
X0047724Y0208996D01*
X0047724Y0216777D02*
X0063465Y0216777D01*
X0061231Y0217375D02*
X0047724Y0217375D01*
X0047724Y0217974D02*
X0059689Y0217974D01*
X0058653Y0218572D02*
X0047724Y0218572D01*
X0047724Y0219171D02*
X0057616Y0219171D01*
X0056694Y0219769D02*
X0047724Y0219769D01*
X0047724Y0220368D02*
X0056095Y0220368D01*
X0055497Y0220966D02*
X0047724Y0220966D01*
X0047724Y0221565D02*
X0054898Y0221565D01*
X0054300Y0222163D02*
X0047724Y0222163D01*
X0047724Y0222762D02*
X0053845Y0222762D01*
X0053500Y0223360D02*
X0047724Y0223360D01*
X0047724Y0223959D02*
X0053154Y0223959D01*
X0052809Y0224557D02*
X0047724Y0224557D01*
X0047724Y0225156D02*
X0052463Y0225156D01*
X0052118Y0225755D02*
X0047724Y0225755D01*
X0047724Y0226353D02*
X0051925Y0226353D01*
X0051764Y0226952D02*
X0047724Y0226952D01*
X0047724Y0227550D02*
X0051604Y0227550D01*
X0051444Y0228149D02*
X0047724Y0228149D01*
X0047724Y0228747D02*
X0051283Y0228747D01*
X0051123Y0229346D02*
X0047724Y0229346D01*
X0047724Y0229944D02*
X0051029Y0229944D01*
X0051029Y0230543D02*
X0047724Y0230543D01*
X0047724Y0231141D02*
X0051029Y0231141D01*
X0051029Y0231740D02*
X0047727Y0231740D01*
X0047761Y0232338D02*
X0051029Y0232338D01*
X0051029Y0232937D02*
X0047794Y0232937D01*
X0047828Y0233535D02*
X0051029Y0233535D01*
X0051155Y0234134D02*
X0047930Y0234134D01*
X0048066Y0234732D02*
X0051315Y0234732D01*
X0051476Y0235331D02*
X0048203Y0235331D01*
X0048340Y0235929D02*
X0051636Y0235929D01*
X0051796Y0236528D02*
X0048476Y0236528D01*
X0048613Y0237126D02*
X0051957Y0237126D01*
X0052187Y0237725D02*
X0048749Y0237725D01*
X0049031Y0238323D02*
X0052532Y0238323D01*
X0052878Y0238922D02*
X0049319Y0238922D01*
X0049607Y0239520D02*
X0053223Y0239520D01*
X0053569Y0240119D02*
X0049895Y0240119D01*
X0050184Y0240717D02*
X0053914Y0240717D01*
X0054419Y0241316D02*
X0050472Y0241316D01*
X0050903Y0241914D02*
X0055018Y0241914D01*
X0055616Y0242513D02*
X0051380Y0242513D01*
X0051858Y0243111D02*
X0056215Y0243111D01*
X0056813Y0243710D02*
X0052335Y0243710D01*
X0052812Y0244308D02*
X0057823Y0244308D01*
X0058860Y0244907D02*
X0053393Y0244907D01*
X0054144Y0245505D02*
X0059897Y0245505D01*
X0061678Y0246104D02*
X0054894Y0246104D01*
X0055645Y0246702D02*
X0063911Y0246702D01*
X0062936Y0249695D02*
X0336998Y0249695D01*
X0339620Y0249096D02*
X0060314Y0249096D01*
X0058925Y0248498D02*
X0341009Y0248498D01*
X0342252Y0247899D02*
X0113049Y0247899D01*
X0112914Y0247990D02*
X0112313Y0248239D01*
X0111676Y0248366D01*
X0111551Y0248366D01*
X0111551Y0245266D01*
X0111151Y0245266D01*
X0111151Y0248366D01*
X0111026Y0248366D01*
X0110388Y0248239D01*
X0109788Y0247990D01*
X0109247Y0247629D01*
X0108787Y0247169D01*
X0108426Y0246629D01*
X0108177Y0246028D01*
X0108051Y0245391D01*
X0108051Y0245266D01*
X0111151Y0245266D01*
X0111151Y0244866D01*
X0108051Y0244866D01*
X0108051Y0244741D01*
X0108177Y0244103D01*
X0108426Y0243502D01*
X0108787Y0242962D01*
X0109247Y0242502D01*
X0109788Y0242141D01*
X0110388Y0241892D01*
X0111026Y0241766D01*
X0111151Y0241766D01*
X0111151Y0244866D01*
X0111551Y0244866D01*
X0111551Y0245266D01*
X0114651Y0245266D01*
X0114651Y0245391D01*
X0114524Y0246028D01*
X0114275Y0246629D01*
X0113914Y0247169D01*
X0113454Y0247629D01*
X0112914Y0247990D01*
X0113782Y0247301D02*
X0175400Y0247301D01*
X0175452Y0247353D02*
X0174754Y0246655D01*
X0174376Y0245743D01*
X0174376Y0244756D01*
X0174754Y0243844D01*
X0175452Y0243146D01*
X0176363Y0242768D01*
X0177350Y0242768D01*
X0178262Y0243146D01*
X0178960Y0243844D01*
X0179338Y0244756D01*
X0179338Y0245743D01*
X0178960Y0246655D01*
X0178262Y0247353D01*
X0177350Y0247730D01*
X0176363Y0247730D01*
X0175452Y0247353D01*
X0174801Y0246702D02*
X0114226Y0246702D01*
X0114492Y0246104D02*
X0174525Y0246104D01*
X0174376Y0245505D02*
X0114628Y0245505D01*
X0114651Y0244866D02*
X0111551Y0244866D01*
X0111551Y0241766D01*
X0111676Y0241766D01*
X0112313Y0241892D01*
X0112914Y0242141D01*
X0113454Y0242502D01*
X0113914Y0242962D01*
X0114275Y0243502D01*
X0114524Y0244103D01*
X0114651Y0244741D01*
X0114651Y0244866D01*
X0114565Y0244308D02*
X0174561Y0244308D01*
X0174376Y0244907D02*
X0111551Y0244907D01*
X0111151Y0244907D02*
X0083007Y0244907D01*
X0083007Y0244866D02*
X0083007Y0245266D01*
X0082607Y0245266D01*
X0082607Y0248366D01*
X0082482Y0248366D01*
X0081845Y0248239D01*
X0081244Y0247990D01*
X0080704Y0247629D01*
X0080244Y0247169D01*
X0079883Y0246629D01*
X0079634Y0246028D01*
X0079507Y0245391D01*
X0079507Y0245266D01*
X0082607Y0245266D01*
X0082607Y0244866D01*
X0079507Y0244866D01*
X0079507Y0244741D01*
X0079634Y0244103D01*
X0079883Y0243502D01*
X0080244Y0242962D01*
X0080704Y0242502D01*
X0081244Y0242141D01*
X0081845Y0241892D01*
X0082482Y0241766D01*
X0082607Y0241766D01*
X0082607Y0244866D01*
X0083007Y0244866D01*
X0086107Y0244866D01*
X0086107Y0244741D01*
X0085981Y0244103D01*
X0085732Y0243502D01*
X0085371Y0242962D01*
X0084911Y0242502D01*
X0084370Y0242141D01*
X0083770Y0241892D01*
X0083132Y0241766D01*
X0083007Y0241766D01*
X0083007Y0244866D01*
X0083007Y0245266D02*
X0086107Y0245266D01*
X0086107Y0245391D01*
X0085981Y0246028D01*
X0085732Y0246629D01*
X0085371Y0247169D01*
X0084911Y0247629D01*
X0084370Y0247990D01*
X0083770Y0248239D01*
X0083132Y0248366D01*
X0083007Y0248366D01*
X0083007Y0245266D01*
X0083007Y0245505D02*
X0082607Y0245505D01*
X0082607Y0244907D02*
X0073358Y0244907D01*
X0072321Y0245505D02*
X0079530Y0245505D01*
X0079666Y0246104D02*
X0070540Y0246104D01*
X0068307Y0246702D02*
X0079932Y0246702D01*
X0080376Y0247301D02*
X0056440Y0247301D01*
X0056327Y0247247D02*
X0056327Y0247247D01*
X0057683Y0247899D02*
X0081109Y0247899D01*
X0082607Y0247899D02*
X0083007Y0247899D01*
X0083007Y0247301D02*
X0082607Y0247301D01*
X0082607Y0246702D02*
X0083007Y0246702D01*
X0083007Y0246104D02*
X0082607Y0246104D01*
X0082607Y0244308D02*
X0083007Y0244308D01*
X0083007Y0243710D02*
X0082607Y0243710D01*
X0082607Y0243111D02*
X0083007Y0243111D01*
X0083007Y0242513D02*
X0082607Y0242513D01*
X0082607Y0241914D02*
X0083007Y0241914D01*
X0083823Y0241914D02*
X0110335Y0241914D01*
X0111151Y0241914D02*
X0111551Y0241914D01*
X0111551Y0242513D02*
X0111151Y0242513D01*
X0111151Y0243111D02*
X0111551Y0243111D01*
X0111551Y0243710D02*
X0111151Y0243710D01*
X0111151Y0244308D02*
X0111551Y0244308D01*
X0111551Y0245505D02*
X0111151Y0245505D01*
X0111151Y0246104D02*
X0111551Y0246104D01*
X0111551Y0246702D02*
X0111151Y0246702D01*
X0111151Y0247301D02*
X0111551Y0247301D01*
X0111551Y0247899D02*
X0111151Y0247899D01*
X0109652Y0247899D02*
X0084506Y0247899D01*
X0085239Y0247301D02*
X0108919Y0247301D01*
X0108475Y0246702D02*
X0085683Y0246702D01*
X0085949Y0246104D02*
X0108209Y0246104D01*
X0108073Y0245505D02*
X0086085Y0245505D01*
X0086021Y0244308D02*
X0108137Y0244308D01*
X0108340Y0243710D02*
X0085818Y0243710D01*
X0085470Y0243111D02*
X0108688Y0243111D01*
X0109237Y0242513D02*
X0084921Y0242513D01*
X0081792Y0241914D02*
X0077200Y0241914D01*
X0077799Y0241316D02*
X0296886Y0241316D01*
X0296886Y0241713D02*
X0296886Y0240330D01*
X0297415Y0239053D01*
X0298393Y0238076D01*
X0299670Y0237547D01*
X0301052Y0237547D01*
X0302329Y0238076D01*
X0303307Y0239053D01*
X0303836Y0240330D01*
X0303836Y0241713D01*
X0303307Y0242990D01*
X0302329Y0243967D01*
X0301052Y0244496D01*
X0299670Y0244496D01*
X0298393Y0243967D01*
X0297415Y0242990D01*
X0296886Y0241713D01*
X0296970Y0241914D02*
X0112366Y0241914D01*
X0113465Y0242513D02*
X0297218Y0242513D01*
X0297537Y0243111D02*
X0185029Y0243111D01*
X0185113Y0243146D02*
X0185811Y0243844D01*
X0186188Y0244756D01*
X0186188Y0245743D01*
X0185811Y0246655D01*
X0185113Y0247353D01*
X0184201Y0247730D01*
X0183214Y0247730D01*
X0182302Y0247353D01*
X0181604Y0246655D01*
X0181226Y0245743D01*
X0181226Y0244756D01*
X0181604Y0243844D01*
X0182302Y0243146D01*
X0183214Y0242768D01*
X0184201Y0242768D01*
X0185113Y0243146D01*
X0185677Y0243710D02*
X0298135Y0243710D01*
X0299216Y0244308D02*
X0186003Y0244308D01*
X0186188Y0244907D02*
X0326576Y0244907D01*
X0325540Y0244308D02*
X0314227Y0244308D01*
X0314007Y0244455D02*
X0313302Y0244747D01*
X0312554Y0244896D01*
X0312472Y0244896D01*
X0312472Y0241322D01*
X0311872Y0241322D01*
X0311872Y0244896D01*
X0311790Y0244896D01*
X0311042Y0244747D01*
X0310337Y0244455D01*
X0309702Y0244031D01*
X0309162Y0243492D01*
X0308738Y0242857D01*
X0308446Y0242152D01*
X0308297Y0241403D01*
X0308297Y0241321D01*
X0311872Y0241321D01*
X0311872Y0240722D01*
X0308297Y0240722D01*
X0308297Y0240640D01*
X0308446Y0239891D01*
X0308738Y0239186D01*
X0309162Y0238551D01*
X0309702Y0238012D01*
X0310337Y0237588D01*
X0311042Y0237296D01*
X0311790Y0237147D01*
X0311872Y0237147D01*
X0311872Y0240721D01*
X0312472Y0240721D01*
X0312472Y0237147D01*
X0312554Y0237147D01*
X0313302Y0237296D01*
X0314007Y0237588D01*
X0314642Y0238012D01*
X0315182Y0238551D01*
X0315606Y0239186D01*
X0315898Y0239891D01*
X0316047Y0240640D01*
X0316047Y0240722D01*
X0312472Y0240722D01*
X0312472Y0241321D01*
X0316047Y0241321D01*
X0316047Y0241403D01*
X0315898Y0242152D01*
X0315606Y0242857D01*
X0315182Y0243492D01*
X0314642Y0244031D01*
X0314007Y0244455D01*
X0314963Y0243710D02*
X0324530Y0243710D01*
X0324566Y0243746D02*
X0321759Y0240939D01*
X0319774Y0237500D01*
X0318746Y0233665D01*
X0318746Y0229695D01*
X0319774Y0225859D01*
X0321759Y0222421D01*
X0324566Y0219613D01*
X0328005Y0217628D01*
X0331840Y0216600D01*
X0335811Y0216600D01*
X0339646Y0217628D01*
X0343084Y0219613D01*
X0345892Y0222421D01*
X0347877Y0225859D01*
X0348905Y0229695D01*
X0348905Y0233665D01*
X0347877Y0237500D01*
X0345892Y0240939D01*
X0343084Y0243746D01*
X0339646Y0245732D01*
X0335811Y0246759D01*
X0331840Y0246759D01*
X0328005Y0245732D01*
X0324566Y0243746D01*
X0323931Y0243111D02*
X0315436Y0243111D01*
X0315748Y0242513D02*
X0323333Y0242513D01*
X0322734Y0241914D02*
X0315945Y0241914D01*
X0316047Y0240717D02*
X0321631Y0240717D01*
X0321285Y0240119D02*
X0315943Y0240119D01*
X0315744Y0239520D02*
X0320940Y0239520D01*
X0320594Y0238922D02*
X0315429Y0238922D01*
X0314953Y0238323D02*
X0320249Y0238323D01*
X0319903Y0237725D02*
X0314212Y0237725D01*
X0312472Y0237725D02*
X0311872Y0237725D01*
X0311872Y0238323D02*
X0312472Y0238323D01*
X0312472Y0238922D02*
X0311872Y0238922D01*
X0311872Y0239520D02*
X0312472Y0239520D01*
X0312472Y0240119D02*
X0311872Y0240119D01*
X0311872Y0240717D02*
X0312472Y0240717D01*
X0312472Y0241316D02*
X0322136Y0241316D01*
X0319673Y0237126D02*
X0307642Y0237126D01*
X0308235Y0236881D02*
X0306958Y0237410D01*
X0305575Y0237410D01*
X0304298Y0236881D01*
X0303321Y0235903D01*
X0302792Y0234626D01*
X0302792Y0233244D01*
X0303321Y0231967D01*
X0304298Y0230989D01*
X0305575Y0230460D01*
X0306958Y0230460D01*
X0308235Y0230989D01*
X0309212Y0231967D01*
X0309741Y0233244D01*
X0309741Y0234626D01*
X0309212Y0235903D01*
X0308235Y0236881D01*
X0308588Y0236528D02*
X0319513Y0236528D01*
X0319353Y0235929D02*
X0309186Y0235929D01*
X0309449Y0235331D02*
X0319192Y0235331D01*
X0319032Y0234732D02*
X0309697Y0234732D01*
X0309741Y0234134D02*
X0318871Y0234134D01*
X0318746Y0233535D02*
X0309741Y0233535D01*
X0309614Y0232937D02*
X0318746Y0232937D01*
X0318746Y0232338D02*
X0309366Y0232338D01*
X0308985Y0231740D02*
X0318746Y0231740D01*
X0318746Y0231141D02*
X0308387Y0231141D01*
X0307157Y0230543D02*
X0318746Y0230543D01*
X0318746Y0229944D02*
X0179479Y0229944D01*
X0179294Y0230129D02*
X0177554Y0230129D01*
X0176324Y0228899D01*
X0176324Y0227160D01*
X0177554Y0225929D01*
X0179294Y0225929D01*
X0180524Y0227160D01*
X0180524Y0228899D01*
X0179294Y0230129D01*
X0180078Y0229346D02*
X0318839Y0229346D01*
X0319000Y0228747D02*
X0180524Y0228747D01*
X0180524Y0228149D02*
X0319160Y0228149D01*
X0319321Y0227550D02*
X0180524Y0227550D01*
X0180316Y0226952D02*
X0319481Y0226952D01*
X0319641Y0226353D02*
X0179717Y0226353D01*
X0177130Y0226353D02*
X0080293Y0226353D01*
X0080453Y0226952D02*
X0176532Y0226952D01*
X0176324Y0227550D02*
X0080614Y0227550D01*
X0080774Y0228149D02*
X0176324Y0228149D01*
X0176324Y0228747D02*
X0080935Y0228747D01*
X0081095Y0229346D02*
X0176770Y0229346D01*
X0177369Y0229944D02*
X0081188Y0229944D01*
X0081188Y0230543D02*
X0086648Y0230543D01*
X0086402Y0230592D02*
X0087150Y0230443D01*
X0087232Y0230443D01*
X0087232Y0234018D01*
X0083657Y0234018D01*
X0083657Y0233936D01*
X0083806Y0233187D01*
X0084098Y0232482D01*
X0084522Y0231848D01*
X0085062Y0231308D01*
X0085696Y0230884D01*
X0086402Y0230592D01*
X0087232Y0230543D02*
X0087832Y0230543D01*
X0087832Y0230443D02*
X0087913Y0230443D01*
X0088662Y0230592D01*
X0089367Y0230884D01*
X0090002Y0231308D01*
X0090541Y0231848D01*
X0090966Y0232482D01*
X0091258Y0233187D01*
X0091407Y0233936D01*
X0091407Y0234018D01*
X0087832Y0234018D01*
X0087832Y0234618D01*
X0087232Y0234618D01*
X0087232Y0238192D01*
X0087150Y0238192D01*
X0086402Y0238043D01*
X0085696Y0237751D01*
X0085062Y0237327D01*
X0084522Y0236788D01*
X0084098Y0236153D01*
X0083806Y0235448D01*
X0083657Y0234699D01*
X0083657Y0234618D01*
X0087232Y0234618D01*
X0087232Y0234018D01*
X0087832Y0234018D01*
X0087832Y0230443D01*
X0088415Y0230543D02*
X0105743Y0230543D01*
X0105496Y0230592D02*
X0106245Y0230443D01*
X0106326Y0230443D01*
X0106326Y0234018D01*
X0102751Y0234018D01*
X0102751Y0233936D01*
X0102900Y0233187D01*
X0103192Y0232482D01*
X0103616Y0231848D01*
X0104156Y0231308D01*
X0104791Y0230884D01*
X0105496Y0230592D01*
X0106326Y0230543D02*
X0106926Y0230543D01*
X0106926Y0230443D02*
X0107008Y0230443D01*
X0107756Y0230592D01*
X0108462Y0230884D01*
X0109096Y0231308D01*
X0109636Y0231848D01*
X0110060Y0232482D01*
X0110352Y0233187D01*
X0110501Y0233936D01*
X0110501Y0234018D01*
X0106926Y0234018D01*
X0106926Y0234618D01*
X0106326Y0234618D01*
X0106326Y0238192D01*
X0106245Y0238192D01*
X0105496Y0238043D01*
X0104791Y0237751D01*
X0104156Y0237327D01*
X0103616Y0236788D01*
X0103192Y0236153D01*
X0102900Y0235448D01*
X0102751Y0234699D01*
X0102751Y0234618D01*
X0106326Y0234618D01*
X0106326Y0234018D01*
X0106926Y0234018D01*
X0106926Y0230443D01*
X0107510Y0230543D02*
X0305376Y0230543D01*
X0304146Y0231141D02*
X0108847Y0231141D01*
X0109528Y0231740D02*
X0303548Y0231740D01*
X0303167Y0232338D02*
X0109964Y0232338D01*
X0110248Y0232937D02*
X0302919Y0232937D01*
X0302792Y0233535D02*
X0110421Y0233535D01*
X0110501Y0234618D02*
X0106926Y0234618D01*
X0106926Y0238192D01*
X0107008Y0238192D01*
X0107756Y0238043D01*
X0108462Y0237751D01*
X0109096Y0237327D01*
X0109636Y0236788D01*
X0110060Y0236153D01*
X0110352Y0235448D01*
X0110501Y0234699D01*
X0110501Y0234618D01*
X0110494Y0234732D02*
X0302836Y0234732D01*
X0302792Y0234134D02*
X0106926Y0234134D01*
X0106926Y0234732D02*
X0106326Y0234732D01*
X0106326Y0234134D02*
X0087832Y0234134D01*
X0087832Y0234618D02*
X0091407Y0234618D01*
X0091407Y0234699D01*
X0091258Y0235448D01*
X0090966Y0236153D01*
X0090541Y0236788D01*
X0090002Y0237327D01*
X0089367Y0237751D01*
X0088662Y0238043D01*
X0087913Y0238192D01*
X0087832Y0238192D01*
X0087832Y0234618D01*
X0087832Y0234732D02*
X0087232Y0234732D01*
X0087232Y0234134D02*
X0081063Y0234134D01*
X0081188Y0233535D02*
X0083737Y0233535D01*
X0083910Y0232937D02*
X0081188Y0232937D01*
X0081188Y0232338D02*
X0084194Y0232338D01*
X0084630Y0231740D02*
X0081188Y0231740D01*
X0081188Y0231141D02*
X0085311Y0231141D01*
X0087232Y0231141D02*
X0087832Y0231141D01*
X0087832Y0231740D02*
X0087232Y0231740D01*
X0087232Y0232338D02*
X0087832Y0232338D01*
X0087832Y0232937D02*
X0087232Y0232937D01*
X0087232Y0233535D02*
X0087832Y0233535D01*
X0087832Y0235331D02*
X0087232Y0235331D01*
X0087232Y0235929D02*
X0087832Y0235929D01*
X0087832Y0236528D02*
X0087232Y0236528D01*
X0087232Y0237126D02*
X0087832Y0237126D01*
X0087832Y0237725D02*
X0087232Y0237725D01*
X0085656Y0237725D02*
X0080031Y0237725D01*
X0080261Y0237126D02*
X0084861Y0237126D01*
X0084348Y0236528D02*
X0080421Y0236528D01*
X0080582Y0235929D02*
X0084005Y0235929D01*
X0083783Y0235331D02*
X0080742Y0235331D01*
X0080903Y0234732D02*
X0083664Y0234732D01*
X0079686Y0238323D02*
X0298145Y0238323D01*
X0297547Y0238922D02*
X0079340Y0238922D01*
X0078995Y0239520D02*
X0297222Y0239520D01*
X0296974Y0240119D02*
X0078649Y0240119D01*
X0078303Y0240717D02*
X0296886Y0240717D01*
X0299240Y0237725D02*
X0108502Y0237725D01*
X0109297Y0237126D02*
X0304891Y0237126D01*
X0303945Y0236528D02*
X0109810Y0236528D01*
X0110153Y0235929D02*
X0303347Y0235929D01*
X0303083Y0235331D02*
X0110375Y0235331D01*
X0106926Y0235331D02*
X0106326Y0235331D01*
X0106326Y0235929D02*
X0106926Y0235929D01*
X0106926Y0236528D02*
X0106326Y0236528D01*
X0106326Y0237126D02*
X0106926Y0237126D01*
X0106926Y0237725D02*
X0106326Y0237725D01*
X0104751Y0237725D02*
X0089407Y0237725D01*
X0090203Y0237126D02*
X0103955Y0237126D01*
X0103443Y0236528D02*
X0090715Y0236528D01*
X0091058Y0235929D02*
X0103100Y0235929D01*
X0102877Y0235331D02*
X0091281Y0235331D01*
X0091400Y0234732D02*
X0102758Y0234732D01*
X0102831Y0233535D02*
X0091327Y0233535D01*
X0091154Y0232937D02*
X0103004Y0232937D01*
X0103289Y0232338D02*
X0090869Y0232338D01*
X0090434Y0231740D02*
X0103724Y0231740D01*
X0104406Y0231141D02*
X0089752Y0231141D01*
X0080100Y0225755D02*
X0319834Y0225755D01*
X0320180Y0225156D02*
X0079755Y0225156D01*
X0079409Y0224557D02*
X0320525Y0224557D01*
X0320871Y0223959D02*
X0079064Y0223959D01*
X0078718Y0223360D02*
X0321216Y0223360D01*
X0321562Y0222762D02*
X0248476Y0222762D01*
X0248697Y0222670D02*
X0247960Y0222976D01*
X0247177Y0223131D01*
X0247078Y0223131D01*
X0247078Y0219381D01*
X0250828Y0219381D01*
X0250828Y0219480D01*
X0250673Y0220263D01*
X0250367Y0221000D01*
X0249924Y0221663D01*
X0249360Y0222227D01*
X0248697Y0222670D01*
X0249424Y0222163D02*
X0254698Y0222163D01*
X0254711Y0222176D02*
X0253684Y0221149D01*
X0253128Y0219807D01*
X0253128Y0218355D01*
X0253684Y0217014D01*
X0254711Y0215987D01*
X0256052Y0215431D01*
X0257504Y0215431D01*
X0258846Y0215987D01*
X0259873Y0217014D01*
X0260428Y0218355D01*
X0260428Y0219807D01*
X0259873Y0221149D01*
X0258846Y0222176D01*
X0257504Y0222731D01*
X0256052Y0222731D01*
X0254711Y0222176D01*
X0254100Y0221565D02*
X0249990Y0221565D01*
X0250381Y0220966D02*
X0253608Y0220966D01*
X0253360Y0220368D02*
X0250629Y0220368D01*
X0250771Y0219769D02*
X0253128Y0219769D01*
X0253128Y0219171D02*
X0247078Y0219171D01*
X0247078Y0219381D02*
X0247078Y0218781D01*
X0247078Y0215031D01*
X0247177Y0215031D01*
X0247960Y0215187D01*
X0248697Y0215492D01*
X0249360Y0215936D01*
X0249924Y0216500D01*
X0250367Y0217163D01*
X0250673Y0217900D01*
X0250828Y0218682D01*
X0250828Y0218781D01*
X0247078Y0218781D01*
X0246478Y0218781D01*
X0246478Y0215031D01*
X0246379Y0215031D01*
X0245597Y0215187D01*
X0244860Y0215492D01*
X0244196Y0215936D01*
X0243632Y0216500D01*
X0243189Y0217163D01*
X0242884Y0217900D01*
X0242728Y0218682D01*
X0242728Y0218781D01*
X0246478Y0218781D01*
X0246478Y0219381D01*
X0242728Y0219381D01*
X0242728Y0219480D01*
X0242884Y0220263D01*
X0243189Y0221000D01*
X0243632Y0221663D01*
X0244196Y0222227D01*
X0244860Y0222670D01*
X0245597Y0222976D01*
X0246379Y0223131D01*
X0246478Y0223131D01*
X0246478Y0219381D01*
X0247078Y0219381D01*
X0247078Y0219769D02*
X0246478Y0219769D01*
X0246478Y0219171D02*
X0240428Y0219171D01*
X0240428Y0219769D02*
X0242786Y0219769D01*
X0242927Y0220368D02*
X0240196Y0220368D01*
X0240428Y0219807D02*
X0239873Y0221149D01*
X0238846Y0222176D01*
X0237504Y0222731D01*
X0236052Y0222731D01*
X0234711Y0222176D01*
X0233684Y0221149D01*
X0233128Y0219807D01*
X0233128Y0218355D01*
X0233684Y0217014D01*
X0234711Y0215987D01*
X0236052Y0215431D01*
X0237504Y0215431D01*
X0238846Y0215987D01*
X0239873Y0217014D01*
X0240428Y0218355D01*
X0240428Y0219807D01*
X0240428Y0218572D02*
X0242750Y0218572D01*
X0242869Y0217974D02*
X0240270Y0217974D01*
X0240022Y0217375D02*
X0243101Y0217375D01*
X0243447Y0216777D02*
X0239636Y0216777D01*
X0239037Y0216178D02*
X0243954Y0216178D01*
X0244729Y0215580D02*
X0237863Y0215580D01*
X0235694Y0215580D02*
X0221859Y0215580D01*
X0221728Y0215492D02*
X0222391Y0215936D01*
X0222956Y0216500D01*
X0223399Y0217163D01*
X0223704Y0217900D01*
X0223860Y0218682D01*
X0223860Y0218781D01*
X0220110Y0218781D01*
X0220110Y0219381D01*
X0223860Y0219381D01*
X0223860Y0219480D01*
X0223704Y0220263D01*
X0223399Y0221000D01*
X0222956Y0221663D01*
X0222391Y0222227D01*
X0221728Y0222670D01*
X0220991Y0222976D01*
X0220209Y0223131D01*
X0220110Y0223131D01*
X0220110Y0219381D01*
X0219510Y0219381D01*
X0219510Y0218781D01*
X0220110Y0218781D01*
X0220110Y0215031D01*
X0220209Y0215031D01*
X0220991Y0215187D01*
X0221728Y0215492D01*
X0222634Y0216178D02*
X0234519Y0216178D01*
X0233921Y0216777D02*
X0223141Y0216777D01*
X0223487Y0217375D02*
X0233534Y0217375D01*
X0233286Y0217974D02*
X0223719Y0217974D01*
X0223838Y0218572D02*
X0233128Y0218572D01*
X0233128Y0219171D02*
X0220110Y0219171D01*
X0220110Y0219769D02*
X0219510Y0219769D01*
X0219510Y0219381D02*
X0219510Y0223131D01*
X0219411Y0223131D01*
X0218628Y0222976D01*
X0217891Y0222670D01*
X0217228Y0222227D01*
X0216664Y0221663D01*
X0216221Y0221000D01*
X0215915Y0220263D01*
X0215760Y0219480D01*
X0215760Y0219381D01*
X0219510Y0219381D01*
X0219510Y0219171D02*
X0213460Y0219171D01*
X0213460Y0219769D02*
X0215817Y0219769D01*
X0215959Y0220368D02*
X0213228Y0220368D01*
X0213460Y0219807D02*
X0212904Y0221149D01*
X0211877Y0222176D01*
X0210536Y0222731D01*
X0209084Y0222731D01*
X0207742Y0222176D01*
X0206715Y0221149D01*
X0206160Y0219807D01*
X0206160Y0218355D01*
X0206715Y0217014D01*
X0207742Y0215987D01*
X0209084Y0215431D01*
X0210536Y0215431D01*
X0211877Y0215987D01*
X0212904Y0217014D01*
X0213460Y0218355D01*
X0213460Y0219807D01*
X0213460Y0218572D02*
X0215782Y0218572D01*
X0215760Y0218682D02*
X0215915Y0217900D01*
X0216221Y0217163D01*
X0216664Y0216500D01*
X0217228Y0215936D01*
X0217891Y0215492D01*
X0218628Y0215187D01*
X0219411Y0215031D01*
X0219510Y0215031D01*
X0219510Y0218781D01*
X0215760Y0218781D01*
X0215760Y0218682D01*
X0215901Y0217974D02*
X0213302Y0217974D01*
X0213054Y0217375D02*
X0216133Y0217375D01*
X0216479Y0216777D02*
X0212667Y0216777D01*
X0212069Y0216178D02*
X0216985Y0216178D01*
X0217760Y0215580D02*
X0210894Y0215580D01*
X0208725Y0215580D02*
X0200894Y0215580D01*
X0202069Y0216178D02*
X0207551Y0216178D01*
X0206952Y0216777D02*
X0202667Y0216777D01*
X0203054Y0217375D02*
X0206566Y0217375D01*
X0206318Y0217974D02*
X0203302Y0217974D01*
X0203460Y0218572D02*
X0206160Y0218572D01*
X0206160Y0219171D02*
X0203460Y0219171D01*
X0203460Y0219769D02*
X0206160Y0219769D01*
X0206392Y0220368D02*
X0203228Y0220368D01*
X0202980Y0220966D02*
X0206640Y0220966D01*
X0207131Y0221565D02*
X0202488Y0221565D01*
X0201890Y0222163D02*
X0207730Y0222163D01*
X0211890Y0222163D02*
X0217164Y0222163D01*
X0216598Y0221565D02*
X0212488Y0221565D01*
X0212980Y0220966D02*
X0216207Y0220966D01*
X0218112Y0222762D02*
X0078373Y0222762D01*
X0077918Y0222163D02*
X0197730Y0222163D01*
X0197131Y0221565D02*
X0077320Y0221565D01*
X0076721Y0220966D02*
X0196640Y0220966D01*
X0196392Y0220368D02*
X0076123Y0220368D01*
X0076602Y0242513D02*
X0080693Y0242513D01*
X0080144Y0243111D02*
X0076003Y0243111D01*
X0075405Y0243710D02*
X0079797Y0243710D01*
X0079593Y0244308D02*
X0074395Y0244308D01*
X0106326Y0233535D02*
X0106926Y0233535D01*
X0106926Y0232937D02*
X0106326Y0232937D01*
X0106326Y0232338D02*
X0106926Y0232338D01*
X0106926Y0231740D02*
X0106326Y0231740D01*
X0106326Y0231141D02*
X0106926Y0231141D01*
X0114014Y0243111D02*
X0175535Y0243111D01*
X0174888Y0243710D02*
X0114361Y0243710D01*
X0126061Y0219171D02*
X0141858Y0219171D01*
X0142151Y0219292D02*
X0140193Y0218481D01*
X0138693Y0216982D01*
X0137882Y0215023D01*
X0137882Y0212903D01*
X0138693Y0210945D01*
X0140193Y0209445D01*
X0142151Y0208634D01*
X0144271Y0208634D01*
X0146230Y0209445D01*
X0147729Y0210945D01*
X0148540Y0212903D01*
X0148540Y0215023D01*
X0147729Y0216982D01*
X0146230Y0218481D01*
X0144271Y0219292D01*
X0142151Y0219292D01*
X0140413Y0218572D02*
X0127506Y0218572D01*
X0128233Y0217974D02*
X0139685Y0217974D01*
X0139087Y0217375D02*
X0128832Y0217375D01*
X0129310Y0216777D02*
X0138609Y0216777D01*
X0138361Y0216178D02*
X0129558Y0216178D01*
X0129806Y0215580D02*
X0138113Y0215580D01*
X0137882Y0214981D02*
X0130036Y0214981D01*
X0130036Y0214383D02*
X0137882Y0214383D01*
X0137882Y0213784D02*
X0130036Y0213784D01*
X0130036Y0213186D02*
X0137882Y0213186D01*
X0138013Y0212587D02*
X0129906Y0212587D01*
X0129658Y0211989D02*
X0138261Y0211989D01*
X0138509Y0211390D02*
X0129410Y0211390D01*
X0129072Y0210792D02*
X0138846Y0210792D01*
X0139445Y0210193D02*
X0128474Y0210193D01*
X0127875Y0209595D02*
X0140043Y0209595D01*
X0141277Y0208996D02*
X0126641Y0208996D01*
X0145145Y0208996D02*
X0159781Y0208996D01*
X0158547Y0209595D02*
X0146379Y0209595D01*
X0146978Y0210193D02*
X0157949Y0210193D01*
X0157350Y0210792D02*
X0147576Y0210792D01*
X0147914Y0211390D02*
X0157013Y0211390D01*
X0156765Y0211989D02*
X0148162Y0211989D01*
X0148410Y0212587D02*
X0156517Y0212587D01*
X0156386Y0213186D02*
X0148540Y0213186D01*
X0148540Y0213784D02*
X0156386Y0213784D01*
X0156386Y0214383D02*
X0148540Y0214383D01*
X0148540Y0214981D02*
X0156386Y0214981D01*
X0156617Y0215580D02*
X0148310Y0215580D01*
X0148062Y0216178D02*
X0156865Y0216178D01*
X0157112Y0216777D02*
X0147814Y0216777D01*
X0147336Y0217375D02*
X0157591Y0217375D01*
X0158189Y0217974D02*
X0146737Y0217974D01*
X0146010Y0218572D02*
X0158917Y0218572D01*
X0160362Y0219171D02*
X0144565Y0219171D01*
X0178179Y0243111D02*
X0182386Y0243111D01*
X0181738Y0243710D02*
X0178826Y0243710D01*
X0179153Y0244308D02*
X0181412Y0244308D01*
X0181226Y0244907D02*
X0179338Y0244907D01*
X0179338Y0245505D02*
X0181226Y0245505D01*
X0181376Y0246104D02*
X0179189Y0246104D01*
X0178913Y0246702D02*
X0181652Y0246702D01*
X0182250Y0247301D02*
X0178314Y0247301D01*
X0185165Y0247301D02*
X0343495Y0247301D01*
X0344290Y0246702D02*
X0336023Y0246702D01*
X0338257Y0246104D02*
X0345040Y0246104D01*
X0345791Y0245505D02*
X0340038Y0245505D01*
X0341075Y0244907D02*
X0346541Y0244907D01*
X0347122Y0244308D02*
X0342111Y0244308D01*
X0343121Y0243710D02*
X0347599Y0243710D01*
X0348077Y0243111D02*
X0343720Y0243111D01*
X0344318Y0242513D02*
X0348554Y0242513D01*
X0349031Y0241914D02*
X0344917Y0241914D01*
X0345515Y0241316D02*
X0349463Y0241316D01*
X0349751Y0240717D02*
X0346020Y0240717D01*
X0346366Y0240119D02*
X0350039Y0240119D01*
X0350327Y0239520D02*
X0346711Y0239520D01*
X0347057Y0238922D02*
X0350615Y0238922D01*
X0350904Y0238323D02*
X0347402Y0238323D01*
X0347748Y0237725D02*
X0351185Y0237725D01*
X0351322Y0237126D02*
X0347978Y0237126D01*
X0348138Y0236528D02*
X0351458Y0236528D01*
X0351595Y0235929D02*
X0348298Y0235929D01*
X0348459Y0235331D02*
X0351731Y0235331D01*
X0351868Y0234732D02*
X0348619Y0234732D01*
X0348779Y0234134D02*
X0352005Y0234134D01*
X0352106Y0233535D02*
X0348905Y0233535D01*
X0348905Y0232937D02*
X0352140Y0232937D01*
X0352174Y0232338D02*
X0348905Y0232338D01*
X0348905Y0231740D02*
X0352207Y0231740D01*
X0352210Y0231141D02*
X0348905Y0231141D01*
X0348905Y0230543D02*
X0352210Y0230543D01*
X0352210Y0229944D02*
X0348905Y0229944D01*
X0348811Y0229346D02*
X0352210Y0229346D01*
X0352210Y0228747D02*
X0348651Y0228747D01*
X0348491Y0228149D02*
X0352210Y0228149D01*
X0352210Y0227550D02*
X0348330Y0227550D01*
X0348170Y0226952D02*
X0352210Y0226952D01*
X0352210Y0226353D02*
X0348010Y0226353D01*
X0347817Y0225755D02*
X0352210Y0225755D01*
X0352210Y0225156D02*
X0347471Y0225156D01*
X0347126Y0224557D02*
X0352210Y0224557D01*
X0352210Y0223959D02*
X0346780Y0223959D01*
X0346435Y0223360D02*
X0352210Y0223360D01*
X0352210Y0222762D02*
X0346089Y0222762D01*
X0345635Y0222163D02*
X0352210Y0222163D01*
X0352210Y0221565D02*
X0345036Y0221565D01*
X0344438Y0220966D02*
X0352210Y0220966D01*
X0352210Y0220368D02*
X0343839Y0220368D01*
X0343241Y0219769D02*
X0352210Y0219769D01*
X0352210Y0219171D02*
X0342318Y0219171D01*
X0341282Y0218572D02*
X0352210Y0218572D01*
X0352210Y0217974D02*
X0340245Y0217974D01*
X0338703Y0217375D02*
X0352210Y0217375D01*
X0352210Y0216777D02*
X0336470Y0216777D01*
X0336257Y0213784D02*
X0352210Y0213784D01*
X0352210Y0213186D02*
X0337496Y0213186D01*
X0338094Y0212587D02*
X0352210Y0212587D01*
X0352210Y0211989D02*
X0338693Y0211989D01*
X0339179Y0211390D02*
X0352210Y0211390D01*
X0352210Y0210792D02*
X0339427Y0210792D01*
X0339675Y0210193D02*
X0352210Y0210193D01*
X0352210Y0209595D02*
X0339923Y0209595D01*
X0340047Y0208996D02*
X0352210Y0208996D01*
X0352210Y0208398D02*
X0340047Y0208398D01*
X0331394Y0213784D02*
X0187724Y0213784D01*
X0187724Y0213186D02*
X0330155Y0213186D01*
X0329557Y0212587D02*
X0187552Y0212587D01*
X0186953Y0211989D02*
X0328958Y0211989D01*
X0331181Y0216777D02*
X0289636Y0216777D01*
X0289873Y0217014D02*
X0290428Y0218355D01*
X0290428Y0219807D01*
X0289873Y0221149D01*
X0288846Y0222176D01*
X0287504Y0222731D01*
X0286052Y0222731D01*
X0284711Y0222176D01*
X0283684Y0221149D01*
X0283128Y0219807D01*
X0283128Y0218355D01*
X0283684Y0217014D01*
X0284711Y0215987D01*
X0286052Y0215431D01*
X0287504Y0215431D01*
X0288846Y0215987D01*
X0289873Y0217014D01*
X0290022Y0217375D02*
X0328948Y0217375D01*
X0327406Y0217974D02*
X0290270Y0217974D01*
X0290428Y0218572D02*
X0326369Y0218572D01*
X0325332Y0219171D02*
X0290428Y0219171D01*
X0290428Y0219769D02*
X0324410Y0219769D01*
X0323812Y0220368D02*
X0290196Y0220368D01*
X0289948Y0220966D02*
X0323213Y0220966D01*
X0322615Y0221565D02*
X0289457Y0221565D01*
X0288858Y0222163D02*
X0322016Y0222163D01*
X0310131Y0237725D02*
X0301482Y0237725D01*
X0302577Y0238323D02*
X0309390Y0238323D01*
X0308915Y0238922D02*
X0303175Y0238922D01*
X0303500Y0239520D02*
X0308600Y0239520D01*
X0308401Y0240119D02*
X0303748Y0240119D01*
X0303836Y0240717D02*
X0308297Y0240717D01*
X0308399Y0241914D02*
X0303752Y0241914D01*
X0303836Y0241316D02*
X0311872Y0241316D01*
X0311872Y0241914D02*
X0312472Y0241914D01*
X0312472Y0242513D02*
X0311872Y0242513D01*
X0311872Y0243111D02*
X0312472Y0243111D01*
X0312472Y0243710D02*
X0311872Y0243710D01*
X0311872Y0244308D02*
X0312472Y0244308D01*
X0310117Y0244308D02*
X0301506Y0244308D01*
X0302587Y0243710D02*
X0309380Y0243710D01*
X0308908Y0243111D02*
X0303185Y0243111D01*
X0303504Y0242513D02*
X0308596Y0242513D01*
X0327613Y0245505D02*
X0186188Y0245505D01*
X0186039Y0246104D02*
X0329394Y0246104D01*
X0331628Y0246702D02*
X0185763Y0246702D01*
X0219510Y0222762D02*
X0220110Y0222762D01*
X0220110Y0222163D02*
X0219510Y0222163D01*
X0219510Y0221565D02*
X0220110Y0221565D01*
X0220110Y0220966D02*
X0219510Y0220966D01*
X0219510Y0220368D02*
X0220110Y0220368D01*
X0220110Y0218572D02*
X0219510Y0218572D01*
X0219510Y0217974D02*
X0220110Y0217974D01*
X0220110Y0217375D02*
X0219510Y0217375D01*
X0219510Y0216777D02*
X0220110Y0216777D01*
X0220110Y0216178D02*
X0219510Y0216178D01*
X0219510Y0215580D02*
X0220110Y0215580D01*
X0223802Y0219769D02*
X0233128Y0219769D01*
X0233360Y0220368D02*
X0223660Y0220368D01*
X0223413Y0220966D02*
X0233608Y0220966D01*
X0234100Y0221565D02*
X0223021Y0221565D01*
X0222455Y0222163D02*
X0234698Y0222163D01*
X0238858Y0222163D02*
X0244133Y0222163D01*
X0243567Y0221565D02*
X0239457Y0221565D01*
X0239948Y0220966D02*
X0243175Y0220966D01*
X0245081Y0222762D02*
X0221507Y0222762D01*
X0246478Y0222762D02*
X0247078Y0222762D01*
X0247078Y0222163D02*
X0246478Y0222163D01*
X0246478Y0221565D02*
X0247078Y0221565D01*
X0247078Y0220966D02*
X0246478Y0220966D01*
X0246478Y0220368D02*
X0247078Y0220368D01*
X0247078Y0218572D02*
X0246478Y0218572D01*
X0246478Y0217974D02*
X0247078Y0217974D01*
X0247078Y0217375D02*
X0246478Y0217375D01*
X0246478Y0216777D02*
X0247078Y0216777D01*
X0247078Y0216178D02*
X0246478Y0216178D01*
X0246478Y0215580D02*
X0247078Y0215580D01*
X0248828Y0215580D02*
X0255694Y0215580D01*
X0254519Y0216178D02*
X0249603Y0216178D01*
X0250109Y0216777D02*
X0253921Y0216777D01*
X0253534Y0217375D02*
X0250455Y0217375D01*
X0250687Y0217974D02*
X0253286Y0217974D01*
X0253128Y0218572D02*
X0250806Y0218572D01*
X0257863Y0215580D02*
X0265694Y0215580D01*
X0266052Y0215431D02*
X0267504Y0215431D01*
X0268846Y0215987D01*
X0269873Y0217014D01*
X0270428Y0218355D01*
X0270428Y0219807D01*
X0269873Y0221149D01*
X0268846Y0222176D01*
X0267504Y0222731D01*
X0266052Y0222731D01*
X0264711Y0222176D01*
X0263684Y0221149D01*
X0263128Y0219807D01*
X0263128Y0218355D01*
X0263684Y0217014D01*
X0264711Y0215987D01*
X0266052Y0215431D01*
X0264519Y0216178D02*
X0259037Y0216178D01*
X0259636Y0216777D02*
X0263921Y0216777D01*
X0263534Y0217375D02*
X0260022Y0217375D01*
X0260270Y0217974D02*
X0263286Y0217974D01*
X0263128Y0218572D02*
X0260428Y0218572D01*
X0260428Y0219171D02*
X0263128Y0219171D01*
X0263128Y0219769D02*
X0260428Y0219769D01*
X0260196Y0220368D02*
X0263360Y0220368D01*
X0263608Y0220966D02*
X0259948Y0220966D01*
X0259457Y0221565D02*
X0264100Y0221565D01*
X0264698Y0222163D02*
X0258858Y0222163D01*
X0267863Y0215580D02*
X0275694Y0215580D01*
X0276052Y0215431D02*
X0274711Y0215987D01*
X0273684Y0217014D01*
X0273128Y0218355D01*
X0273128Y0219807D01*
X0273684Y0221149D01*
X0274711Y0222176D01*
X0276052Y0222731D01*
X0277504Y0222731D01*
X0278846Y0222176D01*
X0279873Y0221149D01*
X0280428Y0219807D01*
X0280428Y0218355D01*
X0279873Y0217014D01*
X0278846Y0215987D01*
X0277504Y0215431D01*
X0276052Y0215431D01*
X0274519Y0216178D02*
X0269037Y0216178D01*
X0269636Y0216777D02*
X0273921Y0216777D01*
X0273534Y0217375D02*
X0270022Y0217375D01*
X0270270Y0217974D02*
X0273286Y0217974D01*
X0273128Y0218572D02*
X0270428Y0218572D01*
X0270428Y0219171D02*
X0273128Y0219171D01*
X0273128Y0219769D02*
X0270428Y0219769D01*
X0270196Y0220368D02*
X0273360Y0220368D01*
X0273608Y0220966D02*
X0269948Y0220966D01*
X0269457Y0221565D02*
X0274100Y0221565D01*
X0274698Y0222163D02*
X0268858Y0222163D01*
X0278858Y0222163D02*
X0284698Y0222163D01*
X0284100Y0221565D02*
X0279457Y0221565D01*
X0279948Y0220966D02*
X0283608Y0220966D01*
X0283360Y0220368D02*
X0280196Y0220368D01*
X0280428Y0219769D02*
X0283128Y0219769D01*
X0283128Y0219171D02*
X0280428Y0219171D01*
X0280428Y0218572D02*
X0283128Y0218572D01*
X0283286Y0217974D02*
X0280270Y0217974D01*
X0280022Y0217375D02*
X0283534Y0217375D01*
X0283921Y0216777D02*
X0279636Y0216777D01*
X0279037Y0216178D02*
X0284519Y0216178D01*
X0285694Y0215580D02*
X0277863Y0215580D01*
X0287863Y0215580D02*
X0352210Y0215580D01*
X0352210Y0216178D02*
X0289037Y0216178D01*
X0352210Y0214981D02*
X0187242Y0214981D01*
X0187724Y0214383D02*
X0352210Y0214383D01*
X0264824Y0165903D02*
X0236036Y0165903D01*
X0236319Y0165305D02*
X0264824Y0165305D01*
X0264824Y0164706D02*
X0236319Y0164706D01*
X0236319Y0164108D02*
X0264824Y0164108D01*
X0264824Y0163509D02*
X0235948Y0163509D01*
X0235349Y0162911D02*
X0264824Y0162911D01*
X0264824Y0146751D02*
X0236472Y0146751D01*
X0236524Y0146152D02*
X0264824Y0146152D01*
X0264824Y0145554D02*
X0236524Y0145554D01*
X0236520Y0144955D02*
X0264824Y0144955D01*
X0264824Y0144357D02*
X0235921Y0144357D01*
X0235323Y0143758D02*
X0264824Y0143758D01*
X0232443Y0119818D02*
X0162582Y0119818D01*
X0161984Y0119219D02*
X0232324Y0119219D01*
X0232324Y0118621D02*
X0153524Y0118621D01*
X0153524Y0119219D02*
X0160064Y0119219D01*
X0159465Y0119818D02*
X0153405Y0119818D01*
X0153524Y0119699D02*
X0152294Y0120929D01*
X0150554Y0120929D01*
X0149324Y0119699D01*
X0149324Y0117960D01*
X0150554Y0116729D01*
X0152294Y0116729D01*
X0153524Y0117960D01*
X0153524Y0119699D01*
X0152807Y0120417D02*
X0158924Y0120417D01*
X0158924Y0121015D02*
X0047724Y0121015D01*
X0047724Y0120417D02*
X0150041Y0120417D01*
X0149443Y0119818D02*
X0047724Y0119818D01*
X0047724Y0119219D02*
X0149324Y0119219D01*
X0149324Y0118621D02*
X0047724Y0118621D01*
X0047724Y0118022D02*
X0120348Y0118022D01*
X0120751Y0118425D02*
X0119521Y0117195D01*
X0119521Y0115456D01*
X0120751Y0114225D01*
X0122491Y0114225D01*
X0123721Y0115456D01*
X0123721Y0117195D01*
X0122491Y0118425D01*
X0120751Y0118425D01*
X0119749Y0117424D02*
X0047724Y0117424D01*
X0047724Y0116825D02*
X0119521Y0116825D01*
X0119521Y0116227D02*
X0047724Y0116227D01*
X0047724Y0115628D02*
X0119521Y0115628D01*
X0119946Y0115030D02*
X0078693Y0115030D01*
X0078194Y0115529D02*
X0076454Y0115529D01*
X0075224Y0114299D01*
X0075224Y0112560D01*
X0076454Y0111329D01*
X0078194Y0111329D01*
X0079424Y0112560D01*
X0079424Y0114299D01*
X0078194Y0115529D01*
X0079292Y0114431D02*
X0120545Y0114431D01*
X0122697Y0114431D02*
X0164852Y0114431D01*
X0164254Y0115030D02*
X0123295Y0115030D01*
X0123721Y0115628D02*
X0163724Y0115628D01*
X0163724Y0116227D02*
X0123721Y0116227D01*
X0123721Y0116825D02*
X0150458Y0116825D01*
X0149859Y0117424D02*
X0123492Y0117424D01*
X0122894Y0118022D02*
X0149324Y0118022D01*
X0152390Y0116825D02*
X0163724Y0116825D01*
X0163849Y0117424D02*
X0152988Y0117424D01*
X0153524Y0118022D02*
X0164447Y0118022D01*
X0167201Y0118022D02*
X0232324Y0118022D01*
X0232859Y0117424D02*
X0167799Y0117424D01*
X0167924Y0116825D02*
X0233458Y0116825D01*
X0242024Y0112636D02*
X0215787Y0112636D01*
X0216386Y0112037D02*
X0242024Y0112037D01*
X0242024Y0111439D02*
X0216524Y0111439D01*
X0216524Y0110840D02*
X0242343Y0110840D01*
X0242942Y0110242D02*
X0216524Y0110242D01*
X0213439Y0109045D02*
X0196724Y0109045D01*
X0196724Y0109643D02*
X0212840Y0109643D01*
X0212324Y0110242D02*
X0196724Y0110242D01*
X0196583Y0110840D02*
X0212324Y0110840D01*
X0212324Y0111439D02*
X0195984Y0111439D01*
X0193263Y0111439D02*
X0078303Y0111439D01*
X0078902Y0112037D02*
X0212462Y0112037D01*
X0213061Y0112636D02*
X0079424Y0112636D01*
X0079424Y0113234D02*
X0242359Y0113234D01*
X0242958Y0113833D02*
X0079424Y0113833D01*
X0075955Y0115030D02*
X0047724Y0115030D01*
X0047724Y0114431D02*
X0075356Y0114431D01*
X0075224Y0113833D02*
X0047724Y0113833D01*
X0047724Y0113234D02*
X0075224Y0113234D01*
X0075224Y0112636D02*
X0047724Y0112636D01*
X0047724Y0112037D02*
X0075746Y0112037D01*
X0076345Y0111439D02*
X0047724Y0111439D01*
X0047724Y0106052D02*
X0239177Y0106052D01*
X0238624Y0105454D02*
X0099969Y0105454D01*
X0100568Y0104855D02*
X0238624Y0104855D01*
X0238624Y0104257D02*
X0100724Y0104257D01*
X0100724Y0103658D02*
X0238725Y0103658D01*
X0239324Y0103060D02*
X0100724Y0103060D01*
X0097621Y0101863D02*
X0086727Y0101863D01*
X0086694Y0101829D02*
X0087924Y0103060D01*
X0096524Y0103060D01*
X0096524Y0103658D02*
X0087924Y0103658D01*
X0087924Y0103060D02*
X0087924Y0104799D01*
X0086694Y0106029D01*
X0084954Y0106029D01*
X0083724Y0104799D01*
X0083724Y0103060D01*
X0047724Y0103060D01*
X0047724Y0103658D02*
X0083724Y0103658D01*
X0083724Y0103060D02*
X0084954Y0101829D01*
X0086694Y0101829D01*
X0087326Y0102461D02*
X0097022Y0102461D01*
X0096524Y0104257D02*
X0087924Y0104257D01*
X0087868Y0104855D02*
X0096680Y0104855D01*
X0097278Y0105454D02*
X0087269Y0105454D01*
X0084378Y0105454D02*
X0047724Y0105454D01*
X0047724Y0104855D02*
X0083780Y0104855D01*
X0083724Y0104257D02*
X0047724Y0104257D01*
X0047724Y0102461D02*
X0084322Y0102461D01*
X0084921Y0101863D02*
X0047724Y0101863D01*
X0047724Y0095279D02*
X0117204Y0095279D01*
X0116724Y0094681D02*
X0047724Y0094681D01*
X0047724Y0094082D02*
X0116724Y0094082D01*
X0116724Y0093484D02*
X0047724Y0093484D01*
X0047724Y0092885D02*
X0116898Y0092885D01*
X0117497Y0092286D02*
X0047724Y0092286D01*
X0047724Y0121614D02*
X0157070Y0121614D01*
X0156471Y0122212D02*
X0047724Y0122212D01*
X0047724Y0122811D02*
X0155924Y0122811D01*
X0155924Y0123409D02*
X0047724Y0123409D01*
X0047724Y0124008D02*
X0155924Y0124008D01*
X0156031Y0124606D02*
X0047724Y0124606D01*
X0047724Y0140766D02*
X0100718Y0140766D01*
X0100119Y0141364D02*
X0047724Y0141364D01*
X0047724Y0141963D02*
X0099524Y0141963D01*
X0099524Y0142561D02*
X0047724Y0142561D01*
X0047724Y0143160D02*
X0099524Y0143160D01*
X0099583Y0143758D02*
X0047724Y0143758D01*
X0047724Y0174283D02*
X0205801Y0174283D01*
X0205202Y0174881D02*
X0047724Y0174881D01*
X0047724Y0175480D02*
X0205124Y0175480D01*
X0205124Y0176078D02*
X0047724Y0176078D01*
X0047724Y0176677D02*
X0089407Y0176677D01*
X0088808Y0177275D02*
X0047724Y0177275D01*
X0047724Y0177874D02*
X0088724Y0177874D01*
X0088724Y0178472D02*
X0047724Y0178472D01*
X0047724Y0179071D02*
X0088724Y0179071D01*
X0089294Y0179669D02*
X0047724Y0179669D01*
X0120957Y0100666D02*
X0177007Y0100666D01*
X0176607Y0100067D02*
X0121556Y0100067D01*
X0121724Y0099469D02*
X0176607Y0099469D01*
X0176607Y0098870D02*
X0121724Y0098870D01*
X0121724Y0098272D02*
X0176862Y0098272D01*
X0177461Y0097673D02*
X0121237Y0097673D01*
X0166796Y0114431D02*
X0259256Y0114431D01*
X0259124Y0113833D02*
X0245290Y0113833D01*
X0245889Y0113234D02*
X0259124Y0113234D01*
X0259124Y0112636D02*
X0246224Y0112636D01*
X0246224Y0112037D02*
X0259646Y0112037D01*
X0260245Y0111439D02*
X0246224Y0111439D01*
X0259855Y0115030D02*
X0167394Y0115030D01*
X0062386Y0036625D02*
X0337549Y0036625D01*
X0340027Y0037223D02*
X0059907Y0037223D01*
X0058664Y0037822D02*
X0341270Y0037822D01*
X0342513Y0038420D02*
X0057422Y0038420D01*
X0281479Y0080915D02*
X0328242Y0080915D01*
X0328490Y0081513D02*
X0281924Y0081513D01*
X0281924Y0082112D02*
X0329003Y0082112D01*
X0329601Y0082710D02*
X0281924Y0082710D01*
X0281714Y0083309D02*
X0330200Y0083309D01*
X0331501Y0083907D02*
X0281116Y0083907D01*
X0336150Y0083907D02*
X0352210Y0083907D01*
X0352210Y0083309D02*
X0337451Y0083309D01*
X0338050Y0082710D02*
X0352210Y0082710D01*
X0352210Y0082112D02*
X0338648Y0082112D01*
X0339161Y0081513D02*
X0352210Y0081513D01*
X0352210Y0080915D02*
X0339408Y0080915D01*
X0339656Y0080316D02*
X0352210Y0080316D01*
X0352210Y0079718D02*
X0339904Y0079718D01*
X0340047Y0079119D02*
X0352210Y0079119D01*
X0352210Y0078521D02*
X0340047Y0078521D01*
X0340047Y0077922D02*
X0352210Y0077922D01*
X0352210Y0077324D02*
X0340047Y0077324D01*
X0339975Y0076725D02*
X0352210Y0076725D01*
X0352210Y0076127D02*
X0339727Y0076127D01*
X0339479Y0075528D02*
X0352210Y0075528D01*
X0352210Y0074930D02*
X0339231Y0074930D01*
X0338818Y0074331D02*
X0352210Y0074331D01*
X0352210Y0073733D02*
X0338220Y0073733D01*
X0337621Y0073134D02*
X0352210Y0073134D01*
X0352210Y0072536D02*
X0336561Y0072536D01*
M02*
