G75*
%MOIN*%
%OFA0B0*%
%FSLAX25Y25*%
%IPPOS*%
%LPD*%
%AMOC8*
5,1,8,0,0,1.08239X$1,22.5*
%
%ADD10C,0.05500*%
%ADD11C,0.05150*%
%ADD12C,0.04000*%
%ADD13C,0.08858*%
%ADD14C,0.02400*%
%ADD15C,0.00600*%
D10*
X0199810Y0219081D03*
X0209810Y0219081D03*
X0219810Y0219081D03*
X0236778Y0219081D03*
X0246778Y0219081D03*
X0256778Y0219081D03*
X0266778Y0219081D03*
X0276778Y0219081D03*
X0286778Y0219081D03*
D11*
X0306266Y0233935D03*
X0300361Y0241022D03*
X0312172Y0241022D03*
X0106626Y0234318D03*
X0087532Y0234318D03*
D12*
X0082807Y0245066D03*
X0111351Y0245066D03*
D13*
X0124707Y0213963D03*
X0143211Y0213963D03*
X0161715Y0213963D03*
D14*
X0151424Y0205829D03*
X0173589Y0205302D03*
X0176739Y0198609D03*
X0190912Y0198609D03*
X0198392Y0201759D03*
X0185624Y0213629D03*
X0178424Y0228029D03*
X0192224Y0240629D03*
X0232625Y0188636D03*
X0239318Y0180762D03*
X0234219Y0164751D03*
X0240912Y0161207D03*
X0234424Y0145829D03*
X0241306Y0141522D03*
X0241306Y0133648D03*
X0234424Y0118829D03*
X0241306Y0115538D03*
X0244124Y0112029D03*
X0240724Y0104629D03*
X0261224Y0107429D03*
X0261224Y0113429D03*
X0300324Y0087029D03*
X0279824Y0082229D03*
X0243824Y0078029D03*
X0221024Y0087629D03*
X0216824Y0087629D03*
X0212424Y0087829D03*
X0208424Y0087629D03*
X0204824Y0087629D03*
X0206024Y0099029D03*
X0206424Y0109829D03*
X0214424Y0111029D03*
X0218865Y0113963D03*
X0194624Y0109829D03*
X0178707Y0099396D03*
X0172408Y0094672D03*
X0176739Y0110026D03*
X0165824Y0116429D03*
X0161024Y0121229D03*
X0158024Y0123629D03*
X0151424Y0118829D03*
X0140125Y0109239D03*
X0125164Y0108451D03*
X0121621Y0116325D03*
X0121424Y0123829D03*
X0125164Y0134436D03*
X0128424Y0140829D03*
X0124424Y0153829D03*
X0127920Y0160420D03*
X0145243Y0159239D03*
X0145243Y0139554D03*
X0101624Y0142829D03*
X0086424Y0131629D03*
X0065624Y0117029D03*
X0077324Y0113429D03*
X0085824Y0103929D03*
X0098624Y0103829D03*
X0098424Y0108829D03*
X0119624Y0099029D03*
X0118824Y0093929D03*
X0126224Y0079829D03*
X0147824Y0079829D03*
X0180324Y0074429D03*
X0184724Y0068629D03*
X0212024Y0078629D03*
X0218865Y0139554D03*
X0218471Y0159239D03*
X0207224Y0175829D03*
X0198824Y0178829D03*
X0196424Y0182829D03*
X0175164Y0182861D03*
X0153224Y0180029D03*
X0149424Y0183829D03*
X0144455Y0188373D03*
X0140024Y0184829D03*
X0102824Y0192029D03*
X0089024Y0187829D03*
X0083024Y0183029D03*
X0090824Y0178229D03*
X0090624Y0166629D03*
X0072224Y0162629D03*
X0071424Y0172529D03*
X0094724Y0211229D03*
X0099224Y0211229D03*
X0077624Y0089429D03*
X0098824Y0085529D03*
X0321524Y0095529D03*
D15*
X0056327Y0038947D02*
X0053109Y0041514D01*
X0050542Y0044733D01*
X0048756Y0048442D01*
X0047839Y0052456D01*
X0047724Y0054514D01*
X0047724Y0231680D01*
X0047839Y0233738D01*
X0048756Y0237752D01*
X0050542Y0241461D01*
X0053109Y0244680D01*
X0056327Y0247247D01*
X0060037Y0249033D01*
X0064050Y0249949D01*
X0066109Y0250065D01*
X0333825Y0250065D01*
X0335884Y0249949D01*
X0339898Y0249033D01*
X0343607Y0247247D01*
X0346826Y0244680D01*
X0349393Y0241461D01*
X0351179Y0237752D01*
X0352095Y0233738D01*
X0352210Y0231680D01*
X0352210Y0208229D01*
X0340047Y0208229D01*
X0340047Y0209295D01*
X0339100Y0211582D01*
X0337350Y0213332D01*
X0335063Y0214279D01*
X0332588Y0214279D01*
X0330301Y0213332D01*
X0328551Y0211582D01*
X0327604Y0209295D01*
X0327604Y0208229D01*
X0264824Y0208229D01*
X0264824Y0099629D01*
X0352210Y0099629D01*
X0352210Y0054514D01*
X0352095Y0052456D01*
X0351179Y0048442D01*
X0349393Y0044733D01*
X0346826Y0041514D01*
X0343607Y0038947D01*
X0339898Y0037161D01*
X0335884Y0036245D01*
X0333825Y0036129D01*
X0066109Y0036129D01*
X0064050Y0036245D01*
X0060037Y0037161D01*
X0056327Y0038947D01*
X0056238Y0039019D02*
X0343697Y0039019D01*
X0344447Y0039617D02*
X0336492Y0039617D01*
X0335811Y0039435D02*
X0339646Y0040463D01*
X0343084Y0042448D01*
X0345892Y0045255D01*
X0347877Y0048694D01*
X0348905Y0052529D01*
X0348905Y0056500D01*
X0347877Y0060335D01*
X0345892Y0063773D01*
X0343084Y0066581D01*
X0339646Y0068566D01*
X0335811Y0069594D01*
X0331840Y0069594D01*
X0328005Y0068566D01*
X0324566Y0066581D01*
X0321759Y0063773D01*
X0319774Y0060335D01*
X0318746Y0056500D01*
X0318746Y0052529D01*
X0319774Y0048694D01*
X0321759Y0045255D01*
X0324566Y0042448D01*
X0328005Y0040463D01*
X0331840Y0039435D01*
X0335811Y0039435D01*
X0338726Y0040216D02*
X0345198Y0040216D01*
X0345948Y0040815D02*
X0340256Y0040815D01*
X0341292Y0041413D02*
X0346699Y0041413D01*
X0347222Y0042012D02*
X0342329Y0042012D01*
X0343247Y0042610D02*
X0347700Y0042610D01*
X0348177Y0043209D02*
X0343845Y0043209D01*
X0344444Y0043807D02*
X0348654Y0043807D01*
X0349131Y0044406D02*
X0345042Y0044406D01*
X0345641Y0045004D02*
X0349523Y0045004D01*
X0349811Y0045603D02*
X0346093Y0045603D01*
X0346438Y0046201D02*
X0350100Y0046201D01*
X0350388Y0046800D02*
X0346784Y0046800D01*
X0347129Y0047398D02*
X0350676Y0047398D01*
X0350964Y0047997D02*
X0347475Y0047997D01*
X0347820Y0048595D02*
X0351214Y0048595D01*
X0351350Y0049194D02*
X0348011Y0049194D01*
X0348172Y0049792D02*
X0351487Y0049792D01*
X0351624Y0050391D02*
X0348332Y0050391D01*
X0348492Y0050989D02*
X0351760Y0050989D01*
X0351897Y0051588D02*
X0348653Y0051588D01*
X0348813Y0052186D02*
X0352033Y0052186D01*
X0352113Y0052785D02*
X0348905Y0052785D01*
X0348905Y0053383D02*
X0352147Y0053383D01*
X0352181Y0053982D02*
X0348905Y0053982D01*
X0348905Y0054580D02*
X0352210Y0054580D01*
X0352210Y0055179D02*
X0348905Y0055179D01*
X0348905Y0055777D02*
X0352210Y0055777D01*
X0352210Y0056376D02*
X0348905Y0056376D01*
X0348778Y0056974D02*
X0352210Y0056974D01*
X0352210Y0057573D02*
X0348617Y0057573D01*
X0348457Y0058171D02*
X0352210Y0058171D01*
X0352210Y0058770D02*
X0348297Y0058770D01*
X0348136Y0059368D02*
X0352210Y0059368D01*
X0352210Y0059967D02*
X0347976Y0059967D01*
X0347744Y0060565D02*
X0352210Y0060565D01*
X0352210Y0061164D02*
X0347399Y0061164D01*
X0347053Y0061762D02*
X0352210Y0061762D01*
X0352210Y0062361D02*
X0346708Y0062361D01*
X0346362Y0062959D02*
X0352210Y0062959D01*
X0352210Y0063558D02*
X0346017Y0063558D01*
X0345509Y0064156D02*
X0352210Y0064156D01*
X0352210Y0064755D02*
X0344911Y0064755D01*
X0344312Y0065353D02*
X0352210Y0065353D01*
X0352210Y0065952D02*
X0343714Y0065952D01*
X0343115Y0066550D02*
X0352210Y0066550D01*
X0352210Y0067149D02*
X0342101Y0067149D01*
X0341064Y0067748D02*
X0352210Y0067748D01*
X0352210Y0068346D02*
X0340027Y0068346D01*
X0338234Y0068945D02*
X0352210Y0068945D01*
X0352210Y0069543D02*
X0336001Y0069543D01*
X0335063Y0071915D02*
X0332588Y0071915D01*
X0330301Y0072862D01*
X0328551Y0074612D01*
X0327604Y0076899D01*
X0327604Y0079374D01*
X0328551Y0081661D01*
X0330301Y0083411D01*
X0332588Y0084358D01*
X0335063Y0084358D01*
X0337350Y0083411D01*
X0339100Y0081661D01*
X0340047Y0079374D01*
X0340047Y0076899D01*
X0339100Y0074612D01*
X0337350Y0072862D01*
X0335063Y0071915D01*
X0335116Y0071937D02*
X0352210Y0071937D01*
X0352210Y0071339D02*
X0047724Y0071339D01*
X0047724Y0071937D02*
X0072693Y0071937D01*
X0072745Y0071915D02*
X0075220Y0071915D01*
X0077507Y0072862D01*
X0079257Y0074612D01*
X0080204Y0076899D01*
X0080204Y0079374D01*
X0079257Y0081661D01*
X0077507Y0083411D01*
X0075220Y0084358D01*
X0072745Y0084358D01*
X0070459Y0083411D01*
X0068709Y0081661D01*
X0067762Y0079374D01*
X0067762Y0076899D01*
X0068709Y0074612D01*
X0070459Y0072862D01*
X0072745Y0071915D01*
X0071248Y0072536D02*
X0047724Y0072536D01*
X0047724Y0073134D02*
X0070187Y0073134D01*
X0069589Y0073733D02*
X0047724Y0073733D01*
X0047724Y0074331D02*
X0068990Y0074331D01*
X0068577Y0074930D02*
X0047724Y0074930D01*
X0047724Y0075528D02*
X0068329Y0075528D01*
X0068082Y0076127D02*
X0047724Y0076127D01*
X0047724Y0076725D02*
X0067834Y0076725D01*
X0067762Y0077324D02*
X0047724Y0077324D01*
X0047724Y0077922D02*
X0067762Y0077922D01*
X0067762Y0078521D02*
X0047724Y0078521D01*
X0047724Y0079119D02*
X0067762Y0079119D01*
X0067904Y0079718D02*
X0047724Y0079718D01*
X0047724Y0080316D02*
X0068152Y0080316D01*
X0068400Y0080915D02*
X0047724Y0080915D01*
X0047724Y0081513D02*
X0068648Y0081513D01*
X0069160Y0082112D02*
X0047724Y0082112D01*
X0047724Y0082710D02*
X0069759Y0082710D01*
X0070357Y0083309D02*
X0047724Y0083309D01*
X0047724Y0083907D02*
X0071658Y0083907D01*
X0076308Y0083907D02*
X0097476Y0083907D01*
X0097954Y0083429D02*
X0099694Y0083429D01*
X0100924Y0084660D01*
X0100924Y0086399D01*
X0099694Y0087629D01*
X0097954Y0087629D01*
X0096724Y0086399D01*
X0096724Y0084660D01*
X0097954Y0083429D01*
X0096878Y0084506D02*
X0047724Y0084506D01*
X0047724Y0085104D02*
X0096724Y0085104D01*
X0096724Y0085703D02*
X0047724Y0085703D01*
X0047724Y0086301D02*
X0096724Y0086301D01*
X0097225Y0086900D02*
X0047724Y0086900D01*
X0047724Y0087498D02*
X0097823Y0087498D01*
X0099825Y0087498D02*
X0202724Y0087498D01*
X0202724Y0086900D02*
X0100423Y0086900D01*
X0100924Y0086301D02*
X0203182Y0086301D01*
X0202724Y0086760D02*
X0203954Y0085529D01*
X0205694Y0085529D01*
X0206624Y0086460D01*
X0207554Y0085529D01*
X0209294Y0085529D01*
X0210524Y0086760D01*
X0210524Y0088499D01*
X0209294Y0089729D01*
X0207554Y0089729D01*
X0206624Y0088799D01*
X0205694Y0089729D01*
X0203954Y0089729D01*
X0202724Y0088499D01*
X0202724Y0086760D01*
X0202724Y0088097D02*
X0047724Y0088097D01*
X0047724Y0088695D02*
X0202920Y0088695D01*
X0203519Y0089294D02*
X0047724Y0089294D01*
X0047724Y0089892D02*
X0352210Y0089892D01*
X0352210Y0089294D02*
X0222329Y0089294D01*
X0221894Y0089729D02*
X0220154Y0089729D01*
X0218924Y0088499D01*
X0217694Y0089729D01*
X0215954Y0089729D01*
X0214724Y0088499D01*
X0214724Y0086760D01*
X0215954Y0085529D01*
X0217694Y0085529D01*
X0218924Y0086760D01*
X0218924Y0088499D01*
X0218924Y0086760D01*
X0220154Y0085529D01*
X0221894Y0085529D01*
X0223124Y0086760D01*
X0223124Y0088499D01*
X0221894Y0089729D01*
X0222928Y0088695D02*
X0299020Y0088695D01*
X0299454Y0089129D02*
X0298224Y0087899D01*
X0298224Y0086160D01*
X0299454Y0084929D01*
X0301194Y0084929D01*
X0302424Y0086160D01*
X0302424Y0087899D01*
X0301194Y0089129D01*
X0299454Y0089129D01*
X0298422Y0088097D02*
X0223124Y0088097D01*
X0223124Y0087498D02*
X0298224Y0087498D01*
X0298224Y0086900D02*
X0223124Y0086900D01*
X0222666Y0086301D02*
X0298224Y0086301D01*
X0298681Y0085703D02*
X0222067Y0085703D01*
X0219981Y0085703D02*
X0217867Y0085703D01*
X0218466Y0086301D02*
X0219382Y0086301D01*
X0218924Y0086900D02*
X0218924Y0086900D01*
X0218924Y0087498D02*
X0218924Y0087498D01*
X0218924Y0088097D02*
X0218924Y0088097D01*
X0218728Y0088695D02*
X0219120Y0088695D01*
X0219719Y0089294D02*
X0218129Y0089294D01*
X0215519Y0089294D02*
X0209729Y0089294D01*
X0210328Y0088695D02*
X0214920Y0088695D01*
X0214724Y0088097D02*
X0210524Y0088097D01*
X0210524Y0087498D02*
X0214724Y0087498D01*
X0214724Y0086900D02*
X0210524Y0086900D01*
X0210066Y0086301D02*
X0215182Y0086301D01*
X0215781Y0085703D02*
X0209467Y0085703D01*
X0207381Y0085703D02*
X0205867Y0085703D01*
X0206466Y0086301D02*
X0206782Y0086301D01*
X0207119Y0089294D02*
X0206129Y0089294D01*
X0203781Y0085703D02*
X0100924Y0085703D01*
X0100924Y0085104D02*
X0299279Y0085104D01*
X0301369Y0085104D02*
X0352210Y0085104D01*
X0352210Y0084506D02*
X0100770Y0084506D01*
X0100172Y0083907D02*
X0331501Y0083907D01*
X0330200Y0083309D02*
X0077609Y0083309D01*
X0078207Y0082710D02*
X0329601Y0082710D01*
X0329003Y0082112D02*
X0078806Y0082112D01*
X0079318Y0081513D02*
X0328490Y0081513D01*
X0328242Y0080915D02*
X0079566Y0080915D01*
X0079814Y0080316D02*
X0327995Y0080316D01*
X0327747Y0079718D02*
X0080062Y0079718D01*
X0080204Y0079119D02*
X0327604Y0079119D01*
X0327604Y0078521D02*
X0080204Y0078521D01*
X0080204Y0077922D02*
X0327604Y0077922D01*
X0327604Y0077324D02*
X0080204Y0077324D01*
X0080132Y0076725D02*
X0327676Y0076725D01*
X0327924Y0076127D02*
X0181596Y0076127D01*
X0181194Y0076529D02*
X0182424Y0075299D01*
X0182424Y0073560D01*
X0181194Y0072329D01*
X0179454Y0072329D01*
X0178224Y0073560D01*
X0178224Y0075299D01*
X0179454Y0076529D01*
X0181194Y0076529D01*
X0182195Y0075528D02*
X0328172Y0075528D01*
X0328420Y0074930D02*
X0182424Y0074930D01*
X0182424Y0074331D02*
X0328833Y0074331D01*
X0329431Y0073733D02*
X0182424Y0073733D01*
X0181998Y0073134D02*
X0330030Y0073134D01*
X0331090Y0072536D02*
X0181400Y0072536D01*
X0179248Y0072536D02*
X0076718Y0072536D01*
X0077779Y0073134D02*
X0178649Y0073134D01*
X0178224Y0073733D02*
X0078377Y0073733D01*
X0078976Y0074331D02*
X0178224Y0074331D01*
X0178224Y0074930D02*
X0079388Y0074930D01*
X0079636Y0075528D02*
X0178453Y0075528D01*
X0179051Y0076127D02*
X0079884Y0076127D01*
X0075273Y0071937D02*
X0332535Y0071937D01*
X0331650Y0069543D02*
X0186780Y0069543D01*
X0186824Y0069499D02*
X0185594Y0070729D01*
X0183854Y0070729D01*
X0182624Y0069499D01*
X0182624Y0067760D01*
X0183854Y0066529D01*
X0185594Y0066529D01*
X0186824Y0067760D01*
X0186824Y0069499D01*
X0186824Y0068945D02*
X0329417Y0068945D01*
X0327623Y0068346D02*
X0186824Y0068346D01*
X0186812Y0067748D02*
X0326587Y0067748D01*
X0325550Y0067149D02*
X0186213Y0067149D01*
X0185615Y0066550D02*
X0324536Y0066550D01*
X0323937Y0065952D02*
X0075997Y0065952D01*
X0075399Y0066550D02*
X0183833Y0066550D01*
X0183234Y0067149D02*
X0074384Y0067149D01*
X0075368Y0066581D02*
X0071929Y0068566D01*
X0068094Y0069594D01*
X0064124Y0069594D01*
X0060288Y0068566D01*
X0056850Y0066581D01*
X0054042Y0063773D01*
X0052057Y0060335D01*
X0051029Y0056500D01*
X0051029Y0052529D01*
X0052057Y0048694D01*
X0054042Y0045255D01*
X0056850Y0042448D01*
X0060288Y0040463D01*
X0064124Y0039435D01*
X0068094Y0039435D01*
X0071929Y0040463D01*
X0075368Y0042448D01*
X0078176Y0045255D01*
X0080161Y0048694D01*
X0081188Y0052529D01*
X0081188Y0056500D01*
X0080161Y0060335D01*
X0078176Y0063773D01*
X0075368Y0066581D01*
X0076596Y0065353D02*
X0323339Y0065353D01*
X0322740Y0064755D02*
X0077194Y0064755D01*
X0077793Y0064156D02*
X0322142Y0064156D01*
X0321634Y0063558D02*
X0078300Y0063558D01*
X0078646Y0062959D02*
X0321289Y0062959D01*
X0320943Y0062361D02*
X0078991Y0062361D01*
X0079337Y0061762D02*
X0320598Y0061762D01*
X0320252Y0061164D02*
X0079682Y0061164D01*
X0080028Y0060565D02*
X0319907Y0060565D01*
X0319675Y0059967D02*
X0080259Y0059967D01*
X0080420Y0059368D02*
X0319515Y0059368D01*
X0319354Y0058770D02*
X0080580Y0058770D01*
X0080741Y0058171D02*
X0319194Y0058171D01*
X0319033Y0057573D02*
X0080901Y0057573D01*
X0081061Y0056974D02*
X0318873Y0056974D01*
X0318746Y0056376D02*
X0081188Y0056376D01*
X0081188Y0055777D02*
X0318746Y0055777D01*
X0318746Y0055179D02*
X0081188Y0055179D01*
X0081188Y0054580D02*
X0318746Y0054580D01*
X0318746Y0053982D02*
X0081188Y0053982D01*
X0081188Y0053383D02*
X0318746Y0053383D01*
X0318746Y0052785D02*
X0081188Y0052785D01*
X0081097Y0052186D02*
X0318838Y0052186D01*
X0318998Y0051588D02*
X0080936Y0051588D01*
X0080776Y0050989D02*
X0319159Y0050989D01*
X0319319Y0050391D02*
X0080615Y0050391D01*
X0080455Y0049792D02*
X0319479Y0049792D01*
X0319640Y0049194D02*
X0080295Y0049194D01*
X0080104Y0048595D02*
X0319831Y0048595D01*
X0320176Y0047997D02*
X0079758Y0047997D01*
X0079413Y0047398D02*
X0320522Y0047398D01*
X0320867Y0046800D02*
X0079067Y0046800D01*
X0078722Y0046201D02*
X0321213Y0046201D01*
X0321558Y0045603D02*
X0078376Y0045603D01*
X0077924Y0045004D02*
X0322010Y0045004D01*
X0322609Y0044406D02*
X0077326Y0044406D01*
X0076727Y0043807D02*
X0323207Y0043807D01*
X0323806Y0043209D02*
X0076129Y0043209D01*
X0075530Y0042610D02*
X0324404Y0042610D01*
X0325322Y0042012D02*
X0074612Y0042012D01*
X0073576Y0041413D02*
X0326359Y0041413D01*
X0327395Y0040815D02*
X0072539Y0040815D01*
X0071009Y0040216D02*
X0328925Y0040216D01*
X0331159Y0039617D02*
X0068776Y0039617D01*
X0063442Y0039617D02*
X0055487Y0039617D01*
X0054737Y0040216D02*
X0061209Y0040216D01*
X0059679Y0040815D02*
X0053986Y0040815D01*
X0053236Y0041413D02*
X0058642Y0041413D01*
X0057606Y0042012D02*
X0052712Y0042012D01*
X0052235Y0042610D02*
X0056688Y0042610D01*
X0056089Y0043209D02*
X0051758Y0043209D01*
X0051280Y0043807D02*
X0055491Y0043807D01*
X0054892Y0044406D02*
X0050803Y0044406D01*
X0050411Y0045004D02*
X0054294Y0045004D01*
X0053842Y0045603D02*
X0050123Y0045603D01*
X0049835Y0046201D02*
X0053496Y0046201D01*
X0053151Y0046800D02*
X0049547Y0046800D01*
X0049258Y0047398D02*
X0052805Y0047398D01*
X0052460Y0047997D02*
X0048970Y0047997D01*
X0048721Y0048595D02*
X0052114Y0048595D01*
X0051923Y0049194D02*
X0048584Y0049194D01*
X0048447Y0049792D02*
X0051763Y0049792D01*
X0051602Y0050391D02*
X0048311Y0050391D01*
X0048174Y0050989D02*
X0051442Y0050989D01*
X0051282Y0051588D02*
X0048038Y0051588D01*
X0047901Y0052186D02*
X0051121Y0052186D01*
X0051029Y0052785D02*
X0047821Y0052785D01*
X0047787Y0053383D02*
X0051029Y0053383D01*
X0051029Y0053982D02*
X0047754Y0053982D01*
X0047724Y0054580D02*
X0051029Y0054580D01*
X0051029Y0055179D02*
X0047724Y0055179D01*
X0047724Y0055777D02*
X0051029Y0055777D01*
X0051029Y0056376D02*
X0047724Y0056376D01*
X0047724Y0056974D02*
X0051157Y0056974D01*
X0051317Y0057573D02*
X0047724Y0057573D01*
X0047724Y0058171D02*
X0051477Y0058171D01*
X0051638Y0058770D02*
X0047724Y0058770D01*
X0047724Y0059368D02*
X0051798Y0059368D01*
X0051958Y0059967D02*
X0047724Y0059967D01*
X0047724Y0060565D02*
X0052190Y0060565D01*
X0052536Y0061164D02*
X0047724Y0061164D01*
X0047724Y0061762D02*
X0052881Y0061762D01*
X0053227Y0062361D02*
X0047724Y0062361D01*
X0047724Y0062959D02*
X0053572Y0062959D01*
X0053918Y0063558D02*
X0047724Y0063558D01*
X0047724Y0064156D02*
X0054425Y0064156D01*
X0055024Y0064755D02*
X0047724Y0064755D01*
X0047724Y0065353D02*
X0055622Y0065353D01*
X0056221Y0065952D02*
X0047724Y0065952D01*
X0047724Y0066550D02*
X0056819Y0066550D01*
X0057834Y0067149D02*
X0047724Y0067149D01*
X0047724Y0067748D02*
X0058870Y0067748D01*
X0059907Y0068346D02*
X0047724Y0068346D01*
X0047724Y0068945D02*
X0061700Y0068945D01*
X0063934Y0069543D02*
X0047724Y0069543D01*
X0047724Y0070142D02*
X0183266Y0070142D01*
X0182668Y0069543D02*
X0068284Y0069543D01*
X0070518Y0068945D02*
X0182624Y0068945D01*
X0182624Y0068346D02*
X0072311Y0068346D01*
X0073348Y0067748D02*
X0182636Y0067748D01*
X0186182Y0070142D02*
X0352210Y0070142D01*
X0352210Y0070740D02*
X0047724Y0070740D01*
X0047724Y0090491D02*
X0352210Y0090491D01*
X0352210Y0091089D02*
X0047724Y0091089D01*
X0047724Y0091688D02*
X0352210Y0091688D01*
X0352210Y0092286D02*
X0120151Y0092286D01*
X0119694Y0091829D02*
X0120924Y0093060D01*
X0120924Y0094799D01*
X0119694Y0096029D01*
X0117954Y0096029D01*
X0116724Y0094799D01*
X0116724Y0093060D01*
X0117954Y0091829D01*
X0119694Y0091829D01*
X0120749Y0092885D02*
X0171225Y0092885D01*
X0171538Y0092572D02*
X0170308Y0093802D01*
X0170308Y0095542D01*
X0171538Y0096772D01*
X0173278Y0096772D01*
X0174508Y0095542D01*
X0174508Y0093802D01*
X0173278Y0092572D01*
X0171538Y0092572D01*
X0170627Y0093484D02*
X0120924Y0093484D01*
X0120924Y0094082D02*
X0170308Y0094082D01*
X0170308Y0094681D02*
X0120924Y0094681D01*
X0120444Y0095279D02*
X0170308Y0095279D01*
X0170644Y0095878D02*
X0119846Y0095878D01*
X0120494Y0096929D02*
X0121724Y0098160D01*
X0121724Y0099899D01*
X0120494Y0101129D01*
X0118754Y0101129D01*
X0117524Y0099899D01*
X0117524Y0098160D01*
X0118754Y0096929D01*
X0120494Y0096929D01*
X0120639Y0097075D02*
X0320099Y0097075D01*
X0320654Y0097629D02*
X0319424Y0096399D01*
X0319424Y0094660D01*
X0320654Y0093429D01*
X0322394Y0093429D01*
X0323624Y0094660D01*
X0323624Y0096399D01*
X0322394Y0097629D01*
X0320654Y0097629D01*
X0319501Y0096476D02*
X0173574Y0096476D01*
X0174172Y0095878D02*
X0319424Y0095878D01*
X0319424Y0095279D02*
X0174508Y0095279D01*
X0174508Y0094681D02*
X0319424Y0094681D01*
X0320001Y0094082D02*
X0174508Y0094082D01*
X0174190Y0093484D02*
X0320600Y0093484D01*
X0322448Y0093484D02*
X0352210Y0093484D01*
X0352210Y0094082D02*
X0323046Y0094082D01*
X0323624Y0094681D02*
X0352210Y0094681D01*
X0352210Y0095279D02*
X0323624Y0095279D01*
X0323624Y0095878D02*
X0352210Y0095878D01*
X0352210Y0096476D02*
X0323547Y0096476D01*
X0322949Y0097075D02*
X0352210Y0097075D01*
X0352210Y0097673D02*
X0121237Y0097673D01*
X0121724Y0098272D02*
X0352210Y0098272D01*
X0352210Y0098870D02*
X0121724Y0098870D01*
X0121724Y0099469D02*
X0352210Y0099469D01*
X0352210Y0092885D02*
X0173591Y0092885D01*
X0171242Y0096476D02*
X0047724Y0096476D01*
X0047724Y0095878D02*
X0117802Y0095878D01*
X0117204Y0095279D02*
X0047724Y0095279D01*
X0047724Y0094681D02*
X0116724Y0094681D01*
X0116724Y0094082D02*
X0047724Y0094082D01*
X0047724Y0093484D02*
X0116724Y0093484D01*
X0116898Y0092885D02*
X0047724Y0092885D01*
X0047724Y0092286D02*
X0117497Y0092286D01*
X0118609Y0097075D02*
X0047724Y0097075D01*
X0047724Y0097673D02*
X0118010Y0097673D01*
X0117524Y0098272D02*
X0047724Y0098272D01*
X0047724Y0098870D02*
X0117524Y0098870D01*
X0117524Y0099469D02*
X0047724Y0099469D01*
X0047724Y0100067D02*
X0117692Y0100067D01*
X0118290Y0100666D02*
X0047724Y0100666D01*
X0047724Y0101264D02*
X0264824Y0101264D01*
X0264824Y0100666D02*
X0120957Y0100666D01*
X0121556Y0100067D02*
X0264824Y0100067D01*
X0264824Y0101863D02*
X0086727Y0101863D01*
X0086694Y0101829D02*
X0087924Y0103060D01*
X0239324Y0103060D01*
X0239854Y0102529D02*
X0241594Y0102529D01*
X0242824Y0103760D01*
X0242824Y0105499D01*
X0241594Y0106729D01*
X0239854Y0106729D01*
X0238624Y0105499D01*
X0238624Y0103760D01*
X0239854Y0102529D01*
X0238725Y0103658D02*
X0087924Y0103658D01*
X0087924Y0103060D02*
X0087924Y0104799D01*
X0086694Y0106029D01*
X0084954Y0106029D01*
X0083724Y0104799D01*
X0083724Y0103060D01*
X0047724Y0103060D01*
X0047724Y0103658D02*
X0083724Y0103658D01*
X0083724Y0103060D02*
X0084954Y0101829D01*
X0086694Y0101829D01*
X0087326Y0102461D02*
X0264824Y0102461D01*
X0264824Y0103060D02*
X0242124Y0103060D01*
X0242723Y0103658D02*
X0264824Y0103658D01*
X0264824Y0104257D02*
X0242824Y0104257D01*
X0242824Y0104855D02*
X0264824Y0104855D01*
X0264824Y0105454D02*
X0262218Y0105454D01*
X0262094Y0105329D02*
X0263324Y0106560D01*
X0263324Y0108299D01*
X0262094Y0109529D01*
X0260354Y0109529D01*
X0259124Y0108299D01*
X0259124Y0106560D01*
X0260354Y0105329D01*
X0262094Y0105329D01*
X0262817Y0106052D02*
X0264824Y0106052D01*
X0264824Y0106651D02*
X0263324Y0106651D01*
X0263324Y0107249D02*
X0264824Y0107249D01*
X0264824Y0107848D02*
X0263324Y0107848D01*
X0263177Y0108446D02*
X0264824Y0108446D01*
X0264824Y0109045D02*
X0262578Y0109045D01*
X0264824Y0109643D02*
X0216008Y0109643D01*
X0216524Y0110160D02*
X0215294Y0108929D01*
X0213554Y0108929D01*
X0212324Y0110160D01*
X0212324Y0111899D01*
X0213554Y0113129D01*
X0215294Y0113129D01*
X0216524Y0111899D01*
X0216524Y0110160D01*
X0216524Y0110242D02*
X0242942Y0110242D01*
X0243254Y0109929D02*
X0244994Y0109929D01*
X0246224Y0111160D01*
X0246224Y0112899D01*
X0244994Y0114129D01*
X0243254Y0114129D01*
X0242024Y0112899D01*
X0242024Y0111160D01*
X0243254Y0109929D01*
X0242343Y0110840D02*
X0216524Y0110840D01*
X0216524Y0111439D02*
X0242024Y0111439D01*
X0242024Y0112037D02*
X0219909Y0112037D01*
X0219735Y0111863D02*
X0220965Y0113093D01*
X0220965Y0114833D01*
X0219735Y0116063D01*
X0217995Y0116063D01*
X0216765Y0114833D01*
X0216765Y0113093D01*
X0217995Y0111863D01*
X0219735Y0111863D01*
X0220507Y0112636D02*
X0242024Y0112636D01*
X0242359Y0113234D02*
X0220965Y0113234D01*
X0220965Y0113833D02*
X0240041Y0113833D01*
X0240436Y0113438D02*
X0242176Y0113438D01*
X0243406Y0114668D01*
X0243406Y0116408D01*
X0242176Y0117638D01*
X0240436Y0117638D01*
X0239206Y0116408D01*
X0239206Y0114668D01*
X0240436Y0113438D01*
X0239443Y0114431D02*
X0220965Y0114431D01*
X0220768Y0115030D02*
X0239206Y0115030D01*
X0239206Y0115628D02*
X0220169Y0115628D01*
X0217560Y0115628D02*
X0167924Y0115628D01*
X0167924Y0115560D02*
X0166694Y0114329D01*
X0164954Y0114329D01*
X0163724Y0115560D01*
X0163724Y0117299D01*
X0164954Y0118529D01*
X0166694Y0118529D01*
X0167924Y0117299D01*
X0167924Y0115560D01*
X0167924Y0116227D02*
X0239206Y0116227D01*
X0239623Y0116825D02*
X0167924Y0116825D01*
X0167799Y0117424D02*
X0240222Y0117424D01*
X0242390Y0117424D02*
X0264824Y0117424D01*
X0264824Y0118022D02*
X0167201Y0118022D01*
X0164447Y0118022D02*
X0153524Y0118022D01*
X0153524Y0117960D02*
X0152294Y0116729D01*
X0150554Y0116729D01*
X0149324Y0117960D01*
X0149324Y0119699D01*
X0150554Y0120929D01*
X0152294Y0120929D01*
X0153524Y0119699D01*
X0153524Y0117960D01*
X0153524Y0118621D02*
X0264824Y0118621D01*
X0264824Y0119219D02*
X0161984Y0119219D01*
X0161894Y0119129D02*
X0163124Y0120360D01*
X0163124Y0122099D01*
X0161894Y0123329D01*
X0160154Y0123329D01*
X0160124Y0123299D01*
X0160124Y0124499D01*
X0158894Y0125729D01*
X0157154Y0125729D01*
X0155924Y0124499D01*
X0155924Y0122760D01*
X0157154Y0121529D01*
X0158894Y0121529D01*
X0158924Y0121560D01*
X0158924Y0120360D01*
X0160154Y0119129D01*
X0161894Y0119129D01*
X0162582Y0119818D02*
X0264824Y0119818D01*
X0264824Y0120417D02*
X0163124Y0120417D01*
X0163124Y0121015D02*
X0264824Y0121015D01*
X0264824Y0121614D02*
X0163124Y0121614D01*
X0163011Y0122212D02*
X0264824Y0122212D01*
X0264824Y0122811D02*
X0162413Y0122811D01*
X0160124Y0123409D02*
X0264824Y0123409D01*
X0264824Y0124008D02*
X0160124Y0124008D01*
X0160017Y0124606D02*
X0264824Y0124606D01*
X0264824Y0125205D02*
X0159419Y0125205D01*
X0156629Y0125205D02*
X0123019Y0125205D01*
X0123524Y0124699D02*
X0122294Y0125929D01*
X0120554Y0125929D01*
X0119324Y0124699D01*
X0119324Y0122960D01*
X0120554Y0121729D01*
X0122294Y0121729D01*
X0123524Y0122960D01*
X0123524Y0124699D01*
X0123524Y0124606D02*
X0156031Y0124606D01*
X0155924Y0124008D02*
X0123524Y0124008D01*
X0123524Y0123409D02*
X0155924Y0123409D01*
X0155924Y0122811D02*
X0123375Y0122811D01*
X0122776Y0122212D02*
X0156471Y0122212D01*
X0157070Y0121614D02*
X0047724Y0121614D01*
X0047724Y0122212D02*
X0120071Y0122212D01*
X0119473Y0122811D02*
X0047724Y0122811D01*
X0047724Y0123409D02*
X0119324Y0123409D01*
X0119324Y0124008D02*
X0047724Y0124008D01*
X0047724Y0124606D02*
X0119324Y0124606D01*
X0119829Y0125205D02*
X0047724Y0125205D01*
X0047724Y0125803D02*
X0120428Y0125803D01*
X0122420Y0125803D02*
X0264824Y0125803D01*
X0264824Y0126402D02*
X0047724Y0126402D01*
X0047724Y0127000D02*
X0264824Y0127000D01*
X0264824Y0127599D02*
X0047724Y0127599D01*
X0047724Y0128197D02*
X0264824Y0128197D01*
X0264824Y0128796D02*
X0047724Y0128796D01*
X0047724Y0129394D02*
X0264824Y0129394D01*
X0264824Y0129993D02*
X0087757Y0129993D01*
X0087294Y0129529D02*
X0088524Y0130760D01*
X0088524Y0132499D01*
X0087294Y0133729D01*
X0085554Y0133729D01*
X0084324Y0132499D01*
X0084324Y0130760D01*
X0085554Y0129529D01*
X0087294Y0129529D01*
X0088356Y0130591D02*
X0264824Y0130591D01*
X0264824Y0131190D02*
X0088524Y0131190D01*
X0088524Y0131788D02*
X0240196Y0131788D01*
X0240436Y0131548D02*
X0242176Y0131548D01*
X0243406Y0132778D01*
X0243406Y0134518D01*
X0242176Y0135748D01*
X0240436Y0135748D01*
X0239206Y0134518D01*
X0239206Y0132778D01*
X0240436Y0131548D01*
X0239597Y0132387D02*
X0126085Y0132387D01*
X0126034Y0132336D02*
X0127264Y0133566D01*
X0127264Y0135306D01*
X0126034Y0136536D01*
X0124294Y0136536D01*
X0123064Y0135306D01*
X0123064Y0133566D01*
X0124294Y0132336D01*
X0126034Y0132336D01*
X0126683Y0132985D02*
X0239206Y0132985D01*
X0239206Y0133584D02*
X0127264Y0133584D01*
X0127264Y0134182D02*
X0239206Y0134182D01*
X0239468Y0134781D02*
X0127264Y0134781D01*
X0127190Y0135379D02*
X0240067Y0135379D01*
X0242545Y0135379D02*
X0264824Y0135379D01*
X0264824Y0134781D02*
X0243143Y0134781D01*
X0243406Y0134182D02*
X0264824Y0134182D01*
X0264824Y0133584D02*
X0243406Y0133584D01*
X0243406Y0132985D02*
X0264824Y0132985D01*
X0264824Y0132387D02*
X0243014Y0132387D01*
X0242416Y0131788D02*
X0264824Y0131788D01*
X0264824Y0135978D02*
X0126592Y0135978D01*
X0123736Y0135978D02*
X0047724Y0135978D01*
X0047724Y0136576D02*
X0264824Y0136576D01*
X0264824Y0137175D02*
X0047724Y0137175D01*
X0047724Y0137773D02*
X0144053Y0137773D01*
X0144373Y0137454D02*
X0146113Y0137454D01*
X0147343Y0138684D01*
X0147343Y0140424D01*
X0146113Y0141654D01*
X0144373Y0141654D01*
X0143143Y0140424D01*
X0143143Y0138684D01*
X0144373Y0137454D01*
X0143455Y0138372D02*
X0047724Y0138372D01*
X0047724Y0138970D02*
X0143143Y0138970D01*
X0143143Y0139569D02*
X0047724Y0139569D01*
X0047724Y0140167D02*
X0143143Y0140167D01*
X0143485Y0140766D02*
X0047724Y0140766D01*
X0047724Y0141364D02*
X0144084Y0141364D01*
X0146402Y0141364D02*
X0217706Y0141364D01*
X0217995Y0141654D02*
X0216765Y0140424D01*
X0216765Y0138684D01*
X0217995Y0137454D01*
X0219735Y0137454D01*
X0220965Y0138684D01*
X0220965Y0140424D01*
X0219735Y0141654D01*
X0217995Y0141654D01*
X0217107Y0140766D02*
X0147001Y0140766D01*
X0147343Y0140167D02*
X0216765Y0140167D01*
X0216765Y0139569D02*
X0147343Y0139569D01*
X0147343Y0138970D02*
X0216765Y0138970D01*
X0217077Y0138372D02*
X0147031Y0138372D01*
X0146432Y0137773D02*
X0217675Y0137773D01*
X0220054Y0137773D02*
X0264824Y0137773D01*
X0264824Y0138372D02*
X0220653Y0138372D01*
X0220965Y0138970D02*
X0264824Y0138970D01*
X0264824Y0139569D02*
X0242322Y0139569D01*
X0242176Y0139422D02*
X0243406Y0140652D01*
X0243406Y0142392D01*
X0242176Y0143622D01*
X0240436Y0143622D01*
X0239206Y0142392D01*
X0239206Y0140652D01*
X0240436Y0139422D01*
X0242176Y0139422D01*
X0242921Y0140167D02*
X0264824Y0140167D01*
X0264824Y0140766D02*
X0243406Y0140766D01*
X0243406Y0141364D02*
X0264824Y0141364D01*
X0264824Y0141963D02*
X0243406Y0141963D01*
X0243236Y0142561D02*
X0264824Y0142561D01*
X0264824Y0143160D02*
X0242638Y0143160D01*
X0239974Y0143160D02*
X0047724Y0143160D01*
X0047724Y0143758D02*
X0264824Y0143758D01*
X0264824Y0144357D02*
X0047724Y0144357D01*
X0047724Y0144955D02*
X0264824Y0144955D01*
X0264824Y0145554D02*
X0047724Y0145554D01*
X0047724Y0146152D02*
X0264824Y0146152D01*
X0264824Y0146751D02*
X0047724Y0146751D01*
X0047724Y0147350D02*
X0264824Y0147350D01*
X0264824Y0147948D02*
X0047724Y0147948D01*
X0047724Y0148547D02*
X0264824Y0148547D01*
X0264824Y0149145D02*
X0047724Y0149145D01*
X0047724Y0149744D02*
X0264824Y0149744D01*
X0264824Y0150342D02*
X0047724Y0150342D01*
X0047724Y0150941D02*
X0264824Y0150941D01*
X0264824Y0151539D02*
X0047724Y0151539D01*
X0047724Y0152138D02*
X0123146Y0152138D01*
X0123554Y0151729D02*
X0125294Y0151729D01*
X0126524Y0152960D01*
X0126524Y0154699D01*
X0125294Y0155929D01*
X0123554Y0155929D01*
X0122324Y0154699D01*
X0122324Y0152960D01*
X0123554Y0151729D01*
X0122547Y0152736D02*
X0047724Y0152736D01*
X0047724Y0153335D02*
X0122324Y0153335D01*
X0122324Y0153933D02*
X0047724Y0153933D01*
X0047724Y0154532D02*
X0122324Y0154532D01*
X0122755Y0155130D02*
X0047724Y0155130D01*
X0047724Y0155729D02*
X0123353Y0155729D01*
X0125494Y0155729D02*
X0264824Y0155729D01*
X0264824Y0156327D02*
X0047724Y0156327D01*
X0047724Y0156926D02*
X0264824Y0156926D01*
X0264824Y0157524D02*
X0219726Y0157524D01*
X0219341Y0157139D02*
X0220571Y0158369D01*
X0220571Y0160109D01*
X0219341Y0161339D01*
X0217601Y0161339D01*
X0216371Y0160109D01*
X0216371Y0158369D01*
X0217601Y0157139D01*
X0219341Y0157139D01*
X0220325Y0158123D02*
X0264824Y0158123D01*
X0264824Y0158721D02*
X0220571Y0158721D01*
X0220571Y0159320D02*
X0239830Y0159320D01*
X0240042Y0159107D02*
X0241782Y0159107D01*
X0243012Y0160337D01*
X0243012Y0162077D01*
X0241782Y0163307D01*
X0240042Y0163307D01*
X0238812Y0162077D01*
X0238812Y0160337D01*
X0240042Y0159107D01*
X0239231Y0159918D02*
X0220571Y0159918D01*
X0220163Y0160517D02*
X0238812Y0160517D01*
X0238812Y0161115D02*
X0219565Y0161115D01*
X0217378Y0161115D02*
X0146336Y0161115D01*
X0146113Y0161339D02*
X0144373Y0161339D01*
X0143143Y0160109D01*
X0143143Y0158369D01*
X0144373Y0157139D01*
X0146113Y0157139D01*
X0147343Y0158369D01*
X0147343Y0160109D01*
X0146113Y0161339D01*
X0146935Y0160517D02*
X0216779Y0160517D01*
X0216371Y0159918D02*
X0147343Y0159918D01*
X0147343Y0159320D02*
X0216371Y0159320D01*
X0216371Y0158721D02*
X0147343Y0158721D01*
X0147097Y0158123D02*
X0216617Y0158123D01*
X0217216Y0157524D02*
X0146498Y0157524D01*
X0143988Y0157524D02*
X0047724Y0157524D01*
X0047724Y0158123D02*
X0143389Y0158123D01*
X0143143Y0158721D02*
X0047724Y0158721D01*
X0047724Y0159320D02*
X0143143Y0159320D01*
X0143143Y0159918D02*
X0047724Y0159918D01*
X0047724Y0160517D02*
X0143551Y0160517D01*
X0144149Y0161115D02*
X0047724Y0161115D01*
X0047724Y0161714D02*
X0238812Y0161714D01*
X0239047Y0162312D02*
X0047724Y0162312D01*
X0047724Y0162911D02*
X0239646Y0162911D01*
X0242178Y0162911D02*
X0264824Y0162911D01*
X0264824Y0163509D02*
X0047724Y0163509D01*
X0047724Y0164108D02*
X0264824Y0164108D01*
X0264824Y0164706D02*
X0091671Y0164706D01*
X0091494Y0164529D02*
X0092724Y0165760D01*
X0092724Y0167499D01*
X0091494Y0168729D01*
X0089754Y0168729D01*
X0088524Y0167499D01*
X0088524Y0165760D01*
X0089754Y0164529D01*
X0091494Y0164529D01*
X0092269Y0165305D02*
X0264824Y0165305D01*
X0264824Y0165903D02*
X0092724Y0165903D01*
X0092724Y0166502D02*
X0264824Y0166502D01*
X0264824Y0167100D02*
X0092724Y0167100D01*
X0092524Y0167699D02*
X0264824Y0167699D01*
X0264824Y0168297D02*
X0091926Y0168297D01*
X0089322Y0168297D02*
X0047724Y0168297D01*
X0047724Y0167699D02*
X0088724Y0167699D01*
X0088524Y0167100D02*
X0047724Y0167100D01*
X0047724Y0166502D02*
X0088524Y0166502D01*
X0088524Y0165903D02*
X0047724Y0165903D01*
X0047724Y0165305D02*
X0088979Y0165305D01*
X0089577Y0164706D02*
X0047724Y0164706D01*
X0047724Y0168896D02*
X0264824Y0168896D01*
X0264824Y0169494D02*
X0047724Y0169494D01*
X0047724Y0170093D02*
X0264824Y0170093D01*
X0264824Y0170691D02*
X0072556Y0170691D01*
X0072294Y0170429D02*
X0073524Y0171660D01*
X0073524Y0173399D01*
X0072294Y0174629D01*
X0070554Y0174629D01*
X0069324Y0173399D01*
X0069324Y0171660D01*
X0070554Y0170429D01*
X0072294Y0170429D01*
X0073154Y0171290D02*
X0264824Y0171290D01*
X0264824Y0171888D02*
X0073524Y0171888D01*
X0073524Y0172487D02*
X0264824Y0172487D01*
X0264824Y0173086D02*
X0073524Y0173086D01*
X0073239Y0173684D02*
X0264824Y0173684D01*
X0264824Y0174283D02*
X0208647Y0174283D01*
X0208094Y0173729D02*
X0209324Y0174960D01*
X0209324Y0176699D01*
X0208094Y0177929D01*
X0206354Y0177929D01*
X0205124Y0176699D01*
X0205124Y0174960D01*
X0206354Y0173729D01*
X0208094Y0173729D01*
X0209245Y0174881D02*
X0264824Y0174881D01*
X0264824Y0175480D02*
X0209324Y0175480D01*
X0209324Y0176078D02*
X0264824Y0176078D01*
X0264824Y0176677D02*
X0209324Y0176677D01*
X0208748Y0177275D02*
X0264824Y0177275D01*
X0264824Y0177874D02*
X0208150Y0177874D01*
X0206298Y0177874D02*
X0200838Y0177874D01*
X0200924Y0177960D02*
X0199694Y0176729D01*
X0197954Y0176729D01*
X0196724Y0177960D01*
X0196724Y0179699D01*
X0197954Y0180929D01*
X0199694Y0180929D01*
X0200924Y0179699D01*
X0200924Y0177960D01*
X0200924Y0178472D02*
X0264824Y0178472D01*
X0264824Y0179071D02*
X0240597Y0179071D01*
X0240188Y0178662D02*
X0241418Y0179892D01*
X0241418Y0181632D01*
X0240188Y0182862D01*
X0238449Y0182862D01*
X0237218Y0181632D01*
X0237218Y0179892D01*
X0238449Y0178662D01*
X0240188Y0178662D01*
X0241196Y0179669D02*
X0264824Y0179669D01*
X0264824Y0180268D02*
X0241418Y0180268D01*
X0241418Y0180866D02*
X0264824Y0180866D01*
X0264824Y0181465D02*
X0241418Y0181465D01*
X0240987Y0182063D02*
X0264824Y0182063D01*
X0264824Y0182662D02*
X0240388Y0182662D01*
X0238249Y0182662D02*
X0198524Y0182662D01*
X0198524Y0183260D02*
X0264824Y0183260D01*
X0264824Y0183859D02*
X0198364Y0183859D01*
X0198524Y0183699D02*
X0197294Y0184929D01*
X0195554Y0184929D01*
X0194324Y0183699D01*
X0194324Y0181960D01*
X0195554Y0180729D01*
X0197294Y0180729D01*
X0198524Y0181960D01*
X0198524Y0183699D01*
X0197766Y0184457D02*
X0264824Y0184457D01*
X0264824Y0185056D02*
X0151167Y0185056D01*
X0151524Y0184699D02*
X0150294Y0185929D01*
X0148554Y0185929D01*
X0147324Y0184699D01*
X0147324Y0182960D01*
X0148554Y0181729D01*
X0150294Y0181729D01*
X0151524Y0182960D01*
X0151524Y0184699D01*
X0151524Y0184457D02*
X0173791Y0184457D01*
X0174294Y0184961D02*
X0173064Y0183731D01*
X0173064Y0181991D01*
X0174294Y0180761D01*
X0176034Y0180761D01*
X0177264Y0181991D01*
X0177264Y0183731D01*
X0176034Y0184961D01*
X0174294Y0184961D01*
X0173192Y0183859D02*
X0151524Y0183859D01*
X0151524Y0183260D02*
X0173064Y0183260D01*
X0173064Y0182662D02*
X0151226Y0182662D01*
X0150628Y0182063D02*
X0152288Y0182063D01*
X0152354Y0182129D02*
X0151124Y0180899D01*
X0151124Y0179160D01*
X0152354Y0177929D01*
X0154094Y0177929D01*
X0155324Y0179160D01*
X0155324Y0180899D01*
X0154094Y0182129D01*
X0152354Y0182129D01*
X0151689Y0181465D02*
X0084429Y0181465D01*
X0083894Y0180929D02*
X0085124Y0182160D01*
X0085124Y0183899D01*
X0083894Y0185129D01*
X0082154Y0185129D01*
X0080924Y0183899D01*
X0080924Y0182160D01*
X0082154Y0180929D01*
X0083894Y0180929D01*
X0085028Y0182063D02*
X0148220Y0182063D01*
X0147622Y0182662D02*
X0085124Y0182662D01*
X0085124Y0183260D02*
X0138623Y0183260D01*
X0139154Y0182729D02*
X0140894Y0182729D01*
X0142124Y0183960D01*
X0142124Y0185699D01*
X0140894Y0186929D01*
X0139154Y0186929D01*
X0137924Y0185699D01*
X0137924Y0183960D01*
X0139154Y0182729D01*
X0138025Y0183859D02*
X0085124Y0183859D01*
X0084566Y0184457D02*
X0137924Y0184457D01*
X0137924Y0185056D02*
X0083967Y0185056D01*
X0082080Y0185056D02*
X0047724Y0185056D01*
X0047724Y0185654D02*
X0137924Y0185654D01*
X0138477Y0186253D02*
X0090417Y0186253D01*
X0089894Y0185729D02*
X0091124Y0186960D01*
X0091124Y0188699D01*
X0089894Y0189929D01*
X0088154Y0189929D01*
X0086924Y0188699D01*
X0086924Y0186960D01*
X0088154Y0185729D01*
X0089894Y0185729D01*
X0091016Y0186851D02*
X0139076Y0186851D01*
X0140972Y0186851D02*
X0264824Y0186851D01*
X0264824Y0186253D02*
X0141570Y0186253D01*
X0142124Y0185654D02*
X0148279Y0185654D01*
X0147680Y0185056D02*
X0142124Y0185056D01*
X0142124Y0184457D02*
X0147324Y0184457D01*
X0147324Y0183859D02*
X0142023Y0183859D01*
X0141425Y0183260D02*
X0147324Y0183260D01*
X0150569Y0185654D02*
X0264824Y0185654D01*
X0264824Y0187450D02*
X0091124Y0187450D01*
X0091124Y0188048D02*
X0264824Y0188048D01*
X0264824Y0188647D02*
X0091124Y0188647D01*
X0090578Y0189245D02*
X0264824Y0189245D01*
X0264824Y0189844D02*
X0089979Y0189844D01*
X0088068Y0189844D02*
X0047724Y0189844D01*
X0047724Y0190442D02*
X0101441Y0190442D01*
X0101954Y0189929D02*
X0103694Y0189929D01*
X0104924Y0191160D01*
X0104924Y0192899D01*
X0103694Y0194129D01*
X0101954Y0194129D01*
X0100724Y0192899D01*
X0100724Y0191160D01*
X0101954Y0189929D01*
X0100843Y0191041D02*
X0047724Y0191041D01*
X0047724Y0191639D02*
X0100724Y0191639D01*
X0100724Y0192238D02*
X0047724Y0192238D01*
X0047724Y0192836D02*
X0100724Y0192836D01*
X0101260Y0193435D02*
X0047724Y0193435D01*
X0047724Y0194033D02*
X0101858Y0194033D01*
X0103790Y0194033D02*
X0264824Y0194033D01*
X0264824Y0193435D02*
X0104388Y0193435D01*
X0104924Y0192836D02*
X0264824Y0192836D01*
X0264824Y0192238D02*
X0104924Y0192238D01*
X0104924Y0191639D02*
X0264824Y0191639D01*
X0264824Y0191041D02*
X0104805Y0191041D01*
X0104207Y0190442D02*
X0264824Y0190442D01*
X0264824Y0194632D02*
X0047724Y0194632D01*
X0047724Y0195230D02*
X0264824Y0195230D01*
X0264824Y0195829D02*
X0047724Y0195829D01*
X0047724Y0196427D02*
X0264824Y0196427D01*
X0264824Y0197026D02*
X0047724Y0197026D01*
X0047724Y0197624D02*
X0264824Y0197624D01*
X0264824Y0198223D02*
X0047724Y0198223D01*
X0047724Y0198821D02*
X0264824Y0198821D01*
X0264824Y0199420D02*
X0047724Y0199420D01*
X0047724Y0200019D02*
X0197163Y0200019D01*
X0197523Y0199659D02*
X0199262Y0199659D01*
X0200492Y0200889D01*
X0200492Y0202628D01*
X0199262Y0203859D01*
X0197523Y0203859D01*
X0196292Y0202628D01*
X0196292Y0200889D01*
X0197523Y0199659D01*
X0196564Y0200617D02*
X0047724Y0200617D01*
X0047724Y0201216D02*
X0196292Y0201216D01*
X0196292Y0201814D02*
X0047724Y0201814D01*
X0047724Y0202413D02*
X0196292Y0202413D01*
X0196675Y0203011D02*
X0047724Y0203011D01*
X0047724Y0203610D02*
X0172312Y0203610D01*
X0172719Y0203202D02*
X0174459Y0203202D01*
X0175689Y0204432D01*
X0175689Y0206172D01*
X0174459Y0207402D01*
X0172719Y0207402D01*
X0171489Y0206172D01*
X0171489Y0204432D01*
X0172719Y0203202D01*
X0171713Y0204208D02*
X0152772Y0204208D01*
X0152294Y0203729D02*
X0153524Y0204960D01*
X0153524Y0206699D01*
X0152294Y0207929D01*
X0150554Y0207929D01*
X0149324Y0206699D01*
X0149324Y0204960D01*
X0150554Y0203729D01*
X0152294Y0203729D01*
X0153371Y0204807D02*
X0171489Y0204807D01*
X0171489Y0205405D02*
X0153524Y0205405D01*
X0153524Y0206004D02*
X0171489Y0206004D01*
X0171920Y0206602D02*
X0153524Y0206602D01*
X0153022Y0207201D02*
X0172518Y0207201D01*
X0174660Y0207201D02*
X0264824Y0207201D01*
X0264824Y0207799D02*
X0152424Y0207799D01*
X0150424Y0207799D02*
X0047724Y0207799D01*
X0047724Y0207201D02*
X0149825Y0207201D01*
X0149324Y0206602D02*
X0047724Y0206602D01*
X0047724Y0206004D02*
X0149324Y0206004D01*
X0149324Y0205405D02*
X0047724Y0205405D01*
X0047724Y0204807D02*
X0149477Y0204807D01*
X0150075Y0204208D02*
X0047724Y0204208D01*
X0047724Y0208398D02*
X0327604Y0208398D01*
X0327604Y0208996D02*
X0163649Y0208996D01*
X0162775Y0208634D02*
X0164734Y0209445D01*
X0166233Y0210945D01*
X0167044Y0212903D01*
X0167044Y0215023D01*
X0166233Y0216982D01*
X0164734Y0218481D01*
X0162775Y0219292D01*
X0160655Y0219292D01*
X0158697Y0218481D01*
X0157197Y0216982D01*
X0156386Y0215023D01*
X0156386Y0212903D01*
X0157197Y0210945D01*
X0158697Y0209445D01*
X0160655Y0208634D01*
X0162775Y0208634D01*
X0164883Y0209595D02*
X0327728Y0209595D01*
X0327976Y0210193D02*
X0165482Y0210193D01*
X0166080Y0210792D02*
X0328224Y0210792D01*
X0328472Y0211390D02*
X0166418Y0211390D01*
X0166666Y0211989D02*
X0184295Y0211989D01*
X0184754Y0211529D02*
X0186494Y0211529D01*
X0187724Y0212760D01*
X0187724Y0214499D01*
X0186494Y0215729D01*
X0184754Y0215729D01*
X0183524Y0214499D01*
X0183524Y0212760D01*
X0184754Y0211529D01*
X0183696Y0212587D02*
X0166913Y0212587D01*
X0167044Y0213186D02*
X0183524Y0213186D01*
X0183524Y0213784D02*
X0167044Y0213784D01*
X0167044Y0214383D02*
X0183524Y0214383D01*
X0184006Y0214981D02*
X0167044Y0214981D01*
X0166814Y0215580D02*
X0184604Y0215580D01*
X0186643Y0215580D02*
X0198725Y0215580D01*
X0199084Y0215431D02*
X0200536Y0215431D01*
X0201877Y0215987D01*
X0202904Y0217014D01*
X0203460Y0218355D01*
X0203460Y0219807D01*
X0202904Y0221149D01*
X0201877Y0222176D01*
X0200536Y0222731D01*
X0199084Y0222731D01*
X0197742Y0222176D01*
X0196715Y0221149D01*
X0196160Y0219807D01*
X0196160Y0218355D01*
X0196715Y0217014D01*
X0197742Y0215987D01*
X0199084Y0215431D01*
X0197551Y0216178D02*
X0166566Y0216178D01*
X0166318Y0216777D02*
X0196952Y0216777D01*
X0196566Y0217375D02*
X0165840Y0217375D01*
X0165241Y0217974D02*
X0196318Y0217974D01*
X0196160Y0218572D02*
X0164514Y0218572D01*
X0163069Y0219171D02*
X0196160Y0219171D01*
X0196160Y0219769D02*
X0075524Y0219769D01*
X0075368Y0219613D02*
X0078176Y0222421D01*
X0080161Y0225859D01*
X0081188Y0229695D01*
X0081188Y0233665D01*
X0080161Y0237500D01*
X0078176Y0240939D01*
X0075368Y0243746D01*
X0071929Y0245732D01*
X0068094Y0246759D01*
X0064124Y0246759D01*
X0060288Y0245732D01*
X0056850Y0243746D01*
X0054042Y0240939D01*
X0052057Y0237500D01*
X0051029Y0233665D01*
X0051029Y0229695D01*
X0052057Y0225859D01*
X0054042Y0222421D01*
X0056850Y0219613D01*
X0060288Y0217628D01*
X0064124Y0216600D01*
X0068094Y0216600D01*
X0071929Y0217628D01*
X0075368Y0219613D01*
X0074602Y0219171D02*
X0123354Y0219171D01*
X0123647Y0219292D02*
X0121689Y0218481D01*
X0120190Y0216982D01*
X0119378Y0215023D01*
X0119378Y0212903D01*
X0120190Y0210945D01*
X0121689Y0209445D01*
X0123647Y0208634D01*
X0125767Y0208634D01*
X0127726Y0209445D01*
X0129225Y0210945D01*
X0130036Y0212903D01*
X0130036Y0215023D01*
X0129225Y0216982D01*
X0127726Y0218481D01*
X0125767Y0219292D01*
X0123647Y0219292D01*
X0121909Y0218572D02*
X0073565Y0218572D01*
X0072529Y0217974D02*
X0121181Y0217974D01*
X0120583Y0217375D02*
X0070987Y0217375D01*
X0068753Y0216777D02*
X0120105Y0216777D01*
X0119857Y0216178D02*
X0047724Y0216178D01*
X0047724Y0215580D02*
X0119609Y0215580D01*
X0119378Y0214981D02*
X0047724Y0214981D01*
X0047724Y0214383D02*
X0119378Y0214383D01*
X0119378Y0213784D02*
X0047724Y0213784D01*
X0047724Y0213186D02*
X0093710Y0213186D01*
X0093854Y0213329D02*
X0092624Y0212099D01*
X0092624Y0210360D01*
X0093854Y0209129D01*
X0095594Y0209129D01*
X0096824Y0210360D01*
X0096824Y0212099D01*
X0095594Y0213329D01*
X0093854Y0213329D01*
X0093112Y0212587D02*
X0047724Y0212587D01*
X0047724Y0211989D02*
X0092624Y0211989D01*
X0092624Y0211390D02*
X0047724Y0211390D01*
X0047724Y0210792D02*
X0092624Y0210792D01*
X0092790Y0210193D02*
X0047724Y0210193D01*
X0047724Y0209595D02*
X0093389Y0209595D01*
X0096059Y0209595D02*
X0097889Y0209595D01*
X0098354Y0209129D02*
X0097124Y0210360D01*
X0097124Y0212099D01*
X0098354Y0213329D01*
X0100094Y0213329D01*
X0101324Y0212099D01*
X0101324Y0210360D01*
X0100094Y0209129D01*
X0098354Y0209129D01*
X0097290Y0210193D02*
X0096658Y0210193D01*
X0096824Y0210792D02*
X0097124Y0210792D01*
X0097124Y0211390D02*
X0096824Y0211390D01*
X0096824Y0211989D02*
X0097124Y0211989D01*
X0097612Y0212587D02*
X0096336Y0212587D01*
X0095737Y0213186D02*
X0098210Y0213186D01*
X0100237Y0213186D02*
X0119378Y0213186D01*
X0119509Y0212587D02*
X0100836Y0212587D01*
X0101324Y0211989D02*
X0119757Y0211989D01*
X0120005Y0211390D02*
X0101324Y0211390D01*
X0101324Y0210792D02*
X0120342Y0210792D01*
X0120941Y0210193D02*
X0101158Y0210193D01*
X0100559Y0209595D02*
X0121539Y0209595D01*
X0122773Y0208996D02*
X0047724Y0208996D01*
X0047724Y0216777D02*
X0063465Y0216777D01*
X0061231Y0217375D02*
X0047724Y0217375D01*
X0047724Y0217974D02*
X0059689Y0217974D01*
X0058653Y0218572D02*
X0047724Y0218572D01*
X0047724Y0219171D02*
X0057616Y0219171D01*
X0056694Y0219769D02*
X0047724Y0219769D01*
X0047724Y0220368D02*
X0056095Y0220368D01*
X0055497Y0220966D02*
X0047724Y0220966D01*
X0047724Y0221565D02*
X0054898Y0221565D01*
X0054300Y0222163D02*
X0047724Y0222163D01*
X0047724Y0222762D02*
X0053845Y0222762D01*
X0053500Y0223360D02*
X0047724Y0223360D01*
X0047724Y0223959D02*
X0053154Y0223959D01*
X0052809Y0224557D02*
X0047724Y0224557D01*
X0047724Y0225156D02*
X0052463Y0225156D01*
X0052118Y0225755D02*
X0047724Y0225755D01*
X0047724Y0226353D02*
X0051925Y0226353D01*
X0051764Y0226952D02*
X0047724Y0226952D01*
X0047724Y0227550D02*
X0051604Y0227550D01*
X0051444Y0228149D02*
X0047724Y0228149D01*
X0047724Y0228747D02*
X0051283Y0228747D01*
X0051123Y0229346D02*
X0047724Y0229346D01*
X0047724Y0229944D02*
X0051029Y0229944D01*
X0051029Y0230543D02*
X0047724Y0230543D01*
X0047724Y0231141D02*
X0051029Y0231141D01*
X0051029Y0231740D02*
X0047727Y0231740D01*
X0047761Y0232338D02*
X0051029Y0232338D01*
X0051029Y0232937D02*
X0047794Y0232937D01*
X0047828Y0233535D02*
X0051029Y0233535D01*
X0051155Y0234134D02*
X0047930Y0234134D01*
X0048066Y0234732D02*
X0051315Y0234732D01*
X0051476Y0235331D02*
X0048203Y0235331D01*
X0048340Y0235929D02*
X0051636Y0235929D01*
X0051796Y0236528D02*
X0048476Y0236528D01*
X0048613Y0237126D02*
X0051957Y0237126D01*
X0052187Y0237725D02*
X0048749Y0237725D01*
X0049031Y0238323D02*
X0052532Y0238323D01*
X0052878Y0238922D02*
X0049319Y0238922D01*
X0049607Y0239520D02*
X0053223Y0239520D01*
X0053569Y0240119D02*
X0049895Y0240119D01*
X0050184Y0240717D02*
X0053914Y0240717D01*
X0054419Y0241316D02*
X0050472Y0241316D01*
X0050903Y0241914D02*
X0055018Y0241914D01*
X0055616Y0242513D02*
X0051380Y0242513D01*
X0051858Y0243111D02*
X0056215Y0243111D01*
X0056813Y0243710D02*
X0052335Y0243710D01*
X0052812Y0244308D02*
X0057823Y0244308D01*
X0058860Y0244907D02*
X0053393Y0244907D01*
X0054144Y0245505D02*
X0059897Y0245505D01*
X0061678Y0246104D02*
X0054894Y0246104D01*
X0055645Y0246702D02*
X0063911Y0246702D01*
X0062936Y0249695D02*
X0336998Y0249695D01*
X0339620Y0249096D02*
X0060314Y0249096D01*
X0058925Y0248498D02*
X0341009Y0248498D01*
X0342252Y0247899D02*
X0112087Y0247899D01*
X0111927Y0247966D02*
X0110774Y0247966D01*
X0109708Y0247524D01*
X0108892Y0246708D01*
X0108451Y0245642D01*
X0108451Y0244489D01*
X0108892Y0243423D01*
X0109708Y0242607D01*
X0110774Y0242166D01*
X0111927Y0242166D01*
X0112993Y0242607D01*
X0113809Y0243423D01*
X0114251Y0244489D01*
X0114251Y0245642D01*
X0113809Y0246708D01*
X0112993Y0247524D01*
X0111927Y0247966D01*
X0110614Y0247899D02*
X0083544Y0247899D01*
X0083384Y0247966D02*
X0082230Y0247966D01*
X0081165Y0247524D01*
X0080349Y0246708D01*
X0079907Y0245642D01*
X0079907Y0244489D01*
X0080349Y0243423D01*
X0081165Y0242607D01*
X0082230Y0242166D01*
X0083384Y0242166D01*
X0084450Y0242607D01*
X0085266Y0243423D01*
X0085707Y0244489D01*
X0085707Y0245642D01*
X0085266Y0246708D01*
X0084450Y0247524D01*
X0083384Y0247966D01*
X0082071Y0247899D02*
X0057683Y0247899D01*
X0056440Y0247301D02*
X0080941Y0247301D01*
X0080346Y0246702D02*
X0068307Y0246702D01*
X0070540Y0246104D02*
X0080098Y0246104D01*
X0079907Y0245505D02*
X0072321Y0245505D01*
X0073358Y0244907D02*
X0079907Y0244907D01*
X0079982Y0244308D02*
X0074395Y0244308D01*
X0075405Y0243710D02*
X0080230Y0243710D01*
X0080660Y0243111D02*
X0076003Y0243111D01*
X0076602Y0242513D02*
X0081392Y0242513D01*
X0084222Y0242513D02*
X0109936Y0242513D01*
X0109204Y0243111D02*
X0084954Y0243111D01*
X0085385Y0243710D02*
X0108773Y0243710D01*
X0108525Y0244308D02*
X0085633Y0244308D01*
X0085707Y0244907D02*
X0108451Y0244907D01*
X0108451Y0245505D02*
X0085707Y0245505D01*
X0085516Y0246104D02*
X0108642Y0246104D01*
X0108890Y0246702D02*
X0085268Y0246702D01*
X0084673Y0247301D02*
X0109485Y0247301D01*
X0113217Y0247301D02*
X0175400Y0247301D01*
X0175452Y0247353D02*
X0174754Y0246655D01*
X0174376Y0245743D01*
X0174376Y0244756D01*
X0174754Y0243844D01*
X0175452Y0243146D01*
X0176363Y0242768D01*
X0177350Y0242768D01*
X0178262Y0243146D01*
X0178960Y0243844D01*
X0179338Y0244756D01*
X0179338Y0245743D01*
X0178960Y0246655D01*
X0178262Y0247353D01*
X0177350Y0247730D01*
X0176363Y0247730D01*
X0175452Y0247353D01*
X0174801Y0246702D02*
X0113812Y0246702D01*
X0114060Y0246104D02*
X0174525Y0246104D01*
X0174376Y0245505D02*
X0114251Y0245505D01*
X0114251Y0244907D02*
X0174376Y0244907D01*
X0174561Y0244308D02*
X0114176Y0244308D01*
X0113928Y0243710D02*
X0174888Y0243710D01*
X0175535Y0243111D02*
X0113498Y0243111D01*
X0112766Y0242513D02*
X0191137Y0242513D01*
X0191354Y0242729D02*
X0190124Y0241499D01*
X0190124Y0239760D01*
X0191354Y0238529D01*
X0193094Y0238529D01*
X0194324Y0239760D01*
X0194324Y0241499D01*
X0193094Y0242729D01*
X0191354Y0242729D01*
X0190539Y0241914D02*
X0077200Y0241914D01*
X0077799Y0241316D02*
X0190124Y0241316D01*
X0190124Y0240717D02*
X0078303Y0240717D01*
X0078649Y0240119D02*
X0190124Y0240119D01*
X0190363Y0239520D02*
X0078995Y0239520D01*
X0079340Y0238922D02*
X0190962Y0238922D01*
X0193486Y0238922D02*
X0297547Y0238922D01*
X0297415Y0239053D02*
X0298393Y0238076D01*
X0299670Y0237547D01*
X0301052Y0237547D01*
X0302329Y0238076D01*
X0303307Y0239053D01*
X0303836Y0240330D01*
X0303836Y0241713D01*
X0303307Y0242990D01*
X0302329Y0243967D01*
X0301052Y0244496D01*
X0299670Y0244496D01*
X0298393Y0243967D01*
X0297415Y0242990D01*
X0296886Y0241713D01*
X0296886Y0240330D01*
X0297415Y0239053D01*
X0297222Y0239520D02*
X0194085Y0239520D01*
X0194324Y0240119D02*
X0296974Y0240119D01*
X0296886Y0240717D02*
X0194324Y0240717D01*
X0194324Y0241316D02*
X0296886Y0241316D01*
X0296970Y0241914D02*
X0193909Y0241914D01*
X0193310Y0242513D02*
X0297218Y0242513D01*
X0297537Y0243111D02*
X0185029Y0243111D01*
X0185113Y0243146D02*
X0185811Y0243844D01*
X0186188Y0244756D01*
X0186188Y0245743D01*
X0185811Y0246655D01*
X0185113Y0247353D01*
X0184201Y0247730D01*
X0183214Y0247730D01*
X0182302Y0247353D01*
X0181604Y0246655D01*
X0181226Y0245743D01*
X0181226Y0244756D01*
X0181604Y0243844D01*
X0182302Y0243146D01*
X0183214Y0242768D01*
X0184201Y0242768D01*
X0185113Y0243146D01*
X0185677Y0243710D02*
X0298135Y0243710D01*
X0299216Y0244308D02*
X0186003Y0244308D01*
X0186188Y0244907D02*
X0326576Y0244907D01*
X0325540Y0244308D02*
X0313317Y0244308D01*
X0312863Y0244496D02*
X0311481Y0244496D01*
X0310204Y0243967D01*
X0309226Y0242990D01*
X0308697Y0241713D01*
X0308697Y0240330D01*
X0309226Y0239053D01*
X0310204Y0238076D01*
X0311481Y0237547D01*
X0312863Y0237547D01*
X0314140Y0238076D01*
X0315118Y0239053D01*
X0315647Y0240330D01*
X0315647Y0241713D01*
X0315118Y0242990D01*
X0314140Y0243967D01*
X0312863Y0244496D01*
X0314398Y0243710D02*
X0324530Y0243710D01*
X0324566Y0243746D02*
X0321759Y0240939D01*
X0319774Y0237500D01*
X0318746Y0233665D01*
X0318746Y0229695D01*
X0319774Y0225859D01*
X0321759Y0222421D01*
X0324566Y0219613D01*
X0328005Y0217628D01*
X0331840Y0216600D01*
X0335811Y0216600D01*
X0339646Y0217628D01*
X0343084Y0219613D01*
X0345892Y0222421D01*
X0347877Y0225859D01*
X0348905Y0229695D01*
X0348905Y0233665D01*
X0347877Y0237500D01*
X0345892Y0240939D01*
X0343084Y0243746D01*
X0339646Y0245732D01*
X0335811Y0246759D01*
X0331840Y0246759D01*
X0328005Y0245732D01*
X0324566Y0243746D01*
X0323931Y0243111D02*
X0314996Y0243111D01*
X0315315Y0242513D02*
X0323333Y0242513D01*
X0322734Y0241914D02*
X0315563Y0241914D01*
X0315647Y0241316D02*
X0322136Y0241316D01*
X0321631Y0240717D02*
X0315647Y0240717D01*
X0315559Y0240119D02*
X0321285Y0240119D01*
X0320940Y0239520D02*
X0315311Y0239520D01*
X0314986Y0238922D02*
X0320594Y0238922D01*
X0320249Y0238323D02*
X0314388Y0238323D01*
X0313293Y0237725D02*
X0319903Y0237725D01*
X0319673Y0237126D02*
X0307642Y0237126D01*
X0308235Y0236881D02*
X0306958Y0237410D01*
X0305575Y0237410D01*
X0304298Y0236881D01*
X0303321Y0235903D01*
X0302792Y0234626D01*
X0302792Y0233244D01*
X0303321Y0231967D01*
X0304298Y0230989D01*
X0305575Y0230460D01*
X0306958Y0230460D01*
X0308235Y0230989D01*
X0309212Y0231967D01*
X0309741Y0233244D01*
X0309741Y0234626D01*
X0309212Y0235903D01*
X0308235Y0236881D01*
X0308588Y0236528D02*
X0319513Y0236528D01*
X0319353Y0235929D02*
X0309186Y0235929D01*
X0309449Y0235331D02*
X0319192Y0235331D01*
X0319032Y0234732D02*
X0309697Y0234732D01*
X0309741Y0234134D02*
X0318871Y0234134D01*
X0318746Y0233535D02*
X0309741Y0233535D01*
X0309614Y0232937D02*
X0318746Y0232937D01*
X0318746Y0232338D02*
X0309366Y0232338D01*
X0308985Y0231740D02*
X0318746Y0231740D01*
X0318746Y0231141D02*
X0308387Y0231141D01*
X0307157Y0230543D02*
X0318746Y0230543D01*
X0318746Y0229944D02*
X0081188Y0229944D01*
X0081188Y0230543D02*
X0305376Y0230543D01*
X0304146Y0231141D02*
X0108038Y0231141D01*
X0108595Y0231372D02*
X0109572Y0232349D01*
X0110101Y0233626D01*
X0110101Y0235009D01*
X0109572Y0236286D01*
X0108595Y0237263D01*
X0107317Y0237792D01*
X0105935Y0237792D01*
X0104658Y0237263D01*
X0103680Y0236286D01*
X0103151Y0235009D01*
X0103151Y0233626D01*
X0103680Y0232349D01*
X0104658Y0231372D01*
X0105935Y0230843D01*
X0107317Y0230843D01*
X0108595Y0231372D01*
X0108962Y0231740D02*
X0303548Y0231740D01*
X0303167Y0232338D02*
X0109561Y0232338D01*
X0109815Y0232937D02*
X0302919Y0232937D01*
X0302792Y0233535D02*
X0110063Y0233535D01*
X0110101Y0234134D02*
X0302792Y0234134D01*
X0302836Y0234732D02*
X0110101Y0234732D01*
X0109968Y0235331D02*
X0303083Y0235331D01*
X0303347Y0235929D02*
X0109720Y0235929D01*
X0109330Y0236528D02*
X0303945Y0236528D01*
X0304891Y0237126D02*
X0108732Y0237126D01*
X0107481Y0237725D02*
X0299240Y0237725D01*
X0298145Y0238323D02*
X0079686Y0238323D01*
X0080031Y0237725D02*
X0086677Y0237725D01*
X0086841Y0237792D02*
X0085563Y0237263D01*
X0084586Y0236286D01*
X0084057Y0235009D01*
X0084057Y0233626D01*
X0084586Y0232349D01*
X0085563Y0231372D01*
X0086841Y0230843D01*
X0088223Y0230843D01*
X0089500Y0231372D01*
X0090478Y0232349D01*
X0091007Y0233626D01*
X0091007Y0235009D01*
X0090478Y0236286D01*
X0089500Y0237263D01*
X0088223Y0237792D01*
X0086841Y0237792D01*
X0088386Y0237725D02*
X0105772Y0237725D01*
X0104521Y0237126D02*
X0089637Y0237126D01*
X0090236Y0236528D02*
X0103922Y0236528D01*
X0103533Y0235929D02*
X0090625Y0235929D01*
X0090873Y0235331D02*
X0103285Y0235331D01*
X0103151Y0234732D02*
X0091007Y0234732D01*
X0091007Y0234134D02*
X0103151Y0234134D01*
X0103189Y0233535D02*
X0090969Y0233535D01*
X0090721Y0232937D02*
X0103437Y0232937D01*
X0103692Y0232338D02*
X0090466Y0232338D01*
X0089868Y0231740D02*
X0104290Y0231740D01*
X0105215Y0231141D02*
X0088943Y0231141D01*
X0086120Y0231141D02*
X0081188Y0231141D01*
X0081188Y0231740D02*
X0085196Y0231740D01*
X0084597Y0232338D02*
X0081188Y0232338D01*
X0081188Y0232937D02*
X0084343Y0232937D01*
X0084095Y0233535D02*
X0081188Y0233535D01*
X0081063Y0234134D02*
X0084057Y0234134D01*
X0084057Y0234732D02*
X0080903Y0234732D01*
X0080742Y0235331D02*
X0084190Y0235331D01*
X0084438Y0235929D02*
X0080582Y0235929D01*
X0080421Y0236528D02*
X0084828Y0236528D01*
X0085426Y0237126D02*
X0080261Y0237126D01*
X0081095Y0229346D02*
X0318839Y0229346D01*
X0319000Y0228747D02*
X0080935Y0228747D01*
X0080774Y0228149D02*
X0319160Y0228149D01*
X0319321Y0227550D02*
X0080614Y0227550D01*
X0080453Y0226952D02*
X0319481Y0226952D01*
X0319641Y0226353D02*
X0080293Y0226353D01*
X0080100Y0225755D02*
X0319834Y0225755D01*
X0320180Y0225156D02*
X0079755Y0225156D01*
X0079409Y0224557D02*
X0320525Y0224557D01*
X0320871Y0223959D02*
X0079064Y0223959D01*
X0078718Y0223360D02*
X0321216Y0223360D01*
X0321562Y0222762D02*
X0238476Y0222762D01*
X0238697Y0222670D02*
X0237960Y0222976D01*
X0237177Y0223131D01*
X0237078Y0223131D01*
X0237078Y0219381D01*
X0240828Y0219381D01*
X0240828Y0219480D01*
X0240673Y0220263D01*
X0240367Y0221000D01*
X0239924Y0221663D01*
X0239360Y0222227D01*
X0238697Y0222670D01*
X0239424Y0222163D02*
X0244698Y0222163D01*
X0244711Y0222176D02*
X0243684Y0221149D01*
X0243128Y0219807D01*
X0243128Y0218355D01*
X0243684Y0217014D01*
X0244711Y0215987D01*
X0246052Y0215431D01*
X0247504Y0215431D01*
X0248846Y0215987D01*
X0249873Y0217014D01*
X0250428Y0218355D01*
X0250428Y0219807D01*
X0249873Y0221149D01*
X0248846Y0222176D01*
X0247504Y0222731D01*
X0246052Y0222731D01*
X0244711Y0222176D01*
X0244100Y0221565D02*
X0239990Y0221565D01*
X0240381Y0220966D02*
X0243608Y0220966D01*
X0243360Y0220368D02*
X0240629Y0220368D01*
X0240771Y0219769D02*
X0243128Y0219769D01*
X0243128Y0219171D02*
X0237078Y0219171D01*
X0237078Y0219381D02*
X0237078Y0218781D01*
X0237078Y0215031D01*
X0237177Y0215031D01*
X0237960Y0215187D01*
X0238697Y0215492D01*
X0239360Y0215936D01*
X0239924Y0216500D01*
X0240367Y0217163D01*
X0240673Y0217900D01*
X0240828Y0218682D01*
X0240828Y0218781D01*
X0237078Y0218781D01*
X0236478Y0218781D01*
X0236478Y0215031D01*
X0236379Y0215031D01*
X0235597Y0215187D01*
X0234860Y0215492D01*
X0234196Y0215936D01*
X0233632Y0216500D01*
X0233189Y0217163D01*
X0232884Y0217900D01*
X0232728Y0218682D01*
X0232728Y0218781D01*
X0236478Y0218781D01*
X0236478Y0219381D01*
X0232728Y0219381D01*
X0232728Y0219480D01*
X0232884Y0220263D01*
X0233189Y0221000D01*
X0233632Y0221663D01*
X0234196Y0222227D01*
X0234860Y0222670D01*
X0235597Y0222976D01*
X0236379Y0223131D01*
X0236478Y0223131D01*
X0236478Y0219381D01*
X0237078Y0219381D01*
X0237078Y0219769D02*
X0236478Y0219769D01*
X0236478Y0219171D02*
X0223460Y0219171D01*
X0223460Y0219769D02*
X0232786Y0219769D01*
X0232927Y0220368D02*
X0223228Y0220368D01*
X0223460Y0219807D02*
X0222904Y0221149D01*
X0221877Y0222176D01*
X0220536Y0222731D01*
X0219084Y0222731D01*
X0217742Y0222176D01*
X0216715Y0221149D01*
X0216160Y0219807D01*
X0216160Y0218355D01*
X0216715Y0217014D01*
X0217742Y0215987D01*
X0219084Y0215431D01*
X0220536Y0215431D01*
X0221877Y0215987D01*
X0222904Y0217014D01*
X0223460Y0218355D01*
X0223460Y0219807D01*
X0223460Y0218572D02*
X0232750Y0218572D01*
X0232869Y0217974D02*
X0223302Y0217974D01*
X0223054Y0217375D02*
X0233101Y0217375D01*
X0233447Y0216777D02*
X0222667Y0216777D01*
X0222069Y0216178D02*
X0233954Y0216178D01*
X0234729Y0215580D02*
X0220894Y0215580D01*
X0218725Y0215580D02*
X0210894Y0215580D01*
X0210536Y0215431D02*
X0211877Y0215987D01*
X0212904Y0217014D01*
X0213460Y0218355D01*
X0213460Y0219807D01*
X0212904Y0221149D01*
X0211877Y0222176D01*
X0210536Y0222731D01*
X0209084Y0222731D01*
X0207742Y0222176D01*
X0206715Y0221149D01*
X0206160Y0219807D01*
X0206160Y0218355D01*
X0206715Y0217014D01*
X0207742Y0215987D01*
X0209084Y0215431D01*
X0210536Y0215431D01*
X0212069Y0216178D02*
X0217551Y0216178D01*
X0216952Y0216777D02*
X0212667Y0216777D01*
X0213054Y0217375D02*
X0216566Y0217375D01*
X0216318Y0217974D02*
X0213302Y0217974D01*
X0213460Y0218572D02*
X0216160Y0218572D01*
X0216160Y0219171D02*
X0213460Y0219171D01*
X0213460Y0219769D02*
X0216160Y0219769D01*
X0216392Y0220368D02*
X0213228Y0220368D01*
X0212980Y0220966D02*
X0216640Y0220966D01*
X0217131Y0221565D02*
X0212488Y0221565D01*
X0211890Y0222163D02*
X0217730Y0222163D01*
X0221890Y0222163D02*
X0234133Y0222163D01*
X0233567Y0221565D02*
X0222488Y0221565D01*
X0222980Y0220966D02*
X0233175Y0220966D01*
X0235081Y0222762D02*
X0078373Y0222762D01*
X0077918Y0222163D02*
X0197730Y0222163D01*
X0197131Y0221565D02*
X0077320Y0221565D01*
X0076721Y0220966D02*
X0196640Y0220966D01*
X0196392Y0220368D02*
X0076123Y0220368D01*
X0056327Y0247247D02*
X0056327Y0247247D01*
X0126061Y0219171D02*
X0141858Y0219171D01*
X0142151Y0219292D02*
X0140193Y0218481D01*
X0138693Y0216982D01*
X0137882Y0215023D01*
X0137882Y0212903D01*
X0138693Y0210945D01*
X0140193Y0209445D01*
X0142151Y0208634D01*
X0144271Y0208634D01*
X0146230Y0209445D01*
X0147729Y0210945D01*
X0148540Y0212903D01*
X0148540Y0215023D01*
X0147729Y0216982D01*
X0146230Y0218481D01*
X0144271Y0219292D01*
X0142151Y0219292D01*
X0140413Y0218572D02*
X0127506Y0218572D01*
X0128233Y0217974D02*
X0139685Y0217974D01*
X0139087Y0217375D02*
X0128832Y0217375D01*
X0129310Y0216777D02*
X0138609Y0216777D01*
X0138361Y0216178D02*
X0129558Y0216178D01*
X0129806Y0215580D02*
X0138113Y0215580D01*
X0137882Y0214981D02*
X0130036Y0214981D01*
X0130036Y0214383D02*
X0137882Y0214383D01*
X0137882Y0213784D02*
X0130036Y0213784D01*
X0130036Y0213186D02*
X0137882Y0213186D01*
X0138013Y0212587D02*
X0129906Y0212587D01*
X0129658Y0211989D02*
X0138261Y0211989D01*
X0138509Y0211390D02*
X0129410Y0211390D01*
X0129072Y0210792D02*
X0138846Y0210792D01*
X0139445Y0210193D02*
X0128474Y0210193D01*
X0127875Y0209595D02*
X0140043Y0209595D01*
X0141277Y0208996D02*
X0126641Y0208996D01*
X0145145Y0208996D02*
X0159781Y0208996D01*
X0158547Y0209595D02*
X0146379Y0209595D01*
X0146978Y0210193D02*
X0157949Y0210193D01*
X0157350Y0210792D02*
X0147576Y0210792D01*
X0147914Y0211390D02*
X0157013Y0211390D01*
X0156765Y0211989D02*
X0148162Y0211989D01*
X0148410Y0212587D02*
X0156517Y0212587D01*
X0156386Y0213186D02*
X0148540Y0213186D01*
X0148540Y0213784D02*
X0156386Y0213784D01*
X0156386Y0214383D02*
X0148540Y0214383D01*
X0148540Y0214981D02*
X0156386Y0214981D01*
X0156617Y0215580D02*
X0148310Y0215580D01*
X0148062Y0216178D02*
X0156865Y0216178D01*
X0157112Y0216777D02*
X0147814Y0216777D01*
X0147336Y0217375D02*
X0157591Y0217375D01*
X0158189Y0217974D02*
X0146737Y0217974D01*
X0146010Y0218572D02*
X0158917Y0218572D01*
X0160362Y0219171D02*
X0144565Y0219171D01*
X0175259Y0206602D02*
X0264824Y0206602D01*
X0264824Y0206004D02*
X0175689Y0206004D01*
X0175689Y0205405D02*
X0264824Y0205405D01*
X0264824Y0204807D02*
X0175689Y0204807D01*
X0175465Y0204208D02*
X0264824Y0204208D01*
X0264824Y0203610D02*
X0199511Y0203610D01*
X0200110Y0203011D02*
X0264824Y0203011D01*
X0264824Y0202413D02*
X0200492Y0202413D01*
X0200492Y0201814D02*
X0264824Y0201814D01*
X0264824Y0201216D02*
X0200492Y0201216D01*
X0200221Y0200617D02*
X0264824Y0200617D01*
X0264824Y0200019D02*
X0199622Y0200019D01*
X0197274Y0203610D02*
X0174867Y0203610D01*
X0186953Y0211989D02*
X0328958Y0211989D01*
X0329557Y0212587D02*
X0187552Y0212587D01*
X0187724Y0213186D02*
X0330155Y0213186D01*
X0331394Y0213784D02*
X0187724Y0213784D01*
X0187724Y0214383D02*
X0352210Y0214383D01*
X0352210Y0214981D02*
X0187242Y0214981D01*
X0200894Y0215580D02*
X0208725Y0215580D01*
X0207551Y0216178D02*
X0202069Y0216178D01*
X0202667Y0216777D02*
X0206952Y0216777D01*
X0206566Y0217375D02*
X0203054Y0217375D01*
X0203302Y0217974D02*
X0206318Y0217974D01*
X0206160Y0218572D02*
X0203460Y0218572D01*
X0203460Y0219171D02*
X0206160Y0219171D01*
X0206160Y0219769D02*
X0203460Y0219769D01*
X0203228Y0220368D02*
X0206392Y0220368D01*
X0206640Y0220966D02*
X0202980Y0220966D01*
X0202488Y0221565D02*
X0207131Y0221565D01*
X0207730Y0222163D02*
X0201890Y0222163D01*
X0182386Y0243111D02*
X0178179Y0243111D01*
X0178826Y0243710D02*
X0181738Y0243710D01*
X0181412Y0244308D02*
X0179153Y0244308D01*
X0179338Y0244907D02*
X0181226Y0244907D01*
X0181226Y0245505D02*
X0179338Y0245505D01*
X0179189Y0246104D02*
X0181376Y0246104D01*
X0181652Y0246702D02*
X0178913Y0246702D01*
X0178314Y0247301D02*
X0182250Y0247301D01*
X0185165Y0247301D02*
X0343495Y0247301D01*
X0344290Y0246702D02*
X0336023Y0246702D01*
X0338257Y0246104D02*
X0345040Y0246104D01*
X0345791Y0245505D02*
X0340038Y0245505D01*
X0341075Y0244907D02*
X0346541Y0244907D01*
X0347122Y0244308D02*
X0342111Y0244308D01*
X0343121Y0243710D02*
X0347599Y0243710D01*
X0348077Y0243111D02*
X0343720Y0243111D01*
X0344318Y0242513D02*
X0348554Y0242513D01*
X0349031Y0241914D02*
X0344917Y0241914D01*
X0345515Y0241316D02*
X0349463Y0241316D01*
X0349751Y0240717D02*
X0346020Y0240717D01*
X0346366Y0240119D02*
X0350039Y0240119D01*
X0350327Y0239520D02*
X0346711Y0239520D01*
X0347057Y0238922D02*
X0350615Y0238922D01*
X0350904Y0238323D02*
X0347402Y0238323D01*
X0347748Y0237725D02*
X0351185Y0237725D01*
X0351322Y0237126D02*
X0347978Y0237126D01*
X0348138Y0236528D02*
X0351458Y0236528D01*
X0351595Y0235929D02*
X0348298Y0235929D01*
X0348459Y0235331D02*
X0351731Y0235331D01*
X0351868Y0234732D02*
X0348619Y0234732D01*
X0348779Y0234134D02*
X0352005Y0234134D01*
X0352106Y0233535D02*
X0348905Y0233535D01*
X0348905Y0232937D02*
X0352140Y0232937D01*
X0352174Y0232338D02*
X0348905Y0232338D01*
X0348905Y0231740D02*
X0352207Y0231740D01*
X0352210Y0231141D02*
X0348905Y0231141D01*
X0348905Y0230543D02*
X0352210Y0230543D01*
X0352210Y0229944D02*
X0348905Y0229944D01*
X0348811Y0229346D02*
X0352210Y0229346D01*
X0352210Y0228747D02*
X0348651Y0228747D01*
X0348491Y0228149D02*
X0352210Y0228149D01*
X0352210Y0227550D02*
X0348330Y0227550D01*
X0348170Y0226952D02*
X0352210Y0226952D01*
X0352210Y0226353D02*
X0348010Y0226353D01*
X0347817Y0225755D02*
X0352210Y0225755D01*
X0352210Y0225156D02*
X0347471Y0225156D01*
X0347126Y0224557D02*
X0352210Y0224557D01*
X0352210Y0223959D02*
X0346780Y0223959D01*
X0346435Y0223360D02*
X0352210Y0223360D01*
X0352210Y0222762D02*
X0346089Y0222762D01*
X0345635Y0222163D02*
X0352210Y0222163D01*
X0352210Y0221565D02*
X0345036Y0221565D01*
X0344438Y0220966D02*
X0352210Y0220966D01*
X0352210Y0220368D02*
X0343839Y0220368D01*
X0343241Y0219769D02*
X0352210Y0219769D01*
X0352210Y0219171D02*
X0342318Y0219171D01*
X0341282Y0218572D02*
X0352210Y0218572D01*
X0352210Y0217974D02*
X0340245Y0217974D01*
X0338703Y0217375D02*
X0352210Y0217375D01*
X0352210Y0216777D02*
X0336470Y0216777D01*
X0336257Y0213784D02*
X0352210Y0213784D01*
X0352210Y0213186D02*
X0337496Y0213186D01*
X0338094Y0212587D02*
X0352210Y0212587D01*
X0352210Y0211989D02*
X0338693Y0211989D01*
X0339179Y0211390D02*
X0352210Y0211390D01*
X0352210Y0210792D02*
X0339427Y0210792D01*
X0339675Y0210193D02*
X0352210Y0210193D01*
X0352210Y0209595D02*
X0339923Y0209595D01*
X0340047Y0208996D02*
X0352210Y0208996D01*
X0352210Y0208398D02*
X0340047Y0208398D01*
X0331181Y0216777D02*
X0289636Y0216777D01*
X0289873Y0217014D02*
X0290428Y0218355D01*
X0290428Y0219807D01*
X0289873Y0221149D01*
X0288846Y0222176D01*
X0287504Y0222731D01*
X0286052Y0222731D01*
X0284711Y0222176D01*
X0283684Y0221149D01*
X0283128Y0219807D01*
X0283128Y0218355D01*
X0283684Y0217014D01*
X0284711Y0215987D01*
X0286052Y0215431D01*
X0287504Y0215431D01*
X0288846Y0215987D01*
X0289873Y0217014D01*
X0290022Y0217375D02*
X0328948Y0217375D01*
X0327406Y0217974D02*
X0290270Y0217974D01*
X0290428Y0218572D02*
X0326369Y0218572D01*
X0325332Y0219171D02*
X0290428Y0219171D01*
X0290428Y0219769D02*
X0324410Y0219769D01*
X0323812Y0220368D02*
X0290196Y0220368D01*
X0289948Y0220966D02*
X0323213Y0220966D01*
X0322615Y0221565D02*
X0289457Y0221565D01*
X0288858Y0222163D02*
X0322016Y0222163D01*
X0311051Y0237725D02*
X0301482Y0237725D01*
X0302577Y0238323D02*
X0309956Y0238323D01*
X0309358Y0238922D02*
X0303175Y0238922D01*
X0303500Y0239520D02*
X0309033Y0239520D01*
X0308785Y0240119D02*
X0303748Y0240119D01*
X0303836Y0240717D02*
X0308697Y0240717D01*
X0308697Y0241316D02*
X0303836Y0241316D01*
X0303752Y0241914D02*
X0308781Y0241914D01*
X0309029Y0242513D02*
X0303504Y0242513D01*
X0303185Y0243111D02*
X0309348Y0243111D01*
X0309946Y0243710D02*
X0302587Y0243710D01*
X0301506Y0244308D02*
X0311027Y0244308D01*
X0327613Y0245505D02*
X0186188Y0245505D01*
X0186039Y0246104D02*
X0329394Y0246104D01*
X0331628Y0246702D02*
X0185763Y0246702D01*
X0236478Y0222762D02*
X0237078Y0222762D01*
X0237078Y0222163D02*
X0236478Y0222163D01*
X0236478Y0221565D02*
X0237078Y0221565D01*
X0237078Y0220966D02*
X0236478Y0220966D01*
X0236478Y0220368D02*
X0237078Y0220368D01*
X0237078Y0218572D02*
X0236478Y0218572D01*
X0236478Y0217974D02*
X0237078Y0217974D01*
X0237078Y0217375D02*
X0236478Y0217375D01*
X0236478Y0216777D02*
X0237078Y0216777D01*
X0237078Y0216178D02*
X0236478Y0216178D01*
X0236478Y0215580D02*
X0237078Y0215580D01*
X0238828Y0215580D02*
X0245694Y0215580D01*
X0244519Y0216178D02*
X0239603Y0216178D01*
X0240109Y0216777D02*
X0243921Y0216777D01*
X0243534Y0217375D02*
X0240455Y0217375D01*
X0240687Y0217974D02*
X0243286Y0217974D01*
X0243128Y0218572D02*
X0240806Y0218572D01*
X0247863Y0215580D02*
X0255694Y0215580D01*
X0256052Y0215431D02*
X0257504Y0215431D01*
X0258846Y0215987D01*
X0259873Y0217014D01*
X0260428Y0218355D01*
X0260428Y0219807D01*
X0259873Y0221149D01*
X0258846Y0222176D01*
X0257504Y0222731D01*
X0256052Y0222731D01*
X0254711Y0222176D01*
X0253684Y0221149D01*
X0253128Y0219807D01*
X0253128Y0218355D01*
X0253684Y0217014D01*
X0254711Y0215987D01*
X0256052Y0215431D01*
X0254519Y0216178D02*
X0249037Y0216178D01*
X0249636Y0216777D02*
X0253921Y0216777D01*
X0253534Y0217375D02*
X0250022Y0217375D01*
X0250270Y0217974D02*
X0253286Y0217974D01*
X0253128Y0218572D02*
X0250428Y0218572D01*
X0250428Y0219171D02*
X0253128Y0219171D01*
X0253128Y0219769D02*
X0250428Y0219769D01*
X0250196Y0220368D02*
X0253360Y0220368D01*
X0253608Y0220966D02*
X0249948Y0220966D01*
X0249457Y0221565D02*
X0254100Y0221565D01*
X0254698Y0222163D02*
X0248858Y0222163D01*
X0258858Y0222163D02*
X0264698Y0222163D01*
X0264711Y0222176D02*
X0263684Y0221149D01*
X0263128Y0219807D01*
X0263128Y0218355D01*
X0263684Y0217014D01*
X0264711Y0215987D01*
X0266052Y0215431D01*
X0267504Y0215431D01*
X0268846Y0215987D01*
X0269873Y0217014D01*
X0270428Y0218355D01*
X0270428Y0219807D01*
X0269873Y0221149D01*
X0268846Y0222176D01*
X0267504Y0222731D01*
X0266052Y0222731D01*
X0264711Y0222176D01*
X0264100Y0221565D02*
X0259457Y0221565D01*
X0259948Y0220966D02*
X0263608Y0220966D01*
X0263360Y0220368D02*
X0260196Y0220368D01*
X0260428Y0219769D02*
X0263128Y0219769D01*
X0263128Y0219171D02*
X0260428Y0219171D01*
X0260428Y0218572D02*
X0263128Y0218572D01*
X0263286Y0217974D02*
X0260270Y0217974D01*
X0260022Y0217375D02*
X0263534Y0217375D01*
X0263921Y0216777D02*
X0259636Y0216777D01*
X0259037Y0216178D02*
X0264519Y0216178D01*
X0265694Y0215580D02*
X0257863Y0215580D01*
X0267863Y0215580D02*
X0275694Y0215580D01*
X0276052Y0215431D02*
X0274711Y0215987D01*
X0273684Y0217014D01*
X0273128Y0218355D01*
X0273128Y0219807D01*
X0273684Y0221149D01*
X0274711Y0222176D01*
X0276052Y0222731D01*
X0277504Y0222731D01*
X0278846Y0222176D01*
X0279873Y0221149D01*
X0280428Y0219807D01*
X0280428Y0218355D01*
X0279873Y0217014D01*
X0278846Y0215987D01*
X0277504Y0215431D01*
X0276052Y0215431D01*
X0274519Y0216178D02*
X0269037Y0216178D01*
X0269636Y0216777D02*
X0273921Y0216777D01*
X0273534Y0217375D02*
X0270022Y0217375D01*
X0270270Y0217974D02*
X0273286Y0217974D01*
X0273128Y0218572D02*
X0270428Y0218572D01*
X0270428Y0219171D02*
X0273128Y0219171D01*
X0273128Y0219769D02*
X0270428Y0219769D01*
X0270196Y0220368D02*
X0273360Y0220368D01*
X0273608Y0220966D02*
X0269948Y0220966D01*
X0269457Y0221565D02*
X0274100Y0221565D01*
X0274698Y0222163D02*
X0268858Y0222163D01*
X0278858Y0222163D02*
X0284698Y0222163D01*
X0284100Y0221565D02*
X0279457Y0221565D01*
X0279948Y0220966D02*
X0283608Y0220966D01*
X0283360Y0220368D02*
X0280196Y0220368D01*
X0280428Y0219769D02*
X0283128Y0219769D01*
X0283128Y0219171D02*
X0280428Y0219171D01*
X0280428Y0218572D02*
X0283128Y0218572D01*
X0283286Y0217974D02*
X0280270Y0217974D01*
X0280022Y0217375D02*
X0283534Y0217375D01*
X0283921Y0216777D02*
X0279636Y0216777D01*
X0279037Y0216178D02*
X0284519Y0216178D01*
X0285694Y0215580D02*
X0277863Y0215580D01*
X0287863Y0215580D02*
X0352210Y0215580D01*
X0352210Y0216178D02*
X0289037Y0216178D01*
X0237650Y0182063D02*
X0198524Y0182063D01*
X0198029Y0181465D02*
X0237218Y0181465D01*
X0237218Y0180866D02*
X0199757Y0180866D01*
X0200355Y0180268D02*
X0237218Y0180268D01*
X0237441Y0179669D02*
X0200924Y0179669D01*
X0200924Y0179071D02*
X0238040Y0179071D01*
X0242777Y0162312D02*
X0264824Y0162312D01*
X0264824Y0161714D02*
X0243012Y0161714D01*
X0243012Y0161115D02*
X0264824Y0161115D01*
X0264824Y0160517D02*
X0243012Y0160517D01*
X0242593Y0159918D02*
X0264824Y0159918D01*
X0264824Y0159320D02*
X0241994Y0159320D01*
X0239375Y0142561D02*
X0047724Y0142561D01*
X0047724Y0141963D02*
X0239206Y0141963D01*
X0239206Y0141364D02*
X0220024Y0141364D01*
X0220623Y0140766D02*
X0239206Y0140766D01*
X0239691Y0140167D02*
X0220965Y0140167D01*
X0220965Y0139569D02*
X0240289Y0139569D01*
X0264824Y0152138D02*
X0125702Y0152138D01*
X0126300Y0152736D02*
X0264824Y0152736D01*
X0264824Y0153335D02*
X0126524Y0153335D01*
X0126524Y0153933D02*
X0264824Y0153933D01*
X0264824Y0154532D02*
X0126524Y0154532D01*
X0126093Y0155130D02*
X0264824Y0155130D01*
X0264824Y0116825D02*
X0242988Y0116825D01*
X0243406Y0116227D02*
X0264824Y0116227D01*
X0264824Y0115628D02*
X0243406Y0115628D01*
X0243406Y0115030D02*
X0264824Y0115030D01*
X0264824Y0114431D02*
X0243169Y0114431D01*
X0242958Y0113833D02*
X0242570Y0113833D01*
X0245290Y0113833D02*
X0264824Y0113833D01*
X0264824Y0113234D02*
X0245889Y0113234D01*
X0246224Y0112636D02*
X0264824Y0112636D01*
X0264824Y0112037D02*
X0246224Y0112037D01*
X0246224Y0111439D02*
X0264824Y0111439D01*
X0264824Y0110840D02*
X0245905Y0110840D01*
X0245306Y0110242D02*
X0264824Y0110242D01*
X0259869Y0109045D02*
X0215409Y0109045D01*
X0213439Y0109045D02*
X0208524Y0109045D01*
X0208524Y0108960D02*
X0208524Y0110699D01*
X0207294Y0111929D01*
X0205554Y0111929D01*
X0204324Y0110699D01*
X0204324Y0108960D01*
X0205554Y0107729D01*
X0207294Y0107729D01*
X0208524Y0108960D01*
X0208524Y0109643D02*
X0212840Y0109643D01*
X0212324Y0110242D02*
X0208524Y0110242D01*
X0208383Y0110840D02*
X0212324Y0110840D01*
X0212324Y0111439D02*
X0207784Y0111439D01*
X0205063Y0111439D02*
X0195984Y0111439D01*
X0195494Y0111929D02*
X0193754Y0111929D01*
X0192524Y0110699D01*
X0192524Y0108960D01*
X0193754Y0107729D01*
X0195494Y0107729D01*
X0196724Y0108960D01*
X0196724Y0110699D01*
X0195494Y0111929D01*
X0196583Y0110840D02*
X0204465Y0110840D01*
X0204324Y0110242D02*
X0196724Y0110242D01*
X0196724Y0109643D02*
X0204324Y0109643D01*
X0204324Y0109045D02*
X0196724Y0109045D01*
X0196211Y0108446D02*
X0204837Y0108446D01*
X0205436Y0107848D02*
X0195612Y0107848D01*
X0193636Y0107848D02*
X0127264Y0107848D01*
X0127264Y0107582D02*
X0126034Y0106351D01*
X0124294Y0106351D01*
X0123064Y0107582D01*
X0123064Y0109321D01*
X0124294Y0110551D01*
X0126034Y0110551D01*
X0127264Y0109321D01*
X0127264Y0107582D01*
X0126932Y0107249D02*
X0259124Y0107249D01*
X0259124Y0106651D02*
X0241672Y0106651D01*
X0242271Y0106052D02*
X0259631Y0106052D01*
X0260230Y0105454D02*
X0242824Y0105454D01*
X0239775Y0106651D02*
X0126333Y0106651D01*
X0127264Y0108446D02*
X0175349Y0108446D01*
X0175869Y0107926D02*
X0177609Y0107926D01*
X0178839Y0109156D01*
X0178839Y0110896D01*
X0177609Y0112126D01*
X0175869Y0112126D01*
X0174639Y0110896D01*
X0174639Y0109156D01*
X0175869Y0107926D01*
X0174750Y0109045D02*
X0127264Y0109045D01*
X0126942Y0109643D02*
X0174639Y0109643D01*
X0174639Y0110242D02*
X0126343Y0110242D01*
X0123985Y0110242D02*
X0099981Y0110242D01*
X0100524Y0109699D02*
X0099294Y0110929D01*
X0097554Y0110929D01*
X0096324Y0109699D01*
X0096324Y0107960D01*
X0097554Y0106729D01*
X0099294Y0106729D01*
X0100524Y0107960D01*
X0100524Y0109699D01*
X0100524Y0109643D02*
X0123386Y0109643D01*
X0123064Y0109045D02*
X0100524Y0109045D01*
X0100524Y0108446D02*
X0123064Y0108446D01*
X0123064Y0107848D02*
X0100412Y0107848D01*
X0099814Y0107249D02*
X0123396Y0107249D01*
X0123995Y0106651D02*
X0047724Y0106651D01*
X0047724Y0107249D02*
X0097034Y0107249D01*
X0096436Y0107848D02*
X0047724Y0107848D01*
X0047724Y0108446D02*
X0096324Y0108446D01*
X0096324Y0109045D02*
X0047724Y0109045D01*
X0047724Y0109643D02*
X0096324Y0109643D01*
X0096866Y0110242D02*
X0047724Y0110242D01*
X0047724Y0110840D02*
X0097465Y0110840D01*
X0099383Y0110840D02*
X0174639Y0110840D01*
X0175182Y0111439D02*
X0078303Y0111439D01*
X0078194Y0111329D02*
X0079424Y0112560D01*
X0079424Y0114299D01*
X0078194Y0115529D01*
X0076454Y0115529D01*
X0075224Y0114299D01*
X0075224Y0112560D01*
X0076454Y0111329D01*
X0078194Y0111329D01*
X0078902Y0112037D02*
X0175780Y0112037D01*
X0177698Y0112037D02*
X0212462Y0112037D01*
X0213061Y0112636D02*
X0079424Y0112636D01*
X0079424Y0113234D02*
X0216765Y0113234D01*
X0216765Y0113833D02*
X0079424Y0113833D01*
X0079292Y0114431D02*
X0164852Y0114431D01*
X0164254Y0115030D02*
X0078693Y0115030D01*
X0075955Y0115030D02*
X0066594Y0115030D01*
X0066494Y0114929D02*
X0067724Y0116160D01*
X0067724Y0117899D01*
X0066494Y0119129D01*
X0064754Y0119129D01*
X0063524Y0117899D01*
X0063524Y0116160D01*
X0064754Y0114929D01*
X0066494Y0114929D01*
X0067193Y0115628D02*
X0163724Y0115628D01*
X0163724Y0116227D02*
X0067724Y0116227D01*
X0067724Y0116825D02*
X0150458Y0116825D01*
X0149859Y0117424D02*
X0067724Y0117424D01*
X0067601Y0118022D02*
X0149324Y0118022D01*
X0149324Y0118621D02*
X0067002Y0118621D01*
X0064246Y0118621D02*
X0047724Y0118621D01*
X0047724Y0119219D02*
X0149324Y0119219D01*
X0149443Y0119818D02*
X0047724Y0119818D01*
X0047724Y0120417D02*
X0150041Y0120417D01*
X0152807Y0120417D02*
X0158924Y0120417D01*
X0158924Y0121015D02*
X0047724Y0121015D01*
X0047724Y0118022D02*
X0063647Y0118022D01*
X0063524Y0117424D02*
X0047724Y0117424D01*
X0047724Y0116825D02*
X0063524Y0116825D01*
X0063524Y0116227D02*
X0047724Y0116227D01*
X0047724Y0115628D02*
X0064055Y0115628D01*
X0064654Y0115030D02*
X0047724Y0115030D01*
X0047724Y0114431D02*
X0075356Y0114431D01*
X0075224Y0113833D02*
X0047724Y0113833D01*
X0047724Y0113234D02*
X0075224Y0113234D01*
X0075224Y0112636D02*
X0047724Y0112636D01*
X0047724Y0112037D02*
X0075746Y0112037D01*
X0076345Y0111439D02*
X0047724Y0111439D01*
X0047724Y0106052D02*
X0239177Y0106052D01*
X0238624Y0105454D02*
X0087269Y0105454D01*
X0087868Y0104855D02*
X0238624Y0104855D01*
X0238624Y0104257D02*
X0087924Y0104257D01*
X0084378Y0105454D02*
X0047724Y0105454D01*
X0047724Y0104855D02*
X0083780Y0104855D01*
X0083724Y0104257D02*
X0047724Y0104257D01*
X0047724Y0102461D02*
X0084322Y0102461D01*
X0084921Y0101863D02*
X0047724Y0101863D01*
X0047724Y0129993D02*
X0085091Y0129993D01*
X0084492Y0130591D02*
X0047724Y0130591D01*
X0047724Y0131190D02*
X0084324Y0131190D01*
X0084324Y0131788D02*
X0047724Y0131788D01*
X0047724Y0132387D02*
X0084324Y0132387D01*
X0084810Y0132985D02*
X0047724Y0132985D01*
X0047724Y0133584D02*
X0085408Y0133584D01*
X0087439Y0133584D02*
X0123064Y0133584D01*
X0123064Y0134182D02*
X0047724Y0134182D01*
X0047724Y0134781D02*
X0123064Y0134781D01*
X0123138Y0135379D02*
X0047724Y0135379D01*
X0088038Y0132985D02*
X0123645Y0132985D01*
X0124243Y0132387D02*
X0088524Y0132387D01*
X0070292Y0170691D02*
X0047724Y0170691D01*
X0047724Y0171290D02*
X0069693Y0171290D01*
X0069324Y0171888D02*
X0047724Y0171888D01*
X0047724Y0172487D02*
X0069324Y0172487D01*
X0069324Y0173086D02*
X0047724Y0173086D01*
X0047724Y0173684D02*
X0069609Y0173684D01*
X0070207Y0174283D02*
X0047724Y0174283D01*
X0047724Y0174881D02*
X0205202Y0174881D01*
X0205124Y0175480D02*
X0047724Y0175480D01*
X0047724Y0176078D02*
X0205124Y0176078D01*
X0205124Y0176677D02*
X0092241Y0176677D01*
X0091694Y0176129D02*
X0092924Y0177360D01*
X0092924Y0179099D01*
X0091694Y0180329D01*
X0089954Y0180329D01*
X0088724Y0179099D01*
X0088724Y0177360D01*
X0089954Y0176129D01*
X0091694Y0176129D01*
X0092839Y0177275D02*
X0197408Y0177275D01*
X0196810Y0177874D02*
X0092924Y0177874D01*
X0092924Y0178472D02*
X0151811Y0178472D01*
X0151213Y0179071D02*
X0092924Y0179071D01*
X0092354Y0179669D02*
X0151124Y0179669D01*
X0151124Y0180268D02*
X0091755Y0180268D01*
X0089892Y0180268D02*
X0047724Y0180268D01*
X0047724Y0180866D02*
X0151124Y0180866D01*
X0154160Y0182063D02*
X0173064Y0182063D01*
X0173590Y0181465D02*
X0154758Y0181465D01*
X0155324Y0180866D02*
X0174189Y0180866D01*
X0176139Y0180866D02*
X0195417Y0180866D01*
X0194819Y0181465D02*
X0176738Y0181465D01*
X0177264Y0182063D02*
X0194324Y0182063D01*
X0194324Y0182662D02*
X0177264Y0182662D01*
X0177264Y0183260D02*
X0194324Y0183260D01*
X0194483Y0183859D02*
X0177136Y0183859D01*
X0176538Y0184457D02*
X0195082Y0184457D01*
X0197430Y0180866D02*
X0197891Y0180866D01*
X0197292Y0180268D02*
X0155324Y0180268D01*
X0155324Y0179669D02*
X0196724Y0179669D01*
X0196724Y0179071D02*
X0155235Y0179071D01*
X0154636Y0178472D02*
X0196724Y0178472D01*
X0200239Y0177275D02*
X0205700Y0177275D01*
X0205801Y0174283D02*
X0072641Y0174283D01*
X0081020Y0182063D02*
X0047724Y0182063D01*
X0047724Y0181465D02*
X0081619Y0181465D01*
X0080924Y0182662D02*
X0047724Y0182662D01*
X0047724Y0183260D02*
X0080924Y0183260D01*
X0080924Y0183859D02*
X0047724Y0183859D01*
X0047724Y0184457D02*
X0081482Y0184457D01*
X0086924Y0187450D02*
X0047724Y0187450D01*
X0047724Y0188048D02*
X0086924Y0188048D01*
X0086924Y0188647D02*
X0047724Y0188647D01*
X0047724Y0189245D02*
X0087470Y0189245D01*
X0087032Y0186851D02*
X0047724Y0186851D01*
X0047724Y0186253D02*
X0087631Y0186253D01*
X0089294Y0179669D02*
X0047724Y0179669D01*
X0047724Y0179071D02*
X0088724Y0179071D01*
X0088724Y0178472D02*
X0047724Y0178472D01*
X0047724Y0177874D02*
X0088724Y0177874D01*
X0088808Y0177275D02*
X0047724Y0177275D01*
X0047724Y0176677D02*
X0089407Y0176677D01*
X0153405Y0119818D02*
X0159465Y0119818D01*
X0160064Y0119219D02*
X0153524Y0119219D01*
X0152988Y0117424D02*
X0163849Y0117424D01*
X0163724Y0116825D02*
X0152390Y0116825D01*
X0166796Y0114431D02*
X0216765Y0114431D01*
X0216962Y0115030D02*
X0167394Y0115030D01*
X0178296Y0111439D02*
X0193263Y0111439D01*
X0192665Y0110840D02*
X0178839Y0110840D01*
X0178839Y0110242D02*
X0192524Y0110242D01*
X0192524Y0109643D02*
X0178839Y0109643D01*
X0178727Y0109045D02*
X0192524Y0109045D01*
X0193037Y0108446D02*
X0178129Y0108446D01*
X0207412Y0107848D02*
X0259124Y0107848D01*
X0259271Y0108446D02*
X0208011Y0108446D01*
X0215787Y0112636D02*
X0217222Y0112636D01*
X0217821Y0112037D02*
X0216386Y0112037D01*
X0301628Y0088695D02*
X0352210Y0088695D01*
X0352210Y0088097D02*
X0302226Y0088097D01*
X0302424Y0087498D02*
X0352210Y0087498D01*
X0352210Y0086900D02*
X0302424Y0086900D01*
X0302424Y0086301D02*
X0352210Y0086301D01*
X0352210Y0085703D02*
X0301967Y0085703D01*
X0336150Y0083907D02*
X0352210Y0083907D01*
X0352210Y0083309D02*
X0337451Y0083309D01*
X0338050Y0082710D02*
X0352210Y0082710D01*
X0352210Y0082112D02*
X0338648Y0082112D01*
X0339161Y0081513D02*
X0352210Y0081513D01*
X0352210Y0080915D02*
X0339408Y0080915D01*
X0339656Y0080316D02*
X0352210Y0080316D01*
X0352210Y0079718D02*
X0339904Y0079718D01*
X0340047Y0079119D02*
X0352210Y0079119D01*
X0352210Y0078521D02*
X0340047Y0078521D01*
X0340047Y0077922D02*
X0352210Y0077922D01*
X0352210Y0077324D02*
X0340047Y0077324D01*
X0339975Y0076725D02*
X0352210Y0076725D01*
X0352210Y0076127D02*
X0339727Y0076127D01*
X0339479Y0075528D02*
X0352210Y0075528D01*
X0352210Y0074930D02*
X0339231Y0074930D01*
X0338818Y0074331D02*
X0352210Y0074331D01*
X0352210Y0073733D02*
X0338220Y0073733D01*
X0337621Y0073134D02*
X0352210Y0073134D01*
X0352210Y0072536D02*
X0336561Y0072536D01*
X0342513Y0038420D02*
X0057422Y0038420D01*
X0058664Y0037822D02*
X0341270Y0037822D01*
X0340027Y0037223D02*
X0059907Y0037223D01*
X0062386Y0036625D02*
X0337549Y0036625D01*
M02*
