%
M48
M72
T01C0.01200
T02C0.02000
T03C0.02362
T04C0.03150
T05C0.03500
T06C0.05906
T07C0.09843
T08C0.27559
%
T01
X98824Y85529
X118824Y93929
X119624Y99029
X125164Y108451
X121621Y116325
X121424Y123829
X125164Y134436
X128424Y140829
X124424Y153829
X127920Y160420
X145243Y159239
X145243Y139554
X158024Y123629
X161024Y121229
X165824Y116429
X176739Y110026
X178707Y99396
X172408Y94672
X194624Y109829
X206424Y109829
X214424Y111029
X218865Y113963
X234424Y118829
X241306Y115538
X244124Y112029
X240724Y104629
X261224Y107429
X261224Y113429
X241306Y133648
X241306Y141522
X234424Y145829
X218865Y139554
X218471Y159239
X234219Y164751
X240912Y161207
X239318Y180762
X232625Y188636
X207224Y175829
X198824Y178829
X196424Y182829
X190912Y198609
X198392Y201759
X185624Y213629
X173589Y205302
X176739Y198609
X175164Y182861
X153224Y180029
X149424Y183829
X144455Y188373
X140024Y184829
X151424Y205829
X178424Y228029
X192224Y240629
X102824Y192029
X89024Y187829
X83024Y183029
X90824Y178229
X90624Y166629
X72224Y162629
X71424Y172529
X101624Y142829
X86424Y131629
X65624Y117029
X77324Y113429
X85824Y103929
X98624Y103829
X98424Y108829
X77624Y89429
X126224Y79829
X147824Y79829
X180324Y74429
X184724Y68629
X204824Y87629
X208424Y87629
X212424Y87829
X216824Y87629
X221024Y87629
X212024Y78629
X206024Y99029
X243824Y78029
X279824Y82229
X300324Y87029
X321524Y95529
X151424Y118829
X140125Y109239
X99224Y211229
X94724Y211229
T02
X82807Y245066
X111351Y245066
T03
X176857Y245249
X183707Y245249
T04
X106626Y234318
X87532Y234318
X300361Y241022
X306266Y233935
X312172Y241022
T05
X286778Y219081
X276778Y219081
X266778Y219081
X256778Y219081
X246778Y219081
X236778Y219081
X219810Y219081
X209810Y219081
X199810Y219081
T06
X161715Y213963
X143211Y213963
X124707Y213963
T07
X73983Y78136
X333825Y78136
X333825Y208058
T08
X66109Y54514
X66109Y231680
X333825Y231680
X333825Y54514
M30
