G75*
%MOIN*%
%OFA0B0*%
%FSLAX25Y25*%
%IPPOS*%
%LPD*%
%AMOC8*
5,1,8,0,0,1.08239X$1,22.5*
%
%ADD10C,0.01150*%
%ADD11R,0.07674X0.07674*%
%ADD12C,0.03737*%
%ADD13R,0.01178X0.05115*%
%ADD14R,0.05115X0.01178*%
%ADD15R,0.01965X0.04524*%
%ADD16C,0.03640*%
%ADD17R,0.01375X0.05115*%
%ADD18R,0.08461X0.01769*%
%ADD19C,0.01650*%
%ADD20R,0.03737X0.03737*%
%ADD21R,0.02950X0.03737*%
%ADD22R,0.02162X0.02162*%
D10*
X0087968Y0086110D02*
X0089118Y0086110D01*
X0089118Y0084960D01*
X0087968Y0084960D01*
X0087968Y0086110D01*
X0087968Y0086109D02*
X0089118Y0086109D01*
X0091468Y0086110D02*
X0092618Y0086110D01*
X0092618Y0084960D01*
X0091468Y0084960D01*
X0091468Y0086110D01*
X0091468Y0086109D02*
X0092618Y0086109D01*
X0120693Y0080576D02*
X0120693Y0079426D01*
X0120693Y0080576D02*
X0121843Y0080576D01*
X0121843Y0079426D01*
X0120693Y0079426D01*
X0120693Y0080575D02*
X0121843Y0080575D01*
X0120693Y0077076D02*
X0120693Y0075926D01*
X0120693Y0077076D02*
X0121843Y0077076D01*
X0121843Y0075926D01*
X0120693Y0075926D01*
X0120693Y0077075D02*
X0121843Y0077075D01*
X0142589Y0077076D02*
X0142589Y0075926D01*
X0142589Y0077076D02*
X0143739Y0077076D01*
X0143739Y0075926D01*
X0142589Y0075926D01*
X0142589Y0077075D02*
X0143739Y0077075D01*
X0142589Y0079426D02*
X0142589Y0080576D01*
X0143739Y0080576D01*
X0143739Y0079426D01*
X0142589Y0079426D01*
X0142589Y0080575D02*
X0143739Y0080575D01*
X0174967Y0094177D02*
X0176117Y0094177D01*
X0174967Y0094177D02*
X0174967Y0095327D01*
X0176117Y0095327D01*
X0176117Y0094177D01*
X0176117Y0095326D02*
X0174967Y0095326D01*
X0178467Y0094177D02*
X0179617Y0094177D01*
X0178467Y0094177D02*
X0178467Y0095327D01*
X0179617Y0095327D01*
X0179617Y0094177D01*
X0179617Y0095326D02*
X0178467Y0095326D01*
X0190211Y0095198D02*
X0191361Y0095198D01*
X0191361Y0094048D01*
X0190211Y0094048D01*
X0190211Y0095198D01*
X0190211Y0095197D02*
X0191361Y0095197D01*
X0193711Y0095198D02*
X0194861Y0095198D01*
X0194861Y0094048D01*
X0193711Y0094048D01*
X0193711Y0095198D01*
X0193711Y0095197D02*
X0194861Y0095197D01*
X0204479Y0095422D02*
X0204479Y0094272D01*
X0203329Y0094272D01*
X0203329Y0095422D01*
X0204479Y0095422D01*
X0204479Y0095421D02*
X0203329Y0095421D01*
X0204479Y0091922D02*
X0204479Y0090772D01*
X0203329Y0090772D01*
X0203329Y0091922D01*
X0204479Y0091922D01*
X0204479Y0091921D02*
X0203329Y0091921D01*
X0207660Y0091922D02*
X0207660Y0090772D01*
X0207660Y0091922D02*
X0208810Y0091922D01*
X0208810Y0090772D01*
X0207660Y0090772D01*
X0207660Y0091921D02*
X0208810Y0091921D01*
X0207660Y0094272D02*
X0207660Y0095422D01*
X0208810Y0095422D01*
X0208810Y0094272D01*
X0207660Y0094272D01*
X0207660Y0095421D02*
X0208810Y0095421D01*
X0213141Y0095422D02*
X0213141Y0094272D01*
X0211991Y0094272D01*
X0211991Y0095422D01*
X0213141Y0095422D01*
X0213141Y0095421D02*
X0211991Y0095421D01*
X0217471Y0095422D02*
X0217471Y0094272D01*
X0216321Y0094272D01*
X0216321Y0095422D01*
X0217471Y0095422D01*
X0217471Y0095421D02*
X0216321Y0095421D01*
X0221802Y0095422D02*
X0221802Y0094272D01*
X0220652Y0094272D01*
X0220652Y0095422D01*
X0221802Y0095422D01*
X0221802Y0095421D02*
X0220652Y0095421D01*
X0221802Y0091922D02*
X0221802Y0090772D01*
X0220652Y0090772D01*
X0220652Y0091922D01*
X0221802Y0091922D01*
X0221802Y0091921D02*
X0220652Y0091921D01*
X0217471Y0091922D02*
X0217471Y0090772D01*
X0216321Y0090772D01*
X0216321Y0091922D01*
X0217471Y0091922D01*
X0217471Y0091921D02*
X0216321Y0091921D01*
X0213141Y0091922D02*
X0213141Y0090772D01*
X0211991Y0090772D01*
X0211991Y0091922D01*
X0213141Y0091922D01*
X0213141Y0091921D02*
X0211991Y0091921D01*
X0207192Y0079039D02*
X0207192Y0077889D01*
X0207192Y0079039D02*
X0208342Y0079039D01*
X0208342Y0077889D01*
X0207192Y0077889D01*
X0207192Y0079038D02*
X0208342Y0079038D01*
X0207192Y0075539D02*
X0207192Y0074389D01*
X0207192Y0075539D02*
X0208342Y0075539D01*
X0208342Y0074389D01*
X0207192Y0074389D01*
X0207192Y0075538D02*
X0208342Y0075538D01*
X0192332Y0068024D02*
X0191182Y0068024D01*
X0191182Y0069174D01*
X0192332Y0069174D01*
X0192332Y0068024D01*
X0192332Y0069173D02*
X0191182Y0069173D01*
X0188832Y0068024D02*
X0187682Y0068024D01*
X0187682Y0069174D01*
X0188832Y0069174D01*
X0188832Y0068024D01*
X0188832Y0069173D02*
X0187682Y0069173D01*
X0180871Y0077122D02*
X0180871Y0078272D01*
X0180871Y0077122D02*
X0179721Y0077122D01*
X0179721Y0078272D01*
X0180871Y0078272D01*
X0180871Y0078271D02*
X0179721Y0078271D01*
X0180871Y0080622D02*
X0180871Y0081772D01*
X0180871Y0080622D02*
X0179721Y0080622D01*
X0179721Y0081772D01*
X0180871Y0081772D01*
X0180871Y0081771D02*
X0179721Y0081771D01*
X0161172Y0055689D02*
X0160022Y0055689D01*
X0160022Y0056839D01*
X0161172Y0056839D01*
X0161172Y0055689D01*
X0161172Y0056838D02*
X0160022Y0056838D01*
X0160022Y0052189D02*
X0161172Y0052189D01*
X0160022Y0052189D02*
X0160022Y0053339D01*
X0161172Y0053339D01*
X0161172Y0052189D01*
X0161172Y0053338D02*
X0160022Y0053338D01*
X0121802Y0052189D02*
X0120652Y0052189D01*
X0120652Y0053339D01*
X0121802Y0053339D01*
X0121802Y0052189D01*
X0121802Y0053338D02*
X0120652Y0053338D01*
X0120652Y0055689D02*
X0121802Y0055689D01*
X0120652Y0055689D02*
X0120652Y0056839D01*
X0121802Y0056839D01*
X0121802Y0055689D01*
X0121802Y0056838D02*
X0120652Y0056838D01*
X0124414Y0111420D02*
X0125564Y0111420D01*
X0124414Y0111420D02*
X0124414Y0112570D01*
X0125564Y0112570D01*
X0125564Y0111420D01*
X0125564Y0112569D02*
X0124414Y0112569D01*
X0127914Y0111420D02*
X0129064Y0111420D01*
X0127914Y0111420D02*
X0127914Y0112570D01*
X0129064Y0112570D01*
X0129064Y0111420D01*
X0129064Y0112569D02*
X0127914Y0112569D01*
X0127914Y0116144D02*
X0129064Y0116144D01*
X0127914Y0116144D02*
X0127914Y0117294D01*
X0129064Y0117294D01*
X0129064Y0116144D01*
X0129064Y0117293D02*
X0127914Y0117293D01*
X0125564Y0116144D02*
X0124414Y0116144D01*
X0124414Y0117294D01*
X0125564Y0117294D01*
X0125564Y0116144D01*
X0125564Y0117293D02*
X0124414Y0117293D01*
X0124414Y0123231D02*
X0125564Y0123231D01*
X0124414Y0123231D02*
X0124414Y0124381D01*
X0125564Y0124381D01*
X0125564Y0123231D01*
X0125564Y0124380D02*
X0124414Y0124380D01*
X0127914Y0123231D02*
X0129064Y0123231D01*
X0127914Y0123231D02*
X0127914Y0124381D01*
X0129064Y0124381D01*
X0129064Y0123231D01*
X0129064Y0124380D02*
X0127914Y0124380D01*
X0127914Y0137191D02*
X0129064Y0137191D01*
X0127914Y0137191D02*
X0127914Y0138341D01*
X0129064Y0138341D01*
X0129064Y0137191D01*
X0129064Y0138340D02*
X0127914Y0138340D01*
X0125564Y0137191D02*
X0124414Y0137191D01*
X0124414Y0138341D01*
X0125564Y0138341D01*
X0125564Y0137191D01*
X0125564Y0138340D02*
X0124414Y0138340D01*
X0124020Y0156483D02*
X0125170Y0156483D01*
X0124020Y0156483D02*
X0124020Y0157633D01*
X0125170Y0157633D01*
X0125170Y0156483D01*
X0125170Y0157632D02*
X0124020Y0157632D01*
X0127520Y0156483D02*
X0128670Y0156483D01*
X0127520Y0156483D02*
X0127520Y0157633D01*
X0128670Y0157633D01*
X0128670Y0156483D01*
X0128670Y0157632D02*
X0127520Y0157632D01*
X0094924Y0132179D02*
X0093774Y0132179D01*
X0094924Y0132179D02*
X0094924Y0131029D01*
X0093774Y0131029D01*
X0093774Y0132179D01*
X0093774Y0132178D02*
X0094924Y0132178D01*
X0091424Y0132179D02*
X0090274Y0132179D01*
X0091424Y0132179D02*
X0091424Y0131029D01*
X0090274Y0131029D01*
X0090274Y0132179D01*
X0090274Y0132178D02*
X0091424Y0132178D01*
X0072749Y0157804D02*
X0071599Y0157804D01*
X0072749Y0157804D02*
X0072749Y0156654D01*
X0071599Y0156654D01*
X0071599Y0157804D01*
X0071599Y0157803D02*
X0072749Y0157803D01*
X0069249Y0157804D02*
X0068099Y0157804D01*
X0069249Y0157804D02*
X0069249Y0156654D01*
X0068099Y0156654D01*
X0068099Y0157804D01*
X0068099Y0157803D02*
X0069249Y0157803D01*
X0086532Y0162908D02*
X0087682Y0162908D01*
X0087682Y0161758D01*
X0086532Y0161758D01*
X0086532Y0162908D01*
X0086532Y0162907D02*
X0087682Y0162907D01*
X0090032Y0162908D02*
X0091182Y0162908D01*
X0091182Y0161758D01*
X0090032Y0161758D01*
X0090032Y0162908D01*
X0090032Y0162907D02*
X0091182Y0162907D01*
X0091458Y0182478D02*
X0090308Y0182478D01*
X0090308Y0183628D01*
X0091458Y0183628D01*
X0091458Y0182478D01*
X0091458Y0183627D02*
X0090308Y0183627D01*
X0087958Y0182478D02*
X0086808Y0182478D01*
X0086808Y0183628D01*
X0087958Y0183628D01*
X0087958Y0182478D01*
X0087958Y0183627D02*
X0086808Y0183627D01*
X0078553Y0195487D02*
X0078553Y0196637D01*
X0079703Y0196637D01*
X0079703Y0195487D01*
X0078553Y0195487D01*
X0078553Y0196636D02*
X0079703Y0196636D01*
X0078553Y0198987D02*
X0078553Y0200137D01*
X0079703Y0200137D01*
X0079703Y0198987D01*
X0078553Y0198987D01*
X0078553Y0200136D02*
X0079703Y0200136D01*
X0073758Y0200072D02*
X0073758Y0198922D01*
X0073758Y0200072D02*
X0074908Y0200072D01*
X0074908Y0198922D01*
X0073758Y0198922D01*
X0073758Y0200071D02*
X0074908Y0200071D01*
X0073758Y0196572D02*
X0073758Y0195422D01*
X0073758Y0196572D02*
X0074908Y0196572D01*
X0074908Y0195422D01*
X0073758Y0195422D01*
X0073758Y0196571D02*
X0074908Y0196571D01*
X0094129Y0215408D02*
X0094129Y0216558D01*
X0095279Y0216558D01*
X0095279Y0215408D01*
X0094129Y0215408D01*
X0094129Y0216557D02*
X0095279Y0216557D01*
X0094129Y0218908D02*
X0094129Y0220058D01*
X0095279Y0220058D01*
X0095279Y0218908D01*
X0094129Y0218908D01*
X0094129Y0220057D02*
X0095279Y0220057D01*
X0098660Y0220065D02*
X0098660Y0218915D01*
X0098660Y0220065D02*
X0099810Y0220065D01*
X0099810Y0218915D01*
X0098660Y0218915D01*
X0098660Y0220064D02*
X0099810Y0220064D01*
X0098660Y0216565D02*
X0098660Y0215415D01*
X0098660Y0216565D02*
X0099810Y0216565D01*
X0099810Y0215415D01*
X0098660Y0215415D01*
X0098660Y0216564D02*
X0099810Y0216564D01*
X0103237Y0200372D02*
X0103237Y0199222D01*
X0102087Y0199222D01*
X0102087Y0200372D01*
X0103237Y0200372D01*
X0103237Y0200371D02*
X0102087Y0200371D01*
X0103237Y0196872D02*
X0103237Y0195722D01*
X0102087Y0195722D01*
X0102087Y0196872D01*
X0103237Y0196872D01*
X0103237Y0196871D02*
X0102087Y0196871D01*
X0146636Y0197465D02*
X0146636Y0198615D01*
X0147786Y0198615D01*
X0147786Y0197465D01*
X0146636Y0197465D01*
X0146636Y0198614D02*
X0147786Y0198614D01*
X0146636Y0200965D02*
X0146636Y0202115D01*
X0147786Y0202115D01*
X0147786Y0200965D01*
X0146636Y0200965D01*
X0146636Y0202114D02*
X0147786Y0202114D01*
X0152117Y0202115D02*
X0152117Y0200965D01*
X0150967Y0200965D01*
X0150967Y0202115D01*
X0152117Y0202115D01*
X0152117Y0202114D02*
X0150967Y0202114D01*
X0152117Y0198615D02*
X0152117Y0197465D01*
X0150967Y0197465D01*
X0150967Y0198615D01*
X0152117Y0198615D01*
X0152117Y0198614D02*
X0150967Y0198614D01*
X0172621Y0199009D02*
X0172621Y0197859D01*
X0172621Y0199009D02*
X0173771Y0199009D01*
X0173771Y0197859D01*
X0172621Y0197859D01*
X0172621Y0199008D02*
X0173771Y0199008D01*
X0172621Y0201359D02*
X0172621Y0202509D01*
X0173771Y0202509D01*
X0173771Y0201359D01*
X0172621Y0201359D01*
X0172621Y0202508D02*
X0173771Y0202508D01*
X0178767Y0219860D02*
X0178767Y0221010D01*
X0178767Y0219860D02*
X0177617Y0219860D01*
X0177617Y0221010D01*
X0178767Y0221010D01*
X0178767Y0221009D02*
X0177617Y0221009D01*
X0178767Y0223360D02*
X0178767Y0224510D01*
X0178767Y0223360D02*
X0177617Y0223360D01*
X0177617Y0224510D01*
X0178767Y0224510D01*
X0178767Y0224509D02*
X0177617Y0224509D01*
X0184743Y0224510D02*
X0184743Y0223360D01*
X0184743Y0224510D02*
X0185893Y0224510D01*
X0185893Y0223360D01*
X0184743Y0223360D01*
X0184743Y0224509D02*
X0185893Y0224509D01*
X0184743Y0221010D02*
X0184743Y0219860D01*
X0184743Y0221010D02*
X0185893Y0221010D01*
X0185893Y0219860D01*
X0184743Y0219860D01*
X0184743Y0221009D02*
X0185893Y0221009D01*
X0193880Y0202509D02*
X0193880Y0201359D01*
X0193880Y0202509D02*
X0195030Y0202509D01*
X0195030Y0201359D01*
X0193880Y0201359D01*
X0193880Y0202508D02*
X0195030Y0202508D01*
X0193880Y0199009D02*
X0193880Y0197859D01*
X0193880Y0199009D02*
X0195030Y0199009D01*
X0195030Y0197859D01*
X0193880Y0197859D01*
X0193880Y0199008D02*
X0195030Y0199008D01*
X0231875Y0185667D02*
X0233025Y0185667D01*
X0233025Y0184517D01*
X0231875Y0184517D01*
X0231875Y0185667D01*
X0231875Y0185666D02*
X0233025Y0185666D01*
X0235375Y0185667D02*
X0236525Y0185667D01*
X0236525Y0184517D01*
X0235375Y0184517D01*
X0235375Y0185667D01*
X0235375Y0185666D02*
X0236525Y0185666D01*
X0236525Y0180187D02*
X0235375Y0180187D01*
X0235375Y0181337D01*
X0236525Y0181337D01*
X0236525Y0180187D01*
X0236525Y0181336D02*
X0235375Y0181336D01*
X0233025Y0180187D02*
X0231875Y0180187D01*
X0231875Y0181337D01*
X0233025Y0181337D01*
X0233025Y0180187D01*
X0233025Y0181336D02*
X0231875Y0181336D01*
X0233469Y0161782D02*
X0234619Y0161782D01*
X0234619Y0160632D01*
X0233469Y0160632D01*
X0233469Y0161782D01*
X0233469Y0161781D02*
X0234619Y0161781D01*
X0236969Y0161782D02*
X0238119Y0161782D01*
X0238119Y0160632D01*
X0236969Y0160632D01*
X0236969Y0161782D01*
X0236969Y0161781D02*
X0238119Y0161781D01*
X0238513Y0142097D02*
X0237363Y0142097D01*
X0238513Y0142097D02*
X0238513Y0140947D01*
X0237363Y0140947D01*
X0237363Y0142097D01*
X0237363Y0142096D02*
X0238513Y0142096D01*
X0235013Y0142097D02*
X0233863Y0142097D01*
X0235013Y0142097D02*
X0235013Y0140947D01*
X0233863Y0140947D01*
X0233863Y0142097D01*
X0233863Y0142096D02*
X0235013Y0142096D01*
X0235013Y0134223D02*
X0233863Y0134223D01*
X0235013Y0134223D02*
X0235013Y0133073D01*
X0233863Y0133073D01*
X0233863Y0134223D01*
X0233863Y0134222D02*
X0235013Y0134222D01*
X0237363Y0134223D02*
X0238513Y0134223D01*
X0238513Y0133073D01*
X0237363Y0133073D01*
X0237363Y0134223D01*
X0237363Y0134222D02*
X0238513Y0134222D01*
X0238513Y0116113D02*
X0237363Y0116113D01*
X0238513Y0116113D02*
X0238513Y0114963D01*
X0237363Y0114963D01*
X0237363Y0116113D01*
X0237363Y0116112D02*
X0238513Y0116112D01*
X0235013Y0116113D02*
X0233863Y0116113D01*
X0235013Y0116113D02*
X0235013Y0114963D01*
X0233863Y0114963D01*
X0233863Y0116113D01*
X0233863Y0116112D02*
X0235013Y0116112D01*
X0238581Y0078176D02*
X0238581Y0077026D01*
X0238581Y0078176D02*
X0239731Y0078176D01*
X0239731Y0077026D01*
X0238581Y0077026D01*
X0238581Y0078175D02*
X0239731Y0078175D01*
X0238581Y0074676D02*
X0238581Y0073526D01*
X0238581Y0074676D02*
X0239731Y0074676D01*
X0239731Y0073526D01*
X0238581Y0073526D01*
X0238581Y0074675D02*
X0239731Y0074675D01*
X0239912Y0055689D02*
X0238762Y0055689D01*
X0238762Y0056839D01*
X0239912Y0056839D01*
X0239912Y0055689D01*
X0239912Y0056838D02*
X0238762Y0056838D01*
X0238762Y0052189D02*
X0239912Y0052189D01*
X0238762Y0052189D02*
X0238762Y0053339D01*
X0239912Y0053339D01*
X0239912Y0052189D01*
X0239912Y0053338D02*
X0238762Y0053338D01*
X0278132Y0052189D02*
X0279282Y0052189D01*
X0278132Y0052189D02*
X0278132Y0053339D01*
X0279282Y0053339D01*
X0279282Y0052189D01*
X0279282Y0053338D02*
X0278132Y0053338D01*
X0278132Y0055689D02*
X0279282Y0055689D01*
X0278132Y0055689D02*
X0278132Y0056839D01*
X0279282Y0056839D01*
X0279282Y0055689D01*
X0279282Y0056838D02*
X0278132Y0056838D01*
X0279077Y0074126D02*
X0279077Y0075276D01*
X0280227Y0075276D01*
X0280227Y0074126D01*
X0279077Y0074126D01*
X0279077Y0075275D02*
X0280227Y0075275D01*
X0279077Y0077626D02*
X0279077Y0078776D01*
X0280227Y0078776D01*
X0280227Y0077626D01*
X0279077Y0077626D01*
X0279077Y0078775D02*
X0280227Y0078775D01*
X0296649Y0086504D02*
X0296649Y0087654D01*
X0297799Y0087654D01*
X0297799Y0086504D01*
X0296649Y0086504D01*
X0296649Y0087653D02*
X0297799Y0087653D01*
X0296649Y0090004D02*
X0296649Y0091154D01*
X0297799Y0091154D01*
X0297799Y0090004D01*
X0296649Y0090004D01*
X0296649Y0091153D02*
X0297799Y0091153D01*
X0303249Y0090004D02*
X0304399Y0090004D01*
X0303249Y0090004D02*
X0303249Y0091154D01*
X0304399Y0091154D01*
X0304399Y0090004D01*
X0304399Y0091153D02*
X0303249Y0091153D01*
X0309249Y0091154D02*
X0309249Y0090004D01*
X0309249Y0091154D02*
X0310399Y0091154D01*
X0310399Y0090004D01*
X0309249Y0090004D01*
X0309249Y0091153D02*
X0310399Y0091153D01*
X0309249Y0087654D02*
X0309249Y0086504D01*
X0309249Y0087654D02*
X0310399Y0087654D01*
X0310399Y0086504D01*
X0309249Y0086504D01*
X0309249Y0087653D02*
X0310399Y0087653D01*
X0304399Y0086504D02*
X0303249Y0086504D01*
X0303249Y0087654D01*
X0304399Y0087654D01*
X0304399Y0086504D01*
X0304399Y0087653D02*
X0303249Y0087653D01*
X0200542Y0055689D02*
X0199392Y0055689D01*
X0199392Y0056839D01*
X0200542Y0056839D01*
X0200542Y0055689D01*
X0200542Y0056838D02*
X0199392Y0056838D01*
X0199392Y0052189D02*
X0200542Y0052189D01*
X0199392Y0052189D02*
X0199392Y0053339D01*
X0200542Y0053339D01*
X0200542Y0052189D01*
X0200542Y0053338D02*
X0199392Y0053338D01*
X0237836Y0209684D02*
X0238986Y0209684D01*
X0237836Y0209684D02*
X0237836Y0210834D01*
X0238986Y0210834D01*
X0238986Y0209684D01*
X0238986Y0210833D02*
X0237836Y0210833D01*
X0241336Y0209684D02*
X0242486Y0209684D01*
X0241336Y0209684D02*
X0241336Y0210834D01*
X0242486Y0210834D01*
X0242486Y0209684D01*
X0242486Y0210833D02*
X0241336Y0210833D01*
D11*
X0118090Y0192461D03*
X0118090Y0176713D03*
D12*
X0272234Y0178341D02*
X0272234Y0178341D01*
X0268296Y0178341D01*
X0268296Y0178341D01*
X0272234Y0178341D01*
X0272234Y0172436D02*
X0272234Y0172436D01*
X0268296Y0172436D01*
X0268296Y0172436D01*
X0272234Y0172436D01*
X0323415Y0131097D02*
X0323415Y0131097D01*
X0319477Y0131097D01*
X0319477Y0131097D01*
X0323415Y0131097D01*
X0323415Y0119286D02*
X0323415Y0119286D01*
X0319477Y0119286D01*
X0319477Y0119286D01*
X0323415Y0119286D01*
X0323415Y0107475D02*
X0323415Y0107475D01*
X0319477Y0107475D01*
X0319477Y0107475D01*
X0323415Y0107475D01*
X0272234Y0107475D02*
X0272234Y0107475D01*
X0268296Y0107475D01*
X0268296Y0107475D01*
X0272234Y0107475D01*
X0272234Y0113381D02*
X0272234Y0113381D01*
X0268296Y0113381D01*
X0268296Y0113381D01*
X0272234Y0113381D01*
D13*
X0216259Y0104621D03*
X0214290Y0104621D03*
X0212322Y0104621D03*
X0210353Y0104621D03*
X0208385Y0104621D03*
X0206416Y0104621D03*
X0204448Y0104621D03*
X0202479Y0104621D03*
X0200511Y0104621D03*
X0198542Y0104621D03*
X0196574Y0104621D03*
X0194605Y0104621D03*
X0192637Y0104641D03*
X0190668Y0104621D03*
X0188700Y0104621D03*
X0186731Y0104621D03*
X0184763Y0104621D03*
X0182794Y0104621D03*
X0180826Y0104621D03*
X0178857Y0104621D03*
X0176889Y0104621D03*
X0174920Y0104621D03*
X0172952Y0104621D03*
X0170983Y0104641D03*
X0169015Y0104621D03*
X0167046Y0104621D03*
X0165078Y0104621D03*
X0163109Y0104621D03*
X0161141Y0104621D03*
X0159172Y0104621D03*
X0157204Y0104621D03*
X0155235Y0104621D03*
X0153267Y0104621D03*
X0151298Y0104621D03*
X0149330Y0104621D03*
X0147361Y0104621D03*
X0147361Y0188283D03*
X0149330Y0188283D03*
X0151298Y0188283D03*
X0153267Y0188283D03*
X0155235Y0188283D03*
X0157204Y0188283D03*
X0159172Y0188283D03*
X0161141Y0188283D03*
X0163109Y0188283D03*
X0165078Y0188283D03*
X0167046Y0188283D03*
X0169015Y0188283D03*
X0170983Y0188283D03*
X0172952Y0188283D03*
X0174920Y0188283D03*
X0176889Y0188283D03*
X0178857Y0188283D03*
X0180826Y0188283D03*
X0182794Y0188283D03*
X0184763Y0188283D03*
X0186731Y0188283D03*
X0188700Y0188283D03*
X0190668Y0188283D03*
X0192637Y0188283D03*
X0194605Y0188283D03*
X0196574Y0188283D03*
X0198542Y0188283D03*
X0200511Y0188283D03*
X0202479Y0188283D03*
X0204448Y0188283D03*
X0206416Y0188283D03*
X0208385Y0188283D03*
X0210353Y0188283D03*
X0212322Y0188283D03*
X0214290Y0188283D03*
X0216259Y0188283D03*
D14*
X0223641Y0180901D03*
X0223641Y0178932D03*
X0223641Y0176964D03*
X0223641Y0174995D03*
X0223641Y0173027D03*
X0223641Y0171058D03*
X0223641Y0169090D03*
X0223641Y0167121D03*
X0223641Y0165153D03*
X0223641Y0163184D03*
X0223641Y0161216D03*
X0223641Y0159247D03*
X0223641Y0157279D03*
X0223641Y0155310D03*
X0223641Y0153342D03*
X0223641Y0151373D03*
X0223641Y0149405D03*
X0223641Y0147436D03*
X0223641Y0145468D03*
X0223641Y0143499D03*
X0223641Y0141531D03*
X0223641Y0139562D03*
X0223641Y0137594D03*
X0223641Y0135625D03*
X0223641Y0133657D03*
X0223641Y0131688D03*
X0223641Y0129720D03*
X0223641Y0127751D03*
X0223641Y0125783D03*
X0223641Y0123814D03*
X0223641Y0121846D03*
X0223641Y0119877D03*
X0223641Y0117909D03*
X0223641Y0115940D03*
X0223641Y0113972D03*
X0223641Y0112003D03*
X0139979Y0112003D03*
X0139979Y0113972D03*
X0139979Y0115940D03*
X0139979Y0117909D03*
X0139979Y0119877D03*
X0139979Y0121846D03*
X0139979Y0123814D03*
X0139979Y0125783D03*
X0139979Y0127751D03*
X0139979Y0129720D03*
X0139979Y0131688D03*
X0139979Y0133657D03*
X0139979Y0135625D03*
X0139979Y0137594D03*
X0139979Y0139562D03*
X0139979Y0141531D03*
X0139979Y0143499D03*
X0139979Y0145468D03*
X0139979Y0147436D03*
X0139979Y0149405D03*
X0139979Y0151373D03*
X0139979Y0153342D03*
X0139979Y0155310D03*
X0139979Y0157279D03*
X0139979Y0159247D03*
X0139979Y0161216D03*
X0139979Y0163184D03*
X0139979Y0165153D03*
X0139979Y0167121D03*
X0139979Y0169090D03*
X0139979Y0171058D03*
X0139979Y0173027D03*
X0139979Y0174995D03*
X0139979Y0176964D03*
X0139979Y0178932D03*
X0139979Y0180901D03*
D15*
X0096282Y0153136D03*
X0092542Y0153136D03*
X0088802Y0153136D03*
X0088802Y0142900D03*
X0096282Y0142900D03*
X0092636Y0192470D03*
X0088896Y0192470D03*
X0085156Y0192470D03*
X0085156Y0202707D03*
X0092636Y0202707D03*
D16*
X0090535Y0243246D02*
X0090535Y0246886D01*
X0094175Y0246886D01*
X0094175Y0243246D01*
X0090535Y0243246D01*
X0090535Y0246885D02*
X0094175Y0246885D01*
X0099983Y0246886D02*
X0099983Y0243246D01*
X0099983Y0246886D02*
X0103623Y0246886D01*
X0103623Y0243246D01*
X0099983Y0243246D01*
X0099983Y0246885D02*
X0103623Y0246885D01*
D17*
X0102197Y0233747D03*
X0099638Y0233747D03*
X0097079Y0233747D03*
X0094520Y0233747D03*
X0091961Y0233747D03*
D18*
X0077317Y0108903D03*
X0077317Y0103903D03*
X0077317Y0098903D03*
X0077317Y0093903D03*
X0108025Y0093903D03*
X0108025Y0098863D03*
X0108025Y0103863D03*
X0108025Y0108863D03*
D19*
X0185493Y0086836D02*
X0185493Y0084186D01*
X0185493Y0086836D02*
X0187143Y0086836D01*
X0187143Y0084186D01*
X0185493Y0084186D01*
X0185493Y0085835D02*
X0187143Y0085835D01*
X0193493Y0086836D02*
X0193493Y0084186D01*
X0193493Y0086836D02*
X0195143Y0086836D01*
X0195143Y0084186D01*
X0193493Y0084186D01*
X0193493Y0085835D02*
X0195143Y0085835D01*
X0193493Y0076836D02*
X0193493Y0074186D01*
X0193493Y0076836D02*
X0195143Y0076836D01*
X0195143Y0074186D01*
X0193493Y0074186D01*
X0193493Y0075835D02*
X0195143Y0075835D01*
X0185493Y0076836D02*
X0185493Y0074186D01*
X0185493Y0076836D02*
X0187143Y0076836D01*
X0187143Y0074186D01*
X0185493Y0074186D01*
X0185493Y0075835D02*
X0187143Y0075835D01*
D20*
X0189337Y0248399D03*
X0171227Y0248399D03*
D21*
X0172408Y0240722D03*
X0188156Y0240722D03*
D22*
X0071399Y0179804D03*
X0071399Y0176655D03*
X0068249Y0176655D03*
X0068249Y0179804D03*
M02*
