G75*
%MOIN*%
%OFA0B0*%
%FSLAX25Y25*%
%IPPOS*%
%LPD*%
%AMOC8*
5,1,8,0,0,1.08239X$1,22.5*
%
%ADD10C,0.00000*%
%ADD11C,0.00300*%
%ADD12C,0.00400*%
%ADD13C,0.01000*%
%ADD14R,0.01969X0.02953*%
%ADD15C,0.00500*%
%ADD16C,0.00600*%
%ADD17C,0.00200*%
%ADD18C,0.01575*%
D10*
X0066109Y0034829D02*
X0333825Y0034829D01*
X0320045Y0054514D02*
X0320049Y0054852D01*
X0320062Y0055190D01*
X0320082Y0055528D01*
X0320111Y0055865D01*
X0320149Y0056201D01*
X0320194Y0056536D01*
X0320248Y0056870D01*
X0320310Y0057202D01*
X0320380Y0057533D01*
X0320458Y0057862D01*
X0320544Y0058189D01*
X0320638Y0058514D01*
X0320741Y0058837D01*
X0320851Y0059156D01*
X0320968Y0059473D01*
X0321094Y0059787D01*
X0321227Y0060098D01*
X0321368Y0060406D01*
X0321516Y0060710D01*
X0321672Y0061010D01*
X0321835Y0061306D01*
X0322005Y0061598D01*
X0322183Y0061886D01*
X0322367Y0062170D01*
X0322559Y0062449D01*
X0322757Y0062723D01*
X0322962Y0062992D01*
X0323173Y0063256D01*
X0323391Y0063515D01*
X0323615Y0063768D01*
X0323845Y0064016D01*
X0324081Y0064258D01*
X0324323Y0064494D01*
X0324571Y0064724D01*
X0324824Y0064948D01*
X0325083Y0065166D01*
X0325347Y0065377D01*
X0325616Y0065582D01*
X0325890Y0065780D01*
X0326169Y0065972D01*
X0326453Y0066156D01*
X0326741Y0066334D01*
X0327033Y0066504D01*
X0327329Y0066667D01*
X0327629Y0066823D01*
X0327933Y0066971D01*
X0328241Y0067112D01*
X0328552Y0067245D01*
X0328866Y0067371D01*
X0329183Y0067488D01*
X0329502Y0067598D01*
X0329825Y0067701D01*
X0330150Y0067795D01*
X0330477Y0067881D01*
X0330806Y0067959D01*
X0331137Y0068029D01*
X0331469Y0068091D01*
X0331803Y0068145D01*
X0332138Y0068190D01*
X0332474Y0068228D01*
X0332811Y0068257D01*
X0333149Y0068277D01*
X0333487Y0068290D01*
X0333825Y0068294D01*
X0334163Y0068290D01*
X0334501Y0068277D01*
X0334839Y0068257D01*
X0335176Y0068228D01*
X0335512Y0068190D01*
X0335847Y0068145D01*
X0336181Y0068091D01*
X0336513Y0068029D01*
X0336844Y0067959D01*
X0337173Y0067881D01*
X0337500Y0067795D01*
X0337825Y0067701D01*
X0338148Y0067598D01*
X0338467Y0067488D01*
X0338784Y0067371D01*
X0339098Y0067245D01*
X0339409Y0067112D01*
X0339717Y0066971D01*
X0340021Y0066823D01*
X0340321Y0066667D01*
X0340617Y0066504D01*
X0340909Y0066334D01*
X0341197Y0066156D01*
X0341481Y0065972D01*
X0341760Y0065780D01*
X0342034Y0065582D01*
X0342303Y0065377D01*
X0342567Y0065166D01*
X0342826Y0064948D01*
X0343079Y0064724D01*
X0343327Y0064494D01*
X0343569Y0064258D01*
X0343805Y0064016D01*
X0344035Y0063768D01*
X0344259Y0063515D01*
X0344477Y0063256D01*
X0344688Y0062992D01*
X0344893Y0062723D01*
X0345091Y0062449D01*
X0345283Y0062170D01*
X0345467Y0061886D01*
X0345645Y0061598D01*
X0345815Y0061306D01*
X0345978Y0061010D01*
X0346134Y0060710D01*
X0346282Y0060406D01*
X0346423Y0060098D01*
X0346556Y0059787D01*
X0346682Y0059473D01*
X0346799Y0059156D01*
X0346909Y0058837D01*
X0347012Y0058514D01*
X0347106Y0058189D01*
X0347192Y0057862D01*
X0347270Y0057533D01*
X0347340Y0057202D01*
X0347402Y0056870D01*
X0347456Y0056536D01*
X0347501Y0056201D01*
X0347539Y0055865D01*
X0347568Y0055528D01*
X0347588Y0055190D01*
X0347601Y0054852D01*
X0347605Y0054514D01*
X0347601Y0054176D01*
X0347588Y0053838D01*
X0347568Y0053500D01*
X0347539Y0053163D01*
X0347501Y0052827D01*
X0347456Y0052492D01*
X0347402Y0052158D01*
X0347340Y0051826D01*
X0347270Y0051495D01*
X0347192Y0051166D01*
X0347106Y0050839D01*
X0347012Y0050514D01*
X0346909Y0050191D01*
X0346799Y0049872D01*
X0346682Y0049555D01*
X0346556Y0049241D01*
X0346423Y0048930D01*
X0346282Y0048622D01*
X0346134Y0048318D01*
X0345978Y0048018D01*
X0345815Y0047722D01*
X0345645Y0047430D01*
X0345467Y0047142D01*
X0345283Y0046858D01*
X0345091Y0046579D01*
X0344893Y0046305D01*
X0344688Y0046036D01*
X0344477Y0045772D01*
X0344259Y0045513D01*
X0344035Y0045260D01*
X0343805Y0045012D01*
X0343569Y0044770D01*
X0343327Y0044534D01*
X0343079Y0044304D01*
X0342826Y0044080D01*
X0342567Y0043862D01*
X0342303Y0043651D01*
X0342034Y0043446D01*
X0341760Y0043248D01*
X0341481Y0043056D01*
X0341197Y0042872D01*
X0340909Y0042694D01*
X0340617Y0042524D01*
X0340321Y0042361D01*
X0340021Y0042205D01*
X0339717Y0042057D01*
X0339409Y0041916D01*
X0339098Y0041783D01*
X0338784Y0041657D01*
X0338467Y0041540D01*
X0338148Y0041430D01*
X0337825Y0041327D01*
X0337500Y0041233D01*
X0337173Y0041147D01*
X0336844Y0041069D01*
X0336513Y0040999D01*
X0336181Y0040937D01*
X0335847Y0040883D01*
X0335512Y0040838D01*
X0335176Y0040800D01*
X0334839Y0040771D01*
X0334501Y0040751D01*
X0334163Y0040738D01*
X0333825Y0040734D01*
X0333487Y0040738D01*
X0333149Y0040751D01*
X0332811Y0040771D01*
X0332474Y0040800D01*
X0332138Y0040838D01*
X0331803Y0040883D01*
X0331469Y0040937D01*
X0331137Y0040999D01*
X0330806Y0041069D01*
X0330477Y0041147D01*
X0330150Y0041233D01*
X0329825Y0041327D01*
X0329502Y0041430D01*
X0329183Y0041540D01*
X0328866Y0041657D01*
X0328552Y0041783D01*
X0328241Y0041916D01*
X0327933Y0042057D01*
X0327629Y0042205D01*
X0327329Y0042361D01*
X0327033Y0042524D01*
X0326741Y0042694D01*
X0326453Y0042872D01*
X0326169Y0043056D01*
X0325890Y0043248D01*
X0325616Y0043446D01*
X0325347Y0043651D01*
X0325083Y0043862D01*
X0324824Y0044080D01*
X0324571Y0044304D01*
X0324323Y0044534D01*
X0324081Y0044770D01*
X0323845Y0045012D01*
X0323615Y0045260D01*
X0323391Y0045513D01*
X0323173Y0045772D01*
X0322962Y0046036D01*
X0322757Y0046305D01*
X0322559Y0046579D01*
X0322367Y0046858D01*
X0322183Y0047142D01*
X0322005Y0047430D01*
X0321835Y0047722D01*
X0321672Y0048018D01*
X0321516Y0048318D01*
X0321368Y0048622D01*
X0321227Y0048930D01*
X0321094Y0049241D01*
X0320968Y0049555D01*
X0320851Y0049872D01*
X0320741Y0050191D01*
X0320638Y0050514D01*
X0320544Y0050839D01*
X0320458Y0051166D01*
X0320380Y0051495D01*
X0320310Y0051826D01*
X0320248Y0052158D01*
X0320194Y0052492D01*
X0320149Y0052827D01*
X0320111Y0053163D01*
X0320082Y0053500D01*
X0320062Y0053838D01*
X0320049Y0054176D01*
X0320045Y0054514D01*
X0333825Y0034829D02*
X0334301Y0034835D01*
X0334776Y0034852D01*
X0335251Y0034881D01*
X0335725Y0034921D01*
X0336198Y0034973D01*
X0336669Y0035036D01*
X0337139Y0035110D01*
X0337607Y0035196D01*
X0338073Y0035293D01*
X0338536Y0035401D01*
X0338996Y0035520D01*
X0339454Y0035651D01*
X0339908Y0035792D01*
X0340359Y0035945D01*
X0340805Y0036108D01*
X0341248Y0036282D01*
X0341686Y0036467D01*
X0342120Y0036662D01*
X0342549Y0036868D01*
X0342973Y0037084D01*
X0343392Y0037310D01*
X0343805Y0037546D01*
X0344212Y0037792D01*
X0344613Y0038048D01*
X0345007Y0038314D01*
X0345396Y0038589D01*
X0345777Y0038873D01*
X0346151Y0039166D01*
X0346519Y0039468D01*
X0346879Y0039780D01*
X0347231Y0040099D01*
X0347575Y0040427D01*
X0347912Y0040764D01*
X0348240Y0041108D01*
X0348559Y0041460D01*
X0348871Y0041820D01*
X0349173Y0042188D01*
X0349466Y0042562D01*
X0349750Y0042943D01*
X0350025Y0043332D01*
X0350291Y0043726D01*
X0350547Y0044127D01*
X0350793Y0044534D01*
X0351029Y0044947D01*
X0351255Y0045366D01*
X0351471Y0045790D01*
X0351677Y0046219D01*
X0351872Y0046653D01*
X0352057Y0047091D01*
X0352231Y0047534D01*
X0352394Y0047980D01*
X0352547Y0048431D01*
X0352688Y0048885D01*
X0352819Y0049343D01*
X0352938Y0049803D01*
X0353046Y0050266D01*
X0353143Y0050732D01*
X0353229Y0051200D01*
X0353303Y0051670D01*
X0353366Y0052141D01*
X0353418Y0052614D01*
X0353458Y0053088D01*
X0353487Y0053563D01*
X0353504Y0054038D01*
X0353510Y0054514D01*
X0353510Y0231680D01*
X0320045Y0231680D02*
X0320049Y0232018D01*
X0320062Y0232356D01*
X0320082Y0232694D01*
X0320111Y0233031D01*
X0320149Y0233367D01*
X0320194Y0233702D01*
X0320248Y0234036D01*
X0320310Y0234368D01*
X0320380Y0234699D01*
X0320458Y0235028D01*
X0320544Y0235355D01*
X0320638Y0235680D01*
X0320741Y0236003D01*
X0320851Y0236322D01*
X0320968Y0236639D01*
X0321094Y0236953D01*
X0321227Y0237264D01*
X0321368Y0237572D01*
X0321516Y0237876D01*
X0321672Y0238176D01*
X0321835Y0238472D01*
X0322005Y0238764D01*
X0322183Y0239052D01*
X0322367Y0239336D01*
X0322559Y0239615D01*
X0322757Y0239889D01*
X0322962Y0240158D01*
X0323173Y0240422D01*
X0323391Y0240681D01*
X0323615Y0240934D01*
X0323845Y0241182D01*
X0324081Y0241424D01*
X0324323Y0241660D01*
X0324571Y0241890D01*
X0324824Y0242114D01*
X0325083Y0242332D01*
X0325347Y0242543D01*
X0325616Y0242748D01*
X0325890Y0242946D01*
X0326169Y0243138D01*
X0326453Y0243322D01*
X0326741Y0243500D01*
X0327033Y0243670D01*
X0327329Y0243833D01*
X0327629Y0243989D01*
X0327933Y0244137D01*
X0328241Y0244278D01*
X0328552Y0244411D01*
X0328866Y0244537D01*
X0329183Y0244654D01*
X0329502Y0244764D01*
X0329825Y0244867D01*
X0330150Y0244961D01*
X0330477Y0245047D01*
X0330806Y0245125D01*
X0331137Y0245195D01*
X0331469Y0245257D01*
X0331803Y0245311D01*
X0332138Y0245356D01*
X0332474Y0245394D01*
X0332811Y0245423D01*
X0333149Y0245443D01*
X0333487Y0245456D01*
X0333825Y0245460D01*
X0334163Y0245456D01*
X0334501Y0245443D01*
X0334839Y0245423D01*
X0335176Y0245394D01*
X0335512Y0245356D01*
X0335847Y0245311D01*
X0336181Y0245257D01*
X0336513Y0245195D01*
X0336844Y0245125D01*
X0337173Y0245047D01*
X0337500Y0244961D01*
X0337825Y0244867D01*
X0338148Y0244764D01*
X0338467Y0244654D01*
X0338784Y0244537D01*
X0339098Y0244411D01*
X0339409Y0244278D01*
X0339717Y0244137D01*
X0340021Y0243989D01*
X0340321Y0243833D01*
X0340617Y0243670D01*
X0340909Y0243500D01*
X0341197Y0243322D01*
X0341481Y0243138D01*
X0341760Y0242946D01*
X0342034Y0242748D01*
X0342303Y0242543D01*
X0342567Y0242332D01*
X0342826Y0242114D01*
X0343079Y0241890D01*
X0343327Y0241660D01*
X0343569Y0241424D01*
X0343805Y0241182D01*
X0344035Y0240934D01*
X0344259Y0240681D01*
X0344477Y0240422D01*
X0344688Y0240158D01*
X0344893Y0239889D01*
X0345091Y0239615D01*
X0345283Y0239336D01*
X0345467Y0239052D01*
X0345645Y0238764D01*
X0345815Y0238472D01*
X0345978Y0238176D01*
X0346134Y0237876D01*
X0346282Y0237572D01*
X0346423Y0237264D01*
X0346556Y0236953D01*
X0346682Y0236639D01*
X0346799Y0236322D01*
X0346909Y0236003D01*
X0347012Y0235680D01*
X0347106Y0235355D01*
X0347192Y0235028D01*
X0347270Y0234699D01*
X0347340Y0234368D01*
X0347402Y0234036D01*
X0347456Y0233702D01*
X0347501Y0233367D01*
X0347539Y0233031D01*
X0347568Y0232694D01*
X0347588Y0232356D01*
X0347601Y0232018D01*
X0347605Y0231680D01*
X0347601Y0231342D01*
X0347588Y0231004D01*
X0347568Y0230666D01*
X0347539Y0230329D01*
X0347501Y0229993D01*
X0347456Y0229658D01*
X0347402Y0229324D01*
X0347340Y0228992D01*
X0347270Y0228661D01*
X0347192Y0228332D01*
X0347106Y0228005D01*
X0347012Y0227680D01*
X0346909Y0227357D01*
X0346799Y0227038D01*
X0346682Y0226721D01*
X0346556Y0226407D01*
X0346423Y0226096D01*
X0346282Y0225788D01*
X0346134Y0225484D01*
X0345978Y0225184D01*
X0345815Y0224888D01*
X0345645Y0224596D01*
X0345467Y0224308D01*
X0345283Y0224024D01*
X0345091Y0223745D01*
X0344893Y0223471D01*
X0344688Y0223202D01*
X0344477Y0222938D01*
X0344259Y0222679D01*
X0344035Y0222426D01*
X0343805Y0222178D01*
X0343569Y0221936D01*
X0343327Y0221700D01*
X0343079Y0221470D01*
X0342826Y0221246D01*
X0342567Y0221028D01*
X0342303Y0220817D01*
X0342034Y0220612D01*
X0341760Y0220414D01*
X0341481Y0220222D01*
X0341197Y0220038D01*
X0340909Y0219860D01*
X0340617Y0219690D01*
X0340321Y0219527D01*
X0340021Y0219371D01*
X0339717Y0219223D01*
X0339409Y0219082D01*
X0339098Y0218949D01*
X0338784Y0218823D01*
X0338467Y0218706D01*
X0338148Y0218596D01*
X0337825Y0218493D01*
X0337500Y0218399D01*
X0337173Y0218313D01*
X0336844Y0218235D01*
X0336513Y0218165D01*
X0336181Y0218103D01*
X0335847Y0218049D01*
X0335512Y0218004D01*
X0335176Y0217966D01*
X0334839Y0217937D01*
X0334501Y0217917D01*
X0334163Y0217904D01*
X0333825Y0217900D01*
X0333487Y0217904D01*
X0333149Y0217917D01*
X0332811Y0217937D01*
X0332474Y0217966D01*
X0332138Y0218004D01*
X0331803Y0218049D01*
X0331469Y0218103D01*
X0331137Y0218165D01*
X0330806Y0218235D01*
X0330477Y0218313D01*
X0330150Y0218399D01*
X0329825Y0218493D01*
X0329502Y0218596D01*
X0329183Y0218706D01*
X0328866Y0218823D01*
X0328552Y0218949D01*
X0328241Y0219082D01*
X0327933Y0219223D01*
X0327629Y0219371D01*
X0327329Y0219527D01*
X0327033Y0219690D01*
X0326741Y0219860D01*
X0326453Y0220038D01*
X0326169Y0220222D01*
X0325890Y0220414D01*
X0325616Y0220612D01*
X0325347Y0220817D01*
X0325083Y0221028D01*
X0324824Y0221246D01*
X0324571Y0221470D01*
X0324323Y0221700D01*
X0324081Y0221936D01*
X0323845Y0222178D01*
X0323615Y0222426D01*
X0323391Y0222679D01*
X0323173Y0222938D01*
X0322962Y0223202D01*
X0322757Y0223471D01*
X0322559Y0223745D01*
X0322367Y0224024D01*
X0322183Y0224308D01*
X0322005Y0224596D01*
X0321835Y0224888D01*
X0321672Y0225184D01*
X0321516Y0225484D01*
X0321368Y0225788D01*
X0321227Y0226096D01*
X0321094Y0226407D01*
X0320968Y0226721D01*
X0320851Y0227038D01*
X0320741Y0227357D01*
X0320638Y0227680D01*
X0320544Y0228005D01*
X0320458Y0228332D01*
X0320380Y0228661D01*
X0320310Y0228992D01*
X0320248Y0229324D01*
X0320194Y0229658D01*
X0320149Y0229993D01*
X0320111Y0230329D01*
X0320082Y0230666D01*
X0320062Y0231004D01*
X0320049Y0231342D01*
X0320045Y0231680D01*
X0333825Y0251365D02*
X0334301Y0251359D01*
X0334776Y0251342D01*
X0335251Y0251313D01*
X0335725Y0251273D01*
X0336198Y0251221D01*
X0336669Y0251158D01*
X0337139Y0251084D01*
X0337607Y0250998D01*
X0338073Y0250901D01*
X0338536Y0250793D01*
X0338996Y0250674D01*
X0339454Y0250543D01*
X0339908Y0250402D01*
X0340359Y0250249D01*
X0340805Y0250086D01*
X0341248Y0249912D01*
X0341686Y0249727D01*
X0342120Y0249532D01*
X0342549Y0249326D01*
X0342973Y0249110D01*
X0343392Y0248884D01*
X0343805Y0248648D01*
X0344212Y0248402D01*
X0344613Y0248146D01*
X0345007Y0247880D01*
X0345396Y0247605D01*
X0345777Y0247321D01*
X0346151Y0247028D01*
X0346519Y0246726D01*
X0346879Y0246414D01*
X0347231Y0246095D01*
X0347575Y0245767D01*
X0347912Y0245430D01*
X0348240Y0245086D01*
X0348559Y0244734D01*
X0348871Y0244374D01*
X0349173Y0244006D01*
X0349466Y0243632D01*
X0349750Y0243251D01*
X0350025Y0242862D01*
X0350291Y0242468D01*
X0350547Y0242067D01*
X0350793Y0241660D01*
X0351029Y0241247D01*
X0351255Y0240828D01*
X0351471Y0240404D01*
X0351677Y0239975D01*
X0351872Y0239541D01*
X0352057Y0239103D01*
X0352231Y0238660D01*
X0352394Y0238214D01*
X0352547Y0237763D01*
X0352688Y0237309D01*
X0352819Y0236851D01*
X0352938Y0236391D01*
X0353046Y0235928D01*
X0353143Y0235462D01*
X0353229Y0234994D01*
X0353303Y0234524D01*
X0353366Y0234053D01*
X0353418Y0233580D01*
X0353458Y0233106D01*
X0353487Y0232631D01*
X0353504Y0232156D01*
X0353510Y0231680D01*
X0333825Y0251365D02*
X0066109Y0251365D01*
X0052329Y0231680D02*
X0052333Y0232018D01*
X0052346Y0232356D01*
X0052366Y0232694D01*
X0052395Y0233031D01*
X0052433Y0233367D01*
X0052478Y0233702D01*
X0052532Y0234036D01*
X0052594Y0234368D01*
X0052664Y0234699D01*
X0052742Y0235028D01*
X0052828Y0235355D01*
X0052922Y0235680D01*
X0053025Y0236003D01*
X0053135Y0236322D01*
X0053252Y0236639D01*
X0053378Y0236953D01*
X0053511Y0237264D01*
X0053652Y0237572D01*
X0053800Y0237876D01*
X0053956Y0238176D01*
X0054119Y0238472D01*
X0054289Y0238764D01*
X0054467Y0239052D01*
X0054651Y0239336D01*
X0054843Y0239615D01*
X0055041Y0239889D01*
X0055246Y0240158D01*
X0055457Y0240422D01*
X0055675Y0240681D01*
X0055899Y0240934D01*
X0056129Y0241182D01*
X0056365Y0241424D01*
X0056607Y0241660D01*
X0056855Y0241890D01*
X0057108Y0242114D01*
X0057367Y0242332D01*
X0057631Y0242543D01*
X0057900Y0242748D01*
X0058174Y0242946D01*
X0058453Y0243138D01*
X0058737Y0243322D01*
X0059025Y0243500D01*
X0059317Y0243670D01*
X0059613Y0243833D01*
X0059913Y0243989D01*
X0060217Y0244137D01*
X0060525Y0244278D01*
X0060836Y0244411D01*
X0061150Y0244537D01*
X0061467Y0244654D01*
X0061786Y0244764D01*
X0062109Y0244867D01*
X0062434Y0244961D01*
X0062761Y0245047D01*
X0063090Y0245125D01*
X0063421Y0245195D01*
X0063753Y0245257D01*
X0064087Y0245311D01*
X0064422Y0245356D01*
X0064758Y0245394D01*
X0065095Y0245423D01*
X0065433Y0245443D01*
X0065771Y0245456D01*
X0066109Y0245460D01*
X0066447Y0245456D01*
X0066785Y0245443D01*
X0067123Y0245423D01*
X0067460Y0245394D01*
X0067796Y0245356D01*
X0068131Y0245311D01*
X0068465Y0245257D01*
X0068797Y0245195D01*
X0069128Y0245125D01*
X0069457Y0245047D01*
X0069784Y0244961D01*
X0070109Y0244867D01*
X0070432Y0244764D01*
X0070751Y0244654D01*
X0071068Y0244537D01*
X0071382Y0244411D01*
X0071693Y0244278D01*
X0072001Y0244137D01*
X0072305Y0243989D01*
X0072605Y0243833D01*
X0072901Y0243670D01*
X0073193Y0243500D01*
X0073481Y0243322D01*
X0073765Y0243138D01*
X0074044Y0242946D01*
X0074318Y0242748D01*
X0074587Y0242543D01*
X0074851Y0242332D01*
X0075110Y0242114D01*
X0075363Y0241890D01*
X0075611Y0241660D01*
X0075853Y0241424D01*
X0076089Y0241182D01*
X0076319Y0240934D01*
X0076543Y0240681D01*
X0076761Y0240422D01*
X0076972Y0240158D01*
X0077177Y0239889D01*
X0077375Y0239615D01*
X0077567Y0239336D01*
X0077751Y0239052D01*
X0077929Y0238764D01*
X0078099Y0238472D01*
X0078262Y0238176D01*
X0078418Y0237876D01*
X0078566Y0237572D01*
X0078707Y0237264D01*
X0078840Y0236953D01*
X0078966Y0236639D01*
X0079083Y0236322D01*
X0079193Y0236003D01*
X0079296Y0235680D01*
X0079390Y0235355D01*
X0079476Y0235028D01*
X0079554Y0234699D01*
X0079624Y0234368D01*
X0079686Y0234036D01*
X0079740Y0233702D01*
X0079785Y0233367D01*
X0079823Y0233031D01*
X0079852Y0232694D01*
X0079872Y0232356D01*
X0079885Y0232018D01*
X0079889Y0231680D01*
X0079885Y0231342D01*
X0079872Y0231004D01*
X0079852Y0230666D01*
X0079823Y0230329D01*
X0079785Y0229993D01*
X0079740Y0229658D01*
X0079686Y0229324D01*
X0079624Y0228992D01*
X0079554Y0228661D01*
X0079476Y0228332D01*
X0079390Y0228005D01*
X0079296Y0227680D01*
X0079193Y0227357D01*
X0079083Y0227038D01*
X0078966Y0226721D01*
X0078840Y0226407D01*
X0078707Y0226096D01*
X0078566Y0225788D01*
X0078418Y0225484D01*
X0078262Y0225184D01*
X0078099Y0224888D01*
X0077929Y0224596D01*
X0077751Y0224308D01*
X0077567Y0224024D01*
X0077375Y0223745D01*
X0077177Y0223471D01*
X0076972Y0223202D01*
X0076761Y0222938D01*
X0076543Y0222679D01*
X0076319Y0222426D01*
X0076089Y0222178D01*
X0075853Y0221936D01*
X0075611Y0221700D01*
X0075363Y0221470D01*
X0075110Y0221246D01*
X0074851Y0221028D01*
X0074587Y0220817D01*
X0074318Y0220612D01*
X0074044Y0220414D01*
X0073765Y0220222D01*
X0073481Y0220038D01*
X0073193Y0219860D01*
X0072901Y0219690D01*
X0072605Y0219527D01*
X0072305Y0219371D01*
X0072001Y0219223D01*
X0071693Y0219082D01*
X0071382Y0218949D01*
X0071068Y0218823D01*
X0070751Y0218706D01*
X0070432Y0218596D01*
X0070109Y0218493D01*
X0069784Y0218399D01*
X0069457Y0218313D01*
X0069128Y0218235D01*
X0068797Y0218165D01*
X0068465Y0218103D01*
X0068131Y0218049D01*
X0067796Y0218004D01*
X0067460Y0217966D01*
X0067123Y0217937D01*
X0066785Y0217917D01*
X0066447Y0217904D01*
X0066109Y0217900D01*
X0065771Y0217904D01*
X0065433Y0217917D01*
X0065095Y0217937D01*
X0064758Y0217966D01*
X0064422Y0218004D01*
X0064087Y0218049D01*
X0063753Y0218103D01*
X0063421Y0218165D01*
X0063090Y0218235D01*
X0062761Y0218313D01*
X0062434Y0218399D01*
X0062109Y0218493D01*
X0061786Y0218596D01*
X0061467Y0218706D01*
X0061150Y0218823D01*
X0060836Y0218949D01*
X0060525Y0219082D01*
X0060217Y0219223D01*
X0059913Y0219371D01*
X0059613Y0219527D01*
X0059317Y0219690D01*
X0059025Y0219860D01*
X0058737Y0220038D01*
X0058453Y0220222D01*
X0058174Y0220414D01*
X0057900Y0220612D01*
X0057631Y0220817D01*
X0057367Y0221028D01*
X0057108Y0221246D01*
X0056855Y0221470D01*
X0056607Y0221700D01*
X0056365Y0221936D01*
X0056129Y0222178D01*
X0055899Y0222426D01*
X0055675Y0222679D01*
X0055457Y0222938D01*
X0055246Y0223202D01*
X0055041Y0223471D01*
X0054843Y0223745D01*
X0054651Y0224024D01*
X0054467Y0224308D01*
X0054289Y0224596D01*
X0054119Y0224888D01*
X0053956Y0225184D01*
X0053800Y0225484D01*
X0053652Y0225788D01*
X0053511Y0226096D01*
X0053378Y0226407D01*
X0053252Y0226721D01*
X0053135Y0227038D01*
X0053025Y0227357D01*
X0052922Y0227680D01*
X0052828Y0228005D01*
X0052742Y0228332D01*
X0052664Y0228661D01*
X0052594Y0228992D01*
X0052532Y0229324D01*
X0052478Y0229658D01*
X0052433Y0229993D01*
X0052395Y0230329D01*
X0052366Y0230666D01*
X0052346Y0231004D01*
X0052333Y0231342D01*
X0052329Y0231680D01*
X0046424Y0231680D02*
X0046424Y0054514D01*
X0052329Y0054514D02*
X0052333Y0054852D01*
X0052346Y0055190D01*
X0052366Y0055528D01*
X0052395Y0055865D01*
X0052433Y0056201D01*
X0052478Y0056536D01*
X0052532Y0056870D01*
X0052594Y0057202D01*
X0052664Y0057533D01*
X0052742Y0057862D01*
X0052828Y0058189D01*
X0052922Y0058514D01*
X0053025Y0058837D01*
X0053135Y0059156D01*
X0053252Y0059473D01*
X0053378Y0059787D01*
X0053511Y0060098D01*
X0053652Y0060406D01*
X0053800Y0060710D01*
X0053956Y0061010D01*
X0054119Y0061306D01*
X0054289Y0061598D01*
X0054467Y0061886D01*
X0054651Y0062170D01*
X0054843Y0062449D01*
X0055041Y0062723D01*
X0055246Y0062992D01*
X0055457Y0063256D01*
X0055675Y0063515D01*
X0055899Y0063768D01*
X0056129Y0064016D01*
X0056365Y0064258D01*
X0056607Y0064494D01*
X0056855Y0064724D01*
X0057108Y0064948D01*
X0057367Y0065166D01*
X0057631Y0065377D01*
X0057900Y0065582D01*
X0058174Y0065780D01*
X0058453Y0065972D01*
X0058737Y0066156D01*
X0059025Y0066334D01*
X0059317Y0066504D01*
X0059613Y0066667D01*
X0059913Y0066823D01*
X0060217Y0066971D01*
X0060525Y0067112D01*
X0060836Y0067245D01*
X0061150Y0067371D01*
X0061467Y0067488D01*
X0061786Y0067598D01*
X0062109Y0067701D01*
X0062434Y0067795D01*
X0062761Y0067881D01*
X0063090Y0067959D01*
X0063421Y0068029D01*
X0063753Y0068091D01*
X0064087Y0068145D01*
X0064422Y0068190D01*
X0064758Y0068228D01*
X0065095Y0068257D01*
X0065433Y0068277D01*
X0065771Y0068290D01*
X0066109Y0068294D01*
X0066447Y0068290D01*
X0066785Y0068277D01*
X0067123Y0068257D01*
X0067460Y0068228D01*
X0067796Y0068190D01*
X0068131Y0068145D01*
X0068465Y0068091D01*
X0068797Y0068029D01*
X0069128Y0067959D01*
X0069457Y0067881D01*
X0069784Y0067795D01*
X0070109Y0067701D01*
X0070432Y0067598D01*
X0070751Y0067488D01*
X0071068Y0067371D01*
X0071382Y0067245D01*
X0071693Y0067112D01*
X0072001Y0066971D01*
X0072305Y0066823D01*
X0072605Y0066667D01*
X0072901Y0066504D01*
X0073193Y0066334D01*
X0073481Y0066156D01*
X0073765Y0065972D01*
X0074044Y0065780D01*
X0074318Y0065582D01*
X0074587Y0065377D01*
X0074851Y0065166D01*
X0075110Y0064948D01*
X0075363Y0064724D01*
X0075611Y0064494D01*
X0075853Y0064258D01*
X0076089Y0064016D01*
X0076319Y0063768D01*
X0076543Y0063515D01*
X0076761Y0063256D01*
X0076972Y0062992D01*
X0077177Y0062723D01*
X0077375Y0062449D01*
X0077567Y0062170D01*
X0077751Y0061886D01*
X0077929Y0061598D01*
X0078099Y0061306D01*
X0078262Y0061010D01*
X0078418Y0060710D01*
X0078566Y0060406D01*
X0078707Y0060098D01*
X0078840Y0059787D01*
X0078966Y0059473D01*
X0079083Y0059156D01*
X0079193Y0058837D01*
X0079296Y0058514D01*
X0079390Y0058189D01*
X0079476Y0057862D01*
X0079554Y0057533D01*
X0079624Y0057202D01*
X0079686Y0056870D01*
X0079740Y0056536D01*
X0079785Y0056201D01*
X0079823Y0055865D01*
X0079852Y0055528D01*
X0079872Y0055190D01*
X0079885Y0054852D01*
X0079889Y0054514D01*
X0079885Y0054176D01*
X0079872Y0053838D01*
X0079852Y0053500D01*
X0079823Y0053163D01*
X0079785Y0052827D01*
X0079740Y0052492D01*
X0079686Y0052158D01*
X0079624Y0051826D01*
X0079554Y0051495D01*
X0079476Y0051166D01*
X0079390Y0050839D01*
X0079296Y0050514D01*
X0079193Y0050191D01*
X0079083Y0049872D01*
X0078966Y0049555D01*
X0078840Y0049241D01*
X0078707Y0048930D01*
X0078566Y0048622D01*
X0078418Y0048318D01*
X0078262Y0048018D01*
X0078099Y0047722D01*
X0077929Y0047430D01*
X0077751Y0047142D01*
X0077567Y0046858D01*
X0077375Y0046579D01*
X0077177Y0046305D01*
X0076972Y0046036D01*
X0076761Y0045772D01*
X0076543Y0045513D01*
X0076319Y0045260D01*
X0076089Y0045012D01*
X0075853Y0044770D01*
X0075611Y0044534D01*
X0075363Y0044304D01*
X0075110Y0044080D01*
X0074851Y0043862D01*
X0074587Y0043651D01*
X0074318Y0043446D01*
X0074044Y0043248D01*
X0073765Y0043056D01*
X0073481Y0042872D01*
X0073193Y0042694D01*
X0072901Y0042524D01*
X0072605Y0042361D01*
X0072305Y0042205D01*
X0072001Y0042057D01*
X0071693Y0041916D01*
X0071382Y0041783D01*
X0071068Y0041657D01*
X0070751Y0041540D01*
X0070432Y0041430D01*
X0070109Y0041327D01*
X0069784Y0041233D01*
X0069457Y0041147D01*
X0069128Y0041069D01*
X0068797Y0040999D01*
X0068465Y0040937D01*
X0068131Y0040883D01*
X0067796Y0040838D01*
X0067460Y0040800D01*
X0067123Y0040771D01*
X0066785Y0040751D01*
X0066447Y0040738D01*
X0066109Y0040734D01*
X0065771Y0040738D01*
X0065433Y0040751D01*
X0065095Y0040771D01*
X0064758Y0040800D01*
X0064422Y0040838D01*
X0064087Y0040883D01*
X0063753Y0040937D01*
X0063421Y0040999D01*
X0063090Y0041069D01*
X0062761Y0041147D01*
X0062434Y0041233D01*
X0062109Y0041327D01*
X0061786Y0041430D01*
X0061467Y0041540D01*
X0061150Y0041657D01*
X0060836Y0041783D01*
X0060525Y0041916D01*
X0060217Y0042057D01*
X0059913Y0042205D01*
X0059613Y0042361D01*
X0059317Y0042524D01*
X0059025Y0042694D01*
X0058737Y0042872D01*
X0058453Y0043056D01*
X0058174Y0043248D01*
X0057900Y0043446D01*
X0057631Y0043651D01*
X0057367Y0043862D01*
X0057108Y0044080D01*
X0056855Y0044304D01*
X0056607Y0044534D01*
X0056365Y0044770D01*
X0056129Y0045012D01*
X0055899Y0045260D01*
X0055675Y0045513D01*
X0055457Y0045772D01*
X0055246Y0046036D01*
X0055041Y0046305D01*
X0054843Y0046579D01*
X0054651Y0046858D01*
X0054467Y0047142D01*
X0054289Y0047430D01*
X0054119Y0047722D01*
X0053956Y0048018D01*
X0053800Y0048318D01*
X0053652Y0048622D01*
X0053511Y0048930D01*
X0053378Y0049241D01*
X0053252Y0049555D01*
X0053135Y0049872D01*
X0053025Y0050191D01*
X0052922Y0050514D01*
X0052828Y0050839D01*
X0052742Y0051166D01*
X0052664Y0051495D01*
X0052594Y0051826D01*
X0052532Y0052158D01*
X0052478Y0052492D01*
X0052433Y0052827D01*
X0052395Y0053163D01*
X0052366Y0053500D01*
X0052346Y0053838D01*
X0052333Y0054176D01*
X0052329Y0054514D01*
X0046424Y0054514D02*
X0046430Y0054038D01*
X0046447Y0053563D01*
X0046476Y0053088D01*
X0046516Y0052614D01*
X0046568Y0052141D01*
X0046631Y0051670D01*
X0046705Y0051200D01*
X0046791Y0050732D01*
X0046888Y0050266D01*
X0046996Y0049803D01*
X0047115Y0049343D01*
X0047246Y0048885D01*
X0047387Y0048431D01*
X0047540Y0047980D01*
X0047703Y0047534D01*
X0047877Y0047091D01*
X0048062Y0046653D01*
X0048257Y0046219D01*
X0048463Y0045790D01*
X0048679Y0045366D01*
X0048905Y0044947D01*
X0049141Y0044534D01*
X0049387Y0044127D01*
X0049643Y0043726D01*
X0049909Y0043332D01*
X0050184Y0042943D01*
X0050468Y0042562D01*
X0050761Y0042188D01*
X0051063Y0041820D01*
X0051375Y0041460D01*
X0051694Y0041108D01*
X0052022Y0040764D01*
X0052359Y0040427D01*
X0052703Y0040099D01*
X0053055Y0039780D01*
X0053415Y0039468D01*
X0053783Y0039166D01*
X0054157Y0038873D01*
X0054538Y0038589D01*
X0054927Y0038314D01*
X0055321Y0038048D01*
X0055722Y0037792D01*
X0056129Y0037546D01*
X0056542Y0037310D01*
X0056961Y0037084D01*
X0057385Y0036868D01*
X0057814Y0036662D01*
X0058248Y0036467D01*
X0058686Y0036282D01*
X0059129Y0036108D01*
X0059575Y0035945D01*
X0060026Y0035792D01*
X0060480Y0035651D01*
X0060938Y0035520D01*
X0061398Y0035401D01*
X0061861Y0035293D01*
X0062327Y0035196D01*
X0062795Y0035110D01*
X0063265Y0035036D01*
X0063736Y0034973D01*
X0064209Y0034921D01*
X0064683Y0034881D01*
X0065158Y0034852D01*
X0065633Y0034835D01*
X0066109Y0034829D01*
X0069062Y0078136D02*
X0069064Y0078276D01*
X0069070Y0078416D01*
X0069080Y0078555D01*
X0069094Y0078694D01*
X0069112Y0078833D01*
X0069133Y0078971D01*
X0069159Y0079109D01*
X0069189Y0079246D01*
X0069222Y0079381D01*
X0069260Y0079516D01*
X0069301Y0079650D01*
X0069346Y0079783D01*
X0069394Y0079914D01*
X0069447Y0080043D01*
X0069503Y0080172D01*
X0069562Y0080298D01*
X0069626Y0080423D01*
X0069692Y0080546D01*
X0069763Y0080667D01*
X0069836Y0080786D01*
X0069913Y0080903D01*
X0069994Y0081017D01*
X0070077Y0081129D01*
X0070164Y0081239D01*
X0070254Y0081347D01*
X0070346Y0081451D01*
X0070442Y0081553D01*
X0070541Y0081653D01*
X0070642Y0081749D01*
X0070746Y0081843D01*
X0070853Y0081933D01*
X0070962Y0082020D01*
X0071074Y0082105D01*
X0071188Y0082186D01*
X0071304Y0082264D01*
X0071422Y0082338D01*
X0071543Y0082409D01*
X0071665Y0082477D01*
X0071790Y0082541D01*
X0071916Y0082602D01*
X0072043Y0082659D01*
X0072173Y0082712D01*
X0072304Y0082762D01*
X0072436Y0082807D01*
X0072569Y0082850D01*
X0072704Y0082888D01*
X0072839Y0082922D01*
X0072976Y0082953D01*
X0073113Y0082980D01*
X0073251Y0083002D01*
X0073390Y0083021D01*
X0073529Y0083036D01*
X0073668Y0083047D01*
X0073808Y0083054D01*
X0073948Y0083057D01*
X0074088Y0083056D01*
X0074228Y0083051D01*
X0074367Y0083042D01*
X0074507Y0083029D01*
X0074646Y0083012D01*
X0074784Y0082991D01*
X0074922Y0082967D01*
X0075059Y0082938D01*
X0075195Y0082906D01*
X0075330Y0082869D01*
X0075464Y0082829D01*
X0075597Y0082785D01*
X0075728Y0082737D01*
X0075858Y0082686D01*
X0075987Y0082631D01*
X0076114Y0082572D01*
X0076239Y0082509D01*
X0076362Y0082444D01*
X0076484Y0082374D01*
X0076603Y0082301D01*
X0076721Y0082225D01*
X0076836Y0082146D01*
X0076949Y0082063D01*
X0077059Y0081977D01*
X0077167Y0081888D01*
X0077272Y0081796D01*
X0077375Y0081701D01*
X0077475Y0081603D01*
X0077572Y0081503D01*
X0077666Y0081399D01*
X0077758Y0081293D01*
X0077846Y0081185D01*
X0077931Y0081074D01*
X0078013Y0080960D01*
X0078092Y0080844D01*
X0078167Y0080727D01*
X0078239Y0080607D01*
X0078307Y0080485D01*
X0078372Y0080361D01*
X0078434Y0080235D01*
X0078492Y0080108D01*
X0078546Y0079979D01*
X0078597Y0079848D01*
X0078643Y0079716D01*
X0078686Y0079583D01*
X0078726Y0079449D01*
X0078761Y0079314D01*
X0078793Y0079177D01*
X0078820Y0079040D01*
X0078844Y0078902D01*
X0078864Y0078764D01*
X0078880Y0078625D01*
X0078892Y0078485D01*
X0078900Y0078346D01*
X0078904Y0078206D01*
X0078904Y0078066D01*
X0078900Y0077926D01*
X0078892Y0077787D01*
X0078880Y0077647D01*
X0078864Y0077508D01*
X0078844Y0077370D01*
X0078820Y0077232D01*
X0078793Y0077095D01*
X0078761Y0076958D01*
X0078726Y0076823D01*
X0078686Y0076689D01*
X0078643Y0076556D01*
X0078597Y0076424D01*
X0078546Y0076293D01*
X0078492Y0076164D01*
X0078434Y0076037D01*
X0078372Y0075911D01*
X0078307Y0075787D01*
X0078239Y0075665D01*
X0078167Y0075545D01*
X0078092Y0075428D01*
X0078013Y0075312D01*
X0077931Y0075198D01*
X0077846Y0075087D01*
X0077758Y0074979D01*
X0077666Y0074873D01*
X0077572Y0074769D01*
X0077475Y0074669D01*
X0077375Y0074571D01*
X0077272Y0074476D01*
X0077167Y0074384D01*
X0077059Y0074295D01*
X0076949Y0074209D01*
X0076836Y0074126D01*
X0076721Y0074047D01*
X0076603Y0073971D01*
X0076484Y0073898D01*
X0076362Y0073828D01*
X0076239Y0073763D01*
X0076114Y0073700D01*
X0075987Y0073641D01*
X0075858Y0073586D01*
X0075728Y0073535D01*
X0075597Y0073487D01*
X0075464Y0073443D01*
X0075330Y0073403D01*
X0075195Y0073366D01*
X0075059Y0073334D01*
X0074922Y0073305D01*
X0074784Y0073281D01*
X0074646Y0073260D01*
X0074507Y0073243D01*
X0074367Y0073230D01*
X0074228Y0073221D01*
X0074088Y0073216D01*
X0073948Y0073215D01*
X0073808Y0073218D01*
X0073668Y0073225D01*
X0073529Y0073236D01*
X0073390Y0073251D01*
X0073251Y0073270D01*
X0073113Y0073292D01*
X0072976Y0073319D01*
X0072839Y0073350D01*
X0072704Y0073384D01*
X0072569Y0073422D01*
X0072436Y0073465D01*
X0072304Y0073510D01*
X0072173Y0073560D01*
X0072043Y0073613D01*
X0071916Y0073670D01*
X0071790Y0073731D01*
X0071665Y0073795D01*
X0071543Y0073863D01*
X0071422Y0073934D01*
X0071304Y0074008D01*
X0071188Y0074086D01*
X0071074Y0074167D01*
X0070962Y0074252D01*
X0070853Y0074339D01*
X0070746Y0074429D01*
X0070642Y0074523D01*
X0070541Y0074619D01*
X0070442Y0074719D01*
X0070346Y0074821D01*
X0070254Y0074925D01*
X0070164Y0075033D01*
X0070077Y0075143D01*
X0069994Y0075255D01*
X0069913Y0075369D01*
X0069836Y0075486D01*
X0069763Y0075605D01*
X0069692Y0075726D01*
X0069626Y0075849D01*
X0069562Y0075974D01*
X0069503Y0076100D01*
X0069447Y0076229D01*
X0069394Y0076358D01*
X0069346Y0076489D01*
X0069301Y0076622D01*
X0069260Y0076756D01*
X0069222Y0076891D01*
X0069189Y0077026D01*
X0069159Y0077163D01*
X0069133Y0077301D01*
X0069112Y0077439D01*
X0069094Y0077578D01*
X0069080Y0077717D01*
X0069070Y0077856D01*
X0069064Y0077996D01*
X0069062Y0078136D01*
X0046424Y0231680D02*
X0046430Y0232156D01*
X0046447Y0232631D01*
X0046476Y0233106D01*
X0046516Y0233580D01*
X0046568Y0234053D01*
X0046631Y0234524D01*
X0046705Y0234994D01*
X0046791Y0235462D01*
X0046888Y0235928D01*
X0046996Y0236391D01*
X0047115Y0236851D01*
X0047246Y0237309D01*
X0047387Y0237763D01*
X0047540Y0238214D01*
X0047703Y0238660D01*
X0047877Y0239103D01*
X0048062Y0239541D01*
X0048257Y0239975D01*
X0048463Y0240404D01*
X0048679Y0240828D01*
X0048905Y0241247D01*
X0049141Y0241660D01*
X0049387Y0242067D01*
X0049643Y0242468D01*
X0049909Y0242862D01*
X0050184Y0243251D01*
X0050468Y0243632D01*
X0050761Y0244006D01*
X0051063Y0244374D01*
X0051375Y0244734D01*
X0051694Y0245086D01*
X0052022Y0245430D01*
X0052359Y0245767D01*
X0052703Y0246095D01*
X0053055Y0246414D01*
X0053415Y0246726D01*
X0053783Y0247028D01*
X0054157Y0247321D01*
X0054538Y0247605D01*
X0054927Y0247880D01*
X0055321Y0248146D01*
X0055722Y0248402D01*
X0056129Y0248648D01*
X0056542Y0248884D01*
X0056961Y0249110D01*
X0057385Y0249326D01*
X0057814Y0249532D01*
X0058248Y0249727D01*
X0058686Y0249912D01*
X0059129Y0250086D01*
X0059575Y0250249D01*
X0060026Y0250402D01*
X0060480Y0250543D01*
X0060938Y0250674D01*
X0061398Y0250793D01*
X0061861Y0250901D01*
X0062327Y0250998D01*
X0062795Y0251084D01*
X0063265Y0251158D01*
X0063736Y0251221D01*
X0064209Y0251273D01*
X0064683Y0251313D01*
X0065158Y0251342D01*
X0065633Y0251359D01*
X0066109Y0251365D01*
X0175676Y0245249D02*
X0175678Y0245318D01*
X0175684Y0245386D01*
X0175694Y0245454D01*
X0175708Y0245521D01*
X0175726Y0245588D01*
X0175747Y0245653D01*
X0175773Y0245717D01*
X0175802Y0245779D01*
X0175834Y0245839D01*
X0175870Y0245898D01*
X0175910Y0245954D01*
X0175952Y0246008D01*
X0175998Y0246059D01*
X0176047Y0246108D01*
X0176098Y0246154D01*
X0176152Y0246196D01*
X0176208Y0246236D01*
X0176266Y0246272D01*
X0176327Y0246304D01*
X0176389Y0246333D01*
X0176453Y0246359D01*
X0176518Y0246380D01*
X0176585Y0246398D01*
X0176652Y0246412D01*
X0176720Y0246422D01*
X0176788Y0246428D01*
X0176857Y0246430D01*
X0176926Y0246428D01*
X0176994Y0246422D01*
X0177062Y0246412D01*
X0177129Y0246398D01*
X0177196Y0246380D01*
X0177261Y0246359D01*
X0177325Y0246333D01*
X0177387Y0246304D01*
X0177447Y0246272D01*
X0177506Y0246236D01*
X0177562Y0246196D01*
X0177616Y0246154D01*
X0177667Y0246108D01*
X0177716Y0246059D01*
X0177762Y0246008D01*
X0177804Y0245954D01*
X0177844Y0245898D01*
X0177880Y0245839D01*
X0177912Y0245779D01*
X0177941Y0245717D01*
X0177967Y0245653D01*
X0177988Y0245588D01*
X0178006Y0245521D01*
X0178020Y0245454D01*
X0178030Y0245386D01*
X0178036Y0245318D01*
X0178038Y0245249D01*
X0178036Y0245180D01*
X0178030Y0245112D01*
X0178020Y0245044D01*
X0178006Y0244977D01*
X0177988Y0244910D01*
X0177967Y0244845D01*
X0177941Y0244781D01*
X0177912Y0244719D01*
X0177880Y0244658D01*
X0177844Y0244600D01*
X0177804Y0244544D01*
X0177762Y0244490D01*
X0177716Y0244439D01*
X0177667Y0244390D01*
X0177616Y0244344D01*
X0177562Y0244302D01*
X0177506Y0244262D01*
X0177448Y0244226D01*
X0177387Y0244194D01*
X0177325Y0244165D01*
X0177261Y0244139D01*
X0177196Y0244118D01*
X0177129Y0244100D01*
X0177062Y0244086D01*
X0176994Y0244076D01*
X0176926Y0244070D01*
X0176857Y0244068D01*
X0176788Y0244070D01*
X0176720Y0244076D01*
X0176652Y0244086D01*
X0176585Y0244100D01*
X0176518Y0244118D01*
X0176453Y0244139D01*
X0176389Y0244165D01*
X0176327Y0244194D01*
X0176266Y0244226D01*
X0176208Y0244262D01*
X0176152Y0244302D01*
X0176098Y0244344D01*
X0176047Y0244390D01*
X0175998Y0244439D01*
X0175952Y0244490D01*
X0175910Y0244544D01*
X0175870Y0244600D01*
X0175834Y0244658D01*
X0175802Y0244719D01*
X0175773Y0244781D01*
X0175747Y0244845D01*
X0175726Y0244910D01*
X0175708Y0244977D01*
X0175694Y0245044D01*
X0175684Y0245112D01*
X0175678Y0245180D01*
X0175676Y0245249D01*
X0182526Y0245249D02*
X0182528Y0245318D01*
X0182534Y0245386D01*
X0182544Y0245454D01*
X0182558Y0245521D01*
X0182576Y0245588D01*
X0182597Y0245653D01*
X0182623Y0245717D01*
X0182652Y0245779D01*
X0182684Y0245839D01*
X0182720Y0245898D01*
X0182760Y0245954D01*
X0182802Y0246008D01*
X0182848Y0246059D01*
X0182897Y0246108D01*
X0182948Y0246154D01*
X0183002Y0246196D01*
X0183058Y0246236D01*
X0183116Y0246272D01*
X0183177Y0246304D01*
X0183239Y0246333D01*
X0183303Y0246359D01*
X0183368Y0246380D01*
X0183435Y0246398D01*
X0183502Y0246412D01*
X0183570Y0246422D01*
X0183638Y0246428D01*
X0183707Y0246430D01*
X0183776Y0246428D01*
X0183844Y0246422D01*
X0183912Y0246412D01*
X0183979Y0246398D01*
X0184046Y0246380D01*
X0184111Y0246359D01*
X0184175Y0246333D01*
X0184237Y0246304D01*
X0184297Y0246272D01*
X0184356Y0246236D01*
X0184412Y0246196D01*
X0184466Y0246154D01*
X0184517Y0246108D01*
X0184566Y0246059D01*
X0184612Y0246008D01*
X0184654Y0245954D01*
X0184694Y0245898D01*
X0184730Y0245839D01*
X0184762Y0245779D01*
X0184791Y0245717D01*
X0184817Y0245653D01*
X0184838Y0245588D01*
X0184856Y0245521D01*
X0184870Y0245454D01*
X0184880Y0245386D01*
X0184886Y0245318D01*
X0184888Y0245249D01*
X0184886Y0245180D01*
X0184880Y0245112D01*
X0184870Y0245044D01*
X0184856Y0244977D01*
X0184838Y0244910D01*
X0184817Y0244845D01*
X0184791Y0244781D01*
X0184762Y0244719D01*
X0184730Y0244658D01*
X0184694Y0244600D01*
X0184654Y0244544D01*
X0184612Y0244490D01*
X0184566Y0244439D01*
X0184517Y0244390D01*
X0184466Y0244344D01*
X0184412Y0244302D01*
X0184356Y0244262D01*
X0184298Y0244226D01*
X0184237Y0244194D01*
X0184175Y0244165D01*
X0184111Y0244139D01*
X0184046Y0244118D01*
X0183979Y0244100D01*
X0183912Y0244086D01*
X0183844Y0244076D01*
X0183776Y0244070D01*
X0183707Y0244068D01*
X0183638Y0244070D01*
X0183570Y0244076D01*
X0183502Y0244086D01*
X0183435Y0244100D01*
X0183368Y0244118D01*
X0183303Y0244139D01*
X0183239Y0244165D01*
X0183177Y0244194D01*
X0183116Y0244226D01*
X0183058Y0244262D01*
X0183002Y0244302D01*
X0182948Y0244344D01*
X0182897Y0244390D01*
X0182848Y0244439D01*
X0182802Y0244490D01*
X0182760Y0244544D01*
X0182720Y0244600D01*
X0182684Y0244658D01*
X0182652Y0244719D01*
X0182623Y0244781D01*
X0182597Y0244845D01*
X0182576Y0244910D01*
X0182558Y0244977D01*
X0182544Y0245044D01*
X0182534Y0245112D01*
X0182528Y0245180D01*
X0182526Y0245249D01*
X0328904Y0208058D02*
X0328906Y0208198D01*
X0328912Y0208338D01*
X0328922Y0208477D01*
X0328936Y0208616D01*
X0328954Y0208755D01*
X0328975Y0208893D01*
X0329001Y0209031D01*
X0329031Y0209168D01*
X0329064Y0209303D01*
X0329102Y0209438D01*
X0329143Y0209572D01*
X0329188Y0209705D01*
X0329236Y0209836D01*
X0329289Y0209965D01*
X0329345Y0210094D01*
X0329404Y0210220D01*
X0329468Y0210345D01*
X0329534Y0210468D01*
X0329605Y0210589D01*
X0329678Y0210708D01*
X0329755Y0210825D01*
X0329836Y0210939D01*
X0329919Y0211051D01*
X0330006Y0211161D01*
X0330096Y0211269D01*
X0330188Y0211373D01*
X0330284Y0211475D01*
X0330383Y0211575D01*
X0330484Y0211671D01*
X0330588Y0211765D01*
X0330695Y0211855D01*
X0330804Y0211942D01*
X0330916Y0212027D01*
X0331030Y0212108D01*
X0331146Y0212186D01*
X0331264Y0212260D01*
X0331385Y0212331D01*
X0331507Y0212399D01*
X0331632Y0212463D01*
X0331758Y0212524D01*
X0331885Y0212581D01*
X0332015Y0212634D01*
X0332146Y0212684D01*
X0332278Y0212729D01*
X0332411Y0212772D01*
X0332546Y0212810D01*
X0332681Y0212844D01*
X0332818Y0212875D01*
X0332955Y0212902D01*
X0333093Y0212924D01*
X0333232Y0212943D01*
X0333371Y0212958D01*
X0333510Y0212969D01*
X0333650Y0212976D01*
X0333790Y0212979D01*
X0333930Y0212978D01*
X0334070Y0212973D01*
X0334209Y0212964D01*
X0334349Y0212951D01*
X0334488Y0212934D01*
X0334626Y0212913D01*
X0334764Y0212889D01*
X0334901Y0212860D01*
X0335037Y0212828D01*
X0335172Y0212791D01*
X0335306Y0212751D01*
X0335439Y0212707D01*
X0335570Y0212659D01*
X0335700Y0212608D01*
X0335829Y0212553D01*
X0335956Y0212494D01*
X0336081Y0212431D01*
X0336204Y0212366D01*
X0336326Y0212296D01*
X0336445Y0212223D01*
X0336563Y0212147D01*
X0336678Y0212068D01*
X0336791Y0211985D01*
X0336901Y0211899D01*
X0337009Y0211810D01*
X0337114Y0211718D01*
X0337217Y0211623D01*
X0337317Y0211525D01*
X0337414Y0211425D01*
X0337508Y0211321D01*
X0337600Y0211215D01*
X0337688Y0211107D01*
X0337773Y0210996D01*
X0337855Y0210882D01*
X0337934Y0210766D01*
X0338009Y0210649D01*
X0338081Y0210529D01*
X0338149Y0210407D01*
X0338214Y0210283D01*
X0338276Y0210157D01*
X0338334Y0210030D01*
X0338388Y0209901D01*
X0338439Y0209770D01*
X0338485Y0209638D01*
X0338528Y0209505D01*
X0338568Y0209371D01*
X0338603Y0209236D01*
X0338635Y0209099D01*
X0338662Y0208962D01*
X0338686Y0208824D01*
X0338706Y0208686D01*
X0338722Y0208547D01*
X0338734Y0208407D01*
X0338742Y0208268D01*
X0338746Y0208128D01*
X0338746Y0207988D01*
X0338742Y0207848D01*
X0338734Y0207709D01*
X0338722Y0207569D01*
X0338706Y0207430D01*
X0338686Y0207292D01*
X0338662Y0207154D01*
X0338635Y0207017D01*
X0338603Y0206880D01*
X0338568Y0206745D01*
X0338528Y0206611D01*
X0338485Y0206478D01*
X0338439Y0206346D01*
X0338388Y0206215D01*
X0338334Y0206086D01*
X0338276Y0205959D01*
X0338214Y0205833D01*
X0338149Y0205709D01*
X0338081Y0205587D01*
X0338009Y0205467D01*
X0337934Y0205350D01*
X0337855Y0205234D01*
X0337773Y0205120D01*
X0337688Y0205009D01*
X0337600Y0204901D01*
X0337508Y0204795D01*
X0337414Y0204691D01*
X0337317Y0204591D01*
X0337217Y0204493D01*
X0337114Y0204398D01*
X0337009Y0204306D01*
X0336901Y0204217D01*
X0336791Y0204131D01*
X0336678Y0204048D01*
X0336563Y0203969D01*
X0336445Y0203893D01*
X0336326Y0203820D01*
X0336204Y0203750D01*
X0336081Y0203685D01*
X0335956Y0203622D01*
X0335829Y0203563D01*
X0335700Y0203508D01*
X0335570Y0203457D01*
X0335439Y0203409D01*
X0335306Y0203365D01*
X0335172Y0203325D01*
X0335037Y0203288D01*
X0334901Y0203256D01*
X0334764Y0203227D01*
X0334626Y0203203D01*
X0334488Y0203182D01*
X0334349Y0203165D01*
X0334209Y0203152D01*
X0334070Y0203143D01*
X0333930Y0203138D01*
X0333790Y0203137D01*
X0333650Y0203140D01*
X0333510Y0203147D01*
X0333371Y0203158D01*
X0333232Y0203173D01*
X0333093Y0203192D01*
X0332955Y0203214D01*
X0332818Y0203241D01*
X0332681Y0203272D01*
X0332546Y0203306D01*
X0332411Y0203344D01*
X0332278Y0203387D01*
X0332146Y0203432D01*
X0332015Y0203482D01*
X0331885Y0203535D01*
X0331758Y0203592D01*
X0331632Y0203653D01*
X0331507Y0203717D01*
X0331385Y0203785D01*
X0331264Y0203856D01*
X0331146Y0203930D01*
X0331030Y0204008D01*
X0330916Y0204089D01*
X0330804Y0204174D01*
X0330695Y0204261D01*
X0330588Y0204351D01*
X0330484Y0204445D01*
X0330383Y0204541D01*
X0330284Y0204641D01*
X0330188Y0204743D01*
X0330096Y0204847D01*
X0330006Y0204955D01*
X0329919Y0205065D01*
X0329836Y0205177D01*
X0329755Y0205291D01*
X0329678Y0205408D01*
X0329605Y0205527D01*
X0329534Y0205648D01*
X0329468Y0205771D01*
X0329404Y0205896D01*
X0329345Y0206022D01*
X0329289Y0206151D01*
X0329236Y0206280D01*
X0329188Y0206411D01*
X0329143Y0206544D01*
X0329102Y0206678D01*
X0329064Y0206813D01*
X0329031Y0206948D01*
X0329001Y0207085D01*
X0328975Y0207223D01*
X0328954Y0207361D01*
X0328936Y0207500D01*
X0328922Y0207639D01*
X0328912Y0207778D01*
X0328906Y0207918D01*
X0328904Y0208058D01*
X0328904Y0078136D02*
X0328906Y0078276D01*
X0328912Y0078416D01*
X0328922Y0078555D01*
X0328936Y0078694D01*
X0328954Y0078833D01*
X0328975Y0078971D01*
X0329001Y0079109D01*
X0329031Y0079246D01*
X0329064Y0079381D01*
X0329102Y0079516D01*
X0329143Y0079650D01*
X0329188Y0079783D01*
X0329236Y0079914D01*
X0329289Y0080043D01*
X0329345Y0080172D01*
X0329404Y0080298D01*
X0329468Y0080423D01*
X0329534Y0080546D01*
X0329605Y0080667D01*
X0329678Y0080786D01*
X0329755Y0080903D01*
X0329836Y0081017D01*
X0329919Y0081129D01*
X0330006Y0081239D01*
X0330096Y0081347D01*
X0330188Y0081451D01*
X0330284Y0081553D01*
X0330383Y0081653D01*
X0330484Y0081749D01*
X0330588Y0081843D01*
X0330695Y0081933D01*
X0330804Y0082020D01*
X0330916Y0082105D01*
X0331030Y0082186D01*
X0331146Y0082264D01*
X0331264Y0082338D01*
X0331385Y0082409D01*
X0331507Y0082477D01*
X0331632Y0082541D01*
X0331758Y0082602D01*
X0331885Y0082659D01*
X0332015Y0082712D01*
X0332146Y0082762D01*
X0332278Y0082807D01*
X0332411Y0082850D01*
X0332546Y0082888D01*
X0332681Y0082922D01*
X0332818Y0082953D01*
X0332955Y0082980D01*
X0333093Y0083002D01*
X0333232Y0083021D01*
X0333371Y0083036D01*
X0333510Y0083047D01*
X0333650Y0083054D01*
X0333790Y0083057D01*
X0333930Y0083056D01*
X0334070Y0083051D01*
X0334209Y0083042D01*
X0334349Y0083029D01*
X0334488Y0083012D01*
X0334626Y0082991D01*
X0334764Y0082967D01*
X0334901Y0082938D01*
X0335037Y0082906D01*
X0335172Y0082869D01*
X0335306Y0082829D01*
X0335439Y0082785D01*
X0335570Y0082737D01*
X0335700Y0082686D01*
X0335829Y0082631D01*
X0335956Y0082572D01*
X0336081Y0082509D01*
X0336204Y0082444D01*
X0336326Y0082374D01*
X0336445Y0082301D01*
X0336563Y0082225D01*
X0336678Y0082146D01*
X0336791Y0082063D01*
X0336901Y0081977D01*
X0337009Y0081888D01*
X0337114Y0081796D01*
X0337217Y0081701D01*
X0337317Y0081603D01*
X0337414Y0081503D01*
X0337508Y0081399D01*
X0337600Y0081293D01*
X0337688Y0081185D01*
X0337773Y0081074D01*
X0337855Y0080960D01*
X0337934Y0080844D01*
X0338009Y0080727D01*
X0338081Y0080607D01*
X0338149Y0080485D01*
X0338214Y0080361D01*
X0338276Y0080235D01*
X0338334Y0080108D01*
X0338388Y0079979D01*
X0338439Y0079848D01*
X0338485Y0079716D01*
X0338528Y0079583D01*
X0338568Y0079449D01*
X0338603Y0079314D01*
X0338635Y0079177D01*
X0338662Y0079040D01*
X0338686Y0078902D01*
X0338706Y0078764D01*
X0338722Y0078625D01*
X0338734Y0078485D01*
X0338742Y0078346D01*
X0338746Y0078206D01*
X0338746Y0078066D01*
X0338742Y0077926D01*
X0338734Y0077787D01*
X0338722Y0077647D01*
X0338706Y0077508D01*
X0338686Y0077370D01*
X0338662Y0077232D01*
X0338635Y0077095D01*
X0338603Y0076958D01*
X0338568Y0076823D01*
X0338528Y0076689D01*
X0338485Y0076556D01*
X0338439Y0076424D01*
X0338388Y0076293D01*
X0338334Y0076164D01*
X0338276Y0076037D01*
X0338214Y0075911D01*
X0338149Y0075787D01*
X0338081Y0075665D01*
X0338009Y0075545D01*
X0337934Y0075428D01*
X0337855Y0075312D01*
X0337773Y0075198D01*
X0337688Y0075087D01*
X0337600Y0074979D01*
X0337508Y0074873D01*
X0337414Y0074769D01*
X0337317Y0074669D01*
X0337217Y0074571D01*
X0337114Y0074476D01*
X0337009Y0074384D01*
X0336901Y0074295D01*
X0336791Y0074209D01*
X0336678Y0074126D01*
X0336563Y0074047D01*
X0336445Y0073971D01*
X0336326Y0073898D01*
X0336204Y0073828D01*
X0336081Y0073763D01*
X0335956Y0073700D01*
X0335829Y0073641D01*
X0335700Y0073586D01*
X0335570Y0073535D01*
X0335439Y0073487D01*
X0335306Y0073443D01*
X0335172Y0073403D01*
X0335037Y0073366D01*
X0334901Y0073334D01*
X0334764Y0073305D01*
X0334626Y0073281D01*
X0334488Y0073260D01*
X0334349Y0073243D01*
X0334209Y0073230D01*
X0334070Y0073221D01*
X0333930Y0073216D01*
X0333790Y0073215D01*
X0333650Y0073218D01*
X0333510Y0073225D01*
X0333371Y0073236D01*
X0333232Y0073251D01*
X0333093Y0073270D01*
X0332955Y0073292D01*
X0332818Y0073319D01*
X0332681Y0073350D01*
X0332546Y0073384D01*
X0332411Y0073422D01*
X0332278Y0073465D01*
X0332146Y0073510D01*
X0332015Y0073560D01*
X0331885Y0073613D01*
X0331758Y0073670D01*
X0331632Y0073731D01*
X0331507Y0073795D01*
X0331385Y0073863D01*
X0331264Y0073934D01*
X0331146Y0074008D01*
X0331030Y0074086D01*
X0330916Y0074167D01*
X0330804Y0074252D01*
X0330695Y0074339D01*
X0330588Y0074429D01*
X0330484Y0074523D01*
X0330383Y0074619D01*
X0330284Y0074719D01*
X0330188Y0074821D01*
X0330096Y0074925D01*
X0330006Y0075033D01*
X0329919Y0075143D01*
X0329836Y0075255D01*
X0329755Y0075369D01*
X0329678Y0075486D01*
X0329605Y0075605D01*
X0329534Y0075726D01*
X0329468Y0075849D01*
X0329404Y0075974D01*
X0329345Y0076100D01*
X0329289Y0076229D01*
X0329236Y0076358D01*
X0329188Y0076489D01*
X0329143Y0076622D01*
X0329102Y0076756D01*
X0329064Y0076891D01*
X0329031Y0077026D01*
X0329001Y0077163D01*
X0328975Y0077301D01*
X0328954Y0077439D01*
X0328936Y0077578D01*
X0328922Y0077717D01*
X0328912Y0077856D01*
X0328906Y0077996D01*
X0328904Y0078136D01*
D11*
X0311574Y0085829D02*
X0311574Y0091829D01*
X0311572Y0091873D01*
X0311566Y0091916D01*
X0311557Y0091958D01*
X0311544Y0092000D01*
X0311527Y0092040D01*
X0311507Y0092079D01*
X0311484Y0092116D01*
X0311457Y0092150D01*
X0311428Y0092183D01*
X0311395Y0092212D01*
X0311361Y0092239D01*
X0311324Y0092262D01*
X0311285Y0092282D01*
X0311245Y0092299D01*
X0311203Y0092312D01*
X0311161Y0092321D01*
X0311118Y0092327D01*
X0311074Y0092329D01*
X0308574Y0092329D01*
X0308530Y0092327D01*
X0308487Y0092321D01*
X0308445Y0092312D01*
X0308403Y0092299D01*
X0308363Y0092282D01*
X0308324Y0092262D01*
X0308287Y0092239D01*
X0308253Y0092212D01*
X0308220Y0092183D01*
X0308191Y0092150D01*
X0308164Y0092116D01*
X0308141Y0092079D01*
X0308121Y0092040D01*
X0308104Y0092000D01*
X0308091Y0091958D01*
X0308082Y0091916D01*
X0308076Y0091873D01*
X0308074Y0091829D01*
X0308074Y0085829D01*
X0308076Y0085785D01*
X0308082Y0085742D01*
X0308091Y0085700D01*
X0308104Y0085658D01*
X0308121Y0085618D01*
X0308141Y0085579D01*
X0308164Y0085542D01*
X0308191Y0085508D01*
X0308220Y0085475D01*
X0308253Y0085446D01*
X0308287Y0085419D01*
X0308324Y0085396D01*
X0308363Y0085376D01*
X0308403Y0085359D01*
X0308445Y0085346D01*
X0308487Y0085337D01*
X0308530Y0085331D01*
X0308574Y0085329D01*
X0311074Y0085329D01*
X0311118Y0085331D01*
X0311161Y0085337D01*
X0311203Y0085346D01*
X0311245Y0085359D01*
X0311285Y0085376D01*
X0311324Y0085396D01*
X0311361Y0085419D01*
X0311395Y0085446D01*
X0311428Y0085475D01*
X0311457Y0085508D01*
X0311484Y0085542D01*
X0311507Y0085579D01*
X0311527Y0085618D01*
X0311544Y0085658D01*
X0311557Y0085700D01*
X0311566Y0085742D01*
X0311572Y0085785D01*
X0311574Y0085829D01*
X0305574Y0085998D02*
X0305574Y0091829D01*
X0305572Y0091873D01*
X0305566Y0091916D01*
X0305557Y0091958D01*
X0305544Y0092000D01*
X0305527Y0092040D01*
X0305507Y0092079D01*
X0305484Y0092116D01*
X0305457Y0092150D01*
X0305428Y0092183D01*
X0305395Y0092212D01*
X0305361Y0092239D01*
X0305324Y0092262D01*
X0305285Y0092282D01*
X0305245Y0092299D01*
X0305203Y0092312D01*
X0305161Y0092321D01*
X0305118Y0092327D01*
X0305074Y0092329D01*
X0302574Y0092329D01*
X0302530Y0092327D01*
X0302487Y0092321D01*
X0302445Y0092312D01*
X0302403Y0092299D01*
X0302363Y0092282D01*
X0302324Y0092262D01*
X0302287Y0092239D01*
X0302253Y0092212D01*
X0302220Y0092183D01*
X0302191Y0092150D01*
X0302164Y0092116D01*
X0302141Y0092079D01*
X0302121Y0092040D01*
X0302104Y0092000D01*
X0302091Y0091958D01*
X0302082Y0091916D01*
X0302076Y0091873D01*
X0302074Y0091829D01*
X0302074Y0085998D01*
X0302742Y0085329D01*
X0304906Y0085329D01*
X0305574Y0085998D01*
X0298974Y0085829D02*
X0298974Y0091829D01*
X0298972Y0091873D01*
X0298966Y0091916D01*
X0298957Y0091958D01*
X0298944Y0092000D01*
X0298927Y0092040D01*
X0298907Y0092079D01*
X0298884Y0092116D01*
X0298857Y0092150D01*
X0298828Y0092183D01*
X0298795Y0092212D01*
X0298761Y0092239D01*
X0298724Y0092262D01*
X0298685Y0092282D01*
X0298645Y0092299D01*
X0298603Y0092312D01*
X0298561Y0092321D01*
X0298518Y0092327D01*
X0298474Y0092329D01*
X0295974Y0092329D01*
X0295930Y0092327D01*
X0295887Y0092321D01*
X0295845Y0092312D01*
X0295803Y0092299D01*
X0295763Y0092282D01*
X0295724Y0092262D01*
X0295687Y0092239D01*
X0295653Y0092212D01*
X0295620Y0092183D01*
X0295591Y0092150D01*
X0295564Y0092116D01*
X0295541Y0092079D01*
X0295521Y0092040D01*
X0295504Y0092000D01*
X0295491Y0091958D01*
X0295482Y0091916D01*
X0295476Y0091873D01*
X0295474Y0091829D01*
X0295474Y0085829D01*
X0295476Y0085785D01*
X0295482Y0085742D01*
X0295491Y0085700D01*
X0295504Y0085658D01*
X0295521Y0085618D01*
X0295541Y0085579D01*
X0295564Y0085542D01*
X0295591Y0085508D01*
X0295620Y0085475D01*
X0295653Y0085446D01*
X0295687Y0085419D01*
X0295724Y0085396D01*
X0295763Y0085376D01*
X0295803Y0085359D01*
X0295845Y0085346D01*
X0295887Y0085337D01*
X0295930Y0085331D01*
X0295974Y0085329D01*
X0298474Y0085329D01*
X0298518Y0085331D01*
X0298561Y0085337D01*
X0298603Y0085346D01*
X0298645Y0085359D01*
X0298685Y0085376D01*
X0298724Y0085396D01*
X0298761Y0085419D01*
X0298795Y0085446D01*
X0298828Y0085475D01*
X0298857Y0085508D01*
X0298884Y0085542D01*
X0298907Y0085579D01*
X0298927Y0085618D01*
X0298944Y0085658D01*
X0298957Y0085700D01*
X0298966Y0085742D01*
X0298972Y0085785D01*
X0298974Y0085829D01*
X0281402Y0079451D02*
X0281402Y0073451D01*
X0281400Y0073407D01*
X0281394Y0073364D01*
X0281385Y0073322D01*
X0281372Y0073280D01*
X0281355Y0073240D01*
X0281335Y0073201D01*
X0281312Y0073164D01*
X0281285Y0073130D01*
X0281256Y0073097D01*
X0281223Y0073068D01*
X0281189Y0073041D01*
X0281152Y0073018D01*
X0281113Y0072998D01*
X0281073Y0072981D01*
X0281031Y0072968D01*
X0280989Y0072959D01*
X0280946Y0072953D01*
X0280902Y0072951D01*
X0278402Y0072951D01*
X0278358Y0072953D01*
X0278315Y0072959D01*
X0278273Y0072968D01*
X0278231Y0072981D01*
X0278191Y0072998D01*
X0278152Y0073018D01*
X0278115Y0073041D01*
X0278081Y0073068D01*
X0278048Y0073097D01*
X0278019Y0073130D01*
X0277992Y0073164D01*
X0277969Y0073201D01*
X0277949Y0073240D01*
X0277932Y0073280D01*
X0277919Y0073322D01*
X0277910Y0073364D01*
X0277904Y0073407D01*
X0277902Y0073451D01*
X0277902Y0079451D01*
X0277904Y0079495D01*
X0277910Y0079538D01*
X0277919Y0079580D01*
X0277932Y0079622D01*
X0277949Y0079662D01*
X0277969Y0079701D01*
X0277992Y0079738D01*
X0278019Y0079772D01*
X0278048Y0079805D01*
X0278081Y0079834D01*
X0278115Y0079861D01*
X0278152Y0079884D01*
X0278191Y0079904D01*
X0278231Y0079921D01*
X0278273Y0079934D01*
X0278315Y0079943D01*
X0278358Y0079949D01*
X0278402Y0079951D01*
X0280902Y0079951D01*
X0280946Y0079949D01*
X0280989Y0079943D01*
X0281031Y0079934D01*
X0281073Y0079921D01*
X0281113Y0079904D01*
X0281152Y0079884D01*
X0281189Y0079861D01*
X0281223Y0079834D01*
X0281256Y0079805D01*
X0281285Y0079772D01*
X0281312Y0079738D01*
X0281335Y0079701D01*
X0281355Y0079662D01*
X0281372Y0079622D01*
X0281385Y0079580D01*
X0281394Y0079538D01*
X0281400Y0079495D01*
X0281402Y0079451D01*
X0279957Y0058014D02*
X0277457Y0058014D01*
X0277413Y0058012D01*
X0277370Y0058006D01*
X0277328Y0057997D01*
X0277286Y0057984D01*
X0277246Y0057967D01*
X0277207Y0057947D01*
X0277170Y0057924D01*
X0277136Y0057897D01*
X0277103Y0057868D01*
X0277074Y0057835D01*
X0277047Y0057801D01*
X0277024Y0057764D01*
X0277004Y0057725D01*
X0276987Y0057685D01*
X0276974Y0057643D01*
X0276965Y0057601D01*
X0276959Y0057558D01*
X0276957Y0057514D01*
X0276957Y0051683D01*
X0277625Y0051014D01*
X0279789Y0051014D01*
X0280457Y0051683D01*
X0280457Y0057514D01*
X0280455Y0057558D01*
X0280449Y0057601D01*
X0280440Y0057643D01*
X0280427Y0057685D01*
X0280410Y0057725D01*
X0280390Y0057764D01*
X0280367Y0057801D01*
X0280340Y0057835D01*
X0280311Y0057868D01*
X0280278Y0057897D01*
X0280244Y0057924D01*
X0280207Y0057947D01*
X0280168Y0057967D01*
X0280128Y0057984D01*
X0280086Y0057997D01*
X0280044Y0058006D01*
X0280001Y0058012D01*
X0279957Y0058014D01*
X0241087Y0057514D02*
X0241087Y0051683D01*
X0240419Y0051014D01*
X0238255Y0051014D01*
X0237587Y0051683D01*
X0237587Y0057514D01*
X0237589Y0057558D01*
X0237595Y0057601D01*
X0237604Y0057643D01*
X0237617Y0057685D01*
X0237634Y0057725D01*
X0237654Y0057764D01*
X0237677Y0057801D01*
X0237704Y0057835D01*
X0237733Y0057868D01*
X0237766Y0057897D01*
X0237800Y0057924D01*
X0237837Y0057947D01*
X0237876Y0057967D01*
X0237916Y0057984D01*
X0237958Y0057997D01*
X0238000Y0058006D01*
X0238043Y0058012D01*
X0238087Y0058014D01*
X0240587Y0058014D01*
X0240631Y0058012D01*
X0240674Y0058006D01*
X0240716Y0057997D01*
X0240758Y0057984D01*
X0240798Y0057967D01*
X0240837Y0057947D01*
X0240874Y0057924D01*
X0240908Y0057897D01*
X0240941Y0057868D01*
X0240970Y0057835D01*
X0240997Y0057801D01*
X0241020Y0057764D01*
X0241040Y0057725D01*
X0241057Y0057685D01*
X0241070Y0057643D01*
X0241079Y0057601D01*
X0241085Y0057558D01*
X0241087Y0057514D01*
X0240406Y0072351D02*
X0237906Y0072351D01*
X0237862Y0072353D01*
X0237819Y0072359D01*
X0237777Y0072368D01*
X0237735Y0072381D01*
X0237695Y0072398D01*
X0237656Y0072418D01*
X0237619Y0072441D01*
X0237585Y0072468D01*
X0237552Y0072497D01*
X0237523Y0072530D01*
X0237496Y0072564D01*
X0237473Y0072601D01*
X0237453Y0072640D01*
X0237436Y0072680D01*
X0237423Y0072722D01*
X0237414Y0072764D01*
X0237408Y0072807D01*
X0237406Y0072851D01*
X0237406Y0078851D01*
X0237408Y0078895D01*
X0237414Y0078938D01*
X0237423Y0078980D01*
X0237436Y0079022D01*
X0237453Y0079062D01*
X0237473Y0079101D01*
X0237496Y0079138D01*
X0237523Y0079172D01*
X0237552Y0079205D01*
X0237585Y0079234D01*
X0237619Y0079261D01*
X0237656Y0079284D01*
X0237695Y0079304D01*
X0237735Y0079321D01*
X0237777Y0079334D01*
X0237819Y0079343D01*
X0237862Y0079349D01*
X0237906Y0079351D01*
X0240406Y0079351D01*
X0240450Y0079349D01*
X0240493Y0079343D01*
X0240535Y0079334D01*
X0240577Y0079321D01*
X0240617Y0079304D01*
X0240656Y0079284D01*
X0240693Y0079261D01*
X0240727Y0079234D01*
X0240760Y0079205D01*
X0240789Y0079172D01*
X0240816Y0079138D01*
X0240839Y0079101D01*
X0240859Y0079062D01*
X0240876Y0079022D01*
X0240889Y0078980D01*
X0240898Y0078938D01*
X0240904Y0078895D01*
X0240906Y0078851D01*
X0240906Y0072851D01*
X0240904Y0072807D01*
X0240898Y0072764D01*
X0240889Y0072722D01*
X0240876Y0072680D01*
X0240859Y0072640D01*
X0240839Y0072601D01*
X0240816Y0072564D01*
X0240789Y0072530D01*
X0240760Y0072497D01*
X0240727Y0072468D01*
X0240693Y0072441D01*
X0240656Y0072418D01*
X0240617Y0072398D01*
X0240577Y0072381D01*
X0240535Y0072368D01*
X0240493Y0072359D01*
X0240450Y0072353D01*
X0240406Y0072351D01*
X0222477Y0089597D02*
X0219977Y0089597D01*
X0219933Y0089599D01*
X0219890Y0089605D01*
X0219848Y0089614D01*
X0219806Y0089627D01*
X0219766Y0089644D01*
X0219727Y0089664D01*
X0219690Y0089687D01*
X0219656Y0089714D01*
X0219623Y0089743D01*
X0219594Y0089776D01*
X0219567Y0089810D01*
X0219544Y0089847D01*
X0219524Y0089886D01*
X0219507Y0089926D01*
X0219494Y0089968D01*
X0219485Y0090010D01*
X0219479Y0090053D01*
X0219477Y0090097D01*
X0219477Y0096097D01*
X0219479Y0096141D01*
X0219485Y0096184D01*
X0219494Y0096226D01*
X0219507Y0096268D01*
X0219524Y0096308D01*
X0219544Y0096347D01*
X0219567Y0096384D01*
X0219594Y0096418D01*
X0219623Y0096451D01*
X0219656Y0096480D01*
X0219690Y0096507D01*
X0219727Y0096530D01*
X0219766Y0096550D01*
X0219806Y0096567D01*
X0219848Y0096580D01*
X0219890Y0096589D01*
X0219933Y0096595D01*
X0219977Y0096597D01*
X0222477Y0096597D01*
X0222521Y0096595D01*
X0222564Y0096589D01*
X0222606Y0096580D01*
X0222648Y0096567D01*
X0222688Y0096550D01*
X0222727Y0096530D01*
X0222764Y0096507D01*
X0222798Y0096480D01*
X0222831Y0096451D01*
X0222860Y0096418D01*
X0222887Y0096384D01*
X0222910Y0096347D01*
X0222930Y0096308D01*
X0222947Y0096268D01*
X0222960Y0096226D01*
X0222969Y0096184D01*
X0222975Y0096141D01*
X0222977Y0096097D01*
X0222977Y0090097D01*
X0222975Y0090053D01*
X0222969Y0090010D01*
X0222960Y0089968D01*
X0222947Y0089926D01*
X0222930Y0089886D01*
X0222910Y0089847D01*
X0222887Y0089810D01*
X0222860Y0089776D01*
X0222831Y0089743D01*
X0222798Y0089714D01*
X0222764Y0089687D01*
X0222727Y0089664D01*
X0222688Y0089644D01*
X0222648Y0089627D01*
X0222606Y0089614D01*
X0222564Y0089605D01*
X0222521Y0089599D01*
X0222477Y0089597D01*
X0218646Y0090097D02*
X0218646Y0096097D01*
X0218644Y0096141D01*
X0218638Y0096184D01*
X0218629Y0096226D01*
X0218616Y0096268D01*
X0218599Y0096308D01*
X0218579Y0096347D01*
X0218556Y0096384D01*
X0218529Y0096418D01*
X0218500Y0096451D01*
X0218467Y0096480D01*
X0218433Y0096507D01*
X0218396Y0096530D01*
X0218357Y0096550D01*
X0218317Y0096567D01*
X0218275Y0096580D01*
X0218233Y0096589D01*
X0218190Y0096595D01*
X0218146Y0096597D01*
X0215646Y0096597D01*
X0215602Y0096595D01*
X0215559Y0096589D01*
X0215517Y0096580D01*
X0215475Y0096567D01*
X0215435Y0096550D01*
X0215396Y0096530D01*
X0215359Y0096507D01*
X0215325Y0096480D01*
X0215292Y0096451D01*
X0215263Y0096418D01*
X0215236Y0096384D01*
X0215213Y0096347D01*
X0215193Y0096308D01*
X0215176Y0096268D01*
X0215163Y0096226D01*
X0215154Y0096184D01*
X0215148Y0096141D01*
X0215146Y0096097D01*
X0215146Y0090097D01*
X0215148Y0090053D01*
X0215154Y0090010D01*
X0215163Y0089968D01*
X0215176Y0089926D01*
X0215193Y0089886D01*
X0215213Y0089847D01*
X0215236Y0089810D01*
X0215263Y0089776D01*
X0215292Y0089743D01*
X0215325Y0089714D01*
X0215359Y0089687D01*
X0215396Y0089664D01*
X0215435Y0089644D01*
X0215475Y0089627D01*
X0215517Y0089614D01*
X0215559Y0089605D01*
X0215602Y0089599D01*
X0215646Y0089597D01*
X0218146Y0089597D01*
X0218190Y0089599D01*
X0218233Y0089605D01*
X0218275Y0089614D01*
X0218317Y0089627D01*
X0218357Y0089644D01*
X0218396Y0089664D01*
X0218433Y0089687D01*
X0218467Y0089714D01*
X0218500Y0089743D01*
X0218529Y0089776D01*
X0218556Y0089810D01*
X0218579Y0089847D01*
X0218599Y0089886D01*
X0218616Y0089926D01*
X0218629Y0089968D01*
X0218638Y0090010D01*
X0218644Y0090053D01*
X0218646Y0090097D01*
X0214316Y0090097D02*
X0214316Y0096097D01*
X0214314Y0096141D01*
X0214308Y0096184D01*
X0214299Y0096226D01*
X0214286Y0096268D01*
X0214269Y0096308D01*
X0214249Y0096347D01*
X0214226Y0096384D01*
X0214199Y0096418D01*
X0214170Y0096451D01*
X0214137Y0096480D01*
X0214103Y0096507D01*
X0214066Y0096530D01*
X0214027Y0096550D01*
X0213987Y0096567D01*
X0213945Y0096580D01*
X0213903Y0096589D01*
X0213860Y0096595D01*
X0213816Y0096597D01*
X0211316Y0096597D01*
X0211272Y0096595D01*
X0211229Y0096589D01*
X0211187Y0096580D01*
X0211145Y0096567D01*
X0211105Y0096550D01*
X0211066Y0096530D01*
X0211029Y0096507D01*
X0210995Y0096480D01*
X0210962Y0096451D01*
X0210933Y0096418D01*
X0210906Y0096384D01*
X0210883Y0096347D01*
X0210863Y0096308D01*
X0210846Y0096268D01*
X0210833Y0096226D01*
X0210824Y0096184D01*
X0210818Y0096141D01*
X0210816Y0096097D01*
X0210816Y0090097D01*
X0210818Y0090053D01*
X0210824Y0090010D01*
X0210833Y0089968D01*
X0210846Y0089926D01*
X0210863Y0089886D01*
X0210883Y0089847D01*
X0210906Y0089810D01*
X0210933Y0089776D01*
X0210962Y0089743D01*
X0210995Y0089714D01*
X0211029Y0089687D01*
X0211066Y0089664D01*
X0211105Y0089644D01*
X0211145Y0089627D01*
X0211187Y0089614D01*
X0211229Y0089605D01*
X0211272Y0089599D01*
X0211316Y0089597D01*
X0213816Y0089597D01*
X0213860Y0089599D01*
X0213903Y0089605D01*
X0213945Y0089614D01*
X0213987Y0089627D01*
X0214027Y0089644D01*
X0214066Y0089664D01*
X0214103Y0089687D01*
X0214137Y0089714D01*
X0214170Y0089743D01*
X0214199Y0089776D01*
X0214226Y0089810D01*
X0214249Y0089847D01*
X0214269Y0089886D01*
X0214286Y0089926D01*
X0214299Y0089968D01*
X0214308Y0090010D01*
X0214314Y0090053D01*
X0214316Y0090097D01*
X0209985Y0090097D02*
X0209985Y0096097D01*
X0209983Y0096141D01*
X0209977Y0096184D01*
X0209968Y0096226D01*
X0209955Y0096268D01*
X0209938Y0096308D01*
X0209918Y0096347D01*
X0209895Y0096384D01*
X0209868Y0096418D01*
X0209839Y0096451D01*
X0209806Y0096480D01*
X0209772Y0096507D01*
X0209735Y0096530D01*
X0209696Y0096550D01*
X0209656Y0096567D01*
X0209614Y0096580D01*
X0209572Y0096589D01*
X0209529Y0096595D01*
X0209485Y0096597D01*
X0206985Y0096597D01*
X0206941Y0096595D01*
X0206898Y0096589D01*
X0206856Y0096580D01*
X0206814Y0096567D01*
X0206774Y0096550D01*
X0206735Y0096530D01*
X0206698Y0096507D01*
X0206664Y0096480D01*
X0206631Y0096451D01*
X0206602Y0096418D01*
X0206575Y0096384D01*
X0206552Y0096347D01*
X0206532Y0096308D01*
X0206515Y0096268D01*
X0206502Y0096226D01*
X0206493Y0096184D01*
X0206487Y0096141D01*
X0206485Y0096097D01*
X0206485Y0090097D01*
X0206487Y0090053D01*
X0206493Y0090010D01*
X0206502Y0089968D01*
X0206515Y0089926D01*
X0206532Y0089886D01*
X0206552Y0089847D01*
X0206575Y0089810D01*
X0206602Y0089776D01*
X0206631Y0089743D01*
X0206664Y0089714D01*
X0206698Y0089687D01*
X0206735Y0089664D01*
X0206774Y0089644D01*
X0206814Y0089627D01*
X0206856Y0089614D01*
X0206898Y0089605D01*
X0206941Y0089599D01*
X0206985Y0089597D01*
X0209485Y0089597D01*
X0209529Y0089599D01*
X0209572Y0089605D01*
X0209614Y0089614D01*
X0209656Y0089627D01*
X0209696Y0089644D01*
X0209735Y0089664D01*
X0209772Y0089687D01*
X0209806Y0089714D01*
X0209839Y0089743D01*
X0209868Y0089776D01*
X0209895Y0089810D01*
X0209918Y0089847D01*
X0209938Y0089886D01*
X0209955Y0089926D01*
X0209968Y0089968D01*
X0209977Y0090010D01*
X0209983Y0090053D01*
X0209985Y0090097D01*
X0205654Y0090097D02*
X0205654Y0096097D01*
X0205652Y0096141D01*
X0205646Y0096184D01*
X0205637Y0096226D01*
X0205624Y0096268D01*
X0205607Y0096308D01*
X0205587Y0096347D01*
X0205564Y0096384D01*
X0205537Y0096418D01*
X0205508Y0096451D01*
X0205475Y0096480D01*
X0205441Y0096507D01*
X0205404Y0096530D01*
X0205365Y0096550D01*
X0205325Y0096567D01*
X0205283Y0096580D01*
X0205241Y0096589D01*
X0205198Y0096595D01*
X0205154Y0096597D01*
X0202654Y0096597D01*
X0202610Y0096595D01*
X0202567Y0096589D01*
X0202525Y0096580D01*
X0202483Y0096567D01*
X0202443Y0096550D01*
X0202404Y0096530D01*
X0202367Y0096507D01*
X0202333Y0096480D01*
X0202300Y0096451D01*
X0202271Y0096418D01*
X0202244Y0096384D01*
X0202221Y0096347D01*
X0202201Y0096308D01*
X0202184Y0096268D01*
X0202171Y0096226D01*
X0202162Y0096184D01*
X0202156Y0096141D01*
X0202154Y0096097D01*
X0202154Y0090097D01*
X0202156Y0090053D01*
X0202162Y0090010D01*
X0202171Y0089968D01*
X0202184Y0089926D01*
X0202201Y0089886D01*
X0202221Y0089847D01*
X0202244Y0089810D01*
X0202271Y0089776D01*
X0202300Y0089743D01*
X0202333Y0089714D01*
X0202367Y0089687D01*
X0202404Y0089664D01*
X0202443Y0089644D01*
X0202483Y0089627D01*
X0202525Y0089614D01*
X0202567Y0089605D01*
X0202610Y0089599D01*
X0202654Y0089597D01*
X0205154Y0089597D01*
X0205198Y0089599D01*
X0205241Y0089605D01*
X0205283Y0089614D01*
X0205325Y0089627D01*
X0205365Y0089644D01*
X0205404Y0089664D01*
X0205441Y0089687D01*
X0205475Y0089714D01*
X0205508Y0089743D01*
X0205537Y0089776D01*
X0205564Y0089810D01*
X0205587Y0089847D01*
X0205607Y0089886D01*
X0205624Y0089926D01*
X0205637Y0089968D01*
X0205646Y0090010D01*
X0205652Y0090053D01*
X0205654Y0090097D01*
X0196036Y0093373D02*
X0196036Y0095873D01*
X0196034Y0095917D01*
X0196028Y0095960D01*
X0196019Y0096002D01*
X0196006Y0096044D01*
X0195989Y0096084D01*
X0195969Y0096123D01*
X0195946Y0096160D01*
X0195919Y0096194D01*
X0195890Y0096227D01*
X0195857Y0096256D01*
X0195823Y0096283D01*
X0195786Y0096306D01*
X0195747Y0096326D01*
X0195707Y0096343D01*
X0195665Y0096356D01*
X0195623Y0096365D01*
X0195580Y0096371D01*
X0195536Y0096373D01*
X0189536Y0096373D01*
X0189492Y0096371D01*
X0189449Y0096365D01*
X0189407Y0096356D01*
X0189365Y0096343D01*
X0189325Y0096326D01*
X0189286Y0096306D01*
X0189249Y0096283D01*
X0189215Y0096256D01*
X0189182Y0096227D01*
X0189153Y0096194D01*
X0189126Y0096160D01*
X0189103Y0096123D01*
X0189083Y0096084D01*
X0189066Y0096044D01*
X0189053Y0096002D01*
X0189044Y0095960D01*
X0189038Y0095917D01*
X0189036Y0095873D01*
X0189036Y0093373D01*
X0189038Y0093329D01*
X0189044Y0093286D01*
X0189053Y0093244D01*
X0189066Y0093202D01*
X0189083Y0093162D01*
X0189103Y0093123D01*
X0189126Y0093086D01*
X0189153Y0093052D01*
X0189182Y0093019D01*
X0189215Y0092990D01*
X0189249Y0092963D01*
X0189286Y0092940D01*
X0189325Y0092920D01*
X0189365Y0092903D01*
X0189407Y0092890D01*
X0189449Y0092881D01*
X0189492Y0092875D01*
X0189536Y0092873D01*
X0195536Y0092873D01*
X0195580Y0092875D01*
X0195623Y0092881D01*
X0195665Y0092890D01*
X0195707Y0092903D01*
X0195747Y0092920D01*
X0195786Y0092940D01*
X0195823Y0092963D01*
X0195857Y0092990D01*
X0195890Y0093019D01*
X0195919Y0093052D01*
X0195946Y0093086D01*
X0195969Y0093123D01*
X0195989Y0093162D01*
X0196006Y0093202D01*
X0196019Y0093244D01*
X0196028Y0093286D01*
X0196034Y0093329D01*
X0196036Y0093373D01*
X0180792Y0093502D02*
X0180792Y0096002D01*
X0180790Y0096046D01*
X0180784Y0096089D01*
X0180775Y0096131D01*
X0180762Y0096173D01*
X0180745Y0096213D01*
X0180725Y0096252D01*
X0180702Y0096289D01*
X0180675Y0096323D01*
X0180646Y0096356D01*
X0180613Y0096385D01*
X0180579Y0096412D01*
X0180542Y0096435D01*
X0180503Y0096455D01*
X0180463Y0096472D01*
X0180421Y0096485D01*
X0180379Y0096494D01*
X0180336Y0096500D01*
X0180292Y0096502D01*
X0174292Y0096502D01*
X0174248Y0096500D01*
X0174205Y0096494D01*
X0174163Y0096485D01*
X0174121Y0096472D01*
X0174081Y0096455D01*
X0174042Y0096435D01*
X0174005Y0096412D01*
X0173971Y0096385D01*
X0173938Y0096356D01*
X0173909Y0096323D01*
X0173882Y0096289D01*
X0173859Y0096252D01*
X0173839Y0096213D01*
X0173822Y0096173D01*
X0173809Y0096131D01*
X0173800Y0096089D01*
X0173794Y0096046D01*
X0173792Y0096002D01*
X0173792Y0093502D01*
X0173794Y0093458D01*
X0173800Y0093415D01*
X0173809Y0093373D01*
X0173822Y0093331D01*
X0173839Y0093291D01*
X0173859Y0093252D01*
X0173882Y0093215D01*
X0173909Y0093181D01*
X0173938Y0093148D01*
X0173971Y0093119D01*
X0174005Y0093092D01*
X0174042Y0093069D01*
X0174081Y0093049D01*
X0174121Y0093032D01*
X0174163Y0093019D01*
X0174205Y0093010D01*
X0174248Y0093004D01*
X0174292Y0093002D01*
X0180292Y0093002D01*
X0180336Y0093004D01*
X0180379Y0093010D01*
X0180421Y0093019D01*
X0180463Y0093032D01*
X0180503Y0093049D01*
X0180542Y0093069D01*
X0180579Y0093092D01*
X0180613Y0093119D01*
X0180646Y0093148D01*
X0180675Y0093181D01*
X0180702Y0093215D01*
X0180725Y0093252D01*
X0180745Y0093291D01*
X0180762Y0093331D01*
X0180775Y0093373D01*
X0180784Y0093415D01*
X0180790Y0093458D01*
X0180792Y0093502D01*
X0181546Y0082947D02*
X0179046Y0082947D01*
X0179002Y0082945D01*
X0178959Y0082939D01*
X0178917Y0082930D01*
X0178875Y0082917D01*
X0178835Y0082900D01*
X0178796Y0082880D01*
X0178759Y0082857D01*
X0178725Y0082830D01*
X0178692Y0082801D01*
X0178663Y0082768D01*
X0178636Y0082734D01*
X0178613Y0082697D01*
X0178593Y0082658D01*
X0178576Y0082618D01*
X0178563Y0082576D01*
X0178554Y0082534D01*
X0178548Y0082491D01*
X0178546Y0082447D01*
X0178546Y0076447D01*
X0178548Y0076403D01*
X0178554Y0076360D01*
X0178563Y0076318D01*
X0178576Y0076276D01*
X0178593Y0076236D01*
X0178613Y0076197D01*
X0178636Y0076160D01*
X0178663Y0076126D01*
X0178692Y0076093D01*
X0178725Y0076064D01*
X0178759Y0076037D01*
X0178796Y0076014D01*
X0178835Y0075994D01*
X0178875Y0075977D01*
X0178917Y0075964D01*
X0178959Y0075955D01*
X0179002Y0075949D01*
X0179046Y0075947D01*
X0181546Y0075947D01*
X0181590Y0075949D01*
X0181633Y0075955D01*
X0181675Y0075964D01*
X0181717Y0075977D01*
X0181757Y0075994D01*
X0181796Y0076014D01*
X0181833Y0076037D01*
X0181867Y0076064D01*
X0181900Y0076093D01*
X0181929Y0076126D01*
X0181956Y0076160D01*
X0181979Y0076197D01*
X0181999Y0076236D01*
X0182016Y0076276D01*
X0182029Y0076318D01*
X0182038Y0076360D01*
X0182044Y0076403D01*
X0182046Y0076447D01*
X0182046Y0082447D01*
X0182044Y0082491D01*
X0182038Y0082534D01*
X0182029Y0082576D01*
X0182016Y0082618D01*
X0181999Y0082658D01*
X0181979Y0082697D01*
X0181956Y0082734D01*
X0181929Y0082768D01*
X0181900Y0082801D01*
X0181867Y0082830D01*
X0181833Y0082857D01*
X0181796Y0082880D01*
X0181757Y0082900D01*
X0181717Y0082917D01*
X0181675Y0082930D01*
X0181633Y0082939D01*
X0181590Y0082945D01*
X0181546Y0082947D01*
X0187007Y0070349D02*
X0193007Y0070349D01*
X0193051Y0070347D01*
X0193094Y0070341D01*
X0193136Y0070332D01*
X0193178Y0070319D01*
X0193218Y0070302D01*
X0193257Y0070282D01*
X0193294Y0070259D01*
X0193328Y0070232D01*
X0193361Y0070203D01*
X0193390Y0070170D01*
X0193417Y0070136D01*
X0193440Y0070099D01*
X0193460Y0070060D01*
X0193477Y0070020D01*
X0193490Y0069978D01*
X0193499Y0069936D01*
X0193505Y0069893D01*
X0193507Y0069849D01*
X0193507Y0067349D01*
X0193505Y0067305D01*
X0193499Y0067262D01*
X0193490Y0067220D01*
X0193477Y0067178D01*
X0193460Y0067138D01*
X0193440Y0067099D01*
X0193417Y0067062D01*
X0193390Y0067028D01*
X0193361Y0066995D01*
X0193328Y0066966D01*
X0193294Y0066939D01*
X0193257Y0066916D01*
X0193218Y0066896D01*
X0193178Y0066879D01*
X0193136Y0066866D01*
X0193094Y0066857D01*
X0193051Y0066851D01*
X0193007Y0066849D01*
X0187007Y0066849D01*
X0186963Y0066851D01*
X0186920Y0066857D01*
X0186878Y0066866D01*
X0186836Y0066879D01*
X0186796Y0066896D01*
X0186757Y0066916D01*
X0186720Y0066939D01*
X0186686Y0066966D01*
X0186653Y0066995D01*
X0186624Y0067028D01*
X0186597Y0067062D01*
X0186574Y0067099D01*
X0186554Y0067138D01*
X0186537Y0067178D01*
X0186524Y0067220D01*
X0186515Y0067262D01*
X0186509Y0067305D01*
X0186507Y0067349D01*
X0186507Y0069849D01*
X0186509Y0069893D01*
X0186515Y0069936D01*
X0186524Y0069978D01*
X0186537Y0070020D01*
X0186554Y0070060D01*
X0186574Y0070099D01*
X0186597Y0070136D01*
X0186624Y0070170D01*
X0186653Y0070203D01*
X0186686Y0070232D01*
X0186720Y0070259D01*
X0186757Y0070282D01*
X0186796Y0070302D01*
X0186836Y0070319D01*
X0186878Y0070332D01*
X0186920Y0070341D01*
X0186963Y0070347D01*
X0187007Y0070349D01*
X0198717Y0058014D02*
X0201217Y0058014D01*
X0201261Y0058012D01*
X0201304Y0058006D01*
X0201346Y0057997D01*
X0201388Y0057984D01*
X0201428Y0057967D01*
X0201467Y0057947D01*
X0201504Y0057924D01*
X0201538Y0057897D01*
X0201571Y0057868D01*
X0201600Y0057835D01*
X0201627Y0057801D01*
X0201650Y0057764D01*
X0201670Y0057725D01*
X0201687Y0057685D01*
X0201700Y0057643D01*
X0201709Y0057601D01*
X0201715Y0057558D01*
X0201717Y0057514D01*
X0201717Y0051683D01*
X0201049Y0051014D01*
X0198885Y0051014D01*
X0198217Y0051683D01*
X0198217Y0057514D01*
X0198219Y0057558D01*
X0198225Y0057601D01*
X0198234Y0057643D01*
X0198247Y0057685D01*
X0198264Y0057725D01*
X0198284Y0057764D01*
X0198307Y0057801D01*
X0198334Y0057835D01*
X0198363Y0057868D01*
X0198396Y0057897D01*
X0198430Y0057924D01*
X0198467Y0057947D01*
X0198506Y0057967D01*
X0198546Y0057984D01*
X0198588Y0057997D01*
X0198630Y0058006D01*
X0198673Y0058012D01*
X0198717Y0058014D01*
X0206517Y0073214D02*
X0209017Y0073214D01*
X0209061Y0073216D01*
X0209104Y0073222D01*
X0209146Y0073231D01*
X0209188Y0073244D01*
X0209228Y0073261D01*
X0209267Y0073281D01*
X0209304Y0073304D01*
X0209338Y0073331D01*
X0209371Y0073360D01*
X0209400Y0073393D01*
X0209427Y0073427D01*
X0209450Y0073464D01*
X0209470Y0073503D01*
X0209487Y0073543D01*
X0209500Y0073585D01*
X0209509Y0073627D01*
X0209515Y0073670D01*
X0209517Y0073714D01*
X0209517Y0079714D01*
X0209515Y0079758D01*
X0209509Y0079801D01*
X0209500Y0079843D01*
X0209487Y0079885D01*
X0209470Y0079925D01*
X0209450Y0079964D01*
X0209427Y0080001D01*
X0209400Y0080035D01*
X0209371Y0080068D01*
X0209338Y0080097D01*
X0209304Y0080124D01*
X0209267Y0080147D01*
X0209228Y0080167D01*
X0209188Y0080184D01*
X0209146Y0080197D01*
X0209104Y0080206D01*
X0209061Y0080212D01*
X0209017Y0080214D01*
X0206517Y0080214D01*
X0206473Y0080212D01*
X0206430Y0080206D01*
X0206388Y0080197D01*
X0206346Y0080184D01*
X0206306Y0080167D01*
X0206267Y0080147D01*
X0206230Y0080124D01*
X0206196Y0080097D01*
X0206163Y0080068D01*
X0206134Y0080035D01*
X0206107Y0080001D01*
X0206084Y0079964D01*
X0206064Y0079925D01*
X0206047Y0079885D01*
X0206034Y0079843D01*
X0206025Y0079801D01*
X0206019Y0079758D01*
X0206017Y0079714D01*
X0206017Y0073714D01*
X0206019Y0073670D01*
X0206025Y0073627D01*
X0206034Y0073585D01*
X0206047Y0073543D01*
X0206064Y0073503D01*
X0206084Y0073464D01*
X0206107Y0073427D01*
X0206134Y0073393D01*
X0206163Y0073360D01*
X0206196Y0073331D01*
X0206230Y0073304D01*
X0206267Y0073281D01*
X0206306Y0073261D01*
X0206346Y0073244D01*
X0206388Y0073231D01*
X0206430Y0073222D01*
X0206473Y0073216D01*
X0206517Y0073214D01*
X0162347Y0057514D02*
X0162347Y0051683D01*
X0161679Y0051014D01*
X0159515Y0051014D01*
X0158847Y0051683D01*
X0158847Y0057514D01*
X0158849Y0057558D01*
X0158855Y0057601D01*
X0158864Y0057643D01*
X0158877Y0057685D01*
X0158894Y0057725D01*
X0158914Y0057764D01*
X0158937Y0057801D01*
X0158964Y0057835D01*
X0158993Y0057868D01*
X0159026Y0057897D01*
X0159060Y0057924D01*
X0159097Y0057947D01*
X0159136Y0057967D01*
X0159176Y0057984D01*
X0159218Y0057997D01*
X0159260Y0058006D01*
X0159303Y0058012D01*
X0159347Y0058014D01*
X0161847Y0058014D01*
X0161891Y0058012D01*
X0161934Y0058006D01*
X0161976Y0057997D01*
X0162018Y0057984D01*
X0162058Y0057967D01*
X0162097Y0057947D01*
X0162134Y0057924D01*
X0162168Y0057897D01*
X0162201Y0057868D01*
X0162230Y0057835D01*
X0162257Y0057801D01*
X0162280Y0057764D01*
X0162300Y0057725D01*
X0162317Y0057685D01*
X0162330Y0057643D01*
X0162339Y0057601D01*
X0162345Y0057558D01*
X0162347Y0057514D01*
X0144914Y0075251D02*
X0144914Y0081251D01*
X0144912Y0081295D01*
X0144906Y0081338D01*
X0144897Y0081380D01*
X0144884Y0081422D01*
X0144867Y0081462D01*
X0144847Y0081501D01*
X0144824Y0081538D01*
X0144797Y0081572D01*
X0144768Y0081605D01*
X0144735Y0081634D01*
X0144701Y0081661D01*
X0144664Y0081684D01*
X0144625Y0081704D01*
X0144585Y0081721D01*
X0144543Y0081734D01*
X0144501Y0081743D01*
X0144458Y0081749D01*
X0144414Y0081751D01*
X0141914Y0081751D01*
X0141870Y0081749D01*
X0141827Y0081743D01*
X0141785Y0081734D01*
X0141743Y0081721D01*
X0141703Y0081704D01*
X0141664Y0081684D01*
X0141627Y0081661D01*
X0141593Y0081634D01*
X0141560Y0081605D01*
X0141531Y0081572D01*
X0141504Y0081538D01*
X0141481Y0081501D01*
X0141461Y0081462D01*
X0141444Y0081422D01*
X0141431Y0081380D01*
X0141422Y0081338D01*
X0141416Y0081295D01*
X0141414Y0081251D01*
X0141414Y0075251D01*
X0141416Y0075207D01*
X0141422Y0075164D01*
X0141431Y0075122D01*
X0141444Y0075080D01*
X0141461Y0075040D01*
X0141481Y0075001D01*
X0141504Y0074964D01*
X0141531Y0074930D01*
X0141560Y0074897D01*
X0141593Y0074868D01*
X0141627Y0074841D01*
X0141664Y0074818D01*
X0141703Y0074798D01*
X0141743Y0074781D01*
X0141785Y0074768D01*
X0141827Y0074759D01*
X0141870Y0074753D01*
X0141914Y0074751D01*
X0144414Y0074751D01*
X0144458Y0074753D01*
X0144501Y0074759D01*
X0144543Y0074768D01*
X0144585Y0074781D01*
X0144625Y0074798D01*
X0144664Y0074818D01*
X0144701Y0074841D01*
X0144735Y0074868D01*
X0144768Y0074897D01*
X0144797Y0074930D01*
X0144824Y0074964D01*
X0144847Y0075001D01*
X0144867Y0075040D01*
X0144884Y0075080D01*
X0144897Y0075122D01*
X0144906Y0075164D01*
X0144912Y0075207D01*
X0144914Y0075251D01*
X0123018Y0075251D02*
X0123018Y0081251D01*
X0123016Y0081295D01*
X0123010Y0081338D01*
X0123001Y0081380D01*
X0122988Y0081422D01*
X0122971Y0081462D01*
X0122951Y0081501D01*
X0122928Y0081538D01*
X0122901Y0081572D01*
X0122872Y0081605D01*
X0122839Y0081634D01*
X0122805Y0081661D01*
X0122768Y0081684D01*
X0122729Y0081704D01*
X0122689Y0081721D01*
X0122647Y0081734D01*
X0122605Y0081743D01*
X0122562Y0081749D01*
X0122518Y0081751D01*
X0120018Y0081751D01*
X0119974Y0081749D01*
X0119931Y0081743D01*
X0119889Y0081734D01*
X0119847Y0081721D01*
X0119807Y0081704D01*
X0119768Y0081684D01*
X0119731Y0081661D01*
X0119697Y0081634D01*
X0119664Y0081605D01*
X0119635Y0081572D01*
X0119608Y0081538D01*
X0119585Y0081501D01*
X0119565Y0081462D01*
X0119548Y0081422D01*
X0119535Y0081380D01*
X0119526Y0081338D01*
X0119520Y0081295D01*
X0119518Y0081251D01*
X0119518Y0075251D01*
X0119520Y0075207D01*
X0119526Y0075164D01*
X0119535Y0075122D01*
X0119548Y0075080D01*
X0119565Y0075040D01*
X0119585Y0075001D01*
X0119608Y0074964D01*
X0119635Y0074930D01*
X0119664Y0074897D01*
X0119697Y0074868D01*
X0119731Y0074841D01*
X0119768Y0074818D01*
X0119807Y0074798D01*
X0119847Y0074781D01*
X0119889Y0074768D01*
X0119931Y0074759D01*
X0119974Y0074753D01*
X0120018Y0074751D01*
X0122518Y0074751D01*
X0122562Y0074753D01*
X0122605Y0074759D01*
X0122647Y0074768D01*
X0122689Y0074781D01*
X0122729Y0074798D01*
X0122768Y0074818D01*
X0122805Y0074841D01*
X0122839Y0074868D01*
X0122872Y0074897D01*
X0122901Y0074930D01*
X0122928Y0074964D01*
X0122951Y0075001D01*
X0122971Y0075040D01*
X0122988Y0075080D01*
X0123001Y0075122D01*
X0123010Y0075164D01*
X0123016Y0075207D01*
X0123018Y0075251D01*
X0122477Y0058014D02*
X0119977Y0058014D01*
X0119933Y0058012D01*
X0119890Y0058006D01*
X0119848Y0057997D01*
X0119806Y0057984D01*
X0119766Y0057967D01*
X0119727Y0057947D01*
X0119690Y0057924D01*
X0119656Y0057897D01*
X0119623Y0057868D01*
X0119594Y0057835D01*
X0119567Y0057801D01*
X0119544Y0057764D01*
X0119524Y0057725D01*
X0119507Y0057685D01*
X0119494Y0057643D01*
X0119485Y0057601D01*
X0119479Y0057558D01*
X0119477Y0057514D01*
X0119477Y0051683D01*
X0120145Y0051014D01*
X0122309Y0051014D01*
X0122977Y0051683D01*
X0122977Y0057514D01*
X0122975Y0057558D01*
X0122969Y0057601D01*
X0122960Y0057643D01*
X0122947Y0057685D01*
X0122930Y0057725D01*
X0122910Y0057764D01*
X0122887Y0057801D01*
X0122860Y0057835D01*
X0122831Y0057868D01*
X0122798Y0057897D01*
X0122764Y0057924D01*
X0122727Y0057947D01*
X0122688Y0057967D01*
X0122648Y0057984D01*
X0122606Y0057997D01*
X0122564Y0058006D01*
X0122521Y0058012D01*
X0122477Y0058014D01*
X0093793Y0084285D02*
X0093793Y0086785D01*
X0093791Y0086829D01*
X0093785Y0086872D01*
X0093776Y0086914D01*
X0093763Y0086956D01*
X0093746Y0086996D01*
X0093726Y0087035D01*
X0093703Y0087072D01*
X0093676Y0087106D01*
X0093647Y0087139D01*
X0093614Y0087168D01*
X0093580Y0087195D01*
X0093543Y0087218D01*
X0093504Y0087238D01*
X0093464Y0087255D01*
X0093422Y0087268D01*
X0093380Y0087277D01*
X0093337Y0087283D01*
X0093293Y0087285D01*
X0087293Y0087285D01*
X0087249Y0087283D01*
X0087206Y0087277D01*
X0087164Y0087268D01*
X0087122Y0087255D01*
X0087082Y0087238D01*
X0087043Y0087218D01*
X0087006Y0087195D01*
X0086972Y0087168D01*
X0086939Y0087139D01*
X0086910Y0087106D01*
X0086883Y0087072D01*
X0086860Y0087035D01*
X0086840Y0086996D01*
X0086823Y0086956D01*
X0086810Y0086914D01*
X0086801Y0086872D01*
X0086795Y0086829D01*
X0086793Y0086785D01*
X0086793Y0084285D01*
X0086795Y0084241D01*
X0086801Y0084198D01*
X0086810Y0084156D01*
X0086823Y0084114D01*
X0086840Y0084074D01*
X0086860Y0084035D01*
X0086883Y0083998D01*
X0086910Y0083964D01*
X0086939Y0083931D01*
X0086972Y0083902D01*
X0087006Y0083875D01*
X0087043Y0083852D01*
X0087082Y0083832D01*
X0087122Y0083815D01*
X0087164Y0083802D01*
X0087206Y0083793D01*
X0087249Y0083787D01*
X0087293Y0083785D01*
X0093293Y0083785D01*
X0093337Y0083787D01*
X0093380Y0083793D01*
X0093422Y0083802D01*
X0093464Y0083815D01*
X0093504Y0083832D01*
X0093543Y0083852D01*
X0093580Y0083875D01*
X0093614Y0083902D01*
X0093647Y0083931D01*
X0093676Y0083964D01*
X0093703Y0083998D01*
X0093726Y0084035D01*
X0093746Y0084074D01*
X0093763Y0084114D01*
X0093776Y0084156D01*
X0093785Y0084198D01*
X0093791Y0084241D01*
X0093793Y0084285D01*
X0123239Y0110745D02*
X0123239Y0113245D01*
X0123241Y0113289D01*
X0123247Y0113332D01*
X0123256Y0113374D01*
X0123269Y0113416D01*
X0123286Y0113456D01*
X0123306Y0113495D01*
X0123329Y0113532D01*
X0123356Y0113566D01*
X0123385Y0113599D01*
X0123418Y0113628D01*
X0123452Y0113655D01*
X0123489Y0113678D01*
X0123528Y0113698D01*
X0123568Y0113715D01*
X0123610Y0113728D01*
X0123652Y0113737D01*
X0123695Y0113743D01*
X0123739Y0113745D01*
X0129739Y0113745D01*
X0129783Y0113743D01*
X0129826Y0113737D01*
X0129868Y0113728D01*
X0129910Y0113715D01*
X0129950Y0113698D01*
X0129989Y0113678D01*
X0130026Y0113655D01*
X0130060Y0113628D01*
X0130093Y0113599D01*
X0130122Y0113566D01*
X0130149Y0113532D01*
X0130172Y0113495D01*
X0130192Y0113456D01*
X0130209Y0113416D01*
X0130222Y0113374D01*
X0130231Y0113332D01*
X0130237Y0113289D01*
X0130239Y0113245D01*
X0130239Y0110745D01*
X0130237Y0110701D01*
X0130231Y0110658D01*
X0130222Y0110616D01*
X0130209Y0110574D01*
X0130192Y0110534D01*
X0130172Y0110495D01*
X0130149Y0110458D01*
X0130122Y0110424D01*
X0130093Y0110391D01*
X0130060Y0110362D01*
X0130026Y0110335D01*
X0129989Y0110312D01*
X0129950Y0110292D01*
X0129910Y0110275D01*
X0129868Y0110262D01*
X0129826Y0110253D01*
X0129783Y0110247D01*
X0129739Y0110245D01*
X0123739Y0110245D01*
X0123695Y0110247D01*
X0123652Y0110253D01*
X0123610Y0110262D01*
X0123568Y0110275D01*
X0123528Y0110292D01*
X0123489Y0110312D01*
X0123452Y0110335D01*
X0123418Y0110362D01*
X0123385Y0110391D01*
X0123356Y0110424D01*
X0123329Y0110458D01*
X0123306Y0110495D01*
X0123286Y0110534D01*
X0123269Y0110574D01*
X0123256Y0110616D01*
X0123247Y0110658D01*
X0123241Y0110701D01*
X0123239Y0110745D01*
X0123739Y0114969D02*
X0129739Y0114969D01*
X0129783Y0114971D01*
X0129826Y0114977D01*
X0129868Y0114986D01*
X0129910Y0114999D01*
X0129950Y0115016D01*
X0129989Y0115036D01*
X0130026Y0115059D01*
X0130060Y0115086D01*
X0130093Y0115115D01*
X0130122Y0115148D01*
X0130149Y0115182D01*
X0130172Y0115219D01*
X0130192Y0115258D01*
X0130209Y0115298D01*
X0130222Y0115340D01*
X0130231Y0115382D01*
X0130237Y0115425D01*
X0130239Y0115469D01*
X0130239Y0117969D01*
X0130237Y0118013D01*
X0130231Y0118056D01*
X0130222Y0118098D01*
X0130209Y0118140D01*
X0130192Y0118180D01*
X0130172Y0118219D01*
X0130149Y0118256D01*
X0130122Y0118290D01*
X0130093Y0118323D01*
X0130060Y0118352D01*
X0130026Y0118379D01*
X0129989Y0118402D01*
X0129950Y0118422D01*
X0129910Y0118439D01*
X0129868Y0118452D01*
X0129826Y0118461D01*
X0129783Y0118467D01*
X0129739Y0118469D01*
X0123739Y0118469D01*
X0123695Y0118467D01*
X0123652Y0118461D01*
X0123610Y0118452D01*
X0123568Y0118439D01*
X0123528Y0118422D01*
X0123489Y0118402D01*
X0123452Y0118379D01*
X0123418Y0118352D01*
X0123385Y0118323D01*
X0123356Y0118290D01*
X0123329Y0118256D01*
X0123306Y0118219D01*
X0123286Y0118180D01*
X0123269Y0118140D01*
X0123256Y0118098D01*
X0123247Y0118056D01*
X0123241Y0118013D01*
X0123239Y0117969D01*
X0123239Y0115469D01*
X0123241Y0115425D01*
X0123247Y0115382D01*
X0123256Y0115340D01*
X0123269Y0115298D01*
X0123286Y0115258D01*
X0123306Y0115219D01*
X0123329Y0115182D01*
X0123356Y0115148D01*
X0123385Y0115115D01*
X0123418Y0115086D01*
X0123452Y0115059D01*
X0123489Y0115036D01*
X0123528Y0115016D01*
X0123568Y0114999D01*
X0123610Y0114986D01*
X0123652Y0114977D01*
X0123695Y0114971D01*
X0123739Y0114969D01*
X0123739Y0122056D02*
X0129739Y0122056D01*
X0129783Y0122058D01*
X0129826Y0122064D01*
X0129868Y0122073D01*
X0129910Y0122086D01*
X0129950Y0122103D01*
X0129989Y0122123D01*
X0130026Y0122146D01*
X0130060Y0122173D01*
X0130093Y0122202D01*
X0130122Y0122235D01*
X0130149Y0122269D01*
X0130172Y0122306D01*
X0130192Y0122345D01*
X0130209Y0122385D01*
X0130222Y0122427D01*
X0130231Y0122469D01*
X0130237Y0122512D01*
X0130239Y0122556D01*
X0130239Y0125056D01*
X0130237Y0125100D01*
X0130231Y0125143D01*
X0130222Y0125185D01*
X0130209Y0125227D01*
X0130192Y0125267D01*
X0130172Y0125306D01*
X0130149Y0125343D01*
X0130122Y0125377D01*
X0130093Y0125410D01*
X0130060Y0125439D01*
X0130026Y0125466D01*
X0129989Y0125489D01*
X0129950Y0125509D01*
X0129910Y0125526D01*
X0129868Y0125539D01*
X0129826Y0125548D01*
X0129783Y0125554D01*
X0129739Y0125556D01*
X0123739Y0125556D01*
X0123695Y0125554D01*
X0123652Y0125548D01*
X0123610Y0125539D01*
X0123568Y0125526D01*
X0123528Y0125509D01*
X0123489Y0125489D01*
X0123452Y0125466D01*
X0123418Y0125439D01*
X0123385Y0125410D01*
X0123356Y0125377D01*
X0123329Y0125343D01*
X0123306Y0125306D01*
X0123286Y0125267D01*
X0123269Y0125227D01*
X0123256Y0125185D01*
X0123247Y0125143D01*
X0123241Y0125100D01*
X0123239Y0125056D01*
X0123239Y0122556D01*
X0123241Y0122512D01*
X0123247Y0122469D01*
X0123256Y0122427D01*
X0123269Y0122385D01*
X0123286Y0122345D01*
X0123306Y0122306D01*
X0123329Y0122269D01*
X0123356Y0122235D01*
X0123385Y0122202D01*
X0123418Y0122173D01*
X0123452Y0122146D01*
X0123489Y0122123D01*
X0123528Y0122103D01*
X0123568Y0122086D01*
X0123610Y0122073D01*
X0123652Y0122064D01*
X0123695Y0122058D01*
X0123739Y0122056D01*
X0123739Y0136016D02*
X0129739Y0136016D01*
X0129783Y0136018D01*
X0129826Y0136024D01*
X0129868Y0136033D01*
X0129910Y0136046D01*
X0129950Y0136063D01*
X0129989Y0136083D01*
X0130026Y0136106D01*
X0130060Y0136133D01*
X0130093Y0136162D01*
X0130122Y0136195D01*
X0130149Y0136229D01*
X0130172Y0136266D01*
X0130192Y0136305D01*
X0130209Y0136345D01*
X0130222Y0136387D01*
X0130231Y0136429D01*
X0130237Y0136472D01*
X0130239Y0136516D01*
X0130239Y0139016D01*
X0130237Y0139060D01*
X0130231Y0139103D01*
X0130222Y0139145D01*
X0130209Y0139187D01*
X0130192Y0139227D01*
X0130172Y0139266D01*
X0130149Y0139303D01*
X0130122Y0139337D01*
X0130093Y0139370D01*
X0130060Y0139399D01*
X0130026Y0139426D01*
X0129989Y0139449D01*
X0129950Y0139469D01*
X0129910Y0139486D01*
X0129868Y0139499D01*
X0129826Y0139508D01*
X0129783Y0139514D01*
X0129739Y0139516D01*
X0123739Y0139516D01*
X0123695Y0139514D01*
X0123652Y0139508D01*
X0123610Y0139499D01*
X0123568Y0139486D01*
X0123528Y0139469D01*
X0123489Y0139449D01*
X0123452Y0139426D01*
X0123418Y0139399D01*
X0123385Y0139370D01*
X0123356Y0139337D01*
X0123329Y0139303D01*
X0123306Y0139266D01*
X0123286Y0139227D01*
X0123269Y0139187D01*
X0123256Y0139145D01*
X0123247Y0139103D01*
X0123241Y0139060D01*
X0123239Y0139016D01*
X0123239Y0136516D01*
X0123241Y0136472D01*
X0123247Y0136429D01*
X0123256Y0136387D01*
X0123269Y0136345D01*
X0123286Y0136305D01*
X0123306Y0136266D01*
X0123329Y0136229D01*
X0123356Y0136195D01*
X0123385Y0136162D01*
X0123418Y0136133D01*
X0123452Y0136106D01*
X0123489Y0136083D01*
X0123528Y0136063D01*
X0123568Y0136046D01*
X0123610Y0136033D01*
X0123652Y0136024D01*
X0123695Y0136018D01*
X0123739Y0136016D01*
X0123345Y0155308D02*
X0129345Y0155308D01*
X0129389Y0155310D01*
X0129432Y0155316D01*
X0129474Y0155325D01*
X0129516Y0155338D01*
X0129556Y0155355D01*
X0129595Y0155375D01*
X0129632Y0155398D01*
X0129666Y0155425D01*
X0129699Y0155454D01*
X0129728Y0155487D01*
X0129755Y0155521D01*
X0129778Y0155558D01*
X0129798Y0155597D01*
X0129815Y0155637D01*
X0129828Y0155679D01*
X0129837Y0155721D01*
X0129843Y0155764D01*
X0129845Y0155808D01*
X0129845Y0158308D01*
X0129843Y0158352D01*
X0129837Y0158395D01*
X0129828Y0158437D01*
X0129815Y0158479D01*
X0129798Y0158519D01*
X0129778Y0158558D01*
X0129755Y0158595D01*
X0129728Y0158629D01*
X0129699Y0158662D01*
X0129666Y0158691D01*
X0129632Y0158718D01*
X0129595Y0158741D01*
X0129556Y0158761D01*
X0129516Y0158778D01*
X0129474Y0158791D01*
X0129432Y0158800D01*
X0129389Y0158806D01*
X0129345Y0158808D01*
X0123345Y0158808D01*
X0123301Y0158806D01*
X0123258Y0158800D01*
X0123216Y0158791D01*
X0123174Y0158778D01*
X0123134Y0158761D01*
X0123095Y0158741D01*
X0123058Y0158718D01*
X0123024Y0158691D01*
X0122991Y0158662D01*
X0122962Y0158629D01*
X0122935Y0158595D01*
X0122912Y0158558D01*
X0122892Y0158519D01*
X0122875Y0158479D01*
X0122862Y0158437D01*
X0122853Y0158395D01*
X0122847Y0158352D01*
X0122845Y0158308D01*
X0122845Y0155808D01*
X0122847Y0155764D01*
X0122853Y0155721D01*
X0122862Y0155679D01*
X0122875Y0155637D01*
X0122892Y0155597D01*
X0122912Y0155558D01*
X0122935Y0155521D01*
X0122962Y0155487D01*
X0122991Y0155454D01*
X0123024Y0155425D01*
X0123058Y0155398D01*
X0123095Y0155375D01*
X0123134Y0155355D01*
X0123174Y0155338D01*
X0123216Y0155325D01*
X0123258Y0155316D01*
X0123301Y0155310D01*
X0123345Y0155308D01*
X0092357Y0161083D02*
X0092357Y0163583D01*
X0092355Y0163627D01*
X0092349Y0163670D01*
X0092340Y0163712D01*
X0092327Y0163754D01*
X0092310Y0163794D01*
X0092290Y0163833D01*
X0092267Y0163870D01*
X0092240Y0163904D01*
X0092211Y0163937D01*
X0092178Y0163966D01*
X0092144Y0163993D01*
X0092107Y0164016D01*
X0092068Y0164036D01*
X0092028Y0164053D01*
X0091986Y0164066D01*
X0091944Y0164075D01*
X0091901Y0164081D01*
X0091857Y0164083D01*
X0085857Y0164083D01*
X0085813Y0164081D01*
X0085770Y0164075D01*
X0085728Y0164066D01*
X0085686Y0164053D01*
X0085646Y0164036D01*
X0085607Y0164016D01*
X0085570Y0163993D01*
X0085536Y0163966D01*
X0085503Y0163937D01*
X0085474Y0163904D01*
X0085447Y0163870D01*
X0085424Y0163833D01*
X0085404Y0163794D01*
X0085387Y0163754D01*
X0085374Y0163712D01*
X0085365Y0163670D01*
X0085359Y0163627D01*
X0085357Y0163583D01*
X0085357Y0161083D01*
X0085359Y0161039D01*
X0085365Y0160996D01*
X0085374Y0160954D01*
X0085387Y0160912D01*
X0085404Y0160872D01*
X0085424Y0160833D01*
X0085447Y0160796D01*
X0085474Y0160762D01*
X0085503Y0160729D01*
X0085536Y0160700D01*
X0085570Y0160673D01*
X0085607Y0160650D01*
X0085646Y0160630D01*
X0085686Y0160613D01*
X0085728Y0160600D01*
X0085770Y0160591D01*
X0085813Y0160585D01*
X0085857Y0160583D01*
X0091857Y0160583D01*
X0091901Y0160585D01*
X0091944Y0160591D01*
X0091986Y0160600D01*
X0092028Y0160613D01*
X0092068Y0160630D01*
X0092107Y0160650D01*
X0092144Y0160673D01*
X0092178Y0160700D01*
X0092211Y0160729D01*
X0092240Y0160762D01*
X0092267Y0160796D01*
X0092290Y0160833D01*
X0092310Y0160872D01*
X0092327Y0160912D01*
X0092340Y0160954D01*
X0092349Y0160996D01*
X0092355Y0161039D01*
X0092357Y0161083D01*
X0073924Y0158479D02*
X0073924Y0155979D01*
X0073922Y0155935D01*
X0073916Y0155892D01*
X0073907Y0155850D01*
X0073894Y0155808D01*
X0073877Y0155768D01*
X0073857Y0155729D01*
X0073834Y0155692D01*
X0073807Y0155658D01*
X0073778Y0155625D01*
X0073745Y0155596D01*
X0073711Y0155569D01*
X0073674Y0155546D01*
X0073635Y0155526D01*
X0073595Y0155509D01*
X0073553Y0155496D01*
X0073511Y0155487D01*
X0073468Y0155481D01*
X0073424Y0155479D01*
X0067424Y0155479D01*
X0067380Y0155481D01*
X0067337Y0155487D01*
X0067295Y0155496D01*
X0067253Y0155509D01*
X0067213Y0155526D01*
X0067174Y0155546D01*
X0067137Y0155569D01*
X0067103Y0155596D01*
X0067070Y0155625D01*
X0067041Y0155658D01*
X0067014Y0155692D01*
X0066991Y0155729D01*
X0066971Y0155768D01*
X0066954Y0155808D01*
X0066941Y0155850D01*
X0066932Y0155892D01*
X0066926Y0155935D01*
X0066924Y0155979D01*
X0066924Y0158479D01*
X0066926Y0158523D01*
X0066932Y0158566D01*
X0066941Y0158608D01*
X0066954Y0158650D01*
X0066971Y0158690D01*
X0066991Y0158729D01*
X0067014Y0158766D01*
X0067041Y0158800D01*
X0067070Y0158833D01*
X0067103Y0158862D01*
X0067137Y0158889D01*
X0067174Y0158912D01*
X0067213Y0158932D01*
X0067253Y0158949D01*
X0067295Y0158962D01*
X0067337Y0158971D01*
X0067380Y0158977D01*
X0067424Y0158979D01*
X0073424Y0158979D01*
X0073468Y0158977D01*
X0073511Y0158971D01*
X0073553Y0158962D01*
X0073595Y0158949D01*
X0073635Y0158932D01*
X0073674Y0158912D01*
X0073711Y0158889D01*
X0073745Y0158862D01*
X0073778Y0158833D01*
X0073807Y0158800D01*
X0073834Y0158766D01*
X0073857Y0158729D01*
X0073877Y0158690D01*
X0073894Y0158650D01*
X0073907Y0158608D01*
X0073916Y0158566D01*
X0073922Y0158523D01*
X0073924Y0158479D01*
X0086133Y0181303D02*
X0092133Y0181303D01*
X0092177Y0181305D01*
X0092220Y0181311D01*
X0092262Y0181320D01*
X0092304Y0181333D01*
X0092344Y0181350D01*
X0092383Y0181370D01*
X0092420Y0181393D01*
X0092454Y0181420D01*
X0092487Y0181449D01*
X0092516Y0181482D01*
X0092543Y0181516D01*
X0092566Y0181553D01*
X0092586Y0181592D01*
X0092603Y0181632D01*
X0092616Y0181674D01*
X0092625Y0181716D01*
X0092631Y0181759D01*
X0092633Y0181803D01*
X0092633Y0184303D01*
X0092631Y0184347D01*
X0092625Y0184390D01*
X0092616Y0184432D01*
X0092603Y0184474D01*
X0092586Y0184514D01*
X0092566Y0184553D01*
X0092543Y0184590D01*
X0092516Y0184624D01*
X0092487Y0184657D01*
X0092454Y0184686D01*
X0092420Y0184713D01*
X0092383Y0184736D01*
X0092344Y0184756D01*
X0092304Y0184773D01*
X0092262Y0184786D01*
X0092220Y0184795D01*
X0092177Y0184801D01*
X0092133Y0184803D01*
X0086133Y0184803D01*
X0086089Y0184801D01*
X0086046Y0184795D01*
X0086004Y0184786D01*
X0085962Y0184773D01*
X0085922Y0184756D01*
X0085883Y0184736D01*
X0085846Y0184713D01*
X0085812Y0184686D01*
X0085779Y0184657D01*
X0085750Y0184624D01*
X0085723Y0184590D01*
X0085700Y0184553D01*
X0085680Y0184514D01*
X0085663Y0184474D01*
X0085650Y0184432D01*
X0085641Y0184390D01*
X0085635Y0184347D01*
X0085633Y0184303D01*
X0085633Y0181803D01*
X0085635Y0181759D01*
X0085641Y0181716D01*
X0085650Y0181674D01*
X0085663Y0181632D01*
X0085680Y0181592D01*
X0085700Y0181553D01*
X0085723Y0181516D01*
X0085750Y0181482D01*
X0085779Y0181449D01*
X0085812Y0181420D01*
X0085846Y0181393D01*
X0085883Y0181370D01*
X0085922Y0181350D01*
X0085962Y0181333D01*
X0086004Y0181320D01*
X0086046Y0181311D01*
X0086089Y0181305D01*
X0086133Y0181303D01*
X0080378Y0194312D02*
X0077878Y0194312D01*
X0077834Y0194314D01*
X0077791Y0194320D01*
X0077749Y0194329D01*
X0077707Y0194342D01*
X0077667Y0194359D01*
X0077628Y0194379D01*
X0077591Y0194402D01*
X0077557Y0194429D01*
X0077524Y0194458D01*
X0077495Y0194491D01*
X0077468Y0194525D01*
X0077445Y0194562D01*
X0077425Y0194601D01*
X0077408Y0194641D01*
X0077395Y0194683D01*
X0077386Y0194725D01*
X0077380Y0194768D01*
X0077378Y0194812D01*
X0077378Y0200812D01*
X0077380Y0200856D01*
X0077386Y0200899D01*
X0077395Y0200941D01*
X0077408Y0200983D01*
X0077425Y0201023D01*
X0077445Y0201062D01*
X0077468Y0201099D01*
X0077495Y0201133D01*
X0077524Y0201166D01*
X0077557Y0201195D01*
X0077591Y0201222D01*
X0077628Y0201245D01*
X0077667Y0201265D01*
X0077707Y0201282D01*
X0077749Y0201295D01*
X0077791Y0201304D01*
X0077834Y0201310D01*
X0077878Y0201312D01*
X0080378Y0201312D01*
X0080422Y0201310D01*
X0080465Y0201304D01*
X0080507Y0201295D01*
X0080549Y0201282D01*
X0080589Y0201265D01*
X0080628Y0201245D01*
X0080665Y0201222D01*
X0080699Y0201195D01*
X0080732Y0201166D01*
X0080761Y0201133D01*
X0080788Y0201099D01*
X0080811Y0201062D01*
X0080831Y0201023D01*
X0080848Y0200983D01*
X0080861Y0200941D01*
X0080870Y0200899D01*
X0080876Y0200856D01*
X0080878Y0200812D01*
X0080878Y0194812D01*
X0080876Y0194768D01*
X0080870Y0194725D01*
X0080861Y0194683D01*
X0080848Y0194641D01*
X0080831Y0194601D01*
X0080811Y0194562D01*
X0080788Y0194525D01*
X0080761Y0194491D01*
X0080732Y0194458D01*
X0080699Y0194429D01*
X0080665Y0194402D01*
X0080628Y0194379D01*
X0080589Y0194359D01*
X0080549Y0194342D01*
X0080507Y0194329D01*
X0080465Y0194320D01*
X0080422Y0194314D01*
X0080378Y0194312D01*
X0076083Y0194747D02*
X0076083Y0200747D01*
X0076081Y0200791D01*
X0076075Y0200834D01*
X0076066Y0200876D01*
X0076053Y0200918D01*
X0076036Y0200958D01*
X0076016Y0200997D01*
X0075993Y0201034D01*
X0075966Y0201068D01*
X0075937Y0201101D01*
X0075904Y0201130D01*
X0075870Y0201157D01*
X0075833Y0201180D01*
X0075794Y0201200D01*
X0075754Y0201217D01*
X0075712Y0201230D01*
X0075670Y0201239D01*
X0075627Y0201245D01*
X0075583Y0201247D01*
X0073083Y0201247D01*
X0073039Y0201245D01*
X0072996Y0201239D01*
X0072954Y0201230D01*
X0072912Y0201217D01*
X0072872Y0201200D01*
X0072833Y0201180D01*
X0072796Y0201157D01*
X0072762Y0201130D01*
X0072729Y0201101D01*
X0072700Y0201068D01*
X0072673Y0201034D01*
X0072650Y0200997D01*
X0072630Y0200958D01*
X0072613Y0200918D01*
X0072600Y0200876D01*
X0072591Y0200834D01*
X0072585Y0200791D01*
X0072583Y0200747D01*
X0072583Y0194747D01*
X0072585Y0194703D01*
X0072591Y0194660D01*
X0072600Y0194618D01*
X0072613Y0194576D01*
X0072630Y0194536D01*
X0072650Y0194497D01*
X0072673Y0194460D01*
X0072700Y0194426D01*
X0072729Y0194393D01*
X0072762Y0194364D01*
X0072796Y0194337D01*
X0072833Y0194314D01*
X0072872Y0194294D01*
X0072912Y0194277D01*
X0072954Y0194264D01*
X0072996Y0194255D01*
X0073039Y0194249D01*
X0073083Y0194247D01*
X0075583Y0194247D01*
X0075627Y0194249D01*
X0075670Y0194255D01*
X0075712Y0194264D01*
X0075754Y0194277D01*
X0075794Y0194294D01*
X0075833Y0194314D01*
X0075870Y0194337D01*
X0075904Y0194364D01*
X0075937Y0194393D01*
X0075966Y0194426D01*
X0075993Y0194460D01*
X0076016Y0194497D01*
X0076036Y0194536D01*
X0076053Y0194576D01*
X0076066Y0194618D01*
X0076075Y0194660D01*
X0076081Y0194703D01*
X0076083Y0194747D01*
X0100912Y0195047D02*
X0100912Y0201047D01*
X0100914Y0201091D01*
X0100920Y0201134D01*
X0100929Y0201176D01*
X0100942Y0201218D01*
X0100959Y0201258D01*
X0100979Y0201297D01*
X0101002Y0201334D01*
X0101029Y0201368D01*
X0101058Y0201401D01*
X0101091Y0201430D01*
X0101125Y0201457D01*
X0101162Y0201480D01*
X0101201Y0201500D01*
X0101241Y0201517D01*
X0101283Y0201530D01*
X0101325Y0201539D01*
X0101368Y0201545D01*
X0101412Y0201547D01*
X0103912Y0201547D01*
X0103956Y0201545D01*
X0103999Y0201539D01*
X0104041Y0201530D01*
X0104083Y0201517D01*
X0104123Y0201500D01*
X0104162Y0201480D01*
X0104199Y0201457D01*
X0104233Y0201430D01*
X0104266Y0201401D01*
X0104295Y0201368D01*
X0104322Y0201334D01*
X0104345Y0201297D01*
X0104365Y0201258D01*
X0104382Y0201218D01*
X0104395Y0201176D01*
X0104404Y0201134D01*
X0104410Y0201091D01*
X0104412Y0201047D01*
X0104412Y0195047D01*
X0104410Y0195003D01*
X0104404Y0194960D01*
X0104395Y0194918D01*
X0104382Y0194876D01*
X0104365Y0194836D01*
X0104345Y0194797D01*
X0104322Y0194760D01*
X0104295Y0194726D01*
X0104266Y0194693D01*
X0104233Y0194664D01*
X0104199Y0194637D01*
X0104162Y0194614D01*
X0104123Y0194594D01*
X0104083Y0194577D01*
X0104041Y0194564D01*
X0103999Y0194555D01*
X0103956Y0194549D01*
X0103912Y0194547D01*
X0101412Y0194547D01*
X0101368Y0194549D01*
X0101325Y0194555D01*
X0101283Y0194564D01*
X0101241Y0194577D01*
X0101201Y0194594D01*
X0101162Y0194614D01*
X0101125Y0194637D01*
X0101091Y0194664D01*
X0101058Y0194693D01*
X0101029Y0194726D01*
X0101002Y0194760D01*
X0100979Y0194797D01*
X0100959Y0194836D01*
X0100942Y0194876D01*
X0100929Y0194918D01*
X0100920Y0194960D01*
X0100914Y0195003D01*
X0100912Y0195047D01*
X0100485Y0214240D02*
X0097985Y0214240D01*
X0097941Y0214242D01*
X0097898Y0214248D01*
X0097856Y0214257D01*
X0097814Y0214270D01*
X0097774Y0214287D01*
X0097735Y0214307D01*
X0097698Y0214330D01*
X0097664Y0214357D01*
X0097631Y0214386D01*
X0097602Y0214419D01*
X0097575Y0214453D01*
X0097552Y0214490D01*
X0097532Y0214529D01*
X0097515Y0214569D01*
X0097502Y0214611D01*
X0097493Y0214653D01*
X0097487Y0214696D01*
X0097485Y0214740D01*
X0097485Y0220740D01*
X0097487Y0220784D01*
X0097493Y0220827D01*
X0097502Y0220869D01*
X0097515Y0220911D01*
X0097532Y0220951D01*
X0097552Y0220990D01*
X0097575Y0221027D01*
X0097602Y0221061D01*
X0097631Y0221094D01*
X0097664Y0221123D01*
X0097698Y0221150D01*
X0097735Y0221173D01*
X0097774Y0221193D01*
X0097814Y0221210D01*
X0097856Y0221223D01*
X0097898Y0221232D01*
X0097941Y0221238D01*
X0097985Y0221240D01*
X0100485Y0221240D01*
X0100529Y0221238D01*
X0100572Y0221232D01*
X0100614Y0221223D01*
X0100656Y0221210D01*
X0100696Y0221193D01*
X0100735Y0221173D01*
X0100772Y0221150D01*
X0100806Y0221123D01*
X0100839Y0221094D01*
X0100868Y0221061D01*
X0100895Y0221027D01*
X0100918Y0220990D01*
X0100938Y0220951D01*
X0100955Y0220911D01*
X0100968Y0220869D01*
X0100977Y0220827D01*
X0100983Y0220784D01*
X0100985Y0220740D01*
X0100985Y0214740D01*
X0100983Y0214696D01*
X0100977Y0214653D01*
X0100968Y0214611D01*
X0100955Y0214569D01*
X0100938Y0214529D01*
X0100918Y0214490D01*
X0100895Y0214453D01*
X0100868Y0214419D01*
X0100839Y0214386D01*
X0100806Y0214357D01*
X0100772Y0214330D01*
X0100735Y0214307D01*
X0100696Y0214287D01*
X0100656Y0214270D01*
X0100614Y0214257D01*
X0100572Y0214248D01*
X0100529Y0214242D01*
X0100485Y0214240D01*
X0096454Y0214733D02*
X0096454Y0220733D01*
X0096452Y0220777D01*
X0096446Y0220820D01*
X0096437Y0220862D01*
X0096424Y0220904D01*
X0096407Y0220944D01*
X0096387Y0220983D01*
X0096364Y0221020D01*
X0096337Y0221054D01*
X0096308Y0221087D01*
X0096275Y0221116D01*
X0096241Y0221143D01*
X0096204Y0221166D01*
X0096165Y0221186D01*
X0096125Y0221203D01*
X0096083Y0221216D01*
X0096041Y0221225D01*
X0095998Y0221231D01*
X0095954Y0221233D01*
X0093454Y0221233D01*
X0093410Y0221231D01*
X0093367Y0221225D01*
X0093325Y0221216D01*
X0093283Y0221203D01*
X0093243Y0221186D01*
X0093204Y0221166D01*
X0093167Y0221143D01*
X0093133Y0221116D01*
X0093100Y0221087D01*
X0093071Y0221054D01*
X0093044Y0221020D01*
X0093021Y0220983D01*
X0093001Y0220944D01*
X0092984Y0220904D01*
X0092971Y0220862D01*
X0092962Y0220820D01*
X0092956Y0220777D01*
X0092954Y0220733D01*
X0092954Y0214733D01*
X0092956Y0214689D01*
X0092962Y0214646D01*
X0092971Y0214604D01*
X0092984Y0214562D01*
X0093001Y0214522D01*
X0093021Y0214483D01*
X0093044Y0214446D01*
X0093071Y0214412D01*
X0093100Y0214379D01*
X0093133Y0214350D01*
X0093167Y0214323D01*
X0093204Y0214300D01*
X0093243Y0214280D01*
X0093283Y0214263D01*
X0093325Y0214250D01*
X0093367Y0214241D01*
X0093410Y0214235D01*
X0093454Y0214233D01*
X0095954Y0214233D01*
X0095998Y0214235D01*
X0096041Y0214241D01*
X0096083Y0214250D01*
X0096125Y0214263D01*
X0096165Y0214280D01*
X0096204Y0214300D01*
X0096241Y0214323D01*
X0096275Y0214350D01*
X0096308Y0214379D01*
X0096337Y0214412D01*
X0096364Y0214446D01*
X0096387Y0214483D01*
X0096407Y0214522D01*
X0096424Y0214562D01*
X0096437Y0214604D01*
X0096446Y0214646D01*
X0096452Y0214689D01*
X0096454Y0214733D01*
X0145461Y0202790D02*
X0145461Y0196790D01*
X0145463Y0196746D01*
X0145469Y0196703D01*
X0145478Y0196661D01*
X0145491Y0196619D01*
X0145508Y0196579D01*
X0145528Y0196540D01*
X0145551Y0196503D01*
X0145578Y0196469D01*
X0145607Y0196436D01*
X0145640Y0196407D01*
X0145674Y0196380D01*
X0145711Y0196357D01*
X0145750Y0196337D01*
X0145790Y0196320D01*
X0145832Y0196307D01*
X0145874Y0196298D01*
X0145917Y0196292D01*
X0145961Y0196290D01*
X0148461Y0196290D01*
X0148505Y0196292D01*
X0148548Y0196298D01*
X0148590Y0196307D01*
X0148632Y0196320D01*
X0148672Y0196337D01*
X0148711Y0196357D01*
X0148748Y0196380D01*
X0148782Y0196407D01*
X0148815Y0196436D01*
X0148844Y0196469D01*
X0148871Y0196503D01*
X0148894Y0196540D01*
X0148914Y0196579D01*
X0148931Y0196619D01*
X0148944Y0196661D01*
X0148953Y0196703D01*
X0148959Y0196746D01*
X0148961Y0196790D01*
X0148961Y0202790D01*
X0148959Y0202834D01*
X0148953Y0202877D01*
X0148944Y0202919D01*
X0148931Y0202961D01*
X0148914Y0203001D01*
X0148894Y0203040D01*
X0148871Y0203077D01*
X0148844Y0203111D01*
X0148815Y0203144D01*
X0148782Y0203173D01*
X0148748Y0203200D01*
X0148711Y0203223D01*
X0148672Y0203243D01*
X0148632Y0203260D01*
X0148590Y0203273D01*
X0148548Y0203282D01*
X0148505Y0203288D01*
X0148461Y0203290D01*
X0145961Y0203290D01*
X0145917Y0203288D01*
X0145874Y0203282D01*
X0145832Y0203273D01*
X0145790Y0203260D01*
X0145750Y0203243D01*
X0145711Y0203223D01*
X0145674Y0203200D01*
X0145640Y0203173D01*
X0145607Y0203144D01*
X0145578Y0203111D01*
X0145551Y0203077D01*
X0145528Y0203040D01*
X0145508Y0203001D01*
X0145491Y0202961D01*
X0145478Y0202919D01*
X0145469Y0202877D01*
X0145463Y0202834D01*
X0145461Y0202790D01*
X0149792Y0202790D02*
X0149792Y0196790D01*
X0149794Y0196746D01*
X0149800Y0196703D01*
X0149809Y0196661D01*
X0149822Y0196619D01*
X0149839Y0196579D01*
X0149859Y0196540D01*
X0149882Y0196503D01*
X0149909Y0196469D01*
X0149938Y0196436D01*
X0149971Y0196407D01*
X0150005Y0196380D01*
X0150042Y0196357D01*
X0150081Y0196337D01*
X0150121Y0196320D01*
X0150163Y0196307D01*
X0150205Y0196298D01*
X0150248Y0196292D01*
X0150292Y0196290D01*
X0152792Y0196290D01*
X0152836Y0196292D01*
X0152879Y0196298D01*
X0152921Y0196307D01*
X0152963Y0196320D01*
X0153003Y0196337D01*
X0153042Y0196357D01*
X0153079Y0196380D01*
X0153113Y0196407D01*
X0153146Y0196436D01*
X0153175Y0196469D01*
X0153202Y0196503D01*
X0153225Y0196540D01*
X0153245Y0196579D01*
X0153262Y0196619D01*
X0153275Y0196661D01*
X0153284Y0196703D01*
X0153290Y0196746D01*
X0153292Y0196790D01*
X0153292Y0202790D01*
X0153290Y0202834D01*
X0153284Y0202877D01*
X0153275Y0202919D01*
X0153262Y0202961D01*
X0153245Y0203001D01*
X0153225Y0203040D01*
X0153202Y0203077D01*
X0153175Y0203111D01*
X0153146Y0203144D01*
X0153113Y0203173D01*
X0153079Y0203200D01*
X0153042Y0203223D01*
X0153003Y0203243D01*
X0152963Y0203260D01*
X0152921Y0203273D01*
X0152879Y0203282D01*
X0152836Y0203288D01*
X0152792Y0203290D01*
X0150292Y0203290D01*
X0150248Y0203288D01*
X0150205Y0203282D01*
X0150163Y0203273D01*
X0150121Y0203260D01*
X0150081Y0203243D01*
X0150042Y0203223D01*
X0150005Y0203200D01*
X0149971Y0203173D01*
X0149938Y0203144D01*
X0149909Y0203111D01*
X0149882Y0203077D01*
X0149859Y0203040D01*
X0149839Y0203001D01*
X0149822Y0202961D01*
X0149809Y0202919D01*
X0149800Y0202877D01*
X0149794Y0202834D01*
X0149792Y0202790D01*
X0171446Y0203184D02*
X0171446Y0197184D01*
X0171448Y0197140D01*
X0171454Y0197097D01*
X0171463Y0197055D01*
X0171476Y0197013D01*
X0171493Y0196973D01*
X0171513Y0196934D01*
X0171536Y0196897D01*
X0171563Y0196863D01*
X0171592Y0196830D01*
X0171625Y0196801D01*
X0171659Y0196774D01*
X0171696Y0196751D01*
X0171735Y0196731D01*
X0171775Y0196714D01*
X0171817Y0196701D01*
X0171859Y0196692D01*
X0171902Y0196686D01*
X0171946Y0196684D01*
X0174446Y0196684D01*
X0174490Y0196686D01*
X0174533Y0196692D01*
X0174575Y0196701D01*
X0174617Y0196714D01*
X0174657Y0196731D01*
X0174696Y0196751D01*
X0174733Y0196774D01*
X0174767Y0196801D01*
X0174800Y0196830D01*
X0174829Y0196863D01*
X0174856Y0196897D01*
X0174879Y0196934D01*
X0174899Y0196973D01*
X0174916Y0197013D01*
X0174929Y0197055D01*
X0174938Y0197097D01*
X0174944Y0197140D01*
X0174946Y0197184D01*
X0174946Y0203184D01*
X0174944Y0203228D01*
X0174938Y0203271D01*
X0174929Y0203313D01*
X0174916Y0203355D01*
X0174899Y0203395D01*
X0174879Y0203434D01*
X0174856Y0203471D01*
X0174829Y0203505D01*
X0174800Y0203538D01*
X0174767Y0203567D01*
X0174733Y0203594D01*
X0174696Y0203617D01*
X0174657Y0203637D01*
X0174617Y0203654D01*
X0174575Y0203667D01*
X0174533Y0203676D01*
X0174490Y0203682D01*
X0174446Y0203684D01*
X0171946Y0203684D01*
X0171902Y0203682D01*
X0171859Y0203676D01*
X0171817Y0203667D01*
X0171775Y0203654D01*
X0171735Y0203637D01*
X0171696Y0203617D01*
X0171659Y0203594D01*
X0171625Y0203567D01*
X0171592Y0203538D01*
X0171563Y0203505D01*
X0171536Y0203471D01*
X0171513Y0203434D01*
X0171493Y0203395D01*
X0171476Y0203355D01*
X0171463Y0203313D01*
X0171454Y0203271D01*
X0171448Y0203228D01*
X0171446Y0203184D01*
X0192705Y0203184D02*
X0192705Y0197184D01*
X0192707Y0197140D01*
X0192713Y0197097D01*
X0192722Y0197055D01*
X0192735Y0197013D01*
X0192752Y0196973D01*
X0192772Y0196934D01*
X0192795Y0196897D01*
X0192822Y0196863D01*
X0192851Y0196830D01*
X0192884Y0196801D01*
X0192918Y0196774D01*
X0192955Y0196751D01*
X0192994Y0196731D01*
X0193034Y0196714D01*
X0193076Y0196701D01*
X0193118Y0196692D01*
X0193161Y0196686D01*
X0193205Y0196684D01*
X0195705Y0196684D01*
X0195749Y0196686D01*
X0195792Y0196692D01*
X0195834Y0196701D01*
X0195876Y0196714D01*
X0195916Y0196731D01*
X0195955Y0196751D01*
X0195992Y0196774D01*
X0196026Y0196801D01*
X0196059Y0196830D01*
X0196088Y0196863D01*
X0196115Y0196897D01*
X0196138Y0196934D01*
X0196158Y0196973D01*
X0196175Y0197013D01*
X0196188Y0197055D01*
X0196197Y0197097D01*
X0196203Y0197140D01*
X0196205Y0197184D01*
X0196205Y0203184D01*
X0196203Y0203228D01*
X0196197Y0203271D01*
X0196188Y0203313D01*
X0196175Y0203355D01*
X0196158Y0203395D01*
X0196138Y0203434D01*
X0196115Y0203471D01*
X0196088Y0203505D01*
X0196059Y0203538D01*
X0196026Y0203567D01*
X0195992Y0203594D01*
X0195955Y0203617D01*
X0195916Y0203637D01*
X0195876Y0203654D01*
X0195834Y0203667D01*
X0195792Y0203676D01*
X0195749Y0203682D01*
X0195705Y0203684D01*
X0193205Y0203684D01*
X0193161Y0203682D01*
X0193118Y0203676D01*
X0193076Y0203667D01*
X0193034Y0203654D01*
X0192994Y0203637D01*
X0192955Y0203617D01*
X0192918Y0203594D01*
X0192884Y0203567D01*
X0192851Y0203538D01*
X0192822Y0203505D01*
X0192795Y0203471D01*
X0192772Y0203434D01*
X0192752Y0203395D01*
X0192735Y0203355D01*
X0192722Y0203313D01*
X0192713Y0203271D01*
X0192707Y0203228D01*
X0192705Y0203184D01*
X0186568Y0218685D02*
X0184068Y0218685D01*
X0184024Y0218687D01*
X0183981Y0218693D01*
X0183939Y0218702D01*
X0183897Y0218715D01*
X0183857Y0218732D01*
X0183818Y0218752D01*
X0183781Y0218775D01*
X0183747Y0218802D01*
X0183714Y0218831D01*
X0183685Y0218864D01*
X0183658Y0218898D01*
X0183635Y0218935D01*
X0183615Y0218974D01*
X0183598Y0219014D01*
X0183585Y0219056D01*
X0183576Y0219098D01*
X0183570Y0219141D01*
X0183568Y0219185D01*
X0183568Y0225185D01*
X0183570Y0225229D01*
X0183576Y0225272D01*
X0183585Y0225314D01*
X0183598Y0225356D01*
X0183615Y0225396D01*
X0183635Y0225435D01*
X0183658Y0225472D01*
X0183685Y0225506D01*
X0183714Y0225539D01*
X0183747Y0225568D01*
X0183781Y0225595D01*
X0183818Y0225618D01*
X0183857Y0225638D01*
X0183897Y0225655D01*
X0183939Y0225668D01*
X0183981Y0225677D01*
X0184024Y0225683D01*
X0184068Y0225685D01*
X0186568Y0225685D01*
X0186612Y0225683D01*
X0186655Y0225677D01*
X0186697Y0225668D01*
X0186739Y0225655D01*
X0186779Y0225638D01*
X0186818Y0225618D01*
X0186855Y0225595D01*
X0186889Y0225568D01*
X0186922Y0225539D01*
X0186951Y0225506D01*
X0186978Y0225472D01*
X0187001Y0225435D01*
X0187021Y0225396D01*
X0187038Y0225356D01*
X0187051Y0225314D01*
X0187060Y0225272D01*
X0187066Y0225229D01*
X0187068Y0225185D01*
X0187068Y0219185D01*
X0187066Y0219141D01*
X0187060Y0219098D01*
X0187051Y0219056D01*
X0187038Y0219014D01*
X0187021Y0218974D01*
X0187001Y0218935D01*
X0186978Y0218898D01*
X0186951Y0218864D01*
X0186922Y0218831D01*
X0186889Y0218802D01*
X0186855Y0218775D01*
X0186818Y0218752D01*
X0186779Y0218732D01*
X0186739Y0218715D01*
X0186697Y0218702D01*
X0186655Y0218693D01*
X0186612Y0218687D01*
X0186568Y0218685D01*
X0179942Y0219185D02*
X0179942Y0225185D01*
X0179940Y0225229D01*
X0179934Y0225272D01*
X0179925Y0225314D01*
X0179912Y0225356D01*
X0179895Y0225396D01*
X0179875Y0225435D01*
X0179852Y0225472D01*
X0179825Y0225506D01*
X0179796Y0225539D01*
X0179763Y0225568D01*
X0179729Y0225595D01*
X0179692Y0225618D01*
X0179653Y0225638D01*
X0179613Y0225655D01*
X0179571Y0225668D01*
X0179529Y0225677D01*
X0179486Y0225683D01*
X0179442Y0225685D01*
X0176942Y0225685D01*
X0176898Y0225683D01*
X0176855Y0225677D01*
X0176813Y0225668D01*
X0176771Y0225655D01*
X0176731Y0225638D01*
X0176692Y0225618D01*
X0176655Y0225595D01*
X0176621Y0225568D01*
X0176588Y0225539D01*
X0176559Y0225506D01*
X0176532Y0225472D01*
X0176509Y0225435D01*
X0176489Y0225396D01*
X0176472Y0225356D01*
X0176459Y0225314D01*
X0176450Y0225272D01*
X0176444Y0225229D01*
X0176442Y0225185D01*
X0176442Y0219185D01*
X0176444Y0219141D01*
X0176450Y0219098D01*
X0176459Y0219056D01*
X0176472Y0219014D01*
X0176489Y0218974D01*
X0176509Y0218935D01*
X0176532Y0218898D01*
X0176559Y0218864D01*
X0176588Y0218831D01*
X0176621Y0218802D01*
X0176655Y0218775D01*
X0176692Y0218752D01*
X0176731Y0218732D01*
X0176771Y0218715D01*
X0176813Y0218702D01*
X0176855Y0218693D01*
X0176898Y0218687D01*
X0176942Y0218685D01*
X0179442Y0218685D01*
X0179486Y0218687D01*
X0179529Y0218693D01*
X0179571Y0218702D01*
X0179613Y0218715D01*
X0179653Y0218732D01*
X0179692Y0218752D01*
X0179729Y0218775D01*
X0179763Y0218802D01*
X0179796Y0218831D01*
X0179825Y0218864D01*
X0179852Y0218898D01*
X0179875Y0218935D01*
X0179895Y0218974D01*
X0179912Y0219014D01*
X0179925Y0219056D01*
X0179934Y0219098D01*
X0179940Y0219141D01*
X0179942Y0219185D01*
X0230700Y0186342D02*
X0230700Y0183842D01*
X0230702Y0183798D01*
X0230708Y0183755D01*
X0230717Y0183713D01*
X0230730Y0183671D01*
X0230747Y0183631D01*
X0230767Y0183592D01*
X0230790Y0183555D01*
X0230817Y0183521D01*
X0230846Y0183488D01*
X0230879Y0183459D01*
X0230913Y0183432D01*
X0230950Y0183409D01*
X0230989Y0183389D01*
X0231029Y0183372D01*
X0231071Y0183359D01*
X0231113Y0183350D01*
X0231156Y0183344D01*
X0231200Y0183342D01*
X0237200Y0183342D01*
X0237244Y0183344D01*
X0237287Y0183350D01*
X0237329Y0183359D01*
X0237371Y0183372D01*
X0237411Y0183389D01*
X0237450Y0183409D01*
X0237487Y0183432D01*
X0237521Y0183459D01*
X0237554Y0183488D01*
X0237583Y0183521D01*
X0237610Y0183555D01*
X0237633Y0183592D01*
X0237653Y0183631D01*
X0237670Y0183671D01*
X0237683Y0183713D01*
X0237692Y0183755D01*
X0237698Y0183798D01*
X0237700Y0183842D01*
X0237700Y0186342D01*
X0237698Y0186386D01*
X0237692Y0186429D01*
X0237683Y0186471D01*
X0237670Y0186513D01*
X0237653Y0186553D01*
X0237633Y0186592D01*
X0237610Y0186629D01*
X0237583Y0186663D01*
X0237554Y0186696D01*
X0237521Y0186725D01*
X0237487Y0186752D01*
X0237450Y0186775D01*
X0237411Y0186795D01*
X0237371Y0186812D01*
X0237329Y0186825D01*
X0237287Y0186834D01*
X0237244Y0186840D01*
X0237200Y0186842D01*
X0231200Y0186842D01*
X0231156Y0186840D01*
X0231113Y0186834D01*
X0231071Y0186825D01*
X0231029Y0186812D01*
X0230989Y0186795D01*
X0230950Y0186775D01*
X0230913Y0186752D01*
X0230879Y0186725D01*
X0230846Y0186696D01*
X0230817Y0186663D01*
X0230790Y0186629D01*
X0230767Y0186592D01*
X0230747Y0186553D01*
X0230730Y0186513D01*
X0230717Y0186471D01*
X0230708Y0186429D01*
X0230702Y0186386D01*
X0230700Y0186342D01*
X0231200Y0182512D02*
X0237200Y0182512D01*
X0237244Y0182510D01*
X0237287Y0182504D01*
X0237329Y0182495D01*
X0237371Y0182482D01*
X0237411Y0182465D01*
X0237450Y0182445D01*
X0237487Y0182422D01*
X0237521Y0182395D01*
X0237554Y0182366D01*
X0237583Y0182333D01*
X0237610Y0182299D01*
X0237633Y0182262D01*
X0237653Y0182223D01*
X0237670Y0182183D01*
X0237683Y0182141D01*
X0237692Y0182099D01*
X0237698Y0182056D01*
X0237700Y0182012D01*
X0237700Y0179512D01*
X0237698Y0179468D01*
X0237692Y0179425D01*
X0237683Y0179383D01*
X0237670Y0179341D01*
X0237653Y0179301D01*
X0237633Y0179262D01*
X0237610Y0179225D01*
X0237583Y0179191D01*
X0237554Y0179158D01*
X0237521Y0179129D01*
X0237487Y0179102D01*
X0237450Y0179079D01*
X0237411Y0179059D01*
X0237371Y0179042D01*
X0237329Y0179029D01*
X0237287Y0179020D01*
X0237244Y0179014D01*
X0237200Y0179012D01*
X0231200Y0179012D01*
X0231156Y0179014D01*
X0231113Y0179020D01*
X0231071Y0179029D01*
X0231029Y0179042D01*
X0230989Y0179059D01*
X0230950Y0179079D01*
X0230913Y0179102D01*
X0230879Y0179129D01*
X0230846Y0179158D01*
X0230817Y0179191D01*
X0230790Y0179225D01*
X0230767Y0179262D01*
X0230747Y0179301D01*
X0230730Y0179341D01*
X0230717Y0179383D01*
X0230708Y0179425D01*
X0230702Y0179468D01*
X0230700Y0179512D01*
X0230700Y0182012D01*
X0230702Y0182056D01*
X0230708Y0182099D01*
X0230717Y0182141D01*
X0230730Y0182183D01*
X0230747Y0182223D01*
X0230767Y0182262D01*
X0230790Y0182299D01*
X0230817Y0182333D01*
X0230846Y0182366D01*
X0230879Y0182395D01*
X0230913Y0182422D01*
X0230950Y0182445D01*
X0230989Y0182465D01*
X0231029Y0182482D01*
X0231071Y0182495D01*
X0231113Y0182504D01*
X0231156Y0182510D01*
X0231200Y0182512D01*
X0232794Y0162957D02*
X0238794Y0162957D01*
X0238838Y0162955D01*
X0238881Y0162949D01*
X0238923Y0162940D01*
X0238965Y0162927D01*
X0239005Y0162910D01*
X0239044Y0162890D01*
X0239081Y0162867D01*
X0239115Y0162840D01*
X0239148Y0162811D01*
X0239177Y0162778D01*
X0239204Y0162744D01*
X0239227Y0162707D01*
X0239247Y0162668D01*
X0239264Y0162628D01*
X0239277Y0162586D01*
X0239286Y0162544D01*
X0239292Y0162501D01*
X0239294Y0162457D01*
X0239294Y0159957D01*
X0239292Y0159913D01*
X0239286Y0159870D01*
X0239277Y0159828D01*
X0239264Y0159786D01*
X0239247Y0159746D01*
X0239227Y0159707D01*
X0239204Y0159670D01*
X0239177Y0159636D01*
X0239148Y0159603D01*
X0239115Y0159574D01*
X0239081Y0159547D01*
X0239044Y0159524D01*
X0239005Y0159504D01*
X0238965Y0159487D01*
X0238923Y0159474D01*
X0238881Y0159465D01*
X0238838Y0159459D01*
X0238794Y0159457D01*
X0232794Y0159457D01*
X0232750Y0159459D01*
X0232707Y0159465D01*
X0232665Y0159474D01*
X0232623Y0159487D01*
X0232583Y0159504D01*
X0232544Y0159524D01*
X0232507Y0159547D01*
X0232473Y0159574D01*
X0232440Y0159603D01*
X0232411Y0159636D01*
X0232384Y0159670D01*
X0232361Y0159707D01*
X0232341Y0159746D01*
X0232324Y0159786D01*
X0232311Y0159828D01*
X0232302Y0159870D01*
X0232296Y0159913D01*
X0232294Y0159957D01*
X0232294Y0162457D01*
X0232296Y0162501D01*
X0232302Y0162544D01*
X0232311Y0162586D01*
X0232324Y0162628D01*
X0232341Y0162668D01*
X0232361Y0162707D01*
X0232384Y0162744D01*
X0232411Y0162778D01*
X0232440Y0162811D01*
X0232473Y0162840D01*
X0232507Y0162867D01*
X0232544Y0162890D01*
X0232583Y0162910D01*
X0232623Y0162927D01*
X0232665Y0162940D01*
X0232707Y0162949D01*
X0232750Y0162955D01*
X0232794Y0162957D01*
X0233188Y0143272D02*
X0239188Y0143272D01*
X0239232Y0143270D01*
X0239275Y0143264D01*
X0239317Y0143255D01*
X0239359Y0143242D01*
X0239399Y0143225D01*
X0239438Y0143205D01*
X0239475Y0143182D01*
X0239509Y0143155D01*
X0239542Y0143126D01*
X0239571Y0143093D01*
X0239598Y0143059D01*
X0239621Y0143022D01*
X0239641Y0142983D01*
X0239658Y0142943D01*
X0239671Y0142901D01*
X0239680Y0142859D01*
X0239686Y0142816D01*
X0239688Y0142772D01*
X0239688Y0140272D01*
X0239686Y0140228D01*
X0239680Y0140185D01*
X0239671Y0140143D01*
X0239658Y0140101D01*
X0239641Y0140061D01*
X0239621Y0140022D01*
X0239598Y0139985D01*
X0239571Y0139951D01*
X0239542Y0139918D01*
X0239509Y0139889D01*
X0239475Y0139862D01*
X0239438Y0139839D01*
X0239399Y0139819D01*
X0239359Y0139802D01*
X0239317Y0139789D01*
X0239275Y0139780D01*
X0239232Y0139774D01*
X0239188Y0139772D01*
X0233188Y0139772D01*
X0233144Y0139774D01*
X0233101Y0139780D01*
X0233059Y0139789D01*
X0233017Y0139802D01*
X0232977Y0139819D01*
X0232938Y0139839D01*
X0232901Y0139862D01*
X0232867Y0139889D01*
X0232834Y0139918D01*
X0232805Y0139951D01*
X0232778Y0139985D01*
X0232755Y0140022D01*
X0232735Y0140061D01*
X0232718Y0140101D01*
X0232705Y0140143D01*
X0232696Y0140185D01*
X0232690Y0140228D01*
X0232688Y0140272D01*
X0232688Y0142772D01*
X0232690Y0142816D01*
X0232696Y0142859D01*
X0232705Y0142901D01*
X0232718Y0142943D01*
X0232735Y0142983D01*
X0232755Y0143022D01*
X0232778Y0143059D01*
X0232805Y0143093D01*
X0232834Y0143126D01*
X0232867Y0143155D01*
X0232901Y0143182D01*
X0232938Y0143205D01*
X0232977Y0143225D01*
X0233017Y0143242D01*
X0233059Y0143255D01*
X0233101Y0143264D01*
X0233144Y0143270D01*
X0233188Y0143272D01*
X0233188Y0135398D02*
X0239188Y0135398D01*
X0239232Y0135396D01*
X0239275Y0135390D01*
X0239317Y0135381D01*
X0239359Y0135368D01*
X0239399Y0135351D01*
X0239438Y0135331D01*
X0239475Y0135308D01*
X0239509Y0135281D01*
X0239542Y0135252D01*
X0239571Y0135219D01*
X0239598Y0135185D01*
X0239621Y0135148D01*
X0239641Y0135109D01*
X0239658Y0135069D01*
X0239671Y0135027D01*
X0239680Y0134985D01*
X0239686Y0134942D01*
X0239688Y0134898D01*
X0239688Y0132398D01*
X0239686Y0132354D01*
X0239680Y0132311D01*
X0239671Y0132269D01*
X0239658Y0132227D01*
X0239641Y0132187D01*
X0239621Y0132148D01*
X0239598Y0132111D01*
X0239571Y0132077D01*
X0239542Y0132044D01*
X0239509Y0132015D01*
X0239475Y0131988D01*
X0239438Y0131965D01*
X0239399Y0131945D01*
X0239359Y0131928D01*
X0239317Y0131915D01*
X0239275Y0131906D01*
X0239232Y0131900D01*
X0239188Y0131898D01*
X0233188Y0131898D01*
X0233144Y0131900D01*
X0233101Y0131906D01*
X0233059Y0131915D01*
X0233017Y0131928D01*
X0232977Y0131945D01*
X0232938Y0131965D01*
X0232901Y0131988D01*
X0232867Y0132015D01*
X0232834Y0132044D01*
X0232805Y0132077D01*
X0232778Y0132111D01*
X0232755Y0132148D01*
X0232735Y0132187D01*
X0232718Y0132227D01*
X0232705Y0132269D01*
X0232696Y0132311D01*
X0232690Y0132354D01*
X0232688Y0132398D01*
X0232688Y0134898D01*
X0232690Y0134942D01*
X0232696Y0134985D01*
X0232705Y0135027D01*
X0232718Y0135069D01*
X0232735Y0135109D01*
X0232755Y0135148D01*
X0232778Y0135185D01*
X0232805Y0135219D01*
X0232834Y0135252D01*
X0232867Y0135281D01*
X0232901Y0135308D01*
X0232938Y0135331D01*
X0232977Y0135351D01*
X0233017Y0135368D01*
X0233059Y0135381D01*
X0233101Y0135390D01*
X0233144Y0135396D01*
X0233188Y0135398D01*
X0233188Y0117288D02*
X0239188Y0117288D01*
X0239232Y0117286D01*
X0239275Y0117280D01*
X0239317Y0117271D01*
X0239359Y0117258D01*
X0239399Y0117241D01*
X0239438Y0117221D01*
X0239475Y0117198D01*
X0239509Y0117171D01*
X0239542Y0117142D01*
X0239571Y0117109D01*
X0239598Y0117075D01*
X0239621Y0117038D01*
X0239641Y0116999D01*
X0239658Y0116959D01*
X0239671Y0116917D01*
X0239680Y0116875D01*
X0239686Y0116832D01*
X0239688Y0116788D01*
X0239688Y0114288D01*
X0239686Y0114244D01*
X0239680Y0114201D01*
X0239671Y0114159D01*
X0239658Y0114117D01*
X0239641Y0114077D01*
X0239621Y0114038D01*
X0239598Y0114001D01*
X0239571Y0113967D01*
X0239542Y0113934D01*
X0239509Y0113905D01*
X0239475Y0113878D01*
X0239438Y0113855D01*
X0239399Y0113835D01*
X0239359Y0113818D01*
X0239317Y0113805D01*
X0239275Y0113796D01*
X0239232Y0113790D01*
X0239188Y0113788D01*
X0233188Y0113788D01*
X0233144Y0113790D01*
X0233101Y0113796D01*
X0233059Y0113805D01*
X0233017Y0113818D01*
X0232977Y0113835D01*
X0232938Y0113855D01*
X0232901Y0113878D01*
X0232867Y0113905D01*
X0232834Y0113934D01*
X0232805Y0113967D01*
X0232778Y0114001D01*
X0232755Y0114038D01*
X0232735Y0114077D01*
X0232718Y0114117D01*
X0232705Y0114159D01*
X0232696Y0114201D01*
X0232690Y0114244D01*
X0232688Y0114288D01*
X0232688Y0116788D01*
X0232690Y0116832D01*
X0232696Y0116875D01*
X0232705Y0116917D01*
X0232718Y0116959D01*
X0232735Y0116999D01*
X0232755Y0117038D01*
X0232778Y0117075D01*
X0232805Y0117109D01*
X0232834Y0117142D01*
X0232867Y0117171D01*
X0232901Y0117198D01*
X0232938Y0117221D01*
X0232977Y0117241D01*
X0233017Y0117258D01*
X0233059Y0117271D01*
X0233101Y0117280D01*
X0233144Y0117286D01*
X0233188Y0117288D01*
X0237161Y0208509D02*
X0243161Y0208509D01*
X0243205Y0208511D01*
X0243248Y0208517D01*
X0243290Y0208526D01*
X0243332Y0208539D01*
X0243372Y0208556D01*
X0243411Y0208576D01*
X0243448Y0208599D01*
X0243482Y0208626D01*
X0243515Y0208655D01*
X0243544Y0208688D01*
X0243571Y0208722D01*
X0243594Y0208759D01*
X0243614Y0208798D01*
X0243631Y0208838D01*
X0243644Y0208880D01*
X0243653Y0208922D01*
X0243659Y0208965D01*
X0243661Y0209009D01*
X0243661Y0211509D01*
X0243659Y0211553D01*
X0243653Y0211596D01*
X0243644Y0211638D01*
X0243631Y0211680D01*
X0243614Y0211720D01*
X0243594Y0211759D01*
X0243571Y0211796D01*
X0243544Y0211830D01*
X0243515Y0211863D01*
X0243482Y0211892D01*
X0243448Y0211919D01*
X0243411Y0211942D01*
X0243372Y0211962D01*
X0243332Y0211979D01*
X0243290Y0211992D01*
X0243248Y0212001D01*
X0243205Y0212007D01*
X0243161Y0212009D01*
X0237161Y0212009D01*
X0237117Y0212007D01*
X0237074Y0212001D01*
X0237032Y0211992D01*
X0236990Y0211979D01*
X0236950Y0211962D01*
X0236911Y0211942D01*
X0236874Y0211919D01*
X0236840Y0211892D01*
X0236807Y0211863D01*
X0236778Y0211830D01*
X0236751Y0211796D01*
X0236728Y0211759D01*
X0236708Y0211720D01*
X0236691Y0211680D01*
X0236678Y0211638D01*
X0236669Y0211596D01*
X0236663Y0211553D01*
X0236661Y0211509D01*
X0236661Y0209009D01*
X0236663Y0208965D01*
X0236669Y0208922D01*
X0236678Y0208880D01*
X0236691Y0208838D01*
X0236708Y0208798D01*
X0236728Y0208759D01*
X0236751Y0208722D01*
X0236778Y0208688D01*
X0236807Y0208655D01*
X0236840Y0208626D01*
X0236874Y0208599D01*
X0236911Y0208576D01*
X0236950Y0208556D01*
X0236990Y0208539D01*
X0237032Y0208526D01*
X0237074Y0208517D01*
X0237117Y0208511D01*
X0237161Y0208509D01*
X0096099Y0132854D02*
X0096099Y0130354D01*
X0096097Y0130310D01*
X0096091Y0130267D01*
X0096082Y0130225D01*
X0096069Y0130183D01*
X0096052Y0130143D01*
X0096032Y0130104D01*
X0096009Y0130067D01*
X0095982Y0130033D01*
X0095953Y0130000D01*
X0095920Y0129971D01*
X0095886Y0129944D01*
X0095849Y0129921D01*
X0095810Y0129901D01*
X0095770Y0129884D01*
X0095728Y0129871D01*
X0095686Y0129862D01*
X0095643Y0129856D01*
X0095599Y0129854D01*
X0089599Y0129854D01*
X0089555Y0129856D01*
X0089512Y0129862D01*
X0089470Y0129871D01*
X0089428Y0129884D01*
X0089388Y0129901D01*
X0089349Y0129921D01*
X0089312Y0129944D01*
X0089278Y0129971D01*
X0089245Y0130000D01*
X0089216Y0130033D01*
X0089189Y0130067D01*
X0089166Y0130104D01*
X0089146Y0130143D01*
X0089129Y0130183D01*
X0089116Y0130225D01*
X0089107Y0130267D01*
X0089101Y0130310D01*
X0089099Y0130354D01*
X0089099Y0132854D01*
X0089101Y0132898D01*
X0089107Y0132941D01*
X0089116Y0132983D01*
X0089129Y0133025D01*
X0089146Y0133065D01*
X0089166Y0133104D01*
X0089189Y0133141D01*
X0089216Y0133175D01*
X0089245Y0133208D01*
X0089278Y0133237D01*
X0089312Y0133264D01*
X0089349Y0133287D01*
X0089388Y0133307D01*
X0089428Y0133324D01*
X0089470Y0133337D01*
X0089512Y0133346D01*
X0089555Y0133352D01*
X0089599Y0133354D01*
X0095599Y0133354D01*
X0095643Y0133352D01*
X0095686Y0133346D01*
X0095728Y0133337D01*
X0095770Y0133324D01*
X0095810Y0133307D01*
X0095849Y0133287D01*
X0095886Y0133264D01*
X0095920Y0133237D01*
X0095953Y0133208D01*
X0095982Y0133175D01*
X0096009Y0133141D01*
X0096032Y0133104D01*
X0096052Y0133065D01*
X0096069Y0133025D01*
X0096082Y0132983D01*
X0096091Y0132941D01*
X0096097Y0132898D01*
X0096099Y0132854D01*
D12*
X0096282Y0133107D02*
X0095248Y0133107D01*
X0094730Y0132590D01*
X0094730Y0130521D01*
X0095248Y0130004D01*
X0096282Y0130004D01*
X0096799Y0130521D01*
X0097953Y0130004D02*
X0100022Y0130004D01*
X0098987Y0130004D02*
X0098987Y0133107D01*
X0097953Y0132073D01*
X0096799Y0132590D02*
X0096282Y0133107D01*
X0101176Y0132073D02*
X0102210Y0133107D01*
X0102210Y0130004D01*
X0101176Y0130004D02*
X0103244Y0130004D01*
X0101069Y0120107D02*
X0101836Y0119339D01*
X0101836Y0118572D01*
X0101069Y0117805D01*
X0099534Y0117805D01*
X0098767Y0118572D01*
X0098767Y0119339D01*
X0099534Y0120107D01*
X0101069Y0120107D01*
X0101069Y0117805D02*
X0101836Y0117037D01*
X0101836Y0116270D01*
X0101069Y0115503D01*
X0099534Y0115503D01*
X0098767Y0116270D01*
X0098767Y0117037D01*
X0099534Y0117805D01*
X0097232Y0118572D02*
X0097232Y0119339D01*
X0096465Y0120107D01*
X0094931Y0120107D01*
X0094163Y0119339D01*
X0091094Y0120107D02*
X0091094Y0115503D01*
X0089559Y0115503D02*
X0092629Y0115503D01*
X0094163Y0115503D02*
X0097232Y0118572D01*
X0097232Y0115503D02*
X0094163Y0115503D01*
X0089559Y0118572D02*
X0091094Y0120107D01*
X0088025Y0119339D02*
X0088025Y0116270D01*
X0087257Y0115503D01*
X0085723Y0115503D01*
X0084955Y0116270D01*
X0084955Y0119339D01*
X0085723Y0120107D01*
X0087257Y0120107D01*
X0088025Y0119339D01*
X0086490Y0117037D02*
X0088025Y0115503D01*
X0083421Y0116270D02*
X0083421Y0117805D01*
X0082653Y0118572D01*
X0081886Y0118572D01*
X0080351Y0117805D01*
X0080351Y0120107D01*
X0083421Y0120107D01*
X0083421Y0116270D02*
X0082653Y0115503D01*
X0081119Y0115503D01*
X0080351Y0116270D01*
X0078817Y0115503D02*
X0075748Y0115503D01*
X0078817Y0118572D01*
X0078817Y0119339D01*
X0078049Y0120107D01*
X0076515Y0120107D01*
X0075748Y0119339D01*
X0074213Y0120107D02*
X0074213Y0115503D01*
X0072678Y0117037D01*
X0071144Y0115503D01*
X0071144Y0120107D01*
X0071247Y0151429D02*
X0069178Y0151429D01*
X0070213Y0151429D02*
X0070213Y0154532D01*
X0069178Y0153498D01*
X0068024Y0154015D02*
X0068024Y0152981D01*
X0067507Y0152464D01*
X0065956Y0152464D01*
X0066990Y0152464D02*
X0068024Y0151429D01*
X0065956Y0151429D02*
X0065956Y0154532D01*
X0067507Y0154532D01*
X0068024Y0154015D01*
X0072401Y0154532D02*
X0072401Y0152981D01*
X0073435Y0153498D01*
X0073952Y0153498D01*
X0074470Y0152981D01*
X0074470Y0151946D01*
X0073952Y0151429D01*
X0072918Y0151429D01*
X0072401Y0151946D01*
X0072401Y0154532D02*
X0074470Y0154532D01*
X0075306Y0161333D02*
X0076340Y0161333D01*
X0076857Y0161850D01*
X0078011Y0161333D02*
X0080080Y0161333D01*
X0079046Y0161333D02*
X0079046Y0164436D01*
X0078011Y0163402D01*
X0076857Y0163919D02*
X0076340Y0164436D01*
X0075306Y0164436D01*
X0074789Y0163919D01*
X0074789Y0161850D01*
X0075306Y0161333D01*
X0081234Y0161333D02*
X0083303Y0163402D01*
X0083303Y0163919D01*
X0082786Y0164436D01*
X0081751Y0164436D01*
X0081234Y0163919D01*
X0081234Y0161333D02*
X0083303Y0161333D01*
X0094250Y0181353D02*
X0095284Y0181353D01*
X0095801Y0181870D01*
X0096955Y0181870D02*
X0097472Y0181353D01*
X0098507Y0181353D01*
X0099024Y0181870D01*
X0099024Y0183939D01*
X0098507Y0184456D01*
X0097472Y0184456D01*
X0096955Y0183939D01*
X0096955Y0183421D01*
X0097472Y0182904D01*
X0099024Y0182904D01*
X0095801Y0183939D02*
X0095284Y0184456D01*
X0094250Y0184456D01*
X0093733Y0183939D01*
X0093733Y0181870D01*
X0094250Y0181353D01*
X0083206Y0184929D02*
X0081138Y0184929D01*
X0082172Y0184929D02*
X0082172Y0188032D01*
X0081138Y0186998D01*
X0079983Y0186481D02*
X0077915Y0186481D01*
X0076761Y0186998D02*
X0076761Y0187515D01*
X0076243Y0188032D01*
X0075209Y0188032D01*
X0074692Y0187515D01*
X0073538Y0187515D02*
X0073021Y0188032D01*
X0071469Y0188032D01*
X0071469Y0184929D01*
X0073021Y0184929D01*
X0073538Y0185446D01*
X0073538Y0187515D01*
X0074692Y0184929D02*
X0076761Y0186998D01*
X0076761Y0184929D02*
X0074692Y0184929D01*
X0070315Y0184929D02*
X0068247Y0184929D01*
X0068247Y0188032D01*
X0070315Y0188032D01*
X0069281Y0186481D02*
X0068247Y0186481D01*
X0067092Y0184929D02*
X0065024Y0184929D01*
X0065024Y0188032D01*
X0072831Y0200901D02*
X0072831Y0202453D01*
X0073348Y0202970D01*
X0074382Y0202970D01*
X0074899Y0202453D01*
X0074899Y0200901D01*
X0075933Y0200901D02*
X0072831Y0200901D01*
X0074899Y0201935D02*
X0075933Y0202970D01*
X0075416Y0204124D02*
X0075933Y0204641D01*
X0075933Y0205675D01*
X0075416Y0206192D01*
X0074899Y0206192D01*
X0074382Y0205675D01*
X0074382Y0204641D01*
X0073865Y0204124D01*
X0073348Y0204124D01*
X0072831Y0204641D01*
X0072831Y0205675D01*
X0073348Y0206192D01*
X0073865Y0206192D01*
X0074382Y0205675D01*
X0074382Y0204641D02*
X0074899Y0204124D01*
X0075416Y0204124D01*
X0077825Y0204801D02*
X0080928Y0204801D01*
X0080928Y0203767D02*
X0080928Y0205835D01*
X0079377Y0206989D02*
X0079377Y0209058D01*
X0080928Y0208541D02*
X0077825Y0208541D01*
X0079377Y0206989D01*
X0077825Y0204801D02*
X0078859Y0203767D01*
X0078342Y0202612D02*
X0079377Y0202612D01*
X0079894Y0202095D01*
X0079894Y0200544D01*
X0080928Y0200544D02*
X0077825Y0200544D01*
X0077825Y0202095D01*
X0078342Y0202612D01*
X0079894Y0201578D02*
X0080928Y0202612D01*
X0089002Y0211465D02*
X0089002Y0213016D01*
X0089519Y0213534D01*
X0090553Y0213534D01*
X0091070Y0213016D01*
X0091070Y0211465D01*
X0092104Y0211465D02*
X0089002Y0211465D01*
X0091070Y0212499D02*
X0092104Y0213534D01*
X0092104Y0214688D02*
X0092104Y0216756D01*
X0092104Y0215722D02*
X0089002Y0215722D01*
X0090036Y0214688D01*
X0090036Y0217911D02*
X0090553Y0218428D01*
X0090553Y0219979D01*
X0091587Y0219979D02*
X0089519Y0219979D01*
X0089002Y0219462D01*
X0089002Y0218428D01*
X0089519Y0217911D01*
X0090036Y0217911D01*
X0091587Y0217911D02*
X0092104Y0218428D01*
X0092104Y0219462D01*
X0091587Y0219979D01*
X0101932Y0218185D02*
X0101932Y0216117D01*
X0102449Y0214963D02*
X0101932Y0214445D01*
X0101932Y0212894D01*
X0105035Y0212894D01*
X0104001Y0212894D02*
X0104001Y0214445D01*
X0103484Y0214963D01*
X0102449Y0214963D01*
X0104001Y0213928D02*
X0105035Y0214963D01*
X0105035Y0216117D02*
X0104518Y0216117D01*
X0102449Y0218185D01*
X0101932Y0218185D01*
X0101556Y0226766D02*
X0103625Y0228834D01*
X0103625Y0229351D01*
X0103108Y0229868D01*
X0102073Y0229868D01*
X0101556Y0229351D01*
X0100402Y0229351D02*
X0100402Y0228834D01*
X0099885Y0228317D01*
X0098333Y0228317D01*
X0097179Y0227800D02*
X0097179Y0227283D01*
X0096662Y0226766D01*
X0095628Y0226766D01*
X0095111Y0227283D01*
X0093956Y0227283D02*
X0093956Y0229868D01*
X0095111Y0229351D02*
X0095111Y0228834D01*
X0095628Y0228317D01*
X0096662Y0228317D01*
X0097179Y0227800D01*
X0098333Y0226766D02*
X0098333Y0229868D01*
X0099885Y0229868D01*
X0100402Y0229351D01*
X0099885Y0228317D02*
X0100402Y0227800D01*
X0100402Y0227283D01*
X0099885Y0226766D01*
X0098333Y0226766D01*
X0097179Y0229351D02*
X0096662Y0229868D01*
X0095628Y0229868D01*
X0095111Y0229351D01*
X0093956Y0227283D02*
X0093439Y0226766D01*
X0092405Y0226766D01*
X0091888Y0227283D01*
X0091888Y0229868D01*
X0101556Y0226766D02*
X0103625Y0226766D01*
X0103869Y0208458D02*
X0101801Y0208458D01*
X0103869Y0206389D01*
X0104386Y0206906D01*
X0104386Y0207941D01*
X0103869Y0208458D01*
X0101801Y0208458D02*
X0101283Y0207941D01*
X0101283Y0206906D01*
X0101801Y0206389D01*
X0103869Y0206389D01*
X0104386Y0205235D02*
X0104386Y0203167D01*
X0104386Y0204201D02*
X0101283Y0204201D01*
X0102318Y0203167D01*
X0101801Y0202012D02*
X0101283Y0201495D01*
X0101283Y0200461D01*
X0101801Y0199944D01*
X0103869Y0199944D01*
X0104386Y0200461D01*
X0104386Y0201495D01*
X0103869Y0202012D01*
X0146546Y0204356D02*
X0147063Y0203839D01*
X0149131Y0203839D01*
X0149648Y0204356D01*
X0149648Y0205390D01*
X0149131Y0205907D01*
X0149648Y0207062D02*
X0147580Y0209130D01*
X0147063Y0209130D01*
X0146546Y0208613D01*
X0146546Y0207579D01*
X0147063Y0207062D01*
X0147063Y0205907D02*
X0146546Y0205390D01*
X0146546Y0204356D01*
X0149648Y0207062D02*
X0149648Y0209130D01*
X0150276Y0209384D02*
X0150276Y0208350D01*
X0150793Y0207833D01*
X0152862Y0207833D01*
X0153379Y0208350D01*
X0153379Y0209384D01*
X0152862Y0209901D01*
X0152862Y0211055D02*
X0153379Y0211572D01*
X0153379Y0212607D01*
X0152862Y0213124D01*
X0152345Y0213124D01*
X0151828Y0212607D01*
X0151828Y0212090D01*
X0151828Y0212607D02*
X0151311Y0213124D01*
X0150793Y0213124D01*
X0150276Y0212607D01*
X0150276Y0211572D01*
X0150793Y0211055D01*
X0150793Y0209901D02*
X0150276Y0209384D01*
X0149648Y0210284D02*
X0147580Y0212353D01*
X0147063Y0212353D01*
X0146546Y0211836D01*
X0146546Y0210801D01*
X0147063Y0210284D01*
X0149648Y0210284D02*
X0149648Y0212353D01*
X0171753Y0218228D02*
X0171753Y0219779D01*
X0172270Y0220296D01*
X0173304Y0220296D01*
X0173821Y0219779D01*
X0173821Y0218228D01*
X0173821Y0219262D02*
X0174855Y0220296D01*
X0173304Y0221451D02*
X0173304Y0223519D01*
X0171753Y0223002D02*
X0173304Y0221451D01*
X0174855Y0223002D02*
X0171753Y0223002D01*
X0171753Y0218228D02*
X0174855Y0218228D01*
X0187927Y0219991D02*
X0188444Y0219473D01*
X0190512Y0219473D01*
X0191029Y0219991D01*
X0191029Y0221025D01*
X0190512Y0221542D01*
X0190512Y0222696D02*
X0189995Y0222696D01*
X0189478Y0223213D01*
X0189478Y0224248D01*
X0189995Y0224765D01*
X0190512Y0224765D01*
X0191029Y0224248D01*
X0191029Y0223213D01*
X0190512Y0222696D01*
X0189478Y0223213D02*
X0188961Y0222696D01*
X0188444Y0222696D01*
X0187927Y0223213D01*
X0187927Y0224248D01*
X0188444Y0224765D01*
X0188961Y0224765D01*
X0189478Y0224248D01*
X0188444Y0221542D02*
X0187927Y0221025D01*
X0187927Y0219991D01*
X0202510Y0227298D02*
X0202510Y0229884D01*
X0204578Y0229884D02*
X0204578Y0227298D01*
X0204061Y0226781D01*
X0203027Y0226781D01*
X0202510Y0227298D01*
X0205732Y0227298D02*
X0206250Y0226781D01*
X0207284Y0226781D01*
X0207801Y0227298D01*
X0207801Y0227816D01*
X0207284Y0228333D01*
X0206250Y0228333D01*
X0205732Y0228850D01*
X0205732Y0229367D01*
X0206250Y0229884D01*
X0207284Y0229884D01*
X0207801Y0229367D01*
X0208955Y0228850D02*
X0209989Y0229884D01*
X0211024Y0228850D01*
X0211024Y0226781D01*
X0212178Y0226781D02*
X0212178Y0229884D01*
X0213729Y0229884D01*
X0214246Y0229367D01*
X0214246Y0228333D01*
X0213729Y0227816D01*
X0212178Y0227816D01*
X0213212Y0227816D02*
X0214246Y0226781D01*
X0216435Y0226781D02*
X0216435Y0229884D01*
X0215401Y0229884D02*
X0217469Y0229884D01*
X0218623Y0228850D02*
X0219658Y0229884D01*
X0219658Y0226781D01*
X0220692Y0226781D02*
X0218623Y0226781D01*
X0211024Y0228333D02*
X0208955Y0228333D01*
X0208955Y0228850D02*
X0208955Y0226781D01*
X0236561Y0207145D02*
X0236561Y0205076D01*
X0237078Y0204559D01*
X0238112Y0204559D01*
X0238629Y0205076D01*
X0239784Y0204559D02*
X0241852Y0204559D01*
X0240818Y0204559D02*
X0240818Y0207662D01*
X0239784Y0206628D01*
X0238629Y0207145D02*
X0238112Y0207662D01*
X0237078Y0207662D01*
X0236561Y0207145D01*
X0243006Y0207662D02*
X0243006Y0206111D01*
X0244041Y0206628D01*
X0244558Y0206628D01*
X0245075Y0206111D01*
X0245075Y0205076D01*
X0244558Y0204559D01*
X0243523Y0204559D01*
X0243006Y0205076D01*
X0243006Y0207662D02*
X0245075Y0207662D01*
X0254478Y0226781D02*
X0256547Y0226781D01*
X0257701Y0227298D02*
X0258218Y0226781D01*
X0259252Y0226781D01*
X0259769Y0227298D01*
X0259769Y0227816D01*
X0259252Y0228333D01*
X0258218Y0228333D01*
X0257701Y0228850D01*
X0257701Y0229367D01*
X0258218Y0229884D01*
X0259252Y0229884D01*
X0259769Y0229367D01*
X0260924Y0229884D02*
X0260924Y0226781D01*
X0260924Y0227816D02*
X0262475Y0227816D01*
X0262992Y0228333D01*
X0262992Y0229367D01*
X0262475Y0229884D01*
X0260924Y0229884D01*
X0264146Y0229367D02*
X0264146Y0228850D01*
X0264664Y0228333D01*
X0265698Y0228333D01*
X0266215Y0227816D01*
X0266215Y0227298D01*
X0265698Y0226781D01*
X0264664Y0226781D01*
X0264146Y0227298D01*
X0264146Y0227816D01*
X0264664Y0228333D01*
X0265698Y0228333D02*
X0266215Y0228850D01*
X0266215Y0229367D01*
X0265698Y0229884D01*
X0264664Y0229884D01*
X0264146Y0229367D01*
X0267369Y0229367D02*
X0267886Y0229884D01*
X0268921Y0229884D01*
X0269438Y0229367D01*
X0269438Y0228850D01*
X0267369Y0226781D01*
X0269438Y0226781D01*
X0270592Y0227298D02*
X0271109Y0226781D01*
X0272143Y0226781D01*
X0272660Y0227298D01*
X0272660Y0227816D01*
X0272143Y0228333D01*
X0270592Y0228333D01*
X0270592Y0227298D01*
X0270592Y0228333D02*
X0271626Y0229367D01*
X0272660Y0229884D01*
X0273815Y0228333D02*
X0274849Y0229367D01*
X0275883Y0229884D01*
X0275366Y0228333D02*
X0273815Y0228333D01*
X0273815Y0227298D01*
X0274332Y0226781D01*
X0275366Y0226781D01*
X0275883Y0227298D01*
X0275883Y0227816D01*
X0275366Y0228333D01*
X0294118Y0228141D02*
X0294635Y0227624D01*
X0295669Y0227624D01*
X0296187Y0227107D01*
X0296187Y0226590D01*
X0295669Y0226073D01*
X0294635Y0226073D01*
X0294118Y0226590D01*
X0294118Y0228141D02*
X0294118Y0228658D01*
X0294635Y0229175D01*
X0295669Y0229175D01*
X0296187Y0228658D01*
X0297341Y0229175D02*
X0297341Y0226073D01*
X0298375Y0227107D01*
X0299409Y0226073D01*
X0299409Y0229175D01*
X0300564Y0228658D02*
X0301081Y0229175D01*
X0302115Y0229175D01*
X0302632Y0228658D01*
X0302632Y0228141D01*
X0302115Y0227624D01*
X0302632Y0227107D01*
X0302632Y0226590D01*
X0302115Y0226073D01*
X0301081Y0226073D01*
X0300564Y0226590D01*
X0301598Y0227624D02*
X0302115Y0227624D01*
X0303786Y0227107D02*
X0305338Y0227107D01*
X0305855Y0227624D01*
X0305855Y0228658D01*
X0305338Y0229175D01*
X0303786Y0229175D01*
X0303786Y0226073D01*
X0307009Y0227624D02*
X0309077Y0227624D01*
X0310232Y0228658D02*
X0310749Y0229175D01*
X0311783Y0229175D01*
X0312300Y0228658D01*
X0312300Y0228141D01*
X0310232Y0226073D01*
X0312300Y0226073D01*
X0256547Y0229884D02*
X0254478Y0229884D01*
X0254478Y0226781D01*
X0254478Y0228333D02*
X0255512Y0228333D01*
X0248957Y0187558D02*
X0247922Y0187041D01*
X0246888Y0186007D01*
X0248440Y0186007D01*
X0248957Y0185490D01*
X0248957Y0184972D01*
X0248440Y0184455D01*
X0247405Y0184455D01*
X0246888Y0184972D01*
X0246888Y0186007D01*
X0245734Y0186524D02*
X0245734Y0187041D01*
X0245217Y0187558D01*
X0244183Y0187558D01*
X0243666Y0187041D01*
X0242511Y0187041D02*
X0241994Y0187558D01*
X0240960Y0187558D01*
X0240443Y0187041D01*
X0240443Y0184972D01*
X0240960Y0184455D01*
X0241994Y0184455D01*
X0242511Y0184972D01*
X0243666Y0184455D02*
X0245734Y0186524D01*
X0245734Y0184455D02*
X0243666Y0184455D01*
X0243360Y0182027D02*
X0242843Y0181510D01*
X0242843Y0179442D01*
X0243360Y0178925D01*
X0244394Y0178925D01*
X0244911Y0179442D01*
X0246066Y0178925D02*
X0248134Y0180993D01*
X0248134Y0181510D01*
X0247617Y0182027D01*
X0246583Y0182027D01*
X0246066Y0181510D01*
X0244911Y0181510D02*
X0244394Y0182027D01*
X0243360Y0182027D01*
X0246066Y0178925D02*
X0248134Y0178925D01*
X0237523Y0157910D02*
X0236488Y0157910D01*
X0235971Y0157393D01*
X0235971Y0156876D01*
X0236488Y0156359D01*
X0238040Y0156359D01*
X0238040Y0157393D02*
X0237523Y0157910D01*
X0238040Y0157393D02*
X0238040Y0155324D01*
X0237523Y0154807D01*
X0236488Y0154807D01*
X0235971Y0155324D01*
X0234817Y0154807D02*
X0232748Y0154807D01*
X0233783Y0154807D02*
X0233783Y0157910D01*
X0232748Y0156876D01*
X0231594Y0157393D02*
X0231077Y0157910D01*
X0230043Y0157910D01*
X0229526Y0157393D01*
X0229526Y0155324D01*
X0230043Y0154807D01*
X0231077Y0154807D01*
X0231594Y0155324D01*
X0244147Y0142788D02*
X0243630Y0142271D01*
X0243630Y0140202D01*
X0244147Y0139685D01*
X0245181Y0139685D01*
X0245699Y0140202D01*
X0246853Y0139685D02*
X0248921Y0139685D01*
X0247887Y0139685D02*
X0247887Y0142788D01*
X0246853Y0141754D01*
X0245699Y0142271D02*
X0245181Y0142788D01*
X0244147Y0142788D01*
X0250076Y0142271D02*
X0250076Y0141754D01*
X0250593Y0141237D01*
X0251627Y0141237D01*
X0252144Y0140720D01*
X0252144Y0140202D01*
X0251627Y0139685D01*
X0250593Y0139685D01*
X0250076Y0140202D01*
X0250076Y0140720D01*
X0250593Y0141237D01*
X0251627Y0141237D02*
X0252144Y0141754D01*
X0252144Y0142271D01*
X0251627Y0142788D01*
X0250593Y0142788D01*
X0250076Y0142271D01*
X0250121Y0135120D02*
X0249087Y0134603D01*
X0248053Y0133569D01*
X0249604Y0133569D01*
X0250121Y0133052D01*
X0250121Y0132535D01*
X0249604Y0132018D01*
X0248570Y0132018D01*
X0248053Y0132535D01*
X0248053Y0133569D01*
X0246899Y0133569D02*
X0246381Y0133052D01*
X0244830Y0133052D01*
X0245864Y0133052D02*
X0246899Y0132018D01*
X0246899Y0133569D02*
X0246899Y0134603D01*
X0246381Y0135120D01*
X0244830Y0135120D01*
X0244830Y0132018D01*
X0239033Y0110441D02*
X0236965Y0110441D01*
X0239033Y0110441D02*
X0239033Y0109924D01*
X0236965Y0107855D01*
X0236965Y0107338D01*
X0235811Y0107338D02*
X0233742Y0107338D01*
X0234776Y0107338D02*
X0234776Y0110441D01*
X0233742Y0109406D01*
X0232588Y0109924D02*
X0232071Y0110441D01*
X0231037Y0110441D01*
X0230519Y0109924D01*
X0230519Y0107855D01*
X0231037Y0107338D01*
X0232071Y0107338D01*
X0232588Y0107855D01*
X0214751Y0084540D02*
X0214751Y0082471D01*
X0214751Y0083505D02*
X0211649Y0083505D01*
X0212683Y0082471D01*
X0212166Y0081317D02*
X0211649Y0080800D01*
X0211649Y0079248D01*
X0214751Y0079248D01*
X0215512Y0079578D02*
X0216029Y0079061D01*
X0218097Y0079061D01*
X0218614Y0079578D01*
X0218614Y0080612D01*
X0218097Y0081129D01*
X0217063Y0082284D02*
X0217063Y0084352D01*
X0215512Y0083835D02*
X0217063Y0082284D01*
X0216029Y0081129D02*
X0215512Y0080612D01*
X0215512Y0079578D01*
X0213717Y0079248D02*
X0213717Y0080800D01*
X0213200Y0081317D01*
X0212166Y0081317D01*
X0213717Y0080283D02*
X0214751Y0081317D01*
X0215512Y0083835D02*
X0218614Y0083835D01*
X0220387Y0083959D02*
X0220387Y0081890D01*
X0221939Y0081890D01*
X0221422Y0082924D01*
X0221422Y0083441D01*
X0221939Y0083959D01*
X0222973Y0083959D01*
X0223490Y0083441D01*
X0223490Y0082407D01*
X0222973Y0081890D01*
X0222973Y0080736D02*
X0223490Y0080219D01*
X0223490Y0079184D01*
X0222973Y0078667D01*
X0220904Y0078667D01*
X0220387Y0079184D01*
X0220387Y0080219D01*
X0220904Y0080736D01*
X0220589Y0077931D02*
X0220589Y0074829D01*
X0221623Y0074829D02*
X0219554Y0074829D01*
X0218400Y0074829D02*
X0216332Y0074829D01*
X0217366Y0074829D02*
X0217366Y0077931D01*
X0216332Y0076897D01*
X0215177Y0076380D02*
X0214660Y0075863D01*
X0213109Y0075863D01*
X0214143Y0075863D02*
X0215177Y0074829D01*
X0215177Y0076380D02*
X0215177Y0077414D01*
X0214660Y0077931D01*
X0213109Y0077931D01*
X0213109Y0074829D01*
X0209787Y0079384D02*
X0207719Y0079384D01*
X0207202Y0079901D01*
X0207202Y0080935D01*
X0207719Y0081452D01*
X0208236Y0082607D02*
X0207202Y0083641D01*
X0210304Y0083641D01*
X0210304Y0082607D02*
X0210304Y0084675D01*
X0205413Y0083238D02*
X0204896Y0083238D01*
X0202827Y0085307D01*
X0202310Y0085307D01*
X0202310Y0083238D01*
X0202827Y0082084D02*
X0202310Y0081567D01*
X0202310Y0080532D01*
X0202827Y0080015D01*
X0202827Y0078861D02*
X0202310Y0078344D01*
X0202310Y0077310D01*
X0202827Y0076793D01*
X0204896Y0076793D01*
X0205413Y0077310D01*
X0205413Y0078344D01*
X0204896Y0078861D01*
X0205413Y0080015D02*
X0203344Y0082084D01*
X0202827Y0082084D01*
X0205413Y0082084D02*
X0205413Y0080015D01*
X0201373Y0078795D02*
X0201373Y0075692D01*
X0200339Y0075692D02*
X0202407Y0075692D01*
X0200339Y0077761D02*
X0201373Y0078795D01*
X0199184Y0078795D02*
X0199184Y0078278D01*
X0198150Y0077244D01*
X0198150Y0075692D01*
X0198150Y0077244D02*
X0197116Y0078278D01*
X0197116Y0078795D01*
X0197558Y0070202D02*
X0196524Y0070202D01*
X0196007Y0069685D01*
X0196007Y0067617D01*
X0196524Y0067099D01*
X0197558Y0067099D01*
X0198075Y0067617D01*
X0199229Y0067617D02*
X0199229Y0067099D01*
X0199229Y0067617D02*
X0201298Y0069685D01*
X0201298Y0070202D01*
X0199229Y0070202D01*
X0198075Y0069685D02*
X0197558Y0070202D01*
X0209787Y0079384D02*
X0210304Y0079901D01*
X0210304Y0080935D01*
X0209787Y0081452D01*
X0219554Y0076897D02*
X0220589Y0077931D01*
X0243002Y0076164D02*
X0243002Y0073062D01*
X0243002Y0074096D02*
X0244553Y0074096D01*
X0245070Y0074613D01*
X0245070Y0075647D01*
X0244553Y0076164D01*
X0243002Y0076164D01*
X0244036Y0074096D02*
X0245070Y0073062D01*
X0246225Y0073062D02*
X0248293Y0073062D01*
X0247259Y0073062D02*
X0247259Y0076164D01*
X0246225Y0075130D01*
X0249447Y0075647D02*
X0249964Y0076164D01*
X0250999Y0076164D01*
X0251516Y0075647D01*
X0251516Y0075130D01*
X0249447Y0073062D01*
X0251516Y0073062D01*
X0248691Y0057544D02*
X0246622Y0057544D01*
X0246622Y0055993D01*
X0247656Y0056510D01*
X0248174Y0056510D01*
X0248691Y0055993D01*
X0248691Y0054958D01*
X0248174Y0054441D01*
X0247139Y0054441D01*
X0246622Y0054958D01*
X0245468Y0054958D02*
X0244951Y0054441D01*
X0243399Y0054441D01*
X0243399Y0057544D01*
X0244951Y0057544D01*
X0245468Y0057027D01*
X0245468Y0054958D01*
X0209617Y0055096D02*
X0207548Y0055096D01*
X0209100Y0056648D01*
X0209100Y0053545D01*
X0206394Y0054062D02*
X0206394Y0056131D01*
X0205877Y0056648D01*
X0204325Y0056648D01*
X0204325Y0053545D01*
X0205877Y0053545D01*
X0206394Y0054062D01*
X0170543Y0054283D02*
X0170543Y0053766D01*
X0170026Y0053249D01*
X0168991Y0053249D01*
X0168474Y0053766D01*
X0167320Y0053766D02*
X0167320Y0055835D01*
X0166803Y0056352D01*
X0165251Y0056352D01*
X0165251Y0053249D01*
X0166803Y0053249D01*
X0167320Y0053766D01*
X0168474Y0055835D02*
X0168991Y0056352D01*
X0170026Y0056352D01*
X0170543Y0055835D01*
X0170543Y0055318D01*
X0170026Y0054800D01*
X0170543Y0054283D01*
X0170026Y0054800D02*
X0169508Y0054800D01*
X0155599Y0073670D02*
X0154564Y0073670D01*
X0154047Y0074187D01*
X0156116Y0076255D01*
X0156116Y0074187D01*
X0155599Y0073670D01*
X0154047Y0074187D02*
X0154047Y0076255D01*
X0154564Y0076772D01*
X0155599Y0076772D01*
X0156116Y0076255D01*
X0152893Y0073670D02*
X0150825Y0073670D01*
X0151859Y0073670D02*
X0151859Y0076772D01*
X0150825Y0075738D01*
X0149670Y0076255D02*
X0149670Y0075221D01*
X0149153Y0074704D01*
X0147602Y0074704D01*
X0148636Y0074704D02*
X0149670Y0073670D01*
X0147602Y0073670D02*
X0147602Y0076772D01*
X0149153Y0076772D01*
X0149670Y0076255D01*
X0130693Y0076559D02*
X0130693Y0074491D01*
X0130176Y0073973D01*
X0129142Y0073973D01*
X0128625Y0074491D01*
X0129142Y0075525D02*
X0130693Y0075525D01*
X0130693Y0076559D02*
X0130176Y0077076D01*
X0129142Y0077076D01*
X0128625Y0076559D01*
X0128625Y0076042D01*
X0129142Y0075525D01*
X0127470Y0075525D02*
X0127470Y0076559D01*
X0126953Y0077076D01*
X0125402Y0077076D01*
X0125402Y0073973D01*
X0125402Y0075008D02*
X0126953Y0075008D01*
X0127470Y0075525D01*
X0126436Y0075008D02*
X0127470Y0073973D01*
X0127729Y0056656D02*
X0126177Y0056656D01*
X0126177Y0053553D01*
X0127729Y0053553D01*
X0128246Y0054070D01*
X0128246Y0056139D01*
X0127729Y0056656D01*
X0129400Y0056139D02*
X0129917Y0056656D01*
X0130951Y0056656D01*
X0131469Y0056139D01*
X0131469Y0055621D01*
X0129400Y0053553D01*
X0131469Y0053553D01*
X0091939Y0078452D02*
X0091422Y0077935D01*
X0090388Y0077935D01*
X0089870Y0078452D01*
X0088716Y0077935D02*
X0086648Y0077935D01*
X0087682Y0077935D02*
X0087682Y0081038D01*
X0086648Y0080003D01*
X0085493Y0080520D02*
X0084976Y0081038D01*
X0083942Y0081038D01*
X0083425Y0080520D01*
X0083425Y0078452D01*
X0083942Y0077935D01*
X0084976Y0077935D01*
X0085493Y0078452D01*
X0089870Y0080520D02*
X0090388Y0081038D01*
X0091422Y0081038D01*
X0091939Y0080520D01*
X0091939Y0080003D01*
X0091422Y0079486D01*
X0091939Y0078969D01*
X0091939Y0078452D01*
X0091422Y0079486D02*
X0090905Y0079486D01*
X0112739Y0109532D02*
X0113773Y0109532D01*
X0114290Y0110049D01*
X0115445Y0109532D02*
X0117513Y0111600D01*
X0117513Y0112117D01*
X0116996Y0112634D01*
X0115962Y0112634D01*
X0115445Y0112117D01*
X0114290Y0112117D02*
X0113773Y0112634D01*
X0112739Y0112634D01*
X0112222Y0112117D01*
X0112222Y0110049D01*
X0112739Y0109532D01*
X0115445Y0109532D02*
X0117513Y0109532D01*
X0118667Y0110049D02*
X0119184Y0109532D01*
X0120219Y0109532D01*
X0120736Y0110049D01*
X0120736Y0111083D01*
X0120219Y0111600D01*
X0119701Y0111600D01*
X0118667Y0111083D01*
X0118667Y0112634D01*
X0120736Y0112634D01*
X0118129Y0114650D02*
X0116061Y0114650D01*
X0118129Y0116718D01*
X0118129Y0117235D01*
X0117612Y0117753D01*
X0116578Y0117753D01*
X0116061Y0117235D01*
X0114907Y0117235D02*
X0114907Y0116201D01*
X0114390Y0115684D01*
X0112838Y0115684D01*
X0112838Y0114650D02*
X0112838Y0117753D01*
X0114390Y0117753D01*
X0114907Y0117235D01*
X0113872Y0115684D02*
X0114907Y0114650D01*
X0124939Y0126506D02*
X0124939Y0129608D01*
X0126490Y0129608D01*
X0127007Y0129091D01*
X0127007Y0128057D01*
X0126490Y0127540D01*
X0124939Y0127540D01*
X0125973Y0127540D02*
X0127007Y0126506D01*
X0128162Y0127023D02*
X0128679Y0126506D01*
X0129713Y0126506D01*
X0130230Y0127023D01*
X0130230Y0128057D01*
X0129713Y0128574D01*
X0129196Y0128574D01*
X0128162Y0128057D01*
X0128162Y0129608D01*
X0130230Y0129608D01*
X0123336Y0136266D02*
X0123336Y0139369D01*
X0121784Y0137818D01*
X0123853Y0137818D01*
X0120630Y0138335D02*
X0120630Y0138852D01*
X0120113Y0139369D01*
X0119079Y0139369D01*
X0118562Y0138852D01*
X0117407Y0138852D02*
X0116890Y0139369D01*
X0115856Y0139369D01*
X0115339Y0138852D01*
X0115339Y0136784D01*
X0115856Y0136266D01*
X0116890Y0136266D01*
X0117407Y0136784D01*
X0118562Y0136266D02*
X0120630Y0138335D01*
X0120630Y0136266D02*
X0118562Y0136266D01*
X0118168Y0156158D02*
X0120236Y0158226D01*
X0120236Y0158743D01*
X0119719Y0159260D01*
X0118685Y0159260D01*
X0118168Y0158743D01*
X0117014Y0158743D02*
X0116496Y0159260D01*
X0115462Y0159260D01*
X0114945Y0158743D01*
X0114945Y0156675D01*
X0115462Y0156158D01*
X0116496Y0156158D01*
X0117014Y0156675D01*
X0118168Y0156158D02*
X0120236Y0156158D01*
X0121391Y0156675D02*
X0121908Y0156158D01*
X0122942Y0156158D01*
X0123459Y0156675D01*
X0123459Y0157192D01*
X0122942Y0157709D01*
X0122425Y0157709D01*
X0122942Y0157709D02*
X0123459Y0158226D01*
X0123459Y0158743D01*
X0122942Y0159260D01*
X0121908Y0159260D01*
X0121391Y0158743D01*
X0169215Y0159445D02*
X0170749Y0159445D01*
X0169982Y0159445D02*
X0169982Y0154841D01*
X0169215Y0154841D02*
X0170749Y0154841D01*
X0172284Y0155608D02*
X0173051Y0154841D01*
X0174586Y0154841D01*
X0175353Y0155608D01*
X0176888Y0154841D02*
X0179957Y0154841D01*
X0178423Y0154841D02*
X0178423Y0159445D01*
X0176888Y0157910D01*
X0175353Y0158678D02*
X0174586Y0159445D01*
X0173051Y0159445D01*
X0172284Y0158678D01*
X0172284Y0155608D01*
X0197670Y0190315D02*
X0199738Y0190315D01*
X0200255Y0190833D01*
X0200255Y0191867D01*
X0199738Y0192384D01*
X0200255Y0193538D02*
X0198187Y0195607D01*
X0197670Y0195607D01*
X0197153Y0195090D01*
X0197153Y0194055D01*
X0197670Y0193538D01*
X0197670Y0192384D02*
X0197153Y0191867D01*
X0197153Y0190833D01*
X0197670Y0190315D01*
X0200255Y0193538D02*
X0200255Y0195607D01*
X0199738Y0196761D02*
X0197670Y0198829D01*
X0199738Y0198829D01*
X0200255Y0198312D01*
X0200255Y0197278D01*
X0199738Y0196761D01*
X0197670Y0196761D01*
X0197153Y0197278D01*
X0197153Y0198312D01*
X0197670Y0198829D01*
X0179596Y0198633D02*
X0179596Y0199667D01*
X0179078Y0200184D01*
X0179596Y0201338D02*
X0177527Y0203407D01*
X0177010Y0203407D01*
X0176493Y0202890D01*
X0176493Y0201855D01*
X0177010Y0201338D01*
X0177010Y0200184D02*
X0176493Y0199667D01*
X0176493Y0198633D01*
X0177010Y0198115D01*
X0179078Y0198115D01*
X0179596Y0198633D01*
X0179596Y0201338D02*
X0179596Y0203407D01*
X0179596Y0204561D02*
X0179596Y0206629D01*
X0179596Y0205595D02*
X0176493Y0205595D01*
X0177527Y0204561D01*
X0106125Y0256766D02*
X0106125Y0258834D01*
X0105090Y0259868D01*
X0104056Y0258834D01*
X0104056Y0256766D01*
X0104056Y0258317D02*
X0106125Y0258317D01*
X0102902Y0258317D02*
X0102902Y0259351D01*
X0102385Y0259868D01*
X0100833Y0259868D01*
X0100833Y0256766D01*
X0100833Y0257800D02*
X0102385Y0257800D01*
X0102902Y0258317D01*
X0099679Y0258317D02*
X0099679Y0257283D01*
X0099162Y0256766D01*
X0098128Y0256766D01*
X0097611Y0257283D01*
X0097611Y0258317D02*
X0098645Y0258834D01*
X0099162Y0258834D01*
X0099679Y0258317D01*
X0099679Y0259868D02*
X0097611Y0259868D01*
X0097611Y0258317D01*
X0096456Y0258317D02*
X0094388Y0258317D01*
X0093234Y0258834D02*
X0092717Y0258317D01*
X0091165Y0258317D01*
X0090011Y0258317D02*
X0087942Y0258317D01*
X0086788Y0258834D02*
X0086788Y0259351D01*
X0086271Y0259868D01*
X0085237Y0259868D01*
X0084720Y0259351D01*
X0083565Y0259868D02*
X0082531Y0259351D01*
X0081497Y0258317D01*
X0083048Y0258317D01*
X0083565Y0257800D01*
X0083565Y0257283D01*
X0083048Y0256766D01*
X0082014Y0256766D01*
X0081497Y0257283D01*
X0081497Y0258317D01*
X0080343Y0259868D02*
X0078274Y0256766D01*
X0077120Y0256766D02*
X0075051Y0256766D01*
X0075051Y0257283D01*
X0077120Y0259351D01*
X0077120Y0259868D01*
X0075051Y0259868D01*
X0078274Y0259868D02*
X0080343Y0256766D01*
X0084720Y0256766D02*
X0086788Y0258834D01*
X0086788Y0256766D02*
X0084720Y0256766D01*
X0091165Y0256766D02*
X0092717Y0256766D01*
X0093234Y0257283D01*
X0093234Y0257800D01*
X0092717Y0258317D01*
X0093234Y0258834D02*
X0093234Y0259351D01*
X0092717Y0259868D01*
X0091165Y0259868D01*
X0091165Y0256766D01*
X0174809Y0091555D02*
X0174292Y0091038D01*
X0174292Y0088969D01*
X0174809Y0088452D01*
X0175843Y0088452D01*
X0176360Y0088969D01*
X0177514Y0088452D02*
X0179583Y0088452D01*
X0178549Y0088452D02*
X0178549Y0091555D01*
X0177514Y0090521D01*
X0176360Y0091038D02*
X0175843Y0091555D01*
X0174809Y0091555D01*
X0180737Y0090004D02*
X0182806Y0090004D01*
X0182288Y0091555D02*
X0180737Y0090004D01*
X0182288Y0091555D02*
X0182288Y0088452D01*
X0190112Y0088736D02*
X0190112Y0091838D01*
X0191663Y0091838D01*
X0192180Y0091321D01*
X0192180Y0090287D01*
X0191663Y0089770D01*
X0190112Y0089770D01*
X0191146Y0089770D02*
X0192180Y0088736D01*
X0193335Y0089253D02*
X0193852Y0088736D01*
X0194886Y0088736D01*
X0195403Y0089253D01*
X0195403Y0089770D01*
X0194886Y0090287D01*
X0194369Y0090287D01*
X0194886Y0090287D02*
X0195403Y0090804D01*
X0195403Y0091321D01*
X0194886Y0091838D01*
X0193852Y0091838D01*
X0193335Y0091321D01*
X0175652Y0080804D02*
X0174618Y0080287D01*
X0173584Y0079253D01*
X0175135Y0079253D01*
X0175652Y0078736D01*
X0175652Y0078219D01*
X0175135Y0077702D01*
X0174101Y0077702D01*
X0173584Y0078219D01*
X0173584Y0079253D01*
X0172429Y0078219D02*
X0171912Y0077702D01*
X0170878Y0077702D01*
X0170361Y0078219D01*
X0170361Y0080287D01*
X0170878Y0080804D01*
X0171912Y0080804D01*
X0172429Y0080287D01*
X0283202Y0078260D02*
X0283202Y0075158D01*
X0283202Y0076192D02*
X0284753Y0076192D01*
X0285270Y0076709D01*
X0285270Y0077743D01*
X0284753Y0078260D01*
X0283202Y0078260D01*
X0284236Y0076192D02*
X0285270Y0075158D01*
X0286425Y0075158D02*
X0288493Y0075158D01*
X0287459Y0075158D02*
X0287459Y0078260D01*
X0286425Y0077226D01*
X0289647Y0077743D02*
X0290164Y0078260D01*
X0291199Y0078260D01*
X0291716Y0077743D01*
X0291716Y0077226D01*
X0291199Y0076709D01*
X0291716Y0076192D01*
X0291716Y0075675D01*
X0291199Y0075158D01*
X0290164Y0075158D01*
X0289647Y0075675D01*
X0290682Y0076709D02*
X0291199Y0076709D01*
X0295721Y0075712D02*
X0296238Y0076230D01*
X0297273Y0076230D01*
X0297790Y0075712D01*
X0297790Y0074161D01*
X0298824Y0074161D02*
X0295721Y0074161D01*
X0295721Y0075712D01*
X0296238Y0077384D02*
X0295721Y0077901D01*
X0295721Y0078935D01*
X0296238Y0079452D01*
X0296755Y0079452D01*
X0298824Y0077384D01*
X0298824Y0079452D01*
X0298307Y0080607D02*
X0298824Y0081124D01*
X0298824Y0082158D01*
X0298307Y0082675D01*
X0297273Y0082675D01*
X0296755Y0082158D01*
X0296755Y0081641D01*
X0297273Y0080607D01*
X0295721Y0080607D01*
X0295721Y0082675D01*
X0302321Y0081741D02*
X0305424Y0081741D01*
X0305424Y0080707D02*
X0305424Y0082775D01*
X0303355Y0080707D02*
X0302321Y0081741D01*
X0302321Y0078518D02*
X0305424Y0078518D01*
X0305424Y0077484D02*
X0305424Y0079552D01*
X0303355Y0077484D02*
X0302321Y0078518D01*
X0302838Y0076330D02*
X0302321Y0075812D01*
X0302321Y0074261D01*
X0305424Y0074261D01*
X0305424Y0075812D01*
X0304907Y0076330D01*
X0302838Y0076330D01*
X0298824Y0076230D02*
X0297790Y0075195D01*
X0308321Y0075112D02*
X0308321Y0073561D01*
X0311424Y0073561D01*
X0310390Y0073561D02*
X0310390Y0075112D01*
X0309873Y0075630D01*
X0308838Y0075630D01*
X0308321Y0075112D01*
X0308838Y0076784D02*
X0308321Y0077301D01*
X0308321Y0078335D01*
X0308838Y0078852D01*
X0309355Y0078852D01*
X0311424Y0076784D01*
X0311424Y0078852D01*
X0310907Y0080007D02*
X0309873Y0080007D01*
X0309873Y0081558D01*
X0310390Y0082075D01*
X0310907Y0082075D01*
X0311424Y0081558D01*
X0311424Y0080524D01*
X0310907Y0080007D01*
X0309873Y0080007D02*
X0308838Y0081041D01*
X0308321Y0082075D01*
X0311424Y0075630D02*
X0310390Y0074595D01*
X0287765Y0056640D02*
X0286730Y0056123D01*
X0285696Y0055089D01*
X0287248Y0055089D01*
X0287765Y0054571D01*
X0287765Y0054054D01*
X0287248Y0053537D01*
X0286213Y0053537D01*
X0285696Y0054054D01*
X0285696Y0055089D01*
X0284542Y0056123D02*
X0284025Y0056640D01*
X0282473Y0056640D01*
X0282473Y0053537D01*
X0284025Y0053537D01*
X0284542Y0054054D01*
X0284542Y0056123D01*
D13*
X0125275Y0175729D02*
X0123011Y0175729D01*
X0125275Y0175729D02*
X0125275Y0193445D01*
X0113169Y0193445D02*
X0110905Y0193445D01*
X0110905Y0175729D01*
X0113169Y0175729D01*
X0123011Y0193445D02*
X0124143Y0193436D01*
X0125275Y0193445D01*
D14*
X0123996Y0180158D03*
X0112185Y0180158D03*
D15*
X0112135Y0170975D02*
X0114387Y0170975D01*
X0115138Y0170225D01*
X0115138Y0167222D01*
X0114387Y0166472D01*
X0112135Y0166472D01*
X0112135Y0170975D01*
X0116739Y0170225D02*
X0116739Y0169474D01*
X0117490Y0168723D01*
X0118991Y0168723D01*
X0119742Y0167973D01*
X0119742Y0167222D01*
X0118991Y0166472D01*
X0117490Y0166472D01*
X0116739Y0167222D01*
X0116739Y0167973D01*
X0117490Y0168723D01*
X0118991Y0168723D02*
X0119742Y0169474D01*
X0119742Y0170225D01*
X0118991Y0170975D01*
X0117490Y0170975D01*
X0116739Y0170225D01*
X0142440Y0185822D02*
X0221180Y0185822D01*
X0221180Y0107082D01*
X0142440Y0107082D01*
X0142440Y0185822D01*
X0166617Y0206089D02*
X0117404Y0206089D01*
X0111646Y0233845D02*
X0111646Y0239948D01*
X0117404Y0245459D02*
X0166617Y0245459D01*
X0194810Y0224081D02*
X0224810Y0224081D01*
X0224810Y0214081D01*
X0194810Y0214081D01*
X0194810Y0224081D01*
X0231778Y0224081D02*
X0231778Y0214081D01*
X0291778Y0214081D01*
X0291778Y0224081D01*
X0231778Y0224081D01*
X0270265Y0205900D02*
X0321446Y0205900D01*
X0316109Y0233935D02*
X0296424Y0233935D01*
X0296424Y0245746D02*
X0316109Y0245746D01*
X0144227Y0110035D02*
X0144229Y0110104D01*
X0144235Y0110172D01*
X0144245Y0110240D01*
X0144258Y0110308D01*
X0144276Y0110374D01*
X0144297Y0110440D01*
X0144322Y0110504D01*
X0144351Y0110567D01*
X0144383Y0110628D01*
X0144418Y0110686D01*
X0144457Y0110743D01*
X0144499Y0110798D01*
X0144544Y0110850D01*
X0144592Y0110899D01*
X0144643Y0110946D01*
X0144696Y0110989D01*
X0144752Y0111030D01*
X0144810Y0111067D01*
X0144870Y0111101D01*
X0144931Y0111131D01*
X0144995Y0111158D01*
X0145060Y0111181D01*
X0145126Y0111200D01*
X0145193Y0111216D01*
X0145261Y0111228D01*
X0145329Y0111236D01*
X0145398Y0111240D01*
X0145466Y0111240D01*
X0145535Y0111236D01*
X0145603Y0111228D01*
X0145671Y0111216D01*
X0145738Y0111200D01*
X0145804Y0111181D01*
X0145869Y0111158D01*
X0145933Y0111131D01*
X0145994Y0111101D01*
X0146054Y0111067D01*
X0146112Y0111030D01*
X0146168Y0110989D01*
X0146221Y0110946D01*
X0146272Y0110899D01*
X0146320Y0110850D01*
X0146365Y0110798D01*
X0146407Y0110743D01*
X0146446Y0110686D01*
X0146481Y0110628D01*
X0146513Y0110567D01*
X0146542Y0110504D01*
X0146567Y0110440D01*
X0146588Y0110374D01*
X0146606Y0110308D01*
X0146619Y0110240D01*
X0146629Y0110172D01*
X0146635Y0110104D01*
X0146637Y0110035D01*
X0146635Y0109966D01*
X0146629Y0109898D01*
X0146619Y0109830D01*
X0146606Y0109762D01*
X0146588Y0109696D01*
X0146567Y0109630D01*
X0146542Y0109566D01*
X0146513Y0109503D01*
X0146481Y0109442D01*
X0146446Y0109384D01*
X0146407Y0109327D01*
X0146365Y0109272D01*
X0146320Y0109220D01*
X0146272Y0109171D01*
X0146221Y0109124D01*
X0146168Y0109081D01*
X0146112Y0109040D01*
X0146054Y0109003D01*
X0145994Y0108969D01*
X0145933Y0108939D01*
X0145869Y0108912D01*
X0145804Y0108889D01*
X0145738Y0108870D01*
X0145671Y0108854D01*
X0145603Y0108842D01*
X0145535Y0108834D01*
X0145466Y0108830D01*
X0145398Y0108830D01*
X0145329Y0108834D01*
X0145261Y0108842D01*
X0145193Y0108854D01*
X0145126Y0108870D01*
X0145060Y0108889D01*
X0144995Y0108912D01*
X0144931Y0108939D01*
X0144870Y0108969D01*
X0144810Y0109003D01*
X0144752Y0109040D01*
X0144696Y0109081D01*
X0144643Y0109124D01*
X0144592Y0109171D01*
X0144544Y0109220D01*
X0144499Y0109272D01*
X0144457Y0109327D01*
X0144418Y0109384D01*
X0144383Y0109442D01*
X0144351Y0109503D01*
X0144322Y0109566D01*
X0144297Y0109630D01*
X0144276Y0109696D01*
X0144258Y0109762D01*
X0144245Y0109830D01*
X0144235Y0109898D01*
X0144229Y0109966D01*
X0144227Y0110035D01*
X0182325Y0085529D02*
X0182327Y0085588D01*
X0182333Y0085646D01*
X0182343Y0085704D01*
X0182356Y0085761D01*
X0182374Y0085818D01*
X0182395Y0085873D01*
X0182420Y0085926D01*
X0182448Y0085977D01*
X0182479Y0086027D01*
X0182514Y0086074D01*
X0182552Y0086119D01*
X0182593Y0086162D01*
X0182637Y0086201D01*
X0182683Y0086237D01*
X0182731Y0086271D01*
X0182782Y0086301D01*
X0182835Y0086327D01*
X0182889Y0086350D01*
X0182944Y0086369D01*
X0183001Y0086385D01*
X0183059Y0086397D01*
X0183117Y0086405D01*
X0183176Y0086409D01*
X0183234Y0086409D01*
X0183293Y0086405D01*
X0183351Y0086397D01*
X0183409Y0086385D01*
X0183466Y0086369D01*
X0183521Y0086350D01*
X0183575Y0086327D01*
X0183628Y0086301D01*
X0183679Y0086271D01*
X0183727Y0086237D01*
X0183773Y0086201D01*
X0183817Y0086162D01*
X0183858Y0086119D01*
X0183896Y0086074D01*
X0183931Y0086027D01*
X0183962Y0085977D01*
X0183990Y0085926D01*
X0184015Y0085873D01*
X0184036Y0085818D01*
X0184054Y0085761D01*
X0184067Y0085704D01*
X0184077Y0085646D01*
X0184083Y0085588D01*
X0184085Y0085529D01*
X0184083Y0085470D01*
X0184077Y0085412D01*
X0184067Y0085354D01*
X0184054Y0085297D01*
X0184036Y0085240D01*
X0184015Y0085185D01*
X0183990Y0085132D01*
X0183962Y0085081D01*
X0183931Y0085031D01*
X0183896Y0084984D01*
X0183858Y0084939D01*
X0183817Y0084896D01*
X0183773Y0084857D01*
X0183727Y0084821D01*
X0183679Y0084787D01*
X0183628Y0084757D01*
X0183575Y0084731D01*
X0183521Y0084708D01*
X0183466Y0084689D01*
X0183409Y0084673D01*
X0183351Y0084661D01*
X0183293Y0084653D01*
X0183234Y0084649D01*
X0183176Y0084649D01*
X0183117Y0084653D01*
X0183059Y0084661D01*
X0183001Y0084673D01*
X0182944Y0084689D01*
X0182889Y0084708D01*
X0182835Y0084731D01*
X0182782Y0084757D01*
X0182731Y0084787D01*
X0182683Y0084821D01*
X0182637Y0084857D01*
X0182593Y0084896D01*
X0182552Y0084939D01*
X0182514Y0084984D01*
X0182479Y0085031D01*
X0182448Y0085081D01*
X0182420Y0085132D01*
X0182395Y0085185D01*
X0182374Y0085240D01*
X0182356Y0085297D01*
X0182343Y0085354D01*
X0182333Y0085412D01*
X0182327Y0085470D01*
X0182325Y0085529D01*
X0185397Y0082873D02*
X0185397Y0078149D01*
X0188350Y0074212D02*
X0192287Y0074212D01*
X0195240Y0078149D02*
X0195240Y0082873D01*
X0192287Y0086810D02*
X0188350Y0086810D01*
X0270265Y0099601D02*
X0321446Y0099601D01*
X0111646Y0233845D02*
X0110071Y0233845D01*
X0111646Y0249790D02*
X0111646Y0253333D01*
X0111646Y0253530D02*
X0082512Y0253530D01*
X0081134Y0255892D01*
X0113024Y0255892D01*
X0111646Y0253530D01*
X0111579Y0251066D02*
X0082579Y0251066D01*
X0082512Y0249790D02*
X0082512Y0253333D01*
X0082512Y0240341D02*
X0082512Y0233845D01*
X0084481Y0233845D01*
X0073761Y0182166D02*
X0065887Y0182166D01*
X0065887Y0174292D01*
X0073761Y0174292D01*
X0073761Y0182166D01*
D16*
X0083495Y0194695D02*
X0083668Y0194695D01*
X0083495Y0194695D02*
X0083495Y0200482D01*
X0083668Y0200482D01*
X0086841Y0200482D02*
X0090951Y0200482D01*
X0094125Y0200482D02*
X0094298Y0200482D01*
X0094298Y0194695D01*
X0094125Y0194695D01*
X0090951Y0194695D02*
X0090581Y0194695D01*
X0087211Y0194695D02*
X0086841Y0194695D01*
X0087140Y0150912D02*
X0087314Y0150912D01*
X0087140Y0150912D02*
X0087140Y0145125D01*
X0087314Y0145125D01*
X0090487Y0145125D02*
X0094597Y0145125D01*
X0097770Y0145125D02*
X0097944Y0145125D01*
X0097944Y0150912D01*
X0097770Y0150912D01*
X0094597Y0150912D02*
X0094227Y0150912D01*
X0090857Y0150912D02*
X0090487Y0150912D01*
X0083813Y0111639D02*
X0101529Y0111639D01*
X0101591Y0111637D01*
X0101652Y0111631D01*
X0101713Y0111622D01*
X0101774Y0111608D01*
X0101833Y0111591D01*
X0101891Y0111570D01*
X0101948Y0111545D01*
X0102003Y0111517D01*
X0102056Y0111486D01*
X0102107Y0111451D01*
X0102156Y0111413D01*
X0102203Y0111372D01*
X0102246Y0111329D01*
X0102287Y0111282D01*
X0102325Y0111233D01*
X0102360Y0111182D01*
X0102391Y0111129D01*
X0102419Y0111074D01*
X0102444Y0111017D01*
X0102465Y0110959D01*
X0102482Y0110900D01*
X0102496Y0110839D01*
X0102505Y0110778D01*
X0102511Y0110717D01*
X0102513Y0110655D01*
X0102514Y0110576D02*
X0102514Y0110162D01*
X0102514Y0107564D02*
X0102514Y0105202D01*
X0102514Y0102564D02*
X0102514Y0100202D01*
X0102514Y0097564D02*
X0102514Y0095241D01*
X0102514Y0092603D02*
X0102514Y0092190D01*
X0102513Y0092151D02*
X0102511Y0092089D01*
X0102505Y0092028D01*
X0102496Y0091967D01*
X0102482Y0091906D01*
X0102465Y0091847D01*
X0102444Y0091789D01*
X0102419Y0091732D01*
X0102391Y0091677D01*
X0102360Y0091624D01*
X0102325Y0091573D01*
X0102287Y0091524D01*
X0102246Y0091477D01*
X0102203Y0091434D01*
X0102156Y0091393D01*
X0102107Y0091355D01*
X0102056Y0091320D01*
X0102003Y0091289D01*
X0101948Y0091261D01*
X0101891Y0091236D01*
X0101833Y0091215D01*
X0101774Y0091198D01*
X0101713Y0091184D01*
X0101652Y0091175D01*
X0101591Y0091169D01*
X0101529Y0091167D01*
X0101490Y0091166D02*
X0083813Y0091166D01*
X0083813Y0091167D02*
X0083751Y0091169D01*
X0083690Y0091175D01*
X0083629Y0091184D01*
X0083568Y0091198D01*
X0083509Y0091215D01*
X0083451Y0091236D01*
X0083394Y0091261D01*
X0083339Y0091289D01*
X0083286Y0091320D01*
X0083235Y0091355D01*
X0083186Y0091393D01*
X0083139Y0091434D01*
X0083096Y0091477D01*
X0083055Y0091524D01*
X0083017Y0091573D01*
X0082982Y0091624D01*
X0082951Y0091677D01*
X0082923Y0091732D01*
X0082898Y0091789D01*
X0082877Y0091847D01*
X0082860Y0091906D01*
X0082846Y0091967D01*
X0082837Y0092028D01*
X0082831Y0092089D01*
X0082829Y0092151D01*
X0082829Y0092190D02*
X0082829Y0092603D01*
X0082829Y0095241D02*
X0082829Y0097564D01*
X0082829Y0100241D02*
X0082829Y0102564D01*
X0082829Y0105241D02*
X0082829Y0107564D01*
X0082829Y0110202D02*
X0082829Y0110694D01*
X0082829Y0110655D02*
X0082831Y0110717D01*
X0082837Y0110778D01*
X0082846Y0110839D01*
X0082860Y0110900D01*
X0082877Y0110959D01*
X0082898Y0111017D01*
X0082923Y0111074D01*
X0082951Y0111129D01*
X0082982Y0111182D01*
X0083017Y0111233D01*
X0083055Y0111282D01*
X0083096Y0111329D01*
X0083139Y0111372D01*
X0083186Y0111413D01*
X0083235Y0111451D01*
X0083286Y0111486D01*
X0083339Y0111517D01*
X0083394Y0111545D01*
X0083451Y0111570D01*
X0083509Y0111591D01*
X0083568Y0111608D01*
X0083629Y0111622D01*
X0083690Y0111631D01*
X0083751Y0111637D01*
X0083813Y0111639D01*
D17*
X0095092Y0095812D02*
X0095094Y0095900D01*
X0095100Y0095988D01*
X0095110Y0096076D01*
X0095124Y0096164D01*
X0095141Y0096250D01*
X0095163Y0096336D01*
X0095188Y0096420D01*
X0095218Y0096504D01*
X0095250Y0096586D01*
X0095287Y0096666D01*
X0095327Y0096745D01*
X0095371Y0096822D01*
X0095418Y0096897D01*
X0095468Y0096969D01*
X0095522Y0097040D01*
X0095578Y0097107D01*
X0095638Y0097173D01*
X0095700Y0097235D01*
X0095766Y0097295D01*
X0095833Y0097351D01*
X0095904Y0097405D01*
X0095976Y0097455D01*
X0096051Y0097502D01*
X0096128Y0097546D01*
X0096207Y0097586D01*
X0096287Y0097623D01*
X0096369Y0097655D01*
X0096453Y0097685D01*
X0096537Y0097710D01*
X0096623Y0097732D01*
X0096709Y0097749D01*
X0096797Y0097763D01*
X0096885Y0097773D01*
X0096973Y0097779D01*
X0097061Y0097781D01*
X0097149Y0097779D01*
X0097237Y0097773D01*
X0097325Y0097763D01*
X0097413Y0097749D01*
X0097499Y0097732D01*
X0097585Y0097710D01*
X0097669Y0097685D01*
X0097753Y0097655D01*
X0097835Y0097623D01*
X0097915Y0097586D01*
X0097994Y0097546D01*
X0098071Y0097502D01*
X0098146Y0097455D01*
X0098218Y0097405D01*
X0098289Y0097351D01*
X0098356Y0097295D01*
X0098422Y0097235D01*
X0098484Y0097173D01*
X0098544Y0097107D01*
X0098600Y0097040D01*
X0098654Y0096969D01*
X0098704Y0096897D01*
X0098751Y0096822D01*
X0098795Y0096745D01*
X0098835Y0096666D01*
X0098872Y0096586D01*
X0098904Y0096504D01*
X0098934Y0096420D01*
X0098959Y0096336D01*
X0098981Y0096250D01*
X0098998Y0096164D01*
X0099012Y0096076D01*
X0099022Y0095988D01*
X0099028Y0095900D01*
X0099030Y0095812D01*
X0099028Y0095724D01*
X0099022Y0095636D01*
X0099012Y0095548D01*
X0098998Y0095460D01*
X0098981Y0095374D01*
X0098959Y0095288D01*
X0098934Y0095204D01*
X0098904Y0095120D01*
X0098872Y0095038D01*
X0098835Y0094958D01*
X0098795Y0094879D01*
X0098751Y0094802D01*
X0098704Y0094727D01*
X0098654Y0094655D01*
X0098600Y0094584D01*
X0098544Y0094517D01*
X0098484Y0094451D01*
X0098422Y0094389D01*
X0098356Y0094329D01*
X0098289Y0094273D01*
X0098218Y0094219D01*
X0098146Y0094169D01*
X0098071Y0094122D01*
X0097994Y0094078D01*
X0097915Y0094038D01*
X0097835Y0094001D01*
X0097753Y0093969D01*
X0097669Y0093939D01*
X0097585Y0093914D01*
X0097499Y0093892D01*
X0097413Y0093875D01*
X0097325Y0093861D01*
X0097237Y0093851D01*
X0097149Y0093845D01*
X0097061Y0093843D01*
X0096973Y0093845D01*
X0096885Y0093851D01*
X0096797Y0093861D01*
X0096709Y0093875D01*
X0096623Y0093892D01*
X0096537Y0093914D01*
X0096453Y0093939D01*
X0096369Y0093969D01*
X0096287Y0094001D01*
X0096207Y0094038D01*
X0096128Y0094078D01*
X0096051Y0094122D01*
X0095976Y0094169D01*
X0095904Y0094219D01*
X0095833Y0094273D01*
X0095766Y0094329D01*
X0095700Y0094389D01*
X0095638Y0094451D01*
X0095578Y0094517D01*
X0095522Y0094584D01*
X0095468Y0094655D01*
X0095418Y0094727D01*
X0095371Y0094802D01*
X0095327Y0094879D01*
X0095287Y0094958D01*
X0095250Y0095038D01*
X0095218Y0095120D01*
X0095188Y0095204D01*
X0095163Y0095288D01*
X0095141Y0095374D01*
X0095124Y0095460D01*
X0095110Y0095548D01*
X0095100Y0095636D01*
X0095094Y0095724D01*
X0095092Y0095812D01*
X0095975Y0136240D02*
X0097443Y0136240D01*
X0096709Y0136240D02*
X0096709Y0138442D01*
X0095975Y0137708D01*
X0095233Y0137341D02*
X0093765Y0137341D01*
X0093023Y0136974D02*
X0093023Y0136607D01*
X0092656Y0136240D01*
X0091922Y0136240D01*
X0091555Y0136607D01*
X0090813Y0136240D02*
X0089345Y0136240D01*
X0090079Y0136240D02*
X0090079Y0138442D01*
X0089345Y0137708D01*
X0088603Y0138075D02*
X0087135Y0136607D01*
X0087502Y0136240D01*
X0088236Y0136240D01*
X0088603Y0136607D01*
X0088603Y0138075D01*
X0088236Y0138442D01*
X0087502Y0138442D01*
X0087135Y0138075D01*
X0087135Y0136607D01*
X0086393Y0136607D02*
X0086026Y0136240D01*
X0085293Y0136240D01*
X0084926Y0136607D01*
X0085293Y0137341D02*
X0086393Y0137341D01*
X0086393Y0136607D02*
X0086393Y0138075D01*
X0086026Y0138442D01*
X0085293Y0138442D01*
X0084926Y0138075D01*
X0084926Y0137708D01*
X0085293Y0137341D01*
X0084184Y0138442D02*
X0082716Y0138442D01*
X0083450Y0138442D02*
X0083450Y0136240D01*
X0081974Y0136240D02*
X0081240Y0136974D01*
X0081607Y0136974D02*
X0080506Y0136974D01*
X0080506Y0136240D02*
X0080506Y0138442D01*
X0081607Y0138442D01*
X0081974Y0138075D01*
X0081974Y0137341D01*
X0081607Y0136974D01*
X0091555Y0138075D02*
X0091922Y0138442D01*
X0092656Y0138442D01*
X0093023Y0138075D01*
X0093023Y0137708D01*
X0092656Y0137341D01*
X0093023Y0136974D01*
X0092656Y0137341D02*
X0092289Y0137341D01*
X0095523Y0190188D02*
X0096257Y0190922D01*
X0095523Y0191656D01*
X0097725Y0191656D01*
X0097358Y0192398D02*
X0097725Y0192765D01*
X0097725Y0193499D01*
X0097358Y0193866D01*
X0097725Y0194608D02*
X0095523Y0194608D01*
X0095523Y0195709D01*
X0095890Y0196076D01*
X0096624Y0196076D01*
X0096991Y0195709D01*
X0096991Y0194608D01*
X0095890Y0193866D02*
X0095523Y0193499D01*
X0095523Y0192765D01*
X0095890Y0192398D01*
X0097358Y0192398D01*
X0097725Y0190188D02*
X0095523Y0190188D01*
X0095523Y0196818D02*
X0095523Y0198286D01*
X0095890Y0198286D01*
X0097358Y0196818D01*
X0097725Y0196818D01*
X0097358Y0199028D02*
X0097725Y0199395D01*
X0097725Y0200129D01*
X0097358Y0200496D01*
X0096991Y0200496D01*
X0096624Y0200129D01*
X0096624Y0199762D01*
X0096624Y0200129D02*
X0096257Y0200496D01*
X0095890Y0200496D01*
X0095523Y0200129D01*
X0095523Y0199395D01*
X0095890Y0199028D01*
X0095890Y0201238D02*
X0096257Y0201238D01*
X0096624Y0201605D01*
X0096624Y0202339D01*
X0096991Y0202706D01*
X0097358Y0202706D01*
X0097725Y0202339D01*
X0097725Y0201605D01*
X0097358Y0201238D01*
X0096991Y0201238D01*
X0096624Y0201605D01*
X0096624Y0202339D02*
X0096257Y0202706D01*
X0095890Y0202706D01*
X0095523Y0202339D01*
X0095523Y0201605D01*
X0095890Y0201238D01*
X0095890Y0203448D02*
X0095523Y0203815D01*
X0095523Y0204549D01*
X0095890Y0204916D01*
X0096257Y0204916D01*
X0096624Y0204549D01*
X0096991Y0204916D01*
X0097358Y0204916D01*
X0097725Y0204549D01*
X0097725Y0203815D01*
X0097358Y0203448D01*
X0096624Y0204182D02*
X0096624Y0204549D01*
X0096257Y0205658D02*
X0095523Y0206392D01*
X0097725Y0206392D01*
X0097725Y0205658D02*
X0097725Y0207126D01*
X0096624Y0207867D02*
X0096624Y0209335D01*
X0096257Y0210077D02*
X0095523Y0210811D01*
X0097725Y0210811D01*
X0097725Y0210077D02*
X0097725Y0211545D01*
D18*
X0065448Y0182692D03*
M02*
