G75*
%MOIN*%
%OFA0B0*%
%FSLAX25Y25*%
%IPPOS*%
%LPD*%
%AMOC8*
5,1,8,0,0,1.08239X$1,22.5*
%
%ADD10C,0.00000*%
D10*
X0070900Y0037900D02*
X0070900Y0292900D01*
X0070902Y0293018D01*
X0070908Y0293135D01*
X0070917Y0293253D01*
X0070931Y0293370D01*
X0070948Y0293486D01*
X0070969Y0293602D01*
X0070994Y0293717D01*
X0071023Y0293832D01*
X0071055Y0293945D01*
X0071091Y0294057D01*
X0071131Y0294168D01*
X0071174Y0294278D01*
X0071221Y0294386D01*
X0071271Y0294492D01*
X0071325Y0294597D01*
X0071382Y0294700D01*
X0071443Y0294801D01*
X0071507Y0294900D01*
X0071574Y0294997D01*
X0071644Y0295092D01*
X0071717Y0295184D01*
X0071793Y0295274D01*
X0071872Y0295361D01*
X0071954Y0295446D01*
X0072039Y0295528D01*
X0072126Y0295607D01*
X0072216Y0295683D01*
X0072308Y0295756D01*
X0072403Y0295826D01*
X0072500Y0295893D01*
X0072599Y0295957D01*
X0072700Y0296018D01*
X0072803Y0296075D01*
X0072908Y0296129D01*
X0073014Y0296179D01*
X0073122Y0296226D01*
X0073232Y0296269D01*
X0073343Y0296309D01*
X0073455Y0296345D01*
X0073568Y0296377D01*
X0073683Y0296406D01*
X0073798Y0296431D01*
X0073914Y0296452D01*
X0074030Y0296469D01*
X0074147Y0296483D01*
X0074265Y0296492D01*
X0074382Y0296498D01*
X0074500Y0296500D01*
X0251500Y0296500D01*
X0251659Y0296498D01*
X0251819Y0296492D01*
X0251978Y0296483D01*
X0252137Y0296469D01*
X0252296Y0296452D01*
X0252454Y0296431D01*
X0252611Y0296406D01*
X0252768Y0296377D01*
X0252924Y0296345D01*
X0253079Y0296308D01*
X0253234Y0296268D01*
X0253387Y0296224D01*
X0253540Y0296177D01*
X0253691Y0296126D01*
X0253840Y0296071D01*
X0253989Y0296013D01*
X0254136Y0295951D01*
X0254281Y0295885D01*
X0254425Y0295816D01*
X0254567Y0295744D01*
X0254707Y0295668D01*
X0254846Y0295589D01*
X0254982Y0295506D01*
X0255117Y0295421D01*
X0255249Y0295332D01*
X0255379Y0295240D01*
X0255507Y0295144D01*
X0255633Y0295046D01*
X0255756Y0294944D01*
X0255877Y0294840D01*
X0255995Y0294733D01*
X0256110Y0294623D01*
X0256223Y0294510D01*
X0256333Y0294395D01*
X0256440Y0294277D01*
X0256544Y0294156D01*
X0256646Y0294033D01*
X0256744Y0293907D01*
X0256840Y0293779D01*
X0256932Y0293649D01*
X0257021Y0293517D01*
X0257106Y0293382D01*
X0257189Y0293246D01*
X0257268Y0293107D01*
X0257344Y0292967D01*
X0257416Y0292825D01*
X0257485Y0292681D01*
X0257551Y0292536D01*
X0257613Y0292389D01*
X0257671Y0292240D01*
X0257726Y0292091D01*
X0257777Y0291940D01*
X0257824Y0291787D01*
X0257868Y0291634D01*
X0257908Y0291479D01*
X0257945Y0291324D01*
X0257977Y0291168D01*
X0258006Y0291011D01*
X0258031Y0290854D01*
X0258052Y0290696D01*
X0258069Y0290537D01*
X0258083Y0290378D01*
X0258092Y0290219D01*
X0258098Y0290059D01*
X0258100Y0289900D01*
X0258100Y0036100D01*
X0258097Y0035883D01*
X0258089Y0035665D01*
X0258076Y0035448D01*
X0258058Y0035231D01*
X0258034Y0035015D01*
X0258006Y0034800D01*
X0257972Y0034585D01*
X0257932Y0034371D01*
X0257888Y0034158D01*
X0257838Y0033946D01*
X0257784Y0033736D01*
X0257724Y0033526D01*
X0257660Y0033319D01*
X0257590Y0033113D01*
X0257515Y0032909D01*
X0257436Y0032706D01*
X0257351Y0032506D01*
X0257262Y0032307D01*
X0257168Y0032111D01*
X0257069Y0031917D01*
X0256966Y0031726D01*
X0256858Y0031537D01*
X0256745Y0031351D01*
X0256628Y0031168D01*
X0256507Y0030987D01*
X0256381Y0030810D01*
X0256251Y0030636D01*
X0256117Y0030464D01*
X0255979Y0030296D01*
X0255837Y0030132D01*
X0255690Y0029971D01*
X0255540Y0029813D01*
X0255387Y0029660D01*
X0255229Y0029510D01*
X0255068Y0029363D01*
X0254904Y0029221D01*
X0254736Y0029083D01*
X0254564Y0028949D01*
X0254390Y0028819D01*
X0254213Y0028693D01*
X0254032Y0028572D01*
X0253849Y0028455D01*
X0253663Y0028342D01*
X0253474Y0028234D01*
X0253283Y0028131D01*
X0253089Y0028032D01*
X0252893Y0027938D01*
X0252694Y0027849D01*
X0252494Y0027764D01*
X0252291Y0027685D01*
X0252087Y0027610D01*
X0251881Y0027540D01*
X0251674Y0027476D01*
X0251464Y0027416D01*
X0251254Y0027362D01*
X0251042Y0027312D01*
X0250829Y0027268D01*
X0250615Y0027228D01*
X0250400Y0027194D01*
X0250185Y0027166D01*
X0249969Y0027142D01*
X0249752Y0027124D01*
X0249535Y0027111D01*
X0249317Y0027103D01*
X0249100Y0027100D01*
X0081700Y0027100D01*
X0081439Y0027103D01*
X0081178Y0027113D01*
X0080918Y0027128D01*
X0080658Y0027150D01*
X0080398Y0027179D01*
X0080140Y0027213D01*
X0079882Y0027254D01*
X0079625Y0027301D01*
X0079370Y0027354D01*
X0079115Y0027414D01*
X0078863Y0027479D01*
X0078612Y0027551D01*
X0078363Y0027629D01*
X0078115Y0027712D01*
X0077870Y0027802D01*
X0077627Y0027897D01*
X0077387Y0027999D01*
X0077149Y0028106D01*
X0076914Y0028219D01*
X0076681Y0028337D01*
X0076451Y0028461D01*
X0076225Y0028591D01*
X0076001Y0028726D01*
X0075781Y0028866D01*
X0075565Y0029012D01*
X0075352Y0029163D01*
X0075143Y0029319D01*
X0074937Y0029480D01*
X0074736Y0029645D01*
X0074538Y0029816D01*
X0074345Y0029991D01*
X0074156Y0030172D01*
X0073972Y0030356D01*
X0073791Y0030545D01*
X0073616Y0030738D01*
X0073445Y0030936D01*
X0073280Y0031137D01*
X0073119Y0031343D01*
X0072963Y0031552D01*
X0072812Y0031765D01*
X0072666Y0031981D01*
X0072526Y0032201D01*
X0072391Y0032425D01*
X0072261Y0032651D01*
X0072137Y0032881D01*
X0072019Y0033114D01*
X0071906Y0033349D01*
X0071799Y0033587D01*
X0071697Y0033827D01*
X0071602Y0034070D01*
X0071512Y0034315D01*
X0071429Y0034563D01*
X0071351Y0034812D01*
X0071279Y0035063D01*
X0071214Y0035315D01*
X0071154Y0035570D01*
X0071101Y0035825D01*
X0071054Y0036082D01*
X0071013Y0036340D01*
X0070979Y0036598D01*
X0070950Y0036858D01*
X0070928Y0037118D01*
X0070913Y0037378D01*
X0070903Y0037639D01*
X0070900Y0037900D01*
X0222400Y0268800D02*
X0222402Y0268889D01*
X0222408Y0268978D01*
X0222418Y0269067D01*
X0222432Y0269155D01*
X0222449Y0269242D01*
X0222471Y0269328D01*
X0222497Y0269414D01*
X0222526Y0269498D01*
X0222559Y0269581D01*
X0222595Y0269662D01*
X0222636Y0269742D01*
X0222679Y0269819D01*
X0222726Y0269895D01*
X0222777Y0269968D01*
X0222830Y0270039D01*
X0222887Y0270108D01*
X0222947Y0270174D01*
X0223010Y0270238D01*
X0223075Y0270298D01*
X0223143Y0270356D01*
X0223214Y0270410D01*
X0223287Y0270461D01*
X0223362Y0270509D01*
X0223439Y0270554D01*
X0223518Y0270595D01*
X0223599Y0270632D01*
X0223681Y0270666D01*
X0223765Y0270697D01*
X0223850Y0270723D01*
X0223936Y0270746D01*
X0224023Y0270764D01*
X0224111Y0270779D01*
X0224200Y0270790D01*
X0224289Y0270797D01*
X0224378Y0270800D01*
X0224467Y0270799D01*
X0224556Y0270794D01*
X0224644Y0270785D01*
X0224733Y0270772D01*
X0224820Y0270755D01*
X0224907Y0270735D01*
X0224993Y0270710D01*
X0225077Y0270682D01*
X0225160Y0270650D01*
X0225242Y0270614D01*
X0225322Y0270575D01*
X0225400Y0270532D01*
X0225476Y0270486D01*
X0225550Y0270436D01*
X0225622Y0270383D01*
X0225691Y0270327D01*
X0225758Y0270268D01*
X0225822Y0270206D01*
X0225883Y0270142D01*
X0225942Y0270074D01*
X0225997Y0270004D01*
X0226049Y0269932D01*
X0226098Y0269857D01*
X0226143Y0269781D01*
X0226185Y0269702D01*
X0226223Y0269622D01*
X0226258Y0269540D01*
X0226289Y0269456D01*
X0226317Y0269371D01*
X0226340Y0269285D01*
X0226360Y0269198D01*
X0226376Y0269111D01*
X0226388Y0269022D01*
X0226396Y0268934D01*
X0226400Y0268845D01*
X0226400Y0268755D01*
X0226396Y0268666D01*
X0226388Y0268578D01*
X0226376Y0268489D01*
X0226360Y0268402D01*
X0226340Y0268315D01*
X0226317Y0268229D01*
X0226289Y0268144D01*
X0226258Y0268060D01*
X0226223Y0267978D01*
X0226185Y0267898D01*
X0226143Y0267819D01*
X0226098Y0267743D01*
X0226049Y0267668D01*
X0225997Y0267596D01*
X0225942Y0267526D01*
X0225883Y0267458D01*
X0225822Y0267394D01*
X0225758Y0267332D01*
X0225691Y0267273D01*
X0225622Y0267217D01*
X0225550Y0267164D01*
X0225476Y0267114D01*
X0225400Y0267068D01*
X0225322Y0267025D01*
X0225242Y0266986D01*
X0225160Y0266950D01*
X0225077Y0266918D01*
X0224993Y0266890D01*
X0224907Y0266865D01*
X0224820Y0266845D01*
X0224733Y0266828D01*
X0224644Y0266815D01*
X0224556Y0266806D01*
X0224467Y0266801D01*
X0224378Y0266800D01*
X0224289Y0266803D01*
X0224200Y0266810D01*
X0224111Y0266821D01*
X0224023Y0266836D01*
X0223936Y0266854D01*
X0223850Y0266877D01*
X0223765Y0266903D01*
X0223681Y0266934D01*
X0223599Y0266968D01*
X0223518Y0267005D01*
X0223439Y0267046D01*
X0223362Y0267091D01*
X0223287Y0267139D01*
X0223214Y0267190D01*
X0223143Y0267244D01*
X0223075Y0267302D01*
X0223010Y0267362D01*
X0222947Y0267426D01*
X0222887Y0267492D01*
X0222830Y0267561D01*
X0222777Y0267632D01*
X0222726Y0267705D01*
X0222679Y0267781D01*
X0222636Y0267858D01*
X0222595Y0267938D01*
X0222559Y0268019D01*
X0222526Y0268102D01*
X0222497Y0268186D01*
X0222471Y0268272D01*
X0222449Y0268358D01*
X0222432Y0268445D01*
X0222418Y0268533D01*
X0222408Y0268622D01*
X0222402Y0268711D01*
X0222400Y0268800D01*
X0239400Y0268800D02*
X0239402Y0268889D01*
X0239408Y0268978D01*
X0239418Y0269067D01*
X0239432Y0269155D01*
X0239449Y0269242D01*
X0239471Y0269328D01*
X0239497Y0269414D01*
X0239526Y0269498D01*
X0239559Y0269581D01*
X0239595Y0269662D01*
X0239636Y0269742D01*
X0239679Y0269819D01*
X0239726Y0269895D01*
X0239777Y0269968D01*
X0239830Y0270039D01*
X0239887Y0270108D01*
X0239947Y0270174D01*
X0240010Y0270238D01*
X0240075Y0270298D01*
X0240143Y0270356D01*
X0240214Y0270410D01*
X0240287Y0270461D01*
X0240362Y0270509D01*
X0240439Y0270554D01*
X0240518Y0270595D01*
X0240599Y0270632D01*
X0240681Y0270666D01*
X0240765Y0270697D01*
X0240850Y0270723D01*
X0240936Y0270746D01*
X0241023Y0270764D01*
X0241111Y0270779D01*
X0241200Y0270790D01*
X0241289Y0270797D01*
X0241378Y0270800D01*
X0241467Y0270799D01*
X0241556Y0270794D01*
X0241644Y0270785D01*
X0241733Y0270772D01*
X0241820Y0270755D01*
X0241907Y0270735D01*
X0241993Y0270710D01*
X0242077Y0270682D01*
X0242160Y0270650D01*
X0242242Y0270614D01*
X0242322Y0270575D01*
X0242400Y0270532D01*
X0242476Y0270486D01*
X0242550Y0270436D01*
X0242622Y0270383D01*
X0242691Y0270327D01*
X0242758Y0270268D01*
X0242822Y0270206D01*
X0242883Y0270142D01*
X0242942Y0270074D01*
X0242997Y0270004D01*
X0243049Y0269932D01*
X0243098Y0269857D01*
X0243143Y0269781D01*
X0243185Y0269702D01*
X0243223Y0269622D01*
X0243258Y0269540D01*
X0243289Y0269456D01*
X0243317Y0269371D01*
X0243340Y0269285D01*
X0243360Y0269198D01*
X0243376Y0269111D01*
X0243388Y0269022D01*
X0243396Y0268934D01*
X0243400Y0268845D01*
X0243400Y0268755D01*
X0243396Y0268666D01*
X0243388Y0268578D01*
X0243376Y0268489D01*
X0243360Y0268402D01*
X0243340Y0268315D01*
X0243317Y0268229D01*
X0243289Y0268144D01*
X0243258Y0268060D01*
X0243223Y0267978D01*
X0243185Y0267898D01*
X0243143Y0267819D01*
X0243098Y0267743D01*
X0243049Y0267668D01*
X0242997Y0267596D01*
X0242942Y0267526D01*
X0242883Y0267458D01*
X0242822Y0267394D01*
X0242758Y0267332D01*
X0242691Y0267273D01*
X0242622Y0267217D01*
X0242550Y0267164D01*
X0242476Y0267114D01*
X0242400Y0267068D01*
X0242322Y0267025D01*
X0242242Y0266986D01*
X0242160Y0266950D01*
X0242077Y0266918D01*
X0241993Y0266890D01*
X0241907Y0266865D01*
X0241820Y0266845D01*
X0241733Y0266828D01*
X0241644Y0266815D01*
X0241556Y0266806D01*
X0241467Y0266801D01*
X0241378Y0266800D01*
X0241289Y0266803D01*
X0241200Y0266810D01*
X0241111Y0266821D01*
X0241023Y0266836D01*
X0240936Y0266854D01*
X0240850Y0266877D01*
X0240765Y0266903D01*
X0240681Y0266934D01*
X0240599Y0266968D01*
X0240518Y0267005D01*
X0240439Y0267046D01*
X0240362Y0267091D01*
X0240287Y0267139D01*
X0240214Y0267190D01*
X0240143Y0267244D01*
X0240075Y0267302D01*
X0240010Y0267362D01*
X0239947Y0267426D01*
X0239887Y0267492D01*
X0239830Y0267561D01*
X0239777Y0267632D01*
X0239726Y0267705D01*
X0239679Y0267781D01*
X0239636Y0267858D01*
X0239595Y0267938D01*
X0239559Y0268019D01*
X0239526Y0268102D01*
X0239497Y0268186D01*
X0239471Y0268272D01*
X0239449Y0268358D01*
X0239432Y0268445D01*
X0239418Y0268533D01*
X0239408Y0268622D01*
X0239402Y0268711D01*
X0239400Y0268800D01*
M02*
