G75*
%MOIN*%
%OFA0B0*%
%FSLAX25Y25*%
%IPPOS*%
%LPD*%
%AMOC8*
5,1,8,0,0,1.08239X$1,22.5*
%
%ADD10C,0.01075*%
%ADD11R,0.07300X0.07300*%
%ADD12C,0.07300*%
%ADD13R,0.08674X0.08674*%
%ADD14C,0.00950*%
%ADD15R,0.06115X0.02178*%
%ADD16C,0.02965*%
%ADD17R,0.04737X0.07690*%
%ADD18C,0.05950*%
%ADD19R,0.06706X0.03162*%
%ADD20R,0.09800X0.05800*%
%ADD21R,0.09300X0.14800*%
%ADD22R,0.02800X0.10800*%
%ADD23R,0.08674X0.11800*%
%ADD24C,0.04800*%
%ADD25C,0.02150*%
%ADD26C,0.03200*%
%ADD27C,0.03600*%
D10*
X0100713Y0092487D02*
X0100713Y0095713D01*
X0100713Y0092487D02*
X0097487Y0092487D01*
X0097487Y0095713D01*
X0100713Y0095713D01*
X0100713Y0093561D02*
X0097487Y0093561D01*
X0097487Y0094635D02*
X0100713Y0094635D01*
X0100713Y0095709D02*
X0097487Y0095709D01*
X0100713Y0098487D02*
X0100713Y0101713D01*
X0100713Y0098487D02*
X0097487Y0098487D01*
X0097487Y0101713D01*
X0100713Y0101713D01*
X0100713Y0099561D02*
X0097487Y0099561D01*
X0097487Y0100635D02*
X0100713Y0100635D01*
X0100713Y0101709D02*
X0097487Y0101709D01*
X0103087Y0083087D02*
X0106313Y0083087D01*
X0103087Y0083087D02*
X0103087Y0086313D01*
X0106313Y0086313D01*
X0106313Y0083087D01*
X0106313Y0084161D02*
X0103087Y0084161D01*
X0103087Y0085235D02*
X0106313Y0085235D01*
X0106313Y0086309D02*
X0103087Y0086309D01*
X0103087Y0077087D02*
X0106313Y0077087D01*
X0103087Y0077087D02*
X0103087Y0080313D01*
X0106313Y0080313D01*
X0106313Y0077087D01*
X0106313Y0078161D02*
X0103087Y0078161D01*
X0103087Y0079235D02*
X0106313Y0079235D01*
X0106313Y0080309D02*
X0103087Y0080309D01*
X0109087Y0077087D02*
X0112313Y0077087D01*
X0109087Y0077087D02*
X0109087Y0080313D01*
X0112313Y0080313D01*
X0112313Y0077087D01*
X0112313Y0078161D02*
X0109087Y0078161D01*
X0109087Y0079235D02*
X0112313Y0079235D01*
X0112313Y0080309D02*
X0109087Y0080309D01*
X0109087Y0083087D02*
X0112313Y0083087D01*
X0109087Y0083087D02*
X0109087Y0086313D01*
X0112313Y0086313D01*
X0112313Y0083087D01*
X0112313Y0084161D02*
X0109087Y0084161D01*
X0109087Y0085235D02*
X0112313Y0085235D01*
X0112313Y0086309D02*
X0109087Y0086309D01*
X0121713Y0069713D02*
X0121713Y0066487D01*
X0118487Y0066487D01*
X0118487Y0069713D01*
X0121713Y0069713D01*
X0121713Y0067561D02*
X0118487Y0067561D01*
X0118487Y0068635D02*
X0121713Y0068635D01*
X0121713Y0069709D02*
X0118487Y0069709D01*
X0121713Y0063713D02*
X0121713Y0060487D01*
X0118487Y0060487D01*
X0118487Y0063713D01*
X0121713Y0063713D01*
X0121713Y0061561D02*
X0118487Y0061561D01*
X0118487Y0062635D02*
X0121713Y0062635D01*
X0121713Y0063709D02*
X0118487Y0063709D01*
X0127913Y0063713D02*
X0127913Y0060487D01*
X0124687Y0060487D01*
X0124687Y0063713D01*
X0127913Y0063713D01*
X0127913Y0061561D02*
X0124687Y0061561D01*
X0124687Y0062635D02*
X0127913Y0062635D01*
X0127913Y0063709D02*
X0124687Y0063709D01*
X0127913Y0066487D02*
X0127913Y0069713D01*
X0127913Y0066487D02*
X0124687Y0066487D01*
X0124687Y0069713D01*
X0127913Y0069713D01*
X0127913Y0067561D02*
X0124687Y0067561D01*
X0124687Y0068635D02*
X0127913Y0068635D01*
X0127913Y0069709D02*
X0124687Y0069709D01*
X0182113Y0077287D02*
X0182113Y0080513D01*
X0182113Y0077287D02*
X0178887Y0077287D01*
X0178887Y0080513D01*
X0182113Y0080513D01*
X0182113Y0078361D02*
X0178887Y0078361D01*
X0178887Y0079435D02*
X0182113Y0079435D01*
X0182113Y0080509D02*
X0178887Y0080509D01*
X0182113Y0083287D02*
X0182113Y0086513D01*
X0182113Y0083287D02*
X0178887Y0083287D01*
X0178887Y0086513D01*
X0182113Y0086513D01*
X0182113Y0084361D02*
X0178887Y0084361D01*
X0178887Y0085435D02*
X0182113Y0085435D01*
X0182113Y0086509D02*
X0178887Y0086509D01*
X0188380Y0100020D02*
X0191606Y0100020D01*
X0191606Y0096794D01*
X0188380Y0096794D01*
X0188380Y0100020D01*
X0188380Y0097868D02*
X0191606Y0097868D01*
X0191606Y0098942D02*
X0188380Y0098942D01*
X0188380Y0100016D02*
X0191606Y0100016D01*
X0194380Y0100020D02*
X0197606Y0100020D01*
X0197606Y0096794D01*
X0194380Y0096794D01*
X0194380Y0100020D01*
X0194380Y0097868D02*
X0197606Y0097868D01*
X0197606Y0098942D02*
X0194380Y0098942D01*
X0194380Y0100016D02*
X0197606Y0100016D01*
X0208473Y0089887D02*
X0211699Y0089887D01*
X0208473Y0089887D02*
X0208473Y0093113D01*
X0211699Y0093113D01*
X0211699Y0089887D01*
X0211699Y0090961D02*
X0208473Y0090961D01*
X0208473Y0092035D02*
X0211699Y0092035D01*
X0211699Y0093109D02*
X0208473Y0093109D01*
X0214473Y0089887D02*
X0217699Y0089887D01*
X0214473Y0089887D02*
X0214473Y0093113D01*
X0217699Y0093113D01*
X0217699Y0089887D01*
X0217699Y0090961D02*
X0214473Y0090961D01*
X0214473Y0092035D02*
X0217699Y0092035D01*
X0217699Y0093109D02*
X0214473Y0093109D01*
X0214513Y0108113D02*
X0211287Y0108113D01*
X0214513Y0108113D02*
X0214513Y0104887D01*
X0211287Y0104887D01*
X0211287Y0108113D01*
X0211287Y0105961D02*
X0214513Y0105961D01*
X0214513Y0107035D02*
X0211287Y0107035D01*
X0211287Y0108109D02*
X0214513Y0108109D01*
X0217287Y0108113D02*
X0220513Y0108113D01*
X0220513Y0104887D01*
X0217287Y0104887D01*
X0217287Y0108113D01*
X0217287Y0105961D02*
X0220513Y0105961D01*
X0220513Y0107035D02*
X0217287Y0107035D01*
X0217287Y0108109D02*
X0220513Y0108109D01*
X0220513Y0114113D02*
X0217287Y0114113D01*
X0220513Y0114113D02*
X0220513Y0110887D01*
X0217287Y0110887D01*
X0217287Y0114113D01*
X0217287Y0111961D02*
X0220513Y0111961D01*
X0220513Y0113035D02*
X0217287Y0113035D01*
X0217287Y0114109D02*
X0220513Y0114109D01*
X0220206Y0120006D02*
X0216980Y0120006D01*
X0220206Y0120006D02*
X0220206Y0116780D01*
X0216980Y0116780D01*
X0216980Y0120006D01*
X0216980Y0117854D02*
X0220206Y0117854D01*
X0220206Y0118928D02*
X0216980Y0118928D01*
X0216980Y0120002D02*
X0220206Y0120002D01*
X0220513Y0125913D02*
X0217287Y0125913D01*
X0220513Y0125913D02*
X0220513Y0122687D01*
X0217287Y0122687D01*
X0217287Y0125913D01*
X0217287Y0123761D02*
X0220513Y0123761D01*
X0220513Y0124835D02*
X0217287Y0124835D01*
X0217287Y0125909D02*
X0220513Y0125909D01*
X0220313Y0131913D02*
X0217087Y0131913D01*
X0220313Y0131913D02*
X0220313Y0128687D01*
X0217087Y0128687D01*
X0217087Y0131913D01*
X0217087Y0129761D02*
X0220313Y0129761D01*
X0220313Y0130835D02*
X0217087Y0130835D01*
X0217087Y0131909D02*
X0220313Y0131909D01*
X0214313Y0131913D02*
X0211087Y0131913D01*
X0214313Y0131913D02*
X0214313Y0128687D01*
X0211087Y0128687D01*
X0211087Y0131913D01*
X0211087Y0129761D02*
X0214313Y0129761D01*
X0214313Y0130835D02*
X0211087Y0130835D01*
X0211087Y0131909D02*
X0214313Y0131909D01*
X0214513Y0125913D02*
X0211287Y0125913D01*
X0214513Y0125913D02*
X0214513Y0122687D01*
X0211287Y0122687D01*
X0211287Y0125913D01*
X0211287Y0123761D02*
X0214513Y0123761D01*
X0214513Y0124835D02*
X0211287Y0124835D01*
X0211287Y0125909D02*
X0214513Y0125909D01*
X0214206Y0120006D02*
X0210980Y0120006D01*
X0214206Y0120006D02*
X0214206Y0116780D01*
X0210980Y0116780D01*
X0210980Y0120006D01*
X0210980Y0117854D02*
X0214206Y0117854D01*
X0214206Y0118928D02*
X0210980Y0118928D01*
X0210980Y0120002D02*
X0214206Y0120002D01*
X0214513Y0114113D02*
X0211287Y0114113D01*
X0214513Y0114113D02*
X0214513Y0110887D01*
X0211287Y0110887D01*
X0211287Y0114113D01*
X0211287Y0111961D02*
X0214513Y0111961D01*
X0214513Y0113035D02*
X0211287Y0113035D01*
X0211287Y0114109D02*
X0214513Y0114109D01*
X0238687Y0102513D02*
X0241913Y0102513D01*
X0241913Y0099287D01*
X0238687Y0099287D01*
X0238687Y0102513D01*
X0238687Y0100361D02*
X0241913Y0100361D01*
X0241913Y0101435D02*
X0238687Y0101435D01*
X0238687Y0102509D02*
X0241913Y0102509D01*
X0244687Y0102513D02*
X0247913Y0102513D01*
X0247913Y0099287D01*
X0244687Y0099287D01*
X0244687Y0102513D01*
X0244687Y0100361D02*
X0247913Y0100361D01*
X0247913Y0101435D02*
X0244687Y0101435D01*
X0244687Y0102509D02*
X0247913Y0102509D01*
X0247913Y0096813D02*
X0244687Y0096813D01*
X0247913Y0096813D02*
X0247913Y0093587D01*
X0244687Y0093587D01*
X0244687Y0096813D01*
X0244687Y0094661D02*
X0247913Y0094661D01*
X0247913Y0095735D02*
X0244687Y0095735D01*
X0244687Y0096809D02*
X0247913Y0096809D01*
X0247913Y0090813D02*
X0244687Y0090813D01*
X0247913Y0090813D02*
X0247913Y0087587D01*
X0244687Y0087587D01*
X0244687Y0090813D01*
X0244687Y0088661D02*
X0247913Y0088661D01*
X0247913Y0089735D02*
X0244687Y0089735D01*
X0244687Y0090809D02*
X0247913Y0090809D01*
X0241913Y0090813D02*
X0238687Y0090813D01*
X0241913Y0090813D02*
X0241913Y0087587D01*
X0238687Y0087587D01*
X0238687Y0090813D01*
X0238687Y0088661D02*
X0241913Y0088661D01*
X0241913Y0089735D02*
X0238687Y0089735D01*
X0238687Y0090809D02*
X0241913Y0090809D01*
X0241913Y0096813D02*
X0238687Y0096813D01*
X0241913Y0096813D02*
X0241913Y0093587D01*
X0238687Y0093587D01*
X0238687Y0096813D01*
X0238687Y0094661D02*
X0241913Y0094661D01*
X0241913Y0095735D02*
X0238687Y0095735D01*
X0238687Y0096809D02*
X0241913Y0096809D01*
X0233113Y0072313D02*
X0229887Y0072313D01*
X0233113Y0072313D02*
X0233113Y0069087D01*
X0229887Y0069087D01*
X0229887Y0072313D01*
X0229887Y0070161D02*
X0233113Y0070161D01*
X0233113Y0071235D02*
X0229887Y0071235D01*
X0229887Y0072309D02*
X0233113Y0072309D01*
X0227113Y0072313D02*
X0223887Y0072313D01*
X0227113Y0072313D02*
X0227113Y0069087D01*
X0223887Y0069087D01*
X0223887Y0072313D01*
X0223887Y0070161D02*
X0227113Y0070161D01*
X0227113Y0071235D02*
X0223887Y0071235D01*
X0223887Y0072309D02*
X0227113Y0072309D01*
X0226513Y0065313D02*
X0223287Y0065313D01*
X0226513Y0065313D02*
X0226513Y0062087D01*
X0223287Y0062087D01*
X0223287Y0065313D01*
X0223287Y0063161D02*
X0226513Y0063161D01*
X0226513Y0064235D02*
X0223287Y0064235D01*
X0223287Y0065309D02*
X0226513Y0065309D01*
X0229287Y0065313D02*
X0232513Y0065313D01*
X0232513Y0062087D01*
X0229287Y0062087D01*
X0229287Y0065313D01*
X0229287Y0063161D02*
X0232513Y0063161D01*
X0232513Y0064235D02*
X0229287Y0064235D01*
X0229287Y0065309D02*
X0232513Y0065309D01*
X0233887Y0056313D02*
X0237113Y0056313D01*
X0237113Y0053087D01*
X0233887Y0053087D01*
X0233887Y0056313D01*
X0233887Y0054161D02*
X0237113Y0054161D01*
X0237113Y0055235D02*
X0233887Y0055235D01*
X0233887Y0056309D02*
X0237113Y0056309D01*
X0239887Y0056313D02*
X0243113Y0056313D01*
X0243113Y0053087D01*
X0239887Y0053087D01*
X0239887Y0056313D01*
X0239887Y0054161D02*
X0243113Y0054161D01*
X0243113Y0055235D02*
X0239887Y0055235D01*
X0239887Y0056309D02*
X0243113Y0056309D01*
X0203913Y0074687D02*
X0200687Y0074687D01*
X0200687Y0077913D01*
X0203913Y0077913D01*
X0203913Y0074687D01*
X0203913Y0075761D02*
X0200687Y0075761D01*
X0200687Y0076835D02*
X0203913Y0076835D01*
X0203913Y0077909D02*
X0200687Y0077909D01*
X0197913Y0074687D02*
X0194687Y0074687D01*
X0194687Y0077913D01*
X0197913Y0077913D01*
X0197913Y0074687D01*
X0197913Y0075761D02*
X0194687Y0075761D01*
X0194687Y0076835D02*
X0197913Y0076835D01*
X0197913Y0077909D02*
X0194687Y0077909D01*
X0190913Y0062687D02*
X0187687Y0062687D01*
X0187687Y0065913D01*
X0190913Y0065913D01*
X0190913Y0062687D01*
X0190913Y0063761D02*
X0187687Y0063761D01*
X0187687Y0064835D02*
X0190913Y0064835D01*
X0190913Y0065909D02*
X0187687Y0065909D01*
X0184913Y0062687D02*
X0181687Y0062687D01*
X0181687Y0065913D01*
X0184913Y0065913D01*
X0184913Y0062687D01*
X0184913Y0063761D02*
X0181687Y0063761D01*
X0181687Y0064835D02*
X0184913Y0064835D01*
X0184913Y0065909D02*
X0181687Y0065909D01*
X0181687Y0055287D02*
X0184913Y0055287D01*
X0181687Y0055287D02*
X0181687Y0058513D01*
X0184913Y0058513D01*
X0184913Y0055287D01*
X0184913Y0056361D02*
X0181687Y0056361D01*
X0181687Y0057435D02*
X0184913Y0057435D01*
X0184913Y0058509D02*
X0181687Y0058509D01*
X0187687Y0055287D02*
X0190913Y0055287D01*
X0187687Y0055287D02*
X0187687Y0058513D01*
X0190913Y0058513D01*
X0190913Y0055287D01*
X0190913Y0056361D02*
X0187687Y0056361D01*
X0187687Y0057435D02*
X0190913Y0057435D01*
X0190913Y0058509D02*
X0187687Y0058509D01*
X0204887Y0154513D02*
X0208113Y0154513D01*
X0208113Y0151287D01*
X0204887Y0151287D01*
X0204887Y0154513D01*
X0204887Y0152361D02*
X0208113Y0152361D01*
X0208113Y0153435D02*
X0204887Y0153435D01*
X0204887Y0154509D02*
X0208113Y0154509D01*
X0210887Y0154513D02*
X0214113Y0154513D01*
X0214113Y0151287D01*
X0210887Y0151287D01*
X0210887Y0154513D01*
X0210887Y0152361D02*
X0214113Y0152361D01*
X0214113Y0153435D02*
X0210887Y0153435D01*
X0210887Y0154509D02*
X0214113Y0154509D01*
X0200087Y0163087D02*
X0200087Y0166313D01*
X0203313Y0166313D01*
X0203313Y0163087D01*
X0200087Y0163087D01*
X0200087Y0164161D02*
X0203313Y0164161D01*
X0203313Y0165235D02*
X0200087Y0165235D01*
X0200087Y0166309D02*
X0203313Y0166309D01*
X0200087Y0169087D02*
X0200087Y0172313D01*
X0203313Y0172313D01*
X0203313Y0169087D01*
X0200087Y0169087D01*
X0200087Y0170161D02*
X0203313Y0170161D01*
X0203313Y0171235D02*
X0200087Y0171235D01*
X0200087Y0172309D02*
X0203313Y0172309D01*
X0197313Y0180713D02*
X0194087Y0180713D01*
X0197313Y0180713D02*
X0197313Y0177487D01*
X0194087Y0177487D01*
X0194087Y0180713D01*
X0194087Y0178561D02*
X0197313Y0178561D01*
X0197313Y0179635D02*
X0194087Y0179635D01*
X0194087Y0180709D02*
X0197313Y0180709D01*
X0191313Y0180713D02*
X0188087Y0180713D01*
X0191313Y0180713D02*
X0191313Y0177487D01*
X0188087Y0177487D01*
X0188087Y0180713D01*
X0188087Y0178561D02*
X0191313Y0178561D01*
X0191313Y0179635D02*
X0188087Y0179635D01*
X0188087Y0180709D02*
X0191313Y0180709D01*
X0171087Y0185087D02*
X0171087Y0188313D01*
X0174313Y0188313D01*
X0174313Y0185087D01*
X0171087Y0185087D01*
X0171087Y0186161D02*
X0174313Y0186161D01*
X0174313Y0187235D02*
X0171087Y0187235D01*
X0171087Y0188309D02*
X0174313Y0188309D01*
X0171087Y0191087D02*
X0171087Y0194313D01*
X0174313Y0194313D01*
X0174313Y0191087D01*
X0171087Y0191087D01*
X0171087Y0192161D02*
X0174313Y0192161D01*
X0174313Y0193235D02*
X0171087Y0193235D01*
X0171087Y0194309D02*
X0174313Y0194309D01*
X0157887Y0195313D02*
X0157887Y0192087D01*
X0157887Y0195313D02*
X0161113Y0195313D01*
X0161113Y0192087D01*
X0157887Y0192087D01*
X0157887Y0193161D02*
X0161113Y0193161D01*
X0161113Y0194235D02*
X0157887Y0194235D01*
X0157887Y0195309D02*
X0161113Y0195309D01*
X0157887Y0198087D02*
X0157887Y0201313D01*
X0161113Y0201313D01*
X0161113Y0198087D01*
X0157887Y0198087D01*
X0157887Y0199161D02*
X0161113Y0199161D01*
X0161113Y0200235D02*
X0157887Y0200235D01*
X0157887Y0201309D02*
X0161113Y0201309D01*
X0152087Y0201313D02*
X0152087Y0198087D01*
X0152087Y0201313D02*
X0155313Y0201313D01*
X0155313Y0198087D01*
X0152087Y0198087D01*
X0152087Y0199161D02*
X0155313Y0199161D01*
X0155313Y0200235D02*
X0152087Y0200235D01*
X0152087Y0201309D02*
X0155313Y0201309D01*
X0152087Y0195313D02*
X0152087Y0192087D01*
X0152087Y0195313D02*
X0155313Y0195313D01*
X0155313Y0192087D01*
X0152087Y0192087D01*
X0152087Y0193161D02*
X0155313Y0193161D01*
X0155313Y0194235D02*
X0152087Y0194235D01*
X0152087Y0195309D02*
X0155313Y0195309D01*
X0155887Y0232313D02*
X0159113Y0232313D01*
X0159113Y0229087D01*
X0155887Y0229087D01*
X0155887Y0232313D01*
X0155887Y0230161D02*
X0159113Y0230161D01*
X0159113Y0231235D02*
X0155887Y0231235D01*
X0155887Y0232309D02*
X0159113Y0232309D01*
X0153113Y0232313D02*
X0149887Y0232313D01*
X0153113Y0232313D02*
X0153113Y0229087D01*
X0149887Y0229087D01*
X0149887Y0232313D01*
X0149887Y0230161D02*
X0153113Y0230161D01*
X0153113Y0231235D02*
X0149887Y0231235D01*
X0149887Y0232309D02*
X0153113Y0232309D01*
X0153113Y0235687D02*
X0153113Y0238913D01*
X0153113Y0235687D02*
X0149887Y0235687D01*
X0149887Y0238913D01*
X0153113Y0238913D01*
X0153113Y0236761D02*
X0149887Y0236761D01*
X0149887Y0237835D02*
X0153113Y0237835D01*
X0153113Y0238909D02*
X0149887Y0238909D01*
X0153113Y0241687D02*
X0153113Y0244913D01*
X0153113Y0241687D02*
X0149887Y0241687D01*
X0149887Y0244913D01*
X0153113Y0244913D01*
X0153113Y0242761D02*
X0149887Y0242761D01*
X0149887Y0243835D02*
X0153113Y0243835D01*
X0153113Y0244909D02*
X0149887Y0244909D01*
X0197287Y0239913D02*
X0200513Y0239913D01*
X0200513Y0236687D01*
X0197287Y0236687D01*
X0197287Y0239913D01*
X0197287Y0237761D02*
X0200513Y0237761D01*
X0200513Y0238835D02*
X0197287Y0238835D01*
X0197287Y0239909D02*
X0200513Y0239909D01*
X0203287Y0239913D02*
X0206513Y0239913D01*
X0206513Y0236687D01*
X0203287Y0236687D01*
X0203287Y0239913D01*
X0203287Y0237761D02*
X0206513Y0237761D01*
X0206513Y0238835D02*
X0203287Y0238835D01*
X0203287Y0239909D02*
X0206513Y0239909D01*
X0206313Y0229487D02*
X0203087Y0229487D01*
X0203087Y0232713D01*
X0206313Y0232713D01*
X0206313Y0229487D01*
X0206313Y0230561D02*
X0203087Y0230561D01*
X0203087Y0231635D02*
X0206313Y0231635D01*
X0206313Y0232709D02*
X0203087Y0232709D01*
X0200313Y0229487D02*
X0197087Y0229487D01*
X0197087Y0232713D01*
X0200313Y0232713D01*
X0200313Y0229487D01*
X0200313Y0230561D02*
X0197087Y0230561D01*
X0197087Y0231635D02*
X0200313Y0231635D01*
X0200313Y0232709D02*
X0197087Y0232709D01*
X0197287Y0222287D02*
X0200513Y0222287D01*
X0197287Y0222287D02*
X0197287Y0225513D01*
X0200513Y0225513D01*
X0200513Y0222287D01*
X0200513Y0223361D02*
X0197287Y0223361D01*
X0197287Y0224435D02*
X0200513Y0224435D01*
X0200513Y0225509D02*
X0197287Y0225509D01*
X0203287Y0222287D02*
X0206513Y0222287D01*
X0203287Y0222287D02*
X0203287Y0225513D01*
X0206513Y0225513D01*
X0206513Y0222287D01*
X0206513Y0223361D02*
X0203287Y0223361D01*
X0203287Y0224435D02*
X0206513Y0224435D01*
X0206513Y0225509D02*
X0203287Y0225509D01*
X0216313Y0187313D02*
X0216313Y0184087D01*
X0213087Y0184087D01*
X0213087Y0187313D01*
X0216313Y0187313D01*
X0216313Y0185161D02*
X0213087Y0185161D01*
X0213087Y0186235D02*
X0216313Y0186235D01*
X0216313Y0187309D02*
X0213087Y0187309D01*
X0216313Y0181313D02*
X0216313Y0178087D01*
X0213087Y0178087D01*
X0213087Y0181313D01*
X0216313Y0181313D01*
X0216313Y0179161D02*
X0213087Y0179161D01*
X0213087Y0180235D02*
X0216313Y0180235D01*
X0216313Y0181309D02*
X0213087Y0181309D01*
X0224113Y0181313D02*
X0224113Y0178087D01*
X0220887Y0178087D01*
X0220887Y0181313D01*
X0224113Y0181313D01*
X0224113Y0179161D02*
X0220887Y0179161D01*
X0220887Y0180235D02*
X0224113Y0180235D01*
X0224113Y0181309D02*
X0220887Y0181309D01*
X0224113Y0184087D02*
X0224113Y0187313D01*
X0224113Y0184087D02*
X0220887Y0184087D01*
X0220887Y0187313D01*
X0224113Y0187313D01*
X0224113Y0185161D02*
X0220887Y0185161D01*
X0220887Y0186235D02*
X0224113Y0186235D01*
X0224113Y0187309D02*
X0220887Y0187309D01*
X0230287Y0169487D02*
X0233513Y0169487D01*
X0230287Y0169487D02*
X0230287Y0172713D01*
X0233513Y0172713D01*
X0233513Y0169487D01*
X0233513Y0170561D02*
X0230287Y0170561D01*
X0230287Y0171635D02*
X0233513Y0171635D01*
X0233513Y0172709D02*
X0230287Y0172709D01*
X0236287Y0169487D02*
X0239513Y0169487D01*
X0236287Y0169487D02*
X0236287Y0172713D01*
X0239513Y0172713D01*
X0239513Y0169487D01*
X0239513Y0170561D02*
X0236287Y0170561D01*
X0236287Y0171635D02*
X0239513Y0171635D01*
X0239513Y0172709D02*
X0236287Y0172709D01*
X0104087Y0181087D02*
X0104087Y0184313D01*
X0107313Y0184313D01*
X0107313Y0181087D01*
X0104087Y0181087D01*
X0104087Y0182161D02*
X0107313Y0182161D01*
X0107313Y0183235D02*
X0104087Y0183235D01*
X0104087Y0184309D02*
X0107313Y0184309D01*
X0104087Y0187087D02*
X0104087Y0190313D01*
X0107313Y0190313D01*
X0107313Y0187087D01*
X0104087Y0187087D01*
X0104087Y0188161D02*
X0107313Y0188161D01*
X0107313Y0189235D02*
X0104087Y0189235D01*
X0104087Y0190309D02*
X0107313Y0190309D01*
X0096887Y0178713D02*
X0096887Y0175487D01*
X0096887Y0178713D02*
X0100113Y0178713D01*
X0100113Y0175487D01*
X0096887Y0175487D01*
X0096887Y0176561D02*
X0100113Y0176561D01*
X0100113Y0177635D02*
X0096887Y0177635D01*
X0096887Y0178709D02*
X0100113Y0178709D01*
X0096887Y0172713D02*
X0096887Y0169487D01*
X0096887Y0172713D02*
X0100113Y0172713D01*
X0100113Y0169487D01*
X0096887Y0169487D01*
X0096887Y0170561D02*
X0100113Y0170561D01*
X0100113Y0171635D02*
X0096887Y0171635D01*
X0096887Y0172709D02*
X0100113Y0172709D01*
X0088087Y0153513D02*
X0088087Y0150287D01*
X0088087Y0153513D02*
X0091313Y0153513D01*
X0091313Y0150287D01*
X0088087Y0150287D01*
X0088087Y0151361D02*
X0091313Y0151361D01*
X0091313Y0152435D02*
X0088087Y0152435D01*
X0088087Y0153509D02*
X0091313Y0153509D01*
X0088087Y0147513D02*
X0088087Y0144287D01*
X0088087Y0147513D02*
X0091313Y0147513D01*
X0091313Y0144287D01*
X0088087Y0144287D01*
X0088087Y0145361D02*
X0091313Y0145361D01*
X0091313Y0146435D02*
X0088087Y0146435D01*
X0088087Y0147509D02*
X0091313Y0147509D01*
X0082087Y0147313D02*
X0082087Y0144087D01*
X0082087Y0147313D02*
X0085313Y0147313D01*
X0085313Y0144087D01*
X0082087Y0144087D01*
X0082087Y0145161D02*
X0085313Y0145161D01*
X0085313Y0146235D02*
X0082087Y0146235D01*
X0082087Y0147309D02*
X0085313Y0147309D01*
X0082087Y0150087D02*
X0082087Y0153313D01*
X0085313Y0153313D01*
X0085313Y0150087D01*
X0082087Y0150087D01*
X0082087Y0151161D02*
X0085313Y0151161D01*
X0085313Y0152235D02*
X0082087Y0152235D01*
X0082087Y0153309D02*
X0085313Y0153309D01*
X0085887Y0243087D02*
X0085887Y0246313D01*
X0089113Y0246313D01*
X0089113Y0243087D01*
X0085887Y0243087D01*
X0085887Y0244161D02*
X0089113Y0244161D01*
X0089113Y0245235D02*
X0085887Y0245235D01*
X0085887Y0246309D02*
X0089113Y0246309D01*
X0085887Y0249087D02*
X0085887Y0252313D01*
X0089113Y0252313D01*
X0089113Y0249087D01*
X0085887Y0249087D01*
X0085887Y0250161D02*
X0089113Y0250161D01*
X0089113Y0251235D02*
X0085887Y0251235D01*
X0085887Y0252309D02*
X0089113Y0252309D01*
D11*
X0078100Y0047700D03*
X0077900Y0115100D03*
X0077900Y0160500D03*
X0077500Y0225500D03*
X0077500Y0239700D03*
X0165900Y0277500D03*
X0192500Y0043300D03*
D12*
X0202500Y0043300D03*
X0212500Y0043300D03*
X0222500Y0043300D03*
X0232500Y0043300D03*
X0242500Y0043300D03*
X0078100Y0057700D03*
X0078100Y0067700D03*
X0078100Y0077700D03*
X0078100Y0087700D03*
X0078100Y0097700D03*
X0077900Y0125100D03*
X0077900Y0135100D03*
X0077900Y0170500D03*
X0077900Y0180500D03*
X0077500Y0195500D03*
X0077500Y0205500D03*
X0077500Y0215500D03*
X0077500Y0249700D03*
X0077500Y0259700D03*
X0077500Y0269700D03*
X0077500Y0279700D03*
X0077500Y0289700D03*
X0175900Y0277500D03*
X0185900Y0277500D03*
X0195900Y0277500D03*
D13*
X0240900Y0203774D03*
X0240900Y0188026D03*
D14*
X0206525Y0243825D02*
X0203675Y0243825D01*
X0203675Y0247175D01*
X0206525Y0247175D01*
X0206525Y0243825D01*
X0206525Y0244774D02*
X0203675Y0244774D01*
X0203675Y0245723D02*
X0206525Y0245723D01*
X0206525Y0246672D02*
X0203675Y0246672D01*
X0200525Y0243825D02*
X0197675Y0243825D01*
X0197675Y0247175D01*
X0200525Y0247175D01*
X0200525Y0243825D01*
X0200525Y0244774D02*
X0197675Y0244774D01*
X0197675Y0245723D02*
X0200525Y0245723D01*
X0200525Y0246672D02*
X0197675Y0246672D01*
X0226875Y0102575D02*
X0229725Y0102575D01*
X0229725Y0099225D01*
X0226875Y0099225D01*
X0226875Y0102575D01*
X0226875Y0100174D02*
X0229725Y0100174D01*
X0229725Y0101123D02*
X0226875Y0101123D01*
X0226875Y0102072D02*
X0229725Y0102072D01*
X0232875Y0102575D02*
X0235725Y0102575D01*
X0235725Y0099225D01*
X0232875Y0099225D01*
X0232875Y0102575D01*
X0232875Y0100174D02*
X0235725Y0100174D01*
X0235725Y0101123D02*
X0232875Y0101123D01*
X0232875Y0102072D02*
X0235725Y0102072D01*
X0235725Y0096775D02*
X0232875Y0096775D01*
X0235725Y0096775D02*
X0235725Y0093425D01*
X0232875Y0093425D01*
X0232875Y0096775D01*
X0232875Y0094374D02*
X0235725Y0094374D01*
X0235725Y0095323D02*
X0232875Y0095323D01*
X0232875Y0096272D02*
X0235725Y0096272D01*
X0235725Y0090975D02*
X0232875Y0090975D01*
X0235725Y0090975D02*
X0235725Y0087625D01*
X0232875Y0087625D01*
X0232875Y0090975D01*
X0232875Y0088574D02*
X0235725Y0088574D01*
X0235725Y0089523D02*
X0232875Y0089523D01*
X0232875Y0090472D02*
X0235725Y0090472D01*
X0229725Y0090975D02*
X0226875Y0090975D01*
X0229725Y0090975D02*
X0229725Y0087625D01*
X0226875Y0087625D01*
X0226875Y0090975D01*
X0226875Y0088574D02*
X0229725Y0088574D01*
X0229725Y0089523D02*
X0226875Y0089523D01*
X0226875Y0090472D02*
X0229725Y0090472D01*
X0229725Y0096775D02*
X0226875Y0096775D01*
X0229725Y0096775D02*
X0229725Y0093425D01*
X0226875Y0093425D01*
X0226875Y0096775D01*
X0226875Y0094374D02*
X0229725Y0094374D01*
X0229725Y0095323D02*
X0226875Y0095323D01*
X0226875Y0096272D02*
X0229725Y0096272D01*
X0220125Y0072375D02*
X0217275Y0072375D01*
X0220125Y0072375D02*
X0220125Y0069025D01*
X0217275Y0069025D01*
X0217275Y0072375D01*
X0217275Y0069974D02*
X0220125Y0069974D01*
X0220125Y0070923D02*
X0217275Y0070923D01*
X0217275Y0071872D02*
X0220125Y0071872D01*
X0214125Y0072375D02*
X0211275Y0072375D01*
X0214125Y0072375D02*
X0214125Y0069025D01*
X0211275Y0069025D01*
X0211275Y0072375D01*
X0211275Y0069974D02*
X0214125Y0069974D01*
X0214125Y0070923D02*
X0211275Y0070923D01*
X0211275Y0071872D02*
X0214125Y0071872D01*
X0214125Y0065375D02*
X0211275Y0065375D01*
X0214125Y0065375D02*
X0214125Y0062025D01*
X0211275Y0062025D01*
X0211275Y0065375D01*
X0211275Y0062974D02*
X0214125Y0062974D01*
X0214125Y0063923D02*
X0211275Y0063923D01*
X0211275Y0064872D02*
X0214125Y0064872D01*
X0217275Y0065375D02*
X0220125Y0065375D01*
X0220125Y0062025D01*
X0217275Y0062025D01*
X0217275Y0065375D01*
X0217275Y0062974D02*
X0220125Y0062974D01*
X0220125Y0063923D02*
X0217275Y0063923D01*
X0217275Y0064872D02*
X0220125Y0064872D01*
D15*
G36*
X0181831Y0106924D02*
X0186153Y0102602D01*
X0184613Y0101062D01*
X0180291Y0105384D01*
X0181831Y0106924D01*
G37*
G36*
X0183223Y0108316D02*
X0187545Y0103994D01*
X0186005Y0102454D01*
X0181683Y0106776D01*
X0183223Y0108316D01*
G37*
G36*
X0184601Y0109722D02*
X0188923Y0105400D01*
X0187383Y0103860D01*
X0183061Y0108182D01*
X0184601Y0109722D01*
G37*
G36*
X0186006Y0111100D02*
X0190328Y0106778D01*
X0188788Y0105238D01*
X0184466Y0109560D01*
X0186006Y0111100D01*
G37*
G36*
X0187398Y0112492D02*
X0191720Y0108170D01*
X0190180Y0106630D01*
X0185858Y0110952D01*
X0187398Y0112492D01*
G37*
G36*
X0188790Y0113884D02*
X0193112Y0109562D01*
X0191572Y0108022D01*
X0187250Y0112344D01*
X0188790Y0113884D01*
G37*
G36*
X0190182Y0115276D02*
X0194504Y0110954D01*
X0192964Y0109414D01*
X0188642Y0113736D01*
X0190182Y0115276D01*
G37*
G36*
X0191574Y0116668D02*
X0195896Y0112346D01*
X0194356Y0110806D01*
X0190034Y0115128D01*
X0191574Y0116668D01*
G37*
G36*
X0192966Y0118060D02*
X0197288Y0113738D01*
X0195748Y0112198D01*
X0191426Y0116520D01*
X0192966Y0118060D01*
G37*
G36*
X0194358Y0119451D02*
X0198680Y0115129D01*
X0197140Y0113589D01*
X0192818Y0117911D01*
X0194358Y0119451D01*
G37*
G36*
X0195750Y0120843D02*
X0200072Y0116521D01*
X0198532Y0114981D01*
X0194210Y0119303D01*
X0195750Y0120843D01*
G37*
G36*
X0197142Y0122235D02*
X0201464Y0117913D01*
X0199924Y0116373D01*
X0195602Y0120695D01*
X0197142Y0122235D01*
G37*
G36*
X0198534Y0123627D02*
X0202856Y0119305D01*
X0201316Y0117765D01*
X0196994Y0122087D01*
X0198534Y0123627D01*
G37*
G36*
X0199926Y0125019D02*
X0204248Y0120697D01*
X0202708Y0119157D01*
X0198386Y0123479D01*
X0199926Y0125019D01*
G37*
G36*
X0201318Y0126411D02*
X0205640Y0122089D01*
X0204100Y0120549D01*
X0199778Y0124871D01*
X0201318Y0126411D01*
G37*
G36*
X0199778Y0132529D02*
X0204100Y0136851D01*
X0205640Y0135311D01*
X0201318Y0130989D01*
X0199778Y0132529D01*
G37*
G36*
X0198386Y0133921D02*
X0202708Y0138243D01*
X0204248Y0136703D01*
X0199926Y0132381D01*
X0198386Y0133921D01*
G37*
G36*
X0196994Y0135313D02*
X0201316Y0139635D01*
X0202856Y0138095D01*
X0198534Y0133773D01*
X0196994Y0135313D01*
G37*
G36*
X0195602Y0136705D02*
X0199924Y0141027D01*
X0201464Y0139487D01*
X0197142Y0135165D01*
X0195602Y0136705D01*
G37*
G36*
X0194210Y0138097D02*
X0198532Y0142419D01*
X0200072Y0140879D01*
X0195750Y0136557D01*
X0194210Y0138097D01*
G37*
G36*
X0192818Y0139488D02*
X0197140Y0143810D01*
X0198680Y0142270D01*
X0194358Y0137948D01*
X0192818Y0139488D01*
G37*
G36*
X0191426Y0140880D02*
X0195748Y0145202D01*
X0197288Y0143662D01*
X0192966Y0139340D01*
X0191426Y0140880D01*
G37*
G36*
X0190034Y0142272D02*
X0194356Y0146594D01*
X0195896Y0145054D01*
X0191574Y0140732D01*
X0190034Y0142272D01*
G37*
G36*
X0188642Y0143664D02*
X0192964Y0147986D01*
X0194504Y0146446D01*
X0190182Y0142124D01*
X0188642Y0143664D01*
G37*
G36*
X0187250Y0145056D02*
X0191572Y0149378D01*
X0193112Y0147838D01*
X0188790Y0143516D01*
X0187250Y0145056D01*
G37*
G36*
X0185858Y0146448D02*
X0190180Y0150770D01*
X0191720Y0149230D01*
X0187398Y0144908D01*
X0185858Y0146448D01*
G37*
G36*
X0184466Y0147840D02*
X0188788Y0152162D01*
X0190328Y0150622D01*
X0186006Y0146300D01*
X0184466Y0147840D01*
G37*
G36*
X0183075Y0149232D02*
X0187397Y0153554D01*
X0188937Y0152014D01*
X0184615Y0147692D01*
X0183075Y0149232D01*
G37*
G36*
X0181683Y0150624D02*
X0186005Y0154946D01*
X0187545Y0153406D01*
X0183223Y0149084D01*
X0181683Y0150624D01*
G37*
G36*
X0180291Y0152016D02*
X0184613Y0156338D01*
X0186153Y0154798D01*
X0181831Y0150476D01*
X0180291Y0152016D01*
G37*
G36*
X0178899Y0153408D02*
X0183221Y0157730D01*
X0184761Y0156190D01*
X0180439Y0151868D01*
X0178899Y0153408D01*
G37*
G36*
X0177507Y0154800D02*
X0181829Y0159122D01*
X0183369Y0157582D01*
X0179047Y0153260D01*
X0177507Y0154800D01*
G37*
G36*
X0176115Y0156192D02*
X0180437Y0160514D01*
X0181977Y0158974D01*
X0177655Y0154652D01*
X0176115Y0156192D01*
G37*
G36*
X0174723Y0157584D02*
X0179045Y0161906D01*
X0180585Y0160366D01*
X0176263Y0156044D01*
X0174723Y0157584D01*
G37*
G36*
X0173331Y0158976D02*
X0177653Y0163298D01*
X0179193Y0161758D01*
X0174871Y0157436D01*
X0173331Y0158976D01*
G37*
G36*
X0171939Y0160368D02*
X0176261Y0164690D01*
X0177801Y0163150D01*
X0173479Y0158828D01*
X0171939Y0160368D01*
G37*
G36*
X0170547Y0161760D02*
X0174869Y0166082D01*
X0176409Y0164542D01*
X0172087Y0160220D01*
X0170547Y0161760D01*
G37*
G36*
X0169155Y0163152D02*
X0173477Y0167474D01*
X0175017Y0165934D01*
X0170695Y0161612D01*
X0169155Y0163152D01*
G37*
G36*
X0167763Y0164543D02*
X0172085Y0168865D01*
X0173625Y0167325D01*
X0169303Y0163003D01*
X0167763Y0164543D01*
G37*
G36*
X0166371Y0165935D02*
X0170693Y0170257D01*
X0172233Y0168717D01*
X0167911Y0164395D01*
X0166371Y0165935D01*
G37*
G36*
X0164979Y0167327D02*
X0169301Y0171649D01*
X0170841Y0170109D01*
X0166519Y0165787D01*
X0164979Y0167327D01*
G37*
G36*
X0163587Y0168719D02*
X0167909Y0173041D01*
X0169449Y0171501D01*
X0165127Y0167179D01*
X0163587Y0168719D01*
G37*
G36*
X0162195Y0170111D02*
X0166517Y0174433D01*
X0168057Y0172893D01*
X0163735Y0168571D01*
X0162195Y0170111D01*
G37*
G36*
X0160803Y0171503D02*
X0165125Y0175825D01*
X0166665Y0174285D01*
X0162343Y0169963D01*
X0160803Y0171503D01*
G37*
G36*
X0159411Y0172895D02*
X0163733Y0177217D01*
X0165273Y0175677D01*
X0160951Y0171355D01*
X0159411Y0172895D01*
G37*
G36*
X0158020Y0174287D02*
X0162342Y0178609D01*
X0163882Y0177069D01*
X0159560Y0172747D01*
X0158020Y0174287D01*
G37*
G36*
X0156628Y0175679D02*
X0160950Y0180001D01*
X0162490Y0178461D01*
X0158168Y0174139D01*
X0156628Y0175679D01*
G37*
G36*
X0155236Y0177071D02*
X0159558Y0181393D01*
X0161098Y0179853D01*
X0156776Y0175531D01*
X0155236Y0177071D01*
G37*
G36*
X0153844Y0178463D02*
X0158166Y0182785D01*
X0159706Y0181245D01*
X0155384Y0176923D01*
X0153844Y0178463D01*
G37*
G36*
X0152452Y0179855D02*
X0156774Y0184177D01*
X0158314Y0182637D01*
X0153992Y0178315D01*
X0152452Y0179855D01*
G37*
G36*
X0151060Y0181247D02*
X0155382Y0185569D01*
X0156922Y0184029D01*
X0152600Y0179707D01*
X0151060Y0181247D01*
G37*
G36*
X0144942Y0179707D02*
X0140620Y0184029D01*
X0142160Y0185569D01*
X0146482Y0181247D01*
X0144942Y0179707D01*
G37*
G36*
X0143550Y0178315D02*
X0139228Y0182637D01*
X0140768Y0184177D01*
X0145090Y0179855D01*
X0143550Y0178315D01*
G37*
G36*
X0142158Y0176923D02*
X0137836Y0181245D01*
X0139376Y0182785D01*
X0143698Y0178463D01*
X0142158Y0176923D01*
G37*
G36*
X0140766Y0175531D02*
X0136444Y0179853D01*
X0137984Y0181393D01*
X0142306Y0177071D01*
X0140766Y0175531D01*
G37*
G36*
X0139375Y0174139D02*
X0135053Y0178461D01*
X0136593Y0180001D01*
X0140915Y0175679D01*
X0139375Y0174139D01*
G37*
G36*
X0137983Y0172747D02*
X0133661Y0177069D01*
X0135201Y0178609D01*
X0139523Y0174287D01*
X0137983Y0172747D01*
G37*
G36*
X0136591Y0171355D02*
X0132269Y0175677D01*
X0133809Y0177217D01*
X0138131Y0172895D01*
X0136591Y0171355D01*
G37*
G36*
X0135199Y0169963D02*
X0130877Y0174285D01*
X0132417Y0175825D01*
X0136739Y0171503D01*
X0135199Y0169963D01*
G37*
G36*
X0133807Y0168571D02*
X0129485Y0172893D01*
X0131025Y0174433D01*
X0135347Y0170111D01*
X0133807Y0168571D01*
G37*
G36*
X0132415Y0167179D02*
X0128093Y0171501D01*
X0129633Y0173041D01*
X0133955Y0168719D01*
X0132415Y0167179D01*
G37*
G36*
X0131023Y0165787D02*
X0126701Y0170109D01*
X0128241Y0171649D01*
X0132563Y0167327D01*
X0131023Y0165787D01*
G37*
G36*
X0129631Y0164395D02*
X0125309Y0168717D01*
X0126849Y0170257D01*
X0131171Y0165935D01*
X0129631Y0164395D01*
G37*
G36*
X0128239Y0163003D02*
X0123917Y0167325D01*
X0125457Y0168865D01*
X0129779Y0164543D01*
X0128239Y0163003D01*
G37*
G36*
X0126847Y0161612D02*
X0122525Y0165934D01*
X0124065Y0167474D01*
X0128387Y0163152D01*
X0126847Y0161612D01*
G37*
G36*
X0125455Y0160220D02*
X0121133Y0164542D01*
X0122673Y0166082D01*
X0126995Y0161760D01*
X0125455Y0160220D01*
G37*
G36*
X0124063Y0158828D02*
X0119741Y0163150D01*
X0121281Y0164690D01*
X0125603Y0160368D01*
X0124063Y0158828D01*
G37*
G36*
X0122671Y0157436D02*
X0118349Y0161758D01*
X0119889Y0163298D01*
X0124211Y0158976D01*
X0122671Y0157436D01*
G37*
G36*
X0121279Y0156044D02*
X0116957Y0160366D01*
X0118497Y0161906D01*
X0122819Y0157584D01*
X0121279Y0156044D01*
G37*
G36*
X0119887Y0154652D02*
X0115565Y0158974D01*
X0117105Y0160514D01*
X0121427Y0156192D01*
X0119887Y0154652D01*
G37*
G36*
X0118495Y0153260D02*
X0114173Y0157582D01*
X0115713Y0159122D01*
X0120035Y0154800D01*
X0118495Y0153260D01*
G37*
G36*
X0117103Y0151868D02*
X0112781Y0156190D01*
X0114321Y0157730D01*
X0118643Y0153408D01*
X0117103Y0151868D01*
G37*
G36*
X0115711Y0150476D02*
X0111389Y0154798D01*
X0112929Y0156338D01*
X0117251Y0152016D01*
X0115711Y0150476D01*
G37*
G36*
X0114320Y0149084D02*
X0109998Y0153406D01*
X0111538Y0154946D01*
X0115860Y0150624D01*
X0114320Y0149084D01*
G37*
G36*
X0112928Y0147692D02*
X0108606Y0152014D01*
X0110146Y0153554D01*
X0114468Y0149232D01*
X0112928Y0147692D01*
G37*
G36*
X0111536Y0146300D02*
X0107214Y0150622D01*
X0108754Y0152162D01*
X0113076Y0147840D01*
X0111536Y0146300D01*
G37*
G36*
X0110144Y0144908D02*
X0105822Y0149230D01*
X0107362Y0150770D01*
X0111684Y0146448D01*
X0110144Y0144908D01*
G37*
G36*
X0108752Y0143516D02*
X0104430Y0147838D01*
X0105970Y0149378D01*
X0110292Y0145056D01*
X0108752Y0143516D01*
G37*
G36*
X0107360Y0142124D02*
X0103038Y0146446D01*
X0104578Y0147986D01*
X0108900Y0143664D01*
X0107360Y0142124D01*
G37*
G36*
X0105968Y0140732D02*
X0101646Y0145054D01*
X0103186Y0146594D01*
X0107508Y0142272D01*
X0105968Y0140732D01*
G37*
G36*
X0104576Y0139340D02*
X0100254Y0143662D01*
X0101794Y0145202D01*
X0106116Y0140880D01*
X0104576Y0139340D01*
G37*
G36*
X0103184Y0137948D02*
X0098862Y0142270D01*
X0100402Y0143810D01*
X0104724Y0139488D01*
X0103184Y0137948D01*
G37*
G36*
X0101792Y0136557D02*
X0097470Y0140879D01*
X0099010Y0142419D01*
X0103332Y0138097D01*
X0101792Y0136557D01*
G37*
G36*
X0100400Y0135165D02*
X0096078Y0139487D01*
X0097618Y0141027D01*
X0101940Y0136705D01*
X0100400Y0135165D01*
G37*
G36*
X0099008Y0133773D02*
X0094686Y0138095D01*
X0096226Y0139635D01*
X0100548Y0135313D01*
X0099008Y0133773D01*
G37*
G36*
X0097616Y0132381D02*
X0093294Y0136703D01*
X0094834Y0138243D01*
X0099156Y0133921D01*
X0097616Y0132381D01*
G37*
G36*
X0096224Y0130989D02*
X0091902Y0135311D01*
X0093442Y0136851D01*
X0097764Y0132529D01*
X0096224Y0130989D01*
G37*
G36*
X0097764Y0124871D02*
X0093442Y0120549D01*
X0091902Y0122089D01*
X0096224Y0126411D01*
X0097764Y0124871D01*
G37*
G36*
X0099156Y0123479D02*
X0094834Y0119157D01*
X0093294Y0120697D01*
X0097616Y0125019D01*
X0099156Y0123479D01*
G37*
G36*
X0100548Y0122087D02*
X0096226Y0117765D01*
X0094686Y0119305D01*
X0099008Y0123627D01*
X0100548Y0122087D01*
G37*
G36*
X0101940Y0120695D02*
X0097618Y0116373D01*
X0096078Y0117913D01*
X0100400Y0122235D01*
X0101940Y0120695D01*
G37*
G36*
X0103332Y0119303D02*
X0099010Y0114981D01*
X0097470Y0116521D01*
X0101792Y0120843D01*
X0103332Y0119303D01*
G37*
G36*
X0104724Y0117911D02*
X0100402Y0113589D01*
X0098862Y0115129D01*
X0103184Y0119451D01*
X0104724Y0117911D01*
G37*
G36*
X0106116Y0116520D02*
X0101794Y0112198D01*
X0100254Y0113738D01*
X0104576Y0118060D01*
X0106116Y0116520D01*
G37*
G36*
X0107508Y0115128D02*
X0103186Y0110806D01*
X0101646Y0112346D01*
X0105968Y0116668D01*
X0107508Y0115128D01*
G37*
G36*
X0108900Y0113736D02*
X0104578Y0109414D01*
X0103038Y0110954D01*
X0107360Y0115276D01*
X0108900Y0113736D01*
G37*
G36*
X0110292Y0112344D02*
X0105970Y0108022D01*
X0104430Y0109562D01*
X0108752Y0113884D01*
X0110292Y0112344D01*
G37*
G36*
X0111684Y0110952D02*
X0107362Y0106630D01*
X0105822Y0108170D01*
X0110144Y0112492D01*
X0111684Y0110952D01*
G37*
G36*
X0113076Y0109560D02*
X0108754Y0105238D01*
X0107214Y0106778D01*
X0111536Y0111100D01*
X0113076Y0109560D01*
G37*
G36*
X0114468Y0108168D02*
X0110146Y0103846D01*
X0108606Y0105386D01*
X0112928Y0109708D01*
X0114468Y0108168D01*
G37*
G36*
X0115860Y0106776D02*
X0111538Y0102454D01*
X0109998Y0103994D01*
X0114320Y0108316D01*
X0115860Y0106776D01*
G37*
G36*
X0117251Y0105384D02*
X0112929Y0101062D01*
X0111389Y0102602D01*
X0115711Y0106924D01*
X0117251Y0105384D01*
G37*
G36*
X0118643Y0103992D02*
X0114321Y0099670D01*
X0112781Y0101210D01*
X0117103Y0105532D01*
X0118643Y0103992D01*
G37*
G36*
X0120035Y0102600D02*
X0115713Y0098278D01*
X0114173Y0099818D01*
X0118495Y0104140D01*
X0120035Y0102600D01*
G37*
G36*
X0121427Y0101208D02*
X0117105Y0096886D01*
X0115565Y0098426D01*
X0119887Y0102748D01*
X0121427Y0101208D01*
G37*
G36*
X0122819Y0099816D02*
X0118497Y0095494D01*
X0116957Y0097034D01*
X0121279Y0101356D01*
X0122819Y0099816D01*
G37*
G36*
X0124211Y0098424D02*
X0119889Y0094102D01*
X0118349Y0095642D01*
X0122671Y0099964D01*
X0124211Y0098424D01*
G37*
G36*
X0125603Y0097032D02*
X0121281Y0092710D01*
X0119741Y0094250D01*
X0124063Y0098572D01*
X0125603Y0097032D01*
G37*
G36*
X0126995Y0095640D02*
X0122673Y0091318D01*
X0121133Y0092858D01*
X0125455Y0097180D01*
X0126995Y0095640D01*
G37*
G36*
X0128387Y0094248D02*
X0124065Y0089926D01*
X0122525Y0091466D01*
X0126847Y0095788D01*
X0128387Y0094248D01*
G37*
G36*
X0129779Y0092857D02*
X0125457Y0088535D01*
X0123917Y0090075D01*
X0128239Y0094397D01*
X0129779Y0092857D01*
G37*
G36*
X0131171Y0091465D02*
X0126849Y0087143D01*
X0125309Y0088683D01*
X0129631Y0093005D01*
X0131171Y0091465D01*
G37*
G36*
X0132563Y0090073D02*
X0128241Y0085751D01*
X0126701Y0087291D01*
X0131023Y0091613D01*
X0132563Y0090073D01*
G37*
G36*
X0133955Y0088681D02*
X0129633Y0084359D01*
X0128093Y0085899D01*
X0132415Y0090221D01*
X0133955Y0088681D01*
G37*
G36*
X0135347Y0087289D02*
X0131025Y0082967D01*
X0129485Y0084507D01*
X0133807Y0088829D01*
X0135347Y0087289D01*
G37*
G36*
X0136739Y0085897D02*
X0132417Y0081575D01*
X0130877Y0083115D01*
X0135199Y0087437D01*
X0136739Y0085897D01*
G37*
G36*
X0138131Y0084505D02*
X0133809Y0080183D01*
X0132269Y0081723D01*
X0136591Y0086045D01*
X0138131Y0084505D01*
G37*
G36*
X0139523Y0083113D02*
X0135201Y0078791D01*
X0133661Y0080331D01*
X0137983Y0084653D01*
X0139523Y0083113D01*
G37*
G36*
X0140915Y0081721D02*
X0136593Y0077399D01*
X0135053Y0078939D01*
X0139375Y0083261D01*
X0140915Y0081721D01*
G37*
G36*
X0142306Y0080329D02*
X0137984Y0076007D01*
X0136444Y0077547D01*
X0140766Y0081869D01*
X0142306Y0080329D01*
G37*
G36*
X0143698Y0078937D02*
X0139376Y0074615D01*
X0137836Y0076155D01*
X0142158Y0080477D01*
X0143698Y0078937D01*
G37*
G36*
X0145090Y0077545D02*
X0140768Y0073223D01*
X0139228Y0074763D01*
X0143550Y0079085D01*
X0145090Y0077545D01*
G37*
G36*
X0146482Y0076153D02*
X0142160Y0071831D01*
X0140620Y0073371D01*
X0144942Y0077693D01*
X0146482Y0076153D01*
G37*
G36*
X0152600Y0077693D02*
X0156922Y0073371D01*
X0155382Y0071831D01*
X0151060Y0076153D01*
X0152600Y0077693D01*
G37*
G36*
X0153992Y0079085D02*
X0158314Y0074763D01*
X0156774Y0073223D01*
X0152452Y0077545D01*
X0153992Y0079085D01*
G37*
G36*
X0155384Y0080477D02*
X0159706Y0076155D01*
X0158166Y0074615D01*
X0153844Y0078937D01*
X0155384Y0080477D01*
G37*
G36*
X0156776Y0081869D02*
X0161098Y0077547D01*
X0159558Y0076007D01*
X0155236Y0080329D01*
X0156776Y0081869D01*
G37*
G36*
X0158168Y0083261D02*
X0162490Y0078939D01*
X0160950Y0077399D01*
X0156628Y0081721D01*
X0158168Y0083261D01*
G37*
G36*
X0159560Y0084653D02*
X0163882Y0080331D01*
X0162342Y0078791D01*
X0158020Y0083113D01*
X0159560Y0084653D01*
G37*
G36*
X0160951Y0086045D02*
X0165273Y0081723D01*
X0163733Y0080183D01*
X0159411Y0084505D01*
X0160951Y0086045D01*
G37*
G36*
X0162343Y0087437D02*
X0166665Y0083115D01*
X0165125Y0081575D01*
X0160803Y0085897D01*
X0162343Y0087437D01*
G37*
G36*
X0163735Y0088829D02*
X0168057Y0084507D01*
X0166517Y0082967D01*
X0162195Y0087289D01*
X0163735Y0088829D01*
G37*
G36*
X0165127Y0090221D02*
X0169449Y0085899D01*
X0167909Y0084359D01*
X0163587Y0088681D01*
X0165127Y0090221D01*
G37*
G36*
X0166519Y0091613D02*
X0170841Y0087291D01*
X0169301Y0085751D01*
X0164979Y0090073D01*
X0166519Y0091613D01*
G37*
G36*
X0167911Y0093005D02*
X0172233Y0088683D01*
X0170693Y0087143D01*
X0166371Y0091465D01*
X0167911Y0093005D01*
G37*
G36*
X0169289Y0094410D02*
X0173611Y0090088D01*
X0172071Y0088548D01*
X0167749Y0092870D01*
X0169289Y0094410D01*
G37*
G36*
X0170695Y0095788D02*
X0175017Y0091466D01*
X0173477Y0089926D01*
X0169155Y0094248D01*
X0170695Y0095788D01*
G37*
G36*
X0172087Y0097180D02*
X0176409Y0092858D01*
X0174869Y0091318D01*
X0170547Y0095640D01*
X0172087Y0097180D01*
G37*
G36*
X0173479Y0098572D02*
X0177801Y0094250D01*
X0176261Y0092710D01*
X0171939Y0097032D01*
X0173479Y0098572D01*
G37*
G36*
X0174871Y0099964D02*
X0179193Y0095642D01*
X0177653Y0094102D01*
X0173331Y0098424D01*
X0174871Y0099964D01*
G37*
G36*
X0176263Y0101356D02*
X0180585Y0097034D01*
X0179045Y0095494D01*
X0174723Y0099816D01*
X0176263Y0101356D01*
G37*
G36*
X0177655Y0102748D02*
X0181977Y0098426D01*
X0180437Y0096886D01*
X0176115Y0101208D01*
X0177655Y0102748D01*
G37*
G36*
X0179047Y0104140D02*
X0183369Y0099818D01*
X0181829Y0098278D01*
X0177507Y0102600D01*
X0179047Y0104140D01*
G37*
G36*
X0180439Y0105532D02*
X0184761Y0101210D01*
X0183221Y0099670D01*
X0178899Y0103992D01*
X0180439Y0105532D01*
G37*
D16*
X0144129Y0214629D02*
X0144129Y0214629D01*
X0139995Y0214629D01*
X0139995Y0214629D01*
X0144129Y0214629D01*
X0144129Y0217779D02*
X0144129Y0217779D01*
X0139995Y0217779D01*
X0139995Y0217779D01*
X0144129Y0217779D01*
X0144129Y0220928D02*
X0144129Y0220928D01*
X0139995Y0220928D01*
X0139995Y0220928D01*
X0144129Y0220928D01*
X0144129Y0224078D02*
X0144129Y0224078D01*
X0139995Y0224078D01*
X0139995Y0224078D01*
X0144129Y0224078D01*
X0144129Y0227228D02*
X0144129Y0227228D01*
X0139995Y0227228D01*
X0139995Y0227228D01*
X0144129Y0227228D01*
X0144129Y0230377D02*
X0144129Y0230377D01*
X0139995Y0230377D01*
X0139995Y0230377D01*
X0144129Y0230377D01*
X0144129Y0233527D02*
X0144129Y0233527D01*
X0139995Y0233527D01*
X0139995Y0233527D01*
X0144129Y0233527D01*
X0144129Y0236676D02*
X0144129Y0236676D01*
X0139995Y0236676D01*
X0139995Y0236676D01*
X0144129Y0236676D01*
X0144129Y0239826D02*
X0144129Y0239826D01*
X0139995Y0239826D01*
X0139995Y0239826D01*
X0144129Y0239826D01*
X0144129Y0242976D02*
X0144129Y0242976D01*
X0139995Y0242976D01*
X0139995Y0242976D01*
X0144129Y0242976D01*
X0144129Y0246125D02*
X0144129Y0246125D01*
X0139995Y0246125D01*
X0139995Y0246125D01*
X0144129Y0246125D01*
X0144129Y0249275D02*
X0144129Y0249275D01*
X0139995Y0249275D01*
X0139995Y0249275D01*
X0144129Y0249275D01*
X0144129Y0252424D02*
X0144129Y0252424D01*
X0139995Y0252424D01*
X0139995Y0252424D01*
X0144129Y0252424D01*
X0144129Y0255574D02*
X0144129Y0255574D01*
X0139995Y0255574D01*
X0139995Y0255574D01*
X0144129Y0255574D01*
X0144129Y0258724D02*
X0144129Y0258724D01*
X0139995Y0258724D01*
X0139995Y0258724D01*
X0144129Y0258724D01*
X0144129Y0261873D02*
X0144129Y0261873D01*
X0139995Y0261873D01*
X0139995Y0261873D01*
X0144129Y0261873D01*
X0144129Y0265023D02*
X0144129Y0265023D01*
X0139995Y0265023D01*
X0139995Y0265023D01*
X0144129Y0265023D01*
X0144129Y0268172D02*
X0144129Y0268172D01*
X0139995Y0268172D01*
X0139995Y0268172D01*
X0144129Y0268172D01*
X0144129Y0271322D02*
X0144129Y0271322D01*
X0139995Y0271322D01*
X0139995Y0271322D01*
X0144129Y0271322D01*
X0144129Y0274472D02*
X0144129Y0274472D01*
X0139995Y0274472D01*
X0139995Y0274472D01*
X0144129Y0274472D01*
X0144129Y0277621D02*
X0144129Y0277621D01*
X0139995Y0277621D01*
X0139995Y0277621D01*
X0144129Y0277621D01*
X0144129Y0280771D02*
X0144129Y0280771D01*
X0139995Y0280771D01*
X0139995Y0280771D01*
X0144129Y0280771D01*
X0095271Y0280771D02*
X0095271Y0280771D01*
X0099405Y0280771D01*
X0099405Y0280771D01*
X0095271Y0280771D01*
X0095271Y0277621D02*
X0095271Y0277621D01*
X0099405Y0277621D01*
X0099405Y0277621D01*
X0095271Y0277621D01*
X0095271Y0274472D02*
X0095271Y0274472D01*
X0099405Y0274472D01*
X0099405Y0274472D01*
X0095271Y0274472D01*
X0095271Y0271322D02*
X0095271Y0271322D01*
X0099405Y0271322D01*
X0099405Y0271322D01*
X0095271Y0271322D01*
X0095271Y0268172D02*
X0095271Y0268172D01*
X0099405Y0268172D01*
X0099405Y0268172D01*
X0095271Y0268172D01*
X0095271Y0265023D02*
X0095271Y0265023D01*
X0099405Y0265023D01*
X0099405Y0265023D01*
X0095271Y0265023D01*
X0095271Y0261873D02*
X0095271Y0261873D01*
X0099405Y0261873D01*
X0099405Y0261873D01*
X0095271Y0261873D01*
X0095271Y0258724D02*
X0095271Y0258724D01*
X0099405Y0258724D01*
X0099405Y0258724D01*
X0095271Y0258724D01*
X0095271Y0255574D02*
X0095271Y0255574D01*
X0099405Y0255574D01*
X0099405Y0255574D01*
X0095271Y0255574D01*
X0095271Y0252424D02*
X0095271Y0252424D01*
X0099405Y0252424D01*
X0099405Y0252424D01*
X0095271Y0252424D01*
X0095271Y0249275D02*
X0095271Y0249275D01*
X0099405Y0249275D01*
X0099405Y0249275D01*
X0095271Y0249275D01*
X0095271Y0246125D02*
X0095271Y0246125D01*
X0099405Y0246125D01*
X0099405Y0246125D01*
X0095271Y0246125D01*
X0095271Y0242976D02*
X0095271Y0242976D01*
X0099405Y0242976D01*
X0099405Y0242976D01*
X0095271Y0242976D01*
X0095271Y0239826D02*
X0095271Y0239826D01*
X0099405Y0239826D01*
X0099405Y0239826D01*
X0095271Y0239826D01*
X0095271Y0236676D02*
X0095271Y0236676D01*
X0099405Y0236676D01*
X0099405Y0236676D01*
X0095271Y0236676D01*
X0095271Y0233527D02*
X0095271Y0233527D01*
X0099405Y0233527D01*
X0099405Y0233527D01*
X0095271Y0233527D01*
X0095271Y0230377D02*
X0095271Y0230377D01*
X0099405Y0230377D01*
X0099405Y0230377D01*
X0095271Y0230377D01*
X0095271Y0227228D02*
X0095271Y0227228D01*
X0099405Y0227228D01*
X0099405Y0227228D01*
X0095271Y0227228D01*
X0095271Y0224078D02*
X0095271Y0224078D01*
X0099405Y0224078D01*
X0099405Y0224078D01*
X0095271Y0224078D01*
X0095271Y0220928D02*
X0095271Y0220928D01*
X0099405Y0220928D01*
X0099405Y0220928D01*
X0095271Y0220928D01*
X0095271Y0217779D02*
X0095271Y0217779D01*
X0099405Y0217779D01*
X0099405Y0217779D01*
X0095271Y0217779D01*
X0095271Y0214629D02*
X0095271Y0214629D01*
X0099405Y0214629D01*
X0099405Y0214629D01*
X0095271Y0214629D01*
D17*
X0138100Y0065756D03*
X0154500Y0065156D03*
X0171100Y0065356D03*
X0171100Y0034844D03*
X0154500Y0034644D03*
X0138100Y0035244D03*
D18*
X0227842Y0217026D03*
X0227842Y0224900D03*
X0227842Y0232774D03*
X0245558Y0232774D03*
X0245558Y0224900D03*
X0245558Y0217026D03*
D19*
X0243527Y0161200D03*
X0243527Y0156200D03*
X0243527Y0151200D03*
X0243527Y0146200D03*
X0221873Y0146200D03*
X0221873Y0151200D03*
X0221873Y0156200D03*
X0221873Y0161200D03*
D20*
X0190600Y0194500D03*
X0190600Y0203500D03*
X0190600Y0212500D03*
D21*
X0215600Y0203500D03*
D22*
X0226601Y0257800D03*
X0229750Y0257800D03*
X0232900Y0257800D03*
X0236050Y0257800D03*
X0239199Y0257800D03*
D23*
X0250617Y0258957D03*
X0250617Y0280611D03*
X0215183Y0280611D03*
X0215183Y0258957D03*
D24*
X0224400Y0268800D03*
X0241400Y0268800D03*
D25*
X0205932Y0090625D02*
X0202782Y0090625D01*
X0202782Y0092775D01*
X0205932Y0092775D01*
X0205932Y0090625D01*
X0205932Y0092774D02*
X0202782Y0092774D01*
X0202782Y0082625D02*
X0205932Y0082625D01*
X0202782Y0082625D02*
X0202782Y0084775D01*
X0205932Y0084775D01*
X0205932Y0082625D01*
X0205932Y0084774D02*
X0202782Y0084774D01*
X0195932Y0082625D02*
X0192782Y0082625D01*
X0192782Y0084775D01*
X0195932Y0084775D01*
X0195932Y0082625D01*
X0195932Y0084774D02*
X0192782Y0084774D01*
X0192782Y0090625D02*
X0195932Y0090625D01*
X0192782Y0090625D02*
X0192782Y0092775D01*
X0195932Y0092775D01*
X0195932Y0090625D01*
X0195932Y0092774D02*
X0192782Y0092774D01*
D26*
X0190900Y0103900D03*
X0194500Y0104500D03*
X0203500Y0109900D03*
X0208300Y0106300D03*
X0203500Y0117700D03*
X0199300Y0126700D03*
X0198100Y0132100D03*
X0203500Y0141700D03*
X0199900Y0145300D03*
X0212500Y0148900D03*
X0206500Y0157300D03*
X0205900Y0170500D03*
X0195700Y0183100D03*
X0189700Y0183700D03*
X0178300Y0168100D03*
X0178300Y0165100D03*
X0181300Y0165100D03*
X0181300Y0162100D03*
X0184900Y0162700D03*
X0184900Y0159700D03*
X0188500Y0156100D03*
X0180100Y0150100D03*
X0169300Y0155500D03*
X0166300Y0163900D03*
X0175300Y0168100D03*
X0175300Y0171100D03*
X0169900Y0173500D03*
X0168700Y0186700D03*
X0168700Y0192700D03*
X0159700Y0204100D03*
X0149500Y0199900D03*
X0144700Y0199300D03*
X0142300Y0202300D03*
X0141100Y0205300D03*
X0139300Y0208300D03*
X0137100Y0211900D03*
X0135700Y0214900D03*
X0135100Y0217900D03*
X0134500Y0220900D03*
X0133900Y0224500D03*
X0133900Y0228100D03*
X0130300Y0227500D03*
X0135700Y0233500D03*
X0136900Y0236500D03*
X0152500Y0252700D03*
X0150700Y0255700D03*
X0148900Y0258700D03*
X0147100Y0261700D03*
X0147100Y0267700D03*
X0147100Y0271300D03*
X0147100Y0274300D03*
X0147100Y0277600D03*
X0147100Y0280700D03*
X0160300Y0287500D03*
X0120700Y0267700D03*
X0121900Y0264700D03*
X0119500Y0271300D03*
X0118300Y0274300D03*
X0115300Y0261700D03*
X0115900Y0258700D03*
X0115800Y0255600D03*
X0115900Y0252100D03*
X0115900Y0242500D03*
X0109900Y0230400D03*
X0108100Y0226900D03*
X0105700Y0223900D03*
X0087700Y0239500D03*
X0087700Y0255100D03*
X0102700Y0277300D03*
X0101500Y0286300D03*
X0155500Y0243100D03*
X0155500Y0237100D03*
X0157900Y0225700D03*
X0149500Y0193900D03*
X0150700Y0174100D03*
X0133300Y0165100D03*
X0123100Y0169600D03*
X0120100Y0170500D03*
X0117100Y0169900D03*
X0114100Y0170900D03*
X0111100Y0170600D03*
X0108100Y0170200D03*
X0099700Y0184300D03*
X0102100Y0188500D03*
X0091900Y0177100D03*
X0091900Y0171100D03*
X0089500Y0156700D03*
X0079300Y0151900D03*
X0079300Y0145300D03*
X0091900Y0139300D03*
X0106300Y0127300D03*
X0108700Y0129700D03*
X0111100Y0132100D03*
X0113500Y0134500D03*
X0115900Y0136900D03*
X0118300Y0139300D03*
X0120700Y0141700D03*
X0123100Y0144100D03*
X0125500Y0145900D03*
X0127900Y0148300D03*
X0124300Y0156100D03*
X0119500Y0123100D03*
X0111100Y0114700D03*
X0114100Y0111100D03*
X0122500Y0106300D03*
X0118900Y0090700D03*
X0110500Y0088900D03*
X0104500Y0088900D03*
X0099100Y0090100D03*
X0099100Y0103900D03*
X0105100Y0120100D03*
X0105100Y0123700D03*
X0137500Y0120700D03*
X0157900Y0108700D03*
X0161500Y0095500D03*
X0158500Y0094300D03*
X0151900Y0096100D03*
X0144100Y0094900D03*
X0145300Y0082300D03*
X0148900Y0066100D03*
X0130300Y0067900D03*
X0130300Y0062500D03*
X0116500Y0061900D03*
X0104500Y0074500D03*
X0132700Y0035500D03*
X0149500Y0034300D03*
X0166300Y0034900D03*
X0189100Y0052900D03*
X0193900Y0064300D03*
X0183700Y0069700D03*
X0176500Y0078700D03*
X0176500Y0084700D03*
X0178300Y0091900D03*
X0169000Y0096500D03*
X0165900Y0096700D03*
X0165900Y0093500D03*
X0207700Y0076900D03*
X0216100Y0096100D03*
X0222700Y0106300D03*
X0223300Y0112300D03*
X0222700Y0130300D03*
X0205300Y0131500D03*
X0229300Y0151300D03*
X0237700Y0150700D03*
X0237100Y0156100D03*
X0243700Y0164500D03*
X0242500Y0171100D03*
X0243100Y0142300D03*
X0246100Y0084100D03*
X0231700Y0075700D03*
X0204700Y0250300D03*
D27*
X0214900Y0269500D03*
X0211900Y0223900D03*
X0202900Y0203500D03*
X0192100Y0223300D03*
X0222700Y0174100D03*
M02*
