%
M48
M72
T01C0.01200
T02C0.01600
T03C0.03150
T04C0.03500
T05C0.04000
%
T01
X99100Y90100
X104500Y88900
X110500Y88900
X118900Y90700
X122500Y106300
X114100Y111100
X111100Y114700
X105100Y120100
X105100Y123700
X106300Y127300
X108700Y129700
X111100Y132100
X113500Y134500
X115900Y136900
X118300Y139300
X120700Y141700
X123100Y144100
X125500Y145900
X127900Y148300
X124300Y156100
X133300Y165100
X123100Y169600
X120100Y170500
X117100Y169900
X114100Y170900
X111100Y170600
X108100Y170200
X99700Y184300
X102100Y188500
X91900Y177100
X91900Y171100
X89500Y156700
X79300Y151900
X79300Y145300
X91900Y139300
X119500Y123100
X137500Y120700
X157900Y108700
X161500Y95500
X158500Y94300
X151900Y96100
X144100Y94900
X145300Y82300
X148900Y66100
X130300Y67900
X130300Y62500
X116500Y61900
X104500Y74500
X99100Y103900
X132700Y35500
X149500Y34300
X166300Y34900
X189100Y52900
X193900Y64300
X183700Y69700
X176500Y78700
X176500Y84700
X178300Y91900
X169000Y96500
X165900Y96700
X165900Y93500
X190900Y103900
X194500Y104500
X203500Y109900
X208300Y106300
X203500Y117700
X199300Y126700
X198100Y132100
X203500Y141700
X199900Y145300
X212500Y148900
X206500Y157300
X205900Y170500
X195700Y183100
X189700Y183700
X178300Y168100
X178300Y165100
X181300Y165100
X181300Y162100
X184900Y162700
X184900Y159700
X188500Y156100
X180100Y150100
X169300Y155500
X166300Y163900
X175300Y168100
X175300Y171100
X169900Y173500
X168700Y186700
X168700Y192700
X159700Y204100
X149500Y199900
X144700Y199300
X142300Y202300
X141100Y205300
X139300Y208300
X137100Y211900
X135700Y214900
X135100Y217900
X134500Y220900
X133900Y224500
X133900Y228100
X130300Y227500
X135700Y233500
X136900Y236500
X152500Y252700
X150700Y255700
X148900Y258700
X147100Y261700
X147100Y267700
X147100Y271300
X147100Y274300
X147100Y277600
X147100Y280700
X160300Y287500
X120700Y267700
X121900Y264700
X119500Y271300
X118300Y274300
X115300Y261700
X115900Y258700
X115800Y255600
X115900Y252100
X115900Y242500
X109900Y230400
X108100Y226900
X105700Y223900
X87700Y239500
X87700Y255100
X102700Y277300
X101500Y286300
X155500Y243100
X155500Y237100
X157900Y225700
X149500Y193900
X150700Y174100
X205300Y131500
X222700Y130300
X223300Y112300
X222700Y106300
X216100Y96100
X207700Y76900
X231700Y75700
X246100Y84100
X243100Y142300
X237700Y150700
X237100Y156100
X229300Y151300
X243700Y164500
X242500Y171100
X204700Y250300
T02
X214900Y269500
X211900Y223900
X202900Y203500
X192100Y223300
X222700Y174100
T03
X227842Y217026
X227842Y224900
X227842Y232774
X245558Y232774
X245558Y224900
X245558Y217026
T04
X78100Y47700
X78100Y57700
X78100Y67700
X78100Y77700
X78100Y87700
X78100Y97700
X77900Y115100
X77900Y125100
X77900Y135100
X77900Y160500
X77900Y170500
X77900Y180500
X77500Y195500
X77500Y205500
X77500Y215500
X77500Y225500
X77500Y239700
X77500Y249700
X77500Y259700
X77500Y269700
X77500Y279700
X77500Y289700
X165900Y277500
X175900Y277500
X185900Y277500
X195900Y277500
X192500Y43300
X202500Y43300
X212500Y43300
X222500Y43300
X232500Y43300
X242500Y43300
T05
X241400Y268800
X224400Y268800
M30
