G75*
%MOIN*%
%OFA0B0*%
%FSLAX25Y25*%
%IPPOS*%
%LPD*%
%AMOC8*
5,1,8,0,0,1.08239X$1,22.5*
%
%ADD10C,0.05500*%
%ADD11C,0.05150*%
%ADD12C,0.02400*%
%ADD13C,0.02800*%
%ADD14C,0.00600*%
D10*
X0078100Y0047700D03*
X0078100Y0057700D03*
X0078100Y0067700D03*
X0078100Y0077700D03*
X0078100Y0087700D03*
X0078100Y0097700D03*
X0077900Y0115100D03*
X0077900Y0125100D03*
X0077900Y0135100D03*
X0077900Y0160500D03*
X0077900Y0170500D03*
X0077900Y0180500D03*
X0077500Y0195500D03*
X0077500Y0205500D03*
X0077500Y0215500D03*
X0077500Y0225500D03*
X0077500Y0239700D03*
X0077500Y0249700D03*
X0077500Y0259700D03*
X0077500Y0269700D03*
X0077500Y0279700D03*
X0077500Y0289700D03*
X0165900Y0277500D03*
X0175900Y0277500D03*
X0185900Y0277500D03*
X0195900Y0277500D03*
X0192500Y0043300D03*
X0202500Y0043300D03*
X0212500Y0043300D03*
X0222500Y0043300D03*
X0232500Y0043300D03*
X0242500Y0043300D03*
D11*
X0245558Y0217026D03*
X0245558Y0224900D03*
X0245558Y0232774D03*
X0227842Y0232774D03*
X0227842Y0224900D03*
X0227842Y0217026D03*
D12*
X0204700Y0250300D03*
X0157900Y0225700D03*
X0155500Y0237100D03*
X0155500Y0243100D03*
X0152500Y0252700D03*
X0150700Y0255700D03*
X0148900Y0258700D03*
X0147100Y0261700D03*
X0147100Y0267700D03*
X0147100Y0271300D03*
X0147100Y0274300D03*
X0147100Y0277600D03*
X0147100Y0280700D03*
X0160300Y0287500D03*
X0120700Y0267700D03*
X0121900Y0264700D03*
X0119500Y0271300D03*
X0118300Y0274300D03*
X0115300Y0261700D03*
X0115900Y0258700D03*
X0115800Y0255600D03*
X0115900Y0252100D03*
X0115900Y0242500D03*
X0109900Y0230400D03*
X0108100Y0226900D03*
X0105700Y0223900D03*
X0087700Y0239500D03*
X0087700Y0255100D03*
X0102700Y0277300D03*
X0101500Y0286300D03*
X0136900Y0236500D03*
X0135700Y0233500D03*
X0133900Y0228100D03*
X0133900Y0224500D03*
X0134500Y0220900D03*
X0135100Y0217900D03*
X0135700Y0214900D03*
X0137100Y0211900D03*
X0139300Y0208300D03*
X0141100Y0205300D03*
X0142300Y0202300D03*
X0144700Y0199300D03*
X0149500Y0199900D03*
X0149500Y0193900D03*
X0159700Y0204100D03*
X0168700Y0192700D03*
X0168700Y0186700D03*
X0169900Y0173500D03*
X0175300Y0171100D03*
X0175300Y0168100D03*
X0178300Y0168100D03*
X0178300Y0165100D03*
X0181300Y0165100D03*
X0181300Y0162100D03*
X0184900Y0162700D03*
X0184900Y0159700D03*
X0188500Y0156100D03*
X0180100Y0150100D03*
X0169300Y0155500D03*
X0166300Y0163900D03*
X0150700Y0174100D03*
X0133300Y0165100D03*
X0123100Y0169600D03*
X0120100Y0170500D03*
X0117100Y0169900D03*
X0114100Y0170900D03*
X0111100Y0170600D03*
X0108100Y0170200D03*
X0099700Y0184300D03*
X0102100Y0188500D03*
X0091900Y0177100D03*
X0091900Y0171100D03*
X0089500Y0156700D03*
X0079300Y0151900D03*
X0079300Y0145300D03*
X0091900Y0139300D03*
X0106300Y0127300D03*
X0108700Y0129700D03*
X0111100Y0132100D03*
X0113500Y0134500D03*
X0115900Y0136900D03*
X0118300Y0139300D03*
X0120700Y0141700D03*
X0123100Y0144100D03*
X0125500Y0145900D03*
X0127900Y0148300D03*
X0124300Y0156100D03*
X0119500Y0123100D03*
X0111100Y0114700D03*
X0114100Y0111100D03*
X0122500Y0106300D03*
X0118900Y0090700D03*
X0110500Y0088900D03*
X0104500Y0088900D03*
X0099100Y0090100D03*
X0099100Y0103900D03*
X0105100Y0120100D03*
X0105100Y0123700D03*
X0137500Y0120700D03*
X0157900Y0108700D03*
X0161500Y0095500D03*
X0158500Y0094300D03*
X0151900Y0096100D03*
X0144100Y0094900D03*
X0145300Y0082300D03*
X0148900Y0066100D03*
X0130300Y0067900D03*
X0130300Y0062500D03*
X0116500Y0061900D03*
X0104500Y0074500D03*
X0132700Y0035500D03*
X0149500Y0034300D03*
X0166300Y0034900D03*
X0189100Y0052900D03*
X0193900Y0064300D03*
X0183700Y0069700D03*
X0176500Y0078700D03*
X0176500Y0084700D03*
X0178300Y0091900D03*
X0169000Y0096500D03*
X0165900Y0096700D03*
X0165900Y0093500D03*
X0190900Y0103900D03*
X0194500Y0104500D03*
X0203500Y0109900D03*
X0208300Y0106300D03*
X0203500Y0117700D03*
X0199300Y0126700D03*
X0198100Y0132100D03*
X0203500Y0141700D03*
X0199900Y0145300D03*
X0212500Y0148900D03*
X0206500Y0157300D03*
X0205900Y0170500D03*
X0195700Y0183100D03*
X0189700Y0183700D03*
X0229300Y0151300D03*
X0237700Y0150700D03*
X0237100Y0156100D03*
X0243700Y0164500D03*
X0242500Y0171100D03*
X0243100Y0142300D03*
X0222700Y0130300D03*
X0205300Y0131500D03*
X0223300Y0112300D03*
X0222700Y0106300D03*
X0216100Y0096100D03*
X0207700Y0076900D03*
X0231700Y0075700D03*
X0246100Y0084100D03*
X0130300Y0227500D03*
D13*
X0192100Y0223300D03*
X0202900Y0203500D03*
X0211900Y0223900D03*
X0214900Y0269500D03*
X0222700Y0174100D03*
D14*
X0073305Y0036570D02*
X0074126Y0034041D01*
X0075690Y0031890D01*
X0077841Y0030326D01*
X0080370Y0029505D01*
X0081700Y0029400D01*
X0249100Y0029400D01*
X0250148Y0029482D01*
X0252142Y0030130D01*
X0253838Y0031362D01*
X0255070Y0033058D01*
X0255718Y0035052D01*
X0255800Y0036100D01*
X0255800Y0289900D01*
X0255747Y0290573D01*
X0255331Y0291852D01*
X0254541Y0292941D01*
X0253452Y0293731D01*
X0252173Y0294147D01*
X0251500Y0294200D01*
X0074500Y0294200D01*
X0074246Y0294175D01*
X0073778Y0293981D01*
X0073419Y0293622D01*
X0073225Y0293154D01*
X0073200Y0292900D01*
X0073200Y0037900D01*
X0073305Y0036570D01*
X0073304Y0036581D02*
X0130811Y0036581D01*
X0130600Y0036370D02*
X0130600Y0034630D01*
X0131830Y0033400D01*
X0133570Y0033400D01*
X0134800Y0034630D01*
X0134800Y0036370D01*
X0133570Y0037600D01*
X0131830Y0037600D01*
X0130600Y0036370D01*
X0130600Y0035982D02*
X0073496Y0035982D01*
X0073690Y0035384D02*
X0130600Y0035384D01*
X0130600Y0034785D02*
X0073885Y0034785D01*
X0074079Y0034187D02*
X0131043Y0034187D01*
X0131642Y0033588D02*
X0074455Y0033588D01*
X0074890Y0032990D02*
X0165240Y0032990D01*
X0165430Y0032800D02*
X0167170Y0032800D01*
X0168400Y0034030D01*
X0168400Y0035770D01*
X0167170Y0037000D01*
X0165430Y0037000D01*
X0164200Y0035770D01*
X0164200Y0034030D01*
X0165430Y0032800D01*
X0164642Y0033588D02*
X0133758Y0033588D01*
X0134357Y0034187D02*
X0164200Y0034187D01*
X0164200Y0034785D02*
X0134800Y0034785D01*
X0134800Y0035384D02*
X0164200Y0035384D01*
X0164413Y0035982D02*
X0134800Y0035982D01*
X0134589Y0036581D02*
X0165011Y0036581D01*
X0167589Y0036581D02*
X0255800Y0036581D01*
X0255800Y0037179D02*
X0133990Y0037179D01*
X0131410Y0037179D02*
X0073257Y0037179D01*
X0073210Y0037778D02*
X0255800Y0037778D01*
X0255800Y0038376D02*
X0073200Y0038376D01*
X0073200Y0038975D02*
X0255800Y0038975D01*
X0255800Y0039573D02*
X0073200Y0039573D01*
X0073200Y0040172D02*
X0190514Y0040172D01*
X0190432Y0040206D02*
X0191774Y0039650D01*
X0193226Y0039650D01*
X0194568Y0040206D01*
X0195594Y0041232D01*
X0196150Y0042574D01*
X0196150Y0044026D01*
X0195594Y0045368D01*
X0194568Y0046394D01*
X0193226Y0046950D01*
X0191774Y0046950D01*
X0190432Y0046394D01*
X0189406Y0045368D01*
X0188850Y0044026D01*
X0188850Y0042574D01*
X0189406Y0041232D01*
X0190432Y0040206D01*
X0189868Y0040770D02*
X0073200Y0040770D01*
X0073200Y0041369D02*
X0189349Y0041369D01*
X0189101Y0041968D02*
X0073200Y0041968D01*
X0073200Y0042566D02*
X0188853Y0042566D01*
X0188850Y0043165D02*
X0073200Y0043165D01*
X0073200Y0043763D02*
X0188850Y0043763D01*
X0188989Y0044362D02*
X0079578Y0044362D01*
X0080168Y0044606D02*
X0081194Y0045632D01*
X0081750Y0046974D01*
X0081750Y0048426D01*
X0081194Y0049768D01*
X0080168Y0050794D01*
X0078826Y0051350D01*
X0077374Y0051350D01*
X0076032Y0050794D01*
X0075006Y0049768D01*
X0074450Y0048426D01*
X0074450Y0046974D01*
X0075006Y0045632D01*
X0076032Y0044606D01*
X0077374Y0044050D01*
X0078826Y0044050D01*
X0080168Y0044606D01*
X0080522Y0044960D02*
X0189237Y0044960D01*
X0189597Y0045559D02*
X0081120Y0045559D01*
X0081412Y0046157D02*
X0190195Y0046157D01*
X0191305Y0046756D02*
X0081660Y0046756D01*
X0081750Y0047354D02*
X0255800Y0047354D01*
X0255800Y0046756D02*
X0243695Y0046756D01*
X0243226Y0046950D02*
X0241774Y0046950D01*
X0240432Y0046394D01*
X0239406Y0045368D01*
X0238850Y0044026D01*
X0238850Y0042574D01*
X0239406Y0041232D01*
X0240432Y0040206D01*
X0241774Y0039650D01*
X0243226Y0039650D01*
X0244568Y0040206D01*
X0245594Y0041232D01*
X0246150Y0042574D01*
X0246150Y0044026D01*
X0245594Y0045368D01*
X0244568Y0046394D01*
X0243226Y0046950D01*
X0244805Y0046157D02*
X0255800Y0046157D01*
X0255800Y0045559D02*
X0245403Y0045559D01*
X0245763Y0044960D02*
X0255800Y0044960D01*
X0255800Y0044362D02*
X0246011Y0044362D01*
X0246150Y0043763D02*
X0255800Y0043763D01*
X0255800Y0043165D02*
X0246150Y0043165D01*
X0246147Y0042566D02*
X0255800Y0042566D01*
X0255800Y0041968D02*
X0245899Y0041968D01*
X0245651Y0041369D02*
X0255800Y0041369D01*
X0255800Y0040770D02*
X0245132Y0040770D01*
X0244486Y0040172D02*
X0255800Y0040172D01*
X0255791Y0035982D02*
X0168187Y0035982D01*
X0168400Y0035384D02*
X0255744Y0035384D01*
X0255631Y0034785D02*
X0168400Y0034785D01*
X0168400Y0034187D02*
X0255436Y0034187D01*
X0255242Y0033588D02*
X0167958Y0033588D01*
X0167360Y0032990D02*
X0255020Y0032990D01*
X0254585Y0032391D02*
X0075325Y0032391D01*
X0075823Y0031793D02*
X0254150Y0031793D01*
X0253606Y0031194D02*
X0076647Y0031194D01*
X0077470Y0030596D02*
X0252783Y0030596D01*
X0251733Y0029997D02*
X0078854Y0029997D01*
X0076622Y0044362D02*
X0073200Y0044362D01*
X0073200Y0044960D02*
X0075678Y0044960D01*
X0075080Y0045559D02*
X0073200Y0045559D01*
X0073200Y0046157D02*
X0074788Y0046157D01*
X0074540Y0046756D02*
X0073200Y0046756D01*
X0073200Y0047354D02*
X0074450Y0047354D01*
X0074450Y0047953D02*
X0073200Y0047953D01*
X0073200Y0048551D02*
X0074502Y0048551D01*
X0074750Y0049150D02*
X0073200Y0049150D01*
X0073200Y0049748D02*
X0074998Y0049748D01*
X0075585Y0050347D02*
X0073200Y0050347D01*
X0073200Y0050945D02*
X0076397Y0050945D01*
X0073200Y0051544D02*
X0187486Y0051544D01*
X0187000Y0052030D02*
X0188230Y0050800D01*
X0189970Y0050800D01*
X0191200Y0052030D01*
X0191200Y0053770D01*
X0189970Y0055000D01*
X0188230Y0055000D01*
X0187000Y0053770D01*
X0187000Y0052030D01*
X0187000Y0052142D02*
X0073200Y0052142D01*
X0073200Y0052741D02*
X0187000Y0052741D01*
X0187000Y0053339D02*
X0073200Y0053339D01*
X0073200Y0053938D02*
X0187168Y0053938D01*
X0187766Y0054536D02*
X0080000Y0054536D01*
X0080168Y0054606D02*
X0081194Y0055632D01*
X0081750Y0056974D01*
X0081750Y0058426D01*
X0081194Y0059768D01*
X0080168Y0060794D01*
X0078826Y0061350D01*
X0077374Y0061350D01*
X0076032Y0060794D01*
X0075006Y0059768D01*
X0074450Y0058426D01*
X0074450Y0056974D01*
X0075006Y0055632D01*
X0076032Y0054606D01*
X0077374Y0054050D01*
X0078826Y0054050D01*
X0080168Y0054606D01*
X0080697Y0055135D02*
X0255800Y0055135D01*
X0255800Y0055733D02*
X0081236Y0055733D01*
X0081484Y0056332D02*
X0255800Y0056332D01*
X0255800Y0056930D02*
X0081732Y0056930D01*
X0081750Y0057529D02*
X0255800Y0057529D01*
X0255800Y0058127D02*
X0081750Y0058127D01*
X0081626Y0058726D02*
X0255800Y0058726D01*
X0255800Y0059324D02*
X0081378Y0059324D01*
X0081039Y0059923D02*
X0255800Y0059923D01*
X0255800Y0060521D02*
X0131291Y0060521D01*
X0131170Y0060400D02*
X0132400Y0061630D01*
X0132400Y0063370D01*
X0131170Y0064600D01*
X0129430Y0064600D01*
X0128200Y0063370D01*
X0128200Y0061630D01*
X0129430Y0060400D01*
X0131170Y0060400D01*
X0131890Y0061120D02*
X0255800Y0061120D01*
X0255800Y0061718D02*
X0132400Y0061718D01*
X0132400Y0062317D02*
X0255800Y0062317D01*
X0255800Y0062915D02*
X0132400Y0062915D01*
X0132256Y0063514D02*
X0255800Y0063514D01*
X0255800Y0064112D02*
X0149882Y0064112D01*
X0149770Y0064000D02*
X0151000Y0065230D01*
X0151000Y0066970D01*
X0149770Y0068200D01*
X0148030Y0068200D01*
X0146800Y0066970D01*
X0146800Y0065230D01*
X0148030Y0064000D01*
X0149770Y0064000D01*
X0150481Y0064711D02*
X0255800Y0064711D01*
X0255800Y0065309D02*
X0151000Y0065309D01*
X0151000Y0065908D02*
X0255800Y0065908D01*
X0255800Y0066506D02*
X0151000Y0066506D01*
X0150865Y0067105D02*
X0255800Y0067105D01*
X0255800Y0067703D02*
X0184673Y0067703D01*
X0184570Y0067600D02*
X0185800Y0068830D01*
X0185800Y0070570D01*
X0184570Y0071800D01*
X0182830Y0071800D01*
X0181600Y0070570D01*
X0181600Y0068830D01*
X0182830Y0067600D01*
X0184570Y0067600D01*
X0185272Y0068302D02*
X0255800Y0068302D01*
X0255800Y0068901D02*
X0185800Y0068901D01*
X0185800Y0069499D02*
X0255800Y0069499D01*
X0255800Y0070098D02*
X0185800Y0070098D01*
X0185674Y0070696D02*
X0255800Y0070696D01*
X0255800Y0071295D02*
X0185075Y0071295D01*
X0182325Y0071295D02*
X0078960Y0071295D01*
X0078826Y0071350D02*
X0077374Y0071350D01*
X0076032Y0070794D01*
X0075006Y0069768D01*
X0074450Y0068426D01*
X0074450Y0066974D01*
X0075006Y0065632D01*
X0076032Y0064606D01*
X0077374Y0064050D01*
X0078826Y0064050D01*
X0080168Y0064606D01*
X0081194Y0065632D01*
X0081750Y0066974D01*
X0081750Y0068426D01*
X0081194Y0069768D01*
X0080168Y0070794D01*
X0078826Y0071350D01*
X0080266Y0070696D02*
X0181726Y0070696D01*
X0181600Y0070098D02*
X0080864Y0070098D01*
X0081306Y0069499D02*
X0181600Y0069499D01*
X0181600Y0068901D02*
X0081553Y0068901D01*
X0081750Y0068302D02*
X0182128Y0068302D01*
X0182727Y0067703D02*
X0150266Y0067703D01*
X0147534Y0067703D02*
X0081750Y0067703D01*
X0081750Y0067105D02*
X0146935Y0067105D01*
X0146800Y0066506D02*
X0081556Y0066506D01*
X0081308Y0065908D02*
X0146800Y0065908D01*
X0146800Y0065309D02*
X0080871Y0065309D01*
X0080273Y0064711D02*
X0147319Y0064711D01*
X0147918Y0064112D02*
X0131657Y0064112D01*
X0128943Y0064112D02*
X0078977Y0064112D01*
X0077223Y0064112D02*
X0073200Y0064112D01*
X0073200Y0063514D02*
X0128344Y0063514D01*
X0128200Y0062915D02*
X0073200Y0062915D01*
X0073200Y0062317D02*
X0128200Y0062317D01*
X0128200Y0061718D02*
X0073200Y0061718D01*
X0073200Y0061120D02*
X0076818Y0061120D01*
X0075759Y0060521D02*
X0073200Y0060521D01*
X0073200Y0059923D02*
X0075161Y0059923D01*
X0074822Y0059324D02*
X0073200Y0059324D01*
X0073200Y0058726D02*
X0074574Y0058726D01*
X0074450Y0058127D02*
X0073200Y0058127D01*
X0073200Y0057529D02*
X0074450Y0057529D01*
X0074468Y0056930D02*
X0073200Y0056930D01*
X0073200Y0056332D02*
X0074716Y0056332D01*
X0074964Y0055733D02*
X0073200Y0055733D01*
X0073200Y0055135D02*
X0075503Y0055135D01*
X0076200Y0054536D02*
X0073200Y0054536D01*
X0079803Y0050945D02*
X0188085Y0050945D01*
X0190115Y0050945D02*
X0255800Y0050945D01*
X0255800Y0050347D02*
X0080615Y0050347D01*
X0081202Y0049748D02*
X0255800Y0049748D01*
X0255800Y0049150D02*
X0081450Y0049150D01*
X0081698Y0048551D02*
X0255800Y0048551D01*
X0255800Y0047953D02*
X0081750Y0047953D01*
X0080441Y0060521D02*
X0129309Y0060521D01*
X0128710Y0061120D02*
X0079382Y0061120D01*
X0075927Y0064711D02*
X0073200Y0064711D01*
X0073200Y0065309D02*
X0075329Y0065309D01*
X0074892Y0065908D02*
X0073200Y0065908D01*
X0073200Y0066506D02*
X0074644Y0066506D01*
X0074450Y0067105D02*
X0073200Y0067105D01*
X0073200Y0067703D02*
X0074450Y0067703D01*
X0074450Y0068302D02*
X0073200Y0068302D01*
X0073200Y0068901D02*
X0074647Y0068901D01*
X0074894Y0069499D02*
X0073200Y0069499D01*
X0073200Y0070098D02*
X0075336Y0070098D01*
X0075934Y0070696D02*
X0073200Y0070696D01*
X0073200Y0071295D02*
X0077240Y0071295D01*
X0077374Y0074050D02*
X0078826Y0074050D01*
X0080168Y0074606D01*
X0081194Y0075632D01*
X0081750Y0076974D01*
X0081750Y0078426D01*
X0081194Y0079768D01*
X0080168Y0080794D01*
X0078826Y0081350D01*
X0077374Y0081350D01*
X0076032Y0080794D01*
X0075006Y0079768D01*
X0074450Y0078426D01*
X0074450Y0076974D01*
X0075006Y0075632D01*
X0076032Y0074606D01*
X0077374Y0074050D01*
X0076801Y0074287D02*
X0073200Y0074287D01*
X0073200Y0073689D02*
X0102400Y0073689D01*
X0102400Y0073630D02*
X0103630Y0072400D01*
X0105370Y0072400D01*
X0106600Y0073630D01*
X0106600Y0075370D01*
X0105370Y0076600D01*
X0103630Y0076600D01*
X0102400Y0075370D01*
X0102400Y0073630D01*
X0102400Y0074287D02*
X0079398Y0074287D01*
X0080448Y0074886D02*
X0102400Y0074886D01*
X0102514Y0075484D02*
X0081046Y0075484D01*
X0081381Y0076083D02*
X0103113Y0076083D01*
X0105887Y0076083D02*
X0205600Y0076083D01*
X0205600Y0076030D02*
X0206830Y0074800D01*
X0208570Y0074800D01*
X0209800Y0076030D01*
X0209800Y0077770D01*
X0208570Y0079000D01*
X0206830Y0079000D01*
X0205600Y0077770D01*
X0205600Y0076030D01*
X0205600Y0076681D02*
X0177451Y0076681D01*
X0177370Y0076600D02*
X0178600Y0077830D01*
X0178600Y0079570D01*
X0177370Y0080800D01*
X0175630Y0080800D01*
X0174400Y0079570D01*
X0174400Y0077830D01*
X0175630Y0076600D01*
X0177370Y0076600D01*
X0178050Y0077280D02*
X0205600Y0077280D01*
X0205708Y0077878D02*
X0178600Y0077878D01*
X0178600Y0078477D02*
X0206307Y0078477D01*
X0209093Y0078477D02*
X0255800Y0078477D01*
X0255800Y0079075D02*
X0178600Y0079075D01*
X0178496Y0079674D02*
X0255800Y0079674D01*
X0255800Y0080272D02*
X0177898Y0080272D01*
X0175102Y0080272D02*
X0146242Y0080272D01*
X0146170Y0080200D02*
X0147400Y0081430D01*
X0147400Y0083170D01*
X0146170Y0084400D01*
X0144430Y0084400D01*
X0143200Y0083170D01*
X0143200Y0081430D01*
X0144430Y0080200D01*
X0146170Y0080200D01*
X0146841Y0080871D02*
X0255800Y0080871D01*
X0255800Y0081469D02*
X0147400Y0081469D01*
X0147400Y0082068D02*
X0255800Y0082068D01*
X0255800Y0082666D02*
X0147400Y0082666D01*
X0147305Y0083265D02*
X0255800Y0083265D01*
X0255800Y0083863D02*
X0146707Y0083863D01*
X0143893Y0083863D02*
X0073200Y0083863D01*
X0073200Y0083265D02*
X0143295Y0083265D01*
X0143200Y0082666D02*
X0073200Y0082666D01*
X0073200Y0082068D02*
X0143200Y0082068D01*
X0143200Y0081469D02*
X0073200Y0081469D01*
X0073200Y0080871D02*
X0076217Y0080871D01*
X0075510Y0080272D02*
X0073200Y0080272D01*
X0073200Y0079674D02*
X0074967Y0079674D01*
X0074719Y0079075D02*
X0073200Y0079075D01*
X0073200Y0078477D02*
X0074471Y0078477D01*
X0074450Y0077878D02*
X0073200Y0077878D01*
X0073200Y0077280D02*
X0074450Y0077280D01*
X0074571Y0076681D02*
X0073200Y0076681D01*
X0073200Y0076083D02*
X0074819Y0076083D01*
X0075154Y0075484D02*
X0073200Y0075484D01*
X0073200Y0074886D02*
X0075752Y0074886D01*
X0073200Y0073090D02*
X0102940Y0073090D01*
X0103539Y0072492D02*
X0073200Y0072492D01*
X0073200Y0071893D02*
X0255800Y0071893D01*
X0255800Y0072492D02*
X0105461Y0072492D01*
X0106060Y0073090D02*
X0255800Y0073090D01*
X0255800Y0073689D02*
X0106600Y0073689D01*
X0106600Y0074287D02*
X0255800Y0074287D01*
X0255800Y0074886D02*
X0208655Y0074886D01*
X0209254Y0075484D02*
X0255800Y0075484D01*
X0255800Y0076083D02*
X0209800Y0076083D01*
X0209800Y0076681D02*
X0255800Y0076681D01*
X0255800Y0077280D02*
X0209800Y0077280D01*
X0209692Y0077878D02*
X0255800Y0077878D01*
X0255800Y0084462D02*
X0079820Y0084462D01*
X0080168Y0084606D02*
X0081194Y0085632D01*
X0081750Y0086974D01*
X0081750Y0088426D01*
X0081194Y0089768D01*
X0080168Y0090794D01*
X0078826Y0091350D01*
X0077374Y0091350D01*
X0076032Y0090794D01*
X0075006Y0089768D01*
X0074450Y0088426D01*
X0074450Y0086974D01*
X0075006Y0085632D01*
X0076032Y0084606D01*
X0077374Y0084050D01*
X0078826Y0084050D01*
X0080168Y0084606D01*
X0080622Y0085060D02*
X0255800Y0085060D01*
X0255800Y0085659D02*
X0081205Y0085659D01*
X0081453Y0086257D02*
X0255800Y0086257D01*
X0255800Y0086856D02*
X0105426Y0086856D01*
X0105370Y0086800D02*
X0106600Y0088030D01*
X0106600Y0089770D01*
X0105370Y0091000D01*
X0103630Y0091000D01*
X0102400Y0089770D01*
X0102400Y0088030D01*
X0103630Y0086800D01*
X0105370Y0086800D01*
X0106024Y0087454D02*
X0255800Y0087454D01*
X0255800Y0088053D02*
X0106600Y0088053D01*
X0106600Y0088651D02*
X0117979Y0088651D01*
X0118030Y0088600D02*
X0119770Y0088600D01*
X0121000Y0089830D01*
X0121000Y0091570D01*
X0119770Y0092800D01*
X0118030Y0092800D01*
X0116800Y0091570D01*
X0116800Y0089830D01*
X0118030Y0088600D01*
X0117380Y0089250D02*
X0106600Y0089250D01*
X0106521Y0089848D02*
X0116800Y0089848D01*
X0116800Y0090447D02*
X0105923Y0090447D01*
X0103077Y0090447D02*
X0101200Y0090447D01*
X0101200Y0090970D02*
X0099970Y0092200D01*
X0098230Y0092200D01*
X0097000Y0090970D01*
X0097000Y0089230D01*
X0098230Y0088000D01*
X0099970Y0088000D01*
X0101200Y0089230D01*
X0101200Y0090970D01*
X0101124Y0091045D02*
X0116800Y0091045D01*
X0116874Y0091644D02*
X0100526Y0091644D01*
X0101200Y0089848D02*
X0102479Y0089848D01*
X0102400Y0089250D02*
X0101200Y0089250D01*
X0100621Y0088651D02*
X0102400Y0088651D01*
X0102400Y0088053D02*
X0100023Y0088053D01*
X0098177Y0088053D02*
X0081750Y0088053D01*
X0081750Y0087454D02*
X0102976Y0087454D01*
X0103574Y0086856D02*
X0081701Y0086856D01*
X0081657Y0088651D02*
X0097579Y0088651D01*
X0097000Y0089250D02*
X0081409Y0089250D01*
X0081113Y0089848D02*
X0097000Y0089848D01*
X0097000Y0090447D02*
X0080515Y0090447D01*
X0079561Y0091045D02*
X0097076Y0091045D01*
X0097674Y0091644D02*
X0073200Y0091644D01*
X0073200Y0092242D02*
X0117473Y0092242D01*
X0120327Y0092242D02*
X0157588Y0092242D01*
X0157630Y0092200D02*
X0156400Y0093430D01*
X0156400Y0095170D01*
X0157630Y0096400D01*
X0159370Y0096400D01*
X0159400Y0096370D01*
X0159400Y0096370D01*
X0160630Y0097600D01*
X0162370Y0097600D01*
X0163600Y0096370D01*
X0163600Y0094630D01*
X0162370Y0093400D01*
X0160630Y0093400D01*
X0160600Y0093430D01*
X0160600Y0093430D01*
X0159370Y0092200D01*
X0157630Y0092200D01*
X0156989Y0092841D02*
X0145011Y0092841D01*
X0144970Y0092800D02*
X0146200Y0094030D01*
X0146200Y0095770D01*
X0144970Y0097000D01*
X0143230Y0097000D01*
X0142000Y0095770D01*
X0142000Y0094030D01*
X0143230Y0092800D01*
X0144970Y0092800D01*
X0145609Y0093439D02*
X0156400Y0093439D01*
X0156400Y0094038D02*
X0152808Y0094038D01*
X0152770Y0094000D02*
X0154000Y0095230D01*
X0154000Y0096970D01*
X0152770Y0098200D01*
X0151030Y0098200D01*
X0149800Y0096970D01*
X0149800Y0095230D01*
X0151030Y0094000D01*
X0152770Y0094000D01*
X0153406Y0094637D02*
X0156400Y0094637D01*
X0156465Y0095235D02*
X0154000Y0095235D01*
X0154000Y0095834D02*
X0157064Y0095834D01*
X0159462Y0096432D02*
X0154000Y0096432D01*
X0153939Y0097031D02*
X0160061Y0097031D01*
X0162939Y0097031D02*
X0163800Y0097031D01*
X0163800Y0097570D02*
X0163800Y0095830D01*
X0164530Y0095100D01*
X0163800Y0094370D01*
X0163800Y0092630D01*
X0165030Y0091400D01*
X0166770Y0091400D01*
X0168000Y0092630D01*
X0168000Y0094370D01*
X0167270Y0095100D01*
X0167350Y0095180D01*
X0168130Y0094400D01*
X0169870Y0094400D01*
X0171100Y0095630D01*
X0171100Y0097370D01*
X0169870Y0098600D01*
X0168130Y0098600D01*
X0167550Y0098020D01*
X0166770Y0098800D01*
X0165030Y0098800D01*
X0163800Y0097570D01*
X0163859Y0097629D02*
X0153341Y0097629D01*
X0150459Y0097629D02*
X0078400Y0097629D01*
X0078400Y0097400D02*
X0078400Y0098000D01*
X0082150Y0098000D01*
X0082150Y0098099D01*
X0081994Y0098881D01*
X0081689Y0099618D01*
X0081246Y0100282D01*
X0080682Y0100846D01*
X0080018Y0101289D01*
X0079281Y0101594D01*
X0078499Y0101750D01*
X0078400Y0101750D01*
X0078400Y0098000D01*
X0077800Y0098000D01*
X0077800Y0101750D01*
X0077701Y0101750D01*
X0076919Y0101594D01*
X0076182Y0101289D01*
X0075518Y0100846D01*
X0074954Y0100282D01*
X0074511Y0099618D01*
X0074206Y0098881D01*
X0074050Y0098099D01*
X0074050Y0098000D01*
X0077800Y0098000D01*
X0077800Y0097400D01*
X0078400Y0097400D01*
X0082150Y0097400D01*
X0082150Y0097301D01*
X0081994Y0096519D01*
X0081689Y0095782D01*
X0081246Y0095118D01*
X0080682Y0094554D01*
X0080018Y0094111D01*
X0079281Y0093806D01*
X0078499Y0093650D01*
X0078400Y0093650D01*
X0078400Y0097400D01*
X0078400Y0097031D02*
X0077800Y0097031D01*
X0077800Y0097400D02*
X0077800Y0093650D01*
X0077701Y0093650D01*
X0076919Y0093806D01*
X0076182Y0094111D01*
X0075518Y0094554D01*
X0074954Y0095118D01*
X0074511Y0095782D01*
X0074206Y0096519D01*
X0074050Y0097301D01*
X0074050Y0097400D01*
X0077800Y0097400D01*
X0077800Y0097629D02*
X0073200Y0097629D01*
X0073200Y0097031D02*
X0074104Y0097031D01*
X0074242Y0096432D02*
X0073200Y0096432D01*
X0073200Y0095834D02*
X0074489Y0095834D01*
X0074876Y0095235D02*
X0073200Y0095235D01*
X0073200Y0094637D02*
X0075436Y0094637D01*
X0076358Y0094038D02*
X0073200Y0094038D01*
X0073200Y0093439D02*
X0142591Y0093439D01*
X0142000Y0094038D02*
X0079842Y0094038D01*
X0080764Y0094637D02*
X0142000Y0094637D01*
X0142000Y0095235D02*
X0081324Y0095235D01*
X0081711Y0095834D02*
X0142064Y0095834D01*
X0142662Y0096432D02*
X0081958Y0096432D01*
X0082096Y0097031D02*
X0149861Y0097031D01*
X0149800Y0096432D02*
X0145538Y0096432D01*
X0146136Y0095834D02*
X0149800Y0095834D01*
X0149800Y0095235D02*
X0146200Y0095235D01*
X0146200Y0094637D02*
X0150394Y0094637D01*
X0150992Y0094038D02*
X0146200Y0094038D01*
X0143189Y0092841D02*
X0073200Y0092841D01*
X0073200Y0091045D02*
X0076639Y0091045D01*
X0075685Y0090447D02*
X0073200Y0090447D01*
X0073200Y0089848D02*
X0075087Y0089848D01*
X0074791Y0089250D02*
X0073200Y0089250D01*
X0073200Y0088651D02*
X0074543Y0088651D01*
X0074450Y0088053D02*
X0073200Y0088053D01*
X0073200Y0087454D02*
X0074450Y0087454D01*
X0074499Y0086856D02*
X0073200Y0086856D01*
X0073200Y0086257D02*
X0074747Y0086257D01*
X0074995Y0085659D02*
X0073200Y0085659D01*
X0073200Y0085060D02*
X0075578Y0085060D01*
X0076380Y0084462D02*
X0073200Y0084462D01*
X0079983Y0080871D02*
X0143759Y0080871D01*
X0144358Y0080272D02*
X0080690Y0080272D01*
X0081233Y0079674D02*
X0174504Y0079674D01*
X0174400Y0079075D02*
X0081481Y0079075D01*
X0081729Y0078477D02*
X0174400Y0078477D01*
X0174400Y0077878D02*
X0081750Y0077878D01*
X0081750Y0077280D02*
X0174950Y0077280D01*
X0175549Y0076681D02*
X0081629Y0076681D01*
X0078400Y0094038D02*
X0077800Y0094038D01*
X0077800Y0094637D02*
X0078400Y0094637D01*
X0078400Y0095235D02*
X0077800Y0095235D01*
X0077800Y0095834D02*
X0078400Y0095834D01*
X0078400Y0096432D02*
X0077800Y0096432D01*
X0077800Y0098228D02*
X0078400Y0098228D01*
X0078400Y0098826D02*
X0077800Y0098826D01*
X0077800Y0099425D02*
X0078400Y0099425D01*
X0078400Y0100023D02*
X0077800Y0100023D01*
X0077800Y0100622D02*
X0078400Y0100622D01*
X0078400Y0101220D02*
X0077800Y0101220D01*
X0076078Y0101220D02*
X0073200Y0101220D01*
X0073200Y0100622D02*
X0075294Y0100622D01*
X0074781Y0100023D02*
X0073200Y0100023D01*
X0073200Y0099425D02*
X0074431Y0099425D01*
X0074195Y0098826D02*
X0073200Y0098826D01*
X0073200Y0098228D02*
X0074076Y0098228D01*
X0073200Y0101819D02*
X0190012Y0101819D01*
X0190030Y0101800D02*
X0191770Y0101800D01*
X0193000Y0103030D01*
X0193000Y0103030D01*
X0193630Y0102400D01*
X0195370Y0102400D01*
X0196600Y0103630D01*
X0196600Y0105370D01*
X0195370Y0106600D01*
X0193630Y0106600D01*
X0192400Y0105370D01*
X0192400Y0105370D01*
X0191770Y0106000D01*
X0190030Y0106000D01*
X0188800Y0104770D01*
X0188800Y0103030D01*
X0190030Y0101800D01*
X0189413Y0102417D02*
X0073200Y0102417D01*
X0073200Y0103016D02*
X0188814Y0103016D01*
X0188800Y0103614D02*
X0073200Y0103614D01*
X0073200Y0104213D02*
X0121617Y0104213D01*
X0121630Y0104200D02*
X0123370Y0104200D01*
X0124600Y0105430D01*
X0124600Y0107170D01*
X0123370Y0108400D01*
X0121630Y0108400D01*
X0120400Y0107170D01*
X0120400Y0105430D01*
X0121630Y0104200D01*
X0121019Y0104811D02*
X0073200Y0104811D01*
X0073200Y0105410D02*
X0120420Y0105410D01*
X0120400Y0106008D02*
X0073200Y0106008D01*
X0073200Y0106607D02*
X0120400Y0106607D01*
X0120435Y0107205D02*
X0073200Y0107205D01*
X0073200Y0107804D02*
X0121034Y0107804D01*
X0123966Y0107804D02*
X0155826Y0107804D01*
X0155800Y0107830D02*
X0157030Y0106600D01*
X0158770Y0106600D01*
X0160000Y0107830D01*
X0160000Y0109570D01*
X0158770Y0110800D01*
X0157030Y0110800D01*
X0155800Y0109570D01*
X0155800Y0107830D01*
X0155800Y0108402D02*
X0073200Y0108402D01*
X0073200Y0109001D02*
X0113229Y0109001D01*
X0113230Y0109000D02*
X0114970Y0109000D01*
X0116200Y0110230D01*
X0116200Y0111970D01*
X0114970Y0113200D01*
X0113230Y0113200D01*
X0112000Y0111970D01*
X0112000Y0110230D01*
X0113230Y0109000D01*
X0112631Y0109599D02*
X0073200Y0109599D01*
X0073200Y0110198D02*
X0112032Y0110198D01*
X0112000Y0110796D02*
X0073200Y0110796D01*
X0073200Y0111395D02*
X0112000Y0111395D01*
X0112023Y0111993D02*
X0079938Y0111993D01*
X0079968Y0112006D02*
X0080994Y0113032D01*
X0081550Y0114374D01*
X0081550Y0115826D01*
X0080994Y0117168D01*
X0079968Y0118194D01*
X0078626Y0118750D01*
X0077174Y0118750D01*
X0075832Y0118194D01*
X0074806Y0117168D01*
X0074250Y0115826D01*
X0074250Y0114374D01*
X0074806Y0113032D01*
X0075832Y0112006D01*
X0077174Y0111450D01*
X0078626Y0111450D01*
X0079968Y0112006D01*
X0080554Y0112592D02*
X0112622Y0112592D01*
X0112560Y0113190D02*
X0113221Y0113190D01*
X0113159Y0113789D02*
X0221819Y0113789D01*
X0222418Y0114387D02*
X0113200Y0114387D01*
X0113200Y0113830D02*
X0111970Y0112600D01*
X0110230Y0112600D01*
X0109000Y0113830D01*
X0109000Y0115570D01*
X0110230Y0116800D01*
X0111970Y0116800D01*
X0113200Y0115570D01*
X0113200Y0113830D01*
X0113200Y0114986D02*
X0255800Y0114986D01*
X0255800Y0115584D02*
X0113185Y0115584D01*
X0112587Y0116183D02*
X0202047Y0116183D01*
X0202630Y0115600D02*
X0204370Y0115600D01*
X0205600Y0116830D01*
X0205600Y0118570D01*
X0204370Y0119800D01*
X0202630Y0119800D01*
X0201400Y0118570D01*
X0201400Y0116830D01*
X0202630Y0115600D01*
X0201449Y0116781D02*
X0111988Y0116781D01*
X0110212Y0116781D02*
X0081154Y0116781D01*
X0081402Y0116183D02*
X0109613Y0116183D01*
X0109015Y0115584D02*
X0081550Y0115584D01*
X0081550Y0114986D02*
X0109000Y0114986D01*
X0109000Y0114387D02*
X0081550Y0114387D01*
X0081308Y0113789D02*
X0109041Y0113789D01*
X0109640Y0113190D02*
X0081060Y0113190D01*
X0080782Y0117380D02*
X0201400Y0117380D01*
X0201400Y0117978D02*
X0080183Y0117978D01*
X0079044Y0118577D02*
X0103653Y0118577D01*
X0104230Y0118000D02*
X0103000Y0119230D01*
X0103000Y0120970D01*
X0103930Y0121900D01*
X0103000Y0122830D01*
X0103000Y0124570D01*
X0104230Y0125800D01*
X0104830Y0125800D01*
X0104200Y0126430D01*
X0104200Y0128170D01*
X0105430Y0129400D01*
X0106600Y0129400D01*
X0106600Y0130570D01*
X0107830Y0131800D01*
X0109000Y0131800D01*
X0109000Y0132970D01*
X0110230Y0134200D01*
X0111400Y0134200D01*
X0111400Y0135370D01*
X0112630Y0136600D01*
X0113800Y0136600D01*
X0113800Y0137770D01*
X0115030Y0139000D01*
X0116200Y0139000D01*
X0116200Y0140170D01*
X0117430Y0141400D01*
X0118600Y0141400D01*
X0118600Y0142570D01*
X0119830Y0143800D01*
X0121000Y0143800D01*
X0121000Y0144970D01*
X0122230Y0146200D01*
X0123400Y0146200D01*
X0123400Y0146770D01*
X0124630Y0148000D01*
X0125800Y0148000D01*
X0125800Y0149170D01*
X0127030Y0150400D01*
X0128770Y0150400D01*
X0130000Y0149170D01*
X0130000Y0147430D01*
X0128770Y0146200D01*
X0127600Y0146200D01*
X0127600Y0145030D01*
X0126370Y0143800D01*
X0125200Y0143800D01*
X0125200Y0143230D01*
X0123970Y0142000D01*
X0122800Y0142000D01*
X0122800Y0140830D01*
X0121570Y0139600D01*
X0120400Y0139600D01*
X0120400Y0138430D01*
X0119170Y0137200D01*
X0118000Y0137200D01*
X0118000Y0136030D01*
X0116770Y0134800D01*
X0115600Y0134800D01*
X0115600Y0133630D01*
X0114370Y0132400D01*
X0113200Y0132400D01*
X0113200Y0131230D01*
X0111970Y0130000D01*
X0110800Y0130000D01*
X0110800Y0128830D01*
X0109570Y0127600D01*
X0108400Y0127600D01*
X0108400Y0126430D01*
X0107170Y0125200D01*
X0106570Y0125200D01*
X0107200Y0124570D01*
X0107200Y0122830D01*
X0106270Y0121900D01*
X0107200Y0120970D01*
X0107200Y0119230D01*
X0105970Y0118000D01*
X0104230Y0118000D01*
X0103055Y0119175D02*
X0073200Y0119175D01*
X0073200Y0118577D02*
X0076756Y0118577D01*
X0075617Y0117978D02*
X0073200Y0117978D01*
X0073200Y0117380D02*
X0075018Y0117380D01*
X0074646Y0116781D02*
X0073200Y0116781D01*
X0073200Y0116183D02*
X0074398Y0116183D01*
X0074250Y0115584D02*
X0073200Y0115584D01*
X0073200Y0114986D02*
X0074250Y0114986D01*
X0074250Y0114387D02*
X0073200Y0114387D01*
X0073200Y0113789D02*
X0074492Y0113789D01*
X0074740Y0113190D02*
X0073200Y0113190D01*
X0073200Y0112592D02*
X0075246Y0112592D01*
X0075862Y0111993D02*
X0073200Y0111993D01*
X0073200Y0119774D02*
X0103000Y0119774D01*
X0103000Y0120372D02*
X0073200Y0120372D01*
X0073200Y0120971D02*
X0103001Y0120971D01*
X0103600Y0121570D02*
X0078915Y0121570D01*
X0078626Y0121450D02*
X0079968Y0122006D01*
X0080994Y0123032D01*
X0081550Y0124374D01*
X0081550Y0125826D01*
X0080994Y0127168D01*
X0079968Y0128194D01*
X0078626Y0128750D01*
X0077174Y0128750D01*
X0075832Y0128194D01*
X0074806Y0127168D01*
X0074250Y0125826D01*
X0074250Y0124374D01*
X0074806Y0123032D01*
X0075832Y0122006D01*
X0077174Y0121450D01*
X0078626Y0121450D01*
X0080130Y0122168D02*
X0103662Y0122168D01*
X0103064Y0122767D02*
X0080728Y0122767D01*
X0081132Y0123365D02*
X0103000Y0123365D01*
X0103000Y0123964D02*
X0081380Y0123964D01*
X0081550Y0124562D02*
X0103000Y0124562D01*
X0103591Y0125161D02*
X0081550Y0125161D01*
X0081550Y0125759D02*
X0104189Y0125759D01*
X0104273Y0126358D02*
X0081330Y0126358D01*
X0081082Y0126956D02*
X0104200Y0126956D01*
X0104200Y0127555D02*
X0080607Y0127555D01*
X0080009Y0128153D02*
X0104200Y0128153D01*
X0104782Y0128752D02*
X0073200Y0128752D01*
X0073200Y0129350D02*
X0105380Y0129350D01*
X0106600Y0129949D02*
X0073200Y0129949D01*
X0073200Y0130547D02*
X0106600Y0130547D01*
X0107176Y0131146D02*
X0073200Y0131146D01*
X0073200Y0131744D02*
X0076464Y0131744D01*
X0075832Y0132006D02*
X0077174Y0131450D01*
X0078626Y0131450D01*
X0079968Y0132006D01*
X0080994Y0133032D01*
X0081550Y0134374D01*
X0081550Y0135826D01*
X0080994Y0137168D01*
X0079968Y0138194D01*
X0078626Y0138750D01*
X0077174Y0138750D01*
X0075832Y0138194D01*
X0074806Y0137168D01*
X0074250Y0135826D01*
X0074250Y0134374D01*
X0074806Y0133032D01*
X0075832Y0132006D01*
X0075495Y0132343D02*
X0073200Y0132343D01*
X0073200Y0132941D02*
X0074897Y0132941D01*
X0074596Y0133540D02*
X0073200Y0133540D01*
X0073200Y0134138D02*
X0074348Y0134138D01*
X0074250Y0134737D02*
X0073200Y0134737D01*
X0073200Y0135335D02*
X0074250Y0135335D01*
X0074295Y0135934D02*
X0073200Y0135934D01*
X0073200Y0136532D02*
X0074543Y0136532D01*
X0074790Y0137131D02*
X0073200Y0137131D01*
X0073200Y0137729D02*
X0075367Y0137729D01*
X0076155Y0138328D02*
X0073200Y0138328D01*
X0073200Y0138926D02*
X0089800Y0138926D01*
X0089800Y0138430D02*
X0089800Y0140170D01*
X0091030Y0141400D01*
X0092770Y0141400D01*
X0094000Y0140170D01*
X0094000Y0138430D01*
X0092770Y0137200D01*
X0091030Y0137200D01*
X0089800Y0138430D01*
X0089902Y0138328D02*
X0079645Y0138328D01*
X0080433Y0137729D02*
X0090501Y0137729D01*
X0089800Y0139525D02*
X0073200Y0139525D01*
X0073200Y0140123D02*
X0089800Y0140123D01*
X0090352Y0140722D02*
X0073200Y0140722D01*
X0073200Y0141320D02*
X0090951Y0141320D01*
X0092849Y0141320D02*
X0117351Y0141320D01*
X0116752Y0140722D02*
X0093448Y0140722D01*
X0094000Y0140123D02*
X0116200Y0140123D01*
X0116200Y0139525D02*
X0094000Y0139525D01*
X0094000Y0138926D02*
X0114956Y0138926D01*
X0114358Y0138328D02*
X0093898Y0138328D01*
X0093299Y0137729D02*
X0113800Y0137729D01*
X0113800Y0137131D02*
X0081010Y0137131D01*
X0081257Y0136532D02*
X0112562Y0136532D01*
X0111964Y0135934D02*
X0081505Y0135934D01*
X0081550Y0135335D02*
X0111400Y0135335D01*
X0111400Y0134737D02*
X0081550Y0134737D01*
X0081452Y0134138D02*
X0110168Y0134138D01*
X0109570Y0133540D02*
X0081204Y0133540D01*
X0080903Y0132941D02*
X0109000Y0132941D01*
X0109000Y0132343D02*
X0080305Y0132343D01*
X0079336Y0131744D02*
X0107774Y0131744D01*
X0110800Y0129949D02*
X0203881Y0129949D01*
X0204430Y0129400D02*
X0206170Y0129400D01*
X0207400Y0130630D01*
X0207400Y0132370D01*
X0206170Y0133600D01*
X0204430Y0133600D01*
X0203200Y0132370D01*
X0203200Y0130630D01*
X0204430Y0129400D01*
X0203283Y0130547D02*
X0199517Y0130547D01*
X0198970Y0130000D02*
X0200200Y0131230D01*
X0200200Y0132970D01*
X0198970Y0134200D01*
X0197230Y0134200D01*
X0196000Y0132970D01*
X0196000Y0131230D01*
X0197230Y0130000D01*
X0198970Y0130000D01*
X0198430Y0128800D02*
X0200170Y0128800D01*
X0201400Y0127570D01*
X0201400Y0125830D01*
X0200170Y0124600D01*
X0198430Y0124600D01*
X0197200Y0125830D01*
X0197200Y0127570D01*
X0198430Y0128800D01*
X0198382Y0128752D02*
X0110721Y0128752D01*
X0110800Y0129350D02*
X0255800Y0129350D01*
X0255800Y0128752D02*
X0200218Y0128752D01*
X0200817Y0128153D02*
X0255800Y0128153D01*
X0255800Y0127555D02*
X0201400Y0127555D01*
X0201400Y0126956D02*
X0255800Y0126956D01*
X0255800Y0126358D02*
X0201400Y0126358D01*
X0201329Y0125759D02*
X0255800Y0125759D01*
X0255800Y0125161D02*
X0200730Y0125161D01*
X0197870Y0125161D02*
X0120409Y0125161D01*
X0120370Y0125200D02*
X0118630Y0125200D01*
X0117400Y0123970D01*
X0117400Y0122230D01*
X0118630Y0121000D01*
X0120370Y0121000D01*
X0121600Y0122230D01*
X0121600Y0123970D01*
X0120370Y0125200D01*
X0121008Y0124562D02*
X0255800Y0124562D01*
X0255800Y0123964D02*
X0121600Y0123964D01*
X0121600Y0123365D02*
X0255800Y0123365D01*
X0255800Y0122767D02*
X0138403Y0122767D01*
X0138370Y0122800D02*
X0136630Y0122800D01*
X0135400Y0121570D01*
X0135400Y0119830D01*
X0136630Y0118600D01*
X0138370Y0118600D01*
X0139600Y0119830D01*
X0139600Y0121570D01*
X0138370Y0122800D01*
X0139002Y0122168D02*
X0255800Y0122168D01*
X0255800Y0121570D02*
X0139600Y0121570D01*
X0139600Y0120971D02*
X0255800Y0120971D01*
X0255800Y0120372D02*
X0139600Y0120372D01*
X0139544Y0119774D02*
X0202604Y0119774D01*
X0202006Y0119175D02*
X0138945Y0119175D01*
X0136055Y0119175D02*
X0107145Y0119175D01*
X0107200Y0119774D02*
X0135456Y0119774D01*
X0135400Y0120372D02*
X0107200Y0120372D01*
X0107199Y0120971D02*
X0135400Y0120971D01*
X0135400Y0121570D02*
X0120939Y0121570D01*
X0121538Y0122168D02*
X0135998Y0122168D01*
X0136597Y0122767D02*
X0121600Y0122767D01*
X0118061Y0121570D02*
X0106600Y0121570D01*
X0106538Y0122168D02*
X0117462Y0122168D01*
X0117400Y0122767D02*
X0107136Y0122767D01*
X0107200Y0123365D02*
X0117400Y0123365D01*
X0117400Y0123964D02*
X0107200Y0123964D01*
X0107200Y0124562D02*
X0117992Y0124562D01*
X0118591Y0125161D02*
X0106609Y0125161D01*
X0107729Y0125759D02*
X0197271Y0125759D01*
X0197200Y0126358D02*
X0108327Y0126358D01*
X0108400Y0126956D02*
X0197200Y0126956D01*
X0197200Y0127555D02*
X0108400Y0127555D01*
X0110123Y0128153D02*
X0197783Y0128153D01*
X0196683Y0130547D02*
X0112517Y0130547D01*
X0113116Y0131146D02*
X0196084Y0131146D01*
X0196000Y0131744D02*
X0113200Y0131744D01*
X0113200Y0132343D02*
X0196000Y0132343D01*
X0196000Y0132941D02*
X0114911Y0132941D01*
X0115510Y0133540D02*
X0196570Y0133540D01*
X0197168Y0134138D02*
X0115600Y0134138D01*
X0115600Y0134737D02*
X0255800Y0134737D01*
X0255800Y0135335D02*
X0117305Y0135335D01*
X0117904Y0135934D02*
X0255800Y0135934D01*
X0255800Y0136532D02*
X0118000Y0136532D01*
X0118000Y0137131D02*
X0255800Y0137131D01*
X0255800Y0137729D02*
X0119699Y0137729D01*
X0120298Y0138328D02*
X0255800Y0138328D01*
X0255800Y0138926D02*
X0120400Y0138926D01*
X0120400Y0139525D02*
X0255800Y0139525D01*
X0255800Y0140123D02*
X0204893Y0140123D01*
X0204370Y0139600D02*
X0205600Y0140830D01*
X0205600Y0142570D01*
X0204370Y0143800D01*
X0202630Y0143800D01*
X0201400Y0142570D01*
X0201400Y0140830D01*
X0202630Y0139600D01*
X0204370Y0139600D01*
X0205492Y0140722D02*
X0241708Y0140722D01*
X0242230Y0140200D02*
X0243970Y0140200D01*
X0245200Y0141430D01*
X0245200Y0143170D01*
X0243970Y0144400D01*
X0242230Y0144400D01*
X0241000Y0143170D01*
X0241000Y0141430D01*
X0242230Y0140200D01*
X0241110Y0141320D02*
X0205600Y0141320D01*
X0205600Y0141919D02*
X0241000Y0141919D01*
X0241000Y0142517D02*
X0205600Y0142517D01*
X0205054Y0143116D02*
X0241000Y0143116D01*
X0241545Y0143714D02*
X0204455Y0143714D01*
X0202545Y0143714D02*
X0201284Y0143714D01*
X0200770Y0143200D02*
X0202000Y0144430D01*
X0202000Y0146170D01*
X0200770Y0147400D01*
X0199030Y0147400D01*
X0197800Y0146170D01*
X0197800Y0144430D01*
X0199030Y0143200D01*
X0200770Y0143200D01*
X0201400Y0142517D02*
X0124487Y0142517D01*
X0125086Y0143116D02*
X0201946Y0143116D01*
X0201883Y0144313D02*
X0242143Y0144313D01*
X0244057Y0144313D02*
X0255800Y0144313D01*
X0255800Y0144911D02*
X0202000Y0144911D01*
X0202000Y0145510D02*
X0255800Y0145510D01*
X0255800Y0146108D02*
X0202000Y0146108D01*
X0201463Y0146707D02*
X0255800Y0146707D01*
X0255800Y0147305D02*
X0213875Y0147305D01*
X0213370Y0146800D02*
X0214600Y0148030D01*
X0214600Y0149770D01*
X0213370Y0151000D01*
X0211630Y0151000D01*
X0210400Y0149770D01*
X0210400Y0148030D01*
X0211630Y0146800D01*
X0213370Y0146800D01*
X0214474Y0147904D02*
X0255800Y0147904D01*
X0255800Y0148503D02*
X0214600Y0148503D01*
X0214600Y0149101D02*
X0236329Y0149101D01*
X0236830Y0148600D02*
X0235600Y0149830D01*
X0235600Y0151570D01*
X0236830Y0152800D01*
X0238570Y0152800D01*
X0239800Y0151570D01*
X0239800Y0149830D01*
X0238570Y0148600D01*
X0236830Y0148600D01*
X0235731Y0149700D02*
X0214600Y0149700D01*
X0214072Y0150298D02*
X0235600Y0150298D01*
X0235600Y0150897D02*
X0213473Y0150897D01*
X0211527Y0150897D02*
X0182200Y0150897D01*
X0182200Y0150970D02*
X0180970Y0152200D01*
X0179230Y0152200D01*
X0178000Y0150970D01*
X0178000Y0149230D01*
X0179230Y0148000D01*
X0180970Y0148000D01*
X0182200Y0149230D01*
X0182200Y0150970D01*
X0182200Y0150298D02*
X0210928Y0150298D01*
X0210400Y0149700D02*
X0182200Y0149700D01*
X0182071Y0149101D02*
X0210400Y0149101D01*
X0210400Y0148503D02*
X0181472Y0148503D01*
X0178728Y0148503D02*
X0130000Y0148503D01*
X0130000Y0149101D02*
X0178129Y0149101D01*
X0178000Y0149700D02*
X0129470Y0149700D01*
X0128872Y0150298D02*
X0178000Y0150298D01*
X0178000Y0150897D02*
X0081266Y0150897D01*
X0081400Y0151030D02*
X0080170Y0149800D01*
X0078430Y0149800D01*
X0077200Y0151030D01*
X0077200Y0152770D01*
X0078430Y0154000D01*
X0080170Y0154000D01*
X0081400Y0152770D01*
X0081400Y0151030D01*
X0081400Y0151495D02*
X0178525Y0151495D01*
X0179124Y0152094D02*
X0081400Y0152094D01*
X0081400Y0152692D02*
X0236722Y0152692D01*
X0236124Y0152094D02*
X0181076Y0152094D01*
X0181675Y0151495D02*
X0235600Y0151495D01*
X0238678Y0152692D02*
X0255800Y0152692D01*
X0255800Y0152094D02*
X0239276Y0152094D01*
X0239800Y0151495D02*
X0255800Y0151495D01*
X0255800Y0150897D02*
X0239800Y0150897D01*
X0239800Y0150298D02*
X0255800Y0150298D01*
X0255800Y0149700D02*
X0239669Y0149700D01*
X0239071Y0149101D02*
X0255800Y0149101D01*
X0255800Y0143714D02*
X0244655Y0143714D01*
X0245200Y0143116D02*
X0255800Y0143116D01*
X0255800Y0142517D02*
X0245200Y0142517D01*
X0245200Y0141919D02*
X0255800Y0141919D01*
X0255800Y0141320D02*
X0245090Y0141320D01*
X0244492Y0140722D02*
X0255800Y0140722D01*
X0255800Y0134138D02*
X0199032Y0134138D01*
X0199630Y0133540D02*
X0204370Y0133540D01*
X0203771Y0132941D02*
X0200200Y0132941D01*
X0200200Y0132343D02*
X0203200Y0132343D01*
X0203200Y0131744D02*
X0200200Y0131744D01*
X0200116Y0131146D02*
X0203200Y0131146D01*
X0206719Y0129949D02*
X0255800Y0129949D01*
X0255800Y0130547D02*
X0207317Y0130547D01*
X0207400Y0131146D02*
X0255800Y0131146D01*
X0255800Y0131744D02*
X0207400Y0131744D01*
X0207400Y0132343D02*
X0255800Y0132343D01*
X0255800Y0132941D02*
X0206829Y0132941D01*
X0206230Y0133540D02*
X0255800Y0133540D01*
X0255800Y0119774D02*
X0204396Y0119774D01*
X0204994Y0119175D02*
X0255800Y0119175D01*
X0255800Y0118577D02*
X0205593Y0118577D01*
X0205600Y0117978D02*
X0255800Y0117978D01*
X0255800Y0117380D02*
X0205600Y0117380D01*
X0205551Y0116781D02*
X0255800Y0116781D01*
X0255800Y0116183D02*
X0204953Y0116183D01*
X0204370Y0112000D02*
X0202630Y0112000D01*
X0201400Y0110770D01*
X0201400Y0109030D01*
X0202630Y0107800D01*
X0204370Y0107800D01*
X0205600Y0109030D01*
X0205600Y0110770D01*
X0204370Y0112000D01*
X0204377Y0111993D02*
X0221200Y0111993D01*
X0221200Y0111430D02*
X0222430Y0110200D01*
X0224170Y0110200D01*
X0225400Y0111430D01*
X0225400Y0113170D01*
X0224170Y0114400D01*
X0222430Y0114400D01*
X0221200Y0113170D01*
X0221200Y0111430D01*
X0221235Y0111395D02*
X0204975Y0111395D01*
X0205574Y0110796D02*
X0221834Y0110796D01*
X0221200Y0112592D02*
X0115578Y0112592D01*
X0114979Y0113190D02*
X0221221Y0113190D01*
X0224182Y0114387D02*
X0255800Y0114387D01*
X0255800Y0113789D02*
X0224781Y0113789D01*
X0225379Y0113190D02*
X0255800Y0113190D01*
X0255800Y0112592D02*
X0225400Y0112592D01*
X0225400Y0111993D02*
X0255800Y0111993D01*
X0255800Y0111395D02*
X0225365Y0111395D01*
X0224766Y0110796D02*
X0255800Y0110796D01*
X0255800Y0110198D02*
X0205600Y0110198D01*
X0205600Y0109599D02*
X0255800Y0109599D01*
X0255800Y0109001D02*
X0205571Y0109001D01*
X0204972Y0108402D02*
X0255800Y0108402D01*
X0255800Y0107804D02*
X0224166Y0107804D01*
X0223570Y0108400D02*
X0224800Y0107170D01*
X0224800Y0105430D01*
X0223570Y0104200D01*
X0221830Y0104200D01*
X0220600Y0105430D01*
X0220600Y0107170D01*
X0221830Y0108400D01*
X0223570Y0108400D01*
X0224765Y0107205D02*
X0255800Y0107205D01*
X0255800Y0106607D02*
X0224800Y0106607D01*
X0224800Y0106008D02*
X0255800Y0106008D01*
X0255800Y0105410D02*
X0224780Y0105410D01*
X0224181Y0104811D02*
X0255800Y0104811D01*
X0255800Y0104213D02*
X0223583Y0104213D01*
X0221817Y0104213D02*
X0196600Y0104213D01*
X0196600Y0104811D02*
X0221219Y0104811D01*
X0220620Y0105410D02*
X0196560Y0105410D01*
X0195962Y0106008D02*
X0220600Y0106008D01*
X0220600Y0106607D02*
X0158777Y0106607D01*
X0159375Y0107205D02*
X0220635Y0107205D01*
X0221234Y0107804D02*
X0204374Y0107804D01*
X0202626Y0107804D02*
X0159974Y0107804D01*
X0160000Y0108402D02*
X0202028Y0108402D01*
X0201429Y0109001D02*
X0160000Y0109001D01*
X0159971Y0109599D02*
X0201400Y0109599D01*
X0201400Y0110198D02*
X0159372Y0110198D01*
X0158774Y0110796D02*
X0201426Y0110796D01*
X0202025Y0111395D02*
X0116200Y0111395D01*
X0116200Y0110796D02*
X0157026Y0110796D01*
X0156428Y0110198D02*
X0116168Y0110198D01*
X0115569Y0109599D02*
X0155829Y0109599D01*
X0155800Y0109001D02*
X0114971Y0109001D01*
X0116177Y0111993D02*
X0202623Y0111993D01*
X0201407Y0118577D02*
X0106547Y0118577D01*
X0124565Y0107205D02*
X0156425Y0107205D01*
X0157023Y0106607D02*
X0124600Y0106607D01*
X0124600Y0106008D02*
X0193038Y0106008D01*
X0192440Y0105410D02*
X0192360Y0105410D01*
X0192986Y0103016D02*
X0193014Y0103016D01*
X0193613Y0102417D02*
X0192387Y0102417D01*
X0191788Y0101819D02*
X0255800Y0101819D01*
X0255800Y0102417D02*
X0195387Y0102417D01*
X0195986Y0103016D02*
X0255800Y0103016D01*
X0255800Y0103614D02*
X0196584Y0103614D01*
X0189440Y0105410D02*
X0124580Y0105410D01*
X0123981Y0104811D02*
X0188841Y0104811D01*
X0188800Y0104213D02*
X0123383Y0104213D01*
X0120926Y0091644D02*
X0164786Y0091644D01*
X0164188Y0092242D02*
X0159412Y0092242D01*
X0160011Y0092841D02*
X0163800Y0092841D01*
X0163800Y0093439D02*
X0162409Y0093439D01*
X0163008Y0094038D02*
X0163800Y0094038D01*
X0163600Y0094637D02*
X0164067Y0094637D01*
X0164395Y0095235D02*
X0163600Y0095235D01*
X0163600Y0095834D02*
X0163800Y0095834D01*
X0163800Y0096432D02*
X0163538Y0096432D01*
X0164458Y0098228D02*
X0082124Y0098228D01*
X0082005Y0098826D02*
X0255800Y0098826D01*
X0255800Y0098228D02*
X0170242Y0098228D01*
X0170841Y0097629D02*
X0214659Y0097629D01*
X0215230Y0098200D02*
X0214000Y0096970D01*
X0214000Y0095230D01*
X0215230Y0094000D01*
X0216970Y0094000D01*
X0218200Y0095230D01*
X0218200Y0096970D01*
X0216970Y0098200D01*
X0215230Y0098200D01*
X0214061Y0097031D02*
X0171100Y0097031D01*
X0171100Y0096432D02*
X0214000Y0096432D01*
X0214000Y0095834D02*
X0171100Y0095834D01*
X0170705Y0095235D02*
X0214000Y0095235D01*
X0214594Y0094637D02*
X0170106Y0094637D01*
X0168000Y0094038D02*
X0215192Y0094038D01*
X0217008Y0094038D02*
X0255800Y0094038D01*
X0255800Y0094637D02*
X0217606Y0094637D01*
X0218200Y0095235D02*
X0255800Y0095235D01*
X0255800Y0095834D02*
X0218200Y0095834D01*
X0218200Y0096432D02*
X0255800Y0096432D01*
X0255800Y0097031D02*
X0218139Y0097031D01*
X0217541Y0097629D02*
X0255800Y0097629D01*
X0255800Y0099425D02*
X0081769Y0099425D01*
X0081419Y0100023D02*
X0255800Y0100023D01*
X0255800Y0100622D02*
X0080906Y0100622D01*
X0080122Y0101220D02*
X0255800Y0101220D01*
X0255800Y0093439D02*
X0179730Y0093439D01*
X0179170Y0094000D02*
X0180400Y0092770D01*
X0180400Y0091030D01*
X0179170Y0089800D01*
X0177430Y0089800D01*
X0176200Y0091030D01*
X0176200Y0092770D01*
X0177430Y0094000D01*
X0179170Y0094000D01*
X0180329Y0092841D02*
X0255800Y0092841D01*
X0255800Y0092242D02*
X0180400Y0092242D01*
X0180400Y0091644D02*
X0255800Y0091644D01*
X0255800Y0091045D02*
X0180400Y0091045D01*
X0179817Y0090447D02*
X0255800Y0090447D01*
X0255800Y0089848D02*
X0179218Y0089848D01*
X0177382Y0089848D02*
X0121000Y0089848D01*
X0121000Y0090447D02*
X0176783Y0090447D01*
X0176200Y0091045D02*
X0121000Y0091045D01*
X0120420Y0089250D02*
X0255800Y0089250D01*
X0255800Y0088651D02*
X0119821Y0088651D01*
X0106486Y0075484D02*
X0206146Y0075484D01*
X0206745Y0074886D02*
X0106600Y0074886D01*
X0076885Y0121570D02*
X0073200Y0121570D01*
X0073200Y0122168D02*
X0075670Y0122168D01*
X0075072Y0122767D02*
X0073200Y0122767D01*
X0073200Y0123365D02*
X0074668Y0123365D01*
X0074420Y0123964D02*
X0073200Y0123964D01*
X0073200Y0124562D02*
X0074250Y0124562D01*
X0074250Y0125161D02*
X0073200Y0125161D01*
X0073200Y0125759D02*
X0074250Y0125759D01*
X0074470Y0126358D02*
X0073200Y0126358D01*
X0073200Y0126956D02*
X0074718Y0126956D01*
X0075193Y0127555D02*
X0073200Y0127555D01*
X0073200Y0128153D02*
X0075791Y0128153D01*
X0073200Y0141919D02*
X0118600Y0141919D01*
X0118600Y0142517D02*
X0073200Y0142517D01*
X0073200Y0143116D02*
X0119146Y0143116D01*
X0119745Y0143714D02*
X0073200Y0143714D01*
X0073200Y0144313D02*
X0121000Y0144313D01*
X0121000Y0144911D02*
X0073200Y0144911D01*
X0073200Y0145510D02*
X0121540Y0145510D01*
X0122139Y0146108D02*
X0073200Y0146108D01*
X0073200Y0146707D02*
X0123400Y0146707D01*
X0123936Y0147305D02*
X0073200Y0147305D01*
X0073200Y0147904D02*
X0124534Y0147904D01*
X0125800Y0148503D02*
X0073200Y0148503D01*
X0073200Y0149101D02*
X0125800Y0149101D01*
X0126330Y0149700D02*
X0073200Y0149700D01*
X0073200Y0150298D02*
X0077932Y0150298D01*
X0077334Y0150897D02*
X0073200Y0150897D01*
X0073200Y0151495D02*
X0077200Y0151495D01*
X0077200Y0152094D02*
X0073200Y0152094D01*
X0073200Y0152692D02*
X0077200Y0152692D01*
X0077721Y0153291D02*
X0073200Y0153291D01*
X0073200Y0153889D02*
X0078319Y0153889D01*
X0080281Y0153889D02*
X0167941Y0153889D01*
X0168430Y0153400D02*
X0170170Y0153400D01*
X0171400Y0154630D01*
X0171400Y0156370D01*
X0170170Y0157600D01*
X0168430Y0157600D01*
X0167200Y0156370D01*
X0167200Y0154630D01*
X0168430Y0153400D01*
X0167343Y0154488D02*
X0125657Y0154488D01*
X0125170Y0154000D02*
X0126400Y0155230D01*
X0126400Y0156970D01*
X0125170Y0158200D01*
X0123430Y0158200D01*
X0122200Y0156970D01*
X0122200Y0155230D01*
X0123430Y0154000D01*
X0125170Y0154000D01*
X0126256Y0155086D02*
X0167200Y0155086D01*
X0167200Y0155685D02*
X0126400Y0155685D01*
X0126400Y0156283D02*
X0167200Y0156283D01*
X0167712Y0156882D02*
X0126400Y0156882D01*
X0125890Y0157480D02*
X0168310Y0157480D01*
X0170290Y0157480D02*
X0186910Y0157480D01*
X0186400Y0156970D02*
X0186400Y0155230D01*
X0187630Y0154000D01*
X0189370Y0154000D01*
X0190600Y0155230D01*
X0190600Y0156970D01*
X0189370Y0158200D01*
X0187630Y0158200D01*
X0186400Y0156970D01*
X0186400Y0156882D02*
X0170888Y0156882D01*
X0171400Y0156283D02*
X0186400Y0156283D01*
X0186400Y0155685D02*
X0171400Y0155685D01*
X0171400Y0155086D02*
X0186544Y0155086D01*
X0187143Y0154488D02*
X0171257Y0154488D01*
X0170659Y0153889D02*
X0255800Y0153889D01*
X0255800Y0153291D02*
X0080879Y0153291D01*
X0080668Y0150298D02*
X0126928Y0150298D01*
X0130000Y0147904D02*
X0210526Y0147904D01*
X0211125Y0147305D02*
X0200864Y0147305D01*
X0198936Y0147305D02*
X0129875Y0147305D01*
X0129277Y0146707D02*
X0198337Y0146707D01*
X0197800Y0146108D02*
X0127600Y0146108D01*
X0127600Y0145510D02*
X0197800Y0145510D01*
X0197800Y0144911D02*
X0127481Y0144911D01*
X0126883Y0144313D02*
X0197917Y0144313D01*
X0198516Y0143714D02*
X0125200Y0143714D01*
X0122800Y0141919D02*
X0201400Y0141919D01*
X0201400Y0141320D02*
X0122800Y0141320D01*
X0122692Y0140722D02*
X0201508Y0140722D01*
X0202107Y0140123D02*
X0122093Y0140123D01*
X0122943Y0154488D02*
X0073200Y0154488D01*
X0073200Y0155086D02*
X0088144Y0155086D01*
X0088630Y0154600D02*
X0087400Y0155830D01*
X0087400Y0157570D01*
X0088630Y0158800D01*
X0090370Y0158800D01*
X0091600Y0157570D01*
X0091600Y0155830D01*
X0090370Y0154600D01*
X0088630Y0154600D01*
X0087545Y0155685D02*
X0073200Y0155685D01*
X0073200Y0156283D02*
X0087400Y0156283D01*
X0087400Y0156882D02*
X0078703Y0156882D01*
X0078626Y0156850D02*
X0079968Y0157406D01*
X0080994Y0158432D01*
X0081550Y0159774D01*
X0081550Y0161226D01*
X0080994Y0162568D01*
X0079968Y0163594D01*
X0078626Y0164150D01*
X0077174Y0164150D01*
X0075832Y0163594D01*
X0074806Y0162568D01*
X0074250Y0161226D01*
X0074250Y0159774D01*
X0074806Y0158432D01*
X0075832Y0157406D01*
X0077174Y0156850D01*
X0078626Y0156850D01*
X0077097Y0156882D02*
X0073200Y0156882D01*
X0073200Y0157480D02*
X0075758Y0157480D01*
X0075159Y0158079D02*
X0073200Y0158079D01*
X0073200Y0158677D02*
X0074704Y0158677D01*
X0074456Y0159276D02*
X0073200Y0159276D01*
X0073200Y0159874D02*
X0074250Y0159874D01*
X0074250Y0160473D02*
X0073200Y0160473D01*
X0073200Y0161071D02*
X0074250Y0161071D01*
X0074434Y0161670D02*
X0073200Y0161670D01*
X0073200Y0162268D02*
X0074682Y0162268D01*
X0075105Y0162867D02*
X0073200Y0162867D01*
X0073200Y0163465D02*
X0075703Y0163465D01*
X0076966Y0164064D02*
X0073200Y0164064D01*
X0073200Y0164662D02*
X0131200Y0164662D01*
X0131200Y0164230D02*
X0132430Y0163000D01*
X0134170Y0163000D01*
X0135400Y0164230D01*
X0135400Y0165970D01*
X0134170Y0167200D01*
X0132430Y0167200D01*
X0131200Y0165970D01*
X0131200Y0164230D01*
X0131366Y0164064D02*
X0078834Y0164064D01*
X0080097Y0163465D02*
X0131965Y0163465D01*
X0131200Y0165261D02*
X0073200Y0165261D01*
X0073200Y0165859D02*
X0131200Y0165859D01*
X0131688Y0166458D02*
X0073200Y0166458D01*
X0073200Y0167056D02*
X0076676Y0167056D01*
X0077174Y0166850D02*
X0078626Y0166850D01*
X0079968Y0167406D01*
X0080994Y0168432D01*
X0081550Y0169774D01*
X0081550Y0171226D01*
X0080994Y0172568D01*
X0079968Y0173594D01*
X0078626Y0174150D01*
X0077174Y0174150D01*
X0075832Y0173594D01*
X0074806Y0172568D01*
X0074250Y0171226D01*
X0074250Y0169774D01*
X0074806Y0168432D01*
X0075832Y0167406D01*
X0077174Y0166850D01*
X0075583Y0167655D02*
X0073200Y0167655D01*
X0073200Y0168253D02*
X0074985Y0168253D01*
X0074632Y0168852D02*
X0073200Y0168852D01*
X0073200Y0169450D02*
X0074384Y0169450D01*
X0074250Y0170049D02*
X0073200Y0170049D01*
X0073200Y0170647D02*
X0074250Y0170647D01*
X0074258Y0171246D02*
X0073200Y0171246D01*
X0073200Y0171844D02*
X0074506Y0171844D01*
X0074754Y0172443D02*
X0073200Y0172443D01*
X0073200Y0173041D02*
X0075280Y0173041D01*
X0075943Y0173640D02*
X0073200Y0173640D01*
X0073200Y0174239D02*
X0148600Y0174239D01*
X0148600Y0174837D02*
X0073200Y0174837D01*
X0073200Y0175436D02*
X0090595Y0175436D01*
X0091030Y0175000D02*
X0092770Y0175000D01*
X0094000Y0176230D01*
X0094000Y0177970D01*
X0092770Y0179200D01*
X0091030Y0179200D01*
X0089800Y0177970D01*
X0089800Y0176230D01*
X0091030Y0175000D01*
X0089996Y0176034D02*
X0073200Y0176034D01*
X0073200Y0176633D02*
X0089800Y0176633D01*
X0089800Y0177231D02*
X0079546Y0177231D01*
X0079968Y0177406D02*
X0080994Y0178432D01*
X0081550Y0179774D01*
X0081550Y0181226D01*
X0080994Y0182568D01*
X0079968Y0183594D01*
X0078626Y0184150D01*
X0077174Y0184150D01*
X0075832Y0183594D01*
X0074806Y0182568D01*
X0074250Y0181226D01*
X0074250Y0179774D01*
X0074806Y0178432D01*
X0075832Y0177406D01*
X0077174Y0176850D01*
X0078626Y0176850D01*
X0079968Y0177406D01*
X0080391Y0177830D02*
X0089800Y0177830D01*
X0090258Y0178428D02*
X0080990Y0178428D01*
X0081240Y0179027D02*
X0090857Y0179027D01*
X0092943Y0179027D02*
X0255800Y0179027D01*
X0255800Y0179625D02*
X0081488Y0179625D01*
X0081550Y0180224D02*
X0255800Y0180224D01*
X0255800Y0180822D02*
X0081550Y0180822D01*
X0081469Y0181421D02*
X0194409Y0181421D01*
X0194830Y0181000D02*
X0196570Y0181000D01*
X0197800Y0182230D01*
X0197800Y0183970D01*
X0196570Y0185200D01*
X0194830Y0185200D01*
X0193600Y0183970D01*
X0193600Y0182230D01*
X0194830Y0181000D01*
X0193811Y0182019D02*
X0081221Y0182019D01*
X0080944Y0182618D02*
X0193600Y0182618D01*
X0193600Y0183216D02*
X0080346Y0183216D01*
X0079436Y0183815D02*
X0193600Y0183815D01*
X0194043Y0184413D02*
X0073200Y0184413D01*
X0073200Y0183815D02*
X0076364Y0183815D01*
X0075454Y0183216D02*
X0073200Y0183216D01*
X0073200Y0182618D02*
X0074856Y0182618D01*
X0074579Y0182019D02*
X0073200Y0182019D01*
X0073200Y0181421D02*
X0074331Y0181421D01*
X0074250Y0180822D02*
X0073200Y0180822D01*
X0073200Y0180224D02*
X0074250Y0180224D01*
X0074312Y0179625D02*
X0073200Y0179625D01*
X0073200Y0179027D02*
X0074560Y0179027D01*
X0074810Y0178428D02*
X0073200Y0178428D01*
X0073200Y0177830D02*
X0075409Y0177830D01*
X0076254Y0177231D02*
X0073200Y0177231D01*
X0079857Y0173640D02*
X0148600Y0173640D01*
X0148600Y0173230D02*
X0148600Y0174970D01*
X0149830Y0176200D01*
X0151570Y0176200D01*
X0152800Y0174970D01*
X0152800Y0173230D01*
X0151570Y0172000D01*
X0149830Y0172000D01*
X0148600Y0173230D01*
X0148789Y0173041D02*
X0080520Y0173041D01*
X0081046Y0172443D02*
X0109973Y0172443D01*
X0110230Y0172700D02*
X0109400Y0171870D01*
X0108970Y0172300D01*
X0107230Y0172300D01*
X0106000Y0171070D01*
X0106000Y0169330D01*
X0107230Y0168100D01*
X0108970Y0168100D01*
X0109800Y0168930D01*
X0110230Y0168500D01*
X0111970Y0168500D01*
X0112750Y0169280D01*
X0113230Y0168800D01*
X0114970Y0168800D01*
X0115100Y0168930D01*
X0116230Y0167800D01*
X0117970Y0167800D01*
X0118900Y0168730D01*
X0119230Y0168400D01*
X0120970Y0168400D01*
X0121150Y0168580D01*
X0122230Y0167500D01*
X0123970Y0167500D01*
X0125200Y0168730D01*
X0125200Y0170470D01*
X0123970Y0171700D01*
X0122230Y0171700D01*
X0122050Y0171520D01*
X0120970Y0172600D01*
X0119230Y0172600D01*
X0118300Y0171670D01*
X0117970Y0172000D01*
X0116230Y0172000D01*
X0116100Y0171870D01*
X0114970Y0173000D01*
X0113230Y0173000D01*
X0112450Y0172220D01*
X0111970Y0172700D01*
X0110230Y0172700D01*
X0112227Y0172443D02*
X0112673Y0172443D01*
X0115527Y0172443D02*
X0119073Y0172443D01*
X0118475Y0171844D02*
X0118125Y0171844D01*
X0121127Y0172443D02*
X0149387Y0172443D01*
X0152013Y0172443D02*
X0167987Y0172443D01*
X0167800Y0172630D02*
X0169030Y0171400D01*
X0170770Y0171400D01*
X0172000Y0172630D01*
X0172000Y0174370D01*
X0170770Y0175600D01*
X0169030Y0175600D01*
X0167800Y0174370D01*
X0167800Y0172630D01*
X0167800Y0173041D02*
X0152611Y0173041D01*
X0152800Y0173640D02*
X0167800Y0173640D01*
X0167800Y0174239D02*
X0152800Y0174239D01*
X0152800Y0174837D02*
X0168267Y0174837D01*
X0168866Y0175436D02*
X0152334Y0175436D01*
X0151736Y0176034D02*
X0221381Y0176034D01*
X0221747Y0176400D02*
X0220400Y0175053D01*
X0220400Y0173147D01*
X0221747Y0171800D01*
X0223653Y0171800D01*
X0225000Y0173147D01*
X0225000Y0175053D01*
X0223653Y0176400D01*
X0221747Y0176400D01*
X0220783Y0175436D02*
X0170934Y0175436D01*
X0171533Y0174837D02*
X0220400Y0174837D01*
X0220400Y0174239D02*
X0172000Y0174239D01*
X0172000Y0173640D02*
X0220400Y0173640D01*
X0220506Y0173041D02*
X0176328Y0173041D01*
X0176170Y0173200D02*
X0174430Y0173200D01*
X0173200Y0171970D01*
X0173200Y0170230D01*
X0173830Y0169600D01*
X0173200Y0168970D01*
X0173200Y0167230D01*
X0174430Y0166000D01*
X0176170Y0166000D01*
X0176800Y0166630D01*
X0176830Y0166600D01*
X0176200Y0165970D01*
X0176200Y0164230D01*
X0177430Y0163000D01*
X0179170Y0163000D01*
X0179800Y0163630D01*
X0179830Y0163600D01*
X0179200Y0162970D01*
X0179200Y0161230D01*
X0180430Y0160000D01*
X0182170Y0160000D01*
X0183400Y0161230D01*
X0183400Y0161230D01*
X0183430Y0161200D01*
X0182800Y0160570D01*
X0182800Y0158830D01*
X0184030Y0157600D01*
X0185770Y0157600D01*
X0187000Y0158830D01*
X0187000Y0160570D01*
X0186370Y0161200D01*
X0187000Y0161830D01*
X0187000Y0163570D01*
X0185770Y0164800D01*
X0184030Y0164800D01*
X0182800Y0163570D01*
X0182800Y0163570D01*
X0182770Y0163600D01*
X0183400Y0164230D01*
X0183400Y0165970D01*
X0182170Y0167200D01*
X0180430Y0167200D01*
X0179800Y0166570D01*
X0179770Y0166600D01*
X0180400Y0167230D01*
X0180400Y0168970D01*
X0179170Y0170200D01*
X0177430Y0170200D01*
X0176800Y0169570D01*
X0176770Y0169600D01*
X0177400Y0170230D01*
X0177400Y0171970D01*
X0176170Y0173200D01*
X0176927Y0172443D02*
X0204873Y0172443D01*
X0205030Y0172600D02*
X0203800Y0171370D01*
X0203800Y0169630D01*
X0205030Y0168400D01*
X0206770Y0168400D01*
X0208000Y0169630D01*
X0208000Y0171370D01*
X0206770Y0172600D01*
X0205030Y0172600D01*
X0204275Y0171844D02*
X0177400Y0171844D01*
X0177400Y0171246D02*
X0203800Y0171246D01*
X0203800Y0170647D02*
X0177400Y0170647D01*
X0177279Y0170049D02*
X0177219Y0170049D01*
X0179321Y0170049D02*
X0203800Y0170049D01*
X0203980Y0169450D02*
X0179919Y0169450D01*
X0180400Y0168852D02*
X0204578Y0168852D01*
X0207222Y0168852D02*
X0255800Y0168852D01*
X0255800Y0169450D02*
X0243820Y0169450D01*
X0243370Y0169000D02*
X0244600Y0170230D01*
X0244600Y0171970D01*
X0243370Y0173200D01*
X0241630Y0173200D01*
X0240400Y0171970D01*
X0240400Y0170230D01*
X0241630Y0169000D01*
X0243370Y0169000D01*
X0244419Y0170049D02*
X0255800Y0170049D01*
X0255800Y0170647D02*
X0244600Y0170647D01*
X0244600Y0171246D02*
X0255800Y0171246D01*
X0255800Y0171844D02*
X0244600Y0171844D01*
X0244127Y0172443D02*
X0255800Y0172443D01*
X0255800Y0173041D02*
X0243528Y0173041D01*
X0241472Y0173041D02*
X0224894Y0173041D01*
X0225000Y0173640D02*
X0255800Y0173640D01*
X0255800Y0174239D02*
X0225000Y0174239D01*
X0225000Y0174837D02*
X0255800Y0174837D01*
X0255800Y0175436D02*
X0224617Y0175436D01*
X0224019Y0176034D02*
X0255800Y0176034D01*
X0255800Y0176633D02*
X0094000Y0176633D01*
X0094000Y0177231D02*
X0255800Y0177231D01*
X0255800Y0177830D02*
X0094000Y0177830D01*
X0093542Y0178428D02*
X0255800Y0178428D01*
X0255800Y0181421D02*
X0196990Y0181421D01*
X0197589Y0182019D02*
X0255800Y0182019D01*
X0255800Y0182618D02*
X0197800Y0182618D01*
X0197800Y0183216D02*
X0255800Y0183216D01*
X0255800Y0183815D02*
X0197800Y0183815D01*
X0197357Y0184413D02*
X0255800Y0184413D01*
X0255800Y0185012D02*
X0196758Y0185012D01*
X0194642Y0185012D02*
X0073200Y0185012D01*
X0073200Y0185610D02*
X0255800Y0185610D01*
X0255800Y0186209D02*
X0073200Y0186209D01*
X0073200Y0186807D02*
X0100823Y0186807D01*
X0101230Y0186400D02*
X0100000Y0187630D01*
X0100000Y0189370D01*
X0101230Y0190600D01*
X0102970Y0190600D01*
X0104200Y0189370D01*
X0104200Y0187630D01*
X0102970Y0186400D01*
X0101230Y0186400D01*
X0100224Y0187406D02*
X0073200Y0187406D01*
X0073200Y0188004D02*
X0100000Y0188004D01*
X0100000Y0188603D02*
X0073200Y0188603D01*
X0073200Y0189201D02*
X0100000Y0189201D01*
X0100430Y0189800D02*
X0073200Y0189800D01*
X0073200Y0190398D02*
X0101028Y0190398D01*
X0103172Y0190398D02*
X0255800Y0190398D01*
X0255800Y0189800D02*
X0103770Y0189800D01*
X0104200Y0189201D02*
X0255800Y0189201D01*
X0255800Y0188603D02*
X0104200Y0188603D01*
X0104200Y0188004D02*
X0255800Y0188004D01*
X0255800Y0187406D02*
X0103976Y0187406D01*
X0103377Y0186807D02*
X0255800Y0186807D01*
X0255800Y0190997D02*
X0169967Y0190997D01*
X0169570Y0190600D02*
X0170800Y0191830D01*
X0170800Y0193570D01*
X0169570Y0194800D01*
X0167830Y0194800D01*
X0166600Y0193570D01*
X0166600Y0191830D01*
X0167830Y0190600D01*
X0169570Y0190600D01*
X0170565Y0191595D02*
X0255800Y0191595D01*
X0255800Y0192194D02*
X0170800Y0192194D01*
X0170800Y0192792D02*
X0255800Y0192792D01*
X0255800Y0193391D02*
X0170800Y0193391D01*
X0170380Y0193989D02*
X0255800Y0193989D01*
X0255800Y0194588D02*
X0169782Y0194588D01*
X0167618Y0194588D02*
X0081073Y0194588D01*
X0081150Y0194774D02*
X0080594Y0193432D01*
X0079568Y0192406D01*
X0078226Y0191850D01*
X0076774Y0191850D01*
X0075432Y0192406D01*
X0074406Y0193432D01*
X0073850Y0194774D01*
X0073850Y0196226D01*
X0074406Y0197568D01*
X0075432Y0198594D01*
X0076774Y0199150D01*
X0078226Y0199150D01*
X0079568Y0198594D01*
X0080594Y0197568D01*
X0081150Y0196226D01*
X0081150Y0194774D01*
X0081150Y0195186D02*
X0255800Y0195186D01*
X0255800Y0195785D02*
X0081150Y0195785D01*
X0081085Y0196383D02*
X0255800Y0196383D01*
X0255800Y0196982D02*
X0080837Y0196982D01*
X0080581Y0197580D02*
X0143450Y0197580D01*
X0143830Y0197200D02*
X0145570Y0197200D01*
X0146800Y0198430D01*
X0146800Y0200170D01*
X0145570Y0201400D01*
X0144370Y0201400D01*
X0144400Y0201430D01*
X0144400Y0203170D01*
X0143170Y0204400D01*
X0143170Y0204400D01*
X0143200Y0204430D01*
X0143200Y0206170D01*
X0141970Y0207400D01*
X0141370Y0207400D01*
X0141400Y0207430D01*
X0141400Y0209170D01*
X0140170Y0210400D01*
X0138570Y0210400D01*
X0139200Y0211030D01*
X0139200Y0212770D01*
X0137970Y0214000D01*
X0137770Y0214000D01*
X0137800Y0214030D01*
X0137800Y0215770D01*
X0136870Y0216700D01*
X0137200Y0217030D01*
X0137200Y0218770D01*
X0136270Y0219700D01*
X0136600Y0220030D01*
X0136600Y0221770D01*
X0135370Y0223000D01*
X0135370Y0223000D01*
X0136000Y0223630D01*
X0136000Y0225370D01*
X0135070Y0226300D01*
X0136000Y0227230D01*
X0136000Y0228970D01*
X0134770Y0230200D01*
X0133030Y0230200D01*
X0131800Y0228970D01*
X0131800Y0228970D01*
X0131170Y0229600D01*
X0129430Y0229600D01*
X0128200Y0228370D01*
X0128200Y0226630D01*
X0129430Y0225400D01*
X0131170Y0225400D01*
X0132400Y0226630D01*
X0132400Y0226630D01*
X0132730Y0226300D01*
X0131800Y0225370D01*
X0131800Y0223630D01*
X0133030Y0222400D01*
X0133030Y0222400D01*
X0132400Y0221770D01*
X0132400Y0220030D01*
X0133330Y0219100D01*
X0133000Y0218770D01*
X0133000Y0217030D01*
X0133930Y0216100D01*
X0133600Y0215770D01*
X0133600Y0214030D01*
X0134830Y0212800D01*
X0135030Y0212800D01*
X0135000Y0212770D01*
X0135000Y0211030D01*
X0136230Y0209800D01*
X0137830Y0209800D01*
X0137200Y0209170D01*
X0137200Y0207430D01*
X0138430Y0206200D01*
X0139030Y0206200D01*
X0139000Y0206170D01*
X0139000Y0204430D01*
X0140230Y0203200D01*
X0140230Y0203200D01*
X0140200Y0203170D01*
X0140200Y0201430D01*
X0141430Y0200200D01*
X0142630Y0200200D01*
X0142600Y0200170D01*
X0142600Y0198430D01*
X0143830Y0197200D01*
X0142851Y0198179D02*
X0079983Y0198179D01*
X0079125Y0198777D02*
X0142600Y0198777D01*
X0142600Y0199376D02*
X0073200Y0199376D01*
X0073200Y0199974D02*
X0142600Y0199974D01*
X0141057Y0200573D02*
X0073200Y0200573D01*
X0073200Y0201172D02*
X0140459Y0201172D01*
X0140200Y0201770D02*
X0073200Y0201770D01*
X0073200Y0202369D02*
X0075522Y0202369D01*
X0075432Y0202406D02*
X0076774Y0201850D01*
X0078226Y0201850D01*
X0079568Y0202406D01*
X0080594Y0203432D01*
X0081150Y0204774D01*
X0081150Y0206226D01*
X0080594Y0207568D01*
X0079568Y0208594D01*
X0078226Y0209150D01*
X0076774Y0209150D01*
X0075432Y0208594D01*
X0074406Y0207568D01*
X0073850Y0206226D01*
X0073850Y0204774D01*
X0074406Y0203432D01*
X0075432Y0202406D01*
X0074871Y0202967D02*
X0073200Y0202967D01*
X0073200Y0203566D02*
X0074351Y0203566D01*
X0074103Y0204164D02*
X0073200Y0204164D01*
X0073200Y0204763D02*
X0073855Y0204763D01*
X0073850Y0205361D02*
X0073200Y0205361D01*
X0073200Y0205960D02*
X0073850Y0205960D01*
X0073988Y0206558D02*
X0073200Y0206558D01*
X0073200Y0207157D02*
X0074235Y0207157D01*
X0074593Y0207755D02*
X0073200Y0207755D01*
X0073200Y0208354D02*
X0075192Y0208354D01*
X0076296Y0208952D02*
X0073200Y0208952D01*
X0073200Y0209551D02*
X0137581Y0209551D01*
X0137200Y0208952D02*
X0078704Y0208952D01*
X0079808Y0208354D02*
X0137200Y0208354D01*
X0137200Y0207755D02*
X0080407Y0207755D01*
X0080765Y0207157D02*
X0137474Y0207157D01*
X0138072Y0206558D02*
X0081012Y0206558D01*
X0081150Y0205960D02*
X0139000Y0205960D01*
X0139000Y0205361D02*
X0081150Y0205361D01*
X0081145Y0204763D02*
X0139000Y0204763D01*
X0139266Y0204164D02*
X0080897Y0204164D01*
X0080649Y0203566D02*
X0139865Y0203566D01*
X0140200Y0202967D02*
X0080129Y0202967D01*
X0079478Y0202369D02*
X0140200Y0202369D01*
X0143406Y0204164D02*
X0157600Y0204164D01*
X0157600Y0203566D02*
X0144004Y0203566D01*
X0144400Y0202967D02*
X0157863Y0202967D01*
X0157600Y0203230D02*
X0158830Y0202000D01*
X0160570Y0202000D01*
X0161800Y0203230D01*
X0161800Y0204970D01*
X0160570Y0206200D01*
X0158830Y0206200D01*
X0157600Y0204970D01*
X0157600Y0203230D01*
X0158462Y0202369D02*
X0144400Y0202369D01*
X0144400Y0201770D02*
X0148400Y0201770D01*
X0148630Y0202000D02*
X0147400Y0200770D01*
X0147400Y0199030D01*
X0148630Y0197800D01*
X0150370Y0197800D01*
X0151600Y0199030D01*
X0151600Y0200770D01*
X0150370Y0202000D01*
X0148630Y0202000D01*
X0147802Y0201172D02*
X0145798Y0201172D01*
X0146397Y0200573D02*
X0147400Y0200573D01*
X0147400Y0199974D02*
X0146800Y0199974D01*
X0146800Y0199376D02*
X0147400Y0199376D01*
X0147653Y0198777D02*
X0146800Y0198777D01*
X0146549Y0198179D02*
X0148251Y0198179D01*
X0145950Y0197580D02*
X0255800Y0197580D01*
X0255800Y0198179D02*
X0150749Y0198179D01*
X0151347Y0198777D02*
X0255800Y0198777D01*
X0255800Y0199376D02*
X0151600Y0199376D01*
X0151600Y0199974D02*
X0255800Y0199974D01*
X0255800Y0200573D02*
X0151600Y0200573D01*
X0151198Y0201172D02*
X0255800Y0201172D01*
X0255800Y0201770D02*
X0150600Y0201770D01*
X0157600Y0204763D02*
X0143200Y0204763D01*
X0143200Y0205361D02*
X0157991Y0205361D01*
X0158590Y0205960D02*
X0143200Y0205960D01*
X0142812Y0206558D02*
X0255800Y0206558D01*
X0255800Y0205960D02*
X0160810Y0205960D01*
X0161409Y0205361D02*
X0255800Y0205361D01*
X0255800Y0204763D02*
X0161800Y0204763D01*
X0161800Y0204164D02*
X0255800Y0204164D01*
X0255800Y0203566D02*
X0161800Y0203566D01*
X0161537Y0202967D02*
X0255800Y0202967D01*
X0255800Y0202369D02*
X0160938Y0202369D01*
X0167020Y0193989D02*
X0080825Y0193989D01*
X0080553Y0193391D02*
X0166600Y0193391D01*
X0166600Y0192792D02*
X0079954Y0192792D01*
X0079056Y0192194D02*
X0166600Y0192194D01*
X0166835Y0191595D02*
X0073200Y0191595D01*
X0073200Y0190997D02*
X0167433Y0190997D01*
X0172000Y0173041D02*
X0174272Y0173041D01*
X0173673Y0172443D02*
X0171813Y0172443D01*
X0171214Y0171844D02*
X0173200Y0171844D01*
X0173200Y0171246D02*
X0124424Y0171246D01*
X0125022Y0170647D02*
X0173200Y0170647D01*
X0173381Y0170049D02*
X0125200Y0170049D01*
X0125200Y0169450D02*
X0173681Y0169450D01*
X0173200Y0168852D02*
X0125200Y0168852D01*
X0124723Y0168253D02*
X0173200Y0168253D01*
X0173200Y0167655D02*
X0124125Y0167655D01*
X0122075Y0167655D02*
X0080217Y0167655D01*
X0080815Y0168253D02*
X0107077Y0168253D01*
X0106478Y0168852D02*
X0081168Y0168852D01*
X0081416Y0169450D02*
X0106000Y0169450D01*
X0106000Y0170049D02*
X0081550Y0170049D01*
X0081550Y0170647D02*
X0106000Y0170647D01*
X0106176Y0171246D02*
X0081542Y0171246D01*
X0081294Y0171844D02*
X0106775Y0171844D01*
X0109722Y0168852D02*
X0109878Y0168852D01*
X0109123Y0168253D02*
X0115777Y0168253D01*
X0115178Y0168852D02*
X0115022Y0168852D01*
X0113178Y0168852D02*
X0112322Y0168852D01*
X0118423Y0168253D02*
X0121477Y0168253D01*
X0121725Y0171844D02*
X0168586Y0171844D01*
X0167170Y0166000D02*
X0165430Y0166000D01*
X0164200Y0164770D01*
X0164200Y0163030D01*
X0165430Y0161800D01*
X0167170Y0161800D01*
X0168400Y0163030D01*
X0168400Y0164770D01*
X0167170Y0166000D01*
X0167310Y0165859D02*
X0176200Y0165859D01*
X0176200Y0165261D02*
X0167909Y0165261D01*
X0168400Y0164662D02*
X0176200Y0164662D01*
X0176366Y0164064D02*
X0168400Y0164064D01*
X0168400Y0163465D02*
X0176965Y0163465D01*
X0179200Y0162867D02*
X0168237Y0162867D01*
X0167638Y0162268D02*
X0179200Y0162268D01*
X0179200Y0161670D02*
X0081366Y0161670D01*
X0081550Y0161071D02*
X0179359Y0161071D01*
X0179957Y0160473D02*
X0081550Y0160473D01*
X0081550Y0159874D02*
X0182800Y0159874D01*
X0182800Y0159276D02*
X0081344Y0159276D01*
X0081096Y0158677D02*
X0088507Y0158677D01*
X0087909Y0158079D02*
X0080641Y0158079D01*
X0080042Y0157480D02*
X0087400Y0157480D01*
X0090493Y0158677D02*
X0182953Y0158677D01*
X0183551Y0158079D02*
X0125291Y0158079D01*
X0123309Y0158079D02*
X0091091Y0158079D01*
X0091600Y0157480D02*
X0122710Y0157480D01*
X0122200Y0156882D02*
X0091600Y0156882D01*
X0091600Y0156283D02*
X0122200Y0156283D01*
X0122200Y0155685D02*
X0091455Y0155685D01*
X0090856Y0155086D02*
X0122344Y0155086D01*
X0134635Y0163465D02*
X0164200Y0163465D01*
X0164200Y0164064D02*
X0135234Y0164064D01*
X0135400Y0164662D02*
X0164200Y0164662D01*
X0164691Y0165261D02*
X0135400Y0165261D01*
X0135400Y0165859D02*
X0165290Y0165859D01*
X0164363Y0162867D02*
X0080695Y0162867D01*
X0081118Y0162268D02*
X0164962Y0162268D01*
X0173374Y0167056D02*
X0134313Y0167056D01*
X0134912Y0166458D02*
X0173972Y0166458D01*
X0176628Y0166458D02*
X0176688Y0166458D01*
X0180226Y0167056D02*
X0180287Y0167056D01*
X0180400Y0167655D02*
X0255800Y0167655D01*
X0255800Y0168253D02*
X0180400Y0168253D01*
X0182313Y0167056D02*
X0255800Y0167056D01*
X0255800Y0166458D02*
X0244712Y0166458D01*
X0244570Y0166600D02*
X0245800Y0165370D01*
X0245800Y0163630D01*
X0244570Y0162400D01*
X0242830Y0162400D01*
X0241600Y0163630D01*
X0241600Y0165370D01*
X0242830Y0166600D01*
X0244570Y0166600D01*
X0245310Y0165859D02*
X0255800Y0165859D01*
X0255800Y0165261D02*
X0245800Y0165261D01*
X0245800Y0164662D02*
X0255800Y0164662D01*
X0255800Y0164064D02*
X0245800Y0164064D01*
X0245635Y0163465D02*
X0255800Y0163465D01*
X0255800Y0162867D02*
X0245037Y0162867D01*
X0242363Y0162867D02*
X0187000Y0162867D01*
X0187000Y0163465D02*
X0241765Y0163465D01*
X0241600Y0164064D02*
X0186506Y0164064D01*
X0185908Y0164662D02*
X0241600Y0164662D01*
X0241600Y0165261D02*
X0183400Y0165261D01*
X0183400Y0165859D02*
X0242090Y0165859D01*
X0242688Y0166458D02*
X0182912Y0166458D01*
X0183400Y0164662D02*
X0183892Y0164662D01*
X0183294Y0164064D02*
X0183234Y0164064D01*
X0183241Y0161071D02*
X0183301Y0161071D01*
X0182800Y0160473D02*
X0182643Y0160473D01*
X0179695Y0163465D02*
X0179635Y0163465D01*
X0186499Y0161071D02*
X0255800Y0161071D01*
X0255800Y0160473D02*
X0187000Y0160473D01*
X0187000Y0159874D02*
X0255800Y0159874D01*
X0255800Y0159276D02*
X0187000Y0159276D01*
X0186847Y0158677D02*
X0255800Y0158677D01*
X0255800Y0158079D02*
X0189491Y0158079D01*
X0190090Y0157480D02*
X0255800Y0157480D01*
X0255800Y0156882D02*
X0190600Y0156882D01*
X0190600Y0156283D02*
X0255800Y0156283D01*
X0255800Y0155685D02*
X0190600Y0155685D01*
X0190456Y0155086D02*
X0255800Y0155086D01*
X0255800Y0154488D02*
X0189857Y0154488D01*
X0187509Y0158079D02*
X0186249Y0158079D01*
X0186840Y0161670D02*
X0255800Y0161670D01*
X0255800Y0162268D02*
X0187000Y0162268D01*
X0207820Y0169450D02*
X0241180Y0169450D01*
X0240581Y0170049D02*
X0208000Y0170049D01*
X0208000Y0170647D02*
X0240400Y0170647D01*
X0240400Y0171246D02*
X0208000Y0171246D01*
X0207525Y0171844D02*
X0221703Y0171844D01*
X0221104Y0172443D02*
X0206927Y0172443D01*
X0223697Y0171844D02*
X0240400Y0171844D01*
X0240873Y0172443D02*
X0224296Y0172443D01*
X0255800Y0207157D02*
X0142213Y0207157D01*
X0141400Y0207755D02*
X0255800Y0207755D01*
X0255800Y0208354D02*
X0141400Y0208354D01*
X0141400Y0208952D02*
X0255800Y0208952D01*
X0255800Y0209551D02*
X0141019Y0209551D01*
X0140421Y0210149D02*
X0255800Y0210149D01*
X0255800Y0210748D02*
X0138918Y0210748D01*
X0139200Y0211346D02*
X0255800Y0211346D01*
X0255800Y0211945D02*
X0139200Y0211945D01*
X0139200Y0212543D02*
X0255800Y0212543D01*
X0255800Y0213142D02*
X0138828Y0213142D01*
X0138230Y0213740D02*
X0226694Y0213740D01*
X0227151Y0213551D02*
X0225873Y0214080D01*
X0224896Y0215058D01*
X0224367Y0216335D01*
X0224367Y0217717D01*
X0224896Y0218994D01*
X0225873Y0219972D01*
X0227151Y0220501D01*
X0228533Y0220501D01*
X0229810Y0219972D01*
X0230788Y0218994D01*
X0231317Y0217717D01*
X0231317Y0216335D01*
X0230788Y0215058D01*
X0229810Y0214080D01*
X0228533Y0213551D01*
X0227151Y0213551D01*
X0225615Y0214339D02*
X0137800Y0214339D01*
X0137800Y0214937D02*
X0225016Y0214937D01*
X0224698Y0215536D02*
X0137800Y0215536D01*
X0137436Y0216134D02*
X0224450Y0216134D01*
X0224367Y0216733D02*
X0136903Y0216733D01*
X0137200Y0217331D02*
X0224367Y0217331D01*
X0224455Y0217930D02*
X0137200Y0217930D01*
X0137200Y0218528D02*
X0224703Y0218528D01*
X0225029Y0219127D02*
X0136843Y0219127D01*
X0136295Y0219725D02*
X0225627Y0219725D01*
X0226723Y0220324D02*
X0136600Y0220324D01*
X0136600Y0220922D02*
X0255800Y0220922D01*
X0255800Y0220324D02*
X0246677Y0220324D01*
X0246249Y0220501D02*
X0244867Y0220501D01*
X0243590Y0219972D01*
X0242612Y0218994D01*
X0242083Y0217717D01*
X0242083Y0216335D01*
X0242612Y0215058D01*
X0243590Y0214080D01*
X0244867Y0213551D01*
X0246249Y0213551D01*
X0247527Y0214080D01*
X0248504Y0215058D01*
X0249033Y0216335D01*
X0249033Y0217717D01*
X0248504Y0218994D01*
X0247527Y0219972D01*
X0246249Y0220501D01*
X0246249Y0221425D02*
X0247527Y0221954D01*
X0248504Y0222932D01*
X0249033Y0224209D01*
X0249033Y0225591D01*
X0248504Y0226868D01*
X0247527Y0227846D01*
X0246249Y0228375D01*
X0244867Y0228375D01*
X0243590Y0227846D01*
X0242612Y0226868D01*
X0242083Y0225591D01*
X0242083Y0224209D01*
X0242612Y0222932D01*
X0243590Y0221954D01*
X0244867Y0221425D01*
X0246249Y0221425D01*
X0246480Y0221521D02*
X0255800Y0221521D01*
X0255800Y0222119D02*
X0247692Y0222119D01*
X0248290Y0222718D02*
X0255800Y0222718D01*
X0255800Y0223316D02*
X0248663Y0223316D01*
X0248911Y0223915D02*
X0255800Y0223915D01*
X0255800Y0224513D02*
X0249033Y0224513D01*
X0249033Y0225112D02*
X0255800Y0225112D01*
X0255800Y0225710D02*
X0248984Y0225710D01*
X0248736Y0226309D02*
X0255800Y0226309D01*
X0255800Y0226908D02*
X0248465Y0226908D01*
X0247866Y0227506D02*
X0255800Y0227506D01*
X0255800Y0228105D02*
X0246902Y0228105D01*
X0246255Y0229302D02*
X0255800Y0229302D01*
X0255800Y0229900D02*
X0247598Y0229900D01*
X0247527Y0229828D02*
X0248504Y0230806D01*
X0249033Y0232083D01*
X0249033Y0233465D01*
X0248504Y0234742D01*
X0247527Y0235720D01*
X0246249Y0236249D01*
X0244867Y0236249D01*
X0243590Y0235720D01*
X0242612Y0234742D01*
X0242083Y0233465D01*
X0242083Y0232083D01*
X0242612Y0230806D01*
X0243590Y0229828D01*
X0244867Y0229299D01*
X0246249Y0229299D01*
X0247527Y0229828D01*
X0248197Y0230499D02*
X0255800Y0230499D01*
X0255800Y0231097D02*
X0248625Y0231097D01*
X0248873Y0231696D02*
X0255800Y0231696D01*
X0255800Y0232294D02*
X0249033Y0232294D01*
X0249033Y0232893D02*
X0255800Y0232893D01*
X0255800Y0233491D02*
X0249022Y0233491D01*
X0248774Y0234090D02*
X0255800Y0234090D01*
X0255800Y0234688D02*
X0248526Y0234688D01*
X0247960Y0235287D02*
X0255800Y0235287D01*
X0255800Y0235885D02*
X0247127Y0235885D01*
X0243989Y0235885D02*
X0229411Y0235885D01*
X0229810Y0235720D02*
X0228533Y0236249D01*
X0227151Y0236249D01*
X0225873Y0235720D01*
X0224896Y0234742D01*
X0224367Y0233465D01*
X0224367Y0232083D01*
X0224896Y0230806D01*
X0225873Y0229828D01*
X0227151Y0229299D01*
X0228533Y0229299D01*
X0229810Y0229828D01*
X0230788Y0230806D01*
X0231317Y0232083D01*
X0231317Y0233465D01*
X0230788Y0234742D01*
X0229810Y0235720D01*
X0230243Y0235287D02*
X0243157Y0235287D01*
X0242590Y0234688D02*
X0230810Y0234688D01*
X0231058Y0234090D02*
X0242342Y0234090D01*
X0242094Y0233491D02*
X0231306Y0233491D01*
X0231317Y0232893D02*
X0242083Y0232893D01*
X0242083Y0232294D02*
X0231317Y0232294D01*
X0231156Y0231696D02*
X0242244Y0231696D01*
X0242492Y0231097D02*
X0230908Y0231097D01*
X0230480Y0230499D02*
X0242920Y0230499D01*
X0243518Y0229900D02*
X0229882Y0229900D01*
X0228539Y0229302D02*
X0244861Y0229302D01*
X0244215Y0228105D02*
X0229185Y0228105D01*
X0229810Y0227846D02*
X0228533Y0228375D01*
X0227151Y0228375D01*
X0225873Y0227846D01*
X0224896Y0226868D01*
X0224367Y0225591D01*
X0224367Y0224209D01*
X0224896Y0222932D01*
X0225873Y0221954D01*
X0227151Y0221425D01*
X0228533Y0221425D01*
X0229810Y0221954D01*
X0230788Y0222932D01*
X0231317Y0224209D01*
X0231317Y0225591D01*
X0230788Y0226868D01*
X0229810Y0227846D01*
X0230150Y0227506D02*
X0243250Y0227506D01*
X0242652Y0226908D02*
X0230748Y0226908D01*
X0231019Y0226309D02*
X0242381Y0226309D01*
X0242133Y0225710D02*
X0231267Y0225710D01*
X0231317Y0225112D02*
X0242083Y0225112D01*
X0242083Y0224513D02*
X0231317Y0224513D01*
X0231195Y0223915D02*
X0242205Y0223915D01*
X0242453Y0223316D02*
X0230947Y0223316D01*
X0230574Y0222718D02*
X0242826Y0222718D01*
X0243425Y0222119D02*
X0229975Y0222119D01*
X0228764Y0221521D02*
X0244636Y0221521D01*
X0244440Y0220324D02*
X0228960Y0220324D01*
X0230056Y0219725D02*
X0243344Y0219725D01*
X0242745Y0219127D02*
X0230655Y0219127D01*
X0230981Y0218528D02*
X0242419Y0218528D01*
X0242172Y0217930D02*
X0231228Y0217930D01*
X0231317Y0217331D02*
X0242083Y0217331D01*
X0242083Y0216733D02*
X0231317Y0216733D01*
X0231233Y0216134D02*
X0242167Y0216134D01*
X0242414Y0215536D02*
X0230986Y0215536D01*
X0230667Y0214937D02*
X0242733Y0214937D01*
X0243331Y0214339D02*
X0230069Y0214339D01*
X0228989Y0213740D02*
X0244411Y0213740D01*
X0246706Y0213740D02*
X0255800Y0213740D01*
X0255800Y0214339D02*
X0247785Y0214339D01*
X0248384Y0214937D02*
X0255800Y0214937D01*
X0255800Y0215536D02*
X0248702Y0215536D01*
X0248950Y0216134D02*
X0255800Y0216134D01*
X0255800Y0216733D02*
X0249033Y0216733D01*
X0249033Y0217331D02*
X0255800Y0217331D01*
X0255800Y0217930D02*
X0248945Y0217930D01*
X0248697Y0218528D02*
X0255800Y0218528D01*
X0255800Y0219127D02*
X0248371Y0219127D01*
X0247773Y0219725D02*
X0255800Y0219725D01*
X0255800Y0228703D02*
X0136000Y0228703D01*
X0136000Y0228105D02*
X0226498Y0228105D01*
X0225534Y0227506D02*
X0136000Y0227506D01*
X0135677Y0226908D02*
X0224935Y0226908D01*
X0224664Y0226309D02*
X0135079Y0226309D01*
X0135659Y0225710D02*
X0224416Y0225710D01*
X0224367Y0225112D02*
X0193541Y0225112D01*
X0193053Y0225600D02*
X0194400Y0224253D01*
X0194400Y0222347D01*
X0193053Y0221000D01*
X0191147Y0221000D01*
X0189800Y0222347D01*
X0189800Y0224253D01*
X0191147Y0225600D01*
X0193053Y0225600D01*
X0194139Y0224513D02*
X0224367Y0224513D01*
X0224489Y0223915D02*
X0194400Y0223915D01*
X0194400Y0223316D02*
X0224737Y0223316D01*
X0225110Y0222718D02*
X0194400Y0222718D01*
X0194172Y0222119D02*
X0225708Y0222119D01*
X0226919Y0221521D02*
X0193574Y0221521D01*
X0190626Y0221521D02*
X0136600Y0221521D01*
X0136250Y0222119D02*
X0190028Y0222119D01*
X0189800Y0222718D02*
X0135652Y0222718D01*
X0135686Y0223316D02*
X0189800Y0223316D01*
X0189800Y0223915D02*
X0136000Y0223915D01*
X0136000Y0224513D02*
X0190061Y0224513D01*
X0190659Y0225112D02*
X0136000Y0225112D01*
X0132721Y0226309D02*
X0132079Y0226309D01*
X0132141Y0225710D02*
X0131480Y0225710D01*
X0131800Y0225112D02*
X0109282Y0225112D01*
X0108970Y0224800D02*
X0110200Y0226030D01*
X0110200Y0227770D01*
X0109670Y0228300D01*
X0110770Y0228300D01*
X0112000Y0229530D01*
X0112000Y0231270D01*
X0110770Y0232500D01*
X0109030Y0232500D01*
X0107800Y0231270D01*
X0107800Y0229530D01*
X0108330Y0229000D01*
X0107230Y0229000D01*
X0106000Y0227770D01*
X0106000Y0226030D01*
X0106030Y0226000D01*
X0104830Y0226000D01*
X0103600Y0224770D01*
X0103600Y0223030D01*
X0104830Y0221800D01*
X0106570Y0221800D01*
X0107800Y0223030D01*
X0107800Y0224770D01*
X0107770Y0224800D01*
X0108970Y0224800D01*
X0107800Y0224513D02*
X0131800Y0224513D01*
X0131800Y0223915D02*
X0107800Y0223915D01*
X0107800Y0223316D02*
X0132114Y0223316D01*
X0132712Y0222718D02*
X0107488Y0222718D01*
X0106889Y0222119D02*
X0132750Y0222119D01*
X0132400Y0221521D02*
X0078255Y0221521D01*
X0077899Y0221450D02*
X0078681Y0221606D01*
X0079418Y0221911D01*
X0080082Y0222354D01*
X0080646Y0222918D01*
X0081089Y0223582D01*
X0081394Y0224319D01*
X0081550Y0225101D01*
X0081550Y0225200D01*
X0077800Y0225200D01*
X0077800Y0225800D01*
X0081550Y0225800D01*
X0081550Y0225899D01*
X0081394Y0226681D01*
X0081089Y0227418D01*
X0080646Y0228082D01*
X0080082Y0228646D01*
X0079418Y0229089D01*
X0078681Y0229394D01*
X0077899Y0229550D01*
X0077800Y0229550D01*
X0077800Y0225800D01*
X0077200Y0225800D01*
X0077200Y0229550D01*
X0077101Y0229550D01*
X0076319Y0229394D01*
X0075582Y0229089D01*
X0074918Y0228646D01*
X0074354Y0228082D01*
X0073911Y0227418D01*
X0073606Y0226681D01*
X0073450Y0225899D01*
X0073450Y0225800D01*
X0077200Y0225800D01*
X0077200Y0225200D01*
X0077800Y0225200D01*
X0077800Y0221450D01*
X0077899Y0221450D01*
X0077800Y0221521D02*
X0077200Y0221521D01*
X0077200Y0221450D02*
X0077200Y0225200D01*
X0073450Y0225200D01*
X0073450Y0225101D01*
X0073606Y0224319D01*
X0073911Y0223582D01*
X0074354Y0222918D01*
X0074918Y0222354D01*
X0075582Y0221911D01*
X0076319Y0221606D01*
X0077101Y0221450D01*
X0077200Y0221450D01*
X0076745Y0221521D02*
X0073200Y0221521D01*
X0073200Y0222119D02*
X0075270Y0222119D01*
X0074555Y0222718D02*
X0073200Y0222718D01*
X0073200Y0223316D02*
X0074088Y0223316D01*
X0073773Y0223915D02*
X0073200Y0223915D01*
X0073200Y0224513D02*
X0073567Y0224513D01*
X0073450Y0225112D02*
X0073200Y0225112D01*
X0073200Y0225710D02*
X0077200Y0225710D01*
X0077200Y0225112D02*
X0077800Y0225112D01*
X0077800Y0225710D02*
X0104541Y0225710D01*
X0103942Y0225112D02*
X0081550Y0225112D01*
X0081433Y0224513D02*
X0103600Y0224513D01*
X0103600Y0223915D02*
X0081227Y0223915D01*
X0080912Y0223316D02*
X0103600Y0223316D01*
X0103912Y0222718D02*
X0080445Y0222718D01*
X0079730Y0222119D02*
X0104511Y0222119D01*
X0106000Y0226309D02*
X0081468Y0226309D01*
X0081301Y0226908D02*
X0106000Y0226908D01*
X0106000Y0227506D02*
X0081031Y0227506D01*
X0080623Y0228105D02*
X0106335Y0228105D01*
X0106933Y0228703D02*
X0079996Y0228703D01*
X0078905Y0229302D02*
X0108029Y0229302D01*
X0107800Y0229900D02*
X0073200Y0229900D01*
X0073200Y0229302D02*
X0076095Y0229302D01*
X0077200Y0229302D02*
X0077800Y0229302D01*
X0077800Y0228703D02*
X0077200Y0228703D01*
X0077200Y0228105D02*
X0077800Y0228105D01*
X0077800Y0227506D02*
X0077200Y0227506D01*
X0077200Y0226908D02*
X0077800Y0226908D01*
X0077800Y0226309D02*
X0077200Y0226309D01*
X0077200Y0224513D02*
X0077800Y0224513D01*
X0077800Y0223915D02*
X0077200Y0223915D01*
X0077200Y0223316D02*
X0077800Y0223316D01*
X0077800Y0222718D02*
X0077200Y0222718D01*
X0077200Y0222119D02*
X0077800Y0222119D01*
X0078226Y0219150D02*
X0076774Y0219150D01*
X0075432Y0218594D01*
X0074406Y0217568D01*
X0073850Y0216226D01*
X0073850Y0214774D01*
X0074406Y0213432D01*
X0075432Y0212406D01*
X0076774Y0211850D01*
X0078226Y0211850D01*
X0079568Y0212406D01*
X0080594Y0213432D01*
X0081150Y0214774D01*
X0081150Y0216226D01*
X0080594Y0217568D01*
X0079568Y0218594D01*
X0078226Y0219150D01*
X0078282Y0219127D02*
X0133303Y0219127D01*
X0133000Y0218528D02*
X0079634Y0218528D01*
X0080232Y0217930D02*
X0133000Y0217930D01*
X0133000Y0217331D02*
X0080692Y0217331D01*
X0080940Y0216733D02*
X0133297Y0216733D01*
X0133896Y0216134D02*
X0081150Y0216134D01*
X0081150Y0215536D02*
X0133600Y0215536D01*
X0133600Y0214937D02*
X0081150Y0214937D01*
X0080970Y0214339D02*
X0133600Y0214339D01*
X0133890Y0213740D02*
X0080722Y0213740D01*
X0080304Y0213142D02*
X0134488Y0213142D01*
X0135000Y0212543D02*
X0079705Y0212543D01*
X0078455Y0211945D02*
X0135000Y0211945D01*
X0135000Y0211346D02*
X0073200Y0211346D01*
X0073200Y0210748D02*
X0135282Y0210748D01*
X0135881Y0210149D02*
X0073200Y0210149D01*
X0073200Y0211945D02*
X0076545Y0211945D01*
X0075295Y0212543D02*
X0073200Y0212543D01*
X0073200Y0213142D02*
X0074696Y0213142D01*
X0074278Y0213740D02*
X0073200Y0213740D01*
X0073200Y0214339D02*
X0074030Y0214339D01*
X0073850Y0214937D02*
X0073200Y0214937D01*
X0073200Y0215536D02*
X0073850Y0215536D01*
X0073850Y0216134D02*
X0073200Y0216134D01*
X0073200Y0216733D02*
X0074060Y0216733D01*
X0074308Y0217331D02*
X0073200Y0217331D01*
X0073200Y0217930D02*
X0074768Y0217930D01*
X0075366Y0218528D02*
X0073200Y0218528D01*
X0073200Y0219127D02*
X0076718Y0219127D01*
X0073200Y0219725D02*
X0132705Y0219725D01*
X0132400Y0220324D02*
X0073200Y0220324D01*
X0073200Y0220922D02*
X0132400Y0220922D01*
X0129120Y0225710D02*
X0109880Y0225710D01*
X0110200Y0226309D02*
X0128521Y0226309D01*
X0128200Y0226908D02*
X0110200Y0226908D01*
X0110200Y0227506D02*
X0128200Y0227506D01*
X0128200Y0228105D02*
X0109865Y0228105D01*
X0111173Y0228703D02*
X0128533Y0228703D01*
X0129132Y0229302D02*
X0111771Y0229302D01*
X0112000Y0229900D02*
X0132730Y0229900D01*
X0132132Y0229302D02*
X0131468Y0229302D01*
X0135070Y0229900D02*
X0225802Y0229900D01*
X0225203Y0230499D02*
X0112000Y0230499D01*
X0112000Y0231097D02*
X0224775Y0231097D01*
X0224527Y0231696D02*
X0136865Y0231696D01*
X0136570Y0231400D02*
X0137800Y0232630D01*
X0137800Y0234370D01*
X0137770Y0234400D01*
X0139000Y0235630D01*
X0139000Y0237370D01*
X0137770Y0238600D01*
X0136030Y0238600D01*
X0134800Y0237370D01*
X0134800Y0235630D01*
X0134830Y0235600D01*
X0133600Y0234370D01*
X0133600Y0232630D01*
X0134830Y0231400D01*
X0136570Y0231400D01*
X0137464Y0232294D02*
X0224367Y0232294D01*
X0224367Y0232893D02*
X0137800Y0232893D01*
X0137800Y0233491D02*
X0224378Y0233491D01*
X0224626Y0234090D02*
X0137800Y0234090D01*
X0137770Y0234400D02*
X0137770Y0234400D01*
X0138058Y0234688D02*
X0224874Y0234688D01*
X0225440Y0235287D02*
X0138657Y0235287D01*
X0139000Y0235885D02*
X0226273Y0235885D01*
X0227145Y0229302D02*
X0135668Y0229302D01*
X0134535Y0231696D02*
X0111574Y0231696D01*
X0110976Y0232294D02*
X0133936Y0232294D01*
X0133600Y0232893D02*
X0073200Y0232893D01*
X0073200Y0233491D02*
X0133600Y0233491D01*
X0133600Y0234090D02*
X0073200Y0234090D01*
X0073200Y0234688D02*
X0133918Y0234688D01*
X0134517Y0235287D02*
X0073200Y0235287D01*
X0073200Y0235885D02*
X0134800Y0235885D01*
X0134830Y0235600D02*
X0134830Y0235600D01*
X0134800Y0236484D02*
X0079273Y0236484D01*
X0079568Y0236606D02*
X0080594Y0237632D01*
X0081150Y0238974D01*
X0081150Y0240426D01*
X0080594Y0241768D01*
X0079568Y0242794D01*
X0078226Y0243350D01*
X0076774Y0243350D01*
X0075432Y0242794D01*
X0074406Y0241768D01*
X0073850Y0240426D01*
X0073850Y0238974D01*
X0074406Y0237632D01*
X0075432Y0236606D01*
X0076774Y0236050D01*
X0078226Y0236050D01*
X0079568Y0236606D01*
X0080044Y0237082D02*
X0134800Y0237082D01*
X0135111Y0237681D02*
X0088851Y0237681D01*
X0088570Y0237400D02*
X0089800Y0238630D01*
X0089800Y0240370D01*
X0088570Y0241600D01*
X0086830Y0241600D01*
X0085600Y0240370D01*
X0085600Y0238630D01*
X0086830Y0237400D01*
X0088570Y0237400D01*
X0089449Y0238279D02*
X0135709Y0238279D01*
X0138091Y0238279D02*
X0255800Y0238279D01*
X0255800Y0237681D02*
X0138689Y0237681D01*
X0139000Y0237082D02*
X0255800Y0237082D01*
X0255800Y0236484D02*
X0139000Y0236484D01*
X0153400Y0242230D02*
X0154630Y0241000D01*
X0156370Y0241000D01*
X0157600Y0242230D01*
X0157600Y0243970D01*
X0156370Y0245200D01*
X0154630Y0245200D01*
X0153400Y0243970D01*
X0153400Y0242230D01*
X0153400Y0242469D02*
X0118000Y0242469D01*
X0118000Y0243067D02*
X0153400Y0243067D01*
X0153400Y0243666D02*
X0117704Y0243666D01*
X0118000Y0243370D02*
X0116770Y0244600D01*
X0115030Y0244600D01*
X0113800Y0243370D01*
X0113800Y0241630D01*
X0115030Y0240400D01*
X0116770Y0240400D01*
X0118000Y0241630D01*
X0118000Y0243370D01*
X0117105Y0244264D02*
X0153694Y0244264D01*
X0154293Y0244863D02*
X0073200Y0244863D01*
X0073200Y0245461D02*
X0255800Y0245461D01*
X0255800Y0244863D02*
X0156707Y0244863D01*
X0157305Y0244264D02*
X0255800Y0244264D01*
X0255800Y0243666D02*
X0157600Y0243666D01*
X0157600Y0243067D02*
X0255800Y0243067D01*
X0255800Y0242469D02*
X0157600Y0242469D01*
X0157240Y0241870D02*
X0255800Y0241870D01*
X0255800Y0241272D02*
X0156642Y0241272D01*
X0154358Y0241272D02*
X0117642Y0241272D01*
X0118000Y0241870D02*
X0153760Y0241870D01*
X0153370Y0250600D02*
X0154600Y0251830D01*
X0154600Y0253570D01*
X0153370Y0254800D01*
X0152770Y0254800D01*
X0152800Y0254830D01*
X0152800Y0256570D01*
X0151570Y0257800D01*
X0150970Y0257800D01*
X0151000Y0257830D01*
X0151000Y0259570D01*
X0149770Y0260800D01*
X0149170Y0260800D01*
X0149200Y0260830D01*
X0149200Y0262570D01*
X0147970Y0263800D01*
X0146230Y0263800D01*
X0145000Y0262570D01*
X0145000Y0260830D01*
X0146230Y0259600D01*
X0146830Y0259600D01*
X0146800Y0259570D01*
X0146800Y0257830D01*
X0148030Y0256600D01*
X0148630Y0256600D01*
X0148600Y0256570D01*
X0148600Y0254830D01*
X0149830Y0253600D01*
X0150430Y0253600D01*
X0150400Y0253570D01*
X0150400Y0251830D01*
X0151630Y0250600D01*
X0153370Y0250600D01*
X0153618Y0250848D02*
X0202600Y0250848D01*
X0202600Y0251170D02*
X0202600Y0249430D01*
X0203830Y0248200D01*
X0205570Y0248200D01*
X0206800Y0249430D01*
X0206800Y0251170D01*
X0205570Y0252400D01*
X0203830Y0252400D01*
X0202600Y0251170D01*
X0202877Y0251446D02*
X0154216Y0251446D01*
X0154600Y0252045D02*
X0203475Y0252045D01*
X0202600Y0250249D02*
X0117019Y0250249D01*
X0116770Y0250000D02*
X0118000Y0251230D01*
X0118000Y0252970D01*
X0117070Y0253900D01*
X0117900Y0254730D01*
X0117900Y0256470D01*
X0117270Y0257100D01*
X0118000Y0257830D01*
X0118000Y0259570D01*
X0117070Y0260500D01*
X0117400Y0260830D01*
X0117400Y0262570D01*
X0116170Y0263800D01*
X0114430Y0263800D01*
X0113200Y0262570D01*
X0113200Y0260830D01*
X0114130Y0259900D01*
X0113800Y0259570D01*
X0113800Y0257830D01*
X0114430Y0257200D01*
X0113700Y0256470D01*
X0113700Y0254730D01*
X0114630Y0253800D01*
X0113800Y0252970D01*
X0113800Y0251230D01*
X0115030Y0250000D01*
X0116770Y0250000D01*
X0117618Y0250848D02*
X0151382Y0250848D01*
X0150784Y0251446D02*
X0118000Y0251446D01*
X0118000Y0252045D02*
X0150400Y0252045D01*
X0150400Y0252643D02*
X0118000Y0252643D01*
X0117728Y0253242D02*
X0150400Y0253242D01*
X0149590Y0253841D02*
X0117129Y0253841D01*
X0117609Y0254439D02*
X0148991Y0254439D01*
X0148600Y0255038D02*
X0117900Y0255038D01*
X0117900Y0255636D02*
X0148600Y0255636D01*
X0148600Y0256235D02*
X0117900Y0256235D01*
X0117537Y0256833D02*
X0147797Y0256833D01*
X0147199Y0257432D02*
X0117601Y0257432D01*
X0118000Y0258030D02*
X0146800Y0258030D01*
X0146800Y0258629D02*
X0118000Y0258629D01*
X0118000Y0259227D02*
X0146800Y0259227D01*
X0146005Y0259826D02*
X0117744Y0259826D01*
X0117146Y0260424D02*
X0145406Y0260424D01*
X0145000Y0261023D02*
X0117400Y0261023D01*
X0117400Y0261621D02*
X0145000Y0261621D01*
X0145000Y0262220D02*
X0117400Y0262220D01*
X0117152Y0262818D02*
X0120812Y0262818D01*
X0121030Y0262600D02*
X0122770Y0262600D01*
X0124000Y0263830D01*
X0124000Y0265570D01*
X0122770Y0266800D01*
X0122770Y0266800D01*
X0122800Y0266830D01*
X0122800Y0268570D01*
X0121570Y0269800D01*
X0120970Y0269800D01*
X0121600Y0270430D01*
X0121600Y0272170D01*
X0120370Y0273400D01*
X0120370Y0273400D01*
X0120400Y0273430D01*
X0120400Y0275170D01*
X0119170Y0276400D01*
X0117430Y0276400D01*
X0116200Y0275170D01*
X0116200Y0273430D01*
X0117430Y0272200D01*
X0117430Y0272200D01*
X0117400Y0272170D01*
X0117400Y0270430D01*
X0118630Y0269200D01*
X0119230Y0269200D01*
X0118600Y0268570D01*
X0118600Y0266830D01*
X0119830Y0265600D01*
X0119830Y0265600D01*
X0119800Y0265570D01*
X0119800Y0263830D01*
X0121030Y0262600D01*
X0120213Y0263417D02*
X0116553Y0263417D01*
X0114047Y0263417D02*
X0073200Y0263417D01*
X0073200Y0264015D02*
X0119800Y0264015D01*
X0119800Y0264614D02*
X0073200Y0264614D01*
X0073200Y0265212D02*
X0119800Y0265212D01*
X0119619Y0265811D02*
X0073200Y0265811D01*
X0073200Y0266409D02*
X0075907Y0266409D01*
X0075432Y0266606D02*
X0076774Y0266050D01*
X0078226Y0266050D01*
X0079568Y0266606D01*
X0080594Y0267632D01*
X0081150Y0268974D01*
X0081150Y0270426D01*
X0080594Y0271768D01*
X0079568Y0272794D01*
X0078226Y0273350D01*
X0076774Y0273350D01*
X0075432Y0272794D01*
X0074406Y0271768D01*
X0073850Y0270426D01*
X0073850Y0268974D01*
X0074406Y0267632D01*
X0075432Y0266606D01*
X0075030Y0267008D02*
X0073200Y0267008D01*
X0073200Y0267606D02*
X0074432Y0267606D01*
X0074169Y0268205D02*
X0073200Y0268205D01*
X0073200Y0268803D02*
X0073921Y0268803D01*
X0073850Y0269402D02*
X0073200Y0269402D01*
X0073200Y0270000D02*
X0073850Y0270000D01*
X0073922Y0270599D02*
X0073200Y0270599D01*
X0073200Y0271197D02*
X0074169Y0271197D01*
X0074434Y0271796D02*
X0073200Y0271796D01*
X0073200Y0272394D02*
X0075032Y0272394D01*
X0075912Y0272993D02*
X0073200Y0272993D01*
X0073200Y0273591D02*
X0116200Y0273591D01*
X0116200Y0274190D02*
X0073200Y0274190D01*
X0073200Y0274788D02*
X0116200Y0274788D01*
X0116417Y0275387D02*
X0103757Y0275387D01*
X0103570Y0275200D02*
X0104800Y0276430D01*
X0104800Y0278170D01*
X0103570Y0279400D01*
X0101830Y0279400D01*
X0100600Y0278170D01*
X0100600Y0276430D01*
X0101830Y0275200D01*
X0103570Y0275200D01*
X0104355Y0275985D02*
X0117016Y0275985D01*
X0119584Y0275985D02*
X0145745Y0275985D01*
X0145780Y0275950D02*
X0145000Y0275170D01*
X0145000Y0273430D01*
X0145630Y0272800D01*
X0145000Y0272170D01*
X0145000Y0270430D01*
X0145930Y0269500D01*
X0145000Y0268570D01*
X0145000Y0266830D01*
X0146230Y0265600D01*
X0147970Y0265600D01*
X0149200Y0266830D01*
X0149200Y0268570D01*
X0148270Y0269500D01*
X0149200Y0270430D01*
X0149200Y0272170D01*
X0148570Y0272800D01*
X0149200Y0273430D01*
X0149200Y0275170D01*
X0148420Y0275950D01*
X0149200Y0276730D01*
X0149200Y0278470D01*
X0148520Y0279150D01*
X0149200Y0279830D01*
X0149200Y0281570D01*
X0147970Y0282800D01*
X0146230Y0282800D01*
X0145000Y0281570D01*
X0145000Y0279830D01*
X0145680Y0279150D01*
X0145000Y0278470D01*
X0145000Y0276730D01*
X0145780Y0275950D01*
X0145217Y0275387D02*
X0120183Y0275387D01*
X0120400Y0274788D02*
X0145000Y0274788D01*
X0145000Y0274190D02*
X0120400Y0274190D01*
X0120400Y0273591D02*
X0145000Y0273591D01*
X0145437Y0272993D02*
X0120777Y0272993D01*
X0121375Y0272394D02*
X0145225Y0272394D01*
X0145000Y0271796D02*
X0121600Y0271796D01*
X0121600Y0271197D02*
X0145000Y0271197D01*
X0145000Y0270599D02*
X0121600Y0270599D01*
X0121170Y0270000D02*
X0145430Y0270000D01*
X0145832Y0269402D02*
X0121968Y0269402D01*
X0122567Y0268803D02*
X0145233Y0268803D01*
X0145000Y0268205D02*
X0122800Y0268205D01*
X0122800Y0267606D02*
X0145000Y0267606D01*
X0145000Y0267008D02*
X0122800Y0267008D01*
X0123161Y0266409D02*
X0145421Y0266409D01*
X0146019Y0265811D02*
X0123759Y0265811D01*
X0124000Y0265212D02*
X0221907Y0265212D01*
X0221964Y0265155D02*
X0223545Y0264500D01*
X0225255Y0264500D01*
X0226836Y0265155D01*
X0228045Y0266364D01*
X0228700Y0267945D01*
X0228700Y0269655D01*
X0228045Y0271236D01*
X0226836Y0272445D01*
X0225255Y0273100D01*
X0223545Y0273100D01*
X0221964Y0272445D01*
X0220755Y0271236D01*
X0220100Y0269655D01*
X0220100Y0267945D01*
X0220755Y0266364D01*
X0221964Y0265155D01*
X0221308Y0265811D02*
X0148181Y0265811D01*
X0148779Y0266409D02*
X0220736Y0266409D01*
X0220488Y0267008D02*
X0149200Y0267008D01*
X0149200Y0267606D02*
X0213541Y0267606D01*
X0213947Y0267200D02*
X0215853Y0267200D01*
X0217200Y0268547D01*
X0217200Y0270453D01*
X0215853Y0271800D01*
X0213947Y0271800D01*
X0212600Y0270453D01*
X0212600Y0268547D01*
X0213947Y0267200D01*
X0212943Y0268205D02*
X0149200Y0268205D01*
X0148967Y0268803D02*
X0212600Y0268803D01*
X0212600Y0269402D02*
X0148368Y0269402D01*
X0148770Y0270000D02*
X0212600Y0270000D01*
X0212746Y0270599D02*
X0149200Y0270599D01*
X0149200Y0271197D02*
X0213345Y0271197D01*
X0213943Y0271796D02*
X0149200Y0271796D01*
X0148975Y0272394D02*
X0221913Y0272394D01*
X0221315Y0271796D02*
X0215857Y0271796D01*
X0216455Y0271197D02*
X0220739Y0271197D01*
X0220491Y0270599D02*
X0217054Y0270599D01*
X0217200Y0270000D02*
X0220243Y0270000D01*
X0220100Y0269402D02*
X0217200Y0269402D01*
X0217200Y0268803D02*
X0220100Y0268803D01*
X0220100Y0268205D02*
X0216857Y0268205D01*
X0216259Y0267606D02*
X0220240Y0267606D01*
X0223270Y0264614D02*
X0124000Y0264614D01*
X0124000Y0264015D02*
X0255800Y0264015D01*
X0255800Y0263417D02*
X0148353Y0263417D01*
X0148952Y0262818D02*
X0255800Y0262818D01*
X0255800Y0262220D02*
X0149200Y0262220D01*
X0149200Y0261621D02*
X0255800Y0261621D01*
X0255800Y0261023D02*
X0149200Y0261023D01*
X0150146Y0260424D02*
X0255800Y0260424D01*
X0255800Y0259826D02*
X0150744Y0259826D01*
X0151000Y0259227D02*
X0255800Y0259227D01*
X0255800Y0258629D02*
X0151000Y0258629D01*
X0151000Y0258030D02*
X0255800Y0258030D01*
X0255800Y0257432D02*
X0151938Y0257432D01*
X0152537Y0256833D02*
X0255800Y0256833D01*
X0255800Y0256235D02*
X0152800Y0256235D01*
X0152800Y0255636D02*
X0255800Y0255636D01*
X0255800Y0255038D02*
X0152800Y0255038D01*
X0153731Y0254439D02*
X0255800Y0254439D01*
X0255800Y0253841D02*
X0154329Y0253841D01*
X0154600Y0253242D02*
X0255800Y0253242D01*
X0255800Y0252643D02*
X0154600Y0252643D01*
X0145248Y0262818D02*
X0122988Y0262818D01*
X0123587Y0263417D02*
X0145847Y0263417D01*
X0148763Y0272993D02*
X0223286Y0272993D01*
X0225514Y0272993D02*
X0240286Y0272993D01*
X0240545Y0273100D02*
X0238964Y0272445D01*
X0237755Y0271236D01*
X0237100Y0269655D01*
X0237100Y0267945D01*
X0237755Y0266364D01*
X0238964Y0265155D01*
X0240545Y0264500D01*
X0242255Y0264500D01*
X0243836Y0265155D01*
X0245045Y0266364D01*
X0245700Y0267945D01*
X0245700Y0269655D01*
X0245045Y0271236D01*
X0243836Y0272445D01*
X0242255Y0273100D01*
X0240545Y0273100D01*
X0238913Y0272394D02*
X0226887Y0272394D01*
X0227485Y0271796D02*
X0238315Y0271796D01*
X0237739Y0271197D02*
X0228061Y0271197D01*
X0228309Y0270599D02*
X0237491Y0270599D01*
X0237243Y0270000D02*
X0228557Y0270000D01*
X0228700Y0269402D02*
X0237100Y0269402D01*
X0237100Y0268803D02*
X0228700Y0268803D01*
X0228700Y0268205D02*
X0237100Y0268205D01*
X0237240Y0267606D02*
X0228560Y0267606D01*
X0228312Y0267008D02*
X0237488Y0267008D01*
X0237736Y0266409D02*
X0228064Y0266409D01*
X0227492Y0265811D02*
X0238308Y0265811D01*
X0238907Y0265212D02*
X0226893Y0265212D01*
X0225530Y0264614D02*
X0240270Y0264614D01*
X0242530Y0264614D02*
X0255800Y0264614D01*
X0255800Y0265212D02*
X0243893Y0265212D01*
X0244492Y0265811D02*
X0255800Y0265811D01*
X0255800Y0266409D02*
X0245064Y0266409D01*
X0245312Y0267008D02*
X0255800Y0267008D01*
X0255800Y0267606D02*
X0245560Y0267606D01*
X0245700Y0268205D02*
X0255800Y0268205D01*
X0255800Y0268803D02*
X0245700Y0268803D01*
X0245700Y0269402D02*
X0255800Y0269402D01*
X0255800Y0270000D02*
X0245557Y0270000D01*
X0245309Y0270599D02*
X0255800Y0270599D01*
X0255800Y0271197D02*
X0245061Y0271197D01*
X0244485Y0271796D02*
X0255800Y0271796D01*
X0255800Y0272394D02*
X0243887Y0272394D01*
X0242514Y0272993D02*
X0255800Y0272993D01*
X0255800Y0273591D02*
X0149200Y0273591D01*
X0149200Y0274190D02*
X0164353Y0274190D01*
X0163832Y0274406D02*
X0165174Y0273850D01*
X0166626Y0273850D01*
X0167968Y0274406D01*
X0168994Y0275432D01*
X0169550Y0276774D01*
X0169550Y0278226D01*
X0168994Y0279568D01*
X0167968Y0280594D01*
X0166626Y0281150D01*
X0165174Y0281150D01*
X0163832Y0280594D01*
X0162806Y0279568D01*
X0162250Y0278226D01*
X0162250Y0276774D01*
X0162806Y0275432D01*
X0163832Y0274406D01*
X0163450Y0274788D02*
X0149200Y0274788D01*
X0148983Y0275387D02*
X0162851Y0275387D01*
X0162577Y0275985D02*
X0148455Y0275985D01*
X0149054Y0276584D02*
X0162329Y0276584D01*
X0162250Y0277182D02*
X0149200Y0277182D01*
X0149200Y0277781D02*
X0162250Y0277781D01*
X0162314Y0278379D02*
X0149200Y0278379D01*
X0148692Y0278978D02*
X0162561Y0278978D01*
X0162815Y0279577D02*
X0148946Y0279577D01*
X0149200Y0280175D02*
X0163413Y0280175D01*
X0164265Y0280774D02*
X0149200Y0280774D01*
X0149200Y0281372D02*
X0255800Y0281372D01*
X0255800Y0280774D02*
X0197535Y0280774D01*
X0197968Y0280594D02*
X0196626Y0281150D01*
X0195174Y0281150D01*
X0193832Y0280594D01*
X0192806Y0279568D01*
X0192250Y0278226D01*
X0192250Y0276774D01*
X0192806Y0275432D01*
X0193832Y0274406D01*
X0195174Y0273850D01*
X0196626Y0273850D01*
X0197968Y0274406D01*
X0198994Y0275432D01*
X0199550Y0276774D01*
X0199550Y0278226D01*
X0198994Y0279568D01*
X0197968Y0280594D01*
X0198387Y0280175D02*
X0255800Y0280175D01*
X0255800Y0279577D02*
X0198985Y0279577D01*
X0199239Y0278978D02*
X0255800Y0278978D01*
X0255800Y0278379D02*
X0199486Y0278379D01*
X0199550Y0277781D02*
X0255800Y0277781D01*
X0255800Y0277182D02*
X0199550Y0277182D01*
X0199471Y0276584D02*
X0255800Y0276584D01*
X0255800Y0275985D02*
X0199223Y0275985D01*
X0198949Y0275387D02*
X0255800Y0275387D01*
X0255800Y0274788D02*
X0198350Y0274788D01*
X0197447Y0274190D02*
X0255800Y0274190D01*
X0255800Y0281971D02*
X0148799Y0281971D01*
X0148201Y0282569D02*
X0255800Y0282569D01*
X0255800Y0283168D02*
X0078666Y0283168D01*
X0078226Y0283350D02*
X0076774Y0283350D01*
X0075432Y0282794D01*
X0074406Y0281768D01*
X0073850Y0280426D01*
X0073850Y0278974D01*
X0074406Y0277632D01*
X0075432Y0276606D01*
X0076774Y0276050D01*
X0078226Y0276050D01*
X0079568Y0276606D01*
X0080594Y0277632D01*
X0081150Y0278974D01*
X0081150Y0280426D01*
X0080594Y0281768D01*
X0079568Y0282794D01*
X0078226Y0283350D01*
X0079793Y0282569D02*
X0145999Y0282569D01*
X0145401Y0281971D02*
X0080391Y0281971D01*
X0080758Y0281372D02*
X0145000Y0281372D01*
X0145000Y0280774D02*
X0081006Y0280774D01*
X0081150Y0280175D02*
X0145000Y0280175D01*
X0145254Y0279577D02*
X0081150Y0279577D01*
X0081150Y0278978D02*
X0101408Y0278978D01*
X0100810Y0278379D02*
X0080904Y0278379D01*
X0080656Y0277781D02*
X0100600Y0277781D01*
X0100600Y0277182D02*
X0080144Y0277182D01*
X0079515Y0276584D02*
X0100600Y0276584D01*
X0101045Y0275985D02*
X0073200Y0275985D01*
X0073200Y0275387D02*
X0101643Y0275387D01*
X0104800Y0276584D02*
X0145146Y0276584D01*
X0145000Y0277182D02*
X0104800Y0277182D01*
X0104800Y0277781D02*
X0145000Y0277781D01*
X0145000Y0278379D02*
X0104590Y0278379D01*
X0103992Y0278978D02*
X0145508Y0278978D01*
X0158200Y0286630D02*
X0159430Y0285400D01*
X0161170Y0285400D01*
X0162400Y0286630D01*
X0162400Y0288370D01*
X0161170Y0289600D01*
X0159430Y0289600D01*
X0158200Y0288370D01*
X0158200Y0286630D01*
X0158200Y0286759D02*
X0103600Y0286759D01*
X0103600Y0287170D02*
X0102370Y0288400D01*
X0100630Y0288400D01*
X0099400Y0287170D01*
X0099400Y0285430D01*
X0100630Y0284200D01*
X0102370Y0284200D01*
X0103600Y0285430D01*
X0103600Y0287170D01*
X0103413Y0287357D02*
X0158200Y0287357D01*
X0158200Y0287956D02*
X0102814Y0287956D01*
X0103600Y0286160D02*
X0158670Y0286160D01*
X0159269Y0285562D02*
X0103600Y0285562D01*
X0103133Y0284963D02*
X0255800Y0284963D01*
X0255800Y0284365D02*
X0102534Y0284365D01*
X0100466Y0284365D02*
X0073200Y0284365D01*
X0073200Y0284963D02*
X0099867Y0284963D01*
X0099400Y0285562D02*
X0073200Y0285562D01*
X0073200Y0286160D02*
X0075508Y0286160D01*
X0075582Y0286111D02*
X0076319Y0285806D01*
X0077101Y0285650D01*
X0077200Y0285650D01*
X0077200Y0289400D01*
X0077800Y0289400D01*
X0077800Y0290000D01*
X0081550Y0290000D01*
X0081550Y0290099D01*
X0081394Y0290881D01*
X0081089Y0291618D01*
X0080646Y0292282D01*
X0080082Y0292846D01*
X0079418Y0293289D01*
X0078681Y0293594D01*
X0077899Y0293750D01*
X0077800Y0293750D01*
X0077800Y0290000D01*
X0077200Y0290000D01*
X0077200Y0293750D01*
X0077101Y0293750D01*
X0076319Y0293594D01*
X0075582Y0293289D01*
X0074918Y0292846D01*
X0074354Y0292282D01*
X0073911Y0291618D01*
X0073606Y0290881D01*
X0073450Y0290099D01*
X0073450Y0290000D01*
X0077200Y0290000D01*
X0077200Y0289400D01*
X0073450Y0289400D01*
X0073450Y0289301D01*
X0073606Y0288519D01*
X0073911Y0287782D01*
X0074354Y0287118D01*
X0074918Y0286554D01*
X0075582Y0286111D01*
X0074714Y0286759D02*
X0073200Y0286759D01*
X0073200Y0287357D02*
X0074195Y0287357D01*
X0073839Y0287956D02*
X0073200Y0287956D01*
X0073200Y0288554D02*
X0073599Y0288554D01*
X0073480Y0289153D02*
X0073200Y0289153D01*
X0073200Y0289751D02*
X0077200Y0289751D01*
X0077200Y0289153D02*
X0077800Y0289153D01*
X0077800Y0289400D02*
X0077800Y0285650D01*
X0077899Y0285650D01*
X0078681Y0285806D01*
X0079418Y0286111D01*
X0080082Y0286554D01*
X0080646Y0287118D01*
X0081089Y0287782D01*
X0081394Y0288519D01*
X0081550Y0289301D01*
X0081550Y0289400D01*
X0077800Y0289400D01*
X0077800Y0289751D02*
X0255800Y0289751D01*
X0255800Y0289153D02*
X0161617Y0289153D01*
X0162216Y0288554D02*
X0255800Y0288554D01*
X0255800Y0287956D02*
X0162400Y0287956D01*
X0162400Y0287357D02*
X0255800Y0287357D01*
X0255800Y0286759D02*
X0162400Y0286759D01*
X0161930Y0286160D02*
X0255800Y0286160D01*
X0255800Y0285562D02*
X0161331Y0285562D01*
X0158384Y0288554D02*
X0081401Y0288554D01*
X0081520Y0289153D02*
X0158983Y0289153D01*
X0167535Y0280774D02*
X0174265Y0280774D01*
X0173832Y0280594D02*
X0172806Y0279568D01*
X0172250Y0278226D01*
X0172250Y0276774D01*
X0172806Y0275432D01*
X0173832Y0274406D01*
X0175174Y0273850D01*
X0176626Y0273850D01*
X0177968Y0274406D01*
X0178994Y0275432D01*
X0179550Y0276774D01*
X0179550Y0278226D01*
X0178994Y0279568D01*
X0177968Y0280594D01*
X0176626Y0281150D01*
X0175174Y0281150D01*
X0173832Y0280594D01*
X0173413Y0280175D02*
X0168387Y0280175D01*
X0168985Y0279577D02*
X0172815Y0279577D01*
X0172561Y0278978D02*
X0169239Y0278978D01*
X0169486Y0278379D02*
X0172314Y0278379D01*
X0172250Y0277781D02*
X0169550Y0277781D01*
X0169550Y0277182D02*
X0172250Y0277182D01*
X0172329Y0276584D02*
X0169471Y0276584D01*
X0169223Y0275985D02*
X0172577Y0275985D01*
X0172851Y0275387D02*
X0168949Y0275387D01*
X0168350Y0274788D02*
X0173450Y0274788D01*
X0174353Y0274190D02*
X0167447Y0274190D01*
X0177447Y0274190D02*
X0184353Y0274190D01*
X0183832Y0274406D02*
X0185174Y0273850D01*
X0186626Y0273850D01*
X0187968Y0274406D01*
X0188994Y0275432D01*
X0189550Y0276774D01*
X0189550Y0278226D01*
X0188994Y0279568D01*
X0187968Y0280594D01*
X0186626Y0281150D01*
X0185174Y0281150D01*
X0183832Y0280594D01*
X0182806Y0279568D01*
X0182250Y0278226D01*
X0182250Y0276774D01*
X0182806Y0275432D01*
X0183832Y0274406D01*
X0183450Y0274788D02*
X0178350Y0274788D01*
X0178949Y0275387D02*
X0182851Y0275387D01*
X0182577Y0275985D02*
X0179223Y0275985D01*
X0179471Y0276584D02*
X0182329Y0276584D01*
X0182250Y0277182D02*
X0179550Y0277182D01*
X0179550Y0277781D02*
X0182250Y0277781D01*
X0182314Y0278379D02*
X0179486Y0278379D01*
X0179239Y0278978D02*
X0182561Y0278978D01*
X0182815Y0279577D02*
X0178985Y0279577D01*
X0178387Y0280175D02*
X0183413Y0280175D01*
X0184265Y0280774D02*
X0177535Y0280774D01*
X0187535Y0280774D02*
X0194265Y0280774D01*
X0193413Y0280175D02*
X0188387Y0280175D01*
X0188985Y0279577D02*
X0192815Y0279577D01*
X0192561Y0278978D02*
X0189239Y0278978D01*
X0189486Y0278379D02*
X0192314Y0278379D01*
X0192250Y0277781D02*
X0189550Y0277781D01*
X0189550Y0277182D02*
X0192250Y0277182D01*
X0192329Y0276584D02*
X0189471Y0276584D01*
X0189223Y0275985D02*
X0192577Y0275985D01*
X0192851Y0275387D02*
X0188949Y0275387D01*
X0188350Y0274788D02*
X0193450Y0274788D01*
X0194353Y0274190D02*
X0187447Y0274190D01*
X0205925Y0252045D02*
X0255800Y0252045D01*
X0255800Y0251446D02*
X0206523Y0251446D01*
X0206800Y0250848D02*
X0255800Y0250848D01*
X0255800Y0250249D02*
X0206800Y0250249D01*
X0206800Y0249651D02*
X0255800Y0249651D01*
X0255800Y0249052D02*
X0206422Y0249052D01*
X0205824Y0248454D02*
X0255800Y0248454D01*
X0255800Y0247855D02*
X0080687Y0247855D01*
X0080594Y0247632D02*
X0081150Y0248974D01*
X0081150Y0250426D01*
X0080594Y0251768D01*
X0079568Y0252794D01*
X0078226Y0253350D01*
X0076774Y0253350D01*
X0075432Y0252794D01*
X0074406Y0251768D01*
X0073850Y0250426D01*
X0073850Y0248974D01*
X0074406Y0247632D01*
X0075432Y0246606D01*
X0076774Y0246050D01*
X0078226Y0246050D01*
X0079568Y0246606D01*
X0080594Y0247632D01*
X0080219Y0247257D02*
X0255800Y0247257D01*
X0255800Y0246658D02*
X0079620Y0246658D01*
X0078250Y0246060D02*
X0255800Y0246060D01*
X0255800Y0240673D02*
X0117043Y0240673D01*
X0114757Y0240673D02*
X0089497Y0240673D01*
X0089800Y0240075D02*
X0255800Y0240075D01*
X0255800Y0239476D02*
X0089800Y0239476D01*
X0089800Y0238878D02*
X0255800Y0238878D01*
X0255800Y0283766D02*
X0073200Y0283766D01*
X0073200Y0283168D02*
X0076334Y0283168D01*
X0075207Y0282569D02*
X0073200Y0282569D01*
X0073200Y0281971D02*
X0074609Y0281971D01*
X0074242Y0281372D02*
X0073200Y0281372D01*
X0073200Y0280774D02*
X0073994Y0280774D01*
X0073850Y0280175D02*
X0073200Y0280175D01*
X0073200Y0279577D02*
X0073850Y0279577D01*
X0073850Y0278978D02*
X0073200Y0278978D01*
X0073200Y0278379D02*
X0074096Y0278379D01*
X0074344Y0277781D02*
X0073200Y0277781D01*
X0073200Y0277182D02*
X0074856Y0277182D01*
X0075485Y0276584D02*
X0073200Y0276584D01*
X0079088Y0272993D02*
X0116637Y0272993D01*
X0117236Y0272394D02*
X0079968Y0272394D01*
X0080566Y0271796D02*
X0117400Y0271796D01*
X0117400Y0271197D02*
X0080831Y0271197D01*
X0081078Y0270599D02*
X0117400Y0270599D01*
X0117830Y0270000D02*
X0081150Y0270000D01*
X0081150Y0269402D02*
X0118428Y0269402D01*
X0118833Y0268803D02*
X0081079Y0268803D01*
X0080831Y0268205D02*
X0118600Y0268205D01*
X0118600Y0267606D02*
X0080568Y0267606D01*
X0079970Y0267008D02*
X0118600Y0267008D01*
X0119021Y0266409D02*
X0079093Y0266409D01*
X0078226Y0263350D02*
X0076774Y0263350D01*
X0075432Y0262794D01*
X0074406Y0261768D01*
X0073850Y0260426D01*
X0073850Y0258974D01*
X0074406Y0257632D01*
X0075432Y0256606D01*
X0076774Y0256050D01*
X0078226Y0256050D01*
X0079568Y0256606D01*
X0080594Y0257632D01*
X0081150Y0258974D01*
X0081150Y0260426D01*
X0080594Y0261768D01*
X0079568Y0262794D01*
X0078226Y0263350D01*
X0079510Y0262818D02*
X0113448Y0262818D01*
X0113200Y0262220D02*
X0080142Y0262220D01*
X0080655Y0261621D02*
X0113200Y0261621D01*
X0113200Y0261023D02*
X0080903Y0261023D01*
X0081150Y0260424D02*
X0113606Y0260424D01*
X0114056Y0259826D02*
X0081150Y0259826D01*
X0081150Y0259227D02*
X0113800Y0259227D01*
X0113800Y0258629D02*
X0081007Y0258629D01*
X0080759Y0258030D02*
X0113800Y0258030D01*
X0114199Y0257432D02*
X0080393Y0257432D01*
X0079795Y0256833D02*
X0114063Y0256833D01*
X0113700Y0256235D02*
X0078672Y0256235D01*
X0076328Y0256235D02*
X0073200Y0256235D01*
X0073200Y0256833D02*
X0075205Y0256833D01*
X0074607Y0257432D02*
X0073200Y0257432D01*
X0073200Y0258030D02*
X0074241Y0258030D01*
X0073993Y0258629D02*
X0073200Y0258629D01*
X0073200Y0259227D02*
X0073850Y0259227D01*
X0073850Y0259826D02*
X0073200Y0259826D01*
X0073200Y0260424D02*
X0073850Y0260424D01*
X0074097Y0261023D02*
X0073200Y0261023D01*
X0073200Y0261621D02*
X0074345Y0261621D01*
X0074858Y0262220D02*
X0073200Y0262220D01*
X0073200Y0262818D02*
X0075490Y0262818D01*
X0073200Y0255636D02*
X0113700Y0255636D01*
X0113700Y0255038D02*
X0073200Y0255038D01*
X0073200Y0254439D02*
X0113991Y0254439D01*
X0114590Y0253841D02*
X0073200Y0253841D01*
X0073200Y0253242D02*
X0076513Y0253242D01*
X0075282Y0252643D02*
X0073200Y0252643D01*
X0073200Y0252045D02*
X0074683Y0252045D01*
X0074273Y0251446D02*
X0073200Y0251446D01*
X0073200Y0250848D02*
X0074025Y0250848D01*
X0073850Y0250249D02*
X0073200Y0250249D01*
X0073200Y0249651D02*
X0073850Y0249651D01*
X0073850Y0249052D02*
X0073200Y0249052D01*
X0073200Y0248454D02*
X0074065Y0248454D01*
X0074313Y0247855D02*
X0073200Y0247855D01*
X0073200Y0247257D02*
X0074781Y0247257D01*
X0075380Y0246658D02*
X0073200Y0246658D01*
X0073200Y0246060D02*
X0076750Y0246060D01*
X0076092Y0243067D02*
X0073200Y0243067D01*
X0073200Y0242469D02*
X0075107Y0242469D01*
X0074508Y0241870D02*
X0073200Y0241870D01*
X0073200Y0241272D02*
X0074200Y0241272D01*
X0073952Y0240673D02*
X0073200Y0240673D01*
X0073200Y0240075D02*
X0073850Y0240075D01*
X0073850Y0239476D02*
X0073200Y0239476D01*
X0073200Y0238878D02*
X0073890Y0238878D01*
X0074138Y0238279D02*
X0073200Y0238279D01*
X0073200Y0237681D02*
X0074386Y0237681D01*
X0074956Y0237082D02*
X0073200Y0237082D01*
X0073200Y0236484D02*
X0075727Y0236484D01*
X0080614Y0237681D02*
X0086549Y0237681D01*
X0085951Y0238279D02*
X0080862Y0238279D01*
X0081110Y0238878D02*
X0085600Y0238878D01*
X0085600Y0239476D02*
X0081150Y0239476D01*
X0081150Y0240075D02*
X0085600Y0240075D01*
X0085903Y0240673D02*
X0081048Y0240673D01*
X0080800Y0241272D02*
X0086502Y0241272D01*
X0088898Y0241272D02*
X0114158Y0241272D01*
X0113800Y0241870D02*
X0080492Y0241870D01*
X0079893Y0242469D02*
X0113800Y0242469D01*
X0113800Y0243067D02*
X0078908Y0243067D01*
X0080935Y0248454D02*
X0203576Y0248454D01*
X0202978Y0249052D02*
X0081150Y0249052D01*
X0081150Y0249651D02*
X0202600Y0249651D01*
X0252808Y0293941D02*
X0073738Y0293941D01*
X0073303Y0293342D02*
X0075710Y0293342D01*
X0074816Y0292744D02*
X0073200Y0292744D01*
X0073200Y0292145D02*
X0074263Y0292145D01*
X0073881Y0291547D02*
X0073200Y0291547D01*
X0073200Y0290948D02*
X0073633Y0290948D01*
X0073500Y0290350D02*
X0073200Y0290350D01*
X0077200Y0290350D02*
X0077800Y0290350D01*
X0077800Y0290948D02*
X0077200Y0290948D01*
X0077200Y0291547D02*
X0077800Y0291547D01*
X0077800Y0292145D02*
X0077200Y0292145D01*
X0077200Y0292744D02*
X0077800Y0292744D01*
X0077800Y0293342D02*
X0077200Y0293342D01*
X0079290Y0293342D02*
X0253988Y0293342D01*
X0254684Y0292744D02*
X0080184Y0292744D01*
X0080737Y0292145D02*
X0255118Y0292145D01*
X0255431Y0291547D02*
X0081119Y0291547D01*
X0081367Y0290948D02*
X0255625Y0290948D01*
X0255765Y0290350D02*
X0081500Y0290350D01*
X0081161Y0287956D02*
X0100186Y0287956D01*
X0099587Y0287357D02*
X0080805Y0287357D01*
X0080286Y0286759D02*
X0099400Y0286759D01*
X0099400Y0286160D02*
X0079492Y0286160D01*
X0077800Y0286160D02*
X0077200Y0286160D01*
X0077200Y0286759D02*
X0077800Y0286759D01*
X0077800Y0287357D02*
X0077200Y0287357D01*
X0077200Y0287956D02*
X0077800Y0287956D01*
X0077800Y0288554D02*
X0077200Y0288554D01*
X0078487Y0253242D02*
X0114072Y0253242D01*
X0113800Y0252643D02*
X0079718Y0252643D01*
X0080317Y0252045D02*
X0113800Y0252045D01*
X0113800Y0251446D02*
X0080727Y0251446D01*
X0080975Y0250848D02*
X0114182Y0250848D01*
X0114781Y0250249D02*
X0081150Y0250249D01*
X0073200Y0244264D02*
X0114694Y0244264D01*
X0114096Y0243666D02*
X0073200Y0243666D01*
X0073200Y0232294D02*
X0108824Y0232294D01*
X0108226Y0231696D02*
X0073200Y0231696D01*
X0073200Y0231097D02*
X0107800Y0231097D01*
X0107800Y0230499D02*
X0073200Y0230499D01*
X0073200Y0228703D02*
X0075004Y0228703D01*
X0074377Y0228105D02*
X0073200Y0228105D01*
X0073200Y0227506D02*
X0073969Y0227506D01*
X0073699Y0226908D02*
X0073200Y0226908D01*
X0073200Y0226309D02*
X0073532Y0226309D01*
X0073200Y0198777D02*
X0075875Y0198777D01*
X0075017Y0198179D02*
X0073200Y0198179D01*
X0073200Y0197580D02*
X0074419Y0197580D01*
X0074163Y0196982D02*
X0073200Y0196982D01*
X0073200Y0196383D02*
X0073915Y0196383D01*
X0073850Y0195785D02*
X0073200Y0195785D01*
X0073200Y0195186D02*
X0073850Y0195186D01*
X0073927Y0194588D02*
X0073200Y0194588D01*
X0073200Y0193989D02*
X0074175Y0193989D01*
X0074447Y0193391D02*
X0073200Y0193391D01*
X0073200Y0192792D02*
X0075046Y0192792D01*
X0075944Y0192194D02*
X0073200Y0192194D01*
X0093205Y0175436D02*
X0149066Y0175436D01*
X0149664Y0176034D02*
X0093804Y0176034D01*
X0079124Y0167056D02*
X0132287Y0167056D01*
X0167342Y0098228D02*
X0167758Y0098228D01*
X0167733Y0094637D02*
X0167894Y0094637D01*
X0168000Y0093439D02*
X0176870Y0093439D01*
X0176271Y0092841D02*
X0168000Y0092841D01*
X0167612Y0092242D02*
X0176200Y0092242D01*
X0176200Y0091644D02*
X0167014Y0091644D01*
X0190434Y0054536D02*
X0255800Y0054536D01*
X0255800Y0053938D02*
X0191032Y0053938D01*
X0191200Y0053339D02*
X0255800Y0053339D01*
X0255800Y0052741D02*
X0191200Y0052741D01*
X0191200Y0052142D02*
X0255800Y0052142D01*
X0255800Y0051544D02*
X0190714Y0051544D01*
X0193695Y0046756D02*
X0201305Y0046756D01*
X0201774Y0046950D02*
X0200432Y0046394D01*
X0199406Y0045368D01*
X0198850Y0044026D01*
X0198850Y0042574D01*
X0199406Y0041232D01*
X0200432Y0040206D01*
X0201774Y0039650D01*
X0203226Y0039650D01*
X0204568Y0040206D01*
X0205594Y0041232D01*
X0206150Y0042574D01*
X0206150Y0044026D01*
X0205594Y0045368D01*
X0204568Y0046394D01*
X0203226Y0046950D01*
X0201774Y0046950D01*
X0200195Y0046157D02*
X0194805Y0046157D01*
X0195403Y0045559D02*
X0199597Y0045559D01*
X0199237Y0044960D02*
X0195763Y0044960D01*
X0196011Y0044362D02*
X0198989Y0044362D01*
X0198850Y0043763D02*
X0196150Y0043763D01*
X0196150Y0043165D02*
X0198850Y0043165D01*
X0198853Y0042566D02*
X0196147Y0042566D01*
X0195899Y0041968D02*
X0199101Y0041968D01*
X0199349Y0041369D02*
X0195651Y0041369D01*
X0195132Y0040770D02*
X0199868Y0040770D01*
X0200514Y0040172D02*
X0194486Y0040172D01*
X0204486Y0040172D02*
X0210514Y0040172D01*
X0210432Y0040206D02*
X0211774Y0039650D01*
X0213226Y0039650D01*
X0214568Y0040206D01*
X0215594Y0041232D01*
X0216150Y0042574D01*
X0216150Y0044026D01*
X0215594Y0045368D01*
X0214568Y0046394D01*
X0213226Y0046950D01*
X0211774Y0046950D01*
X0210432Y0046394D01*
X0209406Y0045368D01*
X0208850Y0044026D01*
X0208850Y0042574D01*
X0209406Y0041232D01*
X0210432Y0040206D01*
X0209868Y0040770D02*
X0205132Y0040770D01*
X0205651Y0041369D02*
X0209349Y0041369D01*
X0209101Y0041968D02*
X0205899Y0041968D01*
X0206147Y0042566D02*
X0208853Y0042566D01*
X0208850Y0043165D02*
X0206150Y0043165D01*
X0206150Y0043763D02*
X0208850Y0043763D01*
X0208989Y0044362D02*
X0206011Y0044362D01*
X0205763Y0044960D02*
X0209237Y0044960D01*
X0209597Y0045559D02*
X0205403Y0045559D01*
X0204805Y0046157D02*
X0210195Y0046157D01*
X0211305Y0046756D02*
X0203695Y0046756D01*
X0213695Y0046756D02*
X0221305Y0046756D01*
X0221774Y0046950D02*
X0220432Y0046394D01*
X0219406Y0045368D01*
X0218850Y0044026D01*
X0218850Y0042574D01*
X0219406Y0041232D01*
X0220432Y0040206D01*
X0221774Y0039650D01*
X0223226Y0039650D01*
X0224568Y0040206D01*
X0225594Y0041232D01*
X0226150Y0042574D01*
X0226150Y0044026D01*
X0225594Y0045368D01*
X0224568Y0046394D01*
X0223226Y0046950D01*
X0221774Y0046950D01*
X0220195Y0046157D02*
X0214805Y0046157D01*
X0215403Y0045559D02*
X0219597Y0045559D01*
X0219237Y0044960D02*
X0215763Y0044960D01*
X0216011Y0044362D02*
X0218989Y0044362D01*
X0218850Y0043763D02*
X0216150Y0043763D01*
X0216150Y0043165D02*
X0218850Y0043165D01*
X0218853Y0042566D02*
X0216147Y0042566D01*
X0215899Y0041968D02*
X0219101Y0041968D01*
X0219349Y0041369D02*
X0215651Y0041369D01*
X0215132Y0040770D02*
X0219868Y0040770D01*
X0220514Y0040172D02*
X0214486Y0040172D01*
X0223695Y0046756D02*
X0231305Y0046756D01*
X0231774Y0046950D02*
X0230432Y0046394D01*
X0229406Y0045368D01*
X0228850Y0044026D01*
X0228850Y0042574D01*
X0229406Y0041232D01*
X0230432Y0040206D01*
X0231774Y0039650D01*
X0233226Y0039650D01*
X0234568Y0040206D01*
X0235594Y0041232D01*
X0236150Y0042574D01*
X0236150Y0044026D01*
X0235594Y0045368D01*
X0234568Y0046394D01*
X0233226Y0046950D01*
X0231774Y0046950D01*
X0230195Y0046157D02*
X0224805Y0046157D01*
X0225403Y0045559D02*
X0229597Y0045559D01*
X0229237Y0044960D02*
X0225763Y0044960D01*
X0226011Y0044362D02*
X0228989Y0044362D01*
X0228850Y0043763D02*
X0226150Y0043763D01*
X0226150Y0043165D02*
X0228850Y0043165D01*
X0228853Y0042566D02*
X0226147Y0042566D01*
X0225899Y0041968D02*
X0229101Y0041968D01*
X0229349Y0041369D02*
X0225651Y0041369D01*
X0225132Y0040770D02*
X0229868Y0040770D01*
X0230514Y0040172D02*
X0224486Y0040172D01*
X0234486Y0040172D02*
X0240514Y0040172D01*
X0239868Y0040770D02*
X0235132Y0040770D01*
X0235651Y0041369D02*
X0239349Y0041369D01*
X0239101Y0041968D02*
X0235899Y0041968D01*
X0236147Y0042566D02*
X0238853Y0042566D01*
X0238850Y0043165D02*
X0236150Y0043165D01*
X0236150Y0043763D02*
X0238850Y0043763D01*
X0238989Y0044362D02*
X0236011Y0044362D01*
X0235763Y0044960D02*
X0239237Y0044960D01*
X0239597Y0045559D02*
X0235403Y0045559D01*
X0234805Y0046157D02*
X0240195Y0046157D01*
X0241305Y0046756D02*
X0233695Y0046756D01*
M02*
