G75*
%MOIN*%
%OFA0B0*%
%FSLAX25Y25*%
%IPPOS*%
%LPD*%
%AMOC8*
5,1,8,0,0,1.08239X$1,22.5*
%
%ADD10C,0.00825*%
%ADD11R,0.07674X0.07674*%
%ADD12C,0.00700*%
%ADD13R,0.05115X0.01178*%
%ADD14C,0.01965*%
%ADD15R,0.03737X0.06690*%
%ADD16R,0.05706X0.02162*%
%ADD17R,0.08800X0.04800*%
%ADD18R,0.08300X0.13800*%
%ADD19R,0.01800X0.09800*%
%ADD20R,0.07674X0.10800*%
%ADD21C,0.01650*%
D10*
X0100338Y0092862D02*
X0100338Y0095338D01*
X0100338Y0092862D02*
X0097862Y0092862D01*
X0097862Y0095338D01*
X0100338Y0095338D01*
X0100338Y0093686D02*
X0097862Y0093686D01*
X0097862Y0094510D02*
X0100338Y0094510D01*
X0100338Y0095334D02*
X0097862Y0095334D01*
X0100338Y0098862D02*
X0100338Y0101338D01*
X0100338Y0098862D02*
X0097862Y0098862D01*
X0097862Y0101338D01*
X0100338Y0101338D01*
X0100338Y0099686D02*
X0097862Y0099686D01*
X0097862Y0100510D02*
X0100338Y0100510D01*
X0100338Y0101334D02*
X0097862Y0101334D01*
X0103462Y0083462D02*
X0105938Y0083462D01*
X0103462Y0083462D02*
X0103462Y0085938D01*
X0105938Y0085938D01*
X0105938Y0083462D01*
X0105938Y0084286D02*
X0103462Y0084286D01*
X0103462Y0085110D02*
X0105938Y0085110D01*
X0105938Y0085934D02*
X0103462Y0085934D01*
X0103462Y0077462D02*
X0105938Y0077462D01*
X0103462Y0077462D02*
X0103462Y0079938D01*
X0105938Y0079938D01*
X0105938Y0077462D01*
X0105938Y0078286D02*
X0103462Y0078286D01*
X0103462Y0079110D02*
X0105938Y0079110D01*
X0105938Y0079934D02*
X0103462Y0079934D01*
X0109462Y0077462D02*
X0111938Y0077462D01*
X0109462Y0077462D02*
X0109462Y0079938D01*
X0111938Y0079938D01*
X0111938Y0077462D01*
X0111938Y0078286D02*
X0109462Y0078286D01*
X0109462Y0079110D02*
X0111938Y0079110D01*
X0111938Y0079934D02*
X0109462Y0079934D01*
X0109462Y0083462D02*
X0111938Y0083462D01*
X0109462Y0083462D02*
X0109462Y0085938D01*
X0111938Y0085938D01*
X0111938Y0083462D01*
X0111938Y0084286D02*
X0109462Y0084286D01*
X0109462Y0085110D02*
X0111938Y0085110D01*
X0111938Y0085934D02*
X0109462Y0085934D01*
X0121338Y0069338D02*
X0121338Y0066862D01*
X0118862Y0066862D01*
X0118862Y0069338D01*
X0121338Y0069338D01*
X0121338Y0067686D02*
X0118862Y0067686D01*
X0118862Y0068510D02*
X0121338Y0068510D01*
X0121338Y0069334D02*
X0118862Y0069334D01*
X0121338Y0063338D02*
X0121338Y0060862D01*
X0118862Y0060862D01*
X0118862Y0063338D01*
X0121338Y0063338D01*
X0121338Y0061686D02*
X0118862Y0061686D01*
X0118862Y0062510D02*
X0121338Y0062510D01*
X0121338Y0063334D02*
X0118862Y0063334D01*
X0127538Y0063338D02*
X0127538Y0060862D01*
X0125062Y0060862D01*
X0125062Y0063338D01*
X0127538Y0063338D01*
X0127538Y0061686D02*
X0125062Y0061686D01*
X0125062Y0062510D02*
X0127538Y0062510D01*
X0127538Y0063334D02*
X0125062Y0063334D01*
X0127538Y0066862D02*
X0127538Y0069338D01*
X0127538Y0066862D02*
X0125062Y0066862D01*
X0125062Y0069338D01*
X0127538Y0069338D01*
X0127538Y0067686D02*
X0125062Y0067686D01*
X0125062Y0068510D02*
X0127538Y0068510D01*
X0127538Y0069334D02*
X0125062Y0069334D01*
X0181738Y0077662D02*
X0181738Y0080138D01*
X0181738Y0077662D02*
X0179262Y0077662D01*
X0179262Y0080138D01*
X0181738Y0080138D01*
X0181738Y0078486D02*
X0179262Y0078486D01*
X0179262Y0079310D02*
X0181738Y0079310D01*
X0181738Y0080134D02*
X0179262Y0080134D01*
X0181738Y0083662D02*
X0181738Y0086138D01*
X0181738Y0083662D02*
X0179262Y0083662D01*
X0179262Y0086138D01*
X0181738Y0086138D01*
X0181738Y0084486D02*
X0179262Y0084486D01*
X0179262Y0085310D02*
X0181738Y0085310D01*
X0181738Y0086134D02*
X0179262Y0086134D01*
X0188755Y0099645D02*
X0191231Y0099645D01*
X0191231Y0097169D01*
X0188755Y0097169D01*
X0188755Y0099645D01*
X0188755Y0097993D02*
X0191231Y0097993D01*
X0191231Y0098817D02*
X0188755Y0098817D01*
X0188755Y0099641D02*
X0191231Y0099641D01*
X0194755Y0099645D02*
X0197231Y0099645D01*
X0197231Y0097169D01*
X0194755Y0097169D01*
X0194755Y0099645D01*
X0194755Y0097993D02*
X0197231Y0097993D01*
X0197231Y0098817D02*
X0194755Y0098817D01*
X0194755Y0099641D02*
X0197231Y0099641D01*
X0208848Y0090262D02*
X0211324Y0090262D01*
X0208848Y0090262D02*
X0208848Y0092738D01*
X0211324Y0092738D01*
X0211324Y0090262D01*
X0211324Y0091086D02*
X0208848Y0091086D01*
X0208848Y0091910D02*
X0211324Y0091910D01*
X0211324Y0092734D02*
X0208848Y0092734D01*
X0214848Y0090262D02*
X0217324Y0090262D01*
X0214848Y0090262D02*
X0214848Y0092738D01*
X0217324Y0092738D01*
X0217324Y0090262D01*
X0217324Y0091086D02*
X0214848Y0091086D01*
X0214848Y0091910D02*
X0217324Y0091910D01*
X0217324Y0092734D02*
X0214848Y0092734D01*
X0214138Y0107738D02*
X0211662Y0107738D01*
X0214138Y0107738D02*
X0214138Y0105262D01*
X0211662Y0105262D01*
X0211662Y0107738D01*
X0211662Y0106086D02*
X0214138Y0106086D01*
X0214138Y0106910D02*
X0211662Y0106910D01*
X0211662Y0107734D02*
X0214138Y0107734D01*
X0214138Y0113738D02*
X0211662Y0113738D01*
X0214138Y0113738D02*
X0214138Y0111262D01*
X0211662Y0111262D01*
X0211662Y0113738D01*
X0211662Y0112086D02*
X0214138Y0112086D01*
X0214138Y0112910D02*
X0211662Y0112910D01*
X0211662Y0113734D02*
X0214138Y0113734D01*
X0213831Y0119631D02*
X0211355Y0119631D01*
X0213831Y0119631D02*
X0213831Y0117155D01*
X0211355Y0117155D01*
X0211355Y0119631D01*
X0211355Y0117979D02*
X0213831Y0117979D01*
X0213831Y0118803D02*
X0211355Y0118803D01*
X0211355Y0119627D02*
X0213831Y0119627D01*
X0214138Y0125538D02*
X0211662Y0125538D01*
X0214138Y0125538D02*
X0214138Y0123062D01*
X0211662Y0123062D01*
X0211662Y0125538D01*
X0211662Y0123886D02*
X0214138Y0123886D01*
X0214138Y0124710D02*
X0211662Y0124710D01*
X0211662Y0125534D02*
X0214138Y0125534D01*
X0213938Y0131538D02*
X0211462Y0131538D01*
X0213938Y0131538D02*
X0213938Y0129062D01*
X0211462Y0129062D01*
X0211462Y0131538D01*
X0211462Y0129886D02*
X0213938Y0129886D01*
X0213938Y0130710D02*
X0211462Y0130710D01*
X0211462Y0131534D02*
X0213938Y0131534D01*
X0217462Y0131538D02*
X0219938Y0131538D01*
X0219938Y0129062D01*
X0217462Y0129062D01*
X0217462Y0131538D01*
X0217462Y0129886D02*
X0219938Y0129886D01*
X0219938Y0130710D02*
X0217462Y0130710D01*
X0217462Y0131534D02*
X0219938Y0131534D01*
X0220138Y0125538D02*
X0217662Y0125538D01*
X0220138Y0125538D02*
X0220138Y0123062D01*
X0217662Y0123062D01*
X0217662Y0125538D01*
X0217662Y0123886D02*
X0220138Y0123886D01*
X0220138Y0124710D02*
X0217662Y0124710D01*
X0217662Y0125534D02*
X0220138Y0125534D01*
X0219831Y0119631D02*
X0217355Y0119631D01*
X0219831Y0119631D02*
X0219831Y0117155D01*
X0217355Y0117155D01*
X0217355Y0119631D01*
X0217355Y0117979D02*
X0219831Y0117979D01*
X0219831Y0118803D02*
X0217355Y0118803D01*
X0217355Y0119627D02*
X0219831Y0119627D01*
X0220138Y0113738D02*
X0217662Y0113738D01*
X0220138Y0113738D02*
X0220138Y0111262D01*
X0217662Y0111262D01*
X0217662Y0113738D01*
X0217662Y0112086D02*
X0220138Y0112086D01*
X0220138Y0112910D02*
X0217662Y0112910D01*
X0217662Y0113734D02*
X0220138Y0113734D01*
X0220138Y0107738D02*
X0217662Y0107738D01*
X0220138Y0107738D02*
X0220138Y0105262D01*
X0217662Y0105262D01*
X0217662Y0107738D01*
X0217662Y0106086D02*
X0220138Y0106086D01*
X0220138Y0106910D02*
X0217662Y0106910D01*
X0217662Y0107734D02*
X0220138Y0107734D01*
X0239062Y0102138D02*
X0241538Y0102138D01*
X0241538Y0099662D01*
X0239062Y0099662D01*
X0239062Y0102138D01*
X0239062Y0100486D02*
X0241538Y0100486D01*
X0241538Y0101310D02*
X0239062Y0101310D01*
X0239062Y0102134D02*
X0241538Y0102134D01*
X0245062Y0102138D02*
X0247538Y0102138D01*
X0247538Y0099662D01*
X0245062Y0099662D01*
X0245062Y0102138D01*
X0245062Y0100486D02*
X0247538Y0100486D01*
X0247538Y0101310D02*
X0245062Y0101310D01*
X0245062Y0102134D02*
X0247538Y0102134D01*
X0247538Y0096438D02*
X0245062Y0096438D01*
X0247538Y0096438D02*
X0247538Y0093962D01*
X0245062Y0093962D01*
X0245062Y0096438D01*
X0245062Y0094786D02*
X0247538Y0094786D01*
X0247538Y0095610D02*
X0245062Y0095610D01*
X0245062Y0096434D02*
X0247538Y0096434D01*
X0247538Y0090438D02*
X0245062Y0090438D01*
X0247538Y0090438D02*
X0247538Y0087962D01*
X0245062Y0087962D01*
X0245062Y0090438D01*
X0245062Y0088786D02*
X0247538Y0088786D01*
X0247538Y0089610D02*
X0245062Y0089610D01*
X0245062Y0090434D02*
X0247538Y0090434D01*
X0241538Y0090438D02*
X0239062Y0090438D01*
X0241538Y0090438D02*
X0241538Y0087962D01*
X0239062Y0087962D01*
X0239062Y0090438D01*
X0239062Y0088786D02*
X0241538Y0088786D01*
X0241538Y0089610D02*
X0239062Y0089610D01*
X0239062Y0090434D02*
X0241538Y0090434D01*
X0241538Y0096438D02*
X0239062Y0096438D01*
X0241538Y0096438D02*
X0241538Y0093962D01*
X0239062Y0093962D01*
X0239062Y0096438D01*
X0239062Y0094786D02*
X0241538Y0094786D01*
X0241538Y0095610D02*
X0239062Y0095610D01*
X0239062Y0096434D02*
X0241538Y0096434D01*
X0232738Y0071938D02*
X0230262Y0071938D01*
X0232738Y0071938D02*
X0232738Y0069462D01*
X0230262Y0069462D01*
X0230262Y0071938D01*
X0230262Y0070286D02*
X0232738Y0070286D01*
X0232738Y0071110D02*
X0230262Y0071110D01*
X0230262Y0071934D02*
X0232738Y0071934D01*
X0226738Y0071938D02*
X0224262Y0071938D01*
X0226738Y0071938D02*
X0226738Y0069462D01*
X0224262Y0069462D01*
X0224262Y0071938D01*
X0224262Y0070286D02*
X0226738Y0070286D01*
X0226738Y0071110D02*
X0224262Y0071110D01*
X0224262Y0071934D02*
X0226738Y0071934D01*
X0226138Y0064938D02*
X0223662Y0064938D01*
X0226138Y0064938D02*
X0226138Y0062462D01*
X0223662Y0062462D01*
X0223662Y0064938D01*
X0223662Y0063286D02*
X0226138Y0063286D01*
X0226138Y0064110D02*
X0223662Y0064110D01*
X0223662Y0064934D02*
X0226138Y0064934D01*
X0229662Y0064938D02*
X0232138Y0064938D01*
X0232138Y0062462D01*
X0229662Y0062462D01*
X0229662Y0064938D01*
X0229662Y0063286D02*
X0232138Y0063286D01*
X0232138Y0064110D02*
X0229662Y0064110D01*
X0229662Y0064934D02*
X0232138Y0064934D01*
X0234262Y0055938D02*
X0236738Y0055938D01*
X0236738Y0053462D01*
X0234262Y0053462D01*
X0234262Y0055938D01*
X0234262Y0054286D02*
X0236738Y0054286D01*
X0236738Y0055110D02*
X0234262Y0055110D01*
X0234262Y0055934D02*
X0236738Y0055934D01*
X0240262Y0055938D02*
X0242738Y0055938D01*
X0242738Y0053462D01*
X0240262Y0053462D01*
X0240262Y0055938D01*
X0240262Y0054286D02*
X0242738Y0054286D01*
X0242738Y0055110D02*
X0240262Y0055110D01*
X0240262Y0055934D02*
X0242738Y0055934D01*
X0203538Y0075062D02*
X0201062Y0075062D01*
X0201062Y0077538D01*
X0203538Y0077538D01*
X0203538Y0075062D01*
X0203538Y0075886D02*
X0201062Y0075886D01*
X0201062Y0076710D02*
X0203538Y0076710D01*
X0203538Y0077534D02*
X0201062Y0077534D01*
X0197538Y0075062D02*
X0195062Y0075062D01*
X0195062Y0077538D01*
X0197538Y0077538D01*
X0197538Y0075062D01*
X0197538Y0075886D02*
X0195062Y0075886D01*
X0195062Y0076710D02*
X0197538Y0076710D01*
X0197538Y0077534D02*
X0195062Y0077534D01*
X0190538Y0063062D02*
X0188062Y0063062D01*
X0188062Y0065538D01*
X0190538Y0065538D01*
X0190538Y0063062D01*
X0190538Y0063886D02*
X0188062Y0063886D01*
X0188062Y0064710D02*
X0190538Y0064710D01*
X0190538Y0065534D02*
X0188062Y0065534D01*
X0184538Y0063062D02*
X0182062Y0063062D01*
X0182062Y0065538D01*
X0184538Y0065538D01*
X0184538Y0063062D01*
X0184538Y0063886D02*
X0182062Y0063886D01*
X0182062Y0064710D02*
X0184538Y0064710D01*
X0184538Y0065534D02*
X0182062Y0065534D01*
X0182062Y0055662D02*
X0184538Y0055662D01*
X0182062Y0055662D02*
X0182062Y0058138D01*
X0184538Y0058138D01*
X0184538Y0055662D01*
X0184538Y0056486D02*
X0182062Y0056486D01*
X0182062Y0057310D02*
X0184538Y0057310D01*
X0184538Y0058134D02*
X0182062Y0058134D01*
X0188062Y0055662D02*
X0190538Y0055662D01*
X0188062Y0055662D02*
X0188062Y0058138D01*
X0190538Y0058138D01*
X0190538Y0055662D01*
X0190538Y0056486D02*
X0188062Y0056486D01*
X0188062Y0057310D02*
X0190538Y0057310D01*
X0190538Y0058134D02*
X0188062Y0058134D01*
X0205262Y0154138D02*
X0207738Y0154138D01*
X0207738Y0151662D01*
X0205262Y0151662D01*
X0205262Y0154138D01*
X0205262Y0152486D02*
X0207738Y0152486D01*
X0207738Y0153310D02*
X0205262Y0153310D01*
X0205262Y0154134D02*
X0207738Y0154134D01*
X0211262Y0154138D02*
X0213738Y0154138D01*
X0213738Y0151662D01*
X0211262Y0151662D01*
X0211262Y0154138D01*
X0211262Y0152486D02*
X0213738Y0152486D01*
X0213738Y0153310D02*
X0211262Y0153310D01*
X0211262Y0154134D02*
X0213738Y0154134D01*
X0200462Y0163462D02*
X0200462Y0165938D01*
X0202938Y0165938D01*
X0202938Y0163462D01*
X0200462Y0163462D01*
X0200462Y0164286D02*
X0202938Y0164286D01*
X0202938Y0165110D02*
X0200462Y0165110D01*
X0200462Y0165934D02*
X0202938Y0165934D01*
X0200462Y0169462D02*
X0200462Y0171938D01*
X0202938Y0171938D01*
X0202938Y0169462D01*
X0200462Y0169462D01*
X0200462Y0170286D02*
X0202938Y0170286D01*
X0202938Y0171110D02*
X0200462Y0171110D01*
X0200462Y0171934D02*
X0202938Y0171934D01*
X0196938Y0180338D02*
X0194462Y0180338D01*
X0196938Y0180338D02*
X0196938Y0177862D01*
X0194462Y0177862D01*
X0194462Y0180338D01*
X0194462Y0178686D02*
X0196938Y0178686D01*
X0196938Y0179510D02*
X0194462Y0179510D01*
X0194462Y0180334D02*
X0196938Y0180334D01*
X0190938Y0180338D02*
X0188462Y0180338D01*
X0190938Y0180338D02*
X0190938Y0177862D01*
X0188462Y0177862D01*
X0188462Y0180338D01*
X0188462Y0178686D02*
X0190938Y0178686D01*
X0190938Y0179510D02*
X0188462Y0179510D01*
X0188462Y0180334D02*
X0190938Y0180334D01*
X0171462Y0185462D02*
X0171462Y0187938D01*
X0173938Y0187938D01*
X0173938Y0185462D01*
X0171462Y0185462D01*
X0171462Y0186286D02*
X0173938Y0186286D01*
X0173938Y0187110D02*
X0171462Y0187110D01*
X0171462Y0187934D02*
X0173938Y0187934D01*
X0171462Y0191462D02*
X0171462Y0193938D01*
X0173938Y0193938D01*
X0173938Y0191462D01*
X0171462Y0191462D01*
X0171462Y0192286D02*
X0173938Y0192286D01*
X0173938Y0193110D02*
X0171462Y0193110D01*
X0171462Y0193934D02*
X0173938Y0193934D01*
X0158262Y0194938D02*
X0158262Y0192462D01*
X0158262Y0194938D02*
X0160738Y0194938D01*
X0160738Y0192462D01*
X0158262Y0192462D01*
X0158262Y0193286D02*
X0160738Y0193286D01*
X0160738Y0194110D02*
X0158262Y0194110D01*
X0158262Y0194934D02*
X0160738Y0194934D01*
X0158262Y0198462D02*
X0158262Y0200938D01*
X0160738Y0200938D01*
X0160738Y0198462D01*
X0158262Y0198462D01*
X0158262Y0199286D02*
X0160738Y0199286D01*
X0160738Y0200110D02*
X0158262Y0200110D01*
X0158262Y0200934D02*
X0160738Y0200934D01*
X0152462Y0200938D02*
X0152462Y0198462D01*
X0152462Y0200938D02*
X0154938Y0200938D01*
X0154938Y0198462D01*
X0152462Y0198462D01*
X0152462Y0199286D02*
X0154938Y0199286D01*
X0154938Y0200110D02*
X0152462Y0200110D01*
X0152462Y0200934D02*
X0154938Y0200934D01*
X0152462Y0194938D02*
X0152462Y0192462D01*
X0152462Y0194938D02*
X0154938Y0194938D01*
X0154938Y0192462D01*
X0152462Y0192462D01*
X0152462Y0193286D02*
X0154938Y0193286D01*
X0154938Y0194110D02*
X0152462Y0194110D01*
X0152462Y0194934D02*
X0154938Y0194934D01*
X0156262Y0231938D02*
X0158738Y0231938D01*
X0158738Y0229462D01*
X0156262Y0229462D01*
X0156262Y0231938D01*
X0156262Y0230286D02*
X0158738Y0230286D01*
X0158738Y0231110D02*
X0156262Y0231110D01*
X0156262Y0231934D02*
X0158738Y0231934D01*
X0152738Y0231938D02*
X0150262Y0231938D01*
X0152738Y0231938D02*
X0152738Y0229462D01*
X0150262Y0229462D01*
X0150262Y0231938D01*
X0150262Y0230286D02*
X0152738Y0230286D01*
X0152738Y0231110D02*
X0150262Y0231110D01*
X0150262Y0231934D02*
X0152738Y0231934D01*
X0152738Y0236062D02*
X0152738Y0238538D01*
X0152738Y0236062D02*
X0150262Y0236062D01*
X0150262Y0238538D01*
X0152738Y0238538D01*
X0152738Y0236886D02*
X0150262Y0236886D01*
X0150262Y0237710D02*
X0152738Y0237710D01*
X0152738Y0238534D02*
X0150262Y0238534D01*
X0152738Y0242062D02*
X0152738Y0244538D01*
X0152738Y0242062D02*
X0150262Y0242062D01*
X0150262Y0244538D01*
X0152738Y0244538D01*
X0152738Y0242886D02*
X0150262Y0242886D01*
X0150262Y0243710D02*
X0152738Y0243710D01*
X0152738Y0244534D02*
X0150262Y0244534D01*
X0197662Y0239538D02*
X0200138Y0239538D01*
X0200138Y0237062D01*
X0197662Y0237062D01*
X0197662Y0239538D01*
X0197662Y0237886D02*
X0200138Y0237886D01*
X0200138Y0238710D02*
X0197662Y0238710D01*
X0197662Y0239534D02*
X0200138Y0239534D01*
X0203662Y0239538D02*
X0206138Y0239538D01*
X0206138Y0237062D01*
X0203662Y0237062D01*
X0203662Y0239538D01*
X0203662Y0237886D02*
X0206138Y0237886D01*
X0206138Y0238710D02*
X0203662Y0238710D01*
X0203662Y0239534D02*
X0206138Y0239534D01*
X0205938Y0229862D02*
X0203462Y0229862D01*
X0203462Y0232338D01*
X0205938Y0232338D01*
X0205938Y0229862D01*
X0205938Y0230686D02*
X0203462Y0230686D01*
X0203462Y0231510D02*
X0205938Y0231510D01*
X0205938Y0232334D02*
X0203462Y0232334D01*
X0199938Y0229862D02*
X0197462Y0229862D01*
X0197462Y0232338D01*
X0199938Y0232338D01*
X0199938Y0229862D01*
X0199938Y0230686D02*
X0197462Y0230686D01*
X0197462Y0231510D02*
X0199938Y0231510D01*
X0199938Y0232334D02*
X0197462Y0232334D01*
X0197662Y0222662D02*
X0200138Y0222662D01*
X0197662Y0222662D02*
X0197662Y0225138D01*
X0200138Y0225138D01*
X0200138Y0222662D01*
X0200138Y0223486D02*
X0197662Y0223486D01*
X0197662Y0224310D02*
X0200138Y0224310D01*
X0200138Y0225134D02*
X0197662Y0225134D01*
X0203662Y0222662D02*
X0206138Y0222662D01*
X0203662Y0222662D02*
X0203662Y0225138D01*
X0206138Y0225138D01*
X0206138Y0222662D01*
X0206138Y0223486D02*
X0203662Y0223486D01*
X0203662Y0224310D02*
X0206138Y0224310D01*
X0206138Y0225134D02*
X0203662Y0225134D01*
X0215938Y0186938D02*
X0215938Y0184462D01*
X0213462Y0184462D01*
X0213462Y0186938D01*
X0215938Y0186938D01*
X0215938Y0185286D02*
X0213462Y0185286D01*
X0213462Y0186110D02*
X0215938Y0186110D01*
X0215938Y0186934D02*
X0213462Y0186934D01*
X0215938Y0180938D02*
X0215938Y0178462D01*
X0213462Y0178462D01*
X0213462Y0180938D01*
X0215938Y0180938D01*
X0215938Y0179286D02*
X0213462Y0179286D01*
X0213462Y0180110D02*
X0215938Y0180110D01*
X0215938Y0180934D02*
X0213462Y0180934D01*
X0223738Y0180938D02*
X0223738Y0178462D01*
X0221262Y0178462D01*
X0221262Y0180938D01*
X0223738Y0180938D01*
X0223738Y0179286D02*
X0221262Y0179286D01*
X0221262Y0180110D02*
X0223738Y0180110D01*
X0223738Y0180934D02*
X0221262Y0180934D01*
X0223738Y0184462D02*
X0223738Y0186938D01*
X0223738Y0184462D02*
X0221262Y0184462D01*
X0221262Y0186938D01*
X0223738Y0186938D01*
X0223738Y0185286D02*
X0221262Y0185286D01*
X0221262Y0186110D02*
X0223738Y0186110D01*
X0223738Y0186934D02*
X0221262Y0186934D01*
X0230662Y0169862D02*
X0233138Y0169862D01*
X0230662Y0169862D02*
X0230662Y0172338D01*
X0233138Y0172338D01*
X0233138Y0169862D01*
X0233138Y0170686D02*
X0230662Y0170686D01*
X0230662Y0171510D02*
X0233138Y0171510D01*
X0233138Y0172334D02*
X0230662Y0172334D01*
X0236662Y0169862D02*
X0239138Y0169862D01*
X0236662Y0169862D02*
X0236662Y0172338D01*
X0239138Y0172338D01*
X0239138Y0169862D01*
X0239138Y0170686D02*
X0236662Y0170686D01*
X0236662Y0171510D02*
X0239138Y0171510D01*
X0239138Y0172334D02*
X0236662Y0172334D01*
X0104462Y0181462D02*
X0104462Y0183938D01*
X0106938Y0183938D01*
X0106938Y0181462D01*
X0104462Y0181462D01*
X0104462Y0182286D02*
X0106938Y0182286D01*
X0106938Y0183110D02*
X0104462Y0183110D01*
X0104462Y0183934D02*
X0106938Y0183934D01*
X0104462Y0187462D02*
X0104462Y0189938D01*
X0106938Y0189938D01*
X0106938Y0187462D01*
X0104462Y0187462D01*
X0104462Y0188286D02*
X0106938Y0188286D01*
X0106938Y0189110D02*
X0104462Y0189110D01*
X0104462Y0189934D02*
X0106938Y0189934D01*
X0097262Y0178338D02*
X0097262Y0175862D01*
X0097262Y0178338D02*
X0099738Y0178338D01*
X0099738Y0175862D01*
X0097262Y0175862D01*
X0097262Y0176686D02*
X0099738Y0176686D01*
X0099738Y0177510D02*
X0097262Y0177510D01*
X0097262Y0178334D02*
X0099738Y0178334D01*
X0097262Y0172338D02*
X0097262Y0169862D01*
X0097262Y0172338D02*
X0099738Y0172338D01*
X0099738Y0169862D01*
X0097262Y0169862D01*
X0097262Y0170686D02*
X0099738Y0170686D01*
X0099738Y0171510D02*
X0097262Y0171510D01*
X0097262Y0172334D02*
X0099738Y0172334D01*
X0088462Y0153138D02*
X0088462Y0150662D01*
X0088462Y0153138D02*
X0090938Y0153138D01*
X0090938Y0150662D01*
X0088462Y0150662D01*
X0088462Y0151486D02*
X0090938Y0151486D01*
X0090938Y0152310D02*
X0088462Y0152310D01*
X0088462Y0153134D02*
X0090938Y0153134D01*
X0088462Y0147138D02*
X0088462Y0144662D01*
X0088462Y0147138D02*
X0090938Y0147138D01*
X0090938Y0144662D01*
X0088462Y0144662D01*
X0088462Y0145486D02*
X0090938Y0145486D01*
X0090938Y0146310D02*
X0088462Y0146310D01*
X0088462Y0147134D02*
X0090938Y0147134D01*
X0082462Y0146938D02*
X0082462Y0144462D01*
X0082462Y0146938D02*
X0084938Y0146938D01*
X0084938Y0144462D01*
X0082462Y0144462D01*
X0082462Y0145286D02*
X0084938Y0145286D01*
X0084938Y0146110D02*
X0082462Y0146110D01*
X0082462Y0146934D02*
X0084938Y0146934D01*
X0082462Y0150462D02*
X0082462Y0152938D01*
X0084938Y0152938D01*
X0084938Y0150462D01*
X0082462Y0150462D01*
X0082462Y0151286D02*
X0084938Y0151286D01*
X0084938Y0152110D02*
X0082462Y0152110D01*
X0082462Y0152934D02*
X0084938Y0152934D01*
X0086262Y0243462D02*
X0086262Y0245938D01*
X0088738Y0245938D01*
X0088738Y0243462D01*
X0086262Y0243462D01*
X0086262Y0244286D02*
X0088738Y0244286D01*
X0088738Y0245110D02*
X0086262Y0245110D01*
X0086262Y0245934D02*
X0088738Y0245934D01*
X0086262Y0249462D02*
X0086262Y0251938D01*
X0088738Y0251938D01*
X0088738Y0249462D01*
X0086262Y0249462D01*
X0086262Y0250286D02*
X0088738Y0250286D01*
X0088738Y0251110D02*
X0086262Y0251110D01*
X0086262Y0251934D02*
X0088738Y0251934D01*
D11*
X0240900Y0203774D03*
X0240900Y0188026D03*
D12*
X0206150Y0244200D02*
X0204050Y0244200D01*
X0204050Y0246800D01*
X0206150Y0246800D01*
X0206150Y0244200D01*
X0206150Y0244899D02*
X0204050Y0244899D01*
X0204050Y0245598D02*
X0206150Y0245598D01*
X0206150Y0246297D02*
X0204050Y0246297D01*
X0200150Y0244200D02*
X0198050Y0244200D01*
X0198050Y0246800D01*
X0200150Y0246800D01*
X0200150Y0244200D01*
X0200150Y0244899D02*
X0198050Y0244899D01*
X0198050Y0245598D02*
X0200150Y0245598D01*
X0200150Y0246297D02*
X0198050Y0246297D01*
X0227250Y0102200D02*
X0229350Y0102200D01*
X0229350Y0099600D01*
X0227250Y0099600D01*
X0227250Y0102200D01*
X0227250Y0100299D02*
X0229350Y0100299D01*
X0229350Y0100998D02*
X0227250Y0100998D01*
X0227250Y0101697D02*
X0229350Y0101697D01*
X0233250Y0102200D02*
X0235350Y0102200D01*
X0235350Y0099600D01*
X0233250Y0099600D01*
X0233250Y0102200D01*
X0233250Y0100299D02*
X0235350Y0100299D01*
X0235350Y0100998D02*
X0233250Y0100998D01*
X0233250Y0101697D02*
X0235350Y0101697D01*
X0235350Y0096400D02*
X0233250Y0096400D01*
X0235350Y0096400D02*
X0235350Y0093800D01*
X0233250Y0093800D01*
X0233250Y0096400D01*
X0233250Y0094499D02*
X0235350Y0094499D01*
X0235350Y0095198D02*
X0233250Y0095198D01*
X0233250Y0095897D02*
X0235350Y0095897D01*
X0235350Y0090600D02*
X0233250Y0090600D01*
X0235350Y0090600D02*
X0235350Y0088000D01*
X0233250Y0088000D01*
X0233250Y0090600D01*
X0233250Y0088699D02*
X0235350Y0088699D01*
X0235350Y0089398D02*
X0233250Y0089398D01*
X0233250Y0090097D02*
X0235350Y0090097D01*
X0229350Y0090600D02*
X0227250Y0090600D01*
X0229350Y0090600D02*
X0229350Y0088000D01*
X0227250Y0088000D01*
X0227250Y0090600D01*
X0227250Y0088699D02*
X0229350Y0088699D01*
X0229350Y0089398D02*
X0227250Y0089398D01*
X0227250Y0090097D02*
X0229350Y0090097D01*
X0229350Y0096400D02*
X0227250Y0096400D01*
X0229350Y0096400D02*
X0229350Y0093800D01*
X0227250Y0093800D01*
X0227250Y0096400D01*
X0227250Y0094499D02*
X0229350Y0094499D01*
X0229350Y0095198D02*
X0227250Y0095198D01*
X0227250Y0095897D02*
X0229350Y0095897D01*
X0219750Y0072000D02*
X0217650Y0072000D01*
X0219750Y0072000D02*
X0219750Y0069400D01*
X0217650Y0069400D01*
X0217650Y0072000D01*
X0217650Y0070099D02*
X0219750Y0070099D01*
X0219750Y0070798D02*
X0217650Y0070798D01*
X0217650Y0071497D02*
X0219750Y0071497D01*
X0213750Y0072000D02*
X0211650Y0072000D01*
X0213750Y0072000D02*
X0213750Y0069400D01*
X0211650Y0069400D01*
X0211650Y0072000D01*
X0211650Y0070099D02*
X0213750Y0070099D01*
X0213750Y0070798D02*
X0211650Y0070798D01*
X0211650Y0071497D02*
X0213750Y0071497D01*
X0213750Y0065000D02*
X0211650Y0065000D01*
X0213750Y0065000D02*
X0213750Y0062400D01*
X0211650Y0062400D01*
X0211650Y0065000D01*
X0211650Y0063099D02*
X0213750Y0063099D01*
X0213750Y0063798D02*
X0211650Y0063798D01*
X0211650Y0064497D02*
X0213750Y0064497D01*
X0217650Y0065000D02*
X0219750Y0065000D01*
X0219750Y0062400D01*
X0217650Y0062400D01*
X0217650Y0065000D01*
X0217650Y0063099D02*
X0219750Y0063099D01*
X0219750Y0063798D02*
X0217650Y0063798D01*
X0217650Y0064497D02*
X0219750Y0064497D01*
D13*
G36*
X0181831Y0106217D02*
X0185446Y0102602D01*
X0184613Y0101769D01*
X0180998Y0105384D01*
X0181831Y0106217D01*
G37*
G36*
X0183223Y0107609D02*
X0186838Y0103994D01*
X0186005Y0103161D01*
X0182390Y0106776D01*
X0183223Y0107609D01*
G37*
G36*
X0184601Y0109015D02*
X0188216Y0105400D01*
X0187383Y0104567D01*
X0183768Y0108182D01*
X0184601Y0109015D01*
G37*
G36*
X0186006Y0110393D02*
X0189621Y0106778D01*
X0188788Y0105945D01*
X0185173Y0109560D01*
X0186006Y0110393D01*
G37*
G36*
X0187398Y0111785D02*
X0191013Y0108170D01*
X0190180Y0107337D01*
X0186565Y0110952D01*
X0187398Y0111785D01*
G37*
G36*
X0188790Y0113177D02*
X0192405Y0109562D01*
X0191572Y0108729D01*
X0187957Y0112344D01*
X0188790Y0113177D01*
G37*
G36*
X0190182Y0114569D02*
X0193797Y0110954D01*
X0192964Y0110121D01*
X0189349Y0113736D01*
X0190182Y0114569D01*
G37*
G36*
X0191574Y0115961D02*
X0195189Y0112346D01*
X0194356Y0111513D01*
X0190741Y0115128D01*
X0191574Y0115961D01*
G37*
G36*
X0192966Y0117353D02*
X0196581Y0113738D01*
X0195748Y0112905D01*
X0192133Y0116520D01*
X0192966Y0117353D01*
G37*
G36*
X0194358Y0118744D02*
X0197973Y0115129D01*
X0197140Y0114296D01*
X0193525Y0117911D01*
X0194358Y0118744D01*
G37*
G36*
X0195750Y0120136D02*
X0199365Y0116521D01*
X0198532Y0115688D01*
X0194917Y0119303D01*
X0195750Y0120136D01*
G37*
G36*
X0197142Y0121528D02*
X0200757Y0117913D01*
X0199924Y0117080D01*
X0196309Y0120695D01*
X0197142Y0121528D01*
G37*
G36*
X0198534Y0122920D02*
X0202149Y0119305D01*
X0201316Y0118472D01*
X0197701Y0122087D01*
X0198534Y0122920D01*
G37*
G36*
X0199926Y0124312D02*
X0203541Y0120697D01*
X0202708Y0119864D01*
X0199093Y0123479D01*
X0199926Y0124312D01*
G37*
G36*
X0201318Y0125704D02*
X0204933Y0122089D01*
X0204100Y0121256D01*
X0200485Y0124871D01*
X0201318Y0125704D01*
G37*
G36*
X0200485Y0132529D02*
X0204100Y0136144D01*
X0204933Y0135311D01*
X0201318Y0131696D01*
X0200485Y0132529D01*
G37*
G36*
X0199093Y0133921D02*
X0202708Y0137536D01*
X0203541Y0136703D01*
X0199926Y0133088D01*
X0199093Y0133921D01*
G37*
G36*
X0197701Y0135313D02*
X0201316Y0138928D01*
X0202149Y0138095D01*
X0198534Y0134480D01*
X0197701Y0135313D01*
G37*
G36*
X0196309Y0136705D02*
X0199924Y0140320D01*
X0200757Y0139487D01*
X0197142Y0135872D01*
X0196309Y0136705D01*
G37*
G36*
X0194917Y0138097D02*
X0198532Y0141712D01*
X0199365Y0140879D01*
X0195750Y0137264D01*
X0194917Y0138097D01*
G37*
G36*
X0193525Y0139488D02*
X0197140Y0143103D01*
X0197973Y0142270D01*
X0194358Y0138655D01*
X0193525Y0139488D01*
G37*
G36*
X0192133Y0140880D02*
X0195748Y0144495D01*
X0196581Y0143662D01*
X0192966Y0140047D01*
X0192133Y0140880D01*
G37*
G36*
X0190741Y0142272D02*
X0194356Y0145887D01*
X0195189Y0145054D01*
X0191574Y0141439D01*
X0190741Y0142272D01*
G37*
G36*
X0189349Y0143664D02*
X0192964Y0147279D01*
X0193797Y0146446D01*
X0190182Y0142831D01*
X0189349Y0143664D01*
G37*
G36*
X0187957Y0145056D02*
X0191572Y0148671D01*
X0192405Y0147838D01*
X0188790Y0144223D01*
X0187957Y0145056D01*
G37*
G36*
X0186565Y0146448D02*
X0190180Y0150063D01*
X0191013Y0149230D01*
X0187398Y0145615D01*
X0186565Y0146448D01*
G37*
G36*
X0185173Y0147840D02*
X0188788Y0151455D01*
X0189621Y0150622D01*
X0186006Y0147007D01*
X0185173Y0147840D01*
G37*
G36*
X0183782Y0149232D02*
X0187397Y0152847D01*
X0188230Y0152014D01*
X0184615Y0148399D01*
X0183782Y0149232D01*
G37*
G36*
X0182390Y0150624D02*
X0186005Y0154239D01*
X0186838Y0153406D01*
X0183223Y0149791D01*
X0182390Y0150624D01*
G37*
G36*
X0180998Y0152016D02*
X0184613Y0155631D01*
X0185446Y0154798D01*
X0181831Y0151183D01*
X0180998Y0152016D01*
G37*
G36*
X0179606Y0153408D02*
X0183221Y0157023D01*
X0184054Y0156190D01*
X0180439Y0152575D01*
X0179606Y0153408D01*
G37*
G36*
X0178214Y0154800D02*
X0181829Y0158415D01*
X0182662Y0157582D01*
X0179047Y0153967D01*
X0178214Y0154800D01*
G37*
G36*
X0176822Y0156192D02*
X0180437Y0159807D01*
X0181270Y0158974D01*
X0177655Y0155359D01*
X0176822Y0156192D01*
G37*
G36*
X0175430Y0157584D02*
X0179045Y0161199D01*
X0179878Y0160366D01*
X0176263Y0156751D01*
X0175430Y0157584D01*
G37*
G36*
X0174038Y0158976D02*
X0177653Y0162591D01*
X0178486Y0161758D01*
X0174871Y0158143D01*
X0174038Y0158976D01*
G37*
G36*
X0172646Y0160368D02*
X0176261Y0163983D01*
X0177094Y0163150D01*
X0173479Y0159535D01*
X0172646Y0160368D01*
G37*
G36*
X0171254Y0161760D02*
X0174869Y0165375D01*
X0175702Y0164542D01*
X0172087Y0160927D01*
X0171254Y0161760D01*
G37*
G36*
X0169862Y0163152D02*
X0173477Y0166767D01*
X0174310Y0165934D01*
X0170695Y0162319D01*
X0169862Y0163152D01*
G37*
G36*
X0168470Y0164543D02*
X0172085Y0168158D01*
X0172918Y0167325D01*
X0169303Y0163710D01*
X0168470Y0164543D01*
G37*
G36*
X0167078Y0165935D02*
X0170693Y0169550D01*
X0171526Y0168717D01*
X0167911Y0165102D01*
X0167078Y0165935D01*
G37*
G36*
X0165686Y0167327D02*
X0169301Y0170942D01*
X0170134Y0170109D01*
X0166519Y0166494D01*
X0165686Y0167327D01*
G37*
G36*
X0164294Y0168719D02*
X0167909Y0172334D01*
X0168742Y0171501D01*
X0165127Y0167886D01*
X0164294Y0168719D01*
G37*
G36*
X0162902Y0170111D02*
X0166517Y0173726D01*
X0167350Y0172893D01*
X0163735Y0169278D01*
X0162902Y0170111D01*
G37*
G36*
X0161510Y0171503D02*
X0165125Y0175118D01*
X0165958Y0174285D01*
X0162343Y0170670D01*
X0161510Y0171503D01*
G37*
G36*
X0160118Y0172895D02*
X0163733Y0176510D01*
X0164566Y0175677D01*
X0160951Y0172062D01*
X0160118Y0172895D01*
G37*
G36*
X0158727Y0174287D02*
X0162342Y0177902D01*
X0163175Y0177069D01*
X0159560Y0173454D01*
X0158727Y0174287D01*
G37*
G36*
X0157335Y0175679D02*
X0160950Y0179294D01*
X0161783Y0178461D01*
X0158168Y0174846D01*
X0157335Y0175679D01*
G37*
G36*
X0155943Y0177071D02*
X0159558Y0180686D01*
X0160391Y0179853D01*
X0156776Y0176238D01*
X0155943Y0177071D01*
G37*
G36*
X0154551Y0178463D02*
X0158166Y0182078D01*
X0158999Y0181245D01*
X0155384Y0177630D01*
X0154551Y0178463D01*
G37*
G36*
X0153159Y0179855D02*
X0156774Y0183470D01*
X0157607Y0182637D01*
X0153992Y0179022D01*
X0153159Y0179855D01*
G37*
G36*
X0151767Y0181247D02*
X0155382Y0184862D01*
X0156215Y0184029D01*
X0152600Y0180414D01*
X0151767Y0181247D01*
G37*
G36*
X0144942Y0180414D02*
X0141327Y0184029D01*
X0142160Y0184862D01*
X0145775Y0181247D01*
X0144942Y0180414D01*
G37*
G36*
X0143550Y0179022D02*
X0139935Y0182637D01*
X0140768Y0183470D01*
X0144383Y0179855D01*
X0143550Y0179022D01*
G37*
G36*
X0142158Y0177630D02*
X0138543Y0181245D01*
X0139376Y0182078D01*
X0142991Y0178463D01*
X0142158Y0177630D01*
G37*
G36*
X0140766Y0176238D02*
X0137151Y0179853D01*
X0137984Y0180686D01*
X0141599Y0177071D01*
X0140766Y0176238D01*
G37*
G36*
X0139375Y0174846D02*
X0135760Y0178461D01*
X0136593Y0179294D01*
X0140208Y0175679D01*
X0139375Y0174846D01*
G37*
G36*
X0137983Y0173454D02*
X0134368Y0177069D01*
X0135201Y0177902D01*
X0138816Y0174287D01*
X0137983Y0173454D01*
G37*
G36*
X0136591Y0172062D02*
X0132976Y0175677D01*
X0133809Y0176510D01*
X0137424Y0172895D01*
X0136591Y0172062D01*
G37*
G36*
X0135199Y0170670D02*
X0131584Y0174285D01*
X0132417Y0175118D01*
X0136032Y0171503D01*
X0135199Y0170670D01*
G37*
G36*
X0133807Y0169278D02*
X0130192Y0172893D01*
X0131025Y0173726D01*
X0134640Y0170111D01*
X0133807Y0169278D01*
G37*
G36*
X0132415Y0167886D02*
X0128800Y0171501D01*
X0129633Y0172334D01*
X0133248Y0168719D01*
X0132415Y0167886D01*
G37*
G36*
X0131023Y0166494D02*
X0127408Y0170109D01*
X0128241Y0170942D01*
X0131856Y0167327D01*
X0131023Y0166494D01*
G37*
G36*
X0129631Y0165102D02*
X0126016Y0168717D01*
X0126849Y0169550D01*
X0130464Y0165935D01*
X0129631Y0165102D01*
G37*
G36*
X0128239Y0163710D02*
X0124624Y0167325D01*
X0125457Y0168158D01*
X0129072Y0164543D01*
X0128239Y0163710D01*
G37*
G36*
X0126847Y0162319D02*
X0123232Y0165934D01*
X0124065Y0166767D01*
X0127680Y0163152D01*
X0126847Y0162319D01*
G37*
G36*
X0125455Y0160927D02*
X0121840Y0164542D01*
X0122673Y0165375D01*
X0126288Y0161760D01*
X0125455Y0160927D01*
G37*
G36*
X0124063Y0159535D02*
X0120448Y0163150D01*
X0121281Y0163983D01*
X0124896Y0160368D01*
X0124063Y0159535D01*
G37*
G36*
X0122671Y0158143D02*
X0119056Y0161758D01*
X0119889Y0162591D01*
X0123504Y0158976D01*
X0122671Y0158143D01*
G37*
G36*
X0121279Y0156751D02*
X0117664Y0160366D01*
X0118497Y0161199D01*
X0122112Y0157584D01*
X0121279Y0156751D01*
G37*
G36*
X0119887Y0155359D02*
X0116272Y0158974D01*
X0117105Y0159807D01*
X0120720Y0156192D01*
X0119887Y0155359D01*
G37*
G36*
X0118495Y0153967D02*
X0114880Y0157582D01*
X0115713Y0158415D01*
X0119328Y0154800D01*
X0118495Y0153967D01*
G37*
G36*
X0117103Y0152575D02*
X0113488Y0156190D01*
X0114321Y0157023D01*
X0117936Y0153408D01*
X0117103Y0152575D01*
G37*
G36*
X0115711Y0151183D02*
X0112096Y0154798D01*
X0112929Y0155631D01*
X0116544Y0152016D01*
X0115711Y0151183D01*
G37*
G36*
X0114320Y0149791D02*
X0110705Y0153406D01*
X0111538Y0154239D01*
X0115153Y0150624D01*
X0114320Y0149791D01*
G37*
G36*
X0112928Y0148399D02*
X0109313Y0152014D01*
X0110146Y0152847D01*
X0113761Y0149232D01*
X0112928Y0148399D01*
G37*
G36*
X0111536Y0147007D02*
X0107921Y0150622D01*
X0108754Y0151455D01*
X0112369Y0147840D01*
X0111536Y0147007D01*
G37*
G36*
X0110144Y0145615D02*
X0106529Y0149230D01*
X0107362Y0150063D01*
X0110977Y0146448D01*
X0110144Y0145615D01*
G37*
G36*
X0108752Y0144223D02*
X0105137Y0147838D01*
X0105970Y0148671D01*
X0109585Y0145056D01*
X0108752Y0144223D01*
G37*
G36*
X0107360Y0142831D02*
X0103745Y0146446D01*
X0104578Y0147279D01*
X0108193Y0143664D01*
X0107360Y0142831D01*
G37*
G36*
X0105968Y0141439D02*
X0102353Y0145054D01*
X0103186Y0145887D01*
X0106801Y0142272D01*
X0105968Y0141439D01*
G37*
G36*
X0104576Y0140047D02*
X0100961Y0143662D01*
X0101794Y0144495D01*
X0105409Y0140880D01*
X0104576Y0140047D01*
G37*
G36*
X0103184Y0138655D02*
X0099569Y0142270D01*
X0100402Y0143103D01*
X0104017Y0139488D01*
X0103184Y0138655D01*
G37*
G36*
X0101792Y0137264D02*
X0098177Y0140879D01*
X0099010Y0141712D01*
X0102625Y0138097D01*
X0101792Y0137264D01*
G37*
G36*
X0100400Y0135872D02*
X0096785Y0139487D01*
X0097618Y0140320D01*
X0101233Y0136705D01*
X0100400Y0135872D01*
G37*
G36*
X0099008Y0134480D02*
X0095393Y0138095D01*
X0096226Y0138928D01*
X0099841Y0135313D01*
X0099008Y0134480D01*
G37*
G36*
X0097616Y0133088D02*
X0094001Y0136703D01*
X0094834Y0137536D01*
X0098449Y0133921D01*
X0097616Y0133088D01*
G37*
G36*
X0096224Y0131696D02*
X0092609Y0135311D01*
X0093442Y0136144D01*
X0097057Y0132529D01*
X0096224Y0131696D01*
G37*
G36*
X0097057Y0124871D02*
X0093442Y0121256D01*
X0092609Y0122089D01*
X0096224Y0125704D01*
X0097057Y0124871D01*
G37*
G36*
X0098449Y0123479D02*
X0094834Y0119864D01*
X0094001Y0120697D01*
X0097616Y0124312D01*
X0098449Y0123479D01*
G37*
G36*
X0099841Y0122087D02*
X0096226Y0118472D01*
X0095393Y0119305D01*
X0099008Y0122920D01*
X0099841Y0122087D01*
G37*
G36*
X0101233Y0120695D02*
X0097618Y0117080D01*
X0096785Y0117913D01*
X0100400Y0121528D01*
X0101233Y0120695D01*
G37*
G36*
X0102625Y0119303D02*
X0099010Y0115688D01*
X0098177Y0116521D01*
X0101792Y0120136D01*
X0102625Y0119303D01*
G37*
G36*
X0104017Y0117911D02*
X0100402Y0114296D01*
X0099569Y0115129D01*
X0103184Y0118744D01*
X0104017Y0117911D01*
G37*
G36*
X0105409Y0116520D02*
X0101794Y0112905D01*
X0100961Y0113738D01*
X0104576Y0117353D01*
X0105409Y0116520D01*
G37*
G36*
X0106801Y0115128D02*
X0103186Y0111513D01*
X0102353Y0112346D01*
X0105968Y0115961D01*
X0106801Y0115128D01*
G37*
G36*
X0108193Y0113736D02*
X0104578Y0110121D01*
X0103745Y0110954D01*
X0107360Y0114569D01*
X0108193Y0113736D01*
G37*
G36*
X0109585Y0112344D02*
X0105970Y0108729D01*
X0105137Y0109562D01*
X0108752Y0113177D01*
X0109585Y0112344D01*
G37*
G36*
X0110977Y0110952D02*
X0107362Y0107337D01*
X0106529Y0108170D01*
X0110144Y0111785D01*
X0110977Y0110952D01*
G37*
G36*
X0112369Y0109560D02*
X0108754Y0105945D01*
X0107921Y0106778D01*
X0111536Y0110393D01*
X0112369Y0109560D01*
G37*
G36*
X0113761Y0108168D02*
X0110146Y0104553D01*
X0109313Y0105386D01*
X0112928Y0109001D01*
X0113761Y0108168D01*
G37*
G36*
X0115153Y0106776D02*
X0111538Y0103161D01*
X0110705Y0103994D01*
X0114320Y0107609D01*
X0115153Y0106776D01*
G37*
G36*
X0116544Y0105384D02*
X0112929Y0101769D01*
X0112096Y0102602D01*
X0115711Y0106217D01*
X0116544Y0105384D01*
G37*
G36*
X0117936Y0103992D02*
X0114321Y0100377D01*
X0113488Y0101210D01*
X0117103Y0104825D01*
X0117936Y0103992D01*
G37*
G36*
X0119328Y0102600D02*
X0115713Y0098985D01*
X0114880Y0099818D01*
X0118495Y0103433D01*
X0119328Y0102600D01*
G37*
G36*
X0120720Y0101208D02*
X0117105Y0097593D01*
X0116272Y0098426D01*
X0119887Y0102041D01*
X0120720Y0101208D01*
G37*
G36*
X0122112Y0099816D02*
X0118497Y0096201D01*
X0117664Y0097034D01*
X0121279Y0100649D01*
X0122112Y0099816D01*
G37*
G36*
X0123504Y0098424D02*
X0119889Y0094809D01*
X0119056Y0095642D01*
X0122671Y0099257D01*
X0123504Y0098424D01*
G37*
G36*
X0124896Y0097032D02*
X0121281Y0093417D01*
X0120448Y0094250D01*
X0124063Y0097865D01*
X0124896Y0097032D01*
G37*
G36*
X0126288Y0095640D02*
X0122673Y0092025D01*
X0121840Y0092858D01*
X0125455Y0096473D01*
X0126288Y0095640D01*
G37*
G36*
X0127680Y0094248D02*
X0124065Y0090633D01*
X0123232Y0091466D01*
X0126847Y0095081D01*
X0127680Y0094248D01*
G37*
G36*
X0129072Y0092857D02*
X0125457Y0089242D01*
X0124624Y0090075D01*
X0128239Y0093690D01*
X0129072Y0092857D01*
G37*
G36*
X0130464Y0091465D02*
X0126849Y0087850D01*
X0126016Y0088683D01*
X0129631Y0092298D01*
X0130464Y0091465D01*
G37*
G36*
X0131856Y0090073D02*
X0128241Y0086458D01*
X0127408Y0087291D01*
X0131023Y0090906D01*
X0131856Y0090073D01*
G37*
G36*
X0133248Y0088681D02*
X0129633Y0085066D01*
X0128800Y0085899D01*
X0132415Y0089514D01*
X0133248Y0088681D01*
G37*
G36*
X0134640Y0087289D02*
X0131025Y0083674D01*
X0130192Y0084507D01*
X0133807Y0088122D01*
X0134640Y0087289D01*
G37*
G36*
X0136032Y0085897D02*
X0132417Y0082282D01*
X0131584Y0083115D01*
X0135199Y0086730D01*
X0136032Y0085897D01*
G37*
G36*
X0137424Y0084505D02*
X0133809Y0080890D01*
X0132976Y0081723D01*
X0136591Y0085338D01*
X0137424Y0084505D01*
G37*
G36*
X0138816Y0083113D02*
X0135201Y0079498D01*
X0134368Y0080331D01*
X0137983Y0083946D01*
X0138816Y0083113D01*
G37*
G36*
X0140208Y0081721D02*
X0136593Y0078106D01*
X0135760Y0078939D01*
X0139375Y0082554D01*
X0140208Y0081721D01*
G37*
G36*
X0141599Y0080329D02*
X0137984Y0076714D01*
X0137151Y0077547D01*
X0140766Y0081162D01*
X0141599Y0080329D01*
G37*
G36*
X0142991Y0078937D02*
X0139376Y0075322D01*
X0138543Y0076155D01*
X0142158Y0079770D01*
X0142991Y0078937D01*
G37*
G36*
X0144383Y0077545D02*
X0140768Y0073930D01*
X0139935Y0074763D01*
X0143550Y0078378D01*
X0144383Y0077545D01*
G37*
G36*
X0145775Y0076153D02*
X0142160Y0072538D01*
X0141327Y0073371D01*
X0144942Y0076986D01*
X0145775Y0076153D01*
G37*
G36*
X0152600Y0076986D02*
X0156215Y0073371D01*
X0155382Y0072538D01*
X0151767Y0076153D01*
X0152600Y0076986D01*
G37*
G36*
X0153992Y0078378D02*
X0157607Y0074763D01*
X0156774Y0073930D01*
X0153159Y0077545D01*
X0153992Y0078378D01*
G37*
G36*
X0155384Y0079770D02*
X0158999Y0076155D01*
X0158166Y0075322D01*
X0154551Y0078937D01*
X0155384Y0079770D01*
G37*
G36*
X0156776Y0081162D02*
X0160391Y0077547D01*
X0159558Y0076714D01*
X0155943Y0080329D01*
X0156776Y0081162D01*
G37*
G36*
X0158168Y0082554D02*
X0161783Y0078939D01*
X0160950Y0078106D01*
X0157335Y0081721D01*
X0158168Y0082554D01*
G37*
G36*
X0159560Y0083946D02*
X0163175Y0080331D01*
X0162342Y0079498D01*
X0158727Y0083113D01*
X0159560Y0083946D01*
G37*
G36*
X0160951Y0085338D02*
X0164566Y0081723D01*
X0163733Y0080890D01*
X0160118Y0084505D01*
X0160951Y0085338D01*
G37*
G36*
X0162343Y0086730D02*
X0165958Y0083115D01*
X0165125Y0082282D01*
X0161510Y0085897D01*
X0162343Y0086730D01*
G37*
G36*
X0163735Y0088122D02*
X0167350Y0084507D01*
X0166517Y0083674D01*
X0162902Y0087289D01*
X0163735Y0088122D01*
G37*
G36*
X0165127Y0089514D02*
X0168742Y0085899D01*
X0167909Y0085066D01*
X0164294Y0088681D01*
X0165127Y0089514D01*
G37*
G36*
X0166519Y0090906D02*
X0170134Y0087291D01*
X0169301Y0086458D01*
X0165686Y0090073D01*
X0166519Y0090906D01*
G37*
G36*
X0167911Y0092298D02*
X0171526Y0088683D01*
X0170693Y0087850D01*
X0167078Y0091465D01*
X0167911Y0092298D01*
G37*
G36*
X0169289Y0093703D02*
X0172904Y0090088D01*
X0172071Y0089255D01*
X0168456Y0092870D01*
X0169289Y0093703D01*
G37*
G36*
X0170695Y0095081D02*
X0174310Y0091466D01*
X0173477Y0090633D01*
X0169862Y0094248D01*
X0170695Y0095081D01*
G37*
G36*
X0172087Y0096473D02*
X0175702Y0092858D01*
X0174869Y0092025D01*
X0171254Y0095640D01*
X0172087Y0096473D01*
G37*
G36*
X0173479Y0097865D02*
X0177094Y0094250D01*
X0176261Y0093417D01*
X0172646Y0097032D01*
X0173479Y0097865D01*
G37*
G36*
X0174871Y0099257D02*
X0178486Y0095642D01*
X0177653Y0094809D01*
X0174038Y0098424D01*
X0174871Y0099257D01*
G37*
G36*
X0176263Y0100649D02*
X0179878Y0097034D01*
X0179045Y0096201D01*
X0175430Y0099816D01*
X0176263Y0100649D01*
G37*
G36*
X0177655Y0102041D02*
X0181270Y0098426D01*
X0180437Y0097593D01*
X0176822Y0101208D01*
X0177655Y0102041D01*
G37*
G36*
X0179047Y0103433D02*
X0182662Y0099818D01*
X0181829Y0098985D01*
X0178214Y0102600D01*
X0179047Y0103433D01*
G37*
G36*
X0180439Y0104825D02*
X0184054Y0101210D01*
X0183221Y0100377D01*
X0179606Y0103992D01*
X0180439Y0104825D01*
G37*
D14*
X0144129Y0214629D02*
X0144129Y0214629D01*
X0139995Y0214629D01*
X0139995Y0214629D01*
X0144129Y0214629D01*
X0144129Y0217779D02*
X0144129Y0217779D01*
X0139995Y0217779D01*
X0139995Y0217779D01*
X0144129Y0217779D01*
X0144129Y0220928D02*
X0144129Y0220928D01*
X0139995Y0220928D01*
X0139995Y0220928D01*
X0144129Y0220928D01*
X0144129Y0224078D02*
X0144129Y0224078D01*
X0139995Y0224078D01*
X0139995Y0224078D01*
X0144129Y0224078D01*
X0144129Y0227228D02*
X0144129Y0227228D01*
X0139995Y0227228D01*
X0139995Y0227228D01*
X0144129Y0227228D01*
X0144129Y0230377D02*
X0144129Y0230377D01*
X0139995Y0230377D01*
X0139995Y0230377D01*
X0144129Y0230377D01*
X0144129Y0233527D02*
X0144129Y0233527D01*
X0139995Y0233527D01*
X0139995Y0233527D01*
X0144129Y0233527D01*
X0144129Y0236676D02*
X0144129Y0236676D01*
X0139995Y0236676D01*
X0139995Y0236676D01*
X0144129Y0236676D01*
X0144129Y0239826D02*
X0144129Y0239826D01*
X0139995Y0239826D01*
X0139995Y0239826D01*
X0144129Y0239826D01*
X0144129Y0242976D02*
X0144129Y0242976D01*
X0139995Y0242976D01*
X0139995Y0242976D01*
X0144129Y0242976D01*
X0144129Y0246125D02*
X0144129Y0246125D01*
X0139995Y0246125D01*
X0139995Y0246125D01*
X0144129Y0246125D01*
X0144129Y0249275D02*
X0144129Y0249275D01*
X0139995Y0249275D01*
X0139995Y0249275D01*
X0144129Y0249275D01*
X0144129Y0252424D02*
X0144129Y0252424D01*
X0139995Y0252424D01*
X0139995Y0252424D01*
X0144129Y0252424D01*
X0144129Y0255574D02*
X0144129Y0255574D01*
X0139995Y0255574D01*
X0139995Y0255574D01*
X0144129Y0255574D01*
X0144129Y0258724D02*
X0144129Y0258724D01*
X0139995Y0258724D01*
X0139995Y0258724D01*
X0144129Y0258724D01*
X0144129Y0261873D02*
X0144129Y0261873D01*
X0139995Y0261873D01*
X0139995Y0261873D01*
X0144129Y0261873D01*
X0144129Y0265023D02*
X0144129Y0265023D01*
X0139995Y0265023D01*
X0139995Y0265023D01*
X0144129Y0265023D01*
X0144129Y0268172D02*
X0144129Y0268172D01*
X0139995Y0268172D01*
X0139995Y0268172D01*
X0144129Y0268172D01*
X0144129Y0271322D02*
X0144129Y0271322D01*
X0139995Y0271322D01*
X0139995Y0271322D01*
X0144129Y0271322D01*
X0144129Y0274472D02*
X0144129Y0274472D01*
X0139995Y0274472D01*
X0139995Y0274472D01*
X0144129Y0274472D01*
X0144129Y0277621D02*
X0144129Y0277621D01*
X0139995Y0277621D01*
X0139995Y0277621D01*
X0144129Y0277621D01*
X0144129Y0280771D02*
X0144129Y0280771D01*
X0139995Y0280771D01*
X0139995Y0280771D01*
X0144129Y0280771D01*
X0095271Y0280771D02*
X0095271Y0280771D01*
X0099405Y0280771D01*
X0099405Y0280771D01*
X0095271Y0280771D01*
X0095271Y0277621D02*
X0095271Y0277621D01*
X0099405Y0277621D01*
X0099405Y0277621D01*
X0095271Y0277621D01*
X0095271Y0274472D02*
X0095271Y0274472D01*
X0099405Y0274472D01*
X0099405Y0274472D01*
X0095271Y0274472D01*
X0095271Y0271322D02*
X0095271Y0271322D01*
X0099405Y0271322D01*
X0099405Y0271322D01*
X0095271Y0271322D01*
X0095271Y0268172D02*
X0095271Y0268172D01*
X0099405Y0268172D01*
X0099405Y0268172D01*
X0095271Y0268172D01*
X0095271Y0265023D02*
X0095271Y0265023D01*
X0099405Y0265023D01*
X0099405Y0265023D01*
X0095271Y0265023D01*
X0095271Y0261873D02*
X0095271Y0261873D01*
X0099405Y0261873D01*
X0099405Y0261873D01*
X0095271Y0261873D01*
X0095271Y0258724D02*
X0095271Y0258724D01*
X0099405Y0258724D01*
X0099405Y0258724D01*
X0095271Y0258724D01*
X0095271Y0255574D02*
X0095271Y0255574D01*
X0099405Y0255574D01*
X0099405Y0255574D01*
X0095271Y0255574D01*
X0095271Y0252424D02*
X0095271Y0252424D01*
X0099405Y0252424D01*
X0099405Y0252424D01*
X0095271Y0252424D01*
X0095271Y0249275D02*
X0095271Y0249275D01*
X0099405Y0249275D01*
X0099405Y0249275D01*
X0095271Y0249275D01*
X0095271Y0246125D02*
X0095271Y0246125D01*
X0099405Y0246125D01*
X0099405Y0246125D01*
X0095271Y0246125D01*
X0095271Y0242976D02*
X0095271Y0242976D01*
X0099405Y0242976D01*
X0099405Y0242976D01*
X0095271Y0242976D01*
X0095271Y0239826D02*
X0095271Y0239826D01*
X0099405Y0239826D01*
X0099405Y0239826D01*
X0095271Y0239826D01*
X0095271Y0236676D02*
X0095271Y0236676D01*
X0099405Y0236676D01*
X0099405Y0236676D01*
X0095271Y0236676D01*
X0095271Y0233527D02*
X0095271Y0233527D01*
X0099405Y0233527D01*
X0099405Y0233527D01*
X0095271Y0233527D01*
X0095271Y0230377D02*
X0095271Y0230377D01*
X0099405Y0230377D01*
X0099405Y0230377D01*
X0095271Y0230377D01*
X0095271Y0227228D02*
X0095271Y0227228D01*
X0099405Y0227228D01*
X0099405Y0227228D01*
X0095271Y0227228D01*
X0095271Y0224078D02*
X0095271Y0224078D01*
X0099405Y0224078D01*
X0099405Y0224078D01*
X0095271Y0224078D01*
X0095271Y0220928D02*
X0095271Y0220928D01*
X0099405Y0220928D01*
X0099405Y0220928D01*
X0095271Y0220928D01*
X0095271Y0217779D02*
X0095271Y0217779D01*
X0099405Y0217779D01*
X0099405Y0217779D01*
X0095271Y0217779D01*
X0095271Y0214629D02*
X0095271Y0214629D01*
X0099405Y0214629D01*
X0099405Y0214629D01*
X0095271Y0214629D01*
D15*
X0138100Y0065756D03*
X0154500Y0065156D03*
X0171100Y0065356D03*
X0171100Y0034844D03*
X0154500Y0034644D03*
X0138100Y0035244D03*
D16*
X0221873Y0146200D03*
X0221873Y0151200D03*
X0221873Y0156200D03*
X0221873Y0161200D03*
X0243527Y0161200D03*
X0243527Y0156200D03*
X0243527Y0151200D03*
X0243527Y0146200D03*
D17*
X0190600Y0194500D03*
X0190600Y0203500D03*
X0190600Y0212500D03*
D18*
X0215600Y0203500D03*
D19*
X0226601Y0257800D03*
X0229750Y0257800D03*
X0232900Y0257800D03*
X0236050Y0257800D03*
X0239199Y0257800D03*
D20*
X0250617Y0258957D03*
X0250617Y0280611D03*
X0215183Y0280611D03*
X0215183Y0258957D03*
D21*
X0205682Y0090875D02*
X0203032Y0090875D01*
X0203032Y0092525D01*
X0205682Y0092525D01*
X0205682Y0090875D01*
X0205682Y0092524D02*
X0203032Y0092524D01*
X0203032Y0082875D02*
X0205682Y0082875D01*
X0203032Y0082875D02*
X0203032Y0084525D01*
X0205682Y0084525D01*
X0205682Y0082875D01*
X0205682Y0084524D02*
X0203032Y0084524D01*
X0195682Y0082875D02*
X0193032Y0082875D01*
X0193032Y0084525D01*
X0195682Y0084525D01*
X0195682Y0082875D01*
X0195682Y0084524D02*
X0193032Y0084524D01*
X0193032Y0090875D02*
X0195682Y0090875D01*
X0193032Y0090875D02*
X0193032Y0092525D01*
X0195682Y0092525D01*
X0195682Y0090875D01*
X0195682Y0092524D02*
X0193032Y0092524D01*
M02*
