G75*
%MOIN*%
%OFA0B0*%
%FSLAX25Y25*%
%IPPOS*%
%LPD*%
%AMOC8*
5,1,8,0,0,1.08239X$1,22.5*
%
%ADD10C,0.00875*%
%ADD11R,0.06500X0.06500*%
%ADD12C,0.06500*%
%ADD13R,0.07874X0.07874*%
%ADD14C,0.00750*%
%ADD15R,0.05315X0.01378*%
%ADD16C,0.02165*%
%ADD17R,0.03937X0.06890*%
%ADD18C,0.05150*%
%ADD19R,0.05906X0.02362*%
%ADD20R,0.09000X0.05000*%
%ADD21R,0.08500X0.14000*%
%ADD22R,0.02000X0.10000*%
%ADD23R,0.07874X0.11000*%
%ADD24C,0.01750*%
%ADD25C,0.00600*%
%ADD26C,0.02400*%
%ADD27C,0.02000*%
%ADD28C,0.02800*%
D10*
X0100413Y0092787D02*
X0100413Y0095413D01*
X0100413Y0092787D02*
X0097787Y0092787D01*
X0097787Y0095413D01*
X0100413Y0095413D01*
X0100413Y0093661D02*
X0097787Y0093661D01*
X0097787Y0094535D02*
X0100413Y0094535D01*
X0100413Y0095409D02*
X0097787Y0095409D01*
X0100413Y0098787D02*
X0100413Y0101413D01*
X0100413Y0098787D02*
X0097787Y0098787D01*
X0097787Y0101413D01*
X0100413Y0101413D01*
X0100413Y0099661D02*
X0097787Y0099661D01*
X0097787Y0100535D02*
X0100413Y0100535D01*
X0100413Y0101409D02*
X0097787Y0101409D01*
X0103387Y0083387D02*
X0106013Y0083387D01*
X0103387Y0083387D02*
X0103387Y0086013D01*
X0106013Y0086013D01*
X0106013Y0083387D01*
X0106013Y0084261D02*
X0103387Y0084261D01*
X0103387Y0085135D02*
X0106013Y0085135D01*
X0106013Y0086009D02*
X0103387Y0086009D01*
X0103387Y0077387D02*
X0106013Y0077387D01*
X0103387Y0077387D02*
X0103387Y0080013D01*
X0106013Y0080013D01*
X0106013Y0077387D01*
X0106013Y0078261D02*
X0103387Y0078261D01*
X0103387Y0079135D02*
X0106013Y0079135D01*
X0106013Y0080009D02*
X0103387Y0080009D01*
X0109387Y0077387D02*
X0112013Y0077387D01*
X0109387Y0077387D02*
X0109387Y0080013D01*
X0112013Y0080013D01*
X0112013Y0077387D01*
X0112013Y0078261D02*
X0109387Y0078261D01*
X0109387Y0079135D02*
X0112013Y0079135D01*
X0112013Y0080009D02*
X0109387Y0080009D01*
X0109387Y0083387D02*
X0112013Y0083387D01*
X0109387Y0083387D02*
X0109387Y0086013D01*
X0112013Y0086013D01*
X0112013Y0083387D01*
X0112013Y0084261D02*
X0109387Y0084261D01*
X0109387Y0085135D02*
X0112013Y0085135D01*
X0112013Y0086009D02*
X0109387Y0086009D01*
X0121413Y0069413D02*
X0121413Y0066787D01*
X0118787Y0066787D01*
X0118787Y0069413D01*
X0121413Y0069413D01*
X0121413Y0067661D02*
X0118787Y0067661D01*
X0118787Y0068535D02*
X0121413Y0068535D01*
X0121413Y0069409D02*
X0118787Y0069409D01*
X0121413Y0063413D02*
X0121413Y0060787D01*
X0118787Y0060787D01*
X0118787Y0063413D01*
X0121413Y0063413D01*
X0121413Y0061661D02*
X0118787Y0061661D01*
X0118787Y0062535D02*
X0121413Y0062535D01*
X0121413Y0063409D02*
X0118787Y0063409D01*
X0127613Y0063413D02*
X0127613Y0060787D01*
X0124987Y0060787D01*
X0124987Y0063413D01*
X0127613Y0063413D01*
X0127613Y0061661D02*
X0124987Y0061661D01*
X0124987Y0062535D02*
X0127613Y0062535D01*
X0127613Y0063409D02*
X0124987Y0063409D01*
X0127613Y0066787D02*
X0127613Y0069413D01*
X0127613Y0066787D02*
X0124987Y0066787D01*
X0124987Y0069413D01*
X0127613Y0069413D01*
X0127613Y0067661D02*
X0124987Y0067661D01*
X0124987Y0068535D02*
X0127613Y0068535D01*
X0127613Y0069409D02*
X0124987Y0069409D01*
X0181813Y0077587D02*
X0181813Y0080213D01*
X0181813Y0077587D02*
X0179187Y0077587D01*
X0179187Y0080213D01*
X0181813Y0080213D01*
X0181813Y0078461D02*
X0179187Y0078461D01*
X0179187Y0079335D02*
X0181813Y0079335D01*
X0181813Y0080209D02*
X0179187Y0080209D01*
X0181813Y0083587D02*
X0181813Y0086213D01*
X0181813Y0083587D02*
X0179187Y0083587D01*
X0179187Y0086213D01*
X0181813Y0086213D01*
X0181813Y0084461D02*
X0179187Y0084461D01*
X0179187Y0085335D02*
X0181813Y0085335D01*
X0181813Y0086209D02*
X0179187Y0086209D01*
X0188680Y0099720D02*
X0191306Y0099720D01*
X0191306Y0097094D01*
X0188680Y0097094D01*
X0188680Y0099720D01*
X0188680Y0097968D02*
X0191306Y0097968D01*
X0191306Y0098842D02*
X0188680Y0098842D01*
X0188680Y0099716D02*
X0191306Y0099716D01*
X0194680Y0099720D02*
X0197306Y0099720D01*
X0197306Y0097094D01*
X0194680Y0097094D01*
X0194680Y0099720D01*
X0194680Y0097968D02*
X0197306Y0097968D01*
X0197306Y0098842D02*
X0194680Y0098842D01*
X0194680Y0099716D02*
X0197306Y0099716D01*
X0208773Y0090187D02*
X0211399Y0090187D01*
X0208773Y0090187D02*
X0208773Y0092813D01*
X0211399Y0092813D01*
X0211399Y0090187D01*
X0211399Y0091061D02*
X0208773Y0091061D01*
X0208773Y0091935D02*
X0211399Y0091935D01*
X0211399Y0092809D02*
X0208773Y0092809D01*
X0214773Y0090187D02*
X0217399Y0090187D01*
X0214773Y0090187D02*
X0214773Y0092813D01*
X0217399Y0092813D01*
X0217399Y0090187D01*
X0217399Y0091061D02*
X0214773Y0091061D01*
X0214773Y0091935D02*
X0217399Y0091935D01*
X0217399Y0092809D02*
X0214773Y0092809D01*
X0214213Y0107813D02*
X0211587Y0107813D01*
X0214213Y0107813D02*
X0214213Y0105187D01*
X0211587Y0105187D01*
X0211587Y0107813D01*
X0211587Y0106061D02*
X0214213Y0106061D01*
X0214213Y0106935D02*
X0211587Y0106935D01*
X0211587Y0107809D02*
X0214213Y0107809D01*
X0214213Y0113813D02*
X0211587Y0113813D01*
X0214213Y0113813D02*
X0214213Y0111187D01*
X0211587Y0111187D01*
X0211587Y0113813D01*
X0211587Y0112061D02*
X0214213Y0112061D01*
X0214213Y0112935D02*
X0211587Y0112935D01*
X0211587Y0113809D02*
X0214213Y0113809D01*
X0213906Y0119706D02*
X0211280Y0119706D01*
X0213906Y0119706D02*
X0213906Y0117080D01*
X0211280Y0117080D01*
X0211280Y0119706D01*
X0211280Y0117954D02*
X0213906Y0117954D01*
X0213906Y0118828D02*
X0211280Y0118828D01*
X0211280Y0119702D02*
X0213906Y0119702D01*
X0214213Y0125613D02*
X0211587Y0125613D01*
X0214213Y0125613D02*
X0214213Y0122987D01*
X0211587Y0122987D01*
X0211587Y0125613D01*
X0211587Y0123861D02*
X0214213Y0123861D01*
X0214213Y0124735D02*
X0211587Y0124735D01*
X0211587Y0125609D02*
X0214213Y0125609D01*
X0214013Y0131613D02*
X0211387Y0131613D01*
X0214013Y0131613D02*
X0214013Y0128987D01*
X0211387Y0128987D01*
X0211387Y0131613D01*
X0211387Y0129861D02*
X0214013Y0129861D01*
X0214013Y0130735D02*
X0211387Y0130735D01*
X0211387Y0131609D02*
X0214013Y0131609D01*
X0217387Y0131613D02*
X0220013Y0131613D01*
X0220013Y0128987D01*
X0217387Y0128987D01*
X0217387Y0131613D01*
X0217387Y0129861D02*
X0220013Y0129861D01*
X0220013Y0130735D02*
X0217387Y0130735D01*
X0217387Y0131609D02*
X0220013Y0131609D01*
X0220213Y0125613D02*
X0217587Y0125613D01*
X0220213Y0125613D02*
X0220213Y0122987D01*
X0217587Y0122987D01*
X0217587Y0125613D01*
X0217587Y0123861D02*
X0220213Y0123861D01*
X0220213Y0124735D02*
X0217587Y0124735D01*
X0217587Y0125609D02*
X0220213Y0125609D01*
X0219906Y0119706D02*
X0217280Y0119706D01*
X0219906Y0119706D02*
X0219906Y0117080D01*
X0217280Y0117080D01*
X0217280Y0119706D01*
X0217280Y0117954D02*
X0219906Y0117954D01*
X0219906Y0118828D02*
X0217280Y0118828D01*
X0217280Y0119702D02*
X0219906Y0119702D01*
X0220213Y0113813D02*
X0217587Y0113813D01*
X0220213Y0113813D02*
X0220213Y0111187D01*
X0217587Y0111187D01*
X0217587Y0113813D01*
X0217587Y0112061D02*
X0220213Y0112061D01*
X0220213Y0112935D02*
X0217587Y0112935D01*
X0217587Y0113809D02*
X0220213Y0113809D01*
X0220213Y0107813D02*
X0217587Y0107813D01*
X0220213Y0107813D02*
X0220213Y0105187D01*
X0217587Y0105187D01*
X0217587Y0107813D01*
X0217587Y0106061D02*
X0220213Y0106061D01*
X0220213Y0106935D02*
X0217587Y0106935D01*
X0217587Y0107809D02*
X0220213Y0107809D01*
X0238987Y0102213D02*
X0241613Y0102213D01*
X0241613Y0099587D01*
X0238987Y0099587D01*
X0238987Y0102213D01*
X0238987Y0100461D02*
X0241613Y0100461D01*
X0241613Y0101335D02*
X0238987Y0101335D01*
X0238987Y0102209D02*
X0241613Y0102209D01*
X0244987Y0102213D02*
X0247613Y0102213D01*
X0247613Y0099587D01*
X0244987Y0099587D01*
X0244987Y0102213D01*
X0244987Y0100461D02*
X0247613Y0100461D01*
X0247613Y0101335D02*
X0244987Y0101335D01*
X0244987Y0102209D02*
X0247613Y0102209D01*
X0247613Y0096513D02*
X0244987Y0096513D01*
X0247613Y0096513D02*
X0247613Y0093887D01*
X0244987Y0093887D01*
X0244987Y0096513D01*
X0244987Y0094761D02*
X0247613Y0094761D01*
X0247613Y0095635D02*
X0244987Y0095635D01*
X0244987Y0096509D02*
X0247613Y0096509D01*
X0247613Y0090513D02*
X0244987Y0090513D01*
X0247613Y0090513D02*
X0247613Y0087887D01*
X0244987Y0087887D01*
X0244987Y0090513D01*
X0244987Y0088761D02*
X0247613Y0088761D01*
X0247613Y0089635D02*
X0244987Y0089635D01*
X0244987Y0090509D02*
X0247613Y0090509D01*
X0241613Y0090513D02*
X0238987Y0090513D01*
X0241613Y0090513D02*
X0241613Y0087887D01*
X0238987Y0087887D01*
X0238987Y0090513D01*
X0238987Y0088761D02*
X0241613Y0088761D01*
X0241613Y0089635D02*
X0238987Y0089635D01*
X0238987Y0090509D02*
X0241613Y0090509D01*
X0241613Y0096513D02*
X0238987Y0096513D01*
X0241613Y0096513D02*
X0241613Y0093887D01*
X0238987Y0093887D01*
X0238987Y0096513D01*
X0238987Y0094761D02*
X0241613Y0094761D01*
X0241613Y0095635D02*
X0238987Y0095635D01*
X0238987Y0096509D02*
X0241613Y0096509D01*
X0232813Y0072013D02*
X0230187Y0072013D01*
X0232813Y0072013D02*
X0232813Y0069387D01*
X0230187Y0069387D01*
X0230187Y0072013D01*
X0230187Y0070261D02*
X0232813Y0070261D01*
X0232813Y0071135D02*
X0230187Y0071135D01*
X0230187Y0072009D02*
X0232813Y0072009D01*
X0226813Y0072013D02*
X0224187Y0072013D01*
X0226813Y0072013D02*
X0226813Y0069387D01*
X0224187Y0069387D01*
X0224187Y0072013D01*
X0224187Y0070261D02*
X0226813Y0070261D01*
X0226813Y0071135D02*
X0224187Y0071135D01*
X0224187Y0072009D02*
X0226813Y0072009D01*
X0226213Y0065013D02*
X0223587Y0065013D01*
X0226213Y0065013D02*
X0226213Y0062387D01*
X0223587Y0062387D01*
X0223587Y0065013D01*
X0223587Y0063261D02*
X0226213Y0063261D01*
X0226213Y0064135D02*
X0223587Y0064135D01*
X0223587Y0065009D02*
X0226213Y0065009D01*
X0229587Y0065013D02*
X0232213Y0065013D01*
X0232213Y0062387D01*
X0229587Y0062387D01*
X0229587Y0065013D01*
X0229587Y0063261D02*
X0232213Y0063261D01*
X0232213Y0064135D02*
X0229587Y0064135D01*
X0229587Y0065009D02*
X0232213Y0065009D01*
X0234187Y0056013D02*
X0236813Y0056013D01*
X0236813Y0053387D01*
X0234187Y0053387D01*
X0234187Y0056013D01*
X0234187Y0054261D02*
X0236813Y0054261D01*
X0236813Y0055135D02*
X0234187Y0055135D01*
X0234187Y0056009D02*
X0236813Y0056009D01*
X0240187Y0056013D02*
X0242813Y0056013D01*
X0242813Y0053387D01*
X0240187Y0053387D01*
X0240187Y0056013D01*
X0240187Y0054261D02*
X0242813Y0054261D01*
X0242813Y0055135D02*
X0240187Y0055135D01*
X0240187Y0056009D02*
X0242813Y0056009D01*
X0203613Y0074987D02*
X0200987Y0074987D01*
X0200987Y0077613D01*
X0203613Y0077613D01*
X0203613Y0074987D01*
X0203613Y0075861D02*
X0200987Y0075861D01*
X0200987Y0076735D02*
X0203613Y0076735D01*
X0203613Y0077609D02*
X0200987Y0077609D01*
X0197613Y0074987D02*
X0194987Y0074987D01*
X0194987Y0077613D01*
X0197613Y0077613D01*
X0197613Y0074987D01*
X0197613Y0075861D02*
X0194987Y0075861D01*
X0194987Y0076735D02*
X0197613Y0076735D01*
X0197613Y0077609D02*
X0194987Y0077609D01*
X0190613Y0062987D02*
X0187987Y0062987D01*
X0187987Y0065613D01*
X0190613Y0065613D01*
X0190613Y0062987D01*
X0190613Y0063861D02*
X0187987Y0063861D01*
X0187987Y0064735D02*
X0190613Y0064735D01*
X0190613Y0065609D02*
X0187987Y0065609D01*
X0184613Y0062987D02*
X0181987Y0062987D01*
X0181987Y0065613D01*
X0184613Y0065613D01*
X0184613Y0062987D01*
X0184613Y0063861D02*
X0181987Y0063861D01*
X0181987Y0064735D02*
X0184613Y0064735D01*
X0184613Y0065609D02*
X0181987Y0065609D01*
X0181987Y0055587D02*
X0184613Y0055587D01*
X0181987Y0055587D02*
X0181987Y0058213D01*
X0184613Y0058213D01*
X0184613Y0055587D01*
X0184613Y0056461D02*
X0181987Y0056461D01*
X0181987Y0057335D02*
X0184613Y0057335D01*
X0184613Y0058209D02*
X0181987Y0058209D01*
X0187987Y0055587D02*
X0190613Y0055587D01*
X0187987Y0055587D02*
X0187987Y0058213D01*
X0190613Y0058213D01*
X0190613Y0055587D01*
X0190613Y0056461D02*
X0187987Y0056461D01*
X0187987Y0057335D02*
X0190613Y0057335D01*
X0190613Y0058209D02*
X0187987Y0058209D01*
X0205187Y0154213D02*
X0207813Y0154213D01*
X0207813Y0151587D01*
X0205187Y0151587D01*
X0205187Y0154213D01*
X0205187Y0152461D02*
X0207813Y0152461D01*
X0207813Y0153335D02*
X0205187Y0153335D01*
X0205187Y0154209D02*
X0207813Y0154209D01*
X0211187Y0154213D02*
X0213813Y0154213D01*
X0213813Y0151587D01*
X0211187Y0151587D01*
X0211187Y0154213D01*
X0211187Y0152461D02*
X0213813Y0152461D01*
X0213813Y0153335D02*
X0211187Y0153335D01*
X0211187Y0154209D02*
X0213813Y0154209D01*
X0200387Y0163387D02*
X0200387Y0166013D01*
X0203013Y0166013D01*
X0203013Y0163387D01*
X0200387Y0163387D01*
X0200387Y0164261D02*
X0203013Y0164261D01*
X0203013Y0165135D02*
X0200387Y0165135D01*
X0200387Y0166009D02*
X0203013Y0166009D01*
X0200387Y0169387D02*
X0200387Y0172013D01*
X0203013Y0172013D01*
X0203013Y0169387D01*
X0200387Y0169387D01*
X0200387Y0170261D02*
X0203013Y0170261D01*
X0203013Y0171135D02*
X0200387Y0171135D01*
X0200387Y0172009D02*
X0203013Y0172009D01*
X0197013Y0180413D02*
X0194387Y0180413D01*
X0197013Y0180413D02*
X0197013Y0177787D01*
X0194387Y0177787D01*
X0194387Y0180413D01*
X0194387Y0178661D02*
X0197013Y0178661D01*
X0197013Y0179535D02*
X0194387Y0179535D01*
X0194387Y0180409D02*
X0197013Y0180409D01*
X0191013Y0180413D02*
X0188387Y0180413D01*
X0191013Y0180413D02*
X0191013Y0177787D01*
X0188387Y0177787D01*
X0188387Y0180413D01*
X0188387Y0178661D02*
X0191013Y0178661D01*
X0191013Y0179535D02*
X0188387Y0179535D01*
X0188387Y0180409D02*
X0191013Y0180409D01*
X0171387Y0185387D02*
X0171387Y0188013D01*
X0174013Y0188013D01*
X0174013Y0185387D01*
X0171387Y0185387D01*
X0171387Y0186261D02*
X0174013Y0186261D01*
X0174013Y0187135D02*
X0171387Y0187135D01*
X0171387Y0188009D02*
X0174013Y0188009D01*
X0171387Y0191387D02*
X0171387Y0194013D01*
X0174013Y0194013D01*
X0174013Y0191387D01*
X0171387Y0191387D01*
X0171387Y0192261D02*
X0174013Y0192261D01*
X0174013Y0193135D02*
X0171387Y0193135D01*
X0171387Y0194009D02*
X0174013Y0194009D01*
X0158187Y0195013D02*
X0158187Y0192387D01*
X0158187Y0195013D02*
X0160813Y0195013D01*
X0160813Y0192387D01*
X0158187Y0192387D01*
X0158187Y0193261D02*
X0160813Y0193261D01*
X0160813Y0194135D02*
X0158187Y0194135D01*
X0158187Y0195009D02*
X0160813Y0195009D01*
X0158187Y0198387D02*
X0158187Y0201013D01*
X0160813Y0201013D01*
X0160813Y0198387D01*
X0158187Y0198387D01*
X0158187Y0199261D02*
X0160813Y0199261D01*
X0160813Y0200135D02*
X0158187Y0200135D01*
X0158187Y0201009D02*
X0160813Y0201009D01*
X0152387Y0201013D02*
X0152387Y0198387D01*
X0152387Y0201013D02*
X0155013Y0201013D01*
X0155013Y0198387D01*
X0152387Y0198387D01*
X0152387Y0199261D02*
X0155013Y0199261D01*
X0155013Y0200135D02*
X0152387Y0200135D01*
X0152387Y0201009D02*
X0155013Y0201009D01*
X0152387Y0195013D02*
X0152387Y0192387D01*
X0152387Y0195013D02*
X0155013Y0195013D01*
X0155013Y0192387D01*
X0152387Y0192387D01*
X0152387Y0193261D02*
X0155013Y0193261D01*
X0155013Y0194135D02*
X0152387Y0194135D01*
X0152387Y0195009D02*
X0155013Y0195009D01*
X0156187Y0232013D02*
X0158813Y0232013D01*
X0158813Y0229387D01*
X0156187Y0229387D01*
X0156187Y0232013D01*
X0156187Y0230261D02*
X0158813Y0230261D01*
X0158813Y0231135D02*
X0156187Y0231135D01*
X0156187Y0232009D02*
X0158813Y0232009D01*
X0152813Y0232013D02*
X0150187Y0232013D01*
X0152813Y0232013D02*
X0152813Y0229387D01*
X0150187Y0229387D01*
X0150187Y0232013D01*
X0150187Y0230261D02*
X0152813Y0230261D01*
X0152813Y0231135D02*
X0150187Y0231135D01*
X0150187Y0232009D02*
X0152813Y0232009D01*
X0152813Y0235987D02*
X0152813Y0238613D01*
X0152813Y0235987D02*
X0150187Y0235987D01*
X0150187Y0238613D01*
X0152813Y0238613D01*
X0152813Y0236861D02*
X0150187Y0236861D01*
X0150187Y0237735D02*
X0152813Y0237735D01*
X0152813Y0238609D02*
X0150187Y0238609D01*
X0152813Y0241987D02*
X0152813Y0244613D01*
X0152813Y0241987D02*
X0150187Y0241987D01*
X0150187Y0244613D01*
X0152813Y0244613D01*
X0152813Y0242861D02*
X0150187Y0242861D01*
X0150187Y0243735D02*
X0152813Y0243735D01*
X0152813Y0244609D02*
X0150187Y0244609D01*
X0197587Y0239613D02*
X0200213Y0239613D01*
X0200213Y0236987D01*
X0197587Y0236987D01*
X0197587Y0239613D01*
X0197587Y0237861D02*
X0200213Y0237861D01*
X0200213Y0238735D02*
X0197587Y0238735D01*
X0197587Y0239609D02*
X0200213Y0239609D01*
X0203587Y0239613D02*
X0206213Y0239613D01*
X0206213Y0236987D01*
X0203587Y0236987D01*
X0203587Y0239613D01*
X0203587Y0237861D02*
X0206213Y0237861D01*
X0206213Y0238735D02*
X0203587Y0238735D01*
X0203587Y0239609D02*
X0206213Y0239609D01*
X0206013Y0229787D02*
X0203387Y0229787D01*
X0203387Y0232413D01*
X0206013Y0232413D01*
X0206013Y0229787D01*
X0206013Y0230661D02*
X0203387Y0230661D01*
X0203387Y0231535D02*
X0206013Y0231535D01*
X0206013Y0232409D02*
X0203387Y0232409D01*
X0200013Y0229787D02*
X0197387Y0229787D01*
X0197387Y0232413D01*
X0200013Y0232413D01*
X0200013Y0229787D01*
X0200013Y0230661D02*
X0197387Y0230661D01*
X0197387Y0231535D02*
X0200013Y0231535D01*
X0200013Y0232409D02*
X0197387Y0232409D01*
X0197587Y0222587D02*
X0200213Y0222587D01*
X0197587Y0222587D02*
X0197587Y0225213D01*
X0200213Y0225213D01*
X0200213Y0222587D01*
X0200213Y0223461D02*
X0197587Y0223461D01*
X0197587Y0224335D02*
X0200213Y0224335D01*
X0200213Y0225209D02*
X0197587Y0225209D01*
X0203587Y0222587D02*
X0206213Y0222587D01*
X0203587Y0222587D02*
X0203587Y0225213D01*
X0206213Y0225213D01*
X0206213Y0222587D01*
X0206213Y0223461D02*
X0203587Y0223461D01*
X0203587Y0224335D02*
X0206213Y0224335D01*
X0206213Y0225209D02*
X0203587Y0225209D01*
X0216013Y0187013D02*
X0216013Y0184387D01*
X0213387Y0184387D01*
X0213387Y0187013D01*
X0216013Y0187013D01*
X0216013Y0185261D02*
X0213387Y0185261D01*
X0213387Y0186135D02*
X0216013Y0186135D01*
X0216013Y0187009D02*
X0213387Y0187009D01*
X0216013Y0181013D02*
X0216013Y0178387D01*
X0213387Y0178387D01*
X0213387Y0181013D01*
X0216013Y0181013D01*
X0216013Y0179261D02*
X0213387Y0179261D01*
X0213387Y0180135D02*
X0216013Y0180135D01*
X0216013Y0181009D02*
X0213387Y0181009D01*
X0223813Y0181013D02*
X0223813Y0178387D01*
X0221187Y0178387D01*
X0221187Y0181013D01*
X0223813Y0181013D01*
X0223813Y0179261D02*
X0221187Y0179261D01*
X0221187Y0180135D02*
X0223813Y0180135D01*
X0223813Y0181009D02*
X0221187Y0181009D01*
X0223813Y0184387D02*
X0223813Y0187013D01*
X0223813Y0184387D02*
X0221187Y0184387D01*
X0221187Y0187013D01*
X0223813Y0187013D01*
X0223813Y0185261D02*
X0221187Y0185261D01*
X0221187Y0186135D02*
X0223813Y0186135D01*
X0223813Y0187009D02*
X0221187Y0187009D01*
X0230587Y0169787D02*
X0233213Y0169787D01*
X0230587Y0169787D02*
X0230587Y0172413D01*
X0233213Y0172413D01*
X0233213Y0169787D01*
X0233213Y0170661D02*
X0230587Y0170661D01*
X0230587Y0171535D02*
X0233213Y0171535D01*
X0233213Y0172409D02*
X0230587Y0172409D01*
X0236587Y0169787D02*
X0239213Y0169787D01*
X0236587Y0169787D02*
X0236587Y0172413D01*
X0239213Y0172413D01*
X0239213Y0169787D01*
X0239213Y0170661D02*
X0236587Y0170661D01*
X0236587Y0171535D02*
X0239213Y0171535D01*
X0239213Y0172409D02*
X0236587Y0172409D01*
X0104387Y0181387D02*
X0104387Y0184013D01*
X0107013Y0184013D01*
X0107013Y0181387D01*
X0104387Y0181387D01*
X0104387Y0182261D02*
X0107013Y0182261D01*
X0107013Y0183135D02*
X0104387Y0183135D01*
X0104387Y0184009D02*
X0107013Y0184009D01*
X0104387Y0187387D02*
X0104387Y0190013D01*
X0107013Y0190013D01*
X0107013Y0187387D01*
X0104387Y0187387D01*
X0104387Y0188261D02*
X0107013Y0188261D01*
X0107013Y0189135D02*
X0104387Y0189135D01*
X0104387Y0190009D02*
X0107013Y0190009D01*
X0097187Y0178413D02*
X0097187Y0175787D01*
X0097187Y0178413D02*
X0099813Y0178413D01*
X0099813Y0175787D01*
X0097187Y0175787D01*
X0097187Y0176661D02*
X0099813Y0176661D01*
X0099813Y0177535D02*
X0097187Y0177535D01*
X0097187Y0178409D02*
X0099813Y0178409D01*
X0097187Y0172413D02*
X0097187Y0169787D01*
X0097187Y0172413D02*
X0099813Y0172413D01*
X0099813Y0169787D01*
X0097187Y0169787D01*
X0097187Y0170661D02*
X0099813Y0170661D01*
X0099813Y0171535D02*
X0097187Y0171535D01*
X0097187Y0172409D02*
X0099813Y0172409D01*
X0088387Y0153213D02*
X0088387Y0150587D01*
X0088387Y0153213D02*
X0091013Y0153213D01*
X0091013Y0150587D01*
X0088387Y0150587D01*
X0088387Y0151461D02*
X0091013Y0151461D01*
X0091013Y0152335D02*
X0088387Y0152335D01*
X0088387Y0153209D02*
X0091013Y0153209D01*
X0088387Y0147213D02*
X0088387Y0144587D01*
X0088387Y0147213D02*
X0091013Y0147213D01*
X0091013Y0144587D01*
X0088387Y0144587D01*
X0088387Y0145461D02*
X0091013Y0145461D01*
X0091013Y0146335D02*
X0088387Y0146335D01*
X0088387Y0147209D02*
X0091013Y0147209D01*
X0082387Y0147013D02*
X0082387Y0144387D01*
X0082387Y0147013D02*
X0085013Y0147013D01*
X0085013Y0144387D01*
X0082387Y0144387D01*
X0082387Y0145261D02*
X0085013Y0145261D01*
X0085013Y0146135D02*
X0082387Y0146135D01*
X0082387Y0147009D02*
X0085013Y0147009D01*
X0082387Y0150387D02*
X0082387Y0153013D01*
X0085013Y0153013D01*
X0085013Y0150387D01*
X0082387Y0150387D01*
X0082387Y0151261D02*
X0085013Y0151261D01*
X0085013Y0152135D02*
X0082387Y0152135D01*
X0082387Y0153009D02*
X0085013Y0153009D01*
X0086187Y0243387D02*
X0086187Y0246013D01*
X0088813Y0246013D01*
X0088813Y0243387D01*
X0086187Y0243387D01*
X0086187Y0244261D02*
X0088813Y0244261D01*
X0088813Y0245135D02*
X0086187Y0245135D01*
X0086187Y0246009D02*
X0088813Y0246009D01*
X0086187Y0249387D02*
X0086187Y0252013D01*
X0088813Y0252013D01*
X0088813Y0249387D01*
X0086187Y0249387D01*
X0086187Y0250261D02*
X0088813Y0250261D01*
X0088813Y0251135D02*
X0086187Y0251135D01*
X0086187Y0252009D02*
X0088813Y0252009D01*
D11*
X0078100Y0047700D03*
X0077900Y0115100D03*
X0077900Y0160500D03*
X0077500Y0225500D03*
X0077500Y0239700D03*
X0165900Y0277500D03*
X0192500Y0043300D03*
D12*
X0202500Y0043300D03*
X0212500Y0043300D03*
X0222500Y0043300D03*
X0232500Y0043300D03*
X0242500Y0043300D03*
X0078100Y0057700D03*
X0078100Y0067700D03*
X0078100Y0077700D03*
X0078100Y0087700D03*
X0078100Y0097700D03*
X0077900Y0125100D03*
X0077900Y0135100D03*
X0077900Y0170500D03*
X0077900Y0180500D03*
X0077500Y0195500D03*
X0077500Y0205500D03*
X0077500Y0215500D03*
X0077500Y0249700D03*
X0077500Y0259700D03*
X0077500Y0269700D03*
X0077500Y0279700D03*
X0077500Y0289700D03*
X0175900Y0277500D03*
X0185900Y0277500D03*
X0195900Y0277500D03*
D13*
X0240900Y0203774D03*
X0240900Y0188026D03*
D14*
X0206225Y0244125D02*
X0203975Y0244125D01*
X0203975Y0246875D01*
X0206225Y0246875D01*
X0206225Y0244125D01*
X0206225Y0244874D02*
X0203975Y0244874D01*
X0203975Y0245623D02*
X0206225Y0245623D01*
X0206225Y0246372D02*
X0203975Y0246372D01*
X0200225Y0244125D02*
X0197975Y0244125D01*
X0197975Y0246875D01*
X0200225Y0246875D01*
X0200225Y0244125D01*
X0200225Y0244874D02*
X0197975Y0244874D01*
X0197975Y0245623D02*
X0200225Y0245623D01*
X0200225Y0246372D02*
X0197975Y0246372D01*
X0227175Y0102275D02*
X0229425Y0102275D01*
X0229425Y0099525D01*
X0227175Y0099525D01*
X0227175Y0102275D01*
X0227175Y0100274D02*
X0229425Y0100274D01*
X0229425Y0101023D02*
X0227175Y0101023D01*
X0227175Y0101772D02*
X0229425Y0101772D01*
X0233175Y0102275D02*
X0235425Y0102275D01*
X0235425Y0099525D01*
X0233175Y0099525D01*
X0233175Y0102275D01*
X0233175Y0100274D02*
X0235425Y0100274D01*
X0235425Y0101023D02*
X0233175Y0101023D01*
X0233175Y0101772D02*
X0235425Y0101772D01*
X0235425Y0096475D02*
X0233175Y0096475D01*
X0235425Y0096475D02*
X0235425Y0093725D01*
X0233175Y0093725D01*
X0233175Y0096475D01*
X0233175Y0094474D02*
X0235425Y0094474D01*
X0235425Y0095223D02*
X0233175Y0095223D01*
X0233175Y0095972D02*
X0235425Y0095972D01*
X0235425Y0090675D02*
X0233175Y0090675D01*
X0235425Y0090675D02*
X0235425Y0087925D01*
X0233175Y0087925D01*
X0233175Y0090675D01*
X0233175Y0088674D02*
X0235425Y0088674D01*
X0235425Y0089423D02*
X0233175Y0089423D01*
X0233175Y0090172D02*
X0235425Y0090172D01*
X0229425Y0090675D02*
X0227175Y0090675D01*
X0229425Y0090675D02*
X0229425Y0087925D01*
X0227175Y0087925D01*
X0227175Y0090675D01*
X0227175Y0088674D02*
X0229425Y0088674D01*
X0229425Y0089423D02*
X0227175Y0089423D01*
X0227175Y0090172D02*
X0229425Y0090172D01*
X0229425Y0096475D02*
X0227175Y0096475D01*
X0229425Y0096475D02*
X0229425Y0093725D01*
X0227175Y0093725D01*
X0227175Y0096475D01*
X0227175Y0094474D02*
X0229425Y0094474D01*
X0229425Y0095223D02*
X0227175Y0095223D01*
X0227175Y0095972D02*
X0229425Y0095972D01*
X0219825Y0072075D02*
X0217575Y0072075D01*
X0219825Y0072075D02*
X0219825Y0069325D01*
X0217575Y0069325D01*
X0217575Y0072075D01*
X0217575Y0070074D02*
X0219825Y0070074D01*
X0219825Y0070823D02*
X0217575Y0070823D01*
X0217575Y0071572D02*
X0219825Y0071572D01*
X0213825Y0072075D02*
X0211575Y0072075D01*
X0213825Y0072075D02*
X0213825Y0069325D01*
X0211575Y0069325D01*
X0211575Y0072075D01*
X0211575Y0070074D02*
X0213825Y0070074D01*
X0213825Y0070823D02*
X0211575Y0070823D01*
X0211575Y0071572D02*
X0213825Y0071572D01*
X0213825Y0065075D02*
X0211575Y0065075D01*
X0213825Y0065075D02*
X0213825Y0062325D01*
X0211575Y0062325D01*
X0211575Y0065075D01*
X0211575Y0063074D02*
X0213825Y0063074D01*
X0213825Y0063823D02*
X0211575Y0063823D01*
X0211575Y0064572D02*
X0213825Y0064572D01*
X0217575Y0065075D02*
X0219825Y0065075D01*
X0219825Y0062325D01*
X0217575Y0062325D01*
X0217575Y0065075D01*
X0217575Y0063074D02*
X0219825Y0063074D01*
X0219825Y0063823D02*
X0217575Y0063823D01*
X0217575Y0064572D02*
X0219825Y0064572D01*
D15*
G36*
X0181831Y0106358D02*
X0185587Y0102602D01*
X0184613Y0101628D01*
X0180857Y0105384D01*
X0181831Y0106358D01*
G37*
G36*
X0183223Y0107750D02*
X0186979Y0103994D01*
X0186005Y0103020D01*
X0182249Y0106776D01*
X0183223Y0107750D01*
G37*
G36*
X0184601Y0109156D02*
X0188357Y0105400D01*
X0187383Y0104426D01*
X0183627Y0108182D01*
X0184601Y0109156D01*
G37*
G36*
X0186006Y0110534D02*
X0189762Y0106778D01*
X0188788Y0105804D01*
X0185032Y0109560D01*
X0186006Y0110534D01*
G37*
G36*
X0187398Y0111926D02*
X0191154Y0108170D01*
X0190180Y0107196D01*
X0186424Y0110952D01*
X0187398Y0111926D01*
G37*
G36*
X0188790Y0113318D02*
X0192546Y0109562D01*
X0191572Y0108588D01*
X0187816Y0112344D01*
X0188790Y0113318D01*
G37*
G36*
X0190182Y0114710D02*
X0193938Y0110954D01*
X0192964Y0109980D01*
X0189208Y0113736D01*
X0190182Y0114710D01*
G37*
G36*
X0191574Y0116102D02*
X0195330Y0112346D01*
X0194356Y0111372D01*
X0190600Y0115128D01*
X0191574Y0116102D01*
G37*
G36*
X0192966Y0117494D02*
X0196722Y0113738D01*
X0195748Y0112764D01*
X0191992Y0116520D01*
X0192966Y0117494D01*
G37*
G36*
X0194358Y0118885D02*
X0198114Y0115129D01*
X0197140Y0114155D01*
X0193384Y0117911D01*
X0194358Y0118885D01*
G37*
G36*
X0195750Y0120277D02*
X0199506Y0116521D01*
X0198532Y0115547D01*
X0194776Y0119303D01*
X0195750Y0120277D01*
G37*
G36*
X0197142Y0121669D02*
X0200898Y0117913D01*
X0199924Y0116939D01*
X0196168Y0120695D01*
X0197142Y0121669D01*
G37*
G36*
X0198534Y0123061D02*
X0202290Y0119305D01*
X0201316Y0118331D01*
X0197560Y0122087D01*
X0198534Y0123061D01*
G37*
G36*
X0199926Y0124453D02*
X0203682Y0120697D01*
X0202708Y0119723D01*
X0198952Y0123479D01*
X0199926Y0124453D01*
G37*
G36*
X0201318Y0125845D02*
X0205074Y0122089D01*
X0204100Y0121115D01*
X0200344Y0124871D01*
X0201318Y0125845D01*
G37*
G36*
X0200344Y0132529D02*
X0204100Y0136285D01*
X0205074Y0135311D01*
X0201318Y0131555D01*
X0200344Y0132529D01*
G37*
G36*
X0198952Y0133921D02*
X0202708Y0137677D01*
X0203682Y0136703D01*
X0199926Y0132947D01*
X0198952Y0133921D01*
G37*
G36*
X0197560Y0135313D02*
X0201316Y0139069D01*
X0202290Y0138095D01*
X0198534Y0134339D01*
X0197560Y0135313D01*
G37*
G36*
X0196168Y0136705D02*
X0199924Y0140461D01*
X0200898Y0139487D01*
X0197142Y0135731D01*
X0196168Y0136705D01*
G37*
G36*
X0194776Y0138097D02*
X0198532Y0141853D01*
X0199506Y0140879D01*
X0195750Y0137123D01*
X0194776Y0138097D01*
G37*
G36*
X0193384Y0139488D02*
X0197140Y0143244D01*
X0198114Y0142270D01*
X0194358Y0138514D01*
X0193384Y0139488D01*
G37*
G36*
X0191992Y0140880D02*
X0195748Y0144636D01*
X0196722Y0143662D01*
X0192966Y0139906D01*
X0191992Y0140880D01*
G37*
G36*
X0190600Y0142272D02*
X0194356Y0146028D01*
X0195330Y0145054D01*
X0191574Y0141298D01*
X0190600Y0142272D01*
G37*
G36*
X0189208Y0143664D02*
X0192964Y0147420D01*
X0193938Y0146446D01*
X0190182Y0142690D01*
X0189208Y0143664D01*
G37*
G36*
X0187816Y0145056D02*
X0191572Y0148812D01*
X0192546Y0147838D01*
X0188790Y0144082D01*
X0187816Y0145056D01*
G37*
G36*
X0186424Y0146448D02*
X0190180Y0150204D01*
X0191154Y0149230D01*
X0187398Y0145474D01*
X0186424Y0146448D01*
G37*
G36*
X0185032Y0147840D02*
X0188788Y0151596D01*
X0189762Y0150622D01*
X0186006Y0146866D01*
X0185032Y0147840D01*
G37*
G36*
X0183641Y0149232D02*
X0187397Y0152988D01*
X0188371Y0152014D01*
X0184615Y0148258D01*
X0183641Y0149232D01*
G37*
G36*
X0182249Y0150624D02*
X0186005Y0154380D01*
X0186979Y0153406D01*
X0183223Y0149650D01*
X0182249Y0150624D01*
G37*
G36*
X0180857Y0152016D02*
X0184613Y0155772D01*
X0185587Y0154798D01*
X0181831Y0151042D01*
X0180857Y0152016D01*
G37*
G36*
X0179465Y0153408D02*
X0183221Y0157164D01*
X0184195Y0156190D01*
X0180439Y0152434D01*
X0179465Y0153408D01*
G37*
G36*
X0178073Y0154800D02*
X0181829Y0158556D01*
X0182803Y0157582D01*
X0179047Y0153826D01*
X0178073Y0154800D01*
G37*
G36*
X0176681Y0156192D02*
X0180437Y0159948D01*
X0181411Y0158974D01*
X0177655Y0155218D01*
X0176681Y0156192D01*
G37*
G36*
X0175289Y0157584D02*
X0179045Y0161340D01*
X0180019Y0160366D01*
X0176263Y0156610D01*
X0175289Y0157584D01*
G37*
G36*
X0173897Y0158976D02*
X0177653Y0162732D01*
X0178627Y0161758D01*
X0174871Y0158002D01*
X0173897Y0158976D01*
G37*
G36*
X0172505Y0160368D02*
X0176261Y0164124D01*
X0177235Y0163150D01*
X0173479Y0159394D01*
X0172505Y0160368D01*
G37*
G36*
X0171113Y0161760D02*
X0174869Y0165516D01*
X0175843Y0164542D01*
X0172087Y0160786D01*
X0171113Y0161760D01*
G37*
G36*
X0169721Y0163152D02*
X0173477Y0166908D01*
X0174451Y0165934D01*
X0170695Y0162178D01*
X0169721Y0163152D01*
G37*
G36*
X0168329Y0164543D02*
X0172085Y0168299D01*
X0173059Y0167325D01*
X0169303Y0163569D01*
X0168329Y0164543D01*
G37*
G36*
X0166937Y0165935D02*
X0170693Y0169691D01*
X0171667Y0168717D01*
X0167911Y0164961D01*
X0166937Y0165935D01*
G37*
G36*
X0165545Y0167327D02*
X0169301Y0171083D01*
X0170275Y0170109D01*
X0166519Y0166353D01*
X0165545Y0167327D01*
G37*
G36*
X0164153Y0168719D02*
X0167909Y0172475D01*
X0168883Y0171501D01*
X0165127Y0167745D01*
X0164153Y0168719D01*
G37*
G36*
X0162761Y0170111D02*
X0166517Y0173867D01*
X0167491Y0172893D01*
X0163735Y0169137D01*
X0162761Y0170111D01*
G37*
G36*
X0161369Y0171503D02*
X0165125Y0175259D01*
X0166099Y0174285D01*
X0162343Y0170529D01*
X0161369Y0171503D01*
G37*
G36*
X0159977Y0172895D02*
X0163733Y0176651D01*
X0164707Y0175677D01*
X0160951Y0171921D01*
X0159977Y0172895D01*
G37*
G36*
X0158586Y0174287D02*
X0162342Y0178043D01*
X0163316Y0177069D01*
X0159560Y0173313D01*
X0158586Y0174287D01*
G37*
G36*
X0157194Y0175679D02*
X0160950Y0179435D01*
X0161924Y0178461D01*
X0158168Y0174705D01*
X0157194Y0175679D01*
G37*
G36*
X0155802Y0177071D02*
X0159558Y0180827D01*
X0160532Y0179853D01*
X0156776Y0176097D01*
X0155802Y0177071D01*
G37*
G36*
X0154410Y0178463D02*
X0158166Y0182219D01*
X0159140Y0181245D01*
X0155384Y0177489D01*
X0154410Y0178463D01*
G37*
G36*
X0153018Y0179855D02*
X0156774Y0183611D01*
X0157748Y0182637D01*
X0153992Y0178881D01*
X0153018Y0179855D01*
G37*
G36*
X0151626Y0181247D02*
X0155382Y0185003D01*
X0156356Y0184029D01*
X0152600Y0180273D01*
X0151626Y0181247D01*
G37*
G36*
X0144942Y0180273D02*
X0141186Y0184029D01*
X0142160Y0185003D01*
X0145916Y0181247D01*
X0144942Y0180273D01*
G37*
G36*
X0143550Y0178881D02*
X0139794Y0182637D01*
X0140768Y0183611D01*
X0144524Y0179855D01*
X0143550Y0178881D01*
G37*
G36*
X0142158Y0177489D02*
X0138402Y0181245D01*
X0139376Y0182219D01*
X0143132Y0178463D01*
X0142158Y0177489D01*
G37*
G36*
X0140766Y0176097D02*
X0137010Y0179853D01*
X0137984Y0180827D01*
X0141740Y0177071D01*
X0140766Y0176097D01*
G37*
G36*
X0139375Y0174705D02*
X0135619Y0178461D01*
X0136593Y0179435D01*
X0140349Y0175679D01*
X0139375Y0174705D01*
G37*
G36*
X0137983Y0173313D02*
X0134227Y0177069D01*
X0135201Y0178043D01*
X0138957Y0174287D01*
X0137983Y0173313D01*
G37*
G36*
X0136591Y0171921D02*
X0132835Y0175677D01*
X0133809Y0176651D01*
X0137565Y0172895D01*
X0136591Y0171921D01*
G37*
G36*
X0135199Y0170529D02*
X0131443Y0174285D01*
X0132417Y0175259D01*
X0136173Y0171503D01*
X0135199Y0170529D01*
G37*
G36*
X0133807Y0169137D02*
X0130051Y0172893D01*
X0131025Y0173867D01*
X0134781Y0170111D01*
X0133807Y0169137D01*
G37*
G36*
X0132415Y0167745D02*
X0128659Y0171501D01*
X0129633Y0172475D01*
X0133389Y0168719D01*
X0132415Y0167745D01*
G37*
G36*
X0131023Y0166353D02*
X0127267Y0170109D01*
X0128241Y0171083D01*
X0131997Y0167327D01*
X0131023Y0166353D01*
G37*
G36*
X0129631Y0164961D02*
X0125875Y0168717D01*
X0126849Y0169691D01*
X0130605Y0165935D01*
X0129631Y0164961D01*
G37*
G36*
X0128239Y0163569D02*
X0124483Y0167325D01*
X0125457Y0168299D01*
X0129213Y0164543D01*
X0128239Y0163569D01*
G37*
G36*
X0126847Y0162178D02*
X0123091Y0165934D01*
X0124065Y0166908D01*
X0127821Y0163152D01*
X0126847Y0162178D01*
G37*
G36*
X0125455Y0160786D02*
X0121699Y0164542D01*
X0122673Y0165516D01*
X0126429Y0161760D01*
X0125455Y0160786D01*
G37*
G36*
X0124063Y0159394D02*
X0120307Y0163150D01*
X0121281Y0164124D01*
X0125037Y0160368D01*
X0124063Y0159394D01*
G37*
G36*
X0122671Y0158002D02*
X0118915Y0161758D01*
X0119889Y0162732D01*
X0123645Y0158976D01*
X0122671Y0158002D01*
G37*
G36*
X0121279Y0156610D02*
X0117523Y0160366D01*
X0118497Y0161340D01*
X0122253Y0157584D01*
X0121279Y0156610D01*
G37*
G36*
X0119887Y0155218D02*
X0116131Y0158974D01*
X0117105Y0159948D01*
X0120861Y0156192D01*
X0119887Y0155218D01*
G37*
G36*
X0118495Y0153826D02*
X0114739Y0157582D01*
X0115713Y0158556D01*
X0119469Y0154800D01*
X0118495Y0153826D01*
G37*
G36*
X0117103Y0152434D02*
X0113347Y0156190D01*
X0114321Y0157164D01*
X0118077Y0153408D01*
X0117103Y0152434D01*
G37*
G36*
X0115711Y0151042D02*
X0111955Y0154798D01*
X0112929Y0155772D01*
X0116685Y0152016D01*
X0115711Y0151042D01*
G37*
G36*
X0114320Y0149650D02*
X0110564Y0153406D01*
X0111538Y0154380D01*
X0115294Y0150624D01*
X0114320Y0149650D01*
G37*
G36*
X0112928Y0148258D02*
X0109172Y0152014D01*
X0110146Y0152988D01*
X0113902Y0149232D01*
X0112928Y0148258D01*
G37*
G36*
X0111536Y0146866D02*
X0107780Y0150622D01*
X0108754Y0151596D01*
X0112510Y0147840D01*
X0111536Y0146866D01*
G37*
G36*
X0110144Y0145474D02*
X0106388Y0149230D01*
X0107362Y0150204D01*
X0111118Y0146448D01*
X0110144Y0145474D01*
G37*
G36*
X0108752Y0144082D02*
X0104996Y0147838D01*
X0105970Y0148812D01*
X0109726Y0145056D01*
X0108752Y0144082D01*
G37*
G36*
X0107360Y0142690D02*
X0103604Y0146446D01*
X0104578Y0147420D01*
X0108334Y0143664D01*
X0107360Y0142690D01*
G37*
G36*
X0105968Y0141298D02*
X0102212Y0145054D01*
X0103186Y0146028D01*
X0106942Y0142272D01*
X0105968Y0141298D01*
G37*
G36*
X0104576Y0139906D02*
X0100820Y0143662D01*
X0101794Y0144636D01*
X0105550Y0140880D01*
X0104576Y0139906D01*
G37*
G36*
X0103184Y0138514D02*
X0099428Y0142270D01*
X0100402Y0143244D01*
X0104158Y0139488D01*
X0103184Y0138514D01*
G37*
G36*
X0101792Y0137123D02*
X0098036Y0140879D01*
X0099010Y0141853D01*
X0102766Y0138097D01*
X0101792Y0137123D01*
G37*
G36*
X0100400Y0135731D02*
X0096644Y0139487D01*
X0097618Y0140461D01*
X0101374Y0136705D01*
X0100400Y0135731D01*
G37*
G36*
X0099008Y0134339D02*
X0095252Y0138095D01*
X0096226Y0139069D01*
X0099982Y0135313D01*
X0099008Y0134339D01*
G37*
G36*
X0097616Y0132947D02*
X0093860Y0136703D01*
X0094834Y0137677D01*
X0098590Y0133921D01*
X0097616Y0132947D01*
G37*
G36*
X0096224Y0131555D02*
X0092468Y0135311D01*
X0093442Y0136285D01*
X0097198Y0132529D01*
X0096224Y0131555D01*
G37*
G36*
X0097198Y0124871D02*
X0093442Y0121115D01*
X0092468Y0122089D01*
X0096224Y0125845D01*
X0097198Y0124871D01*
G37*
G36*
X0098590Y0123479D02*
X0094834Y0119723D01*
X0093860Y0120697D01*
X0097616Y0124453D01*
X0098590Y0123479D01*
G37*
G36*
X0099982Y0122087D02*
X0096226Y0118331D01*
X0095252Y0119305D01*
X0099008Y0123061D01*
X0099982Y0122087D01*
G37*
G36*
X0101374Y0120695D02*
X0097618Y0116939D01*
X0096644Y0117913D01*
X0100400Y0121669D01*
X0101374Y0120695D01*
G37*
G36*
X0102766Y0119303D02*
X0099010Y0115547D01*
X0098036Y0116521D01*
X0101792Y0120277D01*
X0102766Y0119303D01*
G37*
G36*
X0104158Y0117911D02*
X0100402Y0114155D01*
X0099428Y0115129D01*
X0103184Y0118885D01*
X0104158Y0117911D01*
G37*
G36*
X0105550Y0116520D02*
X0101794Y0112764D01*
X0100820Y0113738D01*
X0104576Y0117494D01*
X0105550Y0116520D01*
G37*
G36*
X0106942Y0115128D02*
X0103186Y0111372D01*
X0102212Y0112346D01*
X0105968Y0116102D01*
X0106942Y0115128D01*
G37*
G36*
X0108334Y0113736D02*
X0104578Y0109980D01*
X0103604Y0110954D01*
X0107360Y0114710D01*
X0108334Y0113736D01*
G37*
G36*
X0109726Y0112344D02*
X0105970Y0108588D01*
X0104996Y0109562D01*
X0108752Y0113318D01*
X0109726Y0112344D01*
G37*
G36*
X0111118Y0110952D02*
X0107362Y0107196D01*
X0106388Y0108170D01*
X0110144Y0111926D01*
X0111118Y0110952D01*
G37*
G36*
X0112510Y0109560D02*
X0108754Y0105804D01*
X0107780Y0106778D01*
X0111536Y0110534D01*
X0112510Y0109560D01*
G37*
G36*
X0113902Y0108168D02*
X0110146Y0104412D01*
X0109172Y0105386D01*
X0112928Y0109142D01*
X0113902Y0108168D01*
G37*
G36*
X0115294Y0106776D02*
X0111538Y0103020D01*
X0110564Y0103994D01*
X0114320Y0107750D01*
X0115294Y0106776D01*
G37*
G36*
X0116685Y0105384D02*
X0112929Y0101628D01*
X0111955Y0102602D01*
X0115711Y0106358D01*
X0116685Y0105384D01*
G37*
G36*
X0118077Y0103992D02*
X0114321Y0100236D01*
X0113347Y0101210D01*
X0117103Y0104966D01*
X0118077Y0103992D01*
G37*
G36*
X0119469Y0102600D02*
X0115713Y0098844D01*
X0114739Y0099818D01*
X0118495Y0103574D01*
X0119469Y0102600D01*
G37*
G36*
X0120861Y0101208D02*
X0117105Y0097452D01*
X0116131Y0098426D01*
X0119887Y0102182D01*
X0120861Y0101208D01*
G37*
G36*
X0122253Y0099816D02*
X0118497Y0096060D01*
X0117523Y0097034D01*
X0121279Y0100790D01*
X0122253Y0099816D01*
G37*
G36*
X0123645Y0098424D02*
X0119889Y0094668D01*
X0118915Y0095642D01*
X0122671Y0099398D01*
X0123645Y0098424D01*
G37*
G36*
X0125037Y0097032D02*
X0121281Y0093276D01*
X0120307Y0094250D01*
X0124063Y0098006D01*
X0125037Y0097032D01*
G37*
G36*
X0126429Y0095640D02*
X0122673Y0091884D01*
X0121699Y0092858D01*
X0125455Y0096614D01*
X0126429Y0095640D01*
G37*
G36*
X0127821Y0094248D02*
X0124065Y0090492D01*
X0123091Y0091466D01*
X0126847Y0095222D01*
X0127821Y0094248D01*
G37*
G36*
X0129213Y0092857D02*
X0125457Y0089101D01*
X0124483Y0090075D01*
X0128239Y0093831D01*
X0129213Y0092857D01*
G37*
G36*
X0130605Y0091465D02*
X0126849Y0087709D01*
X0125875Y0088683D01*
X0129631Y0092439D01*
X0130605Y0091465D01*
G37*
G36*
X0131997Y0090073D02*
X0128241Y0086317D01*
X0127267Y0087291D01*
X0131023Y0091047D01*
X0131997Y0090073D01*
G37*
G36*
X0133389Y0088681D02*
X0129633Y0084925D01*
X0128659Y0085899D01*
X0132415Y0089655D01*
X0133389Y0088681D01*
G37*
G36*
X0134781Y0087289D02*
X0131025Y0083533D01*
X0130051Y0084507D01*
X0133807Y0088263D01*
X0134781Y0087289D01*
G37*
G36*
X0136173Y0085897D02*
X0132417Y0082141D01*
X0131443Y0083115D01*
X0135199Y0086871D01*
X0136173Y0085897D01*
G37*
G36*
X0137565Y0084505D02*
X0133809Y0080749D01*
X0132835Y0081723D01*
X0136591Y0085479D01*
X0137565Y0084505D01*
G37*
G36*
X0138957Y0083113D02*
X0135201Y0079357D01*
X0134227Y0080331D01*
X0137983Y0084087D01*
X0138957Y0083113D01*
G37*
G36*
X0140349Y0081721D02*
X0136593Y0077965D01*
X0135619Y0078939D01*
X0139375Y0082695D01*
X0140349Y0081721D01*
G37*
G36*
X0141740Y0080329D02*
X0137984Y0076573D01*
X0137010Y0077547D01*
X0140766Y0081303D01*
X0141740Y0080329D01*
G37*
G36*
X0143132Y0078937D02*
X0139376Y0075181D01*
X0138402Y0076155D01*
X0142158Y0079911D01*
X0143132Y0078937D01*
G37*
G36*
X0144524Y0077545D02*
X0140768Y0073789D01*
X0139794Y0074763D01*
X0143550Y0078519D01*
X0144524Y0077545D01*
G37*
G36*
X0145916Y0076153D02*
X0142160Y0072397D01*
X0141186Y0073371D01*
X0144942Y0077127D01*
X0145916Y0076153D01*
G37*
G36*
X0152600Y0077127D02*
X0156356Y0073371D01*
X0155382Y0072397D01*
X0151626Y0076153D01*
X0152600Y0077127D01*
G37*
G36*
X0153992Y0078519D02*
X0157748Y0074763D01*
X0156774Y0073789D01*
X0153018Y0077545D01*
X0153992Y0078519D01*
G37*
G36*
X0155384Y0079911D02*
X0159140Y0076155D01*
X0158166Y0075181D01*
X0154410Y0078937D01*
X0155384Y0079911D01*
G37*
G36*
X0156776Y0081303D02*
X0160532Y0077547D01*
X0159558Y0076573D01*
X0155802Y0080329D01*
X0156776Y0081303D01*
G37*
G36*
X0158168Y0082695D02*
X0161924Y0078939D01*
X0160950Y0077965D01*
X0157194Y0081721D01*
X0158168Y0082695D01*
G37*
G36*
X0159560Y0084087D02*
X0163316Y0080331D01*
X0162342Y0079357D01*
X0158586Y0083113D01*
X0159560Y0084087D01*
G37*
G36*
X0160951Y0085479D02*
X0164707Y0081723D01*
X0163733Y0080749D01*
X0159977Y0084505D01*
X0160951Y0085479D01*
G37*
G36*
X0162343Y0086871D02*
X0166099Y0083115D01*
X0165125Y0082141D01*
X0161369Y0085897D01*
X0162343Y0086871D01*
G37*
G36*
X0163735Y0088263D02*
X0167491Y0084507D01*
X0166517Y0083533D01*
X0162761Y0087289D01*
X0163735Y0088263D01*
G37*
G36*
X0165127Y0089655D02*
X0168883Y0085899D01*
X0167909Y0084925D01*
X0164153Y0088681D01*
X0165127Y0089655D01*
G37*
G36*
X0166519Y0091047D02*
X0170275Y0087291D01*
X0169301Y0086317D01*
X0165545Y0090073D01*
X0166519Y0091047D01*
G37*
G36*
X0167911Y0092439D02*
X0171667Y0088683D01*
X0170693Y0087709D01*
X0166937Y0091465D01*
X0167911Y0092439D01*
G37*
G36*
X0169289Y0093844D02*
X0173045Y0090088D01*
X0172071Y0089114D01*
X0168315Y0092870D01*
X0169289Y0093844D01*
G37*
G36*
X0170695Y0095222D02*
X0174451Y0091466D01*
X0173477Y0090492D01*
X0169721Y0094248D01*
X0170695Y0095222D01*
G37*
G36*
X0172087Y0096614D02*
X0175843Y0092858D01*
X0174869Y0091884D01*
X0171113Y0095640D01*
X0172087Y0096614D01*
G37*
G36*
X0173479Y0098006D02*
X0177235Y0094250D01*
X0176261Y0093276D01*
X0172505Y0097032D01*
X0173479Y0098006D01*
G37*
G36*
X0174871Y0099398D02*
X0178627Y0095642D01*
X0177653Y0094668D01*
X0173897Y0098424D01*
X0174871Y0099398D01*
G37*
G36*
X0176263Y0100790D02*
X0180019Y0097034D01*
X0179045Y0096060D01*
X0175289Y0099816D01*
X0176263Y0100790D01*
G37*
G36*
X0177655Y0102182D02*
X0181411Y0098426D01*
X0180437Y0097452D01*
X0176681Y0101208D01*
X0177655Y0102182D01*
G37*
G36*
X0179047Y0103574D02*
X0182803Y0099818D01*
X0181829Y0098844D01*
X0178073Y0102600D01*
X0179047Y0103574D01*
G37*
G36*
X0180439Y0104966D02*
X0184195Y0101210D01*
X0183221Y0100236D01*
X0179465Y0103992D01*
X0180439Y0104966D01*
G37*
D16*
X0144129Y0214629D02*
X0144129Y0214629D01*
X0139995Y0214629D01*
X0139995Y0214629D01*
X0144129Y0214629D01*
X0144129Y0217779D02*
X0144129Y0217779D01*
X0139995Y0217779D01*
X0139995Y0217779D01*
X0144129Y0217779D01*
X0144129Y0220928D02*
X0144129Y0220928D01*
X0139995Y0220928D01*
X0139995Y0220928D01*
X0144129Y0220928D01*
X0144129Y0224078D02*
X0144129Y0224078D01*
X0139995Y0224078D01*
X0139995Y0224078D01*
X0144129Y0224078D01*
X0144129Y0227228D02*
X0144129Y0227228D01*
X0139995Y0227228D01*
X0139995Y0227228D01*
X0144129Y0227228D01*
X0144129Y0230377D02*
X0144129Y0230377D01*
X0139995Y0230377D01*
X0139995Y0230377D01*
X0144129Y0230377D01*
X0144129Y0233527D02*
X0144129Y0233527D01*
X0139995Y0233527D01*
X0139995Y0233527D01*
X0144129Y0233527D01*
X0144129Y0236676D02*
X0144129Y0236676D01*
X0139995Y0236676D01*
X0139995Y0236676D01*
X0144129Y0236676D01*
X0144129Y0239826D02*
X0144129Y0239826D01*
X0139995Y0239826D01*
X0139995Y0239826D01*
X0144129Y0239826D01*
X0144129Y0242976D02*
X0144129Y0242976D01*
X0139995Y0242976D01*
X0139995Y0242976D01*
X0144129Y0242976D01*
X0144129Y0246125D02*
X0144129Y0246125D01*
X0139995Y0246125D01*
X0139995Y0246125D01*
X0144129Y0246125D01*
X0144129Y0249275D02*
X0144129Y0249275D01*
X0139995Y0249275D01*
X0139995Y0249275D01*
X0144129Y0249275D01*
X0144129Y0252424D02*
X0144129Y0252424D01*
X0139995Y0252424D01*
X0139995Y0252424D01*
X0144129Y0252424D01*
X0144129Y0255574D02*
X0144129Y0255574D01*
X0139995Y0255574D01*
X0139995Y0255574D01*
X0144129Y0255574D01*
X0144129Y0258724D02*
X0144129Y0258724D01*
X0139995Y0258724D01*
X0139995Y0258724D01*
X0144129Y0258724D01*
X0144129Y0261873D02*
X0144129Y0261873D01*
X0139995Y0261873D01*
X0139995Y0261873D01*
X0144129Y0261873D01*
X0144129Y0265023D02*
X0144129Y0265023D01*
X0139995Y0265023D01*
X0139995Y0265023D01*
X0144129Y0265023D01*
X0144129Y0268172D02*
X0144129Y0268172D01*
X0139995Y0268172D01*
X0139995Y0268172D01*
X0144129Y0268172D01*
X0144129Y0271322D02*
X0144129Y0271322D01*
X0139995Y0271322D01*
X0139995Y0271322D01*
X0144129Y0271322D01*
X0144129Y0274472D02*
X0144129Y0274472D01*
X0139995Y0274472D01*
X0139995Y0274472D01*
X0144129Y0274472D01*
X0144129Y0277621D02*
X0144129Y0277621D01*
X0139995Y0277621D01*
X0139995Y0277621D01*
X0144129Y0277621D01*
X0144129Y0280771D02*
X0144129Y0280771D01*
X0139995Y0280771D01*
X0139995Y0280771D01*
X0144129Y0280771D01*
X0095271Y0280771D02*
X0095271Y0280771D01*
X0099405Y0280771D01*
X0099405Y0280771D01*
X0095271Y0280771D01*
X0095271Y0277621D02*
X0095271Y0277621D01*
X0099405Y0277621D01*
X0099405Y0277621D01*
X0095271Y0277621D01*
X0095271Y0274472D02*
X0095271Y0274472D01*
X0099405Y0274472D01*
X0099405Y0274472D01*
X0095271Y0274472D01*
X0095271Y0271322D02*
X0095271Y0271322D01*
X0099405Y0271322D01*
X0099405Y0271322D01*
X0095271Y0271322D01*
X0095271Y0268172D02*
X0095271Y0268172D01*
X0099405Y0268172D01*
X0099405Y0268172D01*
X0095271Y0268172D01*
X0095271Y0265023D02*
X0095271Y0265023D01*
X0099405Y0265023D01*
X0099405Y0265023D01*
X0095271Y0265023D01*
X0095271Y0261873D02*
X0095271Y0261873D01*
X0099405Y0261873D01*
X0099405Y0261873D01*
X0095271Y0261873D01*
X0095271Y0258724D02*
X0095271Y0258724D01*
X0099405Y0258724D01*
X0099405Y0258724D01*
X0095271Y0258724D01*
X0095271Y0255574D02*
X0095271Y0255574D01*
X0099405Y0255574D01*
X0099405Y0255574D01*
X0095271Y0255574D01*
X0095271Y0252424D02*
X0095271Y0252424D01*
X0099405Y0252424D01*
X0099405Y0252424D01*
X0095271Y0252424D01*
X0095271Y0249275D02*
X0095271Y0249275D01*
X0099405Y0249275D01*
X0099405Y0249275D01*
X0095271Y0249275D01*
X0095271Y0246125D02*
X0095271Y0246125D01*
X0099405Y0246125D01*
X0099405Y0246125D01*
X0095271Y0246125D01*
X0095271Y0242976D02*
X0095271Y0242976D01*
X0099405Y0242976D01*
X0099405Y0242976D01*
X0095271Y0242976D01*
X0095271Y0239826D02*
X0095271Y0239826D01*
X0099405Y0239826D01*
X0099405Y0239826D01*
X0095271Y0239826D01*
X0095271Y0236676D02*
X0095271Y0236676D01*
X0099405Y0236676D01*
X0099405Y0236676D01*
X0095271Y0236676D01*
X0095271Y0233527D02*
X0095271Y0233527D01*
X0099405Y0233527D01*
X0099405Y0233527D01*
X0095271Y0233527D01*
X0095271Y0230377D02*
X0095271Y0230377D01*
X0099405Y0230377D01*
X0099405Y0230377D01*
X0095271Y0230377D01*
X0095271Y0227228D02*
X0095271Y0227228D01*
X0099405Y0227228D01*
X0099405Y0227228D01*
X0095271Y0227228D01*
X0095271Y0224078D02*
X0095271Y0224078D01*
X0099405Y0224078D01*
X0099405Y0224078D01*
X0095271Y0224078D01*
X0095271Y0220928D02*
X0095271Y0220928D01*
X0099405Y0220928D01*
X0099405Y0220928D01*
X0095271Y0220928D01*
X0095271Y0217779D02*
X0095271Y0217779D01*
X0099405Y0217779D01*
X0099405Y0217779D01*
X0095271Y0217779D01*
X0095271Y0214629D02*
X0095271Y0214629D01*
X0099405Y0214629D01*
X0099405Y0214629D01*
X0095271Y0214629D01*
D17*
X0138100Y0065756D03*
X0154500Y0065156D03*
X0171100Y0065356D03*
X0171100Y0034844D03*
X0154500Y0034644D03*
X0138100Y0035244D03*
D18*
X0227842Y0217026D03*
X0227842Y0224900D03*
X0227842Y0232774D03*
X0245558Y0232774D03*
X0245558Y0224900D03*
X0245558Y0217026D03*
D19*
X0243527Y0161200D03*
X0243527Y0156200D03*
X0243527Y0151200D03*
X0243527Y0146200D03*
X0221873Y0146200D03*
X0221873Y0151200D03*
X0221873Y0156200D03*
X0221873Y0161200D03*
D20*
X0190600Y0194500D03*
X0190600Y0203500D03*
X0190600Y0212500D03*
D21*
X0215600Y0203500D03*
D22*
X0226601Y0257800D03*
X0229750Y0257800D03*
X0232900Y0257800D03*
X0236050Y0257800D03*
X0239199Y0257800D03*
D23*
X0250617Y0258957D03*
X0250617Y0280611D03*
X0215183Y0280611D03*
X0215183Y0258957D03*
D24*
X0205732Y0090825D02*
X0202982Y0090825D01*
X0202982Y0092575D01*
X0205732Y0092575D01*
X0205732Y0090825D01*
X0205732Y0092574D02*
X0202982Y0092574D01*
X0202982Y0082825D02*
X0205732Y0082825D01*
X0202982Y0082825D02*
X0202982Y0084575D01*
X0205732Y0084575D01*
X0205732Y0082825D01*
X0205732Y0084574D02*
X0202982Y0084574D01*
X0195732Y0082825D02*
X0192982Y0082825D01*
X0192982Y0084575D01*
X0195732Y0084575D01*
X0195732Y0082825D01*
X0195732Y0084574D02*
X0192982Y0084574D01*
X0192982Y0090825D02*
X0195732Y0090825D01*
X0192982Y0090825D02*
X0192982Y0092575D01*
X0195732Y0092575D01*
X0195732Y0090825D01*
X0195732Y0092574D02*
X0192982Y0092574D01*
D25*
X0189600Y0092600D02*
X0188500Y0093700D01*
X0188200Y0094000D01*
X0187300Y0094900D01*
X0187300Y0099915D01*
X0183222Y0103993D01*
X0184614Y0105385D02*
X0187300Y0102699D01*
X0187300Y0102100D01*
X0189993Y0099407D01*
X0189993Y0098407D01*
X0190900Y0097500D01*
X0190900Y0084700D01*
X0191900Y0083700D01*
X0194357Y0083700D01*
X0194500Y0083557D01*
X0194500Y0078100D01*
X0196300Y0076300D01*
X0192300Y0070700D02*
X0189600Y0073400D01*
X0189600Y0092600D01*
X0187900Y0091900D02*
X0186100Y0093700D01*
X0186100Y0098331D01*
X0181830Y0102601D01*
X0177654Y0098425D02*
X0186700Y0089379D01*
X0186700Y0071500D01*
X0190900Y0067300D01*
X0200500Y0067300D01*
X0202500Y0065300D01*
X0202500Y0043300D01*
X0189100Y0056700D02*
X0189300Y0056900D01*
X0189100Y0056700D02*
X0189100Y0052900D01*
X0183300Y0056900D02*
X0183300Y0064300D01*
X0182244Y0065356D01*
X0171100Y0065356D01*
X0183300Y0064300D02*
X0183300Y0069300D01*
X0183700Y0069700D01*
X0187900Y0072100D02*
X0187900Y0091900D01*
X0180500Y0092795D02*
X0180500Y0084900D01*
X0180300Y0084700D01*
X0176500Y0084700D01*
X0176500Y0078700D02*
X0180300Y0078700D01*
X0180500Y0078900D01*
X0187900Y0072100D02*
X0191500Y0068500D01*
X0207700Y0068500D01*
X0208900Y0067300D01*
X0208900Y0064300D01*
X0209500Y0063700D01*
X0212700Y0063700D01*
X0218700Y0063700D02*
X0224900Y0063700D01*
X0230900Y0063700D02*
X0231500Y0064300D01*
X0231500Y0070700D01*
X0231500Y0075500D01*
X0231700Y0075700D01*
X0225500Y0070700D02*
X0218700Y0070700D01*
X0212700Y0070700D02*
X0192300Y0070700D01*
X0193900Y0064300D02*
X0189300Y0064300D01*
X0202300Y0076300D02*
X0207100Y0076300D01*
X0207700Y0076900D01*
X0210086Y0091500D02*
X0204357Y0091500D01*
X0204357Y0091700D01*
X0204357Y0097643D01*
X0203593Y0098407D01*
X0195993Y0098407D01*
X0195993Y0100907D01*
X0195100Y0101800D01*
X0189900Y0101800D01*
X0188800Y0102900D01*
X0188800Y0103982D01*
X0185992Y0106791D01*
X0187397Y0108169D02*
X0190900Y0104666D01*
X0190900Y0103900D01*
X0193850Y0104500D02*
X0188789Y0109561D01*
X0190181Y0110953D02*
X0194234Y0106900D01*
X0195100Y0106900D01*
X0199900Y0102100D01*
X0204700Y0102100D01*
X0207700Y0099100D01*
X0223300Y0099100D01*
X0224500Y0097900D01*
X0224500Y0090100D01*
X0225300Y0089300D01*
X0228300Y0089300D01*
X0228300Y0095100D02*
X0226100Y0095100D01*
X0225700Y0095500D01*
X0225700Y0099100D01*
X0224500Y0100300D01*
X0208300Y0100300D01*
X0205300Y0103300D01*
X0200618Y0103300D01*
X0191573Y0112345D01*
X0192965Y0113737D02*
X0202202Y0104500D01*
X0205900Y0104500D01*
X0208300Y0102100D01*
X0225100Y0102100D01*
X0226300Y0100900D01*
X0228300Y0100900D01*
X0234300Y0100900D02*
X0240300Y0100900D01*
X0240300Y0095200D02*
X0234400Y0095200D01*
X0234300Y0095100D01*
X0234300Y0089300D02*
X0234400Y0089200D01*
X0240300Y0089200D01*
X0246100Y0089000D02*
X0246100Y0084100D01*
X0246100Y0089000D02*
X0246300Y0089200D01*
X0246300Y0095200D01*
X0246300Y0100900D01*
X0222700Y0106300D02*
X0222500Y0106500D01*
X0218900Y0106500D01*
X0218900Y0112500D02*
X0218593Y0112807D01*
X0218593Y0118393D01*
X0218593Y0123993D01*
X0218900Y0124300D01*
X0212900Y0124300D02*
X0212900Y0118700D01*
X0212593Y0118393D01*
X0212593Y0117793D01*
X0209500Y0114700D01*
X0203137Y0114700D01*
X0198533Y0119304D01*
X0197141Y0117912D01*
X0202553Y0112500D01*
X0212900Y0112500D01*
X0212900Y0106500D02*
X0208500Y0106500D01*
X0208300Y0106300D01*
X0203186Y0106300D01*
X0194357Y0115129D01*
X0195749Y0116520D02*
X0202370Y0109900D01*
X0203500Y0109900D01*
X0203500Y0117700D02*
X0202921Y0117700D01*
X0199925Y0120696D01*
X0202709Y0123480D02*
X0199489Y0126700D01*
X0199300Y0126700D01*
X0198105Y0132100D02*
X0198100Y0132100D01*
X0198105Y0132100D02*
X0201317Y0135312D01*
X0199925Y0136704D02*
X0202521Y0139300D01*
X0204700Y0139300D01*
X0206500Y0141100D01*
X0206500Y0152900D01*
X0206500Y0157300D01*
X0205900Y0159700D02*
X0209500Y0159700D01*
X0210700Y0158500D01*
X0210700Y0157300D01*
X0211800Y0156200D01*
X0221873Y0156200D01*
X0221873Y0161200D02*
X0205600Y0161200D01*
X0202300Y0157900D01*
X0202300Y0150100D01*
X0200500Y0148300D01*
X0199300Y0148300D01*
X0197500Y0146500D01*
X0197500Y0145414D01*
X0194357Y0142271D01*
X0195749Y0140879D02*
X0199900Y0145030D01*
X0199900Y0145300D01*
X0203500Y0145846D02*
X0197141Y0139488D01*
X0198533Y0138096D02*
X0202137Y0141700D01*
X0203500Y0141700D01*
X0203500Y0145846D02*
X0203500Y0157300D01*
X0205900Y0159700D01*
X0201700Y0160750D02*
X0201700Y0164700D01*
X0201700Y0160750D02*
X0188789Y0147839D01*
X0184614Y0152015D02*
X0188500Y0155901D01*
X0188500Y0156100D01*
X0186100Y0157300D02*
X0184331Y0157300D01*
X0181830Y0154799D01*
X0183222Y0153407D02*
X0180100Y0150285D01*
X0180100Y0150100D01*
X0180438Y0156191D02*
X0183947Y0159700D01*
X0184900Y0159700D01*
X0183400Y0161200D02*
X0182200Y0160000D01*
X0181463Y0160000D01*
X0179046Y0157583D01*
X0177654Y0158975D02*
X0180779Y0162100D01*
X0181300Y0162100D01*
X0183400Y0161800D02*
X0183400Y0161200D01*
X0183400Y0161800D02*
X0184300Y0162700D01*
X0184900Y0162700D01*
X0181300Y0165100D02*
X0178300Y0162100D01*
X0177995Y0162100D01*
X0176262Y0160367D01*
X0174870Y0161759D02*
X0178211Y0165100D01*
X0178300Y0165100D01*
X0178300Y0168100D02*
X0175200Y0165000D01*
X0175200Y0164873D01*
X0173478Y0163151D01*
X0172086Y0164543D02*
X0175300Y0167756D01*
X0175300Y0168100D01*
X0172900Y0168140D02*
X0170694Y0165934D01*
X0169302Y0167326D02*
X0166300Y0164324D01*
X0166300Y0163900D01*
X0167910Y0168718D02*
X0170292Y0171100D01*
X0171700Y0171100D01*
X0172700Y0172100D01*
X0172700Y0186700D01*
X0168700Y0186700D01*
X0165100Y0185395D02*
X0165100Y0267700D01*
X0166300Y0268900D01*
X0194500Y0268900D01*
X0195900Y0270300D01*
X0195900Y0277500D01*
X0207700Y0285100D02*
X0209500Y0283300D01*
X0209500Y0242500D01*
X0211900Y0240100D01*
X0234700Y0240100D01*
X0236500Y0238300D01*
X0236500Y0226900D01*
X0238300Y0225100D01*
X0245358Y0225100D01*
X0245558Y0224900D01*
X0247026Y0203774D02*
X0240900Y0203774D01*
X0247026Y0203774D02*
X0250300Y0200500D01*
X0250300Y0056500D01*
X0249100Y0055300D01*
X0242100Y0055300D01*
X0241500Y0054700D01*
X0242500Y0053700D01*
X0242500Y0043300D01*
X0232500Y0043300D02*
X0232500Y0051700D01*
X0235500Y0054700D01*
X0216086Y0091500D02*
X0216086Y0096100D01*
X0216100Y0096100D01*
X0218900Y0112500D02*
X0223100Y0112500D01*
X0223300Y0112300D01*
X0212900Y0124300D02*
X0212700Y0124500D01*
X0212700Y0130300D01*
X0218700Y0130300D02*
X0222700Y0130300D01*
X0221873Y0146200D02*
X0221873Y0151200D01*
X0229200Y0151200D01*
X0229300Y0151300D01*
X0233500Y0156100D02*
X0231900Y0157700D01*
X0231900Y0171100D01*
X0237900Y0171100D02*
X0242500Y0171100D01*
X0243700Y0164500D02*
X0243527Y0164327D01*
X0243527Y0161200D01*
X0243527Y0156200D02*
X0237200Y0156200D01*
X0237100Y0156100D01*
X0233500Y0156100D01*
X0237700Y0150700D02*
X0243027Y0150700D01*
X0243527Y0151200D01*
X0243527Y0146200D02*
X0243100Y0145773D01*
X0243100Y0142300D01*
X0212500Y0148900D02*
X0212500Y0152900D01*
X0205900Y0170500D02*
X0205700Y0170700D01*
X0201700Y0170700D01*
X0195700Y0179100D02*
X0195700Y0183100D01*
X0189700Y0183700D02*
X0189700Y0179100D01*
X0189700Y0160900D01*
X0186100Y0157300D01*
X0172900Y0168700D02*
X0175300Y0171100D01*
X0172900Y0168700D02*
X0172900Y0168140D01*
X0169900Y0173492D02*
X0166518Y0170110D01*
X0165126Y0171502D02*
X0132924Y0139300D01*
X0118300Y0139300D01*
X0115900Y0136900D02*
X0155500Y0097300D01*
X0155500Y0094300D01*
X0145900Y0084700D01*
X0144100Y0084700D01*
X0142900Y0083500D01*
X0142900Y0082463D01*
X0139375Y0078938D01*
X0140767Y0077546D02*
X0145300Y0082079D01*
X0145300Y0082300D01*
X0142159Y0076154D02*
X0138705Y0072700D01*
X0121300Y0072700D01*
X0120100Y0071500D01*
X0120100Y0068100D01*
X0120100Y0062100D02*
X0119900Y0061900D01*
X0116500Y0061900D01*
X0126300Y0062100D02*
X0129900Y0062100D01*
X0130300Y0062500D01*
X0130300Y0067900D02*
X0130300Y0069700D01*
X0131500Y0070900D01*
X0139689Y0070900D01*
X0143551Y0074762D01*
X0141700Y0069100D02*
X0141700Y0066700D01*
X0140756Y0065756D01*
X0138100Y0065756D01*
X0141700Y0069100D02*
X0151300Y0078700D01*
X0152837Y0078700D01*
X0155383Y0076154D01*
X0148900Y0066100D02*
X0149844Y0065156D01*
X0154500Y0065156D01*
X0166518Y0087290D02*
X0161308Y0092500D01*
X0160300Y0092500D01*
X0158500Y0094300D01*
X0161500Y0094900D02*
X0161500Y0095500D01*
X0161500Y0094900D02*
X0165100Y0091300D01*
X0165292Y0091300D01*
X0167910Y0088682D01*
X0169302Y0090074D02*
X0165900Y0093476D01*
X0165900Y0093500D01*
X0168100Y0094060D02*
X0168100Y0094300D01*
X0165900Y0096500D01*
X0165900Y0096700D01*
X0169000Y0096500D02*
X0169000Y0095944D01*
X0172086Y0092857D01*
X0170680Y0091479D02*
X0168100Y0094060D01*
X0171100Y0096700D02*
X0171100Y0097400D01*
X0169800Y0098700D01*
X0169027Y0098700D01*
X0159027Y0108700D01*
X0157900Y0108700D01*
X0151900Y0096100D02*
X0113500Y0134500D01*
X0111100Y0132100D02*
X0119500Y0123700D01*
X0119500Y0123100D01*
X0115300Y0118300D02*
X0115300Y0117100D01*
X0113500Y0115300D01*
X0113500Y0114100D01*
X0108961Y0109561D01*
X0108753Y0109561D01*
X0110145Y0108169D02*
X0113076Y0111100D01*
X0114100Y0111100D01*
X0111100Y0114700D02*
X0107361Y0110961D01*
X0107361Y0110953D01*
X0111537Y0106777D02*
X0104860Y0100100D01*
X0099100Y0100100D01*
X0099100Y0103900D01*
X0099100Y0094100D02*
X0099100Y0090100D01*
X0104500Y0088900D02*
X0104700Y0088700D01*
X0104700Y0084700D01*
X0104700Y0078700D02*
X0104700Y0074700D01*
X0104500Y0074500D01*
X0110700Y0078700D02*
X0130786Y0078700D01*
X0135200Y0083114D01*
X0125456Y0092857D02*
X0117299Y0084700D01*
X0110700Y0084700D01*
X0110700Y0088700D01*
X0110500Y0088900D01*
X0118900Y0090700D02*
X0120515Y0090700D01*
X0124064Y0094249D01*
X0117104Y0101209D02*
X0122195Y0106300D01*
X0122500Y0106300D01*
X0115300Y0118300D02*
X0106300Y0127300D01*
X0108700Y0129700D02*
X0143500Y0094900D01*
X0144100Y0094900D01*
X0137500Y0120700D02*
X0169300Y0152500D01*
X0169300Y0155500D01*
X0169900Y0173492D02*
X0169900Y0173500D01*
X0163734Y0172894D02*
X0132540Y0141700D01*
X0120700Y0141700D01*
X0123100Y0144100D02*
X0123400Y0143800D01*
X0126300Y0143800D01*
X0126600Y0144100D01*
X0132156Y0144100D01*
X0162342Y0174286D01*
X0160951Y0175678D02*
X0131173Y0145900D01*
X0125500Y0145900D01*
X0127900Y0148300D02*
X0130789Y0148300D01*
X0159559Y0177070D01*
X0158167Y0178462D02*
X0165100Y0185395D01*
X0163300Y0186379D02*
X0163300Y0268900D01*
X0165100Y0270700D01*
X0184300Y0270700D01*
X0185900Y0272300D01*
X0185900Y0277500D01*
X0168100Y0285100D02*
X0207700Y0285100D01*
X0204700Y0250300D02*
X0205100Y0249900D01*
X0205100Y0245500D01*
X0199100Y0245500D02*
X0198900Y0245300D01*
X0198900Y0238300D01*
X0165900Y0277500D02*
X0165900Y0282900D01*
X0168100Y0285100D01*
X0160300Y0287500D02*
X0159100Y0288700D01*
X0098500Y0288700D01*
X0097338Y0287538D01*
X0097338Y0280771D01*
X0097338Y0277621D02*
X0102379Y0277621D01*
X0102700Y0277300D01*
X0097338Y0274472D02*
X0118128Y0274472D01*
X0118300Y0274300D01*
X0119478Y0271322D02*
X0097338Y0271322D01*
X0097338Y0268172D02*
X0120228Y0268172D01*
X0120700Y0267700D01*
X0121577Y0265023D02*
X0097338Y0265023D01*
X0097338Y0261873D02*
X0115127Y0261873D01*
X0115300Y0261700D01*
X0115876Y0258724D02*
X0115900Y0258700D01*
X0115876Y0258724D02*
X0097338Y0258724D01*
X0097338Y0255574D02*
X0115774Y0255574D01*
X0115800Y0255600D01*
X0115576Y0252424D02*
X0115900Y0252100D01*
X0115576Y0252424D02*
X0097338Y0252424D01*
X0097338Y0249275D02*
X0088925Y0249275D01*
X0087500Y0250700D01*
X0087500Y0254900D01*
X0087700Y0255100D01*
X0088925Y0246125D02*
X0087500Y0244700D01*
X0087500Y0239700D01*
X0087700Y0239500D01*
X0088925Y0246125D02*
X0097338Y0246125D01*
X0097338Y0242976D02*
X0115424Y0242976D01*
X0115900Y0242500D01*
X0125174Y0239826D02*
X0097338Y0239826D01*
X0097338Y0236676D02*
X0125324Y0236676D01*
X0126700Y0235300D01*
X0126700Y0185570D01*
X0136592Y0175678D01*
X0137984Y0177070D02*
X0127900Y0187153D01*
X0127900Y0237100D01*
X0125174Y0239826D01*
X0124273Y0233527D02*
X0097338Y0233527D01*
X0097338Y0230377D02*
X0109877Y0230377D01*
X0109900Y0230400D01*
X0107772Y0227228D02*
X0108100Y0226900D01*
X0107772Y0227228D02*
X0097338Y0227228D01*
X0097338Y0224078D02*
X0097516Y0223900D01*
X0105700Y0223900D01*
X0097338Y0220928D02*
X0123072Y0220928D01*
X0124300Y0219700D01*
X0124300Y0182402D01*
X0133808Y0172894D01*
X0135200Y0174286D02*
X0125500Y0183986D01*
X0125500Y0232300D01*
X0124273Y0233527D01*
X0130300Y0228100D02*
X0132100Y0229900D01*
X0132100Y0238300D01*
X0136776Y0242976D01*
X0142062Y0242976D01*
X0142062Y0246125D02*
X0147675Y0246125D01*
X0148300Y0245500D01*
X0148300Y0237700D01*
X0148900Y0237100D01*
X0151300Y0237100D01*
X0151500Y0237300D01*
X0155300Y0237300D01*
X0155500Y0237100D01*
X0155500Y0243100D02*
X0155300Y0243300D01*
X0151500Y0243300D01*
X0151500Y0248300D01*
X0150525Y0249275D01*
X0142062Y0249275D01*
X0142062Y0252424D02*
X0152224Y0252424D01*
X0152500Y0252700D01*
X0150574Y0255574D02*
X0150700Y0255700D01*
X0150574Y0255574D02*
X0142062Y0255574D01*
X0142062Y0258724D02*
X0148876Y0258724D01*
X0148900Y0258700D01*
X0147100Y0261700D02*
X0146927Y0261873D01*
X0142062Y0261873D01*
X0142062Y0265023D02*
X0137177Y0265023D01*
X0136300Y0265900D01*
X0136300Y0285700D01*
X0135700Y0286300D01*
X0101500Y0286300D01*
X0119478Y0271322D02*
X0119500Y0271300D01*
X0121577Y0265023D02*
X0121900Y0264700D01*
X0142062Y0268172D02*
X0146628Y0268172D01*
X0147100Y0267700D01*
X0147100Y0271300D02*
X0147078Y0271322D01*
X0142062Y0271322D01*
X0142062Y0274472D02*
X0146928Y0274472D01*
X0147100Y0274300D01*
X0147100Y0277600D02*
X0147079Y0277621D01*
X0142062Y0277621D01*
X0142062Y0280771D02*
X0147029Y0280771D01*
X0147100Y0280700D01*
X0142062Y0239826D02*
X0135426Y0239826D01*
X0133300Y0237700D01*
X0133300Y0228700D01*
X0133900Y0228100D01*
X0136628Y0227228D02*
X0133900Y0224500D01*
X0134500Y0220900D02*
X0137678Y0224078D01*
X0142062Y0224078D01*
X0142062Y0227228D02*
X0136628Y0227228D01*
X0142062Y0230377D02*
X0146623Y0230377D01*
X0147100Y0229900D01*
X0147100Y0177700D01*
X0150700Y0174100D01*
X0156775Y0179854D02*
X0163300Y0186379D01*
X0159500Y0185363D02*
X0159500Y0193700D01*
X0153700Y0193700D02*
X0149700Y0193700D01*
X0149500Y0193900D01*
X0153700Y0193700D02*
X0153700Y0182929D01*
X0153991Y0182638D01*
X0155383Y0181246D02*
X0159500Y0185363D01*
X0168700Y0192700D02*
X0172700Y0192700D01*
X0159500Y0199700D02*
X0159500Y0203900D01*
X0159700Y0204100D01*
X0153700Y0199700D02*
X0149700Y0199700D01*
X0149500Y0199900D01*
X0144700Y0199300D02*
X0140500Y0199300D01*
X0139900Y0198700D01*
X0139900Y0186289D01*
X0143551Y0182638D01*
X0142159Y0181246D02*
X0138100Y0185305D01*
X0138100Y0201700D01*
X0138700Y0202300D01*
X0142300Y0202300D01*
X0141100Y0205300D02*
X0136900Y0205300D01*
X0136300Y0204700D01*
X0136300Y0184321D01*
X0140767Y0179854D01*
X0139375Y0178462D02*
X0134500Y0183337D01*
X0134500Y0207100D01*
X0135700Y0208300D01*
X0139300Y0208300D01*
X0137100Y0211900D02*
X0139829Y0214629D01*
X0142062Y0214629D01*
X0142062Y0217779D02*
X0138579Y0217779D01*
X0135700Y0214900D01*
X0135100Y0217900D02*
X0138128Y0220928D01*
X0142062Y0220928D01*
X0142062Y0230377D02*
X0151177Y0230377D01*
X0151500Y0230700D01*
X0157500Y0230700D02*
X0157500Y0226100D01*
X0157900Y0225700D01*
X0142062Y0233527D02*
X0142035Y0233500D01*
X0135700Y0233500D01*
X0136900Y0236500D02*
X0137076Y0236676D01*
X0142062Y0236676D01*
X0130300Y0228100D02*
X0130300Y0227500D01*
X0122021Y0217779D02*
X0097338Y0217779D01*
X0097338Y0214629D02*
X0120971Y0214629D01*
X0121900Y0213700D01*
X0121900Y0179234D01*
X0131024Y0170110D01*
X0129632Y0168718D02*
X0133250Y0165100D01*
X0133300Y0165100D01*
X0128240Y0167326D02*
X0125500Y0170066D01*
X0125500Y0171100D01*
X0113900Y0182700D01*
X0105700Y0182700D01*
X0101300Y0182700D01*
X0099700Y0184300D01*
X0102100Y0188500D02*
X0102300Y0188700D01*
X0105700Y0188700D01*
X0098500Y0177100D02*
X0091900Y0177100D01*
X0091900Y0171100D02*
X0098500Y0171100D01*
X0098500Y0166444D01*
X0112929Y0152015D01*
X0114320Y0153407D02*
X0117027Y0150700D01*
X0118300Y0150700D01*
X0123700Y0156100D01*
X0124300Y0156100D01*
X0119888Y0158975D02*
X0110763Y0168100D01*
X0109900Y0168100D01*
X0108100Y0169900D01*
X0108100Y0170200D01*
X0111100Y0170547D02*
X0111100Y0170600D01*
X0111100Y0170547D02*
X0121280Y0160367D01*
X0122672Y0161759D02*
X0116931Y0167500D01*
X0116500Y0167500D01*
X0114100Y0169900D01*
X0114100Y0170900D01*
X0117100Y0169900D02*
X0117315Y0169900D01*
X0124064Y0163151D01*
X0125456Y0164543D02*
X0122499Y0167500D01*
X0121900Y0167500D01*
X0120100Y0169300D01*
X0120100Y0170500D01*
X0123100Y0169600D02*
X0123182Y0169600D01*
X0126848Y0165934D01*
X0132416Y0171502D02*
X0123100Y0180818D01*
X0123100Y0216700D01*
X0122021Y0217779D01*
X0088900Y0204700D02*
X0088100Y0205500D01*
X0077500Y0205500D01*
X0077500Y0195500D02*
X0086100Y0195500D01*
X0087100Y0194500D01*
X0087100Y0164500D01*
X0088300Y0163300D01*
X0096076Y0163300D01*
X0110145Y0149231D01*
X0111537Y0150623D02*
X0097060Y0165100D01*
X0089500Y0165100D01*
X0088900Y0165700D01*
X0088900Y0204700D01*
X0083700Y0180500D02*
X0077900Y0180500D01*
X0083700Y0180500D02*
X0085300Y0178900D01*
X0085300Y0162700D01*
X0086500Y0161500D01*
X0092500Y0161500D01*
X0094300Y0159700D01*
X0094300Y0153940D01*
X0104577Y0143663D01*
X0103185Y0142271D02*
X0092500Y0152956D01*
X0092500Y0158500D01*
X0091300Y0159700D01*
X0084100Y0159700D01*
X0082900Y0160900D01*
X0082900Y0169300D01*
X0081700Y0170500D01*
X0077900Y0170500D01*
X0089500Y0156700D02*
X0089700Y0156500D01*
X0089700Y0151900D01*
X0089700Y0145900D02*
X0089700Y0143300D01*
X0091300Y0141700D01*
X0093700Y0141700D01*
X0094300Y0141100D01*
X0094300Y0140021D01*
X0097617Y0136704D01*
X0099009Y0138096D02*
X0101500Y0135605D01*
X0101500Y0133900D01*
X0097300Y0129700D01*
X0095500Y0129700D01*
X0090100Y0135100D01*
X0077900Y0135100D01*
X0077900Y0125100D02*
X0093213Y0125100D01*
X0094833Y0123480D01*
X0096225Y0122088D02*
X0089500Y0115363D01*
X0089500Y0088900D01*
X0088300Y0087700D01*
X0078100Y0087700D01*
X0078100Y0077700D02*
X0089700Y0077700D01*
X0091300Y0079300D01*
X0091300Y0114379D01*
X0097617Y0120696D01*
X0099009Y0119304D02*
X0093100Y0113395D01*
X0093100Y0069100D01*
X0091700Y0067700D01*
X0078100Y0067700D01*
X0078100Y0057700D02*
X0093700Y0057700D01*
X0094900Y0058900D01*
X0094900Y0112411D01*
X0100401Y0117912D01*
X0101793Y0116520D02*
X0105100Y0119827D01*
X0105100Y0120100D01*
X0107500Y0119444D02*
X0103185Y0115129D01*
X0107500Y0119444D02*
X0107500Y0121300D01*
X0105100Y0123700D01*
X0094833Y0133920D02*
X0092453Y0136300D01*
X0091300Y0136300D01*
X0083700Y0143900D01*
X0083700Y0145700D01*
X0083700Y0145053D01*
X0079547Y0145053D01*
X0079300Y0145300D01*
X0079500Y0151700D02*
X0079300Y0151900D01*
X0079500Y0151700D02*
X0083700Y0151700D01*
X0089700Y0145900D02*
X0089700Y0144621D01*
X0091900Y0139300D02*
X0092237Y0139300D01*
X0096225Y0135312D01*
X0126300Y0068100D02*
X0130100Y0068100D01*
X0130300Y0067900D01*
X0132700Y0035500D02*
X0132956Y0035244D01*
X0138100Y0035244D01*
X0149500Y0034300D02*
X0149844Y0034644D01*
X0154500Y0034644D01*
X0166300Y0034900D02*
X0166356Y0034844D01*
X0171100Y0034844D01*
X0178300Y0091900D02*
X0178300Y0092211D01*
X0174870Y0095641D01*
X0173478Y0094322D02*
X0173478Y0094249D01*
X0173478Y0094322D02*
X0171100Y0096700D01*
X0176262Y0097033D02*
X0180500Y0092795D01*
X0193850Y0104500D02*
X0194500Y0104500D01*
X0205129Y0131500D02*
X0205300Y0131500D01*
X0205129Y0131500D02*
X0202709Y0133920D01*
D26*
X0205300Y0131500D03*
X0199300Y0126700D03*
X0198100Y0132100D03*
X0203500Y0141700D03*
X0199900Y0145300D03*
X0212500Y0148900D03*
X0206500Y0157300D03*
X0205900Y0170500D03*
X0195700Y0183100D03*
X0189700Y0183700D03*
X0178300Y0168100D03*
X0178300Y0165100D03*
X0181300Y0165100D03*
X0181300Y0162100D03*
X0184900Y0162700D03*
X0184900Y0159700D03*
X0188500Y0156100D03*
X0180100Y0150100D03*
X0169300Y0155500D03*
X0166300Y0163900D03*
X0175300Y0168100D03*
X0175300Y0171100D03*
X0169900Y0173500D03*
X0168700Y0186700D03*
X0168700Y0192700D03*
X0159700Y0204100D03*
X0149500Y0199900D03*
X0144700Y0199300D03*
X0142300Y0202300D03*
X0141100Y0205300D03*
X0139300Y0208300D03*
X0137100Y0211900D03*
X0135700Y0214900D03*
X0135100Y0217900D03*
X0134500Y0220900D03*
X0133900Y0224500D03*
X0133900Y0228100D03*
X0130300Y0227500D03*
X0135700Y0233500D03*
X0136900Y0236500D03*
X0152500Y0252700D03*
X0150700Y0255700D03*
X0148900Y0258700D03*
X0147100Y0261700D03*
X0147100Y0267700D03*
X0147100Y0271300D03*
X0147100Y0274300D03*
X0147100Y0277600D03*
X0147100Y0280700D03*
X0160300Y0287500D03*
X0120700Y0267700D03*
X0121900Y0264700D03*
X0119500Y0271300D03*
X0118300Y0274300D03*
X0115300Y0261700D03*
X0115900Y0258700D03*
X0115800Y0255600D03*
X0115900Y0252100D03*
X0115900Y0242500D03*
X0109900Y0230400D03*
X0108100Y0226900D03*
X0105700Y0223900D03*
X0087700Y0239500D03*
X0087700Y0255100D03*
X0102700Y0277300D03*
X0101500Y0286300D03*
X0155500Y0243100D03*
X0155500Y0237100D03*
X0157900Y0225700D03*
X0149500Y0193900D03*
X0150700Y0174100D03*
X0133300Y0165100D03*
X0123100Y0169600D03*
X0120100Y0170500D03*
X0117100Y0169900D03*
X0114100Y0170900D03*
X0111100Y0170600D03*
X0108100Y0170200D03*
X0099700Y0184300D03*
X0102100Y0188500D03*
X0091900Y0177100D03*
X0091900Y0171100D03*
X0089500Y0156700D03*
X0079300Y0151900D03*
X0079300Y0145300D03*
X0091900Y0139300D03*
X0106300Y0127300D03*
X0108700Y0129700D03*
X0111100Y0132100D03*
X0113500Y0134500D03*
X0115900Y0136900D03*
X0118300Y0139300D03*
X0120700Y0141700D03*
X0123100Y0144100D03*
X0125500Y0145900D03*
X0127900Y0148300D03*
X0124300Y0156100D03*
X0119500Y0123100D03*
X0111100Y0114700D03*
X0114100Y0111100D03*
X0122500Y0106300D03*
X0118900Y0090700D03*
X0110500Y0088900D03*
X0104500Y0088900D03*
X0099100Y0090100D03*
X0099100Y0103900D03*
X0105100Y0120100D03*
X0105100Y0123700D03*
X0137500Y0120700D03*
X0157900Y0108700D03*
X0161500Y0095500D03*
X0158500Y0094300D03*
X0151900Y0096100D03*
X0144100Y0094900D03*
X0145300Y0082300D03*
X0148900Y0066100D03*
X0130300Y0067900D03*
X0130300Y0062500D03*
X0116500Y0061900D03*
X0104500Y0074500D03*
X0132700Y0035500D03*
X0149500Y0034300D03*
X0166300Y0034900D03*
X0189100Y0052900D03*
X0193900Y0064300D03*
X0183700Y0069700D03*
X0176500Y0078700D03*
X0176500Y0084700D03*
X0178300Y0091900D03*
X0169000Y0096500D03*
X0165900Y0096700D03*
X0165900Y0093500D03*
X0190900Y0103900D03*
X0194500Y0104500D03*
X0203500Y0109900D03*
X0208300Y0106300D03*
X0203500Y0117700D03*
X0223300Y0112300D03*
X0222700Y0106300D03*
X0216100Y0096100D03*
X0207700Y0076900D03*
X0231700Y0075700D03*
X0246100Y0084100D03*
X0222700Y0130300D03*
X0229300Y0151300D03*
X0237700Y0150700D03*
X0237100Y0156100D03*
X0243700Y0164500D03*
X0242500Y0171100D03*
X0243100Y0142300D03*
X0204700Y0250300D03*
D27*
X0204900Y0238300D02*
X0204700Y0238100D01*
X0204700Y0231100D01*
X0204900Y0230900D01*
X0204900Y0223900D01*
X0211900Y0223900D01*
X0198900Y0223900D02*
X0198900Y0230900D01*
X0198700Y0231100D01*
X0198900Y0223900D02*
X0198300Y0223300D01*
X0192100Y0223300D01*
X0190600Y0221800D01*
X0190600Y0212500D01*
X0190600Y0203500D02*
X0202900Y0203500D01*
X0215600Y0203500D01*
X0204100Y0192700D02*
X0204100Y0189100D01*
X0207500Y0185700D01*
X0214700Y0185700D01*
X0222500Y0185700D01*
X0222900Y0186100D01*
X0228700Y0186100D01*
X0230626Y0188026D01*
X0240900Y0188026D01*
X0240900Y0203774D02*
X0240100Y0204574D01*
X0240100Y0222700D01*
X0242300Y0224900D01*
X0245558Y0224900D01*
X0245558Y0232774D02*
X0245500Y0232832D01*
X0245500Y0237700D01*
X0244300Y0238900D01*
X0241900Y0238900D01*
X0239199Y0241601D01*
X0239199Y0257800D01*
X0250617Y0258957D02*
X0250617Y0280611D01*
X0215183Y0280611D01*
X0214900Y0280328D01*
X0214900Y0269500D01*
X0215183Y0269217D01*
X0215183Y0258957D01*
X0216341Y0257800D01*
X0226601Y0257800D01*
X0190600Y0194500D02*
X0191200Y0193900D01*
X0202900Y0193900D01*
X0204100Y0192700D01*
X0214700Y0179700D02*
X0222500Y0179700D01*
X0222500Y0174300D01*
X0222700Y0174100D01*
D28*
X0222700Y0174100D03*
X0202900Y0203500D03*
X0211900Y0223900D03*
X0192100Y0223300D03*
X0214900Y0269500D03*
M02*
