G75*
%MOIN*%
%OFA0B0*%
%FSLAX25Y25*%
%IPPOS*%
%LPD*%
%AMOC8*
5,1,8,0,0,1.08239X$1,22.5*
%
%ADD10R,0.06500X0.06500*%
%ADD11C,0.06500*%
%ADD12C,0.05150*%
%ADD13C,0.02400*%
%ADD14C,0.02800*%
%ADD15C,0.00600*%
D10*
X0078100Y0047700D03*
X0077900Y0115100D03*
X0077900Y0160500D03*
X0077500Y0225500D03*
X0077500Y0239700D03*
X0165900Y0277500D03*
X0192500Y0043300D03*
D11*
X0202500Y0043300D03*
X0212500Y0043300D03*
X0222500Y0043300D03*
X0232500Y0043300D03*
X0242500Y0043300D03*
X0078100Y0057700D03*
X0078100Y0067700D03*
X0078100Y0077700D03*
X0078100Y0087700D03*
X0078100Y0097700D03*
X0077900Y0125100D03*
X0077900Y0135100D03*
X0077900Y0170500D03*
X0077900Y0180500D03*
X0077500Y0195500D03*
X0077500Y0205500D03*
X0077500Y0215500D03*
X0077500Y0249700D03*
X0077500Y0259700D03*
X0077500Y0269700D03*
X0077500Y0279700D03*
X0077500Y0289700D03*
X0175900Y0277500D03*
X0185900Y0277500D03*
X0195900Y0277500D03*
D12*
X0227842Y0232774D03*
X0227842Y0224900D03*
X0227842Y0217026D03*
X0245558Y0217026D03*
X0245558Y0224900D03*
X0245558Y0232774D03*
D13*
X0204700Y0250300D03*
X0157900Y0225700D03*
X0155500Y0237100D03*
X0155500Y0243100D03*
X0152500Y0252700D03*
X0150700Y0255700D03*
X0148900Y0258700D03*
X0147100Y0261700D03*
X0147100Y0267700D03*
X0147100Y0271300D03*
X0147100Y0274300D03*
X0147100Y0277600D03*
X0147100Y0280700D03*
X0160300Y0287500D03*
X0120700Y0267700D03*
X0121900Y0264700D03*
X0119500Y0271300D03*
X0118300Y0274300D03*
X0115300Y0261700D03*
X0115900Y0258700D03*
X0115800Y0255600D03*
X0115900Y0252100D03*
X0115900Y0242500D03*
X0109900Y0230400D03*
X0108100Y0226900D03*
X0105700Y0223900D03*
X0087700Y0239500D03*
X0087700Y0255100D03*
X0102700Y0277300D03*
X0101500Y0286300D03*
X0136900Y0236500D03*
X0135700Y0233500D03*
X0133900Y0228100D03*
X0133900Y0224500D03*
X0134500Y0220900D03*
X0135100Y0217900D03*
X0135700Y0214900D03*
X0137100Y0211900D03*
X0139300Y0208300D03*
X0141100Y0205300D03*
X0142300Y0202300D03*
X0144700Y0199300D03*
X0149500Y0199900D03*
X0149500Y0193900D03*
X0159700Y0204100D03*
X0168700Y0192700D03*
X0168700Y0186700D03*
X0169900Y0173500D03*
X0175300Y0171100D03*
X0175300Y0168100D03*
X0178300Y0168100D03*
X0178300Y0165100D03*
X0181300Y0165100D03*
X0181300Y0162100D03*
X0184900Y0162700D03*
X0184900Y0159700D03*
X0188500Y0156100D03*
X0180100Y0150100D03*
X0169300Y0155500D03*
X0166300Y0163900D03*
X0150700Y0174100D03*
X0133300Y0165100D03*
X0123100Y0169600D03*
X0120100Y0170500D03*
X0117100Y0169900D03*
X0114100Y0170900D03*
X0111100Y0170600D03*
X0108100Y0170200D03*
X0099700Y0184300D03*
X0102100Y0188500D03*
X0091900Y0177100D03*
X0091900Y0171100D03*
X0089500Y0156700D03*
X0079300Y0151900D03*
X0079300Y0145300D03*
X0091900Y0139300D03*
X0106300Y0127300D03*
X0108700Y0129700D03*
X0111100Y0132100D03*
X0113500Y0134500D03*
X0115900Y0136900D03*
X0118300Y0139300D03*
X0120700Y0141700D03*
X0123100Y0144100D03*
X0125500Y0145900D03*
X0127900Y0148300D03*
X0124300Y0156100D03*
X0119500Y0123100D03*
X0111100Y0114700D03*
X0114100Y0111100D03*
X0122500Y0106300D03*
X0118900Y0090700D03*
X0110500Y0088900D03*
X0104500Y0088900D03*
X0099100Y0090100D03*
X0099100Y0103900D03*
X0105100Y0120100D03*
X0105100Y0123700D03*
X0137500Y0120700D03*
X0157900Y0108700D03*
X0161500Y0095500D03*
X0158500Y0094300D03*
X0151900Y0096100D03*
X0144100Y0094900D03*
X0145300Y0082300D03*
X0148900Y0066100D03*
X0130300Y0067900D03*
X0130300Y0062500D03*
X0116500Y0061900D03*
X0104500Y0074500D03*
X0132700Y0035500D03*
X0149500Y0034300D03*
X0166300Y0034900D03*
X0189100Y0052900D03*
X0193900Y0064300D03*
X0183700Y0069700D03*
X0176500Y0078700D03*
X0176500Y0084700D03*
X0178300Y0091900D03*
X0169000Y0096500D03*
X0165900Y0096700D03*
X0165900Y0093500D03*
X0190900Y0103900D03*
X0194500Y0104500D03*
X0203500Y0109900D03*
X0208300Y0106300D03*
X0203500Y0117700D03*
X0199300Y0126700D03*
X0198100Y0132100D03*
X0203500Y0141700D03*
X0199900Y0145300D03*
X0212500Y0148900D03*
X0206500Y0157300D03*
X0205900Y0170500D03*
X0195700Y0183100D03*
X0189700Y0183700D03*
X0229300Y0151300D03*
X0237700Y0150700D03*
X0237100Y0156100D03*
X0243700Y0164500D03*
X0242500Y0171100D03*
X0243100Y0142300D03*
X0222700Y0130300D03*
X0205300Y0131500D03*
X0223300Y0112300D03*
X0222700Y0106300D03*
X0216100Y0096100D03*
X0207700Y0076900D03*
X0231700Y0075700D03*
X0246100Y0084100D03*
X0130300Y0227500D03*
D14*
X0192100Y0223300D03*
X0202900Y0203500D03*
X0211900Y0223900D03*
X0214900Y0269500D03*
X0222700Y0174100D03*
D15*
X0237700Y0150700D02*
X0237100Y0150100D01*
X0237100Y0147700D01*
X0235900Y0146500D01*
X0201100Y0146500D01*
X0199900Y0145300D01*
X0203500Y0141700D02*
X0242500Y0141700D01*
X0243100Y0142300D01*
X0219700Y0117100D02*
X0219700Y0046100D01*
X0222500Y0043300D01*
X0212500Y0043300D02*
X0212500Y0113500D01*
X0199300Y0126700D01*
X0194500Y0125700D02*
X0194500Y0123100D01*
X0169000Y0097600D01*
X0169000Y0096500D01*
X0165900Y0096700D02*
X0165900Y0096900D01*
X0192700Y0123700D01*
X0192700Y0125500D01*
X0135700Y0182500D01*
X0135700Y0210100D01*
X0134500Y0211300D01*
X0134500Y0213700D01*
X0135700Y0214900D01*
X0133300Y0215500D02*
X0133300Y0210700D01*
X0134500Y0209500D01*
X0134500Y0181900D01*
X0190300Y0126100D01*
X0190300Y0124300D01*
X0163800Y0097800D01*
X0163800Y0095600D01*
X0165900Y0093500D01*
X0161500Y0095500D02*
X0161500Y0097900D01*
X0188500Y0124900D01*
X0188500Y0126100D01*
X0133300Y0181300D01*
X0133300Y0208900D01*
X0132100Y0210100D01*
X0132100Y0218500D01*
X0134500Y0220900D01*
X0135100Y0217900D02*
X0135100Y0217300D01*
X0133300Y0215500D01*
X0137100Y0211900D02*
X0137100Y0183100D01*
X0194500Y0125700D01*
X0186700Y0125500D02*
X0186700Y0126100D01*
X0132100Y0180700D01*
X0132100Y0208300D01*
X0130900Y0209500D01*
X0130900Y0221500D01*
X0133900Y0224500D01*
X0133900Y0228100D02*
X0129700Y0223900D01*
X0129700Y0208900D01*
X0130900Y0207700D01*
X0130900Y0180100D01*
X0147700Y0163300D01*
X0147700Y0162700D01*
X0105100Y0120100D01*
X0105100Y0123700D02*
X0105700Y0124300D01*
X0107500Y0124300D01*
X0145900Y0162700D01*
X0145900Y0163300D01*
X0129700Y0179500D01*
X0129700Y0207100D01*
X0128500Y0208300D01*
X0128500Y0225700D01*
X0130300Y0227500D01*
X0126100Y0233500D02*
X0135700Y0233500D01*
X0136900Y0236500D02*
X0127300Y0236500D01*
X0123100Y0232300D01*
X0123100Y0172300D01*
X0122500Y0171700D01*
X0121300Y0171700D01*
X0120100Y0170500D01*
X0119500Y0172900D02*
X0121300Y0172900D01*
X0121900Y0173500D01*
X0121900Y0264700D01*
X0120700Y0262900D02*
X0119800Y0263800D01*
X0119800Y0266800D01*
X0120700Y0267700D01*
X0118600Y0270400D02*
X0119500Y0271300D01*
X0118600Y0270400D02*
X0118600Y0263300D01*
X0119500Y0262400D01*
X0119500Y0175900D01*
X0118900Y0175300D01*
X0117700Y0175300D01*
X0115600Y0173200D01*
X0112600Y0173200D01*
X0111100Y0171700D01*
X0111100Y0170600D01*
X0114100Y0170900D02*
X0115100Y0170900D01*
X0118300Y0174100D01*
X0120100Y0174100D01*
X0120700Y0174700D01*
X0120700Y0262900D01*
X0118300Y0261700D02*
X0118300Y0177100D01*
X0117700Y0176500D01*
X0117100Y0176500D01*
X0115000Y0174400D01*
X0111400Y0174400D01*
X0108100Y0171100D01*
X0108100Y0170200D01*
X0105700Y0169300D02*
X0107500Y0167500D01*
X0108700Y0167500D01*
X0127900Y0148300D01*
X0127800Y0148300D01*
X0125500Y0148900D02*
X0125500Y0145900D01*
X0123700Y0147700D02*
X0122500Y0146500D01*
X0122500Y0144700D01*
X0123100Y0144100D01*
X0120700Y0141700D02*
X0119500Y0142900D01*
X0119500Y0145300D01*
X0121900Y0147700D01*
X0121900Y0148900D01*
X0106900Y0163900D01*
X0105700Y0163900D01*
X0102100Y0167500D01*
X0102100Y0172900D01*
X0108700Y0179500D01*
X0112300Y0179500D01*
X0113500Y0180700D01*
X0113500Y0238300D01*
X0111100Y0240700D01*
X0111100Y0244300D01*
X0112300Y0245500D01*
X0112300Y0255100D01*
X0115900Y0258700D01*
X0115300Y0261700D02*
X0111100Y0257500D01*
X0111100Y0246100D01*
X0109900Y0244900D01*
X0109900Y0240100D01*
X0112300Y0237700D01*
X0112300Y0181300D01*
X0111700Y0180700D01*
X0108100Y0180700D01*
X0100900Y0173500D01*
X0100900Y0166900D01*
X0105100Y0162700D01*
X0106300Y0162700D01*
X0120100Y0148900D01*
X0120100Y0147700D01*
X0115900Y0143500D01*
X0115900Y0141700D01*
X0118300Y0139300D01*
X0115900Y0136900D02*
X0112300Y0140500D01*
X0112300Y0141700D01*
X0118300Y0147700D01*
X0118300Y0148900D01*
X0105700Y0161500D01*
X0104500Y0161500D01*
X0099700Y0166300D01*
X0099700Y0174100D01*
X0107500Y0181900D01*
X0110500Y0181900D01*
X0111100Y0182500D01*
X0111100Y0229200D01*
X0109900Y0230400D01*
X0108100Y0226900D02*
X0109900Y0225100D01*
X0109900Y0183700D01*
X0109300Y0183100D01*
X0106900Y0183100D01*
X0098500Y0174700D01*
X0098500Y0165700D01*
X0103900Y0160300D01*
X0105100Y0160300D01*
X0116500Y0148900D01*
X0116500Y0147700D01*
X0109300Y0140500D01*
X0109300Y0138700D01*
X0113500Y0134500D01*
X0111100Y0132100D02*
X0105700Y0137500D01*
X0105700Y0138700D01*
X0114700Y0147700D01*
X0114700Y0148900D01*
X0104500Y0159100D01*
X0103300Y0159100D01*
X0097300Y0165100D01*
X0097300Y0175300D01*
X0106300Y0184300D01*
X0108100Y0184300D01*
X0108700Y0184900D01*
X0108700Y0223300D01*
X0108100Y0223900D01*
X0105700Y0223900D01*
X0106300Y0220900D02*
X0107500Y0219700D01*
X0107500Y0186100D01*
X0106900Y0185500D01*
X0105700Y0185500D01*
X0096100Y0175900D01*
X0096100Y0164500D01*
X0112300Y0148300D01*
X0112300Y0147100D01*
X0102100Y0136900D01*
X0102100Y0136300D01*
X0108700Y0129700D01*
X0106300Y0127300D02*
X0099100Y0134500D01*
X0099100Y0135700D01*
X0110500Y0147100D01*
X0110500Y0148300D01*
X0094900Y0163900D01*
X0094900Y0176500D01*
X0105100Y0186700D01*
X0105700Y0186700D01*
X0106300Y0187300D01*
X0106300Y0219100D01*
X0105700Y0219700D01*
X0103300Y0219700D01*
X0100300Y0222700D01*
X0100300Y0285100D01*
X0101500Y0286300D01*
X0096100Y0288700D02*
X0094900Y0287500D01*
X0094900Y0250300D01*
X0093700Y0249100D01*
X0078100Y0249100D01*
X0077500Y0249700D01*
X0077500Y0259700D02*
X0092900Y0259700D01*
X0093700Y0260500D01*
X0093700Y0288100D01*
X0095500Y0289900D01*
X0123700Y0289900D01*
X0125500Y0288100D01*
X0125500Y0241300D01*
X0126100Y0240700D01*
X0139900Y0240700D01*
X0141700Y0238900D01*
X0141700Y0205900D01*
X0141100Y0205300D01*
X0143500Y0203500D02*
X0143500Y0239500D01*
X0141100Y0241900D01*
X0127300Y0241900D01*
X0126700Y0242500D01*
X0126700Y0288700D01*
X0124300Y0291100D01*
X0094900Y0291100D01*
X0092500Y0288700D01*
X0092500Y0270700D01*
X0091500Y0269700D01*
X0077500Y0269700D01*
X0077500Y0279700D02*
X0090700Y0279700D01*
X0091300Y0280300D01*
X0091300Y0289300D01*
X0094300Y0292300D01*
X0124900Y0292300D01*
X0127900Y0289300D01*
X0127900Y0243700D01*
X0128500Y0243100D01*
X0141700Y0243100D01*
X0144700Y0240100D01*
X0144700Y0199300D01*
X0142300Y0202300D02*
X0143500Y0203500D01*
X0139300Y0208300D02*
X0140500Y0209500D01*
X0140500Y0238300D01*
X0139300Y0239500D01*
X0125500Y0239500D01*
X0124300Y0240700D01*
X0124300Y0287500D01*
X0123100Y0288700D01*
X0096100Y0288700D01*
X0102700Y0277300D02*
X0102700Y0222700D01*
X0104500Y0220900D01*
X0106300Y0220900D01*
X0114700Y0238900D02*
X0114700Y0180100D01*
X0112900Y0178300D01*
X0109300Y0178300D01*
X0103300Y0172300D01*
X0103300Y0168100D01*
X0106300Y0165100D01*
X0107500Y0165100D01*
X0123700Y0148900D01*
X0123700Y0147700D01*
X0125500Y0148900D02*
X0108100Y0166300D01*
X0106900Y0166300D01*
X0104500Y0168700D01*
X0104500Y0171700D01*
X0109900Y0177100D01*
X0113500Y0177100D01*
X0115900Y0179500D01*
X0115900Y0239500D01*
X0113500Y0241900D01*
X0113500Y0243100D01*
X0115300Y0244900D01*
X0116500Y0244900D01*
X0117100Y0245500D01*
X0117100Y0250900D01*
X0115900Y0252100D01*
X0113500Y0251500D02*
X0115900Y0249100D01*
X0115900Y0246100D01*
X0114700Y0246100D01*
X0112300Y0243700D01*
X0112300Y0241300D01*
X0114700Y0238900D01*
X0117100Y0241300D02*
X0115900Y0242500D01*
X0117100Y0241300D02*
X0117100Y0178900D01*
X0114100Y0175900D01*
X0110500Y0175900D01*
X0105700Y0171100D01*
X0105700Y0169300D01*
X0117100Y0169900D02*
X0117100Y0170500D01*
X0119500Y0172900D01*
X0123100Y0169600D02*
X0124300Y0170800D01*
X0124300Y0231700D01*
X0126100Y0233500D01*
X0113500Y0251500D02*
X0113500Y0253300D01*
X0115800Y0255600D01*
X0118300Y0261700D02*
X0117400Y0262600D01*
X0117400Y0273400D01*
X0118300Y0274300D01*
X0147100Y0274300D02*
X0155500Y0274300D01*
X0156700Y0273100D01*
X0156700Y0256900D01*
X0157300Y0256300D01*
X0168100Y0256300D01*
X0182500Y0241900D01*
X0182500Y0171400D01*
X0182800Y0171100D01*
X0182800Y0166600D01*
X0183700Y0165700D01*
X0183700Y0164500D01*
X0181300Y0162100D01*
X0181300Y0165100D02*
X0181300Y0165800D01*
X0181600Y0166100D01*
X0181600Y0170200D01*
X0181300Y0170500D01*
X0181300Y0241300D01*
X0167500Y0255100D01*
X0156100Y0255100D01*
X0155500Y0255700D01*
X0155500Y0270100D01*
X0154300Y0271300D01*
X0147100Y0271300D01*
X0147100Y0267700D02*
X0153100Y0267700D01*
X0154300Y0266500D01*
X0154300Y0255100D01*
X0155500Y0253900D01*
X0166900Y0253900D01*
X0180100Y0240700D01*
X0180100Y0169900D01*
X0180400Y0169600D01*
X0180400Y0167200D01*
X0178300Y0165100D01*
X0178300Y0168100D02*
X0178900Y0168700D01*
X0178900Y0240100D01*
X0166300Y0252700D01*
X0152500Y0252700D01*
X0153700Y0250900D02*
X0166300Y0250900D01*
X0177700Y0239500D01*
X0177700Y0170500D01*
X0175300Y0168100D01*
X0175300Y0171100D02*
X0176500Y0172300D01*
X0176500Y0238900D01*
X0166300Y0249100D01*
X0150700Y0249100D01*
X0148600Y0251200D01*
X0148600Y0256800D01*
X0148900Y0257100D01*
X0148900Y0258700D01*
X0146800Y0260900D02*
X0146800Y0251200D01*
X0150100Y0247900D01*
X0165700Y0247900D01*
X0175300Y0238300D01*
X0175300Y0178900D01*
X0169900Y0173500D01*
X0183700Y0172200D02*
X0184000Y0171900D01*
X0184000Y0167800D01*
X0184900Y0166900D01*
X0184900Y0162700D01*
X0186100Y0164600D02*
X0187000Y0163700D01*
X0187000Y0161800D01*
X0184900Y0159700D01*
X0186100Y0164600D02*
X0186100Y0167500D01*
X0185200Y0168400D01*
X0185200Y0172600D01*
X0184900Y0172900D01*
X0184900Y0243100D01*
X0169300Y0258700D01*
X0159700Y0258700D01*
X0159100Y0259300D01*
X0159100Y0279100D01*
X0157500Y0280700D01*
X0147100Y0280700D01*
X0147100Y0277600D02*
X0156400Y0277600D01*
X0157900Y0276100D01*
X0157900Y0258100D01*
X0158500Y0257500D01*
X0168700Y0257500D01*
X0183700Y0242500D01*
X0183700Y0172200D01*
X0186100Y0173500D02*
X0186700Y0172900D01*
X0186700Y0169300D01*
X0187300Y0168700D01*
X0187300Y0165700D01*
X0188500Y0164500D01*
X0188500Y0156100D01*
X0186100Y0173500D02*
X0186100Y0243700D01*
X0169900Y0259900D01*
X0160900Y0259900D01*
X0160300Y0260500D01*
X0160300Y0287500D01*
X0147100Y0261700D02*
X0147100Y0261200D01*
X0146800Y0260900D01*
X0150700Y0255700D02*
X0150700Y0253900D01*
X0150100Y0253300D01*
X0150100Y0251500D01*
X0151300Y0250300D01*
X0153100Y0250300D01*
X0153700Y0250900D01*
X0150700Y0174100D02*
X0169300Y0155500D01*
X0186700Y0125500D02*
X0158500Y0097300D01*
X0158500Y0094300D01*
X0154900Y0093100D02*
X0154900Y0091900D01*
X0145300Y0082300D01*
X0154900Y0093100D02*
X0151900Y0096100D01*
X0144100Y0094900D02*
X0157900Y0108700D01*
X0137500Y0120700D02*
X0123100Y0106300D01*
X0122500Y0106300D01*
X0111100Y0114700D02*
X0119500Y0123100D01*
X0148900Y0069100D02*
X0148900Y0066100D01*
X0148900Y0069100D02*
X0199300Y0119500D01*
X0201700Y0119500D01*
X0203500Y0117700D01*
X0194500Y0104500D02*
X0194500Y0069100D01*
X0197500Y0066100D01*
X0197500Y0051100D01*
X0195700Y0049300D01*
X0194500Y0049300D01*
X0192700Y0047500D01*
X0192700Y0043500D01*
X0192500Y0043300D01*
X0189700Y0070300D02*
X0184300Y0070300D01*
X0183700Y0069700D01*
X0189700Y0070300D02*
X0190900Y0071500D01*
X0190900Y0103900D01*
X0205300Y0131500D02*
X0219700Y0117100D01*
M02*
